<?xml version="1.0" encoding="utf-8"?>
<!-- Generator: Adobe Illustrator 23.1.0, SVG Export Plug-In . SVG Version: 6.00 Build 0)  -->
<svg version="1.1" id="Layer_1" xmlns="http://www.w3.org/2000/svg" xmlns:xlink="http://www.w3.org/1999/xlink" x="0px" y="0px"
	 viewBox="0 0 32 22" style="enable-background:new 0 0 32 22;" xml:space="preserve">
<style type="text/css">
	.st0{fill:#396DB4;}
	.st1{opacity:0.15;fill:#202121;enable-background:new    ;}
	.st2{fill:#FFFFFF;}
</style>
<g>
	<path class="st0" d="M31.2,19.7c0,1-0.8,1.8-1.8,1.8H2.6c-1,0-1.8-0.8-1.8-1.8V2.3c0-1,0.8-1.8,1.8-1.8h26.9c1,0,1.8,0.8,1.8,1.8
		V19.7L31.2,19.7z"/>
	<path class="st1" d="M2.1,19.7V2.3c0-1,0.8-1.8,1.8-1.8H2.6c-1,0-1.8,0.8-1.8,1.8v17.4c0,1,0.8,1.8,1.8,1.8h1.3
		C2.9,21.5,2.1,20.7,2.1,19.7z"/>
	<g>
		<polygon class="st2" points="5.2,8.9 6.1,8.9 5.7,7.7 		"/>
		<polygon class="st2" points="10,12.8 10,13.3 11.6,13.3 11.6,13.9 10,13.9 10,14.5 11.7,14.5 12.5,13.7 11.8,12.8 		"/>
		<polygon class="st2" points="22,7.7 21.5,8.9 22.5,8.9 		"/>
		<polygon class="st2" points="14.5,14.9 14.5,12.5 13.4,13.7 		"/>
		<path class="st2" d="M16.5,13.2c0-0.2-0.2-0.4-0.5-0.4h-0.9v0.7h0.9C16.3,13.5,16.5,13.4,16.5,13.2z"/>
		<path class="st2" d="M19.4,13.5c0.1,0,0.1-0.2,0.1-0.3c0-0.2,0-0.2-0.1-0.3c-0.1,0-0.2,0-0.3,0h-0.8v0.7h0.8
			C19.2,13.5,19.3,13.5,19.4,13.5z"/>
		<path class="st2" d="M25.4,6.7v0.5l-0.2-0.5h-1.9v0.5l-0.2-0.5h-2.6c-0.5,0-0.8,0.1-1.2,0.2V6.7h-1.9v0v0.2
			c-0.2-0.2-0.5-0.2-0.8-0.2H9.8l-0.5,1l-0.5-1H7.4H6.8v0.5L6.6,6.7h0H4.8L3.9,8.6l-1,2.1l0,0h0h2.1h0l0,0l0.2-0.6h0.5l0.2,0.7h2.4
			v0v-0.5l0.2,0.5H10l0.2-0.5v0.5v0h1h4.8h0V9.7H16c0.1,0,0.1,0,0.1,0.1v0.9h3v-0.2c0.2,0.1,0.6,0.2,1.1,0.2h1.2l0.2-0.7h0.6
			l0.2,0.7h2.4v-0.4v-0.2l0.4,0.6h0.1h0h1.8V6.7H25.4L25.4,6.7L25.4,6.7z M11.3,10.1h-0.4h-0.2V9.9v-2l0,0.1v0l-1,2.2h0H9.4H9.1
			l-1-2.3v2.3H6.7L6.4,9.5H5l-0.3,0.6H3.9l1.2-2.9h1L7.4,10V7.2h0.2h0.8l0,0h0L9,8.4l0.4,0.9l0,0l0.8-2h1.1L11.3,10.1L11.3,10.1
			L11.3,10.1z M14.2,7.9h-1.6v0.5h1.6V9h-1.6v0.6h1.6v0.6h-2.3V7.2h2.3V7.9L14.2,7.9z M17.1,8.9C17.1,8.9,17.1,8.9,17.1,8.9
			C17.2,9,17.2,9,17.1,8.9c0.1,0.2,0.2,0.3,0.2,0.5c0,0,0,0,0,0c0,0,0,0,0,0c0,0,0,0,0,0c0,0,0,0,0,0.1v0.6h-0.6V9.8
			c0-0.2,0-0.4-0.1-0.6c0,0-0.1-0.1-0.1-0.1c-0.1,0-0.2,0-0.4,0h-0.7v1h-0.7V7.2h1.6c0.4,0,0.6,0,0.8,0.1c0.2,0.1,0.3,0.3,0.3,0.6
			c0,0.4-0.3,0.7-0.5,0.8C16.9,8.8,17,8.8,17.1,8.9z M18.5,10.1h-0.7V7.2h0.7V10.1z M26.6,10.1h-0.9L24.4,8v1.8l0,0v0.4h-0.7v0H23
			l-0.2-0.6h-1.4L21,10.2h-0.8c-0.3,0-0.7-0.1-1-0.3c-0.2-0.2-0.4-0.6-0.4-1.1c0-0.4,0.1-0.8,0.4-1.2c0.2-0.2,0.6-0.3,1-0.3h0.7v0.6
			h-0.7c-0.2,0-0.4,0-0.5,0.2c-0.1,0.1-0.2,0.4-0.2,0.7c0,0.3,0,0.5,0.2,0.7c0.1,0.1,0.3,0.2,0.5,0.2h0.3l1-2.3h0.4h0.6l1.2,2.8V9.9
			V9V8.9V7.3h1l1.2,2v-2h0.7L26.6,10.1L26.6,10.1L26.6,10.1L26.6,10.1z"/>
		<path class="st2" d="M16.5,8.5C16.6,8.4,16.6,8.4,16.5,8.5c0.1-0.1,0.1-0.2,0.1-0.4c0,0,0,0,0,0c0,0,0,0,0,0l0,0
			c0-0.1-0.1-0.1-0.1-0.1c-0.1,0-0.2,0-0.3,0h-0.8v0.7h0.8C16.3,8.5,16.4,8.5,16.5,8.5C16.5,8.5,16.5,8.5,16.5,8.5L16.5,8.5
			C16.5,8.5,16.5,8.5,16.5,8.5z"/>
		<path class="st2" d="M29,14.3c0-0.3-0.1-0.6-0.2-0.8v-1.9h0v-0.1c0,0-1.7,0-2,0c-0.3,0-0.6,0.2-0.6,0.2v-0.2h-1.9
			c-0.3,0-0.7,0.1-0.8,0.2v-0.2h-3.4v0.1v0.1c-0.2-0.2-0.7-0.2-0.9-0.2H17v0.1v0.1c-0.2-0.2-0.7-0.2-1-0.2h-2.5L13,12.1l-0.5-0.6
			h-0.2H12H8.7v0.1V12v3.7h3.6l0.6-0.6l0.5,0.6h0h2.1h0.1h0h0v-0.4v-0.5H16c0.3,0,0.7,0,1-0.1v1v0.1h1.9v-0.1v-1h0.1
			c0.1,0,0.1,0,0.1,0.1v0.9v0.1h5.6c0.4,0,0.7-0.1,1-0.2v0.2v0.1h1.8c0.4,0,0.7,0,1-0.2c0.4-0.2,0.6-0.6,0.7-1.1
			C29,14.4,29,14.4,29,14.3L29,14.3C29,14.3,29,14.3,29,14.3z M16,14h-0.8v0.1v0.2v0.2v0.5h-1.4L13,14.2l0,0l0,0l-0.9,1H9.4v-2.9
			h2.7l0.7,0.8l0.2,0.2l0,0l0.9-1h2.2c0.4,0,0.9,0.1,1.1,0.5c0,0.1,0,0.2,0,0.3C17.2,13.9,16.6,14,16,14z M20.1,14
			c0.1,0.1,0.1,0.3,0.1,0.5v0.6h-0.7v-0.4c0-0.2,0-0.5-0.1-0.6C19.4,14,19.2,14,18.9,14h-0.7v1.1h-0.7v-2.9h1.6c0.3,0,0.6,0,0.8,0.1
			c0.2,0.1,0.4,0.3,0.4,0.7c0,0.5-0.3,0.7-0.5,0.8C20,13.8,20.1,13.9,20.1,14z M23,12.8h-1.6v0.5H23v0.6h-1.6v0.6H23v0.6h-2.3v-2.9
			H23V12.8z M24.7,15.1h-1.3v-0.6h1.3c0.1,0,0.2,0,0.3-0.1c0,0,0.1-0.1,0.1-0.2c0-0.1,0-0.2-0.1-0.2c0,0-0.1-0.1-0.2-0.1
			c-0.7,0-1.4,0-1.4-0.9c0-0.4,0.2-0.9,1-0.9h1.4v0.7h-1.3c-0.1,0-0.2,0-0.3,0C24,12.9,24,13,24,13.1c0,0.1,0.1,0.2,0.2,0.2
			c0.1,0,0.2,0,0.2,0h0.4c0.4,0,0.6,0.1,0.8,0.2c0.1,0.1,0.2,0.3,0.2,0.6C25.8,14.8,25.4,15.1,24.7,15.1z M28.3,14.8
			c-0.2,0.2-0.5,0.3-0.9,0.3h-1.3v-0.6h1.3c0.1,0,0.2,0,0.3-0.1c0,0,0.1-0.1,0.1-0.2c0-0.1,0-0.2-0.1-0.2c0,0-0.1-0.1-0.2-0.1
			c-0.7,0-1.4,0-1.4-0.9c0-0.4,0.2-0.7,0.8-0.9c0.1,0,0.1,0,0.2,0h1.4v0.7h-0.9h-0.3h0c-0.1,0-0.2,0-0.3,0c0,0-0.1,0.1-0.1,0.2
			c0,0.1,0,0.2,0.2,0.2c0.1,0,0.2,0,0.2,0h0h0.3c0.2,0,0.3,0,0.4,0.1c0.1,0,0.5,0.2,0.6,0.7c0,0,0,0.1,0,0.1
			C28.5,14.4,28.5,14.7,28.3,14.8z"/>
	</g>
</g>
</svg>
