<svg width="28" height="18" viewBox="0 0 28 18" fill="none" xmlns="http://www.w3.org/2000/svg">
<g clip-path="url(#clip0_199_220)">
<path d="M24.7772 0H2.43717C2.34412 0 2.25091 0 2.15804 0.000542572C2.07953 0.00110158 2.0012 0.00197299 1.92287 0.00411039C1.75205 0.00873051 1.57976 0.0188092 1.41106 0.0491275C1.23968 0.0799718 1.08019 0.130283 0.924605 0.209499C0.771649 0.287283 0.631616 0.389024 0.510262 0.510429C0.388856 0.631833 0.287116 0.771636 0.209347 0.924758C0.130115 1.08035 0.0797706 1.23987 0.04914 1.41139C0.0186589 1.58014 0.0085128 1.7524 0.00390915 1.92304C0.00180463 2.00136 0.000901984 2.0797 0.000390652 2.15801C-0.00015192 2.25108 2.89373e-05 2.34409 2.89373e-05 2.43734V14.9852C2.89373e-05 15.0784 -0.00015192 15.1713 0.000390652 15.2645C0.000901984 15.3428 0.00180463 15.4211 0.00390915 15.4995C0.0085128 15.67 0.0186589 15.8423 0.04914 16.0109C0.0797706 16.1825 0.130115 16.342 0.209347 16.4976C0.287116 16.6507 0.388856 16.7907 0.510262 16.9119C0.631616 17.0335 0.771649 17.1352 0.924605 17.2129C1.08019 17.2923 1.23968 17.3426 1.41106 17.3734C1.57976 17.4035 1.75205 17.4138 1.92287 17.4184C2.0012 17.4202 2.07953 17.4212 2.15804 17.4216C2.25091 17.4223 2.34412 17.4223 2.43717 17.4223H24.7772C24.87 17.4223 24.9632 17.4223 25.0561 17.4216C25.1344 17.4212 25.2128 17.4202 25.2914 17.4184C25.4619 17.4138 25.6342 17.4035 25.8033 17.3734C25.9744 17.3426 26.134 17.2923 26.2895 17.2129C26.4427 17.1352 26.5823 17.0335 26.7039 16.9119C26.8251 16.7907 26.9268 16.6507 27.0048 16.4976C27.0843 16.342 27.1345 16.1825 27.165 16.0109C27.1955 15.8423 27.2054 15.67 27.21 15.4995C27.2122 15.4211 27.2132 15.3428 27.2135 15.2645C27.2143 15.1713 27.2143 15.0784 27.2143 14.9852V2.43734C27.2143 2.34409 27.2143 2.25108 27.2135 2.15801C27.2132 2.0797 27.2122 2.00136 27.21 1.92304C27.2054 1.7524 27.1955 1.58014 27.165 1.41139C27.1345 1.23987 27.0843 1.08035 27.0048 0.924758C26.9268 0.771636 26.8251 0.631833 26.7039 0.510429C26.5823 0.389024 26.4427 0.287283 26.2895 0.209499C26.134 0.130283 25.9744 0.0799718 25.8033 0.0491275C25.6342 0.0188092 25.4619 0.00873051 25.2914 0.00411039C25.2128 0.00197299 25.1344 0.00110158 25.0561 0.000542572C24.9632 0 24.87 0 24.7772 0Z" fill="white"/>
<path d="M24.7798 0.583496L25.0546 0.584023C25.129 0.584548 25.2035 0.585354 25.2784 0.587393C25.4086 0.590911 25.5609 0.597965 25.7029 0.623416C25.8263 0.645645 25.9298 0.679449 26.0292 0.730024C26.1273 0.779858 26.2171 0.845164 26.2956 0.92351C26.3743 1.00238 26.4397 1.09238 26.4902 1.19154C26.5405 1.2901 26.5741 1.39313 26.5962 1.51746C26.6216 1.65791 26.6286 1.81065 26.6322 1.94167C26.6342 2.01562 26.6352 2.08957 26.6355 2.16529C26.6362 2.25686 26.6362 2.34837 26.6362 2.44011V14.988C26.6362 15.0797 26.6362 15.171 26.6355 15.2646C26.6352 15.3386 26.6342 15.4125 26.6321 15.4865C26.6286 15.6174 26.6216 15.7701 26.5959 15.9122C26.5741 16.0347 26.5405 16.1378 26.4899 16.2369C26.4396 16.3358 26.3743 16.4257 26.2959 16.5041C26.217 16.583 26.1275 16.6481 26.0282 16.6984C25.9296 16.7487 25.8262 16.7824 25.704 16.8045C25.5592 16.8303 25.4005 16.8374 25.2809 16.8406C25.2057 16.8423 25.1309 16.8433 25.0543 16.8437C24.9629 16.8444 24.8712 16.8444 24.7798 16.8444H2.43981H2.43618C2.34585 16.8444 2.25533 16.8444 2.16336 16.8437C2.08837 16.8433 2.01354 16.8423 1.9412 16.8407C1.81894 16.8374 1.66013 16.8303 1.51645 16.8046C1.39319 16.7824 1.28985 16.7487 1.18995 16.6977C1.09165 16.6479 1.00216 16.5828 0.923218 16.5038C0.844894 16.4256 0.779802 16.336 0.729474 16.2369C0.679097 16.1379 0.645392 16.0346 0.62323 15.9105C0.597612 15.7686 0.590576 15.6166 0.587059 15.4867C0.585051 15.4123 0.584213 15.3379 0.583735 15.264L0.583374 15.0456L0.58339 14.988V2.44011L0.583374 2.38247L0.583719 2.1646C0.584213 2.0902 0.585051 2.01582 0.587059 1.94149C0.590576 1.81142 0.597612 1.6593 0.623442 1.5163C0.645408 1.39332 0.679097 1.28998 0.729737 1.19052C0.77967 1.09221 0.844878 1.00247 0.923618 0.923757C1.00205 0.845296 1.09183 0.780072 1.19076 0.72976C1.28959 0.679432 1.39312 0.645645 1.51639 0.623465C1.6584 0.597949 1.81084 0.590911 1.94138 0.587377C2.0158 0.585354 2.09021 0.584548 2.16407 0.584039L2.43981 0.583496H24.7798Z" fill="white"/>
<path d="M7.4326 5.85906C7.66563 5.56761 7.82375 5.17627 7.78204 4.77637C7.44094 4.79333 7.02469 5.0014 6.7837 5.29309C6.56732 5.54287 6.3758 5.9506 6.42573 6.33373C6.80863 6.36694 7.19119 6.14234 7.4326 5.85906Z" fill="black"/>
<path d="M7.77464 6.40554C7.21856 6.37241 6.74577 6.72114 6.48021 6.72114C6.21452 6.72114 5.80787 6.42223 5.36804 6.43029C4.79558 6.4387 4.26441 6.76237 3.97391 7.27716C3.37641 8.30699 3.81623 9.83461 4.39728 10.6733C4.67944 11.0883 5.0195 11.5452 5.46758 11.5288C5.89094 11.5122 6.05688 11.2547 6.57149 11.2547C7.08573 11.2547 7.23521 11.5288 7.68336 11.5204C8.1481 11.5122 8.43866 11.1053 8.72079 10.69C9.04456 10.217 9.17706 9.76019 9.18539 9.7351C9.17706 9.72677 8.2892 9.38625 8.28097 8.36494C8.27259 7.50981 8.97797 7.10307 9.01122 7.07784C8.61287 6.48866 7.99042 6.42223 7.77464 6.40554Z" fill="black"/>
<path d="M12.6167 5.25098C13.8254 5.25098 14.667 6.08409 14.667 7.29703C14.667 8.51432 13.808 9.35175 12.5865 9.35175H11.2483V11.4798H10.2815V5.25098H12.6167ZM11.2483 8.54017H12.3577C13.1995 8.54017 13.6785 8.08701 13.6785 7.30136C13.6785 6.51579 13.1995 6.06685 12.362 6.06685H11.2483V8.54017Z" fill="black"/>
<path d="M14.9222 10.1908C14.9222 9.39649 15.5309 8.90876 16.6101 8.84838L17.8532 8.77498V8.42537C17.8532 7.92031 17.5122 7.61815 16.9425 7.61815C16.4028 7.61815 16.0661 7.8771 15.9842 8.28291H15.1036C15.1554 7.46271 15.8546 6.8584 16.977 6.8584C18.0777 6.8584 18.7812 7.44114 18.7812 8.35194V11.4814H17.8877V10.7347H17.8662C17.6029 11.2397 17.0288 11.5592 16.4331 11.5592C15.5439 11.5592 14.9222 11.0066 14.9222 10.1908ZM17.8532 9.78081V9.42251L16.7352 9.49157C16.1784 9.53043 15.8633 9.77647 15.8633 10.165C15.8633 10.562 16.1914 10.8211 16.692 10.8211C17.3438 10.8211 17.8532 10.3721 17.8532 9.78081Z" fill="black"/>
<path d="M19.6231 13.1476V12.3922C19.692 12.4094 19.8474 12.4094 19.9251 12.4094C20.3568 12.4094 20.5899 12.2282 20.7323 11.762C20.7323 11.7534 20.8144 11.4857 20.8144 11.4814L19.1742 6.93604H20.1841L21.3325 10.631H21.3496L22.4979 6.93604H23.482L21.7812 11.7145C21.3929 12.8152 20.944 13.1692 20.003 13.1692C19.9251 13.1692 19.692 13.1605 19.6231 13.1476Z" fill="black"/>
</g>
<defs>
<clipPath id="clip0_199_220">
<rect width="27.2143" height="17.8594" fill="white"/>
</clipPath>
</defs>
</svg>
