<svg width="31" height="20" viewBox="0 0 31 20" fill="none" xmlns="http://www.w3.org/2000/svg">
<g clip-path="url(#clip0_72_77)">
<path d="M31 1.004V18.9898C31 19.5442 30.552 20 30.007 20H0.96875C0.441992 19.9877 0.00605469 19.5504 0 19.0145V1.004C0 0.449646 0.441992 0 0.986914 0H30.0131C30.552 0 31 0.449646 31 1.004Z" fill="#978650"/>
<g opacity="0.1">
<path d="M18.6297 7.89652C18.6297 7.89652 18.551 7.95196 18.5025 8.01971C18.4844 8.05051 18.4359 8.06283 18.3814 8.06899H18.3754C18.2906 8.08131 18.1938 8.06899 18.1453 8.04435C18.0545 8.01355 18.0182 7.95196 17.9637 7.97044C17.9516 7.9766 17.9455 7.98276 17.9334 7.98276C17.9031 8.00739 17.885 8.03203 17.8002 8.06283C17.6852 8.09363 17.6912 8.13058 17.6912 8.21066C17.6852 8.29689 17.7154 8.34617 17.6791 8.4016C17.6488 8.4632 17.4551 8.43856 17.334 8.4324C17.3037 8.42624 17.2674 8.4324 17.2432 8.44472H17.2371V8.45088C17.1705 8.47552 17.11 8.53095 17.0252 8.61103C16.9102 8.72806 16.9465 8.73422 16.7951 8.70958C16.7588 8.69726 16.7164 8.70342 16.668 8.71574C16.5469 8.72806 16.4197 8.79581 16.3047 8.86357C16.1533 8.9498 16.2563 8.98676 16.2381 9.15307C16.226 9.31937 16.1896 9.40561 16.0928 9.47336C16.002 9.54112 15.9232 9.55344 15.784 9.74438C15.7719 9.7567 15.7598 9.77518 15.7537 9.7875C15.6387 9.93533 15.6205 9.94765 15.5721 9.93533C15.5176 9.92917 15.5539 9.58423 15.5539 9.47336C15.5539 9.36865 15.6084 9.24546 15.7477 9.12843L15.7537 9.12227C15.8869 9.0114 15.9777 8.99292 16.0928 8.84509C16.2018 8.69726 16.2139 8.60487 16.1715 8.53095C16.1291 8.45704 16.0141 8.66646 15.9293 8.70958C15.8385 8.74654 15.8264 8.68494 15.7598 8.62335L15.7537 8.61719C15.7234 8.59255 15.6689 8.60487 15.6205 8.62335V8.62951C15.5539 8.65414 15.4752 8.69726 15.4389 8.70342C15.3783 8.70958 15.3117 8.74038 15.2027 8.80813C15.1967 8.80813 15.1906 8.81429 15.1846 8.82045C15.0756 8.88821 15.0332 8.83277 14.9061 8.78349C14.785 8.72806 14.6578 8.6911 14.4701 8.76502C14.4035 8.79581 14.3006 8.88205 14.2037 8.98676C14.1977 8.99292 14.1916 8.99908 14.1855 8.99908C14.0281 9.17155 13.8828 9.36865 13.8949 9.43025C13.9252 9.53496 14.0342 9.51648 14.1795 9.60271C14.3248 9.6951 14.2098 9.69511 14.1553 9.89221C14.1008 10.0893 14.1189 10.114 14.0826 10.2803C14.0402 10.4527 13.792 10.5882 13.7314 10.6498C13.6709 10.7114 13.5256 10.8593 13.3682 10.8408C13.2168 10.81 13.2168 10.9516 13.1018 11.1549C12.9928 11.3582 13.0715 11.3027 13.0957 11.4136C13.1199 11.5245 12.9988 11.7893 12.908 11.8817C12.8232 11.9741 12.7445 11.8078 12.7869 11.6292C12.8232 11.4444 12.7385 11.5368 12.6416 11.4998C12.5387 11.4629 12.7082 11.389 12.69 11.2966C12.6779 11.2042 12.5629 11.2843 12.5205 11.3089C12.4781 11.3335 12.4297 11.3705 12.3449 11.2781C12.2723 11.2042 12.2844 11.1672 12.2904 11.1672C12.2783 11.1796 12.1814 11.2781 12.0664 11.3828C11.9393 11.506 12.0906 11.4321 12.2359 11.4752C12.3812 11.506 12.3207 11.4752 12.4418 11.5368C12.5689 11.6046 12.351 11.6046 12.2602 11.6415C12.1754 11.6723 12.1814 11.7216 12.2783 11.7893C12.3691 11.8571 12.4297 11.9741 12.4721 12.239C12.5205 12.51 12.351 12.5654 12.1996 12.7687C12.0422 12.972 11.7576 13.0582 11.5639 13.1198C11.3641 13.1752 11.4186 13.2553 11.249 13.2307C11.0855 13.1999 11.1521 13.1629 11.0129 13.2122C10.8736 13.2615 11.0129 13.3785 11.1461 13.5387C11.2793 13.6988 11.1098 14.0684 11.0189 14.1115C10.9281 14.1546 10.9039 14.3024 10.7828 14.284C10.6557 14.2655 10.692 14.1669 10.577 14.1053C10.4559 14.0376 10.5648 14.2716 10.6496 14.5242C10.7344 14.7706 10.8252 14.7644 10.8555 14.8999C10.8555 14.9061 10.8615 14.9122 10.8615 14.9245C10.8736 15.0231 10.7707 15.0046 10.6496 14.9245C10.6375 14.9122 10.6254 14.9122 10.6133 14.8999C10.5406 14.8506 10.468 14.7829 10.3953 14.709C10.1955 14.4872 10.2076 14.518 10.1471 14.284C10.0805 14.0499 10.0865 14.0253 10.0018 13.9637C9.91699 13.8959 9.93515 13.8528 9.95332 13.7542C9.97148 13.6434 9.52949 13.1444 9.35391 13.126C9.17227 13.1075 9.22676 13.1752 9.14199 13.2738C9.05117 13.3847 8.85742 13.4832 8.71211 13.5818C8.5668 13.6865 8.57891 13.7542 8.57891 14.0376C8.57891 14.3148 8.50019 14.3086 8.23379 14.3887C7.96738 14.4687 8.09453 14.1669 8.00977 14.0992C7.925 14.0376 7.82812 13.7296 7.78574 13.397C7.7373 13.0644 7.69492 13.3292 7.45879 13.2553C7.22266 13.1876 7.32559 12.9289 7.16816 12.8365C7.01074 12.7441 6.95019 12.7872 6.80488 12.8549C6.65957 12.9227 6.50215 12.8365 6.40527 12.7071C6.31445 12.5778 6.1873 12.6578 6.01777 12.6209C5.84824 12.5901 5.90273 12.5408 5.75137 12.5162C5.6 12.4854 5.76348 12.6517 5.87246 12.8118C5.97539 12.972 6.09648 12.8919 6.45976 13.0336C6.82305 13.1752 6.49609 13.2368 6.35078 13.3847C6.20547 13.5325 6.08437 13.551 5.89062 13.6557C5.69082 13.7666 5.61816 13.7789 5.4123 13.8651C5.20644 13.9513 5.16406 13.8897 5.0248 13.8343C4.88555 13.7789 4.79473 13.5079 4.6373 13.1629C4.47383 12.8118 4.36484 12.5901 4.24375 12.4361C4.12266 12.2883 4.15293 12.4669 4.18926 12.5778C4.23164 12.6825 4.31641 12.8241 4.41328 13.0952C4.51016 13.3662 4.49199 13.2676 4.54043 13.4647C4.59492 13.6557 4.86133 14.0684 5.0248 14.1546C5.18828 14.247 5.57578 14.0869 5.76953 14.0807C5.96934 14.0745 5.75742 14.1792 5.58184 14.5858C5.44863 14.8938 5.37598 14.8506 5.24277 14.8999C5.20039 14.9184 5.15195 14.9492 5.08535 14.9985C4.825 15.214 4.80078 15.4481 4.76445 15.7253C4.75234 15.8177 4.7584 15.9039 4.77051 15.9901C4.77051 16.0025 4.77051 16.0086 4.77656 16.0148C4.78262 16.0641 4.78867 16.1133 4.79473 16.1626C4.80078 16.1934 4.80684 16.2242 4.80684 16.255C4.81289 16.2858 4.81894 16.3166 4.81894 16.3474C4.825 16.3905 4.83105 16.4398 4.825 16.4891C4.825 16.4952 4.825 16.5014 4.81894 16.5075C4.81894 16.5445 4.80684 16.5753 4.78867 16.6123C4.77656 16.6615 4.74023 16.7047 4.70996 16.7478C4.61309 16.8771 4.47383 16.9942 4.40117 17.0865C4.38301 17.1112 4.3709 17.1358 4.35879 17.1543C4.35273 17.1666 4.34668 17.1728 4.34668 17.1851C4.33457 17.2097 4.33457 17.2344 4.32852 17.2529C4.31641 17.2836 4.31641 17.3144 4.31035 17.3452C4.29219 17.4253 4.26797 17.5362 4.18926 17.7456C4.17715 17.7764 4.16504 17.8072 4.15293 17.8318C4.13477 17.8688 4.11055 17.8996 4.09238 17.9242C4.07422 17.955 4.05 17.9735 4.02578 17.992C3.95918 18.0413 3.88047 18.0597 3.80176 18.0844C3.75332 18.1029 3.69277 18.1337 3.64434 18.1768C3.46875 18.3431 3.39004 18.3677 3.2084 18.4355C3.18418 18.4478 3.15996 18.4601 3.12969 18.4663C2.8875 18.571 2.61504 18.4108 2.59082 18.263C2.56055 18.1152 2.63926 18.0967 2.60293 17.8565C2.57266 17.6163 2.3123 17.1358 2.22148 16.9018C2.13066 16.6677 2.19121 16.6184 2.34258 16.372C2.48789 16.1195 2.23359 15.8423 2.09434 15.5528C1.94902 15.2633 1.94297 15.4235 1.94297 15.214C1.94297 15.0046 1.93086 14.9369 1.76738 14.8506C1.60996 14.7644 1.51309 14.7151 1.24063 14.6412C0.968164 14.5735 0.974219 14.7274 0.707812 14.6905C0.441406 14.6474 0.453516 14.7336 0.283984 14.7151C0.205273 14.7028 0.108398 14.6474 0.0175781 14.5735V12.0111C0.114453 11.9372 0.27793 11.8941 0.495898 11.814C0.828906 11.697 0.774414 11.8017 1.06504 11.7154C1.35566 11.6292 1.71289 11.5491 1.9127 11.5614C2.11855 11.5738 2.08223 11.7278 2.08223 11.8448C2.08223 11.9557 2.13066 11.9372 2.38496 12.0049C2.64531 12.0727 2.50605 12.1528 2.69375 12.1959C2.8875 12.239 2.8209 12.1589 2.91777 12.0049C3.00859 11.8509 3.06309 12.0049 3.31133 12.1281C3.55957 12.2575 3.54141 12.1774 3.85019 12.1466C4.15293 12.1096 4.1832 12.1589 4.2498 12.122C4.31641 12.0912 4.32852 11.7709 4.28613 11.623C4.2377 11.4752 4.16504 11.5922 4.00156 11.5922C3.89258 11.5922 3.85625 11.5676 3.8623 11.5122C3.8623 11.4814 3.87441 11.4383 3.89258 11.3828C3.89863 11.3705 3.89863 11.3643 3.90469 11.3582C3.93496 11.2781 3.95312 11.2596 4.01367 11.235C4.04394 11.2227 4.09844 11.2042 4.16504 11.1734C4.17109 11.1672 4.17715 11.1672 4.1832 11.1672V11.1611C4.2498 11.1364 4.31641 11.1241 4.38906 11.118C4.51016 11.1056 4.6252 11.1056 4.70996 11.0502C4.72812 11.0379 4.74023 11.0256 4.74629 11.0194C4.77656 10.9701 4.6373 10.9209 4.54648 10.8593C4.52832 10.8469 4.51621 10.8408 4.49805 10.8285C4.44355 10.7669 4.44355 10.7114 4.45566 10.6437C4.46777 10.6067 4.47988 10.5636 4.49199 10.5143C4.52226 10.385 4.41328 10.4774 4.28613 10.5513C4.15898 10.6252 4.31035 10.656 4.25586 10.7607C4.22559 10.81 4.1832 10.81 4.14082 10.7792C4.11055 10.7669 4.09238 10.7361 4.07422 10.7053C4.06211 10.6929 4.05 10.6745 4.04394 10.6622C4.01973 10.6129 3.98945 10.6129 3.93496 10.6437C3.89863 10.6622 3.85019 10.6991 3.78965 10.7484C3.68066 10.8223 3.72305 10.8777 3.7291 10.9763C3.73516 11.0071 3.73516 11.0317 3.7291 11.0687C3.7291 11.0872 3.71699 11.1056 3.71699 11.1241C3.68672 11.2227 3.62617 11.235 3.57168 11.2288C3.51719 11.2288 3.4627 11.2165 3.43242 11.2719C3.37187 11.3767 3.41426 11.4567 3.30527 11.4752C3.19629 11.4998 3.23867 11.5614 3.19023 11.6415C3.1418 11.7216 3.03281 11.5799 3.01465 11.4259C2.99648 11.2719 2.80879 11.0995 2.79062 11.0194C2.77246 10.9393 2.5666 10.8469 2.45156 10.81C2.34258 10.7792 2.41523 10.8901 2.5 11.0009C2.59082 11.1056 2.7543 11.1364 2.76641 11.2535C2.77852 11.3705 2.69375 11.3089 2.62715 11.3767C2.56055 11.4444 2.59687 11.5799 2.5 11.623C2.39707 11.6723 2.40918 11.4937 2.4334 11.3397C2.45762 11.1919 2.3123 11.1611 2.20937 11.0625C2.10039 10.9578 1.94297 10.8654 1.88848 10.8161C1.84004 10.773 1.69473 10.9393 1.5373 10.9332C1.38594 10.927 1.44648 10.9024 1.38594 10.9701C1.32539 11.0379 1.25879 11.1611 1.15586 11.1796C1.05293 11.2042 1.00449 11.2781 0.986328 11.3951C0.962109 11.5183 0.877344 11.5245 0.719922 11.5922C0.568555 11.66 0.356641 11.5799 0.229492 11.5306C0.102344 11.4875 0.120508 11.389 0.162891 11.2843C0.175 11.2535 0.181055 11.2042 0.193164 11.1549C0.217383 11.044 0.253711 10.9147 0.380859 10.8654C0.429297 10.8469 0.47168 10.8408 0.501953 10.8408C0.508008 10.8346 0.508008 10.8346 0.508008 10.8346C0.598828 10.8285 0.647266 10.8654 0.75625 10.8346C0.901562 10.7915 0.853125 10.7237 0.84707 10.5205C0.84707 10.5082 0.84707 10.502 0.841016 10.4897C0.822851 10.3295 0.635156 10.3911 0.604883 10.2741C0.580664 10.1509 0.774414 10.231 1.10137 10.1817C1.12559 10.1755 1.1498 10.1694 1.16797 10.1632C1.29512 10.1263 1.3375 10.0462 1.36777 9.95996C1.39805 9.87373 1.4041 9.78134 1.45859 9.73822C1.57363 9.63967 1.64629 9.60887 1.68262 9.41177C1.73105 9.21466 1.88242 9.14075 2.02168 9.19618C2.05195 9.2085 2.07012 9.22698 2.07617 9.24546C2.10645 9.31321 2.02773 9.40561 2.03379 9.49184C2.0459 9.60887 2.1791 9.58423 2.26992 9.60887C2.35469 9.62735 2.71797 9.5596 2.84512 9.4672C2.94199 9.38713 3.01465 9.31937 3.09336 9.25162C3.11152 9.2393 3.12969 9.22082 3.15391 9.20234C3.26894 9.12227 3.18418 9.07299 3.2084 9.02988C3.23262 8.98676 3.32344 8.88205 3.28711 8.75886C3.25078 8.6603 3.12363 8.70958 3.04492 8.64798C3.03281 8.63567 3.02676 8.62335 3.01465 8.61103C2.96621 8.53095 3.00254 8.43856 3.04492 8.35849C3.06309 8.32153 3.08125 8.28457 3.09941 8.24761C3.11152 8.21682 3.11152 8.19834 3.10547 8.19834C3.09336 8.18602 3.0752 8.19834 3.04492 8.21066C3.00254 8.22914 2.9541 8.25993 2.91172 8.27841C2.80273 8.32769 2.74219 8.43856 2.64531 8.58639C2.60898 8.64182 2.59082 8.6911 2.58477 8.73422C2.57871 8.74038 2.57871 8.74038 2.57871 8.74038C2.5666 8.81429 2.58477 8.88821 2.59082 8.97444C2.60293 9.12227 2.39102 9.26394 2.29414 9.24546C2.2457 9.23314 2.21543 9.18386 2.19727 9.12843C2.18516 9.07915 2.18516 9.02372 2.1791 8.9806C2.16699 8.88821 2.1125 8.83277 2.03379 8.86357C1.95508 8.89437 1.79766 8.96828 1.64629 8.92516C1.49492 8.88821 1.5373 8.66646 1.61602 8.47552C1.68867 8.28457 1.73105 8.34617 1.9793 8.21682C2.22754 8.09363 2.16094 8.04435 2.36074 7.86572C2.55449 7.6871 2.59687 7.56391 2.79062 7.41608C2.97832 7.26825 3.11152 7.21897 3.58984 7.16354C3.96523 7.12042 3.89258 7.17586 3.93496 7.26209C3.94102 7.28057 3.95312 7.29905 3.97734 7.31753C3.9834 7.32985 3.98945 7.336 4.00156 7.34216C4.1166 7.4284 4.20742 7.45304 4.31641 7.47767C4.37695 7.48999 4.44355 7.50231 4.52832 7.52695C4.77051 7.58855 4.74629 7.66862 4.77656 7.72406C4.80684 7.77949 4.66758 7.87804 4.54648 7.8842H4.49199V7.87804C4.40117 7.87188 4.35273 7.84109 4.29824 7.81645C4.23164 7.78565 4.27402 7.8842 4.32246 7.93964C4.35879 7.98275 4.41328 7.99507 4.5041 7.99507C4.52832 7.99507 4.55859 7.98892 4.58887 7.98276C4.72812 7.97044 4.92793 7.87188 4.98848 7.8842C5.01269 7.89036 5.05508 7.8842 5.11562 7.87188C5.2125 7.84109 5.3457 7.80413 5.44258 7.77949C5.59395 7.73021 5.59395 7.63166 5.65449 7.58855C5.70293 7.55159 5.7998 7.53927 6.02383 7.55775C6.06016 7.56391 6.10859 7.56391 6.15098 7.57007C6.45976 7.5947 6.42949 7.53927 6.6293 7.4592C6.71406 7.4284 6.77461 7.42224 6.82305 7.4284C6.8957 7.44072 6.95625 7.47151 7.04707 7.47151C7.19844 7.47151 7.42246 7.37912 7.49512 7.27441C7.50117 7.26825 7.50117 7.26209 7.50723 7.26209C7.57383 7.1697 7.6041 7.21281 7.71914 7.1389C7.84629 7.06499 7.80996 7.07114 8.13691 7.00955C8.46992 6.94795 8.56074 7.09578 8.7 7.00955C8.84531 6.92332 8.6334 6.73237 8.66973 6.68309C8.70605 6.62766 9.02695 6.67078 9.16621 6.61534C9.30547 6.54758 9.2207 6.46751 9.2873 6.38744C9.3539 6.30736 9.6082 6.27657 9.86855 6.25193C10.135 6.22113 10.1168 6.31968 10.2318 6.28272C10.3408 6.25193 10.3105 6.17185 10.4014 6.15337C10.4922 6.14106 10.4922 6.08562 10.5467 6.06098C10.6012 6.03634 10.7889 6.03634 10.9402 6.12874C11.0916 6.22113 11.1219 6.11642 11.2793 6.12874C11.4367 6.14106 11.3701 6.28272 11.3701 6.35048C11.3701 6.41823 11.2551 6.55374 11.1582 6.59686C11.0674 6.64614 11.1461 6.70773 11.2853 6.69541C11.4246 6.68309 11.5094 6.63382 11.6789 6.6215C11.8424 6.60918 11.9029 6.64614 12.0543 6.71389C12.2057 6.78165 12.3389 6.78165 12.4357 6.76317C12.5387 6.73237 12.5023 6.64614 12.5629 6.62766C12.6174 6.60302 12.8959 6.72005 13.0412 6.78165C13.1865 6.84324 13.017 6.911 13.0412 6.97875C13.0594 7.04035 13.2289 7.15122 13.3439 7.1389C13.4529 7.12658 13.4105 7.00955 13.5861 7.02187C13.7678 7.03419 13.8162 7.03419 14.01 6.97259C14.2037 6.91716 14.1916 6.86788 14.4701 6.88636C14.7547 6.911 14.7486 6.93564 14.8455 6.94795C14.9424 6.96027 14.9848 6.91716 15.1785 6.97875C15.3662 7.03419 15.3057 7.17586 15.3602 7.20665C15.4086 7.23745 15.4934 7.22513 15.6932 7.21281C15.7477 7.20665 15.784 7.20665 15.8021 7.21281C15.8566 7.22513 15.8445 7.26209 15.9293 7.32369C16.0443 7.40376 15.9717 7.42224 16.0443 7.40992C16.0564 7.40992 16.0746 7.40376 16.0928 7.3976C16.1594 7.38528 16.2502 7.35448 16.3773 7.34832C16.5469 7.32985 16.5469 7.35448 16.6437 7.41608C16.7406 7.47767 16.8193 7.46535 16.9223 7.42224C17.0191 7.37296 16.9525 7.32369 16.9646 7.32369C16.9828 7.32369 17.1645 7.36064 17.4188 7.39144C17.4914 7.40376 17.5459 7.41608 17.6004 7.4284C17.7154 7.4592 17.7881 7.50231 17.9516 7.56391C18 7.58239 18.0424 7.60086 18.0727 7.6255C18.1756 7.69326 18.1635 7.76101 18.2422 7.82261C18.3512 7.90268 18.3512 7.83493 18.448 7.79181C18.4602 7.78565 18.4602 7.78565 18.4662 7.78565C18.5086 7.73637 18.557 7.81029 18.6297 7.89652Z" fill="white"/>
<path d="M14.2894 10.6375C14.356 10.6621 14.4771 10.7607 14.5498 10.7607C14.6225 10.7545 14.6648 10.8592 14.6043 10.8654C14.5437 10.8777 14.35 10.9701 14.35 10.9701C14.35 10.9701 14.2894 10.8962 14.2531 10.9701C14.2168 11.044 14.1986 11.0995 14.2107 11.1487C14.2228 11.1918 14.2894 11.3274 14.2531 11.3889C14.2107 11.4567 14.1562 11.4875 14.1562 11.5676C14.1562 11.6477 14.2047 11.7339 14.1381 11.7708C14.0715 11.8078 13.9988 11.814 13.9383 11.8386C13.8777 11.8571 13.8353 11.8632 13.8111 11.9187C13.7869 11.9741 13.7264 12.0542 13.6053 12.048C13.4842 12.0419 13.4842 11.9433 13.3691 12.0357C13.2541 12.1281 13.248 12.1897 13.1935 12.1589C13.133 12.1343 13.1814 12.0973 13.1935 12.0049C13.2057 11.9125 12.9937 11.9371 13.1875 11.8263C13.3873 11.7154 13.3873 11.7031 13.5205 11.6784C13.6537 11.66 13.7264 11.7216 13.7808 11.6107C13.8353 11.4937 13.7808 11.4505 13.8898 11.4444C13.9988 11.4382 14.0654 11.4875 14.0896 11.3643C14.1078 11.2411 14.0957 11.1302 14.0896 11.0502C14.0836 10.9701 14.0533 10.8962 14.1441 10.8654C14.235 10.8346 14.241 10.89 14.2531 10.8223C14.2531 10.7484 14.1926 10.6005 14.2894 10.6375Z" fill="white"/>
<path d="M12.3025 13.3662C12.3994 13.3785 12.4418 13.551 12.4115 13.6249C12.3812 13.6988 12.3509 13.7789 12.4357 13.7912C12.5205 13.8035 12.581 13.8159 12.581 13.8775C12.581 13.939 12.6173 13.8097 12.6779 13.976C12.7384 14.1423 12.6839 14.1608 12.7566 14.284C12.8293 14.4072 12.9201 14.4626 12.8172 14.5242C12.7142 14.5858 12.7929 14.6474 12.6839 14.6166C12.575 14.5796 12.6173 14.6043 12.5629 14.4934C12.5084 14.3887 12.472 14.4749 12.4236 14.4688C12.3752 14.4626 12.357 14.4626 12.3994 14.3949C12.4418 14.3271 12.4599 14.3271 12.4115 14.247C12.363 14.167 12.4357 14.0684 12.3691 14.0561C12.3025 14.0438 12.2843 14.1546 12.1693 14.2224C12.0543 14.2901 11.8847 14.3148 11.8908 14.2901C11.8968 14.2655 11.9574 14.2285 12.0664 14.0992C12.1693 13.9698 12.2359 14.0499 12.2177 13.8467C12.1996 13.6434 12.1269 13.6988 12.1935 13.5572C12.2601 13.4093 12.3025 13.3662 12.3025 13.3662Z" fill="white"/>
<path d="M11.982 14.5057C12.0546 14.5796 12.1576 14.5612 12.1273 14.6351C12.097 14.709 12.0122 14.7213 12.0607 14.7952C12.1091 14.8691 12.1515 14.98 12.2181 14.9738C12.2847 14.9615 12.2786 14.9122 12.4361 14.9122C12.5935 14.9122 12.6904 14.8753 12.7025 14.943C12.7146 15.0108 12.6359 15.0108 12.5269 15.1093C12.4179 15.2079 12.321 15.3003 12.4058 15.3619C12.4906 15.4235 12.5269 15.5344 12.4966 15.5713C12.4663 15.6083 12.4361 15.6514 12.5087 15.7007C12.5753 15.7499 12.9083 15.7376 12.8296 15.8547C12.7509 15.9778 12.5572 16.0394 12.3574 16.0456C12.1576 16.0518 12.315 15.9902 11.9093 15.947C11.4976 15.9039 11.431 16.0148 11.1404 15.8731C10.8558 15.7315 10.6681 15.8547 10.5046 15.596C10.3411 15.3373 10.4077 15.4666 10.214 15.1956C10.0142 14.9307 10.1111 14.9307 9.94154 14.826C9.77201 14.7213 9.63275 14.5673 9.74173 14.5673C9.85677 14.5673 9.80228 14.4318 10.1535 14.7275C10.5046 15.0231 10.4077 15.0108 10.6681 15.1833C10.9224 15.3619 11.0072 15.3804 11.104 15.3619C11.2009 15.3434 11.3341 15.3619 11.2494 15.2449C11.1646 15.1278 11.1101 14.9862 11.1827 14.9554C11.2554 14.9246 11.2493 15.0539 11.3765 14.9184C11.4976 14.7829 11.4976 14.7459 11.6066 14.7028C11.7156 14.6597 11.655 14.7028 11.7579 14.6351C11.8609 14.5858 11.8972 14.4195 11.982 14.5057Z" fill="white"/>
<path d="M13.344 15.0909C13.3985 15.1586 13.4893 15.251 13.5256 15.3249C13.568 15.3989 13.6407 15.2634 13.7799 15.2634C13.9252 15.2695 14.1371 15.3496 14.228 15.3865C14.3188 15.4297 14.4702 15.4543 14.567 15.5836C14.6639 15.713 14.7305 15.6391 14.7366 15.7684C14.7426 15.8978 14.7608 15.8855 14.8455 15.9594C14.9303 16.0333 14.9424 16.175 14.7971 16.1134C14.6457 16.0518 14.6034 15.8485 14.4459 15.867C14.2885 15.8855 14.3491 15.9347 14.228 15.9594C14.1069 15.984 14.0524 15.9409 13.901 15.9286C13.7496 15.9163 13.6467 15.9717 13.7133 15.83C13.7799 15.6884 13.8344 15.6884 13.5922 15.5898C13.35 15.4913 13.2532 15.5405 13.2532 15.4358C13.2532 15.3311 13.2955 15.3188 13.1987 15.2326C13.1018 15.1402 13.0776 15.0786 13.1321 15.0293C13.1926 14.9862 13.3077 15.0416 13.344 15.0909Z" fill="white"/>
<path d="M13.6278 16.5384C13.7913 16.6246 13.8579 16.7971 13.9366 16.7663C14.0153 16.7355 13.9851 16.6862 14.0456 16.5076C14.1062 16.3289 14.1122 16.138 14.1849 16.2181C14.2575 16.2981 14.1909 16.4398 14.306 16.4891C14.4271 16.5384 14.4513 16.5692 14.4755 16.7108C14.4997 16.8525 14.5239 16.8094 14.6511 16.951C14.7722 17.0989 14.8872 17.0742 14.9054 17.2405C14.9235 17.4069 15.1354 17.5793 15.1415 17.7518C15.1536 17.9243 15.1839 18.0413 15.0567 18.263C14.9356 18.4786 14.8812 18.5895 14.8448 18.6819C14.8085 18.7743 14.6874 18.8174 14.5603 18.8174C14.4331 18.8174 14.3604 18.7619 14.2757 18.7804C14.1909 18.7989 14.1425 18.9036 14.0456 18.8297C13.9487 18.7558 13.8942 18.6696 13.87 18.6141C13.8397 18.5587 13.8276 18.3739 13.6884 18.3924C13.5491 18.4109 13.5673 18.4848 13.4886 18.3924C13.4038 18.3 13.4644 18.2261 13.2161 18.1891C12.9679 18.146 12.9073 18.1275 12.7983 18.1522C12.6954 18.1768 12.5864 18.2138 12.4714 18.3061C12.3563 18.3985 12.1808 18.3493 12.0778 18.3985C11.981 18.4417 11.8296 18.5464 11.7206 18.4848C11.6116 18.4232 11.654 18.3924 11.654 18.2507C11.6601 18.109 11.6479 18.2076 11.5813 17.9612C11.5147 17.721 11.539 17.7579 11.4784 17.6409C11.4118 17.5239 11.3634 17.5793 11.4542 17.413C11.545 17.2467 11.5147 17.2097 11.5632 17.1543C11.6116 17.0989 11.6601 17.1666 11.8235 17.0558C11.987 16.9449 12.0415 16.988 12.1929 16.9326C12.3442 16.871 12.3806 16.6431 12.4774 16.5692C12.5743 16.5014 12.5985 16.446 12.6651 16.446C12.7317 16.446 12.8165 16.4891 12.9376 16.5384C13.0587 16.5876 13.0345 16.5938 13.1374 16.4768C13.2403 16.3597 13.1374 16.2489 13.3251 16.2735C13.5128 16.2981 13.5794 16.2612 13.6097 16.3721C13.6399 16.4644 13.6278 16.5384 13.6278 16.5384Z" fill="white"/>
<path d="M17.0609 18.9159C17.1577 18.7866 17.2122 18.7681 17.1759 18.6203C17.1396 18.4663 17.1517 18.3492 17.2788 18.4847C17.406 18.6203 17.5513 18.6942 17.6482 18.7003C17.745 18.7065 17.9872 18.7804 17.7451 18.9652C17.5029 19.15 17.5452 19.0206 17.3515 19.2978C17.1577 19.575 17.3091 19.5811 17.073 19.7167C16.8368 19.8522 16.5826 19.9138 16.631 19.7906C16.6794 19.6674 16.6552 19.6674 16.8671 19.5072C17.079 19.3471 17.2183 19.2239 17.2183 19.0884C17.2183 18.9529 17.0609 18.9159 17.0609 18.9159Z" fill="white"/>
<path d="M5.24799 17.5547C5.15717 17.4253 5.15717 17.3822 5.15111 17.1728C5.139 16.9634 5.0724 16.8586 5.15111 16.7416C5.22982 16.6184 5.43568 16.4213 5.51439 16.2797C5.59311 16.138 5.61127 15.8362 5.66576 16.1072C5.7142 16.3782 5.87162 16.5384 5.63549 16.9018C5.39936 17.2652 5.24799 17.5547 5.24799 17.5547Z" fill="white"/>
<path d="M0.496599 10.0708C0.478435 10.0277 0.563201 9.89838 0.563201 9.89838C0.563201 9.89838 0.672185 9.83679 0.641911 9.61504C0.611638 9.3933 0.593474 9.52265 0.514763 9.31323C0.436052 9.1038 0.314958 9.14076 0.436052 8.99909C0.557146 8.85742 0.690349 8.648 0.720622 8.82046C0.750896 8.99293 0.67824 9.1038 0.750896 9.18388C0.817497 9.26395 0.956755 9.28243 1.03547 9.41178C1.11418 9.54729 1.42902 9.59656 1.19289 9.76287C0.956755 9.93534 0.847771 9.82447 0.756951 9.9415C0.66613 10.0585 0.496599 10.0708 0.496599 10.0708Z" fill="white"/>
<path d="M0.174458 9.90454C0.33188 9.81215 0.392427 9.83679 0.380318 9.67048C0.368208 9.50417 0.477193 9.36866 0.313716 9.35634C0.144185 9.34402 0.0957475 9.44874 0.0775834 9.51649C0.0594194 9.58425 0.0594194 9.60888 0.107857 9.67664C0.156294 9.74439 0.168404 9.84911 0.15024 9.89838C0.132076 9.94766 0.174458 9.90454 0.174458 9.90454Z" fill="white"/>
<path d="M30.9989 16.409C30.9686 16.4829 30.9504 16.5692 30.9625 16.7416C30.9807 17.0434 30.9928 17.0126 30.9323 17.1666C30.8717 17.3145 30.6537 17.3391 30.4782 17.45C30.3026 17.5608 30.2905 17.4684 30.1694 17.7703C30.0483 18.0721 30.1209 17.9119 30.018 18.1706C29.9211 18.4293 30.0604 18.3 29.7698 18.454C29.4852 18.6018 29.3762 18.4724 29.3459 18.5648C29.3157 18.6572 29.5155 18.5833 29.3035 18.7743C29.0977 18.9652 29.0069 19.0145 28.8797 19.0946C28.7526 19.1746 28.6739 19.267 28.7041 19.4395C28.7344 19.612 28.8797 19.5996 28.7162 19.7598C28.5528 19.9138 28.4862 19.7721 28.4317 19.9939H27.6567V19.9692C27.6567 19.729 27.6264 19.9076 27.7475 19.4949C27.8686 19.0822 27.6688 19.2239 27.7657 18.7681C27.8625 18.3123 27.8444 17.8319 27.9412 17.4992C28.0381 17.1666 28.2561 17.259 28.0381 16.9572C27.8202 16.6554 27.7838 16.7047 27.5961 16.5014C27.4084 16.2981 27.5295 16.3413 27.4205 16.101C27.3116 15.8608 27.245 15.8793 27.1541 15.7007C27.0633 15.522 27.0149 15.5775 27.1057 15.2757C27.1965 14.9738 26.9967 14.9862 27.1965 14.8938C27.3963 14.8014 27.366 14.5796 27.3358 14.4996C27.3055 14.4195 27.4871 14.3887 27.2086 14.3517C26.9301 14.3086 26.8514 14.401 26.7545 14.2285C26.6577 14.0561 26.7364 14.0253 26.5244 13.9267C26.3186 13.8282 26.0885 13.8282 26.0098 13.7481C25.9311 13.668 25.9311 13.668 25.9311 13.668C25.9311 13.668 26.0764 13.6064 25.7434 13.5695C25.4104 13.5263 25.1621 13.5695 24.9926 13.3292C24.8231 13.089 24.8655 13.2307 24.8231 13.0089C24.7807 12.7872 24.7323 12.7872 24.5748 12.6455C24.4174 12.5039 24.4174 12.4238 24.266 12.3622C24.1207 12.3006 24.0905 12.3191 24.0905 12.3499C24.0905 12.3807 24.0784 12.4977 24.2176 12.6086C24.3569 12.7194 24.3629 12.818 24.3629 12.8673C24.3629 12.9166 24.1752 12.9781 24.1752 12.9781C24.1752 12.9781 24.1752 12.9166 24.1147 12.7749C24.0541 12.6332 24.036 12.5655 23.9149 12.393C23.7938 12.2205 23.7696 12.202 23.7696 12.202C23.7696 12.202 23.6303 11.9803 23.3942 11.6908C23.158 11.4013 23.0854 11.5799 23.0854 11.2473C23.0854 10.9147 23.1459 10.9147 23.0854 10.6806C23.0248 10.4466 22.8856 10.3357 23.0067 10.2987C23.1278 10.2556 23.1944 10.2002 22.9764 10.0093C22.7584 9.81831 22.6797 9.91686 22.601 9.65816C22.5223 9.39946 22.6918 9.41794 22.3649 9.29475C22.0379 9.17156 22.0016 9.073 21.8502 9.00525C21.7049 8.93749 21.6141 8.89438 21.6141 8.89438C21.6141 8.89438 21.6444 8.86358 21.2871 8.83278C20.9299 8.80198 20.9723 8.62952 20.7059 8.74039C20.4577 8.8451 20.4032 8.86974 20.3971 8.86974C20.4032 8.85742 20.5364 8.69111 20.2881 8.70959C20.0338 8.72807 20.0883 8.78966 20.0823 8.91285C20.0762 9.03605 20.1125 9.17156 19.9369 9.24547C19.7614 9.31323 19.501 9.50417 19.5979 9.30707C19.6948 9.1038 19.943 8.96213 19.8522 8.91285C19.7614 8.86358 19.5737 9.02373 19.5555 8.86358C19.5373 8.70343 19.5737 8.62336 19.3678 8.61104C19.1619 8.59872 18.9924 8.51249 19.1498 8.43857C19.3073 8.37082 19.4586 8.39545 19.5071 8.22915C19.5555 8.05668 19.9248 8.01972 19.5192 8.02588C19.1135 8.0382 18.9379 8.0382 18.9864 7.95813C19.0348 7.87805 19.0166 7.72407 19.3012 7.76718C19.5858 7.8103 19.5858 7.68711 19.5192 7.60703C19.3678 7.42841 19.1135 7.41609 19.3133 7.30522C19.5131 7.19435 19.6282 7.12659 19.8159 7.08347C20.0035 7.04036 20.2034 7.12659 20.5061 7.20666C20.8149 7.28674 21.3053 7.21898 21.5354 7.28674C21.7655 7.35449 21.8684 7.49616 21.941 7.49C22.0077 7.47768 22.2075 7.26826 22.4073 7.26826C22.6071 7.26826 22.7039 7.23746 23.1096 7.28674C23.5153 7.33602 23.9088 7.35449 23.9209 7.45921C23.933 7.55776 23.933 7.61319 24.0784 7.61319C24.2237 7.61319 24.3569 7.5208 24.4416 7.66247C24.5325 7.80414 24.6717 7.90269 24.6475 7.79182C24.6233 7.68095 24.5264 7.58856 24.6051 7.5516C24.6838 7.50848 24.9139 7.49 24.9684 7.50848C25.0289 7.52696 25.2166 7.55776 25.2772 7.5516C25.3377 7.53928 25.2953 7.44073 25.4952 7.50232C25.695 7.56392 25.7252 7.71175 25.7616 7.72407C25.8039 7.73638 25.8887 7.57008 25.9008 7.45921C25.9129 7.34833 25.9977 7.34833 25.8221 7.20666C25.6465 7.065 25.8039 6.89253 25.9311 6.95412C26.0582 7.01572 25.9795 7.09579 26.1067 7.22514C26.2338 7.35449 26.258 7.46537 26.3428 7.42841C26.4336 7.38529 26.3852 7.21898 26.5002 7.34833C26.6153 7.47768 26.6455 7.41609 26.7545 7.39145C26.8635 7.36681 26.7727 7.29906 26.9059 7.36681C27.033 7.43457 27.251 7.51464 27.0936 7.65015C26.9362 7.7795 26.7 7.76102 26.5305 7.85958C26.361 7.95813 26.4094 7.92733 26.361 8.05052C26.3125 8.17371 26.3307 8.17987 26.1309 8.22915C25.9311 8.27842 25.8705 8.24147 25.8827 8.40777C25.8948 8.58024 25.8705 8.59872 25.8039 8.69111C25.7373 8.78351 25.7737 8.86358 25.8524 8.90054C25.9311 8.94365 26.0219 8.86974 26.0219 8.99293C26.0219 9.11612 26.1672 9.20235 26.367 9.20235C26.5668 9.20235 26.6516 9.25163 26.7727 9.40562C26.8938 9.55345 26.7243 9.56577 26.918 9.75671C27.1178 9.94766 27.3055 10.04 27.3358 9.86758C27.366 9.69512 27.3358 9.65816 27.366 9.45489C27.3963 9.25163 27.584 9.23315 27.4871 9.05452C27.3903 8.8759 27.2389 8.79582 27.3782 8.69111C27.5174 8.59256 27.3479 8.50017 27.584 8.45089C27.8202 8.40161 27.9776 8.36466 28.0805 8.54328C28.1774 8.72191 28.0684 8.8451 28.1713 8.92517C28.2682 9.00525 28.577 8.88206 28.6375 8.8143C28.6981 8.74655 28.8676 8.75271 28.9221 9.01757C28.9827 9.27627 29.019 9.35018 29.1098 9.38098C29.2006 9.41178 29.2006 9.47337 29.3096 9.57192C29.4186 9.67048 29.6244 9.83679 29.3096 9.86142C28.9948 9.89222 28.7344 9.8491 28.6194 9.95998C28.4983 10.0708 28.4922 9.99077 28.5709 10.1386C28.6496 10.2864 28.5891 10.1879 28.6496 10.3788C28.7102 10.5698 29.0069 10.5698 28.7889 10.6991C28.5709 10.8285 28.6133 10.8593 28.4801 10.8223C28.353 10.7792 28.3227 10.4959 28.1713 10.7299C28.026 10.964 28.0442 11.0564 27.917 11.1241C27.7899 11.1919 27.7778 11.0564 27.6627 11.272C27.5416 11.4937 27.7293 11.5122 27.4629 11.7647C27.1965 12.0173 27.0694 11.8941 27.0452 12.1097C27.027 12.3191 27.1541 12.5716 27.0875 12.6209C27.0209 12.6702 27.027 12.664 26.9483 12.5223C26.8696 12.3807 26.9059 12.3006 26.6334 12.2821C26.3549 12.2636 26.3791 12.1897 26.2702 12.3129C26.1612 12.4361 26.3125 12.4731 26.0037 12.4361C25.695 12.393 25.6586 12.0234 25.5981 12.4546C25.5375 12.8858 25.5315 12.935 25.6284 13.0582C25.7252 13.1814 25.9916 13.4709 26.1127 13.3416C26.2338 13.2122 26.0825 13.0521 26.3125 13.1013C26.5426 13.1506 26.5971 13.089 26.5608 13.2245C26.5184 13.3539 26.2157 13.3724 26.4639 13.4955C26.7121 13.6187 26.918 13.4771 26.9362 13.668C26.9543 13.859 26.9059 13.9082 26.918 14.0191C26.9301 14.13 26.9785 14.2101 27.2026 14.2101C27.4266 14.2101 27.4205 14.1177 27.4811 14.2409C27.5416 14.364 27.7293 14.3024 27.808 14.13C27.8868 13.9575 27.9473 13.7666 28.0623 13.9698C28.1774 14.1731 28.2016 14.2101 28.3166 14.13C28.4377 14.0499 28.4377 14.0499 28.4377 14.0499C28.4377 14.0499 28.5649 13.9267 28.6739 14.0314C28.7828 14.13 28.9584 14.0191 29.0008 14.1608C29.0432 14.3024 28.9827 14.3209 29.1461 14.3702C29.3157 14.4195 29.5094 14.3394 29.6123 14.4811C29.7092 14.6227 29.4428 14.5303 29.7334 14.7028C30.018 14.8753 30.1088 14.8938 30.0907 15.0046C30.0725 15.1155 30.1512 15.134 30.4055 15.1956C30.6598 15.2572 30.6235 15.2264 30.8293 15.3865C30.8899 15.4296 30.9444 15.4604 30.9928 15.4789L30.9989 16.409Z" fill="white"/>
</g>
<path d="M4.46777 7.86575C4.46172 7.77952 4.44355 7.7056 4.41934 7.63785C4.38906 7.57009 4.35273 7.5085 4.29824 7.45922C4.29219 7.4469 4.27402 7.42842 4.26191 7.4161C4.19531 7.35451 4.12266 7.30523 4.03789 7.27443C4.02578 7.26828 4.00762 7.26212 3.99551 7.26212C3.97129 7.2498 3.94707 7.24364 3.92285 7.23748C3.87441 7.22516 3.81387 7.22516 3.76543 7.22516C3.66855 7.22516 3.57773 7.23748 3.48691 7.27443C3.39609 7.31139 3.32344 7.35451 3.26289 7.4161C3.19629 7.47154 3.1418 7.54545 3.09941 7.63785C3.06309 7.73024 3.04492 7.82879 3.04492 7.94582V8.96215C3.04492 9.06686 3.05703 9.15925 3.09336 9.23317C3.09336 9.24548 3.09941 9.25164 3.10547 9.26396C3.14785 9.35636 3.19629 9.43027 3.26895 9.49187C3.33555 9.55346 3.4082 9.60274 3.49297 9.63353C3.58379 9.66433 3.67461 9.68281 3.77148 9.68281C3.8623 9.68281 3.95918 9.66433 4.04395 9.63353C4.13477 9.60274 4.20742 9.55346 4.26797 9.49187C4.33457 9.43027 4.38906 9.35636 4.42539 9.26396C4.46172 9.17773 4.48594 9.07302 4.48594 8.96215V7.94582C4.47988 7.91503 4.47988 7.89039 4.46777 7.86575ZM4.04395 8.95599C4.04395 9.05454 4.01973 9.13461 3.97129 9.19005C3.9168 9.25164 3.84414 9.28244 3.76543 9.28244C3.67461 9.28244 3.60801 9.25164 3.55352 9.19005C3.50508 9.13461 3.4748 9.05454 3.4748 8.95599V7.95198C3.4748 7.85959 3.49902 7.77952 3.54141 7.72408C3.54141 7.71792 3.54746 7.71176 3.55352 7.71176C3.56563 7.69944 3.56562 7.69944 3.57773 7.69328C3.58379 7.68096 3.58984 7.68096 3.60195 7.6748C3.65039 7.63785 3.70488 7.62553 3.77148 7.62553C3.85625 7.62553 3.92285 7.65633 3.97734 7.71792C4.02578 7.77336 4.05 7.85343 4.05 7.95814V8.95599H4.04395Z" fill="#CECECF"/>
<path d="M5.56426 7.24982L5.08594 7.68098V8.14911L5.56426 7.7241V9.65203H5.99414V7.24982H5.56426Z" fill="#CECECF"/>
<path d="M6.79297 7.24982V8.02592H7.20469V7.64403H7.82832L7.05938 9.65203H7.52559L8.29453 7.64403V7.24982C8.30059 7.24982 6.79297 7.24982 6.79297 7.24982Z" fill="#CECECF"/>
<path d="M10.0736 7.63785C10.0373 7.54545 9.98281 7.47154 9.91621 7.4161C9.84961 7.35451 9.77695 7.30523 9.69219 7.27443C9.60137 7.24364 9.51055 7.22516 9.41973 7.22516C9.32285 7.22516 9.23203 7.23748 9.14121 7.27443C9.05039 7.30523 8.97773 7.35451 8.91719 7.4161C8.85059 7.47154 8.79609 7.54545 8.75977 7.63785C8.71738 7.73024 8.69922 7.82879 8.69922 7.94582V8.96215C8.69922 9.07302 8.71738 9.17773 8.75977 9.26396C8.79609 9.35636 8.85059 9.43027 8.91719 9.49187C8.98379 9.55346 9.05645 9.60274 9.14121 9.63353C9.23203 9.66433 9.32285 9.68281 9.41973 9.68281C9.51055 9.68281 9.60742 9.66433 9.69219 9.63353C9.78301 9.60274 9.85566 9.55346 9.91621 9.49187C9.98281 9.43027 10.0373 9.35636 10.0736 9.26396C10.116 9.17773 10.1342 9.07302 10.1342 8.96215V7.94582C10.1342 7.82879 10.116 7.73024 10.0736 7.63785ZM9.69824 8.95599C9.69824 9.05454 9.67402 9.13461 9.62559 9.19005C9.57109 9.25164 9.49844 9.28244 9.41973 9.28244C9.32891 9.28244 9.2623 9.25164 9.21387 9.19005C9.15938 9.13461 9.1291 9.05454 9.1291 8.95599V7.95198C9.1291 7.84727 9.15938 7.7672 9.21387 7.71176C9.2623 7.65017 9.33496 7.61937 9.41973 7.61937C9.50449 7.61937 9.57109 7.65017 9.62559 7.71176C9.67402 7.7672 9.69824 7.84727 9.69824 7.95198V8.95599Z" fill="#CECECF"/>
<path d="M13.6947 8.62955C13.6584 8.53716 13.61 8.46324 13.5494 8.40165C13.4949 8.34005 13.4223 8.29078 13.3496 8.25998C13.277 8.22918 13.2043 8.2107 13.1195 8.2107C13.0893 8.2107 13.065 8.2107 13.0287 8.21686C12.9984 8.22302 12.9742 8.22918 12.9379 8.2415L13.4344 7.24982H12.9621L12.4596 8.29078C12.4111 8.40165 12.3627 8.51252 12.3203 8.61723C12.2779 8.72194 12.2598 8.82666 12.2598 8.93753C12.2598 9.05456 12.2779 9.16543 12.3143 9.25166C12.3506 9.34406 12.4051 9.42413 12.4717 9.48573C12.5383 9.54732 12.617 9.5966 12.7078 9.6274C12.7986 9.65819 12.8955 9.67667 12.9924 9.67667C13.1014 9.67667 13.1982 9.65819 13.283 9.6274C13.3738 9.5966 13.4525 9.54116 13.5191 9.47957C13.5857 9.41181 13.6342 9.33174 13.6705 9.24551C13.7129 9.15311 13.7311 9.0484 13.7311 8.92521C13.7492 8.81434 13.7311 8.71579 13.6947 8.62955ZM13.2285 9.18391C13.168 9.24551 13.0953 9.2763 13.0045 9.2763C12.9137 9.2763 12.841 9.24551 12.7865 9.18391C12.732 9.12232 12.6957 9.03608 12.6957 8.92521C12.6957 8.81434 12.726 8.7281 12.7865 8.66651C12.841 8.60491 12.9137 8.57412 13.0045 8.57412C13.0953 8.57412 13.174 8.60491 13.2285 8.67267C13.283 8.73426 13.3133 8.8205 13.3133 8.92521C13.3133 9.04224 13.283 9.12847 13.2285 9.18391Z" fill="#CECECF"/>
<path d="M15.6205 8.62955C15.6145 8.58643 15.6084 8.54331 15.6023 8.50636C15.5781 8.39549 15.5176 8.29693 15.4268 8.19838C15.3783 8.1491 15.3178 8.10599 15.2391 8.08135C15.1725 8.05055 15.0816 8.03207 14.9787 8.03207C14.9 8.03207 14.8334 8.04439 14.7668 8.06903C14.7002 8.09367 14.6578 8.11831 14.6275 8.15526V7.63786H15.5781V7.24365H14.234V8.60491H14.6275C14.6457 8.55563 14.676 8.51252 14.7184 8.47556C14.7668 8.43244 14.8273 8.4078 14.9182 8.4078C15.0271 8.4078 15.0998 8.44476 15.1422 8.51868C15.1846 8.58643 15.2027 8.67882 15.2088 8.80817V8.83897C15.2088 8.91289 15.2027 8.9868 15.1967 9.04839C15.1846 9.10999 15.1604 9.15927 15.118 9.19622C15.0695 9.2455 15.0029 9.2763 14.9121 9.2763C14.8213 9.2763 14.7547 9.2455 14.7062 9.19622C14.6578 9.14695 14.6336 9.07303 14.6154 8.98064H14.1855V8.99296C14.1977 9.07303 14.2098 9.15927 14.234 9.23934C14.2582 9.32557 14.3066 9.40565 14.3793 9.47956C14.4277 9.52884 14.5004 9.57196 14.5852 9.61507C14.676 9.65203 14.7789 9.67051 14.9061 9.67051C15.0332 9.67051 15.1301 9.65203 15.2209 9.61507C15.3057 9.57196 15.3723 9.52884 15.4268 9.4734C15.5115 9.38101 15.566 9.28862 15.5963 9.19006C15.6266 9.09151 15.6387 8.97448 15.6387 8.83897C15.6387 8.77122 15.6387 8.70346 15.6205 8.62955Z" fill="#CECECF"/>
<path d="M16.0508 7.24981V8.02591H16.4625V7.64402H17.0861L16.6744 8.71578L16.3172 9.65203H16.7834L17.2436 8.45092V8.44476H17.2496L17.5523 7.63786V7.24365L16.0508 7.24981Z" fill="#CECECF"/>
<path d="M19.3984 7.78568C19.3863 7.7364 19.3803 7.69329 19.3621 7.65633C19.3258 7.56394 19.2713 7.48386 19.2047 7.42843C19.1381 7.36683 19.0594 7.31756 18.9686 7.2806C18.8777 7.2498 18.7809 7.23132 18.684 7.23132C18.575 7.23132 18.4781 7.2498 18.3934 7.2806C18.3025 7.3114 18.2238 7.36067 18.1572 7.42843C18.1088 7.4777 18.0664 7.5393 18.0301 7.60705C18.018 7.62553 18.0059 7.64401 17.9998 7.66249C17.9635 7.75488 17.9453 7.86575 17.9453 7.97663V7.98279C17.9453 8.09366 17.9635 8.19221 17.9998 8.27844C18.0301 8.37084 18.0785 8.44475 18.1391 8.50635C18.1936 8.56794 18.2662 8.61106 18.3389 8.64186C18.4115 8.67265 18.4902 8.69113 18.5689 8.69113C18.5992 8.69113 18.6295 8.68497 18.6598 8.67881C18.69 8.67265 18.7203 8.66649 18.7506 8.65417L18.2602 9.64586H18.7264L19.2289 8.6049C19.2289 8.59874 19.235 8.59258 19.235 8.59258C19.2652 8.52482 19.3016 8.45707 19.3258 8.38931C19.3379 8.35236 19.35 8.32156 19.3621 8.2846C19.3924 8.19837 19.4105 8.11214 19.4166 8.0259C19.4227 8.00742 19.4227 7.98279 19.4227 7.96431C19.4166 7.90887 19.4105 7.84728 19.3984 7.78568ZM18.8959 8.23533C18.8354 8.29692 18.7688 8.32772 18.6779 8.32772C18.5811 8.32772 18.5084 8.29692 18.4539 8.23533C18.4176 8.19221 18.3934 8.13677 18.3873 8.06902H18.3813C18.3813 8.03822 18.3752 8.01358 18.3752 7.97663C18.3752 7.89039 18.3873 7.8288 18.4236 7.7672C18.4357 7.74256 18.4479 7.73025 18.46 7.71177C18.5205 7.65017 18.5871 7.61937 18.684 7.61937C18.7748 7.61937 18.8414 7.65017 18.902 7.71177C18.9504 7.7672 18.9867 7.84728 18.9928 7.95199V8.00126C18.9807 8.10598 18.9504 8.17989 18.8959 8.23533Z" fill="#CECECF"/>
<path d="M22.1836 7.24982L21.9111 7.49004H21.9051L21.6992 7.68098V8.14911L22.1775 7.7241V9.65203H22.6135V7.24982H22.1836Z" fill="#CECECF"/>
<path d="M23.418 7.24982V8.02592H23.8297V7.64403H24.4533L24.4412 7.66251L23.6844 9.65203H24.1506L24.9195 7.64403V7.24982H23.418Z" fill="#CECECF"/>
<path d="M25.9627 7.24982L25.9143 7.29293L25.6115 7.56395L25.4844 7.68098V8.14911L25.9627 7.7241V9.65203H26.3926V7.24982H25.9627Z" fill="#CECECF"/>
<path d="M28.608 7.65017C28.5717 7.55777 28.5172 7.4777 28.4566 7.42226C28.39 7.36067 28.3113 7.31139 28.2205 7.27443C28.1297 7.24364 28.0328 7.22516 27.9299 7.22516C27.827 7.22516 27.7301 7.24364 27.6393 7.27443C27.5484 7.30523 27.4697 7.35451 27.4092 7.42226C27.3426 7.49002 27.2881 7.56393 27.2518 7.65633C27.2154 7.74872 27.1973 7.85959 27.1973 7.97046C27.1973 8.08133 27.2154 8.18605 27.2457 8.27228C27.282 8.36467 27.3305 8.43859 27.391 8.50018C27.4152 8.52482 27.4395 8.54946 27.4576 8.56178C27.4939 8.59257 27.5424 8.61721 27.5848 8.63569C27.6574 8.66649 27.7361 8.68497 27.8148 8.68497C27.8451 8.68497 27.8693 8.67881 27.9057 8.67265C27.9359 8.66649 27.9662 8.66033 27.9965 8.64801L27.5061 9.63969H27.9723L28.3053 8.94983L28.4748 8.59873C28.5293 8.48786 28.5777 8.38315 28.6141 8.27844C28.6504 8.17373 28.6746 8.06901 28.6746 7.95814C28.6686 7.85343 28.6504 7.74872 28.608 7.65017ZM27.7119 7.71176C27.7664 7.65017 27.8391 7.61937 27.9299 7.61937C28.0207 7.61937 28.0934 7.65017 28.1539 7.71176C28.2084 7.77336 28.2387 7.85959 28.2387 7.97662C28.2387 8.08749 28.2084 8.17373 28.1539 8.23532C28.0934 8.29692 28.0207 8.32771 27.9299 8.32771C27.8391 8.32771 27.7604 8.29692 27.7059 8.23532C27.6514 8.17373 27.6211 8.08749 27.6211 7.98278C27.6211 7.86575 27.6514 7.77336 27.7119 7.71176Z" fill="#CECECF"/>
<path d="M20.2648 17.2406C20.2346 17.179 20.2043 17.1297 20.1559 17.0927C20.1074 17.0496 20.059 17.0188 19.9984 17.0003C19.9379 16.9757 19.8773 16.9695 19.8107 16.9695C19.7441 16.9695 19.6836 16.9819 19.623 17.0003C19.5625 17.0188 19.5141 17.0496 19.4656 17.0927C19.4172 17.1359 19.3809 17.1851 19.3566 17.2406C19.3324 17.3022 19.3203 17.3699 19.3203 17.45V18.1399C19.3203 18.2199 19.3324 18.2877 19.3566 18.3493C19.3869 18.4109 19.4232 18.4601 19.4656 18.4971C19.5141 18.5402 19.5625 18.571 19.623 18.5957C19.6836 18.6141 19.7441 18.6265 19.8107 18.6265C19.8773 18.6265 19.9379 18.6141 19.9984 18.5957C20.059 18.571 20.1074 18.5402 20.1559 18.4971C20.2043 18.4601 20.2346 18.4047 20.2648 18.3493C20.2951 18.2877 20.3072 18.2199 20.3072 18.1399V17.45C20.3072 17.3699 20.2951 17.3022 20.2648 17.2406ZM20.0105 18.1399C20.0105 18.2076 19.9924 18.263 19.9561 18.3C19.9258 18.3431 19.8713 18.3616 19.8168 18.3616C19.7562 18.3616 19.7078 18.3431 19.6715 18.3C19.6352 18.263 19.617 18.2076 19.617 18.1399V17.45C19.617 17.3822 19.6352 17.3206 19.6715 17.2837C19.7018 17.2406 19.7562 17.2221 19.8168 17.2221C19.8713 17.2221 19.9258 17.2406 19.9561 17.2837C19.9924 17.3206 20.0105 17.3761 20.0105 17.45V18.1399Z" fill="#CECECF"/>
<path d="M21.5857 17.838C21.5736 17.7641 21.5312 17.6902 21.4646 17.6286C21.4344 17.5978 21.392 17.567 21.3375 17.5485C21.2891 17.5301 21.2285 17.5177 21.1619 17.5177C21.1074 17.5177 21.059 17.5239 21.0166 17.5424C20.9742 17.5609 20.9439 17.5793 20.9197 17.5978V17.2467H21.5797V16.9757H20.6533V17.9058H20.9258C20.9379 17.875 20.9561 17.8442 20.9863 17.8134C21.0166 17.7826 21.059 17.7703 21.1195 17.7703C21.1922 17.7703 21.2467 17.7949 21.2709 17.8442C21.3012 17.8935 21.3193 17.9674 21.3193 18.0659C21.3193 18.1152 21.3133 18.1645 21.3072 18.2076C21.2951 18.2507 21.283 18.2815 21.2588 18.3123C21.2285 18.3431 21.174 18.3616 21.1195 18.3616C21.0529 18.3616 21.0105 18.3431 20.9742 18.3123C20.9439 18.2754 20.9258 18.2199 20.9197 18.1645H20.623C20.6291 18.2199 20.6352 18.2815 20.6533 18.337C20.6654 18.3986 20.7018 18.454 20.7502 18.5033C20.7865 18.5402 20.835 18.571 20.8955 18.5957C20.9621 18.6265 21.0287 18.6326 21.1195 18.6326C21.2043 18.6326 21.2709 18.6203 21.3314 18.5957C21.392 18.5649 21.4404 18.5402 21.4768 18.5033C21.5373 18.4417 21.5736 18.3739 21.5918 18.3123C21.61 18.2446 21.6221 18.1645 21.6221 18.0721C21.616 17.9859 21.6039 17.912 21.5857 17.838Z" fill="#CECECF"/>
<path d="M22.4271 16.8032L21.7793 18.7928H22.0578L22.7057 16.8032H22.4271Z" fill="#CECECF"/>
<path d="M23.3172 16.9757L22.9902 17.2652V17.5855L23.3172 17.296V18.6203H23.6139V16.9757H23.3172Z" fill="#CECECF"/>
<path d="M24.6062 16.9757L24.2793 17.2652V17.5855L24.6062 17.296V18.6203H24.9029V16.9757H24.6062Z" fill="#CECECF"/>
<path d="M25.4727 17.8195V18.1029H26.1689V17.8195H25.4727Z" fill="#CECECF"/>
<path d="M27.4271 17.2406C27.4029 17.179 27.3666 17.1297 27.3182 17.0927C27.2758 17.0496 27.2213 17.0188 27.1607 17.0003C27.1002 16.9757 27.0396 16.9695 26.973 16.9695C26.9064 16.9695 26.8459 16.9819 26.7854 17.0003C26.7248 17.0188 26.6764 17.0496 26.6279 17.0927C26.5795 17.1359 26.5432 17.1851 26.5189 17.2406C26.4887 17.3022 26.4766 17.3699 26.4766 17.45V18.1399C26.4766 18.2199 26.4887 18.2877 26.5189 18.3493C26.5432 18.4109 26.5795 18.4601 26.6279 18.4971C26.6764 18.5402 26.7248 18.571 26.7854 18.5957C26.8459 18.6141 26.9064 18.6265 26.973 18.6265C27.0396 18.6265 27.1002 18.6141 27.1607 18.5957C27.2213 18.571 27.2758 18.5402 27.3182 18.4971C27.3666 18.4601 27.4029 18.4047 27.4271 18.3493C27.4574 18.2877 27.4695 18.2199 27.4695 18.1399V17.45C27.4695 17.3699 27.4574 17.3022 27.4271 17.2406ZM27.1729 18.1399C27.1729 18.2076 27.1547 18.263 27.1184 18.3C27.0881 18.3431 27.0396 18.3616 26.9791 18.3616C26.9186 18.3616 26.8701 18.3431 26.8338 18.3C26.7975 18.263 26.7793 18.2076 26.7793 18.1399V17.45C26.7793 17.3822 26.7975 17.3206 26.8338 17.2837C26.8701 17.2406 26.9186 17.2221 26.9791 17.2221C27.0396 17.2221 27.0881 17.2406 27.1184 17.2837C27.1547 17.3206 27.1729 17.3761 27.1729 17.45V18.1399Z" fill="#CECECF"/>
<path d="M28.7182 17.2406C28.6939 17.179 28.6576 17.1297 28.6092 17.0927C28.5668 17.0496 28.5123 17.0188 28.4518 17.0003C28.3912 16.9757 28.3307 16.9695 28.2641 16.9695C28.1975 16.9695 28.1369 16.9819 28.0764 17.0003C28.0703 17.0003 28.0643 17.0065 28.0643 17.0065C28.0098 17.025 27.9613 17.0558 27.9189 17.0989C27.8705 17.142 27.8402 17.1913 27.81 17.2467C27.7797 17.3083 27.7676 17.3761 27.7676 17.4561V18.146C27.7676 18.2261 27.7797 18.2938 27.81 18.3554C27.816 18.3616 27.816 18.3678 27.8221 18.3739C27.8523 18.4232 27.8766 18.4725 27.9189 18.5033C27.9674 18.5464 28.0158 18.5772 28.0764 18.6018C28.1369 18.6203 28.1975 18.6326 28.2641 18.6326C28.3307 18.6326 28.3912 18.6203 28.4518 18.6018C28.5123 18.5772 28.5668 18.5464 28.6092 18.5033C28.6576 18.4663 28.6939 18.4109 28.7182 18.3554C28.7484 18.2938 28.7605 18.2261 28.7605 18.146V17.4561C28.7605 17.3699 28.7484 17.3022 28.7182 17.2406ZM28.4639 18.1399C28.4639 18.2076 28.4457 18.263 28.4154 18.3C28.3791 18.3431 28.3307 18.3616 28.2701 18.3616C28.2096 18.3616 28.1611 18.3431 28.1248 18.3C28.0885 18.263 28.0703 18.2076 28.0703 18.1399V17.45C28.0703 17.3822 28.0885 17.3206 28.1248 17.2837C28.1611 17.2406 28.2096 17.2221 28.2701 17.2221C28.3307 17.2221 28.3791 17.2406 28.4154 17.2837C28.4457 17.3206 28.4639 17.3761 28.4639 17.45V18.1399Z" fill="#CECECF"/>
<path d="M2.81641 10.6375V10.7853H3.04043V11.4937H3.20391V10.7853H3.42793V10.6375H2.81641Z" fill="#CECECF"/>
<path d="M4.17852 10.9578C4.17852 10.927 4.17246 10.8962 4.16641 10.8654C4.16035 10.8346 4.1543 10.81 4.14219 10.7853C4.13613 10.7792 4.13613 10.773 4.13008 10.773C4.11797 10.7607 4.10586 10.7422 4.0877 10.7237C4.07559 10.7114 4.06953 10.7053 4.05742 10.6991C4.03926 10.6806 4.01504 10.6683 3.99082 10.656C3.97266 10.6437 3.94844 10.6437 3.92422 10.6375C3.90605 10.6313 3.88789 10.6313 3.86367 10.6313C3.81523 10.6313 3.77285 10.6437 3.73652 10.656C3.7002 10.6683 3.66992 10.6929 3.63965 10.7237C3.61543 10.7484 3.60332 10.773 3.59121 10.7915C3.5791 10.8161 3.57305 10.8408 3.56699 10.8716C3.56094 10.9024 3.55488 10.927 3.55488 10.964C3.54883 10.9948 3.54883 11.0317 3.54883 11.0748C3.54883 11.1118 3.54883 11.1487 3.55488 11.1857C3.55488 11.198 3.55488 11.2165 3.56094 11.2227C3.56094 11.2411 3.56094 11.2596 3.56699 11.2719C3.57305 11.3027 3.5791 11.3274 3.59121 11.352C3.60332 11.3767 3.62148 11.3951 3.63965 11.4198C3.66992 11.4506 3.7002 11.469 3.73652 11.4875C3.7668 11.506 3.80312 11.5122 3.85156 11.5122H3.87578C3.92422 11.5122 3.9666 11.506 4.00293 11.4875C4.03926 11.4752 4.06953 11.4506 4.0998 11.4198C4.12402 11.3951 4.13613 11.3767 4.14824 11.352C4.16035 11.3274 4.16641 11.3027 4.17246 11.2719C4.17852 11.2473 4.18457 11.2165 4.18457 11.1795V11.1549C4.19063 11.1303 4.19062 11.0995 4.19062 11.0687C4.18457 11.0256 4.18457 10.9886 4.17852 10.9578ZM4.00898 11.235C4.00898 11.2535 4.00293 11.2658 3.99688 11.2781C3.98477 11.2904 3.98477 11.3027 3.97266 11.3089C3.96055 11.3212 3.94844 11.3397 3.93027 11.3459C3.91816 11.352 3.90605 11.3582 3.89395 11.352C3.88789 11.3582 3.88184 11.3582 3.86973 11.3582C3.84551 11.3582 3.82129 11.3582 3.80313 11.3459C3.79102 11.3335 3.77285 11.3212 3.75469 11.3089C3.74863 11.3027 3.74258 11.2966 3.73652 11.2781C3.73047 11.2658 3.72441 11.2535 3.72441 11.235C3.71836 11.2227 3.7123 11.198 3.7123 11.1672V10.964C3.7123 10.9332 3.71836 10.9147 3.72441 10.8962C3.72441 10.8777 3.73047 10.8654 3.73652 10.8531C3.74258 10.8408 3.74863 10.8285 3.75469 10.8223C3.7668 10.81 3.78496 10.7977 3.80313 10.7915C3.82129 10.7853 3.84551 10.7792 3.86973 10.7792C3.88789 10.7792 3.91211 10.7853 3.93027 10.7915C3.94844 10.8038 3.96055 10.81 3.97266 10.8223C3.98477 10.8346 3.98477 10.8408 3.99688 10.8531C4.00293 10.8654 4.00898 10.8777 4.00898 10.8962C4.01504 10.9147 4.01504 10.9332 4.02109 10.964V11.1672C4.01504 11.1919 4.01504 11.2103 4.00898 11.2227C4.00898 11.2288 4.00898 11.235 4.00898 11.235Z" fill="#CECECF"/>
<path d="M4.96602 10.8038C4.95391 10.773 4.93574 10.7422 4.91152 10.7176C4.8873 10.6929 4.86309 10.6745 4.82676 10.6622C4.79043 10.6498 4.7541 10.6375 4.70566 10.6375H4.38477V11.4998H4.54219V11.1734H4.70566C4.7541 11.1734 4.79043 11.1672 4.82676 11.1549C4.85703 11.1426 4.8873 11.1241 4.91152 11.0933C4.9418 11.0687 4.95391 11.044 4.96602 11.0071C4.97812 10.9763 4.98418 10.9393 4.98418 10.9024C4.98418 10.8716 4.97812 10.8346 4.96602 10.8038ZM4.79043 10.9886C4.77832 11.0009 4.76016 11.0132 4.74199 11.0132C4.72988 11.0256 4.71172 11.0256 4.69355 11.0256H4.54219V10.7915H4.69355C4.73594 10.7915 4.76016 10.8038 4.78437 10.8223C4.80254 10.8469 4.81465 10.8716 4.81465 10.9085C4.8207 10.9393 4.80859 10.9701 4.79043 10.9886Z" fill="#CECECF"/>
<path d="M5.71133 10.7853V10.6375H5.1543V11.4998H5.71133V11.352H5.31777V11.1426H5.65078V10.9948H5.31777V10.7915L5.71133 10.7853Z" fill="#CECECF"/>
<path d="M6.2791 11.3212C6.25488 11.3458 6.22461 11.352 6.18223 11.352C6.15801 11.352 6.13984 11.352 6.12168 11.3397C6.10352 11.3274 6.09141 11.3212 6.07324 11.3089C6.06719 11.2966 6.06113 11.2904 6.05508 11.2781C6.04902 11.2658 6.04297 11.2473 6.04297 11.2288C6.04297 11.2165 6.03691 11.1919 6.03691 11.1611C6.03086 11.1303 6.03086 11.0995 6.03086 11.0625C6.03086 11.0194 6.03086 10.9886 6.03691 10.9578C6.03691 10.927 6.04297 10.9085 6.04297 10.89C6.04902 10.8716 6.05508 10.8592 6.05508 10.8469C6.06113 10.8346 6.06719 10.8223 6.07324 10.8161C6.08535 10.8038 6.10352 10.7915 6.12168 10.7853C6.13984 10.7792 6.15801 10.773 6.18223 10.773C6.22461 10.773 6.25488 10.7853 6.27305 10.8038C6.29727 10.8284 6.31543 10.8531 6.32148 10.8962H6.49102C6.47285 10.8038 6.44258 10.7361 6.38203 10.6868C6.32754 10.6437 6.25488 10.619 6.17617 10.619C6.12773 10.619 6.08535 10.6313 6.04902 10.6437C6.01875 10.656 5.98242 10.6806 5.95215 10.7114C5.93398 10.736 5.91582 10.7607 5.90371 10.7792C5.8916 10.8038 5.87949 10.8284 5.87344 10.8592C5.86738 10.89 5.86133 10.9147 5.86133 10.9516V11.1734C5.86133 11.2042 5.86738 11.2411 5.87344 11.2658C5.87949 11.2966 5.88555 11.3212 5.90371 11.3458C5.91582 11.3705 5.93398 11.389 5.95215 11.4136C5.98242 11.4444 6.01875 11.4629 6.04902 11.4814C6.08535 11.4998 6.12773 11.506 6.17617 11.506C6.25488 11.506 6.32148 11.4814 6.38203 11.4382C6.43652 11.389 6.47285 11.3274 6.49102 11.235H6.32148C6.31543 11.2658 6.29727 11.2966 6.2791 11.3212Z" fill="#CECECF"/>
<path d="M7.24844 10.8654C7.24238 10.8346 7.23633 10.81 7.21816 10.7853C7.20605 10.7669 7.18789 10.7422 7.16973 10.7176C7.13945 10.6868 7.10918 10.6683 7.07285 10.6498C7.03652 10.6375 6.99414 10.6252 6.9457 10.6252C6.89727 10.6252 6.85488 10.6375 6.81855 10.6498C6.78223 10.6621 6.75195 10.6868 6.72168 10.7176C6.70352 10.7422 6.68535 10.7669 6.67324 10.7853C6.66113 10.81 6.64902 10.8346 6.64297 10.8654C6.63691 10.8962 6.63086 10.9208 6.63086 10.9578V11.1795C6.63086 11.2103 6.63691 11.2473 6.64297 11.2719C6.64902 11.3027 6.65508 11.3274 6.67324 11.352C6.68535 11.3766 6.70352 11.3951 6.72168 11.4198C6.75195 11.4506 6.78223 11.469 6.81855 11.4875C6.85488 11.506 6.89727 11.5122 6.9457 11.5122C6.99414 11.5122 7.03652 11.506 7.07285 11.4875C7.10918 11.4752 7.13945 11.4506 7.16973 11.4198C7.18789 11.3951 7.20605 11.3766 7.21816 11.352C7.23027 11.3274 7.24238 11.3027 7.24844 11.2719C7.25449 11.2473 7.26055 11.2165 7.26055 11.1795V10.9578C7.25449 10.9208 7.24844 10.8962 7.24844 10.8654ZM7.09102 11.1672C7.09102 11.198 7.08496 11.2165 7.08496 11.235C7.07891 11.2535 7.07285 11.2658 7.07285 11.2781C7.0668 11.2904 7.06074 11.3027 7.05469 11.3089C7.04258 11.3212 7.02441 11.3397 7.00625 11.3458C6.98809 11.3582 6.96992 11.3582 6.9457 11.3582C6.92148 11.3582 6.90332 11.3582 6.88516 11.3458C6.86699 11.3335 6.85488 11.3212 6.83672 11.3089C6.82461 11.3027 6.82461 11.2966 6.81855 11.2781C6.8125 11.2658 6.80645 11.2535 6.80645 11.235C6.80039 11.2227 6.80039 11.198 6.80039 11.1672C6.79434 11.1364 6.79434 11.1056 6.79434 11.0687C6.79434 11.0256 6.79434 10.9948 6.80039 10.964C6.80039 10.9332 6.80039 10.9147 6.80645 10.8962C6.8125 10.8777 6.81855 10.8654 6.81855 10.8531C6.82461 10.8408 6.83066 10.8284 6.83672 10.8223C6.84883 10.81 6.86699 10.7976 6.88516 10.7915C6.90332 10.7853 6.92148 10.7792 6.9457 10.7792C6.96992 10.7792 6.98809 10.7853 7.00625 10.7915C7.02441 10.8038 7.03652 10.81 7.05469 10.8223C7.0668 10.8346 7.0668 10.8408 7.07285 10.8531C7.07891 10.8654 7.08496 10.8777 7.08496 10.8962C7.08496 10.9147 7.09102 10.9332 7.09102 10.964C7.09707 10.9948 7.09707 11.0256 7.09707 11.0687C7.09102 11.1056 7.09102 11.1426 7.09102 11.1672Z" fill="#CECECF"/>
<path d="M7.9334 10.6375V11.1672L7.60039 10.6375H7.45508V11.4998H7.62461V10.9701L7.95762 11.4998H8.10293V10.6375H7.9334Z" fill="#CECECF"/>
<path d="M9.22832 11.1672C9.21621 11.1426 9.2041 11.118 9.18594 11.0995C9.17383 11.0872 9.16777 11.081 9.15566 11.0748C9.14355 11.0687 9.1375 11.0625 9.11934 11.0502C9.18594 11.0132 9.22832 10.9516 9.22832 10.8716C9.22832 10.8346 9.21621 10.8038 9.21016 10.773C9.19805 10.7422 9.17988 10.7237 9.15566 10.6991C9.1375 10.6806 9.10723 10.6621 9.07695 10.6498C9.04668 10.6375 9.01035 10.6313 8.96797 10.6313H8.62891V11.4937H8.98008C9.02246 11.4937 9.05879 11.4814 9.08906 11.4752C9.11934 11.4629 9.14355 11.4444 9.16777 11.4259C9.19199 11.4074 9.21016 11.3767 9.21621 11.352C9.22832 11.3212 9.23438 11.2843 9.23438 11.2473C9.24043 11.2227 9.23437 11.1919 9.22832 11.1672ZM8.79844 10.7853H8.96191C8.99219 10.7853 9.02246 10.7977 9.04063 10.8161C9.05879 10.8346 9.0709 10.8592 9.0709 10.8839C9.0709 10.9147 9.05879 10.9393 9.04063 10.9578C9.02246 10.9701 8.99219 10.9824 8.96191 10.9824H8.79844V10.7853ZM9.04668 11.3212C9.02852 11.3397 8.99824 11.352 8.96797 11.352H8.79844V11.1426H8.96797C8.99824 11.1426 9.02852 11.1549 9.04668 11.1734C9.06484 11.1919 9.07695 11.2165 9.07695 11.2473C9.07695 11.2781 9.06484 11.3027 9.04668 11.3212Z" fill="#CECECF"/>
<path d="M9.77949 10.6375H9.65234L9.34961 11.4998H9.51914L9.56758 11.3459H9.87031L9.91875 11.4998H10.0883L9.77949 10.6375ZM9.61602 11.198L9.725 10.8901L9.82793 11.198H9.61602Z" fill="#CECECF"/>
<path d="M10.699 10.6375V11.1672L10.366 10.6375H10.2207V11.4998H10.3842V10.9701L10.7172 11.4998H10.8625V10.6375H10.699Z" fill="#CECECF"/>
<path d="M11.4813 10.9824L11.7598 10.6375H11.56L11.2572 11.0132V10.6375H11.0938V11.4998H11.2572V11.2411L11.3662 11.1118L11.5842 11.4998H11.7719L11.4813 10.9824Z" fill="#CECECF"/>
<path d="M7.67734 15.1278V18.4293C7.67734 18.5648 7.56836 18.6695 7.44121 18.6695H3.44512C3.31191 18.6695 3.20898 18.5587 3.20898 18.4293V15.1278C3.20898 14.9923 3.31797 14.8876 3.44512 14.8876H7.44121C7.56836 14.8876 7.67734 14.9984 7.67734 15.1278Z" fill="#F7D072"/>
<path opacity="0.2" d="M6.79902 15.6883L7.49531 14.98H7.26523L6.5084 15.7499L6.41758 15.8423L6.13301 16.138L6.04219 16.2304H5.00078L4.52246 15.7438L4.37109 15.5836L3.77168 14.9738H3.54766L4.14707 15.5836L4.23789 15.676H3.28125V15.8362H4.39531L4.69199 16.1441L4.7707 16.2304V16.4213H3.2873V16.5815H4.77676V17.1604H3.2873V17.3206H4.77676V17.5115H4.78281L4.49824 17.8072L4.40742 17.8996H3.2873V18.0597H4.24395L3.64453 18.6695H3.86855L4.46797 18.0597L5.00684 17.5115H6.03613L7.17441 18.6757H7.39844L6.79902 18.0659H7.67695V17.9058H6.6416L6.26016 17.5177H6.27227V17.3268H7.68301V17.1666H6.27227V16.5876H7.68301V16.4275H6.27227V16.2365H6.26016L6.6416 15.8485H7.67695V15.6883H6.79902ZM6.10879 17.3514H4.93418V16.3967H6.10879V17.3514Z" fill="white"/>
<path d="M4.92324 16.1441L5.01406 16.2365H5.02012L5.08672 16.3043H5.80117L5.95859 16.1441H4.92324ZM4.92324 16.1441L5.01406 16.2365H5.02012L5.08672 16.3043H5.80117L5.95859 16.1441H4.92324ZM4.92324 16.1441L5.01406 16.2365H5.02012L5.08672 16.3043H5.80117L5.95859 16.1441H4.92324ZM4.92324 16.1441L5.01406 16.2365H5.02012L5.08672 16.3043H5.80117L5.95859 16.1441H4.92324ZM4.92324 16.1441L5.01406 16.2365H5.02012L5.08672 16.3043H5.80117L5.95859 16.1441H4.92324ZM4.92324 16.1441L5.01406 16.2365H5.02012L5.08672 16.3043H5.80117L5.95859 16.1441H4.92324ZM4.69922 16.1441V17.4191H6.19473V16.1441H4.69922ZM6.03125 17.259H4.85664V16.3043H6.03125V17.259ZM4.92324 16.1441L5.01406 16.2365H5.02012L5.08672 16.3043H5.80117L5.95859 16.1441H4.92324ZM5.89199 17.3514L5.80117 17.259H5.08672L4.9959 17.3514H4.98984L4.9293 17.4191H5.95859L5.89199 17.3514ZM4.92324 16.1441L5.01406 16.2365H5.02012L5.08672 16.3043H5.80117L5.95859 16.1441H4.92324ZM4.92324 16.1441L5.01406 16.2365H5.02012L5.08672 16.3043H5.80117L5.95859 16.1441H4.92324ZM4.92324 16.1441L5.01406 16.2365H5.02012L5.08672 16.3043H5.80117L5.95859 16.1441H4.92324ZM4.92324 16.1441L5.01406 16.2365H5.02012L5.08672 16.3043H5.80117L5.95859 16.1441H4.92324Z" fill="#717070"/>
<path d="M4.38379 15.5898L4.54121 15.7561H3.20312V15.5898H4.38379Z" fill="#717070"/>
<path d="M7.67793 15.5898V15.7561H6.33984L6.49727 15.5898H7.67793Z" fill="#717070"/>
<path d="M4.85 16.3289H3.20312V16.4891H4.85V16.3289Z" fill="#717070"/>
<path d="M7.67813 16.3289H6.03125V16.4891H7.67813V16.3289Z" fill="#717070"/>
<path d="M4.85 17.0681H3.20312V17.2282H4.85V17.0681Z" fill="#717070"/>
<path d="M7.67813 17.0681H6.03125V17.2282H7.67813V17.0681Z" fill="#717070"/>
<path d="M4.54121 17.8072L4.38379 17.9673H3.20312V17.8072H4.54121Z" fill="#717070"/>
<path d="M7.67793 17.8072V17.9673H6.49727L6.33984 17.8072H7.67793Z" fill="#717070"/>
<path d="M5.0793 17.259L3.69277 18.6757H3.46875L4.85527 17.259H5.0793Z" fill="#717070"/>
<path d="M7.41133 14.8876L6.0248 16.3043H5.80078L7.1873 14.8876H7.41133Z" fill="#717070"/>
<path d="M5.0793 16.3043H4.85527L3.46875 14.8876H3.69277L5.0793 16.3043Z" fill="#717070"/>
<path d="M7.41133 18.6757H7.1873L5.9582 17.4191L5.8916 17.3514L5.80078 17.259H6.0248L6.10957 17.3452L6.18223 17.4191L6.26699 17.5054L6.56367 17.8072L6.65449 17.8996L6.72109 17.9673L6.81191 18.0659L7.41133 18.6757Z" fill="#717070"/>
<path d="M12.867 14.8876H12.8428H12.6187H9.11914H8.89512H8.8709C8.73769 14.8876 8.63477 14.9984 8.63477 15.1278V15.5898V15.7499V16.3289V16.4891V17.068V17.2282V17.8072V17.9673V18.4293C8.63477 18.5648 8.74375 18.6695 8.8709 18.6695H8.89512H9.06465H9.11914H9.28867H12.6006H12.6127H12.8246H12.8367H12.8609C12.9941 18.6695 13.0971 18.5587 13.0971 18.4293V18.0597V17.9673V17.8996V17.8072V17.3267V17.2344V17.1666V17.0742V16.5938V16.5014V16.4336V16.3412V15.8608V15.7684V15.7006V15.6082V15.1463C13.1031 14.9984 13.0002 14.8876 12.867 14.8876Z" fill="#ECEDF7"/>
<path d="M13.1033 16.4028V18.454C13.1033 18.5895 12.9943 18.6942 12.8672 18.6942H10.0941L8.62891 17.2036V15.1525C8.62891 15.0169 8.73789 14.9122 8.86504 14.9122H11.6381L13.1033 16.4028Z" fill="#B7C3A1"/>
<path opacity="0.2" d="M12.8609 14.8814H12.8367H12.7217L8.99805 18.6695H9.05859H9.11309H9.28262H12.5945H12.6066H12.8186H12.8307H12.8549C12.9881 18.6695 13.091 18.5586 13.091 18.4293V18.0597V17.9673V17.8996V17.801V17.3206V17.2282V17.1604V17.0619V16.5814V16.489V16.4213V16.3289V15.8485V15.7561V15.6883V15.5959V15.1339C13.0971 14.9923 12.9881 14.8814 12.8609 14.8814Z" fill="#040000"/>
<path d="M10.6797 4.11457L10.7887 3.75116H11.6908L11.5818 4.11457H10.6797Z" fill="#CECECF"/>
<path d="M12.9008 5.08164H12.5617L12.5254 2.9566H12.9916L12.9855 4.3425L13.924 2.9566H14.3963L12.9008 5.08164Z" fill="#CECECF"/>
<path d="M14.0098 5.08164L14.7363 2.9566H15.1844L14.4578 5.08164H14.0098Z" fill="#CECECF"/>
<path d="M16.7033 4.45336C16.667 4.55807 16.6125 4.65046 16.5459 4.73053C16.4732 4.81061 16.3945 4.87836 16.2977 4.9338C16.2008 4.98923 16.0979 5.03235 15.9828 5.05699C15.8678 5.08779 15.7527 5.10011 15.6316 5.10011C15.4561 5.10011 15.3047 5.08163 15.1836 5.03851C15.0625 4.99539 14.9596 4.92148 14.8809 4.81677L15.2623 4.54575C15.3107 4.6135 15.3834 4.66278 15.4682 4.68742C15.5529 4.71206 15.6498 4.72437 15.7588 4.72437C15.898 4.72437 16.007 4.69974 16.0918 4.65662C16.1766 4.6135 16.2311 4.54575 16.2613 4.45951C16.2855 4.3856 16.2855 4.33016 16.2492 4.28089C16.2311 4.26241 16.2129 4.24393 16.1887 4.23777C16.1645 4.22545 16.1221 4.21929 16.0676 4.21313L15.8072 4.17618C15.7104 4.16386 15.6256 4.13922 15.565 4.11458C15.5045 4.08378 15.4561 4.04683 15.4197 4.00371C15.341 3.90516 15.335 3.76965 15.3955 3.58486C15.4258 3.48631 15.4742 3.40008 15.5408 3.32616C15.6074 3.24609 15.6801 3.17833 15.7709 3.1229C15.8617 3.06746 15.9586 3.02434 16.0676 2.98739C16.1766 2.95043 16.2977 2.93811 16.4188 2.93811C16.5762 2.93811 16.7094 2.95659 16.8184 2.99355C16.9273 3.0305 17.0121 3.0921 17.0787 3.18449L16.7033 3.44319C16.6549 3.3816 16.5883 3.33848 16.5096 3.32C16.4309 3.30152 16.3521 3.29536 16.2795 3.29536C16.1584 3.29536 16.0615 3.32 15.9828 3.37544C15.9041 3.43087 15.8557 3.49247 15.8314 3.56638C15.8193 3.59718 15.8193 3.62182 15.8193 3.64646C15.8193 3.67109 15.8314 3.69573 15.8436 3.72037C15.8617 3.73885 15.8859 3.75733 15.9102 3.76965C15.9404 3.78197 15.9768 3.79429 16.0252 3.80044L16.2855 3.8374C16.3885 3.84972 16.4672 3.87436 16.5277 3.899C16.5883 3.92364 16.6367 3.96059 16.667 4.00371C16.7094 4.05299 16.7336 4.12074 16.7396 4.19465C16.7518 4.27473 16.7336 4.36096 16.7033 4.45336Z" fill="#CECECF"/>
<path d="M18.2535 5.08164L18.2475 4.70591H17.4301L17.1637 5.08164H16.6914L18.2535 2.9566H18.6047L18.7197 5.08164H18.2535ZM18.2232 3.58488L17.6662 4.36098H18.2414L18.2232 3.58488Z" fill="#CECECF"/>
<path d="M19.3086 4.11457L19.4176 3.75116H20.3197L20.2107 4.11457H19.3086Z" fill="#CECECF"/>
<path opacity="0.1" d="M31 1.004V18.9898C31 19.5442 30.558 20 30.0131 20H15.5V0H30.0131C30.558 0 31 0.449646 31 1.004Z" fill="#040000"/>
</g>
<defs>
<clipPath id="clip0_72_77">
<rect width="31" height="20" fill="white"/>
</clipPath>
</defs>
</svg>
