<svg width="30" height="19" viewBox="0 0 30 19" fill="none" xmlns="http://www.w3.org/2000/svg">
<path d="M20 1.66699H10V16.667H20V1.66699Z" fill="#FF5F00"/>
<path d="M11.4591 9.16667C11.4565 6.35403 12.7622 3.69646 15 1.95994C11.1989 -0.994119 5.74015 -0.564166 2.46007 2.94763C-0.820024 6.45942 -0.820024 11.8739 2.46007 15.3856C5.74015 18.8975 11.1989 19.3274 15 16.3734C12.7622 14.6368 11.4565 11.9793 11.4591 9.16667Z" fill="#EB001B"/>
<path d="M30 9.16667C30.0001 12.6761 27.9736 15.8775 24.7811 17.4114C21.5886 18.9453 17.7906 18.5422 15 16.3734C17.2358 14.6353 18.5411 11.9787 18.5411 9.16667C18.5411 6.3546 17.2358 3.69808 15 1.95989C17.7906 -0.20888 21.5886 -0.611931 24.7811 0.921915C27.9736 2.45576 30.0001 5.65722 30 9.16667Z" fill="#F79E1B"/>
</svg>
