<svg width="32" height="20" viewBox="0 0 32 20" fill="none" xmlns="http://www.w3.org/2000/svg">
<g clip-path="url(#clip0_73_359)">
<path d="M29.744 0H2.256C1.012 0 0 0.98328 0 2.19745V17.8065C0 19.0167 1.012 20.004 2.256 20.004H29.744C30.988 20.004 32 19.0207 32 17.8065V2.19745C32 0.98328 30.988 0 29.744 0Z" fill="white"/>
<path d="M6.96817 6.7277C6.62417 6.49283 6.18017 6.37738 5.62817 6.37738H3.49217C3.32417 6.37738 3.22817 6.46098 3.21217 6.62818L2.34417 12.0422C2.33617 12.0939 2.34817 12.1457 2.38417 12.1895C2.42017 12.2333 2.46417 12.2572 2.51617 12.2572H3.52817C3.70417 12.2572 3.80417 12.1736 3.82017 12.0064L4.06017 10.5454C4.06817 10.4737 4.10017 10.418 4.15217 10.3742C4.20417 10.3304 4.27217 10.3025 4.35217 10.2866C4.43217 10.2747 4.50817 10.2667 4.58017 10.2667C4.65217 10.2667 4.73617 10.2707 4.83217 10.2787C4.92817 10.2866 4.99217 10.2906 5.02017 10.2906C5.78417 10.2906 6.38417 10.0756 6.82017 9.64569C7.26017 9.21974 7.48017 8.6226 7.48017 7.86225C7.48017 7.34076 7.30817 6.96257 6.96817 6.7277ZM5.86817 8.35588C5.82417 8.66639 5.70817 8.86942 5.52017 8.96496C5.33217 9.0605 5.06817 9.11225 4.72017 9.11225L4.28017 9.1242L4.50817 7.70302C4.52417 7.60748 4.58417 7.55572 4.68017 7.55572H4.93217C5.28817 7.55572 5.54417 7.60748 5.70417 7.707C5.86817 7.81448 5.92017 8.02547 5.86817 8.35588Z" fill="#003087"/>
<path d="M29.4834 6.37738H28.4954C28.3954 6.37738 28.3394 6.42515 28.3234 6.52467L27.4554 12.0462L27.4434 12.074C27.4434 12.1178 27.4594 12.1616 27.4954 12.2014C27.5314 12.2412 27.5754 12.2611 27.6274 12.2611H28.5074C28.6754 12.2611 28.7714 12.1775 28.7874 12.0103L29.6554 6.58041V6.56846C29.6554 6.43709 29.5994 6.37738 29.4834 6.37738Z" fill="#009CDE"/>
<path d="M17.5603 8.5151C17.5603 8.47132 17.5443 8.42753 17.5083 8.38772C17.4723 8.34791 17.4323 8.328 17.3883 8.328H16.3603C16.2643 8.328 16.1843 8.37179 16.1203 8.45937L14.7083 10.5294L14.1203 8.53899C14.0763 8.39568 13.9763 8.328 13.8283 8.328H12.8283C12.7843 8.328 12.7443 8.34791 12.7083 8.38772C12.6723 8.42753 12.6562 8.47132 12.6562 8.5151C12.6562 8.53103 12.7442 8.79377 12.9162 9.29934C13.0883 9.80491 13.2763 10.3463 13.4762 10.9315C13.6762 11.5167 13.7803 11.8272 13.7883 11.8591C13.0603 12.8503 12.6962 13.3798 12.6962 13.4514C12.6962 13.5669 12.7523 13.6226 12.8683 13.6226H13.8963C13.9922 13.6226 14.0723 13.5788 14.1363 13.4912L17.5363 8.60667C17.5522 8.59074 17.5603 8.55889 17.5603 8.5151Z" fill="#003087"/>
<path d="M27.1245 8.32801H26.1125C25.9885 8.32801 25.9125 8.4753 25.8845 8.76591C25.6525 8.41161 25.2325 8.23645 24.6165 8.23645C23.9765 8.23645 23.4325 8.4753 22.9845 8.95301C22.5365 9.43072 22.3125 9.99202 22.3125 10.6369C22.3125 11.1584 22.4645 11.5764 22.7725 11.8829C23.0805 12.1935 23.4885 12.3487 24.0045 12.3487C24.2605 12.3487 24.5245 12.297 24.7925 12.1895C25.0605 12.082 25.2685 11.9427 25.4205 11.7635C25.4205 11.7715 25.4125 11.8113 25.3925 11.8829C25.3765 11.9546 25.3645 12.0064 25.3645 12.0422C25.3645 12.1855 25.4205 12.2532 25.5365 12.2532H26.4565C26.6245 12.2532 26.7245 12.1696 26.7485 12.0024L27.2965 8.539C27.3045 8.48725 27.2925 8.43549 27.2565 8.3917C27.2205 8.3519 27.1765 8.32801 27.1245 8.32801ZM25.3845 10.9435C25.1565 11.1664 24.8845 11.2739 24.5645 11.2739C24.3085 11.2739 24.0965 11.2022 23.9365 11.0629C23.7765 10.9196 23.6965 10.7285 23.6965 10.4777C23.6965 10.1513 23.8085 9.8726 24.0285 9.64967C24.2525 9.42276 24.5245 9.31129 24.8565 9.31129C25.1045 9.31129 25.3125 9.38295 25.4765 9.53024C25.6405 9.67753 25.7245 9.87658 25.7245 10.1353C25.7245 10.4498 25.6085 10.7205 25.3845 10.9435Z" fill="#009CDE"/>
<path d="M11.9722 8.32801H10.9602C10.8362 8.32801 10.7602 8.4753 10.7322 8.76591C10.4922 8.41161 10.0682 8.23645 9.46416 8.23645C8.82416 8.23645 8.28016 8.4753 7.83216 8.95301C7.38416 9.43072 7.16016 9.99202 7.16016 10.6369C7.16016 11.1584 7.31216 11.5764 7.62016 11.8829C7.92816 12.1935 8.33616 12.3487 8.85216 12.3487C9.10016 12.3487 9.36016 12.297 9.62416 12.1895C9.89216 12.082 10.1042 11.9427 10.2642 11.7635C10.2282 11.871 10.2122 11.9626 10.2122 12.0422C10.2122 12.1855 10.2682 12.2532 10.3842 12.2532H11.3042C11.4722 12.2532 11.5722 12.1696 11.5962 12.0024L12.1442 8.539C12.1522 8.48725 12.1402 8.43549 12.1042 8.3917C12.0722 8.3519 12.0282 8.32801 11.9722 8.32801ZM10.2322 10.9474C10.0042 11.1664 9.72816 11.2739 9.40016 11.2739C9.14416 11.2739 8.93616 11.2022 8.78016 11.0629C8.62416 10.9196 8.54816 10.7285 8.54816 10.4777C8.54816 10.1513 8.66016 9.8726 8.88016 9.64967C9.10416 9.42276 9.37616 9.31129 9.70816 9.31129C9.95616 9.31129 10.1642 9.38295 10.3282 9.53024C10.4922 9.67753 10.5762 9.87658 10.5762 10.1353C10.5722 10.4618 10.4602 10.7325 10.2322 10.9474Z" fill="#003087"/>
<path d="M22.1165 6.7277C21.7725 6.49283 21.3285 6.37738 20.7765 6.37738H18.6565C18.4805 6.37738 18.3805 6.46098 18.3645 6.62818L17.4965 12.0422C17.4885 12.0939 17.5005 12.1457 17.5365 12.1895C17.5725 12.2333 17.6165 12.2572 17.6685 12.2572H18.7605C18.8685 12.2572 18.9365 12.2014 18.9725 12.086L19.2125 10.5454C19.2205 10.4737 19.2525 10.418 19.3045 10.3742C19.3565 10.3304 19.4245 10.3025 19.5045 10.2866C19.5845 10.2747 19.6605 10.2667 19.7325 10.2667C19.8045 10.2667 19.8885 10.2707 19.9845 10.2787C20.0805 10.2866 20.1445 10.2906 20.1725 10.2906C20.9365 10.2906 21.5365 10.0756 21.9725 9.64569C22.4085 9.21576 22.6245 8.6226 22.6245 7.86225C22.6285 7.34076 22.4565 6.96257 22.1165 6.7277ZM20.7485 8.91321C20.5525 9.04458 20.2605 9.11225 19.8685 9.11225L19.4405 9.1242L19.6685 7.70302C19.6845 7.60748 19.7445 7.55572 19.8405 7.55572H20.0805C20.2765 7.55572 20.4325 7.56369 20.5485 7.58359C20.6645 7.59951 20.7765 7.65525 20.8805 7.75079C20.9885 7.84235 21.0405 7.9777 21.0405 8.15684C21.0445 8.52706 20.9445 8.77786 20.7485 8.91321Z" fill="#009CDE"/>
</g>
<defs>
<clipPath id="clip0_73_359">
<rect width="32" height="20" fill="white"/>
</clipPath>
</defs>
</svg>
