<svg width="46" height="18" viewBox="0 0 46 18" fill="none" xmlns="http://www.w3.org/2000/svg">
<g clip-path="url(#clip0_199_177)">
<path d="M41.6581 17.9384H3.49711C1.56783 17.9384 0 16.3748 0 14.4462V3.48764C0 1.56358 1.56783 0 3.49711 0H41.6581C43.5919 0 45.1552 1.56358 45.1552 3.48764V14.4462C45.1552 16.3748 43.5873 17.9384 41.6581 17.9384Z" fill="url(#paint0_linear_199_177)"/>
<path d="M39.0781 5.69141L36.6654 14.8881L36.6564 14.9062H38.5405L40.9622 5.69141H39.0781Z" fill="#292929"/>
<path d="M9.19452 10.9227C8.94602 11.0534 8.60715 11.13 8.28636 11.13C7.60862 11.13 7.22457 11.0218 7.18391 10.4766V10.4405C7.18391 10.418 7.17939 10.3955 7.17939 10.373V8.78685L7.18391 8.5976V7.47561H7.17939V6.99797L7.18391 6.80872V5.72728L5.50313 5.94808C6.64172 5.72728 7.29234 4.83059 7.29234 3.9384V3.38867H5.40373V5.96159L5.29529 5.99314V10.7605C5.35854 12.0988 6.24412 12.8963 7.69447 12.8963C8.20955 12.8963 8.77432 12.7792 9.20807 12.5854L9.21711 12.5809V10.9092L9.19452 10.9227Z" fill="#292929"/>
<path d="M9.49275 5.34424L4.19287 6.15982V7.4981L9.49275 6.68252V5.34424Z" fill="#292929"/>
<path d="M9.49275 7.3042L4.19287 8.11978V9.39949L9.49275 8.5839V7.3042Z" fill="#292929"/>
<path d="M15.4342 7.92191C15.3574 6.43493 14.4266 5.55176 12.9085 5.55176C12.0365 5.55176 11.3136 5.88971 10.8256 6.52505C10.3376 7.1604 10.0801 8.09314 10.0801 9.22414C10.0801 10.3551 10.3376 11.2924 10.8256 11.9232C11.3136 12.5586 12.0365 12.8965 12.9085 12.8965C14.4266 12.8965 15.3619 12.0088 15.4342 10.5129V12.7568H17.3228V5.70496L15.4342 5.99335M15.5336 9.22414C15.5336 10.5444 14.8378 11.396 13.767 11.396C12.66 11.396 12.0003 10.585 12.0003 9.22414C12.0003 7.85883 12.66 7.03874 13.767 7.03874C14.3046 7.03874 14.7564 7.24601 15.0682 7.64254C15.3709 8.03456 15.5336 8.57978 15.5336 9.22414Z" fill="#292929"/>
<path d="M22.8306 5.55132C21.3079 5.55132 20.3772 6.43449 20.3049 7.92598V3.6543L18.4163 3.94268V12.7564H20.3049V10.5124C20.3772 12.0084 21.3124 12.8961 22.8306 12.8961C24.6108 12.8961 25.6725 11.5218 25.6725 9.2237C25.6725 6.92565 24.6108 5.55132 22.8306 5.55132ZM21.9721 11.3956C20.8968 11.3956 20.2055 10.544 20.2055 9.2237C20.2055 8.57935 20.3681 8.03412 20.6709 7.64661C20.9826 7.25008 21.4344 7.0428 21.9721 7.0428C23.0791 7.0428 23.7387 7.85839 23.7387 9.22821C23.7387 10.5845 23.0791 11.3956 21.9721 11.3956Z" fill="#292929"/>
<path d="M30.8098 5.55132C29.2872 5.55132 28.3564 6.43449 28.2841 7.92598V3.6543L26.3955 3.94268V12.7564H28.2841V10.5124C28.3564 12.0084 29.2917 12.8961 30.8098 12.8961C32.59 12.8961 33.6518 11.5218 33.6518 9.2237C33.6518 6.92565 32.59 5.55132 30.8098 5.55132ZM29.9559 11.3956C28.8805 11.3956 28.1892 10.544 28.1892 9.2237C28.1892 8.57935 28.3519 8.03412 28.6546 7.64661C28.9664 7.25008 29.4182 7.0428 29.9559 7.0428C31.0628 7.0428 31.7225 7.85839 31.7225 9.22821C31.7225 10.5845 31.0628 11.3956 29.9559 11.3956Z" fill="#292929"/>
<path d="M33.6562 5.69141H35.6714L37.3115 12.7478H35.5042L33.6562 5.69141Z" fill="#292929"/>
</g>
<defs>
<linearGradient id="paint0_linear_199_177" x1="0" y1="8.96848" x2="45.1556" y2="8.96848" gradientUnits="userSpaceOnUse">
<stop stop-color="#3BFF9D"/>
<stop offset="1" stop-color="#3BFFC8"/>
</linearGradient>
<clipPath id="clip0_199_177">
<rect width="45.1552" height="17.9384" fill="white"/>
</clipPath>
</defs>
</svg>
