<svg width="20" height="16" viewBox="0 0 60 18" fill="none" xmlns="http://www.w3.org/2000/svg">
<path d="M21 18L24.5122 0H30L26.5976 18H21Z" fill="#00579F"/>
<path d="M21 18L25.5 0H30L26.5976 18H21Z" fill="#00579F"/>
<path d="M45 0.757894C44.0196 0.378948 42.451 0 40.4902 0C35.5882 0 32.0587 2.36842 32.0587 5.77894C32.0587 8.33683 34.5097 9.66317 36.4705 10.5158C38.4313 11.3684 39.0196 11.9368 39.0196 12.6947C39.0196 13.8316 37.4509 14.4 36.0784 14.4C34.1176 14.4 33.0392 14.1158 31.3725 13.4526L30.6863 13.1684L30 17.0526C31.1765 17.5263 33.3333 18 35.5883 18C40.7843 18 44.2157 15.6317 44.2157 12.0316C44.2157 10.0421 42.9413 8.52631 40.0001 7.29474C38.2353 6.44211 37.1568 5.96843 37.1568 5.1158C37.1568 4.35789 38.0393 3.6 40.0001 3.6C41.6667 3.6 42.8431 3.8842 43.7254 4.26316L44.2157 4.45263L45 0.757894Z" fill="#00579F"/>
<path d="M45 0.757894C44.0196 0.378948 42.451 0 40.4902 0C35.5882 0 32.9412 2.36842 32.9412 5.77894C32.9412 8.33683 34.5097 9.66317 36.4705 10.5158C38.4313 11.3684 39.0196 11.9368 39.0196 12.6947C39.0196 13.8316 37.4509 14.4 36.0784 14.4C34.1176 14.4 33.0392 14.1158 31.3725 13.4526L30.6863 13.1684L30 17.0526C31.1765 17.5263 33.3333 18 35.5883 18C40.7843 18 44.2157 15.6317 44.2157 12.0316C44.2157 10.0421 42.9413 8.52631 40.0001 7.29474C38.2353 6.44211 37.1568 5.96843 37.1568 5.1158C37.1568 4.35789 38.0393 3.6 40.0001 3.6C41.6667 3.6 42.8431 3.8842 43.7254 4.26316L44.2157 4.45263L45 0.757894Z" fill="#00579F"/>
<path fill-rule="evenodd" clip-rule="evenodd" d="M49.4176 1.3C49.912 0.1 50.8022 0 51.989 0H55.8462L60 18H55.2528L54.6594 15H48.3297L47.3406 18H42L49.4176 1.3ZM51.689 6.69843C51.689 6.69843 50.0076 11.0984 49.7109 11.9984V12.0984H53.8649C53.667 11.0984 52.6779 6.59844 52.6779 6.59844L52.3812 4.89843C52.0845 5.59843 51.689 6.69843 51.689 6.69843Z" fill="#00579F"/>
<path fill-rule="evenodd" clip-rule="evenodd" d="M50.6045 1.3C51.0989 0.1 51.989 0 53.1758 0H55.8462L60 18H55.2528L54.6594 15H48.3297L47.3406 18H42L50.6045 1.3ZM51.689 6.69843C51.689 6.69843 50.1066 10.9984 49.7109 11.9984V12.0984H53.8649C53.667 11.0984 52.6779 6.59844 52.6779 6.59844L52.3812 4.89843C52.0845 5.59843 51.689 6.69843 51.689 6.69843Z" fill="#00579F"/>
<path d="M13.5 12.5L13 9.9C12.1 6.9 9.2 3.6 6 1.99999L10.5 18H15.9L24 0H18.6L13.5 12.5Z" fill="#00579F"/>
<path d="M13.5 12.5L13 9.9C12.1 6.9 9.2 3.6 6 1.99999L10.5 18H15.9L24 0H19.6L13.5 12.5Z" fill="#00579F"/>
<path d="M0 0L0.805969 0.18C6.53731 1.53 10.4776 4.95 12 9L10.3881 1.35C10.1194 0.27 9.31344 0 8.32836 0H0Z" fill="#FFBC00"/>
<path d="M0 0C5.73135 1.36364 10.4776 4.9091 12 9L10.4776 2.54545C10.209 1.45455 9.31344 0.818182 8.32836 0.818182L0 0Z" fill="#F7981D"/>
<path d="M0 0C5.73135 1.36364 10.4776 4.9091 12 9L10.9254 5.45454C10.6567 4.36364 10.2985 3.27273 9.04477 2.81819L0 0Z" fill="#ED7C00"/>
<path d="M17.8513 12.0694L14.6018 9.00176L13.0726 12.4303L12.6903 10.1747C11.8301 7.46793 9.05841 4.49049 6 3.04688L10.3009 17.483H15.462L17.8513 12.0694Z" fill="#00579F"/>
<path d="M26.7416 17.4816L22.6319 13.5117L21.8672 17.4816H26.7416Z" fill="#00579F"/>
<path d="M37.729 11.8945C38.1114 12.2554 38.3025 12.5261 38.2069 12.887C38.2069 13.9697 36.6778 14.5111 35.3397 14.5111C33.4282 14.5111 32.3769 14.2404 30.7521 13.6088L30.0831 13.3381L29.4141 17.0374C30.561 17.4885 32.6635 17.9397 34.8618 17.9397C37.9203 17.9397 40.4052 17.1276 41.8389 15.684L37.729 11.8945Z" fill="#00579F"/>
<path d="M43.2715 17.4796H47.7634L48.7192 14.7729H54.836L55.4095 17.4796H59.9971L58.3723 10.8932L52.6378 5.66016L52.9246 7.10376C52.9246 7.10376 53.8802 11.1639 54.0715 12.0662H50.0573C50.4395 11.1639 51.9688 7.28421 51.9688 7.28421C51.9688 7.28421 52.3511 6.29173 52.6378 5.66016" fill="#00579F"/>
</svg>
