<svg width="40" height="40" viewBox="0 0 40 40" fill="none" xmlns="http://www.w3.org/2000/svg">
<g clip-path="url(#clip0_1_251)">
<path fill-rule="evenodd" clip-rule="evenodd" d="M39.3814 16.1259H36.1801C35.7786 14.4221 35.1058 12.8052 34.1834 11.3185L36.4514 9.05046C36.5708 8.93109 36.6359 8.77916 36.6359 8.60553C36.6359 8.44276 36.5708 8.27998 36.4514 8.16061L31.8502 3.55941C31.6007 3.32067 31.21 3.32067 30.9712 3.55941L28.7032 5.82746C27.2056 4.90505 25.5996 4.24308 23.8958 3.83071V0.629409C23.8958 0.282149 23.6137 0 23.2664 0H16.7553C16.408 0 16.1259 0.282149 16.1259 0.629409V3.83071C14.4221 4.23223 12.8052 4.90505 11.3185 5.82746L9.03961 3.55941C8.79002 3.32067 8.39935 3.32067 8.16061 3.55941L3.55941 8.16061C3.30982 8.39935 3.30982 8.80087 3.55941 9.03961L5.82746 11.3077C4.90505 12.8052 4.23223 14.4221 3.83071 16.1259H0.629409C0.282149 16.1259 0 16.408 0 16.7553V23.2664C0 23.6137 0.282149 23.8958 0.629409 23.8958H3.83071C4.23223 25.5996 4.90505 27.2165 5.82746 28.7032L3.55941 30.9712C3.30982 31.2208 3.30982 31.6115 3.55941 31.8502L8.16061 36.4514C8.27998 36.5708 8.4319 36.6359 8.60553 36.6359C8.77916 36.6359 8.93109 36.5708 9.05046 36.4514L11.3185 34.1834C12.8161 35.1058 14.4221 35.7678 16.1259 36.1801V39.3814C16.1259 39.7287 16.408 40.0109 16.7553 40.0109H23.2664C23.6137 40.0109 23.8958 39.7287 23.8958 39.3814V36.1801C25.5996 35.7786 27.2165 35.1058 28.7032 34.1834L30.9712 36.4514C31.0906 36.5708 31.2425 36.6359 31.4162 36.6359C31.5789 36.6359 31.7417 36.5708 31.8611 36.4514L36.4623 31.8502C36.5817 31.7309 36.6468 31.5789 36.6468 31.4053C36.6468 31.2425 36.5817 31.0798 36.4623 30.9604L34.1834 28.6923C35.1058 27.1948 35.7678 25.5887 36.1801 23.885H39.3814C39.7287 23.885 40.0109 23.6028 40.0109 23.2556V16.7444C40 16.3972 39.7287 16.1259 39.3814 16.1259ZM38.752 22.637H35.681C35.6375 22.637 35.5941 22.637 35.5507 22.6479C35.5399 22.6479 35.5399 22.6479 35.529 22.6479C35.5182 22.6479 35.4965 22.6587 35.4856 22.6587C35.4748 22.6587 35.4639 22.6696 35.4531 22.6696C35.4422 22.6696 35.4314 22.6804 35.4205 22.6804C35.4097 22.6804 35.3988 22.6913 35.388 22.6913C35.3771 22.6913 35.3771 22.7021 35.3663 22.7021C35.3554 22.713 35.3445 22.713 35.3337 22.7238C35.3228 22.7238 35.3228 22.7347 35.312 22.7347C35.3011 22.7455 35.2903 22.7455 35.2903 22.7564C35.2794 22.7672 35.2794 22.7672 35.2686 22.7781C35.2577 22.7889 35.2577 22.7889 35.2469 22.7998C35.236 22.8106 35.236 22.8106 35.2252 22.8215C35.2143 22.8323 35.2143 22.8323 35.2035 22.8432C35.1926 22.854 35.1926 22.8649 35.1818 22.8649C35.1818 22.8757 35.1709 22.8757 35.1709 22.8866C35.1601 22.8974 35.1601 22.9083 35.1492 22.9192C35.1384 22.93 35.1384 22.9409 35.1384 22.9409C35.1384 22.9517 35.1275 22.9626 35.1275 22.9626C35.1167 22.9734 35.1167 22.9843 35.1058 23.006C35.1058 23.006 35.1058 23.0168 35.095 23.0168C35.0732 23.0602 35.0624 23.0928 35.0515 23.1362C34.6609 25.0353 33.923 26.815 32.8486 28.4428C32.8269 28.4753 32.8052 28.5079 32.7944 28.5513C32.7835 28.5838 32.7727 28.6272 32.7618 28.6598C32.7509 28.6924 32.7509 28.7358 32.7509 28.7792C32.7509 28.7792 32.7509 28.7792 32.7509 28.79C32.7509 28.8226 32.7509 28.866 32.7618 28.8985V28.9094C32.7727 28.9419 32.7835 28.9853 32.7944 29.0179V29.0288C32.8052 29.0613 32.8269 29.0939 32.8486 29.1264C32.8703 29.159 32.9029 29.1915 32.9246 29.2241L35.1058 31.4053L31.3836 35.1275L29.2024 32.9463C29.1698 32.9137 29.1373 32.892 29.1047 32.8703C29.0722 32.8486 29.0396 32.8269 28.9962 32.8161H28.9854C28.9528 32.8052 28.9094 32.7944 28.8768 32.7835C28.8768 32.7835 28.8768 32.7835 28.866 32.7835C28.8334 32.7727 28.79 32.7727 28.7575 32.7727C28.7141 32.7727 28.6815 32.7727 28.6381 32.7835C28.6055 32.7944 28.5621 32.8052 28.5296 32.8161C28.497 32.8269 28.4645 32.8486 28.4319 32.8703C26.815 33.9338 25.0244 34.6717 23.1362 35.0733C23.0928 35.0841 23.0494 35.095 23.0168 35.1167C23.0168 35.1167 23.006 35.1167 23.006 35.1275C22.9951 35.1384 22.9734 35.1384 22.9626 35.1492C22.9517 35.1492 22.9409 35.1601 22.9409 35.1601C22.93 35.1601 22.9192 35.1709 22.9192 35.1709C22.9083 35.1818 22.8974 35.1818 22.8866 35.1926C22.8757 35.1926 22.8757 35.2035 22.8649 35.2035C22.854 35.2143 22.8432 35.2143 22.8432 35.2252C22.8323 35.236 22.8323 35.236 22.8215 35.2469C22.8106 35.2577 22.8106 35.2577 22.7998 35.2686C22.7889 35.2794 22.7889 35.2794 22.7781 35.2903C22.7781 35.3011 22.7672 35.3011 22.7672 35.312C22.7564 35.3228 22.7564 35.3337 22.7455 35.3445L22.7347 35.3554C22.7238 35.3662 22.7238 35.3771 22.713 35.388C22.713 35.388 22.713 35.3988 22.7021 35.3988C22.6913 35.4097 22.6913 35.4314 22.6804 35.4422V35.4531C22.6696 35.4639 22.6696 35.4856 22.6696 35.4965C22.6696 35.5073 22.6696 35.5073 22.6587 35.5182C22.6587 35.529 22.6479 35.5399 22.6479 35.5507C22.6479 35.5616 22.6479 35.5724 22.637 35.5941C22.637 35.605 22.637 35.605 22.637 35.6158C22.637 35.6375 22.637 35.6592 22.637 35.681V38.7629H17.3738V35.6918C17.3738 35.6701 17.3738 35.6484 17.3738 35.6267C17.3738 35.605 17.3738 35.5833 17.363 35.5724C17.363 35.5616 17.363 35.5507 17.3521 35.5399C17.3521 35.529 17.3521 35.5182 17.3413 35.5073C17.3413 35.4965 17.3304 35.4856 17.3304 35.4639C17.3304 35.4531 17.3304 35.4531 17.3196 35.4422C17.3087 35.4314 17.3087 35.4097 17.2979 35.3988C17.2979 35.3988 17.2979 35.388 17.287 35.388C17.2762 35.3771 17.2762 35.3663 17.2653 35.3445C17.2653 35.3445 17.2653 35.3337 17.2545 35.3337C17.2436 35.3228 17.2436 35.312 17.2328 35.3011L17.2219 35.2903C17.2111 35.2794 17.2002 35.2686 17.2002 35.2577C17.2002 35.2469 17.1894 35.2469 17.1894 35.236C17.1785 35.2252 17.1677 35.2252 17.1677 35.2143C17.1568 35.2035 17.1568 35.2035 17.146 35.1926C17.1351 35.1818 17.1243 35.1818 17.1134 35.1709C17.1025 35.1709 17.1026 35.1601 17.0917 35.1601C17.0808 35.1492 17.07 35.1492 17.0591 35.1384L17.0483 35.1275C16.994 35.095 16.9289 35.0733 16.8638 35.0624C14.9647 34.6717 13.185 33.9338 11.5681 32.8703C11.5681 32.8703 11.5681 32.8703 11.5572 32.8703C11.5247 32.8486 11.4921 32.8378 11.4596 32.8161H11.4487C11.4162 32.8052 11.3728 32.7944 11.3402 32.7835C11.3402 32.7835 11.3402 32.7835 11.3294 32.7835C11.2968 32.7727 11.2534 32.7727 11.2208 32.7727H11.21C11.1774 32.7727 11.134 32.7727 11.1015 32.7835H11.0906C11.0581 32.7944 11.0146 32.8052 10.9821 32.8161H10.9712C10.9387 32.8269 10.9061 32.8486 10.8736 32.8703C10.841 32.892 10.8085 32.9246 10.7759 32.9463L8.59468 35.1275L4.88334 31.4053L7.05372 29.2349C7.08627 29.2024 7.11883 29.1698 7.14053 29.1373C7.16224 29.1047 7.18394 29.0722 7.19479 29.0288C7.19479 29.0288 7.19479 29.0288 7.19479 29.0179C7.20564 28.9853 7.21649 28.9419 7.22735 28.9094C7.22735 28.9094 7.22735 28.9094 7.22735 28.8985C7.2382 28.866 7.2382 28.8226 7.2382 28.79C7.2382 28.7466 7.2382 28.7141 7.22735 28.6706C7.21649 28.6381 7.20564 28.5947 7.19479 28.5621C7.18394 28.5296 7.16224 28.497 7.14053 28.4536C6.07705 26.8258 5.33912 25.0461 4.9376 23.147C4.9376 23.1253 4.92675 23.1036 4.92675 23.0819C4.92675 23.0711 4.92675 23.0711 4.9159 23.0602C4.9159 23.0494 4.90505 23.0385 4.90505 23.0277C4.90505 23.0168 4.89419 23.006 4.88334 22.9951C4.88334 22.9843 4.87249 22.9843 4.87249 22.9734C4.86164 22.9626 4.86164 22.9517 4.85079 22.93C4.85079 22.93 4.85079 22.9192 4.83993 22.9192C4.82908 22.9083 4.81823 22.8974 4.81823 22.8866L4.80738 22.8757C4.79653 22.8649 4.78568 22.854 4.77482 22.8432L4.76397 22.8323C4.75312 22.8215 4.74227 22.8215 4.74227 22.8106C4.73142 22.7998 4.73142 22.7998 4.72056 22.7889C4.70971 22.7781 4.70971 22.7781 4.69886 22.7672C4.68801 22.7564 4.67716 22.7564 4.67716 22.7455C4.6663 22.7455 4.66631 22.7347 4.65545 22.7347C4.6446 22.7238 4.63375 22.7238 4.6229 22.713C4.61205 22.713 4.61205 22.7021 4.60119 22.7021C4.59034 22.6913 4.57949 22.6913 4.56864 22.6804C4.55779 22.6804 4.55779 22.6804 4.54693 22.6696C4.53608 22.6696 4.52523 22.6587 4.51438 22.6587C4.50353 22.6587 4.49267 22.6587 4.48182 22.6479C4.47097 22.6479 4.46012 22.6479 4.44927 22.637C4.42756 22.637 4.41671 22.6262 4.39501 22.6262H4.38416C4.36245 22.6262 4.34075 22.6262 4.31904 22.6262H1.24797V17.363H4.3299C4.36245 17.363 4.39501 17.363 4.42756 17.3521C4.43842 17.3521 4.43842 17.3521 4.44927 17.3521C4.48182 17.3413 4.51438 17.3413 4.53608 17.3304H4.54693C4.57949 17.3196 4.60119 17.3087 4.63375 17.287C4.63375 17.287 4.63375 17.287 4.6446 17.287C4.67716 17.2762 4.69886 17.2545 4.72056 17.2328C4.72056 17.2328 4.72056 17.2328 4.73142 17.2328C4.75312 17.2111 4.77482 17.1894 4.79653 17.1677L4.80738 17.1568C4.82908 17.1351 4.83993 17.1134 4.86164 17.0808L4.87249 17.07C4.88334 17.0483 4.90505 17.0157 4.9159 16.9832V16.9723C4.92675 16.9398 4.9376 16.9072 4.94845 16.8747C5.33912 14.9756 6.07705 13.1959 7.15138 11.5681C7.15138 11.5681 7.15138 11.5681 7.15138 11.5572C7.17309 11.5247 7.18394 11.4921 7.20564 11.4596V11.4487C7.2165 11.4162 7.22735 11.3728 7.2382 11.3402V11.3294C7.24905 11.2968 7.24905 11.2534 7.24905 11.2208V11.21C7.24905 11.1774 7.24905 11.134 7.2382 11.1015V11.0906C7.22735 11.0581 7.2165 11.0255 7.20564 10.9929V10.9821C7.19479 10.9495 7.17309 10.917 7.15138 10.8844C7.15138 10.8844 7.15138 10.8844 7.15138 10.8736C7.12968 10.841 7.10798 10.8085 7.07542 10.7759L4.88334 8.60553L8.60553 4.88334L10.7868 7.06457C10.7868 7.06457 10.7868 7.06457 10.7976 7.07542C10.8193 7.09712 10.8519 7.12968 10.8844 7.14053L10.8953 7.15138C10.9278 7.17309 10.9495 7.18394 10.9821 7.19479C10.9929 7.19479 10.9929 7.20564 11.0038 7.20564C11.0364 7.2165 11.0689 7.22735 11.1015 7.2382C11.1123 7.2382 11.1232 7.2382 11.1232 7.2382C11.1557 7.24905 11.1883 7.24905 11.2317 7.24905C11.2642 7.24905 11.3077 7.24905 11.3402 7.2382C11.3511 7.2382 11.3619 7.2382 11.3728 7.22735C11.3945 7.21649 11.427 7.2165 11.4487 7.20564C11.4596 7.20564 11.4704 7.19479 11.4813 7.19479C11.5138 7.18394 11.5464 7.16224 11.5789 7.14053C11.5789 7.14053 11.5789 7.14053 11.5898 7.14053C13.2067 6.07705 14.9973 5.33912 16.8964 4.9376C16.9398 4.92675 16.9832 4.9159 17.0157 4.89419C17.0266 4.89419 17.0374 4.88334 17.0374 4.88334C17.0483 4.88334 17.0591 4.87249 17.07 4.87249C17.0808 4.86164 17.0917 4.86164 17.1026 4.85079L17.1134 4.83993C17.1243 4.82908 17.1351 4.81823 17.146 4.81823L17.1568 4.80738C17.1677 4.79653 17.1785 4.78568 17.1894 4.77482L17.2002 4.76397C17.2111 4.75312 17.2219 4.74227 17.2219 4.73142L17.2328 4.72056C17.2436 4.70971 17.2436 4.69886 17.2545 4.68801C17.2545 4.67716 17.2653 4.67716 17.2653 4.6663C17.2762 4.65545 17.2762 4.6446 17.287 4.63375C17.287 4.6229 17.2979 4.6229 17.2979 4.61205C17.2979 4.60119 17.3087 4.59034 17.3087 4.57949C17.3087 4.56864 17.3196 4.55779 17.3196 4.55779C17.3196 4.54693 17.3304 4.53608 17.3304 4.52523C17.3304 4.51438 17.3304 4.51438 17.3413 4.50353C17.3413 4.48182 17.3521 4.47097 17.3521 4.44927C17.3521 4.44927 17.3521 4.44927 17.3521 4.43842C17.363 4.39501 17.363 4.3516 17.363 4.30819V1.24797H22.6262V4.3299C22.6262 4.3516 22.6262 4.3733 22.6262 4.39501C22.6262 4.40586 22.6262 4.40586 22.6262 4.41671C22.6262 4.42756 22.6262 4.43842 22.637 4.46012C22.637 4.47097 22.6479 4.48182 22.6479 4.49268C22.6479 4.50353 22.6479 4.50353 22.6479 4.51438C22.6479 4.52523 22.6587 4.54693 22.6587 4.55779V4.56864C22.6696 4.57949 22.6696 4.60119 22.6804 4.61205C22.6804 4.61205 22.6804 4.6229 22.6913 4.6229C22.7021 4.63375 22.7021 4.6446 22.713 4.65545L22.7238 4.6663C22.7347 4.67716 22.7347 4.68801 22.7455 4.69886C22.7455 4.70971 22.7564 4.70971 22.7564 4.72056C22.7672 4.73142 22.7672 4.73142 22.7781 4.74227C22.7889 4.75312 22.7889 4.75312 22.7998 4.76397C22.8106 4.77482 22.8106 4.77482 22.8215 4.78568C22.8323 4.79653 22.8323 4.79653 22.8432 4.80738C22.854 4.80738 22.854 4.81823 22.8649 4.81823C22.8757 4.82908 22.8866 4.82908 22.8974 4.83993C22.9083 4.83993 22.9083 4.85079 22.9192 4.85079C22.93 4.86164 22.9409 4.86164 22.9517 4.87249C22.9626 4.88334 22.9734 4.88334 22.9843 4.89419C22.9951 4.89419 22.9951 4.90505 23.006 4.90505C23.0494 4.92675 23.0819 4.9376 23.1253 4.9376C25.0244 5.32827 26.8041 6.0662 28.4319 7.14053C28.4319 7.14053 28.4319 7.14053 28.4428 7.14053C28.4753 7.16224 28.5079 7.17309 28.5296 7.18394C28.5404 7.18394 28.5513 7.19479 28.5621 7.19479C28.5838 7.20564 28.6164 7.21649 28.6381 7.21649C28.6489 7.21649 28.6598 7.21649 28.6706 7.22735C28.7032 7.2382 28.7466 7.2382 28.7792 7.2382C28.8117 7.2382 28.8443 7.2382 28.8877 7.22735C28.8985 7.22735 28.9094 7.22735 28.9094 7.22735C28.9419 7.21649 28.9745 7.20564 29.0071 7.19479C29.0179 7.19479 29.0179 7.19479 29.0288 7.18394C29.0613 7.17309 29.083 7.15138 29.1156 7.14053L29.1264 7.12968C29.159 7.10798 29.1807 7.08627 29.2132 7.06457C29.2132 7.06457 29.2241 7.06457 29.2241 7.05372L31.4053 4.88334L35.1275 8.60553L32.9463 10.7868C32.9137 10.8193 32.892 10.8519 32.8703 10.8844C32.8486 10.917 32.8269 10.9495 32.8161 10.9929V11.0038C32.8052 11.0364 32.7944 11.0798 32.7835 11.1123V11.1232C32.7727 11.1557 32.7727 11.1991 32.7727 11.2317C32.7727 11.2751 32.7727 11.3077 32.7835 11.3511C32.7944 11.3836 32.8052 11.427 32.8161 11.4596C32.8269 11.4921 32.8486 11.5355 32.8703 11.5681C33.9338 13.185 34.6717 14.9756 35.0733 16.8747C35.0841 16.9072 35.095 16.9506 35.1058 16.9832C35.1058 16.9832 35.1058 16.9832 35.1058 16.994C35.1167 17.0266 35.1275 17.0483 35.1492 17.0808L35.1601 17.0917C35.1818 17.1134 35.1926 17.146 35.2143 17.1677L35.2252 17.1785C35.2469 17.2002 35.2686 17.2219 35.2903 17.2436C35.2903 17.2436 35.2903 17.2436 35.3011 17.2436C35.3228 17.2653 35.3554 17.2762 35.3771 17.2979C35.4097 17.3087 35.4314 17.3304 35.4639 17.3413H35.4748C35.5073 17.3521 35.529 17.363 35.5616 17.363C35.5724 17.363 35.5724 17.363 35.5833 17.363C35.6158 17.363 35.6484 17.3738 35.681 17.3738H38.7629V22.637H38.752Z" fill="white"/>
<path fill-rule="evenodd" clip-rule="evenodd" d="M27.694 12.3059C26.6956 11.3076 25.5345 10.5262 24.2322 9.97278C22.8866 9.40848 21.465 9.11548 20 9.11548C18.535 9.11548 17.1025 9.40848 15.7678 9.97278C14.4764 10.5262 13.3044 11.3076 12.306 12.3059C11.3076 13.3043 10.5263 14.4655 9.97287 15.7677C9.40857 17.1133 9.11557 18.5349 9.11557 19.9999C9.11557 21.4649 9.40857 22.8974 9.97287 24.2321C10.5263 25.5235 11.3076 26.6955 12.306 27.6939C13.3044 28.6923 14.4655 29.4736 15.7678 30.027C17.1134 30.5913 18.535 30.8843 20 30.8843C21.465 30.8843 22.8974 30.5913 24.2322 30.027C25.5236 29.4736 26.6956 28.6923 27.694 27.6939C28.6923 26.6955 29.4737 25.5344 30.0271 24.2321C30.5914 22.8865 30.8844 21.4649 30.8844 19.9999C30.8844 18.5349 30.5914 17.1025 30.0271 15.7677C29.4845 14.4655 28.6923 13.3043 27.694 12.3059ZM20 29.6364C14.6934 29.6364 10.3635 25.3173 10.3635 19.9999C10.3635 14.6825 14.6826 10.3634 20 10.3634C25.3174 10.3634 29.6365 14.6825 29.6365 19.9999C29.6365 25.3173 25.3174 29.6364 20 29.6364Z" fill="white"/>
<path fill-rule="evenodd" clip-rule="evenodd" d="M24.3082 16.6143L18.4265 22.496L15.7027 19.7722C15.4531 19.5334 15.0624 19.5334 14.8237 19.7722C14.5741 20.0218 14.5741 20.4124 14.8237 20.6512L17.9815 23.8091C18.1009 23.9284 18.2637 23.9935 18.4265 23.9935C18.5893 23.9935 18.7412 23.9284 18.8714 23.8091L25.198 17.4824C25.4368 17.2437 25.4368 16.8422 25.198 16.6034C24.9484 16.3755 24.5469 16.3755 24.3082 16.6143Z" fill="white"/>
</g>
<defs>
<clipPath id="clip0_1_251">
<rect width="40" height="40" fill="white"/>
</clipPath>
</defs>
</svg>
