<svg width="12" height="15" viewBox="0 0 12 15" fill="none" xmlns="http://www.w3.org/2000/svg">
<g clip-path="url(#clip0_260_443)">
<path d="M0.664062 8.60919C0.664062 7.35492 0.664062 6.09639 0.664062 4.84212C0.664062 4.44537 0.876932 4.17233 1.22337 4.10834C1.60737 4.04008 1.9705 4.32591 1.99554 4.72694C1.99971 4.78666 1.99971 4.84212 1.99971 4.90185C1.99971 7.35492 1.99971 9.80799 1.99971 12.2653C1.99971 13.0802 2.54232 13.6348 3.34371 13.6348C5.11345 13.6348 6.88319 13.6348 8.65293 13.6348C9.45432 13.6348 9.99693 13.0802 9.99693 12.2653C9.99693 9.79093 9.99693 7.31653 9.99693 4.83786C9.99693 4.4539 10.1973 4.18086 10.527 4.1126C10.9027 4.03154 11.2533 4.27898 11.3201 4.66721C11.3326 4.73974 11.3326 4.81653 11.3368 4.88905C11.3368 7.35492 11.3368 9.81653 11.3368 12.2824C11.3368 13.6348 10.4519 14.7184 9.1538 14.9616C8.99937 14.9914 8.84493 15 8.68632 15C6.89571 15.0042 5.10511 15.0042 3.3145 15C1.82441 15 0.668236 13.8182 0.668236 12.2995C0.664063 11.0665 0.664062 9.83786 0.664062 8.60919Z" fill="#3D4A26"/>
<path d="M8.66509 2.04775C8.84039 2.04775 8.99065 2.04775 9.14091 2.04775C9.85882 2.04775 10.5767 2.04349 11.2947 2.04775C11.783 2.05202 12.1044 2.47437 11.9708 2.92659C11.8915 3.19536 11.662 3.38734 11.3907 3.40867C11.3531 3.41294 11.3197 3.41294 11.2821 3.41294C7.76352 3.41294 4.24491 3.41294 0.726304 3.41294C0.296391 3.41294 -0.00413097 3.12284 4.29392e-05 2.72181C0.00421685 2.33359 0.300565 2.04775 0.717956 2.04775C1.51935 2.04349 2.32074 2.04775 3.12213 2.04775C3.18474 2.04775 3.24735 2.04775 3.335 2.04775C3.335 1.97949 3.335 1.92403 3.335 1.86857C3.335 1.48461 3.33083 1.10065 3.335 0.720961C3.33917 0.290073 3.61048 0.00423726 4.03204 0.00423726C5.34265 -2.89552e-05 6.65326 -2.89552e-05 7.96804 0.00423726C8.38961 0.00423726 8.66091 0.290073 8.66509 0.716695C8.66509 1.15185 8.66509 1.587 8.66509 2.04775ZM4.67483 2.03069C5.56387 2.03069 6.44456 2.03069 7.32526 2.03069C7.32526 1.80031 7.32526 1.587 7.32526 1.37369C6.43622 1.37369 5.55969 1.37369 4.67483 1.37369C4.67483 1.5998 4.67483 1.81311 4.67483 2.03069Z" fill="#3D4A26"/>
<path d="M3.99831 8.5068C3.99831 7.71329 3.99414 6.91977 3.99831 6.13052C3.99831 5.79776 4.22788 5.52899 4.5451 5.46926C4.8331 5.4138 5.14614 5.57165 5.26301 5.85749C5.30475 5.96414 5.32979 6.0836 5.32979 6.19878C5.33397 7.75169 5.33397 9.30459 5.32979 10.8575C5.32979 11.2926 5.04179 11.5955 4.65362 11.5913C4.26962 11.587 3.99414 11.2798 3.99414 10.8532C3.99831 10.0682 3.99831 9.28752 3.99831 8.5068Z" fill="#3D4A26"/>
<path d="M7.99685 8.52814C7.99685 9.32165 7.99685 10.1152 7.99685 10.9044C7.99685 11.2244 7.80068 11.4804 7.50433 11.5614C7.2205 11.6425 6.90746 11.523 6.76555 11.2585C6.70294 11.1433 6.66537 10.9983 6.66537 10.866C6.65703 9.30032 6.6612 7.73889 6.6612 6.17319C6.6612 5.75083 6.95337 5.4522 7.34155 5.45647C7.7172 5.46073 7.99685 5.76363 7.99685 6.18172C8.00103 6.96244 7.99685 7.74316 7.99685 8.52814Z" fill="#3D4A26"/>
</g>
<defs>
<clipPath id="clip0_260_443">
<rect width="12" height="15" fill="white"/>
</clipPath>
</defs>
</svg>
