<svg width="15" height="15" viewBox="0 0 15 15" fill="none" xmlns="http://www.w3.org/2000/svg">
<g clip-path="url(#clip0_65_112)">
<path d="M15 7.05614C15 7.34636 15 7.64226 15 7.93247C14.9886 7.98369 14.9829 8.0349 14.9715 8.08611C14.926 8.41047 14.8975 8.73483 14.8292 9.05349C14.4364 10.8517 13.5142 12.3312 12.0455 13.4408C10.2182 14.8236 8.16319 15.2788 5.92599 14.8122C4.13283 14.4366 2.67552 13.4977 1.55977 12.0467C0.35294 10.4932 -0.148009 8.70637 0.0398467 6.74886C0.193547 5.15554 0.808348 3.75569 1.86717 2.55501C3.02846 1.24052 4.47438 0.426783 6.20493 0.119499C6.48956 0.0682853 6.77419 0.0398331 7.05882 0C7.34914 0 7.64516 0 7.93548 0C7.97533 0.00569044 8.00949 0.0227618 8.04933 0.0227618C9.22201 0.108118 10.3207 0.438164 11.3226 1.05273C13.2638 2.24203 14.4592 3.96055 14.8805 6.20258C14.9374 6.4871 14.9601 6.77162 15 7.05614ZM7.50284 1.36571C4.13852 1.35432 1.38899 4.09712 1.36622 7.48293C1.34345 10.846 4.11005 13.6172 7.49715 13.6286C10.8672 13.64 13.6167 10.8972 13.6395 7.50569C13.6565 4.14833 10.8899 1.3714 7.50284 1.36571Z" fill="black"/>
<path d="M8.1745 9.08763C8.1745 9.78187 8.18588 10.4704 8.1688 11.1646C8.16311 11.6256 7.69063 11.9329 7.26368 11.7678C7.00182 11.6711 6.84812 11.4719 6.81966 11.1874C6.81397 11.1476 6.81396 11.1077 6.81396 11.0679C6.81396 9.74772 6.81396 8.42185 6.81396 7.10167C6.81396 6.71472 7.0189 6.44158 7.36045 6.37329C7.77032 6.29363 8.15173 6.58384 8.1688 7.00493C8.18019 7.31221 8.1745 7.6195 8.1745 7.92678C8.18019 8.31942 8.18019 8.70068 8.1745 9.08763Z" fill="black"/>
<path d="M7.49698 3.18665C7.99793 3.18665 8.41349 3.59636 8.40779 4.09712C8.40779 4.59218 7.99793 4.99621 7.50267 5.0019C7.00741 5.00759 6.58616 4.58649 6.59185 4.09143C6.59185 3.59067 6.99603 3.18665 7.49698 3.18665Z" fill="black"/>
</g>
<defs>
<clipPath id="clip0_65_112">
<rect width="15" height="15" fill="white"/>
</clipPath>
</defs>
</svg>
