<svg width="20" height="20" viewBox="0 0 20 20" fill="none" xmlns="http://www.w3.org/2000/svg">
<path d="M9.41783 0C9.80942 0 10.201 0 10.5926 0C10.9255 0.0440798 11.2632 0.0734663 11.5961 0.127342C13.6813 0.47998 15.4924 1.38117 16.9854 2.87009C19.2321 5.11326 20.2405 7.83641 19.9517 11.0053C19.7755 12.9595 19.0559 14.7227 17.8028 16.2361C15.5218 18.9886 12.5848 20.2522 9.01644 19.9584C7.36685 19.8212 5.84453 19.258 4.47396 18.3225C2.12929 16.716 0.670604 14.5169 0.151743 11.7056C0.0881086 11.3481 0.0489492 10.971 0 10.5987C0 10.2069 0 9.8151 0 9.42328C0.0146848 9.28615 0.0342644 9.15391 0.0489492 9.01677C0.225166 7.36623 0.753818 5.84302 1.68875 4.47165C3.29428 2.12563 5.4921 0.666095 8.30178 0.146933C8.6689 0.0881596 9.04581 0.0489776 9.41783 0ZM11.18 11.7889C11.18 11.6273 11.18 11.4607 11.18 11.2991C11.18 10.491 11.1849 9.68286 11.18 8.87473C11.1702 8.01763 10.3968 7.46418 9.60873 7.73845C9.12903 7.90498 8.84023 8.34578 8.84023 8.91392C8.84023 10.1775 8.84023 11.4412 8.84023 12.7048C8.84023 13.3562 8.83533 14.0076 8.84023 14.659C8.84512 15.1928 9.14371 15.6336 9.60873 15.7953C10.4017 16.0744 11.1751 15.521 11.18 14.659C11.1849 13.7088 11.18 12.7489 11.18 11.7889ZM11.1751 5.30917C11.1702 4.66756 10.6318 4.1386 9.99543 4.1484C9.35419 4.1533 8.82554 4.69205 8.83533 5.32876C8.84023 5.97037 9.37867 6.49932 10.015 6.48953C10.6513 6.48463 11.18 5.94588 11.1751 5.30917Z" fill="#F7981D"/>
</svg>
