<svg width="25" height="25" viewBox="0 0 25 25" fill="none" xmlns="http://www.w3.org/2000/svg">
<circle cx="12.5" cy="12.5" r="12.5" fill="white"/>
<path d="M11.8211 13.9801C10.5474 13.9801 9.29644 13.9801 8 13.9801C10.0622 10.9683 12.1054 7.98597 14.1486 5C14.16 5.00369 14.1676 5.00369 14.1789 5.00738C14.1789 7.00787 14.1789 9.00837 14.1789 11.0199C15.4526 11.0199 16.7036 11.0199 18 11.0199C15.9378 14.0317 13.8946 17.014 11.8514 20C11.84 19.9963 11.8324 19.9963 11.8211 19.9926C11.8211 17.9921 11.8211 15.9916 11.8211 13.9801ZM13.163 12.0054C13.163 10.7431 13.163 9.50295 13.163 8.2628C13.1554 8.2591 13.144 8.2591 13.1365 8.25541C12.0599 9.82776 10.9833 11.3964 9.89158 12.9983C10.8923 12.9983 11.8552 12.9983 12.837 12.9983C12.837 14.2532 12.837 15.4934 12.837 16.7335C12.8484 16.7335 12.856 16.7372 12.8673 16.7372C13.9401 15.1686 15.0167 13.5999 16.1084 12.0054C15.1114 12.0054 14.1524 12.0054 13.163 12.0054Z" fill="black"/>
</svg>
