<svg width="35" height="35" viewBox="0 0 35 35" fill="none" xmlns="http://www.w3.org/2000/svg">
<path d="M0 18.5319C0 17.8468 0 17.1617 0 16.4766C0.0171191 16.3567 0.0427978 16.2368 0.0599169 16.117C0.145512 15.4832 0.18831 14.8495 0.308144 14.2244C0.967229 10.7389 2.55931 7.72449 5.05013 5.20675C7.66936 2.56912 10.8107 0.899193 14.4828 0.265476C15.1418 0.154147 15.8095 0.0856374 16.4771 0C17.1619 0 17.8467 0 18.5314 0C18.6341 0.0171275 18.7283 0.0428187 18.831 0.0599462C19.7726 0.20553 20.7398 0.291167 21.6813 0.513824C30.6603 2.66332 36.4466 11.6895 34.6919 20.7756C33.9643 24.5522 32.201 27.7722 29.3593 30.3585C25.3106 34.0494 20.5172 35.5224 15.0905 34.8287C11.6324 34.392 8.59379 32.9704 5.98313 30.6667C2.91025 27.952 0.984348 24.5694 0.273906 20.5187C0.154072 19.8593 0.0855955 19.1913 0 18.5319ZM13.3443 19.217C9.35559 16.3396 9.35559 11.2356 11.9063 8.33252C14.6112 5.24957 19.2076 4.87277 22.2377 7.48471C23.7271 8.76927 24.6258 10.3793 24.8056 12.3403C25.0709 15.2006 23.9496 17.47 21.6557 19.2085C25.5331 20.7842 28.024 23.5588 29.1624 27.5667C34.1697 21.966 34.6405 12.2547 27.8613 6.08025C21.1335 -0.0513823 10.7936 0.890629 5.22133 8.16124C-0.0256786 15.0037 1.98582 23.4989 5.83761 27.5324C6.96747 23.5417 9.47542 20.7842 13.3443 19.217ZM17.7782 32.9618C18.1462 32.9276 18.8053 32.9019 19.4559 32.8162C22.0751 32.4908 24.4461 31.5403 26.5688 29.9817C27.4676 29.3222 27.459 29.3051 27.1851 28.209C25.9354 23.0621 21.0137 19.8165 15.8095 20.6986C11.564 21.4179 8.20861 24.8777 7.62656 29.1595C7.60944 29.2623 7.68648 29.4164 7.76351 29.485C10.6053 31.7629 13.8494 32.9104 17.7782 32.9618ZM17.4786 18.4206C20.3888 18.4377 22.7684 16.0827 22.8112 13.1453C22.854 10.2508 20.4659 7.82726 17.5471 7.793C14.6283 7.75875 12.223 10.1223 12.1802 13.0768C12.1374 15.9885 14.5341 18.4035 17.4786 18.4206Z" fill="black"/>
</svg>
