<svg width="20" height="20" viewBox="0 0 20 20" fill="none" xmlns="http://www.w3.org/2000/svg">
<path d="M10.5913 20C10.2 20 9.80873 20 9.41743 20C9.36525 19.9896 9.3183 19.9687 9.26612 19.9687C8.10786 19.8904 6.98611 19.6293 5.93741 19.1385C2.76001 17.6453 0.824351 15.1757 0.156522 11.7245C0.0834786 11.3486 0.0521741 10.9675 0 10.5863C0 10.1948 0 9.80317 0 9.41159C0.0104348 9.34894 0.0260871 9.28628 0.0365219 9.22363C0.109566 8.72762 0.151305 8.2264 0.266088 7.74084C1.45566 2.72857 6.0522 -0.508518 11.1653 0.0658045C13.4087 0.316418 15.3653 1.21967 16.9618 2.81211C19.5653 5.41744 20.4888 8.56577 19.7583 12.1683C18.9653 16.0633 15.6627 19.2012 11.7444 19.8381C11.3635 19.906 10.9774 19.9478 10.5913 20ZM13.4609 7.74084C13.4505 6.72794 13.1322 6.0753 12.527 5.56363C11.2174 4.45676 8.90612 4.48808 7.57568 5.63151C6.97046 6.15362 6.58437 6.80104 6.55829 7.62075C6.54785 8.01755 6.84524 8.38303 7.24177 8.48745C7.63829 8.59188 8.01916 8.43002 8.22264 8.06977C8.28525 7.9549 8.32177 7.82959 8.37395 7.70951C8.52003 7.40668 8.65047 7.09342 8.81742 6.80104C8.96351 6.5452 9.1983 6.37813 9.49047 6.29981C9.85047 6.20061 10.2105 6.18494 10.5705 6.28415C11.4679 6.52954 11.8853 7.54765 11.2487 8.29949C11.0922 8.48745 10.9044 8.65453 10.727 8.82683C10.3879 9.15053 10.0331 9.45858 9.70438 9.78751C9.1983 10.294 8.97917 10.9205 8.99482 11.6306C9.00525 11.9908 9.13047 12.2936 9.48525 12.4503C10.0122 12.6852 10.5548 12.4346 10.6592 11.8446C10.774 11.1868 11.0974 10.696 11.5983 10.2783C11.9479 9.98591 12.2818 9.67265 12.6053 9.35416C13.1166 8.86337 13.4766 8.28383 13.4609 7.74084ZM10.9513 14.2046C10.9566 13.6146 10.5287 13.1603 9.95482 13.1551C9.3496 13.1447 8.87482 13.5833 8.87482 14.168C8.8696 14.7737 9.29743 15.2175 9.90786 15.2279C10.4922 15.2383 10.9409 14.7998 10.9513 14.2046Z" fill="#3D4A26"/>
</svg>
