<svg width="38" height="45" viewBox="0 0 38 45" fill="none" xmlns="http://www.w3.org/2000/svg">
<g clip-path="url(#clip0_199_136)">
<path d="M1.7209 36.0448C1.7209 35.717 1.7209 35.4754 1.7209 35.2166C1.7209 29.35 1.7209 23.4662 1.7209 17.5997C1.7209 16.0985 2.27717 14.9079 3.73737 14.2868C4.2241 14.0797 4.78037 14.028 5.31926 14.0107C6.36226 13.9762 7.40526 13.9934 8.44826 14.0107C8.79592 14.0107 8.95238 13.9244 8.98714 13.5448C9.10883 12.2162 9.26528 10.8876 9.36958 9.55902C9.50864 7.85081 10.5343 6.8673 12.2726 6.83279C12.6724 6.83279 13.0896 6.83279 13.5242 6.83279C13.559 6.09084 13.559 5.43517 13.6285 4.77949C13.9066 2.0015 16.3403 -0.0690515 19.2086 -3.31259e-05C21.9725 0.0689853 24.3019 2.29483 24.4583 5.02106C24.4931 5.59046 24.4583 6.17711 24.4583 6.83279C25.032 6.83279 25.5013 6.81553 25.9707 6.83279C27.4135 6.88455 28.4043 7.69552 28.6129 9.1104C28.8389 10.6978 28.978 12.3025 29.1692 13.9762C29.3952 13.9935 29.6386 14.0107 29.8645 14.0107C30.9771 14.0107 32.0722 13.9934 33.1848 14.0107C35.2012 14.0625 36.5397 15.4083 36.5571 17.4271C36.5571 23.3454 36.5571 29.2638 36.5571 35.1821C36.5571 35.4409 36.5571 35.6997 36.5571 35.9068C36.6441 35.9586 36.6788 36.0103 36.7136 36.0103C38.0173 36.1311 38.0173 36.1311 38.0173 37.4252C38.0173 38.4087 38.0347 39.4095 38.0173 40.393C37.9652 42.8777 35.9835 44.9137 33.4629 44.9655C30.7337 45.0172 28.0045 44.9827 25.2753 44.9827C18.548 44.9827 11.838 44.9827 5.11065 44.9827C2.78129 44.9827 1.04295 43.8612 0.347617 41.8596C0.121634 41.2212 0.0694839 40.5138 0.0347172 39.8408C-0.0174329 38.9781 0.0173338 38.1154 0.0173338 37.2527C0.0173338 36.2346 0.208551 36.0448 1.21678 36.0448C1.33847 36.0448 1.47754 36.0448 1.7209 36.0448ZM35.1491 36.0276C35.1491 35.6652 35.1491 35.4064 35.1491 35.1476C35.1491 29.3673 35.1491 23.5698 35.1491 17.7895C35.1491 17.5479 35.1491 17.3236 35.1317 17.082C35.0622 16.2365 34.4537 15.4601 33.602 15.4083C32.2113 15.3393 30.8032 15.3911 29.3083 15.3911C29.4126 16.4091 29.5343 17.3581 29.6212 18.3244C29.8819 20.8435 30.1253 23.3627 30.4034 25.8819C30.6468 27.9869 29.569 29.3846 27.5526 29.3846C21.8508 29.4018 16.1491 29.3846 10.4473 29.4018C8.83069 29.4018 7.44002 28.2112 7.61386 26.434C7.87461 23.9148 8.13536 21.3957 8.37873 18.8765C8.50041 17.7377 8.60471 16.5816 8.70901 15.4601C8.60471 15.4083 8.56994 15.3911 8.51779 15.3911C7.44002 15.3911 6.34487 15.3738 5.26711 15.3738C3.8069 15.3738 3.09419 16.0985 3.09419 17.5652C3.09419 23.5007 3.09419 29.4363 3.09419 35.3719C3.09419 35.579 3.11157 35.786 3.12895 36.0448C3.42447 36.0448 3.65045 36.0448 3.89382 36.0448C7.21404 36.0448 10.5343 36.0448 13.8371 36.0448C14.741 36.0448 14.8975 36.1829 15.0713 37.0801C15.2104 37.7185 15.3494 38.3742 15.5059 39.0644C17.7657 39.0644 19.9908 39.0644 22.2159 39.0471C22.3376 39.0471 22.5288 38.8401 22.5809 38.702C22.7374 38.1326 22.8591 37.5287 22.9981 36.9421C23.2067 36.0793 23.2763 36.0276 24.1976 36.0276C27.5873 36.0276 30.9597 36.0276 34.3494 36.0276C34.5928 36.0276 34.8188 36.0276 35.1491 36.0276ZM23.1198 8.23041C20.3211 8.23041 17.6441 8.23041 14.9322 8.23041C14.9322 9.26569 14.9322 10.2492 14.9322 11.25C14.9322 12.1645 14.7584 12.475 14.2543 12.475C13.7328 12.475 13.559 12.1645 13.559 11.2672C13.559 10.2665 13.559 9.26569 13.559 8.1959C13.0548 8.1959 12.655 8.1959 12.2378 8.1959C11.3165 8.21316 10.8472 8.62727 10.7602 9.54176C10.1692 15.2013 9.59556 20.8608 9.02191 26.5203C8.93499 27.4003 9.49126 28.0042 10.4126 28.0042C16.1491 28.0214 21.903 28.0214 27.6395 28.0042C28.6129 28.0042 29.1344 27.3658 29.0475 26.4168C28.7346 23.3282 28.4043 20.2224 28.0914 17.1338C27.8307 14.5974 27.5873 12.0437 27.3266 9.50725C27.257 8.79981 26.8398 8.29943 26.1793 8.23041C25.6578 8.17865 25.1189 8.21316 24.5105 8.21316C24.5105 8.52374 24.5105 8.78256 24.5105 9.04138C24.5105 9.97313 24.5452 10.8876 24.4757 11.8194C24.4583 12.0609 24.1454 12.3888 23.9021 12.4405C23.7108 12.4923 23.3806 12.2507 23.1893 12.0609C23.085 11.9574 23.1372 11.6986 23.1372 11.5088C23.1198 10.4045 23.1198 9.33471 23.1198 8.23041ZM1.408 37.4425C1.408 38.564 1.33847 39.5993 1.42539 40.6346C1.56445 42.4118 3.0768 43.6369 5.04112 43.6369C13.6285 43.6369 22.2159 43.6369 30.8032 43.6369C31.6203 43.6369 32.4547 43.6541 33.2717 43.6369C34.784 43.6023 36.1921 42.6533 36.4528 41.2557C36.6962 40.0306 36.6267 38.7538 36.6962 37.477C32.472 37.477 28.4043 37.477 24.3366 37.477C24.1628 38.2534 23.989 38.9781 23.8325 39.7201C23.7282 40.2377 23.4327 40.4793 22.8764 40.4793C20.3037 40.462 17.7136 40.462 15.1408 40.4793C14.5846 40.4793 14.3064 40.2377 14.2195 39.7028C14.1326 39.1679 13.9762 38.6503 13.8892 38.1326C13.8023 37.6323 13.6111 37.4252 13.0375 37.4425C9.63033 37.477 6.22319 37.4597 2.83344 37.4597C2.38147 37.4425 1.9295 37.4425 1.408 37.4425ZM14.9844 6.78103C17.6962 6.78103 20.3732 6.78103 23.0677 6.78103C23.2763 4.88302 22.9981 3.19207 21.3119 2.07052C19.9213 1.12152 18.4089 1.06975 16.9661 1.91523C15.0887 3.00227 14.7758 4.77949 14.9844 6.78103Z" fill="white"/>
<path d="M24.8233 17.9275C24.6321 19.8946 24.0411 22.1549 22.3028 23.8631C19.6605 26.4686 18.3915 26.4686 15.7492 23.8804C13.924 22.0859 13.3503 19.7048 13.1939 17.2201C13.1417 16.4954 13.7328 15.8915 14.4976 15.8742C15.9057 15.8397 17.1051 15.3566 18.1307 14.3731C18.687 13.8555 19.4519 13.8555 20.0081 14.3731C21.0164 15.3221 22.1811 15.8052 23.5717 15.857C24.4583 15.9088 24.8929 16.5299 24.8233 17.9275ZM14.515 17.2374C14.6193 17.893 14.6888 18.4624 14.8105 19.0318C15.2973 21.2232 16.2707 23.1039 18.4089 24.191C18.8608 24.4153 19.2259 24.4153 19.6779 24.191C22.3028 22.9486 23.4848 19.4632 23.3805 17.2374C21.7117 17.1856 20.2515 16.5817 19.0173 15.3739C17.7657 16.4954 16.3576 17.2546 14.515 17.2374Z" fill="white"/>
<path d="M18.3046 20.3604C19.0173 19.6529 19.6605 19.0318 20.2863 18.4106C20.6166 18.0828 20.9816 17.9275 21.364 18.2726C21.7465 18.6349 21.6248 18.9973 21.2945 19.3423C20.5123 20.1188 19.73 20.8953 18.9478 21.6717C18.5479 22.0686 18.1655 22.0858 17.7657 21.6717C17.418 21.3094 17.053 20.9815 16.7227 20.6192C16.4098 20.2913 16.3576 19.9117 16.6879 19.6012C17.0008 19.2906 17.3659 19.3596 17.6614 19.6529C17.8874 19.86 18.0786 20.1015 18.3046 20.3604Z" fill="white"/>
</g>
<defs>
<clipPath id="clip0_199_136">
<rect width="38" height="45" fill="white"/>
</clipPath>
</defs>
</svg>
