<svg width="19" height="20" viewBox="0 0 19 20" fill="none" xmlns="http://www.w3.org/2000/svg">
<g clip-path="url(#clip0_76_469)">
<path d="M9.49985 13.4868C7.57073 13.4868 6 11.9213 6 9.99859C6 8.07588 7.57073 6.51038 9.49985 6.51038C11.429 6.51038 12.9997 8.07588 12.9997 9.99859C12.9997 11.9213 11.429 13.4868 9.49985 13.4868ZM9.49985 7.90566C8.3407 7.90566 7.39994 8.84329 7.39994 9.99859C7.39994 11.1539 8.3407 12.0915 9.49985 12.0915C10.659 12.0915 11.5998 11.1539 11.5998 9.99859C11.5998 8.84608 10.6562 7.90566 9.49985 7.90566Z" fill="black"/>
<path d="M9.49994 20C8.57037 20 8.0552 20 7.58482 19.8046C6.95204 19.5423 6.45926 19.0512 6.19607 18.4205C6.05328 18.0773 6.02248 17.7173 6.00848 17.3768C5.99728 17.0838 5.85169 16.8299 5.6193 16.6959C5.38691 16.562 5.09292 16.5648 4.83533 16.7015C4.53294 16.8606 4.20256 17.0141 3.83577 17.0615C3.1554 17.1508 2.48343 16.9694 1.93745 16.5536C1.53147 16.2439 1.27668 15.803 0.811901 14.9993C0.347121 14.1956 0.0895314 13.7519 0.0223343 13.2468C-0.067262 12.5715 0.11473 11.899 0.531913 11.3576C0.758703 11.0646 1.05549 10.8553 1.34668 10.6739C1.59587 10.5176 1.74426 10.2665 1.74426 9.99859C1.74426 9.73069 1.59587 9.47954 1.34668 9.32327C1.05829 9.14188 0.758703 8.93538 0.531913 8.63958C0.11473 8.09821 -0.067262 7.42847 0.0223343 6.75037C0.0895314 6.24527 0.344321 5.80436 0.811901 5.00068C1.27668 4.197 1.53427 3.7533 1.94025 3.44354C2.48343 3.02775 3.1582 2.84636 3.83857 2.93566C4.20816 2.9831 4.53574 3.13658 4.83813 3.29564C5.09852 3.43238 5.39251 3.43517 5.6221 3.30122C5.85449 3.16728 6.00008 2.91334 6.01128 2.62033C6.02528 2.27988 6.05608 1.91989 6.19887 1.57665C6.46206 0.945985 6.95484 0.454845 7.58762 0.192532C8.058 -0.00280762 8.57317 -0.00280762 9.50274 -0.00280762C10.4323 -0.00280762 10.9475 -0.00280762 11.4179 0.192532C12.0506 0.454845 12.5434 0.945985 12.8066 1.57665C12.9494 1.91989 12.9802 2.27988 12.9942 2.62033C13.0054 2.91334 13.151 3.16728 13.3834 3.30122C13.6158 3.43517 13.9097 3.43238 14.1673 3.29564C14.4697 3.13658 14.8001 2.9831 15.1669 2.93566C15.8473 2.84636 16.5192 3.02775 17.0652 3.44354C17.4712 3.7533 17.726 4.197 18.1908 5.00068C18.6556 5.80436 18.9131 6.24806 18.9803 6.75037C19.0699 7.42847 18.8879 8.09821 18.4708 8.64237C18.244 8.93538 17.9472 9.14467 17.656 9.32606C17.4068 9.48233 17.2584 9.73348 17.2584 10.0014C17.2584 10.2693 17.4068 10.5204 17.656 10.6767C17.9444 10.8581 18.244 11.0646 18.4708 11.3604C18.8879 11.9018 19.0699 12.5743 18.9803 13.2524C18.9131 13.7575 18.6583 14.1984 18.1908 15.0021C17.726 15.8058 17.4684 16.2495 17.0652 16.5592C16.522 16.975 15.8473 17.1564 15.1669 17.0671C14.7973 17.0197 14.4697 16.8662 14.1673 16.7071C13.9069 16.5704 13.613 16.5676 13.3834 16.7015C13.151 16.8355 13.0054 17.0894 12.9942 17.3824C12.9802 17.7229 12.9494 18.0857 12.8066 18.4261C12.5434 19.0568 12.0506 19.5479 11.4179 19.8102C10.9447 20 10.4295 20 9.49994 20ZM5.24411 15.2002C5.6193 15.2002 5.98888 15.2951 6.31927 15.4876C6.97164 15.8616 7.37762 16.548 7.40562 17.3238C7.41682 17.6085 7.43922 17.7759 7.48682 17.8847C7.60721 18.1722 7.83121 18.3954 8.11679 18.5154C8.33238 18.6047 8.74397 18.6047 9.49714 18.6047C10.2475 18.6047 10.6619 18.6047 10.8775 18.5154C11.1659 18.3954 11.3899 18.1722 11.5075 17.8875C11.5522 17.7759 11.5774 17.6085 11.5886 17.3266C11.6166 16.5508 12.0226 15.8644 12.675 15.4904C13.3274 15.1165 14.1253 15.1081 14.8141 15.4709C15.0661 15.602 15.2229 15.6662 15.3433 15.683C15.6513 15.7248 15.9593 15.6411 16.2057 15.4514C16.3904 15.3118 16.5976 14.9518 16.9728 14.3044C17.348 13.657 17.5552 13.2998 17.586 13.0682C17.628 12.7612 17.544 12.4543 17.3536 12.2087C17.2808 12.1138 17.1464 12.0078 16.9056 11.8571C16.2477 11.4441 15.8529 10.7492 15.8529 10.0014C15.8529 9.25071 16.2477 8.55865 16.9056 8.14565C17.1464 7.99496 17.2808 7.88892 17.3536 7.79404C17.544 7.54847 17.6252 7.24151 17.586 6.93454C17.5552 6.70572 17.348 6.34852 16.9728 5.69832C16.5976 5.05091 16.3904 4.69372 16.2057 4.5514C15.9593 4.36164 15.6513 4.28071 15.3433 4.31978C15.2229 4.33653 15.0661 4.39792 14.8141 4.53186C14.1253 4.89464 13.3274 4.88627 12.675 4.51233C12.0226 4.13839 11.6166 3.45192 11.5886 2.67614C11.5774 2.39429 11.555 2.22407 11.5075 2.11523C11.3871 1.8278 11.1631 1.60456 10.8775 1.48456C10.6619 1.39527 10.2503 1.39527 9.49714 1.39527C8.74677 1.39527 8.33238 1.39527 8.11679 1.48456C7.82841 1.60456 7.60441 1.8278 7.48682 2.11244C7.44202 2.22407 7.41682 2.3915 7.40562 2.67335C7.37762 3.44912 6.96884 4.1356 6.31927 4.50954C5.6669 4.88348 4.86893 4.89185 4.18016 4.52907C3.92817 4.39792 3.77138 4.33373 3.65098 4.31699C3.34299 4.27513 3.03501 4.35885 2.78862 4.54861C2.60383 4.68814 2.39663 5.04533 2.02145 5.69553C1.64627 6.34294 1.43907 6.70014 1.40828 6.93175C1.36628 7.23872 1.45027 7.54568 1.64067 7.79125C1.71346 7.88613 1.84786 7.99217 2.08865 8.14286C2.74662 8.55586 3.1414 9.25071 3.1414 9.99859C3.1414 10.7492 2.74662 11.4413 2.08865 11.8543C1.84786 12.005 1.71346 12.111 1.64067 12.2059C1.45027 12.4515 1.36908 12.7585 1.40828 13.0654C1.43907 13.2942 1.64627 13.6514 2.02145 14.3016C2.39663 14.9518 2.60383 15.3062 2.78862 15.4486C3.03501 15.6383 3.34299 15.7193 3.65098 15.6802C3.77138 15.6634 3.92817 15.602 4.18016 15.4681C4.51895 15.2895 4.88293 15.2002 5.24411 15.2002Z" fill="black"/>
</g>
<defs>
<clipPath id="clip0_76_469">
<rect width="19" height="20" fill="white"/>
</clipPath>
</defs>
</svg>
