<svg width="15" height="15" viewBox="0 0 15 15" fill="none" xmlns="http://www.w3.org/2000/svg">
<g clip-path="url(#clip0_260_451)">
<path d="M6.7601 15C5.33198 15 3.89915 15.0047 2.47103 15C1.21672 14.9953 0.239587 14.1688 0.0281867 12.9337C0.00469778 12.8022 0.00469778 12.666 0.00469778 12.5298C0 9.67442 0 6.81906 0 3.96371C0 2.74737 0.798622 1.77993 1.98716 1.54041C2.13749 1.51224 2.28782 1.49345 2.44284 1.49345C3.97902 1.48876 5.51519 1.48876 7.05136 1.49345C7.6151 1.49345 7.98622 1.98187 7.8124 2.48437C7.70905 2.79902 7.42718 2.99157 7.07015 2.99157C6.05543 2.99157 5.04071 2.99157 4.02599 2.99157C3.50924 2.99157 2.99248 2.99157 2.48043 2.99157C1.9073 2.99157 1.49859 3.38606 1.49859 3.95901C1.49389 6.81437 1.49389 9.66502 1.49859 12.5204C1.49859 13.098 1.8979 13.4925 2.47573 13.4925C5.32258 13.4972 8.17413 13.4972 11.021 13.4925C11.6082 13.4925 12.0028 13.0886 12.0028 12.5063C12.0028 10.7405 12.0028 8.97936 12.0028 7.21355C12.0028 6.6453 12.5384 6.27429 13.0457 6.49502C13.3746 6.6406 13.5061 6.90829 13.5061 7.25582C13.5061 8.24204 13.5061 9.22357 13.5061 10.2098C13.5061 10.9753 13.5108 11.7455 13.5061 12.511C13.5014 13.7696 12.6605 14.7558 11.4203 14.9625C11.2653 14.9906 11.1055 14.9859 10.9458 14.9859C9.55058 15 8.15534 15 6.7601 15Z" fill="#3D4A26"/>
<path d="M13.4402 2.56888C13.3979 2.62523 13.3697 2.69098 13.318 2.74264C11.3262 4.73857 9.3296 6.72981 7.33775 8.72574C7.12165 8.94177 6.87737 9.06387 6.56261 8.98873C6.01297 8.85254 5.80627 8.20914 6.168 7.77708C6.21498 7.72542 6.26665 7.67376 6.31363 7.6268C8.29609 5.64026 10.2786 3.66312 12.261 1.68128C12.308 1.63431 12.3785 1.60144 12.4348 1.56387C12.4207 1.54039 12.4066 1.51691 12.3973 1.49812C12.3362 1.49812 12.2751 1.49812 12.214 1.49812C11.3872 1.49812 10.5604 1.50282 9.73361 1.49343C9.41417 1.49343 9.18397 1.32905 9.06183 1.03788C8.94439 0.756105 8.98667 0.483719 9.18867 0.248904C9.3484 0.0704446 9.5504 0 9.78529 0C10.4947 0.00469631 11.204 0 11.9134 0C12.6697 0 13.4261 0 14.1824 0C14.7039 0 14.9998 0.295867 14.9998 0.817157C14.9998 2.2871 14.9998 3.75704 14.9998 5.23168C14.9998 5.60269 14.779 5.88447 14.4455 5.9737C14.126 6.05823 13.769 5.92674 13.6187 5.63087C13.5482 5.49468 13.5153 5.33031 13.5153 5.18003C13.5059 4.39105 13.5106 3.59737 13.5106 2.80839C13.5106 2.74734 13.5106 2.68159 13.5106 2.62054C13.4824 2.60175 13.4636 2.58297 13.4402 2.56888Z" fill="#3D4A26"/>
</g>
<defs>
<clipPath id="clip0_260_451">
<rect width="15" height="15" fill="white"/>
</clipPath>
</defs>
</svg>
