<svg width="44" height="45" viewBox="0 0 44 45" fill="none" xmlns="http://www.w3.org/2000/svg">
<g clip-path="url(#clip0_199_261)">
<path d="M18.0199 22.7726C18.4581 21.7912 18.7685 20.828 19.2797 20.0283C20.7585 17.7201 22.9311 16.5206 25.688 16.5024C29.2481 16.4661 32.79 16.4843 36.3502 16.5024C40.5676 16.5206 43.9087 19.792 44 23.9903C44.0548 26.2621 44 28.5339 44.0182 30.8057C44.0182 31.4418 43.7444 31.6963 43.1054 31.6781C42.0465 31.6418 40.9693 31.6781 39.8191 31.6781C39.8191 32.0234 39.8191 32.2779 39.8191 32.5505C39.8191 36.3671 39.8191 40.1838 39.8191 44.0004C39.8191 44.9091 39.7095 45.0182 38.7967 45.0182C33.5386 45.0182 28.2805 45.0182 23.0224 45.0182C22.1095 45.0182 22.0182 44.9091 22 44.0004C22 42.0194 22 40.0565 22 37.9665C21.6896 37.9665 21.4158 37.9665 21.1602 37.9665C14.4963 37.9665 7.8141 37.9665 1.1502 37.9665C0.0912786 37.9665 0.0182495 37.8938 0.0182495 36.8397C0.0182495 34.8041 0.0182495 32.7504 0.0182495 30.7149C0.0182495 26.1167 3.32281 22.809 7.9419 22.809C11.3012 22.7726 14.6971 22.7726 18.0199 22.7726ZM21.9817 36.7488C21.9817 36.4398 21.9817 36.1854 21.9817 35.9309C21.9817 33.4592 21.9817 30.9875 21.9817 28.4976C21.9817 27.5162 22.073 27.4253 23.0954 27.4253C23.3693 27.4253 23.6431 27.4253 24.0631 27.4253C22.712 25.208 20.9228 23.9903 18.5129 23.954C14.8249 23.8994 11.1369 23.8631 7.44896 23.954C3.87053 24.0448 1.24149 26.8255 1.20497 30.3877C1.18671 32.3142 1.20497 34.2407 1.20497 36.1854C1.20497 36.3671 1.24149 36.5307 1.25974 36.7488C8.14273 36.7488 15.0075 36.7488 21.9817 36.7488ZM38.6141 28.6612C37.9203 28.6612 37.2996 28.6612 36.5875 28.6612C36.5875 29.4245 36.5875 30.1333 36.5875 30.8603C36.5875 31.2783 36.5145 31.6781 35.9851 31.6599C35.4556 31.6599 35.3826 31.2783 35.4008 30.8421C35.4008 30.1151 35.4008 29.4063 35.4008 28.6793C32.3519 28.6793 29.3759 28.6793 26.3817 28.6793C26.3817 29.4972 26.4 30.2423 26.3817 30.9875C26.3635 31.5145 26.0166 31.8417 25.6149 31.6236C25.4141 31.5145 25.2498 31.1329 25.2315 30.8784C25.1768 30.1515 25.2133 29.4063 25.2133 28.6793C24.4647 28.6793 23.844 28.6793 23.205 28.6793C23.205 32.3687 23.205 36.0218 23.205 39.6567C28.3718 39.6567 33.4838 39.6567 38.6324 39.6567C38.6141 35.9855 38.6141 32.3687 38.6141 28.6612ZM25.122 26.7892C25.1585 25.1171 25.5784 23.6268 26.7286 22.4091C27.8971 21.1733 29.3394 20.5372 31.0556 20.5735C32.3701 20.6099 33.5386 21.0642 34.561 21.9184C36.2589 23.336 36.7336 25.2444 36.6058 27.3162C36.7153 27.3708 36.7519 27.4071 36.8066 27.4071C37.4274 27.4253 38.0299 27.4253 38.6506 27.4253C39.746 27.4253 39.8191 27.498 39.8191 28.5703C39.8191 29.1882 39.8191 29.8243 39.8191 30.4423C40.878 30.4423 41.8274 30.4423 42.8315 30.4423C42.8315 28.3522 42.8315 26.2985 42.8315 24.2629C42.8133 20.5008 40.1477 17.7201 36.3867 17.6656C32.8631 17.6111 29.3212 17.6111 25.7975 17.6656C23.1319 17.7019 21.1602 18.956 19.9187 21.3187C19.6813 21.773 19.5535 22.3001 19.3709 22.8271C21.9452 23.2997 23.7892 24.6446 25.122 26.7892ZM23.1319 43.7823C28.3353 43.7823 33.4473 43.7823 38.6141 43.7823C38.6141 42.8191 38.6141 41.9103 38.6141 40.9471C33.4473 40.9471 28.3353 40.9471 23.1319 40.9471C23.1319 41.565 23.1319 42.1466 23.1319 42.7282C23.1319 43.0553 23.1319 43.4007 23.1319 43.7823ZM35.3095 27.3889C35.6747 25.2989 34.9079 23.4633 33.3012 22.4455C31.7494 21.4822 29.7593 21.5186 28.2805 22.5727C26.7834 23.645 26.0348 25.6078 26.473 27.3889C29.4124 27.3889 32.3701 27.3889 35.3095 27.3889Z" fill="white"/>
<path d="M5.60498 13.6309C5.60498 9.57799 8.94606 6.27023 12.9992 6.2884C17.034 6.30658 20.3386 9.61433 20.3386 13.6309C20.3386 17.6838 16.9975 21.0097 12.9444 20.9734C8.90954 20.9552 5.60498 17.6475 5.60498 13.6309ZM19.1519 13.6309C19.1519 10.2141 16.4315 7.48792 13.0174 7.45157C9.58506 7.4334 6.80996 10.1777 6.80996 13.6127C6.80996 17.0477 9.54855 19.792 12.9992 19.792C16.4133 19.7739 19.1519 17.0477 19.1519 13.6309Z" fill="white"/>
<path d="M38.3767 7.39701C38.3585 11.3954 34.9992 14.7213 31.0008 14.7031C26.9294 14.685 23.6431 11.359 23.6614 7.30614C23.6796 3.27141 27.0025 0 31.0373 0C35.1087 0 38.395 3.32593 38.3767 7.39701ZM37.19 7.32431C37.19 3.92569 34.4514 1.18134 31.0373 1.16317C27.605 1.14499 24.8481 3.90751 24.8481 7.34249C24.8481 10.7411 27.5867 13.4855 31.0008 13.5036C34.4332 13.5218 37.19 10.7593 37.19 7.32431Z" fill="white"/>
<path d="M30.5444 35.5312C31.366 34.6043 32.1328 33.7501 32.8813 32.9141C33.1552 32.6051 33.5021 32.3506 33.8672 32.7141C34.2689 33.0958 34.0133 33.4411 33.6846 33.7501C32.7535 34.6406 31.8224 35.5312 30.8913 36.4399C30.4714 36.8397 30.1245 36.8397 29.7411 36.4035C29.1386 35.7129 28.5178 35.0586 27.9701 34.3498C27.8241 34.1499 27.7876 33.6592 27.9154 33.4775C28.1892 33.114 28.5544 33.2957 28.8282 33.6047C29.3212 34.1863 29.8141 34.7315 30.5444 35.5312Z" fill="white"/>
</g>
<defs>
<clipPath id="clip0_199_261">
<rect width="44" height="45" fill="white"/>
</clipPath>
</defs>
</svg>
