<svg width="31" height="27" viewBox="0 0 31 27" fill="none" xmlns="http://www.w3.org/2000/svg">
<g clip-path="url(#clip0_191_15)">
<path d="M31 4.74C30.776 5.472 30.5459 6.204 30.334 6.936C29.3471 10.344 28.3662 13.746 27.3854 17.154C27.1977 17.796 26.9252 18 26.2531 18C20.9189 18 15.5787 18 10.2445 18C9.51191 18 9.09414 18.324 9.08809 18.894C9.08203 19.464 9.51191 19.8 10.2324 19.8C15.5363 19.8 20.8463 19.8 26.1502 19.8C26.2531 19.8 26.35 19.8 26.4529 19.8C26.9736 19.824 27.3611 20.202 27.3672 20.688C27.3732 21.192 26.9797 21.582 26.4408 21.594C25.9867 21.606 25.5326 21.594 25.0725 21.612C25.8172 21.774 26.4348 22.134 26.8707 22.758C27.3006 23.376 27.4398 24.066 27.3127 24.81C27.1008 26.046 25.8596 27.042 24.582 26.994C23.1289 26.934 22.0391 25.878 21.9301 24.42C21.8271 23.112 22.808 21.918 24.2975 21.612C20.2227 21.612 16.2387 21.612 12.3092 21.612C12.5877 21.732 12.9449 21.828 13.2355 22.02C13.5383 22.218 13.8289 22.482 14.0348 22.776C14.2346 23.064 14.3859 23.412 14.4586 23.754C14.5312 24.108 14.5252 24.498 14.4646 24.852C14.2406 26.1 12.9934 27.054 11.734 26.988C10.299 26.916 9.22734 25.902 9.10625 24.456C9.01543 23.316 9.69961 21.984 11.3828 21.552C10.8016 21.552 10.2143 21.6 9.63906 21.54C8.48867 21.426 7.53809 20.52 7.33223 19.434C7.1082 18.234 7.64102 17.094 8.70664 16.518C8.76719 16.482 8.82773 16.452 8.9125 16.404C7.8166 11.55 6.7207 6.684 5.63086 1.8C4.60156 1.8 3.59043 1.8 2.58535 1.8C2.13125 1.8 1.67715 1.776 1.22305 1.806C0.653906 1.842 0.242188 1.662 0 1.14C0 0.977999 0 0.821999 0 0.659999C0.19375 0.299999 0.435937 0.00599918 0.890039 0.00599918C2.70645 -8.23871e-07 4.52285 -8.23871e-07 6.33926 0.00599918C6.79941 0.00599918 7.11426 0.269999 7.24141 0.707999C7.30195 0.917999 7.33828 1.134 7.38672 1.35C7.55625 2.094 7.72578 2.844 7.89531 3.6C8.04668 3.6 8.16777 3.6 8.28281 3.6C15.4455 3.6 22.6143 3.606 29.777 3.594C30.34 3.594 30.7578 3.744 31 4.26C31 4.422 31 4.584 31 4.74ZM28.8809 5.418C22.0027 5.418 15.1609 5.418 8.30098 5.418C9.1123 9.024 9.91152 12.606 10.7168 16.188C15.7543 16.188 20.7615 16.188 25.7809 16.188C26.8102 12.6 27.8455 9.024 28.8809 5.418ZM12.7148 24.306C12.7148 23.814 12.3031 23.406 11.8127 23.406C11.3162 23.406 10.9045 23.814 10.9045 24.3C10.9045 24.792 11.3162 25.2 11.8066 25.2C12.2971 25.2 12.7148 24.792 12.7148 24.306ZM25.5508 24.312C25.5568 23.82 25.1451 23.412 24.6547 23.406C24.1582 23.4 23.7465 23.808 23.7404 24.294C23.7344 24.786 24.1461 25.194 24.6365 25.2C25.127 25.206 25.5447 24.798 25.5508 24.312Z" fill="#3D4A26"/>
</g>
<defs>
<clipPath id="clip0_191_15">
<rect width="31" height="27" fill="white"/>
</clipPath>
</defs>
</svg>
