<?xml version="1.0" encoding="utf-8"?>
<!-- Generator: Adobe Illustrator 23.1.0, SVG Export Plug-In . SVG Version: 6.00 Build 0)  -->
<svg version="1.1" id="Layer_1" xmlns="http://www.w3.org/2000/svg" xmlns:xlink="http://www.w3.org/1999/xlink" x="0px" y="0px"
	 viewBox="0 0 314 20" style="enable-background:new 0 0 314 20;" xml:space="preserve">
<style type="text/css">
	.st0{fill:#FF5F00;}
	.st1{fill:#EB001B;}
	.st2{fill:#F79E1B;}
	.st3{clip-path:url(#SVGID_2_);}
	.st4{fill:#00579F;}
	.st5{fill-rule:evenodd;clip-rule:evenodd;fill:#00579F;}
	.st6{fill:#FFBC00;}
	.st7{fill:#F7981D;}
	.st8{fill:#ED7C00;}
	.st9{fill:none;stroke:#3BAF7F;stroke-width:1.2568;stroke-linecap:round;}
	.st10{fill:none;stroke:#3BAF7F;stroke-width:1.2568;}
	.st11{clip-path:url(#SVGID_4_);}
	.st12{fill:url(#SVGID_5_);}
	.st13{fill:#292929;}
	.st14{clip-path:url(#SVGID_7_);}
	.st15{fill:#FFFFFF;}
	.st16{fill:#16181D;}
</style>
<g>
	<path class="st0" d="M21.9,2.6h-9.8v14.7h9.8V2.6z"/>
	<path class="st1" d="M13.5,10c0-2.8,1.3-5.4,3.5-7.1C13.3,0,7.9,0.5,4.7,3.9s-3.2,8.8,0,12.2s8.6,3.9,12.3,1
		C14.8,15.4,13.5,12.8,13.5,10z"/>
	<path class="st2" d="M31.7,10c0,3.4-2,6.6-5.1,8.1s-6.9,1.1-9.6-1c2.2-1.7,3.5-4.3,3.5-7.1S19.2,4.6,17,2.9c2.7-2.1,6.5-2.5,9.6-1
		S31.7,6.6,31.7,10z"/>
</g>
<g>
	<g>
		<g>
			<defs>
				<rect id="SVGID_1_" x="50" y="3" width="46.7" height="14"/>
			</defs>
			<clipPath id="SVGID_2_">
				<use xlink:href="#SVGID_1_"  style="overflow:visible;"/>
			</clipPath>
			<g class="st3">
				<path class="st4" d="M66.3,17L69,3h4.3l-2.6,14H66.3z"/>
				<path class="st4" d="M66.3,17l3.5-14h3.5l-2.6,14H66.3z"/>
				<path class="st4" d="M85,3.6C84.2,3.3,83,3,81.5,3c-3.8,0-6.5,1.9-6.5,4.5c0,2,1.9,3,3.4,3.7c1.6,0.7,1.9,1.1,1.9,1.7
					c0,0.9-1.2,1.3-2.3,1.3c-1.6,0-2.3-0.2-3.7-0.7l-0.5-0.2l-0.5,3c0.9,0.4,2.6,0.7,4.4,0.7c4,0,6.7-1.9,6.7-4.7
					c0-1.6-1-2.7-3.3-3.7c-1.4-0.7-2.2-1-2.2-1.7c0-0.6,0.7-1.2,2.2-1.2c1.3,0,2.2,0.2,2.9,0.5l0.4,0.2L85,3.6z"/>
				<path class="st4" d="M85,3.6C84.2,3.3,83,3,81.5,3c-3.8,0-5.8,1.9-5.8,4.5c0,2,1.2,3,2.7,3.7c1.6,0.7,1.9,1.1,1.9,1.7
					c0,0.9-1.2,1.3-2.3,1.3c-1.6,0-2.3-0.2-3.7-0.7l-0.5-0.2l-0.5,3c0.9,0.4,2.6,0.7,4.4,0.7c4,0,6.7-1.9,6.7-4.7
					c0-1.6-1-2.7-3.3-3.7c-1.4-0.7-2.2-1-2.2-1.7c0-0.6,0.7-1.2,2.2-1.2c1.3,0,2.2,0.2,2.9,0.5l0.4,0.2L85,3.6z"/>
				<path class="st5" d="M88.4,4c0.4-0.9,1.1-1,2-1h3l3.3,14h-3.7l-0.5-2.3h-4.9L86.9,17h-4.1L88.4,4z M90.2,8.2
					c0,0-1.3,3.4-1.6,4.1v0.1h3.3C91.7,11.6,91,8.1,91,8.1l-0.2-1.3C90.5,7.3,90.2,8.2,90.2,8.2z"/>
				<path class="st5" d="M89.3,4c0.4-0.9,1.1-1,2-1h2.1l3.3,14h-3.7l-0.5-2.3h-4.9L86.9,17h-4.1L89.3,4z M90.2,8.2
					c0,0-1.2,3.3-1.6,4.1v0.1h3.3C91.7,11.6,91,8.1,91,8.1l-0.2-1.3C90.5,7.3,90.2,8.2,90.2,8.2z"/>
				<path class="st4" d="M60.5,12.7l-0.4-2c-0.7-2.3-3-4.9-5.4-6.1L58.1,17h4.2l6.3-14h-4.2L60.5,12.7z"/>
				<path class="st4" d="M60.5,12.7l-0.4-2c-0.7-2.3-3-4.9-5.4-6.1L58.1,17h4.2l6.3-14h-3.4L60.5,12.7z"/>
				<path class="st6" d="M50,3l0.6,0.2c4.4,1,7.5,3.7,8.7,6.8l-1.2-6c-0.2-0.8-0.9-1-1.6-1H50z"/>
				<path class="st7" d="M50,3c4.4,1.1,8.2,3.8,9.3,7l-1.2-5.1c-0.2-0.9-0.9-1.3-1.6-1.3L50,3z"/>
				<path class="st8" d="M50,3c4.4,1.1,8.2,3.8,9.3,7l-0.9-2.7c-0.2-0.9-0.5-1.7-1.5-2L50,3z"/>
				<path class="st4" d="M63.8,12.4L61.3,10l-1.2,2.6l-0.3-1.7c-0.7-2.1-2.8-4.4-5.2-5.5L58,16.6h4L63.8,12.4z"/>
				<path class="st4" d="M70.7,16.6l-3.2-3.1l-0.6,3.1H70.7z"/>
				<path class="st4" d="M79.3,12.2c0.3,0.3,0.5,0.5,0.4,0.8c0,0.9-1.2,1.2-2.3,1.2c-1.5,0-2.3-0.2-3.6-0.7l-0.5-0.2l-0.5,2.9
					c0.9,0.4,2.5,0.7,4.2,0.7c2.4,0,4.3-0.6,5.4-1.8L79.3,12.2z"/>
				<path class="st4" d="M83.6,16.6h3.4l0.8-2.1h4.7l0.5,2.1h3.6l-1.2-5.1l-4.4-4l0.2,1.1c0,0,0.8,3.2,0.9,3.9h-3.1
					c0.3-0.7,1.5-3.7,1.5-3.7s0.3-0.8,0.5-1.2"/>
			</g>
		</g>
	</g>
</g>
<g>
	<path class="st9" d="M120.2,5.8h4.9"/>
	<path class="st9" d="M134.8,14.9h4.9"/>
	<path class="st10" d="M129.9,13.5c1.9,0,3.5-1.6,3.5-3.5s-1.6-3.5-3.5-3.5c-1.9,0-3.5,1.6-3.5,3.5C126.4,11.9,128,13.5,129.9,13.5z
		"/>
	<path class="st10" d="M142.4,1.6h-25.7v16.7h25.7V1.6z"/>
</g>
<g>
	<path class="st16" d="M243.4,7.5h-2.1h-2.4h-2.1v2.1V15h2.1V9.6h2.4V15h2.1V9.6h2.4V15h2.1V9.6V7.5h-2.1H243.4z"/>
	<path class="st16" d="M223.8,9.6h2V7.5h-2V5h-0.1l-3.6,3.1v1.5h1.6v3.2V15h2.1h2.2v-2.2h-2.2V9.6z"/>
	<path class="st16" d="M232.7,8.2c-0.7-0.6-1.4-0.8-2.2-0.8c-2.1,0-3.5,1.6-3.5,3.8s1.4,3.8,3.5,3.8c0.8,0,1.5-0.2,2.2-0.8V15h2V7.5
		h-2V8.2z M230.9,13.2c-1.2,0-1.9-0.9-1.9-2s0.7-2,1.9-2s1.8,0.9,1.8,2S232.1,13.2,230.9,13.2z"/>
	<path class="st16" d="M270.1,7.5v0.7c-0.7-0.6-1.4-0.8-2.2-0.8c-2.1,0-3.5,1.6-3.5,3.8s1.4,3.8,3.5,3.8c0.8,0,1.5-0.2,2.2-0.8V15h2
		V7.5H270.1z M268.3,13.2c-1.2,0-1.9-0.9-1.9-2s0.7-2,1.9-2c1.2,0,1.8,0.9,1.8,2S269.5,13.2,268.3,13.2z"/>
	<path class="st16" d="M255.3,8.2c-0.7-0.6-1.4-0.8-2.2-0.8c-2.1,0-3.5,1.6-3.5,3.8s1.4,3.8,3.5,3.8c0.8,0,1.5-0.2,2.2-0.8V15h2V7.5
		h-2L255.3,8.2L255.3,8.2z M253.5,13.2c-1.2,0-1.9-0.9-1.9-2s0.7-2,1.9-2s1.8,0.9,1.8,2S254.6,13.2,253.5,13.2z"/>
	<path class="st16" d="M261.4,8.2V7.5h-2.1V15h2.1v-4.7l2.5-0.9V7.3l-0.1-0.1L261.4,8.2z"/>
</g>
</svg>
