<?xml version="1.0" encoding="utf-8"?>
<!-- Generator: Adobe Illustrator 23.1.0, SVG Export Plug-In . SVG Version: 6.00 Build 0)  -->
<svg version="1.1" id="Layer_1" xmlns="http://www.w3.org/2000/svg" xmlns:xlink="http://www.w3.org/1999/xlink" x="0px" y="0px"
	 viewBox="0 0 314 20" style="enable-background:new 0 0 314 20;" xml:space="preserve">
<style type="text/css">
	.st0{fill:#FF5F00;}
	.st1{fill:#EB001B;}
	.st2{fill:#F79E1B;}
	.st3{clip-path:url(#SVGID_2_);}
	.st4{fill:#00579F;}
	.st5{fill-rule:evenodd;clip-rule:evenodd;fill:#00579F;}
	.st6{fill:#FFBC00;}
	.st7{fill:#F7981D;}
	.st8{fill:#ED7C00;}
	.st9{fill:none;stroke:#3BAF7F;stroke-width:1.2568;stroke-linecap:round;}
	.st10{fill:none;stroke:#3BAF7F;stroke-width:1.2568;}
	.st11{clip-path:url(#SVGID_4_);}
	.st12{fill:url(#SVGID_5_);}
	.st13{fill:#292929;}
	.st14{clip-path:url(#SVGID_7_);}
	.st15{fill:#FFFFFF;}
	.st16{fill:#16181D;}
</style>
<g>
	<path class="st0" d="M21.9,2.6h-9.8v14.7h9.8V2.6z"/>
	<path class="st1" d="M13.5,10c0-2.8,1.3-5.4,3.5-7.1C13.3,0,7.9,0.5,4.7,3.9s-3.2,8.8,0,12.2s8.6,3.9,12.3,1
		C14.8,15.4,13.5,12.8,13.5,10z"/>
	<path class="st2" d="M31.7,10c0,3.4-2,6.6-5.1,8.1s-6.9,1.1-9.6-1c2.2-1.7,3.5-4.3,3.5-7.1S19.2,4.6,17,2.9c2.7-2.1,6.5-2.5,9.6-1
		S31.7,6.6,31.7,10z"/>
</g>
<g>
	<g>
		<g>
			<defs>
				<rect id="SVGID_1_" x="50" y="3" width="46.7" height="14"/>
			</defs>
			<clipPath id="SVGID_2_">
				<use xlink:href="#SVGID_1_"  style="overflow:visible;"/>
			</clipPath>
			<g class="st3">
				<path class="st4" d="M66.3,17L69,3h4.3l-2.6,14H66.3z"/>
				<path class="st4" d="M66.3,17l3.5-14h3.5l-2.6,14H66.3z"/>
				<path class="st4" d="M85,3.6C84.2,3.3,83,3,81.5,3c-3.8,0-6.5,1.9-6.5,4.5c0,2,1.9,3,3.4,3.7c1.6,0.7,1.9,1.1,1.9,1.7
					c0,0.9-1.2,1.3-2.3,1.3c-1.6,0-2.3-0.2-3.7-0.7l-0.5-0.2l-0.5,3c0.9,0.4,2.6,0.7,4.4,0.7c4,0,6.7-1.9,6.7-4.7
					c0-1.6-1-2.7-3.3-3.7c-1.4-0.7-2.2-1-2.2-1.7c0-0.6,0.7-1.2,2.2-1.2c1.3,0,2.2,0.2,2.9,0.5l0.4,0.2L85,3.6z"/>
				<path class="st4" d="M85,3.6C84.2,3.3,83,3,81.5,3c-3.8,0-5.8,1.9-5.8,4.5c0,2,1.2,3,2.7,3.7c1.6,0.7,1.9,1.1,1.9,1.7
					c0,0.9-1.2,1.3-2.3,1.3c-1.6,0-2.3-0.2-3.7-0.7l-0.5-0.2l-0.5,3c0.9,0.4,2.6,0.7,4.4,0.7c4,0,6.7-1.9,6.7-4.7
					c0-1.6-1-2.7-3.3-3.7c-1.4-0.7-2.2-1-2.2-1.7c0-0.6,0.7-1.2,2.2-1.2c1.3,0,2.2,0.2,2.9,0.5l0.4,0.2L85,3.6z"/>
				<path class="st5" d="M88.4,4c0.4-0.9,1.1-1,2-1h3l3.3,14h-3.7l-0.5-2.3h-4.9L86.9,17h-4.1L88.4,4z M90.2,8.2
					c0,0-1.3,3.4-1.6,4.1v0.1h3.3C91.7,11.6,91,8.1,91,8.1l-0.2-1.3C90.5,7.3,90.2,8.2,90.2,8.2z"/>
				<path class="st5" d="M89.3,4c0.4-0.9,1.1-1,2-1h2.1l3.3,14h-3.7l-0.5-2.3h-4.9L86.9,17h-4.1L89.3,4z M90.2,8.2
					c0,0-1.2,3.3-1.6,4.1v0.1h3.3C91.7,11.6,91,8.1,91,8.1l-0.2-1.3C90.5,7.3,90.2,8.2,90.2,8.2z"/>
				<path class="st4" d="M60.5,12.7l-0.4-2c-0.7-2.3-3-4.9-5.4-6.1L58.1,17h4.2l6.3-14h-4.2L60.5,12.7z"/>
				<path class="st4" d="M60.5,12.7l-0.4-2c-0.7-2.3-3-4.9-5.4-6.1L58.1,17h4.2l6.3-14h-3.4L60.5,12.7z"/>
				<path class="st6" d="M50,3l0.6,0.2c4.4,1,7.5,3.7,8.7,6.8l-1.2-6c-0.2-0.8-0.9-1-1.6-1H50z"/>
				<path class="st7" d="M50,3c4.4,1.1,8.2,3.8,9.3,7l-1.2-5.1c-0.2-0.9-0.9-1.3-1.6-1.3L50,3z"/>
				<path class="st8" d="M50,3c4.4,1.1,8.2,3.8,9.3,7l-0.9-2.7c-0.2-0.9-0.5-1.7-1.5-2L50,3z"/>
				<path class="st4" d="M63.8,12.4L61.3,10l-1.2,2.6l-0.3-1.7c-0.7-2.1-2.8-4.4-5.2-5.5L58,16.6h4L63.8,12.4z"/>
				<path class="st4" d="M70.7,16.6l-3.2-3.1l-0.6,3.1H70.7z"/>
				<path class="st4" d="M79.3,12.2c0.3,0.3,0.5,0.5,0.4,0.8c0,0.9-1.2,1.2-2.3,1.2c-1.5,0-2.3-0.2-3.6-0.7l-0.5-0.2l-0.5,2.9
					c0.9,0.4,2.5,0.7,4.2,0.7c2.4,0,4.3-0.6,5.4-1.8L79.3,12.2z"/>
				<path class="st4" d="M83.6,16.6h3.4l0.8-2.1h4.7l0.5,2.1h3.6l-1.2-5.1l-4.4-4l0.2,1.1c0,0,0.8,3.2,0.9,3.9h-3.1
					c0.3-0.7,1.5-3.7,1.5-3.7s0.3-0.8,0.5-1.2"/>
			</g>
		</g>
	</g>
</g>
<g>
	<path class="st9" d="M120.2,5.8h4.9"/>
	<path class="st9" d="M134.8,14.9h4.9"/>
	<path class="st10" d="M129.9,13.5c1.9,0,3.5-1.6,3.5-3.5s-1.6-3.5-3.5-3.5c-1.9,0-3.5,1.6-3.5,3.5C126.4,11.9,128,13.5,129.9,13.5z
		"/>
	<path class="st10" d="M142.4,1.6h-25.7v16.7h25.7V1.6z"/>
</g>
<g>
	<g>
		<g>
			<defs>
				<rect id="SVGID_3_" x="163.2" y="1" width="45.3" height="18"/>
			</defs>
			<clipPath id="SVGID_4_">
				<use xlink:href="#SVGID_3_"  style="overflow:visible;"/>
			</clipPath>
			<g class="st11">
				
					<linearGradient id="SVGID_5_" gradientUnits="userSpaceOnUse" x1="163.2" y1="488" x2="208.5" y2="488" gradientTransform="matrix(1 0 0 1 0 -478)">
					<stop  offset="0" style="stop-color:#3BFF9D"/>
					<stop  offset="1" style="stop-color:#3BFFC8"/>
				</linearGradient>
				<path class="st12" d="M205,19h-38.3c-1.9,0-3.5-1.6-3.5-3.5v-11c0-1.9,1.6-3.5,3.5-3.5H205c1.9,0,3.5,1.6,3.5,3.5v11
					C208.5,17.4,206.9,19,205,19z"/>
				<path class="st13" d="M202.4,6.7l-2.4,9.2l0,0h1.9l2.4-9.2H202.4z"/>
				<path class="st13" d="M172.4,12c-0.2,0.1-0.6,0.2-0.9,0.2c-0.7,0-1.1-0.1-1.1-0.7l0,0c0,0,0,0,0-0.1V9.8V9.6V8.5l0,0V8V7.8v-1
					L168.7,7c1.1-0.2,1.8-1.1,1.8-2V4.4h-1.9V7h-0.1v4.8c0.1,1.3,1,2.1,2.4,2.1c0.5,0,1.1-0.1,1.5-0.3l0,0V12L172.4,12z"/>
				<path class="st13" d="M172.7,6.4l-5.3,0.8v1.3l5.3-0.8V6.4z"/>
				<path class="st13" d="M172.7,8.3l-5.3,0.8v1.3l5.3-0.8V8.3z"/>
				<path class="st13" d="M178.7,9c-0.1-1.5-1-2.4-2.5-2.4c-0.9,0-1.6,0.3-2.1,1c-0.5,0.6-0.7,1.6-0.7,2.7s0.3,2.1,0.7,2.7
					c0.5,0.6,1.2,1,2.1,1c1.5,0,2.5-0.9,2.5-2.4v2.3h1.9V6.7L178.7,7 M178.8,10.3c0,1.3-0.7,2.2-1.8,2.2s-1.8-0.8-1.8-2.2
					s0.7-2.2,1.8-2.2c0.5,0,1,0.2,1.3,0.6C178.6,9.1,178.8,9.6,178.8,10.3z"/>
				<path class="st13" d="M186.1,6.6c-1.5,0-2.5,0.9-2.5,2.4V4.7L181.7,5v8.8h1.9v-2.3c0.1,1.5,1,2.4,2.5,2.4c1.8,0,2.9-1.4,2.9-3.7
					C188.9,8,187.9,6.6,186.1,6.6z M185.2,12.4c-1.1,0-1.8-0.9-1.8-2.2c0-0.6,0.2-1.2,0.5-1.6c0.3-0.4,0.8-0.6,1.3-0.6
					c1.1,0,1.8,0.8,1.8,2.2S186.3,12.4,185.2,12.4z"/>
				<path class="st13" d="M194.1,6.6c-1.5,0-2.5,0.9-2.5,2.4V4.7L189.7,5v8.8h1.9v-2.3c0.1,1.5,1,2.4,2.5,2.4c1.8,0,2.9-1.4,2.9-3.7
					C196.9,8,195.9,6.6,194.1,6.6z M193.2,12.4c-1.1,0-1.8-0.9-1.8-2.2c0-0.6,0.2-1.2,0.5-1.6c0.3-0.4,0.8-0.6,1.3-0.6
					c1.1,0,1.8,0.8,1.8,2.2S194.4,12.4,193.2,12.4z"/>
				<path class="st13" d="M197,6.7h2l1.6,7.1h-1.8L197,6.7z"/>
			</g>
		</g>
	</g>
</g>
<g>
	<g>
		<g>
			<defs>
				<rect id="SVGID_6_" x="284.7" y="1" width="27.4" height="18"/>
			</defs>
			<clipPath id="SVGID_7_">
				<use xlink:href="#SVGID_6_"  style="overflow:visible;"/>
			</clipPath>
			<g class="st14">
				<path d="M309.7,1h-22.5c-0.1,0-0.2,0-0.3,0c-0.1,0-0.2,0-0.2,0c-0.2,0-0.3,0-0.5,0s-0.3,0.1-0.5,0.2s-0.3,0.2-0.4,0.3
					c-0.1,0.1-0.2,0.3-0.3,0.4c-0.1,0.2-0.1,0.3-0.2,0.5c0,0.2,0,0.3,0,0.5c0,0.1,0,0.2,0,0.2c0,0.1,0,0.2,0,0.3V16
					c0,0.1,0,0.2,0,0.3c0,0.1,0,0.2,0,0.2c0,0.2,0,0.3,0,0.5s0.1,0.3,0.2,0.5s0.2,0.3,0.3,0.4c0.1,0.1,0.3,0.2,0.4,0.3
					c0.2,0.1,0.3,0.1,0.5,0.2c0.2,0,0.3,0,0.5,0c0.1,0,0.2,0,0.2,0c0.1,0,0.2,0,0.3,0h22.5c0.1,0,0.2,0,0.3,0c0.1,0,0.2,0,0.2,0
					c0.2,0,0.3,0,0.5,0s0.3-0.1,0.5-0.2s0.3-0.2,0.4-0.3c0.1-0.1,0.2-0.3,0.3-0.4c0.1-0.2,0.1-0.3,0.2-0.5c0-0.2,0-0.3,0-0.5
					c0-0.1,0-0.2,0-0.2c0-0.1,0-0.2,0-0.3V3.5c0-0.1,0-0.2,0-0.3s0-0.2,0-0.2c0-0.2,0-0.3,0-0.5S312,2.2,311.9,2s-0.2-0.3-0.3-0.4
					c-0.1-0.1-0.3-0.2-0.4-0.3c-0.2-0.1-0.3-0.1-0.5-0.2c-0.2,0-0.3,0-0.5,0c-0.1,0-0.2,0-0.2,0C309.8,1,309.7,1,309.7,1z"/>
				<path class="st15" d="M309.7,1.6h0.3c0.1,0,0.2,0,0.2,0c0.1,0,0.3,0,0.4,0s0.2,0.1,0.3,0.1c0.1,0.1,0.2,0.1,0.3,0.2
					c0.1,0.1,0.1,0.2,0.2,0.3s0.1,0.2,0.1,0.3s0,0.3,0,0.4c0,0.1,0,0.1,0,0.2c0,0.1,0,0.2,0,0.3V16c0,0.1,0,0.2,0,0.3
					c0,0.1,0,0.1,0,0.2s0,0.3,0,0.4s-0.1,0.2-0.1,0.3c-0.1,0.1-0.1,0.2-0.2,0.3c-0.1,0.1-0.2,0.1-0.3,0.2c-0.1,0.1-0.2,0.1-0.3,0.1
					c-0.1,0-0.3,0-0.4,0s-0.2,0-0.2,0c-0.1,0-0.2,0-0.3,0h-22.5l0,0c-0.1,0-0.2,0-0.3,0c-0.1,0-0.2,0-0.2,0c-0.1,0-0.3,0-0.4,0
					s-0.2-0.1-0.3-0.1c-0.1-0.1-0.2-0.1-0.3-0.2c-0.1-0.1-0.1-0.2-0.2-0.3c-0.1-0.1-0.1-0.2-0.1-0.3c0-0.1,0-0.3,0-0.4s0-0.1,0-0.2
					v-0.2V16V3.5V3.4V3.2c0-0.1,0-0.1,0-0.2c0-0.1,0-0.3,0-0.4c0-0.1,0.1-0.2,0.1-0.3s0.1-0.2,0.2-0.3c0.1-0.1,0.2-0.1,0.3-0.2
					c0.1-0.1,0.2-0.1,0.3-0.1c0.1,0,0.3,0,0.4,0s0.2,0,0.2,0h0.3L309.7,1.6L309.7,1.6z"/>
				<path d="M292.2,6.9c0.2-0.3,0.4-0.7,0.4-1.1c-0.3,0-0.8,0.2-1,0.5s-0.4,0.7-0.4,1C291.5,7.4,291.9,7.2,292.2,6.9z"/>
				<path d="M292.5,7.5c-0.6,0-1,0.3-1.3,0.3s-0.7-0.3-1.1-0.3c-0.6,0-1.1,0.3-1.4,0.9c-0.6,1-0.2,2.6,0.4,3.4
					c0.3,0.4,0.6,0.9,1.1,0.9c0.4,0,0.6-0.3,1.1-0.3s0.7,0.3,1.1,0.3c0.5,0,0.8-0.4,1-0.8c0.3-0.5,0.5-0.9,0.5-1
					c0,0-0.9-0.4-0.9-1.4c0-0.9,0.7-1.3,0.7-1.3C293.4,7.5,292.7,7.5,292.5,7.5z"/>
				<path d="M297.4,6.3c1.2,0,2.1,0.8,2.1,2.1c0,1.2-0.9,2.1-2.1,2.1H296v2.1h-1V6.3H297.4z M296,9.6h1.1c0.8,0,1.3-0.5,1.3-1.2
					c0-0.8-0.5-1.2-1.3-1.2H296V9.6z"/>
				<path d="M299.7,11.3c0-0.8,0.6-1.3,1.7-1.4l1.3-0.1V9.5c0-0.5-0.3-0.8-0.9-0.8c-0.5,0-0.9,0.3-1,0.7h-0.9
					c0.1-0.8,0.8-1.4,1.9-1.4s1.8,0.6,1.8,1.5v3.2h-0.9v-0.8l0,0c-0.3,0.5-0.8,0.8-1.4,0.8C300.3,12.7,299.7,12.1,299.7,11.3z
					 M302.7,10.9v-0.4l-1.1,0.1c-0.6,0-0.9,0.3-0.9,0.7s0.3,0.7,0.8,0.7C302.2,11.9,302.7,11.5,302.7,10.9z"/>
				<path d="M304.5,14.3v-0.8c0.1,0,0.2,0,0.3,0c0.4,0,0.7-0.2,0.8-0.7l0.1-0.3L304,8h1l1.2,3.7l0,0l1.2-3.7h1l-1.7,4.8
					c-0.4,1.1-0.8,1.5-1.8,1.5C304.8,14.3,304.5,14.3,304.5,14.3z"/>
			</g>
		</g>
	</g>
</g>
<g>
	<path class="st16" d="M243.4,7.5h-2.1h-2.4h-2.1v2.1V15h2.1V9.6h2.4V15h2.1V9.6h2.4V15h2.1V9.6V7.5h-2.1H243.4z"/>
	<path class="st16" d="M223.8,9.6h2V7.5h-2V5h-0.1l-3.6,3.1v1.5h1.6v3.2V15h2.1h2.2v-2.2h-2.2V9.6z"/>
	<path class="st16" d="M232.7,8.2c-0.7-0.6-1.4-0.8-2.2-0.8c-2.1,0-3.5,1.6-3.5,3.8s1.4,3.8,3.5,3.8c0.8,0,1.5-0.2,2.2-0.8V15h2V7.5
		h-2V8.2z M230.9,13.2c-1.2,0-1.9-0.9-1.9-2s0.7-2,1.9-2s1.8,0.9,1.8,2S232.1,13.2,230.9,13.2z"/>
	<path class="st16" d="M270.1,7.5v0.7c-0.7-0.6-1.4-0.8-2.2-0.8c-2.1,0-3.5,1.6-3.5,3.8s1.4,3.8,3.5,3.8c0.8,0,1.5-0.2,2.2-0.8V15h2
		V7.5H270.1z M268.3,13.2c-1.2,0-1.9-0.9-1.9-2s0.7-2,1.9-2c1.2,0,1.8,0.9,1.8,2S269.5,13.2,268.3,13.2z"/>
	<path class="st16" d="M255.3,8.2c-0.7-0.6-1.4-0.8-2.2-0.8c-2.1,0-3.5,1.6-3.5,3.8s1.4,3.8,3.5,3.8c0.8,0,1.5-0.2,2.2-0.8V15h2V7.5
		h-2L255.3,8.2L255.3,8.2z M253.5,13.2c-1.2,0-1.9-0.9-1.9-2s0.7-2,1.9-2s1.8,0.9,1.8,2S254.6,13.2,253.5,13.2z"/>
	<path class="st16" d="M261.4,8.2V7.5h-2.1V15h2.1v-4.7l2.5-0.9V7.3l-0.1-0.1L261.4,8.2z"/>
</g>
</svg>
