<?xml version="1.0" encoding="utf-8"?>
<!-- Generator: Adobe Illustrator 23.1.0, SVG Export Plug-In . SVG Version: 6.00 Build 0)  -->
<svg version="1.1" id="Layer_1" xmlns="http://www.w3.org/2000/svg" xmlns:xlink="http://www.w3.org/1999/xlink" x="0px" y="0px"
	 viewBox="0 0 348.5 61" style="enable-background:new 0 0 348.5 61;" xml:space="preserve">
<style type="text/css">
	.st0{fill:#314528;}
	.st1{fill:#CC4E00;}
</style>
<g>
	<g>
		<g>
			<path class="st0" d="M15.4,17c0,0.1,0.1,0.1,0.1,0.1h0.1c0.2-0.3,0.2-0.4,0.3-0.7c0.1,0,0.2-0.1,0.1-0.1C15.8,16,16,15.8,16,15.7
				c0.2-0.2,0.6-0.4,0.2-0.8c0.2-0.1,0.2-0.1,0.3-0.1v-0.7l0.3-0.3c0.1-0.2,0.1-0.3,0.1-0.3s0.1-0.2,0.2-0.4c-0.3-0.2-0.3-0.4,0-0.7
				c-0.2-0.4,0.2-0.6,0.2-1c0-0.2,0.1-0.3,0.3-0.2c0,0,0-0.1,0.1-0.1l-0.2-0.3c0.2-0.4,0.3-0.8,0.3-1.1c0-0.2,0.3-0.3,0.3-0.6
				c-0.1-0.3,0.1-0.6,0.4-0.7c-0.3-0.2-0.2-0.4-0.1-0.7l1.1-2.5c0.2-0.5,0.8-1,1.4-0.9l1.5,0.2c0.2,0,0.5,0.1,0.8,0.2h0.3
				c0.5-0.2,1-0.3,1.6-0.2h0.4c1.1,0.1,2,0.1,2.8,0.1c0.7,0.4,0.4,0.9,0.8,1.3c0.2,0.4,0.2,1,0.4,1.4c0.2,0.5,0.4,1,0.2,1.4
				c-0.1,0.4,0.2,1,0.1,1.3c0.1,0.2,0.2,0.3,0.3,0.6c0.4,1.2,0.7,2.4,1.1,3.6c0.2,0.7,0.2,1.4,0.4,2.1c0.1,0.8,0.1,1.7,0.4,2.4
				c0.1,0.2,0,0.3,0.1,0.4c0,0.4,0.1,0.7,0.1,1.1c0.1,0.9,0.6,1.7,0.4,2.7c0,0.1,0,0.1,0.1,0.1c0.2,0.8,0.2,1.6,0.2,2.4
				c0,0.5,0.1,0.9,0.3,1.2c0.1,0.2,0.1,0.3,0.1,0.4c0.2,0.8,0.2,1.6,0.4,2.5c0.2,0.6,0.2,1.2,0.4,1.8c0.3,0.7,0.3,1.5,0.4,2.2
				c0.1,0.3,0.1,0.6,0.2,0.8c0.2,0.4,0.6,0.9,0.4,1.5c0,0,0,0.1,0,0.2c0.2,0.6,0.3,1.4,0.8,2c0.2,0.1,0.2,0.2,0.2,0.3
				c-0.1,0.4,0.2,0.7,0.4,1.1c0.1,0.2,0.1,0.2,0.1,0.3c-0.2,0.2-0.5,0.2-0.4,0.6c0.2,0,0.3,0.1,0.5,0.2L36,41c0.6,0.2,1,0,1.4,0.4
				c-0.2,0.2-0.4,0.1-0.4,0.3c-0.2,0.1-0.2,0.3-0.2,0.5c-0.2-0.2-0.1-0.4-0.5-0.3c0,0.1,0,0.2-0.1,0.2v0.7c0,0.3-0.2,0.4-0.4,0.4
				c-0.3-0.1-0.7-0.1-1-0.1c-0.2-0.1-0.4-0.2-0.5,0c-0.2,0.2-0.4,0.2-0.8,0.2c0-0.2-0.1-0.2-0.1-0.3c0-0.1,0.2-0.1,0.2-0.1
				c0-0.1-0.1-0.1-0.1-0.1c-0.2,0-0.3,0-0.4-0.1c0.2,0.6,0.1,0.7-0.6,0.5c0.1-0.1-0.1-0.3-0.1-0.4l-0.2,0.4c-0.6,0-1.1,0.1-1.6,0.1
				c-0.5,0-1.1,0.2-1.6,0.1c-0.5-0.1-0.9,0.2-1.5,0.1c0-0.1-0.1-0.2-0.1-0.2l-0.2-1.7l-0.2-1.2c0-0.3-0.1-0.5-0.1-0.7
				c0-0.7,0.1-1.4-0.3-2.1c-0.1-0.2-0.2-0.4-0.2-0.7c0-1.1-0.4-2.1-0.6-3.2c-0.2-0.8-0.4-1.6-0.7-2.3c-0.2-0.4-0.3-0.7-0.7-1
				c-0.2-0.1-0.4-0.2-0.6-0.1c-0.4,0.2-0.7,0.2-1.1,0.3c-0.8,0.1-1.6,0.4-2.4,0.6c-0.7,0.3-1.2,0.8-1.3,1.6c-0.2,0.5-0.2,1-0.4,1.5
				l-1.1,3.1L17,39.8c-0.1,0.2-0.1,0.3-0.1,0.3c-0.4,0.6-0.6,1.3-0.8,2c-0.1,0.6-0.2,1.1-0.4,1.5C15.5,44,15.3,44.1,15,44
				c-0.4-0.1-0.7,0-1.1,0.1c-0.9,0.3-1.8,0.1-2.7,0.2c-0.2,0-0.3-0.2-0.4-0.2c-0.4,0.2-0.6,0-0.9-0.2c-0.3-0.1-0.6-0.1-0.7,0.2
				c-0.1,0.2-0.2,0.2-0.4,0.2C8.4,44.1,7.9,44,7.5,44c-0.2,0.1-0.3,0-0.2-0.3l0.2-1.1c0.1-0.4,0.2-0.8,0.4-1.2
				c0.1-0.3,0.1-0.6,0.3-1l-0.2-0.5l0.3-0.2c0.2-0.3,0.1-0.6,0.2-0.8l0.4-1.2c0.1-0.2,0.2-0.4,0.3-0.6c0.1-0.1,0.2-0.2,0.2-0.3
				c0.2-0.6,0.4-1.2,0.8-1.7c0.1-0.1,0.1-0.2,0.1-0.2c0.1-0.4,0.2-0.7,0.2-1l0.2-0.9l0.2-0.7c0-0.3,0.1-0.5,0.1-0.8
				c0-0.3,0.1-0.6,0.2-0.7c0.2-0.3,0.4-0.4,0.2-0.8c0-0.2,0-0.2,0.1-0.2c0.2-0.4,0.3-0.6,0.3-1c0.4-0.4,0.3-0.9,0.4-1.4
				c0-0.4,0.2-0.9,0.2-1.3c0.1-0.7,0.3-1.3,0.5-2c0.1-0.2,0.2-0.3,0.4-0.4l-0.3-0.3l0.4-0.4c-0.2-0.3-0.2-0.4-0.2-0.4
				c0.2-0.4-0.1-0.5-0.3-0.7c0.1-0.2,0.2-0.4,0.2-0.7c0.2,0.1,0.3,0.3,0.6,0.5c0.1-0.2,0.2-0.2,0.2-0.2c0.1-0.6,0.3-1.1,0.5-1.6
				c0-0.2-0.1-0.3,0.1-0.3c0.2-0.2,0.3-0.4,0.5-0.7c0.2-0.2,0.2-0.4,0.2-0.6c-0.1-0.3-0.1-0.5,0.1-0.7L15.4,17z M15.4,17.5
				c0,0.1,0,0.2,0,0.2c0,0.1,0,0.2,0.1,0.3C15.6,17.7,15.6,17.5,15.4,17.5z M16.5,18.2C16.4,18,16.2,18,16,18.3
				C16.2,18.2,16.4,18.2,16.5,18.2z M16.4,17.5c0,0.1,0.1,0.1,0.1,0.1s0.1,0,0.1,0.1c0.2-0.2,0.4-0.3,0.2-0.7
				C16.5,17.2,16.5,17.4,16.4,17.5z M17.3,13L17.3,13c0.1,0,0.2-0.1,0.2-0.2s0-0.1-0.1-0.1C17.3,12.9,17.3,13,17.3,13z M17.4,15.1
				h-0.1v0.2c0,0,0,0,0.1,0.1C17.3,15.2,17.4,15.1,17.4,15.1z M25.3,14.1c0.1-0.4,0.7-0.3,0.4-0.7l-2.2,0.2
				c-0.4,0.1-0.8,0.2-1.3-0.1c-0.1,0.2-0.1,0.3-0.1,0.6v0.8c0.1,0.5,0,0.9-0.3,1.2c-0.2,0.2-0.3,0.4-0.1,0.6c0.1,0.2,0.1,0.3,0,0.5
				c-0.4,0.4-0.3,1.1-0.7,1.6c-0.2,0.2,0,0.3,0,0.5c-0.1,0-0.1,0.1-0.1,0.1h-0.1c-0.4,0.2-0.4,0.2-0.4,0.7c0.2,0.4-0.2,1.4-0.5,1.6
				c-0.2,0.2-0.3,0.2-0.2,0.4c0.1,0.2,0.3,0.3,0.6,0.3c0.1,0,0.2,0,0.3-0.1c0.4,0.7,1,0.7,1.7,0.6c0.8-0.1,1.6,0,2.5-0.1
				c0.6-0.1,1.1-0.1,1.6-0.2c0.5-0.1,0.8-0.6,0.8-1.1L26.9,20c0-0.2,0-0.3-0.1-0.3c-0.3-1.1-0.2-2.1-0.3-3.1c0-0.5,0.1-1.1,0.1-1.6
				c0-0.3-0.1-0.4-0.4-0.5L25.3,14.1z M22.9,7.8c0.1,0,0.1,0.1,0.2,0.1l0.1-0.1c0,0-0.1-0.1-0.1-0.2C23,7.6,23,7.6,23,7.6
				C23,7.7,22.9,7.7,22.9,7.8z M23.6,7.3l-0.2,0.3l0.1,0.1l0.2-0.1V7.3z M23.9,6.8c-0.2,0.1-0.1,0.1-0.2,0.2c0.1,0,0.1,0,0.1,0.1
				C23.8,7,23.8,6.9,23.9,6.8L23.9,6.8z M24.7,26.5c0.2,0.2,0.3,0.2,0.4,0.2c0.2-0.1,0.2-0.2,0.1-0.4L24.7,26.5z M26,26.9
				c-0.2,0.1-0.2,0.2-0.1,0.3L26,26.9z M26.7,30.5C26.7,30.5,26.7,30.5,26.7,30.5c-0.1,0.1-0.1,0.1-0.1,0.2c-0.1,0.1,0,0.1,0.1,0.2
				c0.1-0.1,0.1,0,0.2-0.2C26.8,30.6,26.8,30.5,26.7,30.5z M27.3,26l0.2-0.2c0-0.1,0-0.1-0.1-0.1C27.3,25.8,27.3,25.9,27.3,26
				L27.3,26z M27.7,28.9c-0.2,0.1-0.1,0.2-0.2,0.2l0.1,0.1c0.1-0.2,0.2-0.1,0.2-0.2L27.7,28.9z M30.4,42.4c0.5-0.1,0.5-0.1,0.4-0.3
				C30.7,42.3,30.6,42.3,30.4,42.4z M31.6,42.9c-0.3,0-0.4,0-0.6-0.1v0.4c0.3-0.1,0.5-0.2,0.6-0.2V42.9z M31.8,42.3
				c0.2,0,0.3-0.1,0.4-0.1c0.1-0.1,0.1-0.1,0.1-0.3v-0.1c0-0.1-0.1-0.1-0.1-0.1c-0.1,0-0.1,0-0.2,0.1c-0.1,0.1-0.2,0.2-0.4,0.2
				c-0.3,0.1-0.2,0.3,0.1,0.7C31.7,42.5,31.7,42.3,31.8,42.3z M31.9,42.7c0,0.1-0.1,0.1-0.1,0.2c0.1,0,0.1,0.1,0.2,0.2
				c0.1,0,0.1-0.1,0.1-0.1L31.9,42.7z M32.9,41.3c-0.2,0-0.2,0-0.3,0.1v0.1c0.1-0.1,0.2-0.1,0.3-0.1V41.3z M33,42.6
				c0.1,0,0.1-0.1,0.2-0.1l-0.1-0.2V42c-0.2,0.1-0.2,0.2,0,0.3C33,42.4,33,42.5,33,42.6z M34.1,41.2c0-0.3,0-0.2-0.5-0.4
				C33.7,41,33.9,41,34.1,41.2z M33.6,41.5L33.6,41.5l-0.1,0.2c0.2-0.1,0.2-0.1,0.2-0.1c0-0.1-0.1-0.1-0.1-0.2
				C33.7,41.4,33.6,41.5,33.6,41.5z M34.1,40.2c0.2,0.1,0.3,0.2,0.4,0.2c0.1-0.1,0.1-0.1,0.2-0.3c-0.2,0-0.4-0.1-0.6-0.1V40.2z
				 M34.7,41.4c-0.1,0-0.2,0-0.3-0.1v0.2h0.3V41.4z"/>
		</g>
		<g>
			<path class="st0" d="M60.5,21.7c0,0.2-0.3,0.5-0.4,0.7c0,0-0.1,0.1-0.2,0.2c-0.2,0.1-0.3,0-0.4-0.2c-0.2-0.2-0.4,0-0.2,0.2
				c0.1,0,0.2,0.1,0.2,0.1c0,0.1,0.1,0.3-0.2,0.3c0-0.2-0.1-0.3-0.1-0.4h-0.3c-0.1-0.1-0.2,0-0.2-0.2c0-0.1,0.1-0.1,0.2-0.2
				c-0.3-0.1-0.4-0.1-0.4,0.2c0-0.1-0.1-0.2-0.1-0.3c0-0.1,0-0.1-0.1-0.1v0.1c0,0.2-0.2,0.1-0.2,0.3c-0.1-0.1-0.1-0.1-0.2-0.1h-0.1
				c0.1,0.1,0.1,0.2,0.1,0.3c-0.2,0-0.3,0-0.3,0.1c0.1,0.2,0.2,0.3,0.4,0.4c-0.1,0-0.2,0-0.2,0.1c0.2,0,0.2,0.1,0.3,0.1h0.1
				c0,0,0.1-0.1,0.1-0.1c-0.1,0-0.1-0.1-0.2-0.1c-0.1-0.1-0.1-0.1-0.1-0.1V23c0-0.3,0.1-0.4,0.4-0.4h0.4c0.2,0.2,0.2,0.4,0.2,0.6
				h0.1c0.1-0.1,0.1-0.1,0.1-0.1v0.1h0.1c-0.2,0.1-0.2,0.2-0.4,0.2c0-0.1,0-0.1-0.1-0.1c0-0.2-0.1-0.3-0.1-0.3
				c-0.2,0.1-0.3,0.2-0.4,0.2v0.2c0.2,0.2,0.2,0.1-0.2,0.5h-0.3c0.2,0.2,0.2,0.3-0.1,0.5l-0.6,0.6c-0.3,0.2-0.2,0.4-0.1,0.6l0.5,0.8
				c0,0.2-0.2,0.1-0.2,0.3c0.2,0,0.2,0.1,0.3,0.1c0.1,0.2,0,0.2,0.2,0.4h-0.2c0.1,0.1,0.3,0.2,0.3,0.3h-0.3c-0.1,0.1-0.1,0.2,0,0.2
				c0.2,0.1,0.3,0.3,0.2,0.4c-0.2,0,0,0.2,0.1,0.2l0.2,0.2c0,0.2,0.2,0.3,0.3,0.4h-0.2c-0.1-0.1-0.1-0.1-0.1-0.1h-0.1
				c0,0.1,0,0.2,0.1,0.2c0,0.1,0.2,0.3,0.2,0.3c0.2,0.2,0.1,0.4,0.2,0.5c0.2,0.2,0.4,0.1,0.6,0.3l0.3-0.3c0,0.3,0.3,0.5,0.1,0.8
				l-0.4-0.3v0.1c0.2,0.2,0.1,0.3,0.3,0.5c0.2-0.1,0.3-0.1,0.3-0.2c0,0.2,0.1,0.3,0.3,0.3v0.4c0.4,0,0.3,0.2,0.4,0.4
				c0,0.1,0.1,0.2,0.1,0.2c0.2,0.3,0.2,0.6,0.2,0.8c0,0.1,0,0.1,0.1,0.1C61,33,61,33,61.1,33c0,0.1,0.1,0,0.1,0.2
				c0.2,0,0.3,0.2,0.3,0.4c0,0.1-0.1,0.2,0.1,0.3v-0.3h0.1c0.1,0.1,0.1,0.2,0.1,0.3c0.2,0.1,0.2,0.2,0.2,0.3c0,0.1-0.1,0.1-0.2,0.1
				v0.1c0.2,0,0.3-0.1,0.3-0.1c0.1,0.2,0,0.3,0.2,0.5c0,0.1,0.1,0.2,0.2,0.3c0.2,0.2,0.2,0.3,0,0.4c0.1,0.1,0.2,0,0.2,0.2
				c0.2,0.2,0.3,0.3,0.3,0.5c0,0.2,0.1,0.2,0.2,0.4c0.2,0.3,0.4,0.6,0.6,1c0,0.2,0.1,0.3,0.1,0.4c0.3,0,0.2,0.3,0.4,0.5
				c-0.2,0.4-0.3-0.2-0.5,0c0,0.3,0.2,0.4,0.5,0.2c0.1,0,0.2,0.1,0.2,0.3c0,0.1,0.3,0.2,0.2,0.4h-0.2c0.1-0.4,0-0.6-0.3-0.6
				l-0.1,0.1c-0.1,0.1-0.1,0.1-0.1,0.1h0.1l0.4,1c0.1,0.1,0.2,0.2,0.3,0.3c-0.2,0.1-0.4,0.1-0.3,0.3h0.1c0.1,0.1,0.1,0.1,0.1,0.1
				c0-0.1,0.1-0.2,0.1-0.2h0.1c-0.4,0.4,0,0.5,0.2,0.7l0.2,0.2c-0.1,0.1-0.2,0-0.2,0.2c-0.1,0-0.1,0-0.1-0.1v-0.1h-0.4
				c-0.1,0.2,0.2,0.3,0.2,0.3c0.1,0.1,0.2,0.2,0.1,0.3v0.4c0.2-0.2,0.3-0.4,0.6-0.6c0.1,0.1,0.1,0.3-0.1,0.5
				c0.1,0.1,0.2,0.1,0.3,0.1h0.3c0,0.1,0.1,0.2,0.2,0.3c-0.1-0.1-0.2-0.1-0.3-0.1c-0.2,0.2-0.2,0.3,0,0.3c0.1-0.1,0.1-0.1,0.1-0.2
				c0.1,0,0.1,0,0.2-0.1l0.2,0.5c0.2,0,0.1,0.1,0.2,0.1c-0.1,0.2-0.1,0.3-0.2,0.1h-0.2c-0.2,0.1-0.3-0.1-0.4,0.1
				c-0.2,0-0.1-0.1-0.2-0.1c-0.2-0.1-0.3-0.1-0.4,0.1h-0.6h-0.5c-0.4,0-0.6-0.2-1,0c-0.3,0-0.6,0-0.8-0.1h-2.2c-0.6,0-1.3-0.1-2-0.1
				c-0.2,0-0.3-0.1-0.4-0.2l-0.6-1.3c-0.1-0.4-0.2-0.6-0.3-1c-0.2-0.4-0.4-0.7-0.7-1.2c-0.1-0.4-0.2-0.7-0.4-1l-0.5-1
				c-0.2-0.2-0.2-0.4-0.3-0.5c-0.2-0.5-0.5-0.9-0.7-1.3c-0.1-0.2-0.2-0.4-0.3-0.7c-0.2-0.2-0.2-0.3-0.2-0.4l-0.5-1
				c0-0.1-0.1-0.2-0.2-0.2c-0.2-0.6-0.3-1.2-0.7-1.7c-0.2-0.5-0.4-1-0.7-1.3c-0.2-0.2-0.1-0.3-0.3-0.5l-1.1-1.8
				c-0.2-0.3-0.3-0.6-0.6-1c0-0.2-0.2-0.2-0.3-0.3c-0.2-0.4-0.4-0.7-0.8-0.8c-0.1-0.2-0.4-0.2-0.4-0.1c-0.2,0.2-0.3,0.3-0.3,0.4
				c-0.2,0.7-0.2,1.3-0.3,2c0,0.2-0.1,0.2-0.1,0.4h-0.2v0.3C46.8,29,46.6,29,46.4,29v0.3c0.1,0.1,0.4,0,0.6-0.2
				c0,0.3-0.1,0.6,0.1,0.8c-0.1,0-0.2,0.1-0.3,0.2h0.1v0.6v0.1l-0.1-0.1h-0.2l0.2-0.2c-0.2-0.2-0.2-0.3-0.2-0.3
				c-0.1,0-0.2,0.1-0.2,0.2c0.1,0.1,0,0.2,0.2,0.3c0,0.1,0,0.1,0.1,0.1c0,0.1,0,0.1,0.1,0.1c0.3,0,0.1,0.2,0.3,0.5
				c-0.1,0-0.1-0.1-0.1-0.1v-0.1c-0.1,0.1-0.1,0.1-0.1,0.2v0.2c0,0.1,0,0.1,0.1,0.1c-0.2,0.2-0.3,0.1-0.4-0.1
				c-0.2,0.2-0.2,0.3-0.2,0.4h0.2c0.1,0,0.1,0.1,0.1,0.2h0.1v-0.3H47c-0.2,0.6-0.1,1.2-0.2,1.8c-0.2,0.2-0.3,0.1-0.5,0.2
				c0,0.4,0.2,0.1,0.4,0.2c0,0.2-0.1,0.1-0.1,0.2h-0.3c0.1,0.1,0.2,0.2,0.3,0.3h-0.1c-0.1,0-0.2-0.1-0.2-0.1c0,0.1,0.1,0.2,0.1,0.2
				c-0.1,0,0,0.1-0.2,0.1v0.4l-0.3-0.2L45.8,35c0.2,0.3,0.2,0.4,0.4,0.7v-0.3c0.1,0.1,0.1,0.1,0.1,0.1h0.1h0.1
				c0-0.1-0.1-0.1-0.1-0.1c-0.1,0-0.1,0-0.1-0.1c-0.1-0.2-0.1-0.2-0.2-0.2l0.1-0.1c0-0.2,0-0.3,0.1-0.4c0.1,0,0.2,0,0.3-0.1
				c0,0.5-0.1,1-0.2,1.3c0,0.2,0,0.4-0.2,0.6l0.1,0.1c0,0.3-0.1,0.6-0.1,0.8c0,0.2,0.1,0.3,0.1,0.3c0,0.2-0.1,0.2-0.1,0.3
				c0.1,0.2,0.1,0.4-0.1,0.6V39c-0.1,0.2-0.1,0.3,0.1,0.3c0,0.4,0,0.8-0.2,1.2c0,0.2,0.4,0.3,0,0.4v0.3v1.1c-0.2-0.1-0.5-0.4-0.6,0
				c-0.2,0-0.2-0.1-0.4-0.1v0.2c-0.1,0.1-0.3,0.2-0.4,0.2c-0.4,0-0.8,0.1-1.2,0.1c-0.3,0.1-0.4,0-0.6,0.2c-0.2,0-0.4,0-0.6,0.1
				c-0.6,0.2-1.2,0.1-1.8,0.3c-0.7,0.1-1.2,0-1.9,0.2c-0.3,0-0.4-0.1-0.4-0.3c0.2-0.4,0-0.6,0-1c0-0.2,0.1-0.1,0.1-0.3v-1.8v-1
				c0.1-0.5,0-1,0.2-1.6c0-0.4,0.1-0.7,0.1-1.1c0.1-0.1,0.1-0.1,0.1-0.2c-0.2-0.3,0-0.6,0-0.9c0.1-0.2,0-0.3,0.1-0.4
				c0-0.6-0.1-1.1,0.1-1.6c0-0.5,0.1-0.8,0.1-1.2c0-0.4-0.1-0.8,0.1-1.1c0.1-0.4,0.1-0.7,0.1-1.2c0-0.4,0.2-0.7,0.2-1.1
				c0-0.2-0.1-0.4-0.1-0.6c0.1-0.5,0.1-1.1,0.1-1.7v-1.3c0-0.4,0.1-0.7,0.1-0.9c0.1-0.4,0.1-0.8,0.1-1.3c0.2-0.5,0.1-1,0.1-1.5v-1
				v-1.7c0-0.8-0.1-1.5-0.1-2.3c0-0.5,0.1-1.2,0.1-1.7v-0.8c0-0.6-0.1-1.2-0.1-1.9c0-0.2,0.1-0.4,0.2-0.6v-0.3
				c-0.1-0.4,0-0.8-0.2-1.3V9.5c0.2-0.5,0-1,0-1.5V6.8c0-0.4-0.1-0.7,0.1-1c0-0.1,0.1-0.2,0.1-0.3c0.1-0.1,0.1-0.2,0.1-0.3
				c0-0.1,0.1-0.2,0.3-0.3c0.3,0,0.6-0.1,0.8-0.2h0.2c0.4,0.2,0.7,0.3,1.1,0.1h0.2c0.2,0,0.5,0.1,0.7,0.1c0.2,0.1,0.3,0.1,0.5-0.2
				l0.2-0.2l-0.1,0.1v0.1c-0.1,0.1,0,0.2,0.2,0.3c0.5,0,1.1,0.1,1.5,0.1c0.3,0,0.6,0.1,0.7,0.1c0.3,0.1,0.6,0,1,0
				c0.3,0,0.5-0.1,0.7-0.1s0.3,0,0.5,0c0.2,0.2,0.4,0.2,0.6,0.3h0.2c0.4,0,1-0.1,1.4-0.1c0.3-0.2,0.7-0.1,0.9-0.1
				c0.1,0,0.2,0,0.2-0.1c0.2-0.2,0.4-0.4,0.5-0.4c0.1,0,0.1-0.1,0.2-0.2c0.2,0.2,0.2,0.3,0.1,0.3c0.2-0.1,0.2-0.2,0.4-0.2
				c0.2-0.1,0.2-0.1,0.2,0.1c0,0.1,0.1,0.2,0.3,0.2c0.1-0.1,0.2-0.1,0.4-0.1l-0.1,0.1v0.1c0,0.1,0,0.1,0.1,0.1
				c0.1,0.1,0.1,0.1,0.2,0.1c0.1-0.1,0.2-0.2,0.2-0.2c0.2-0.2,0.1-0.1,0.2-0.3v0.2c-0.1,0.2,0,0.3,0.2,0.3h0.7
				c0.3,0,0.6,0.1,0.7,0.2c0.4,0.1,0.7,0.2,1.1,0.3c0.1,0,0.2-0.1,0.4-0.1c0.1,0.1,0.1,0.2,0.2,0.3c0.2-0.1,0.1-0.2,0.3-0.2
				c0.1,0,0.2,0.1,0.3,0.2c0.2,0,0.2,0.2,0.2-0.1L58,5.8V6c0.2,0,0.2-0.1,0.4-0.1c0.2,0.1,0.2,0.2,0.3,0.2c0.4-0.2,0.5,0,0.7,0.1
				c0.3,0,0.6,0,0.8,0.2c0.3,0.1,0.5,0,0.7,0.2c0.4,0.3,0.8,0.3,1.2,0.4c0.4,0.2,0.6,0,0.8-0.2c0-0.1,0.1-0.2,0.2-0.2
				c0.1,0.2,0.1,0.3,0,0.4C63,7.1,63,7.3,62.8,7.4c0,0.1,0,0.1,0.1,0.1L63,7.6c-0.2,0.3-0.1,0.6,0.2,1l0.2,1.1
				c0.2,0.1,0.1,0.2,0.2,0.3c0.2,0.4,0,0.8,0.2,1.2c0,0.1-0.1,0.2-0.1,0.4c0.2,0.4,0.1,1,0.1,1.5c0,0.2,0.1,0.4-0.1,0.7
				c0,0.5-0.1,1.1-0.1,1.5c-0.1,0.5-0.2,0.9-0.3,1.3c-0.2,0.5-0.4,1-0.6,1.5c-0.1,0.3-0.2,0.6-0.4,0.8V19c0,0.4-0.3,0.6-0.3,1
				c0,0.1-0.3,0.2-0.4,0.3c0,0.1-0.1,0.1-0.2,0v-0.1c0.1-0.2,0.2-0.3,0.2-0.6v-0.2c-0.1,0.2-0.3,0.2-0.3,0.4c0,0.2-0.1,0.3-0.1,0.4
				c-0.1,0.1-0.2,0.2-0.2,0.3c-0.2,0.1-0.3,0.3-0.4,0.3v0.2h0.2c0-0.2,0-0.2,0.1-0.2c0.1-0.1,0.2-0.2,0.2-0.3
				c0.2,0.1,0.2,0.3,0.1,0.6c-0.1,0.1-0.2,0.2-0.4,0.2C60.7,21.6,60.5,21.7,60.5,21.7v-0.2h-0.1c-0.1,0-0.2,0.1-0.2,0.1
				c-0.2,0.2-0.2,0.3-0.3,0.3c-0.1,0.1-0.1,0.1,0,0.1c0,0.1,0.1,0.2,0.1,0.2l0.1,0.1L60.5,21.7z M44.3,34.6v0.3h0.1l0.1-0.1
				c0.1-0.1,0.1-0.1,0.1-0.1C44.5,34.7,44.4,34.7,44.3,34.6L44.3,34.6z M45,35.4v0.3c0.2-0.2,0.3-0.1,0.4-0.2c0-0.1,0-0.2-0.1-0.2
				c-0.2-0.1-0.2-0.3-0.2-0.4C45.1,35.1,45,35.2,45,35.4z M45.4,34.8c0.1-0.1,0.1-0.2,0.1-0.3c0.1,0.2,0.1,0.3,0,0.4
				c-0.1,0.1-0.1,0.1-0.1,0.1L45.4,35c0.2,0.2,0.1,0.3,0.2,0.4c0.2-0.2,0.1-0.3,0.2-0.5c0-0.2,0.1-0.3,0.2-0.5
				c-0.2,0-0.5-0.3-0.8-0.2C45.2,34.4,45.4,34.5,45.4,34.8z M45.4,34.1c0-0.2,0.1-0.1,0.1-0.2h0.2V34h0.1L45.7,34
				c0,0.1,0,0.1,0.1,0.1c0,0.1,0,0.1,0.1,0.1h0.1C46,34,46.1,34,46.2,34c0-0.1,0-0.2-0.1-0.2h-0.4c0-0.1-0.1-0.1-0.2-0.2
				c-0.1,0.1-0.1,0.1-0.2,0.1V34.1z M45.4,32.4l0.3,0.2c0.2-0.3,0.2-0.5-0.1-0.6c0,0.1,0,0.2-0.1,0.2c0.1,0,0.2,0.1,0.2,0.1
				C45.7,32.3,45.5,32.3,45.4,32.4z M45.9,33.4c0.1-0.1,0.1-0.1,0.1-0.1c-0.2-0.1-0.3-0.1-0.5,0.1H45.9z M45.6,41.3
				c0,0.1,0,0.1,0.1,0.1c0.1,0.1,0.1,0.1,0.1,0.1h0.1c0-0.2-0.1-0.4-0.1-0.6C45.6,40.9,45.5,41,45.6,41.3z M46.2,30.8
				c-0.2-0.2-0.2-0.1-0.4-0.2c0,0.1-0.1,0.2-0.2,0.3C45.8,31,45.7,31,46.2,30.8z M46.6,32.6L46.6,32.6c-0.2,0-0.1,0.2-0.2,0.2
				c-0.1,0-0.2-0.1-0.3-0.2v0.5c-0.1-0.1-0.2-0.2-0.3-0.3c-0.1,0.2,0,0.3,0.2,0.3c0.1,0,0.2-0.1,0.3-0.2V33c0.1,0.1,0.3,0.2,0.4,0.2
				C46.7,32.9,46.7,32.8,46.6,32.6z M45.9,39.3c0-0.2,0-0.4,0.1-0.5c-0.4,0.2,0,0.3-0.2,0.5H45.9z M46.3,32.1
				c0.1,0.1,0.1,0.1,0.2,0.3h0.2c0.1,0,0.1,0,0.1-0.1v-0.1C46.6,32.1,46.4,32.1,46.3,32.1c-0.1-0.2-0.2-0.2-0.4,0
				c0.2,0,0.2,0.1,0.2,0.1c0,0.1-0.1,0-0.1,0.2h0.1c0.1,0,0.1,0,0.1-0.1v-0.1C46.3,32.3,46.3,32.3,46.3,32.1L46.3,32.1z M46.7,31.2
				c0-0.4,0-0.4-0.3-0.4c0.1,0.2,0.3,0.3-0.1,0.4H46.7z M46.3,33.7c0.3-0.1,0.4-0.2,0.2-0.4C46.4,33.4,46.4,33.6,46.3,33.7z
				 M46.8,14.4v0.3c0.1-0.1,0.1,0,0.3-0.2C46.9,14.4,46.9,14.4,46.8,14.4z M48.4,18.6c0.3,0.2,0.6,0.2,0.9,0c0.9,0,1.6-0.2,2.5-0.2
				c0.4,0,0.7-0.1,1-0.3c0.4-0.4,0.7-0.6,1.2-0.8c0.2-0.3,0.6-0.4,0.9-0.8c0.2-0.4,0.4-0.8,0.4-1.2c-0.2-0.2,0.1-0.3-0.1-0.5
				c0-0.3-0.1-0.6-0.2-0.9c0-0.2-0.1-0.3-0.2-0.4c-0.4-0.3-0.8-0.6-1.3-0.9c-0.4-0.4-0.8-0.3-1.5-0.5h-1.3c-0.2,0-0.2-0.1-0.4-0.1
				c-0.3,0.1-0.5,0.1-0.7-0.2c-0.3-0.2-0.6-0.2-1-0.1c-0.2,0-0.3,0.3-0.2,0.5v0.2v1.1l-0.2,1.6c0,0.3-0.2,0.5-0.2,0.7
				c-0.1,0.4,0,0.7-0.2,1.1c-0.1,0.3,0,0.6-0.2,0.8C47.7,18.3,48,18.6,48.4,18.6z M51.8,5.1c0.2,0,0.3-0.1,0.4-0.2
				C51.9,4.8,51.8,4.9,51.8,5.1z M54.5,23.6c0.1,0,0.1-0.1,0.2-0.1v-0.1l-0.2-0.2V23.6z M55.2,22.5c0.1,0,0.2-0.1,0.2-0.3
				c0-0.1-0.1,0-0.1-0.2c-0.1,0.1-0.1,0.2-0.2,0.2v0.2c-0.1,0-0.3,0.1-0.4,0.1c0.2,0.2,0.4,0.2,0.6,0.2c-0.1,0-0.2-0.1-0.3-0.1
				C55.1,22.6,55,22.5,55.2,22.5z M56.6,22L56.6,22c0,0.1,0.1,0.1,0.1,0.2c0.4,0,0.2-0.3,0.3-0.4C56.7,21.9,56.6,21.8,56.6,22z
				 M57.3,22.4c-0.2,0.2-0.3,0.1-0.3,0.2c0,0.2,0.1,0.2,0.1,0.4h0.3h0.1c0,0,0.1-0.1,0.1-0.1c-0.1,0,0-0.1-0.2-0.1
				c-0.1-0.1-0.1-0.1-0.1-0.2V22.4z M57.5,23.7h0.4H57.5z M58.7,20.1L58.6,20c-0.1,0-0.2,0-0.2,0.1v0.3c0.2,0.1,0.1,0.2,0.2,0.3v0.2
				c0.2-0.2,0.3-0.3,0.3-0.4C58.7,20.4,58.6,20.3,58.7,20.1z M59.4,21.8c0-0.1,0.1-0.3,0.2-0.4c-0.3,0.2-0.1,0.3-0.3,0.3L59.4,21.8z
				 M59.9,31h-0.3c0,0.1,0.1,0.2,0.1,0.2c0,0.2,0.1,0.1,0.1,0.3v0.2c-0.2,0.2-0.3,0.1-0.5,0.3c0.2,0.1,0.3,0.2,0.5,0.2h0.1h0.6v-0.4
				h-0.3c-0.2-0.2,0.1-0.5-0.3-0.3C59.9,31.2,60,31.1,59.9,31z M59.9,21.2c-0.1-0.3-0.2-0.4-0.4-0.4L59.9,21.2z M59.6,21.7h-0.1v0.5
				h0.1l0.2-0.2c-0.1,0-0.2,0-0.2-0.1V21.7z M60.4,32.3h-0.2v0.2c0-0.1,0.1-0.1,0.2-0.1V32.3z M61.6,7.6c0-0.2-0.1-0.1-0.1-0.3
				l-0.1-0.1c0.2-0.2,0-0.1-0.2-0.3c-0.1,0.2-0.2,0.1-0.2,0.2c-0.1,0-0.1,0.1-0.2,0.1C61.3,7.4,61.4,7.4,61.6,7.6L61.6,7.6z
				 M62.1,42.6v-0.2v-0.2v-0.3c-0.2-0.1-0.3,0.1-0.3,0.2c-0.1,0-0.1,0.1-0.1,0.1c0,0.1,0,0.1,0.1,0.1c0.2,0.1,0.2,0.2,0.1,0.3H62.1z
				 M62.6,41.4c0,0.1,0.1,0.2,0.2,0.2C62.8,41.4,62.8,41.3,62.6,41.4z M63.4,40.9c0.1-0.1,0.2-0.1,0.4,0H64v-0.1
				c-0.1-0.2-0.4-0.2-0.6-0.1c-0.1-0.1-0.1-0.1-0.1-0.1v-0.1H63c-0.1,0,0-0.1-0.2-0.1v0.2c0,0.2,0.1,0.3,0.3,0.3H63.4z M63.9,40.3
				L63.9,40.3h0.2c0.1-0.2,0.1-0.3,0-0.4c-0.2-0.2-0.3,0-0.5,0.1L63.9,40.3z M64.7,42.9c0,0.2,0.1,0.3,0.1,0.3h0.1
				c0.1,0,0.1,0.1,0.1,0.1C64.9,43.1,64.9,43.1,64.7,42.9z M65,42.8c0.2,0.2,0.1,0.3,0.2,0.4C65.4,43,65.3,42.8,65,42.8z"/>
		</g>
		<g>
			<path class="st0" d="M94.3,24.4c-0.1,0.2-0.2,0.2-0.2,0.2c-0.2-0.2-0.2-0.4,0-0.7c0.2-0.2,0.2-0.4,0.2-0.6
				c-0.2-0.2-0.4-0.2-0.4-0.2c0.1-0.2,0.1-0.3,0.1-0.4c-0.4-0.2-0.2-0.5-0.4-0.8c-0.1,0-0.2,0-0.2-0.1c-0.3-0.1-0.4,0-0.4,0.2
				c-0.1,0.1-0.1,0.3-0.1,0.6c0,0.1,0,0.1,0.1,0.2c0.4,0.4,0.1,0.6,0.1,0.9c0,0.1-0.1,0.2-0.1,0.2c-0.2,0.1-0.3,0.3-0.4,0.7
				c-0.2,0.7,0.1,1.3-0.3,2C92,27.4,92,28.2,91.8,29l-0.5,2.6L90.9,33c0,0.3,0.1,0.6-0.1,1c-0.2,0.8-0.4,1.7-0.6,2.6
				C90.1,37,90,37.3,90,37.7L89.8,38c-0.2,0.1-0.2,0.2-0.2,0.5v1c-0.1,0.4-0.2,0.9-0.2,1.3c0,0.1,0,0.1-0.1,0.1
				c-0.1,0.2-0.2,0.4-0.1,0.6c0,0.2-0.1,0.2-0.1,0.2c-0.1,0.5-0.1,1.1-0.1,1.7v0.2c-0.2,0.1-0.3,0.2-0.6,0.3C88.5,44,88.3,44,88,44
				c-0.2,0-0.3-0.1-0.4-0.1c-0.5,0.1-1.1,0.1-1.5,0.1c-1,0.1-1.8,0.1-2.7,0.1c-0.6,0.1-1.1,0.1-1.7,0.1c-0.3,0-0.4-0.1-0.5-0.3
				c-0.2-0.4-0.2-0.8-0.2-1.2c0-0.3-0.1-0.6-0.2-0.7c-0.1-0.1-0.1-0.2-0.1-0.3c-0.2-0.5-0.2-1.1-0.3-1.6c-0.2-0.7-0.2-1.2-0.3-1.8
				c-0.2-0.6-0.1-1.1-0.3-1.7c-0.2-0.7-0.2-1.4-0.4-2.1c-0.2-0.4-0.1-1-0.2-1.3c-0.2-0.7-0.3-1.5-0.7-2.2c-0.4-0.6-0.6-1.3-1-2
				c-0.4-0.5-0.4-1.1-0.7-1.7c-0.4-0.7-0.6-1.2-1-1.8c-0.3-0.4-0.6-0.5-0.9-0.2c-0.2,0.2-0.3,0.5-0.3,0.9c0,0.5,0,1-0.1,1.6L74.2,30
				c-0.1,0.9-0.2,1.8-0.2,2.8c0,1-0.2,2-0.3,2.9c-0.1,0.3-0.2,0.6-0.2,1c0,0.6,0,1.2,0.1,1.8c0,0.8,0.1,1.6,0.1,2.4
				c0,0.8,0.1,1.5,0.2,2.4c0,0.2,0.1,0.4,0.3,0.5l0.5,0.3c0.3,0.3,0.3,0.6-0.1,0.9c-0.3,0.1-0.5,0.2-0.8,0.1c-0.4,0-0.7,0-1-0.4
				c-0.2-0.2-0.3-0.3-0.6-0.2c-0.3,0-0.5,0.1-0.8,0.3c-0.4,0.2-0.7,0.2-1.1,0c-0.4-0.2-1-0.3-1.5-0.4c-0.5-0.1-1-0.1-1.5-0.1
				c-0.4-0.1-0.4,0-0.4-0.4c-0.2-1.1,0-2,0-2.9v-1.8c0-0.3,0.1-0.6,0.1-0.8c-0.1-0.5-0.1-1.1,0.1-1.8v-0.4c-0.1-0.4-0.1-0.7-0.1-1
				c0-0.4,0.1-1,0.1-1.5c0-0.9-0.1-1.8,0.2-2.7c0.1-0.1,0.1-0.1,0.1-0.2c0.1-0.6,0.1-1.1,0.1-1.7l0.2-1.8c0.2-1.1,0.3-2.1,0.2-3.1
				c-0.1-0.4,0.1-0.8,0.1-1.3c0-0.4,0-0.7,0.1-1V21c0-0.6,0.2-1.2,0-1.7c-0.1-1.1-0.1-2,0.1-2.9v-0.3c0-0.3-0.1-0.4-0.1-0.7v-2.2
				c0-0.4-0.1-0.8,0-1.2c0.2-0.6,0.1-1-0.1-1.5c-0.1-0.4-0.1-0.9-0.1-1.4c0.1-0.2,0.1-0.4,0.1-0.7c0-0.5,0-1,0.2-1.5
				c0.1-0.4,0.2-0.7,0.2-0.8c0.1-0.4,0.2-0.6,0.6-0.6c0.1-0.1,0.3-0.1,0.4-0.1c0.5-0.1,1,0,1.4-0.2c0.6-0.2,1.1-0.2,1.7-0.3
				c0.2,0,0.2,0.1,0.3,0c0.7-0.2,1.4,0.1,2.1,0.3c0.3,0.2,0.7,0.3,1.1,0.4c0.2,0,0.3,0.1,0.4,0.3c0.1,0.7,0.5,1.3,0.7,2
				c0.1,0.3,0.2,0.5,0.2,0.7c0.1,0.4,0.1,0.7,0.3,1.1c0.4,1.1,0.7,1.9,1,3c0.4,1.1,0.8,2,1.2,2.9c0.2,0.2,0.2,0.4,0.2,0.6
				c0.2,0.6,0.4,1.1,0.7,1.7c0.2,0.2,0.2,0.4,0.2,0.6c0.4,0.7,0.6,1.5,0.9,2.2c0.3,0.8,0.4,1.6,0.7,2.4c0.3,0.8,0.4,1.6,0.7,2.4
				c0.1,0.1,0.1,0.1,0.1,0.3l0.1,0.4c0.2,0.6,0.4,1.2,0.6,1.8l0.1,0.1l1.1,1.8c0.1,0.1,0.2,0.2,0.3,0.2c0.2,0,0.2-0.1,0.2-0.2
				l0.4-1.3c0.1-0.2,0.1-0.4,0.1-0.4c0.2-0.7,0.4-1.3,0.6-2.1c0-0.4,0.1-0.7,0.2-1.1c0-0.1,0-0.1,0.1-0.1c0.1-0.3,0.2-0.4,0.2-0.7
				c0.1-0.1,0.1-0.2,0.1-0.4c0.2-0.6,0.4-1.1,0.6-1.8c0.2-0.7,0.3-1.3,0.6-2.1c0.1-0.4,0.2-0.7,0.2-1c0.1-0.6,0.1-1.1,0.3-1.7
				c0.2-1,0.6-1.8,0.8-2.8c0.2-0.6,0.2-1.2,0.3-1.7l0.5-2c0-0.2,0.2-0.5,0-0.7c-0.3-0.4-0.2-0.7,0.3-0.9h0.1
				c0.2-0.4,0.2-0.9,0.3-1.3c0-0.2-0.1-0.3-0.2-0.4c-0.2-0.3-0.1-0.5,0.2-0.7l0.5-0.5c0.3-0.3,0.6-0.3,1-0.2
				c0.3,0.2,0.3,0.1,0.4-0.3c0.1-0.3,0.2-0.5,0.4-0.5c0.3,0,0.6,0.1,0.7,0.3c0.1,0.2,0.1,0.4,0.2,0.6c0.2,0,0.4,0,0.5-0.1h0.8
				c0.3,0,0.6,0,1-0.1c0.2-0.1,0.4,0,0.6,0c0.4,0.1,0.9,0.1,1.3,0.1c1-0.1,1.9,0.1,3,0.1c0.1,0,0.1,0,0.1,0.1v1.4
				c0,0.4-0.1,0.8-0.3,1.2c0.1,0.1,0.2,0.2,0.2,0.2c0,0.4-0.1,0.8-0.3,1.1c0.4,0.2,0.4,0.4,0,0.4c0.2,0.3,0.3,0.7,0,0.9
				c-0.2-0.1-0.1-0.1-0.3-0.1c-0.2,0.4,0.3,0.2,0.3,0.4c0,0.3-0.1,0.5-0.2,0.7l0.2,0.2c-0.1,0.1-0.1,0.1-0.2,0.1
				c0.1,0.4,0.2,0.6,0.2,1c-0.1,0.4,0.1,1,0,1.6c-0.1,0.4,0,0.9,0,1.3h-0.2c0,0.1,0,0.1,0.1,0.2c0.1,0.1,0.1,0.1,0.1,0.1
				c-0.2,0.2,0,0.4,0,0.6c0.1,0.2,0,0.2,0,0.4s0.2,0.3,0,0.5v0.1c0.1,0.2,0.1,0.5,0.1,0.9c-0.1,0.2-0.1,0.4,0.1,0.7
				c0.1,0.1,0,0.2-0.1,0.3c-0.2,0.4-0.1,0.7-0.1,1.1c0.1,0.3,0,0.6-0.1,0.8c-0.1,0.1-0.1,0.2-0.1,0.3c0.1,0.2,0,0.2,0,0.3
				c-0.1,0.5,0.1,1,0.1,1.5c0.1,0.2,0,0.3,0,0.6c-0.1,0.2-0.1,0.3-0.1,0.6c0.2,0.3,0.2,0.7,0.1,1.1v0.2c0.2,0,0,0.2,0.1,0.3
				c0.2,0.2,0.1,0.2,0.2,0.4c0.2,0.2,0.1,0.4,0.1,0.7c-0.1,0.2-0.1,0.4,0,0.7c0.1,0.4,0.2,0.9-0.1,1.3v0.2c0.2-0.1,0.1-0.1,0.2-0.2
				c0,0.6-0.1,1.1,0,1.5c0,0.2-0.1,0.3-0.2,0.4c0.2,0.3,0.2,0.6,0.1,0.8v0.2c0,0.3,0,0.5-0.1,0.7c0,0.3,0.2,0.5,0.1,0.7
				c0.3,0.2,0.1,0.3-0.1,0.5c0.2,0.2,0.3,0.2,0.3,0.4v1.6c0.1,0.6-0.1,1-0.2,1.6c0,0.9-0.2,1.8-0.4,2.7c0,0.6-0.2,1.1-0.3,1.7
				c0,0.2-0.1,0.4,0.1,0.6c0.3,0.4,0.2,0.6,0.2,1c0,0.2-0.3,0.4-0.6,0.4c-0.3-0.2-0.6-0.2-1-0.2c-0.2-0.1-0.3-0.2-0.3-0.4
				c0-0.2-0.1-0.3-0.1-0.4c-0.1-0.2-0.2-0.3-0.3-0.3c-0.2,0-0.2,0.1-0.2,0.3l-0.2,0.5c-0.4,0-0.7-0.3-1.1-0.4
				c-0.2,0.1-0.4,0.2-0.7,0.4c-0.1,0.1-0.3,0.2-0.5,0.2h-1.7c-0.2,0-0.3-0.1-0.3-0.3c-0.2-0.8-0.2-1.5-0.3-2.2c-0.2-1.1-0.2-2-0.3-3
				c-0.1-0.4,0-0.6,0-1c0-0.3-0.1-0.7,0.1-1.1c0.1,0,0.1,0,0-0.1c-0.1-0.3-0.2-0.5-0.2-0.8l-0.1-1.2c-0.2-0.3-0.2-0.5-0.1-0.7
				c0.1-0.4,0.2-0.6,0.3-0.9c-0.2-0.4-0.1-0.7-0.2-1.1c0.3,0.3,0.3,0.3,0.6,0.2c0-0.4-0.3-0.3-0.5-0.5v-0.6l0.3-0.1
				c-0.2-0.5-0.6-0.8-0.4-1.5c0.2-0.5,0.1-1.1,0.3-1.6c-0.3,0.1-0.4-0.1-0.6-0.2c0.2-0.3,0.2-0.3,0.2-0.7c0-0.1,0.1-0.1,0.1-0.1
				s0.2,0.1,0.2,0.1c0-0.2-0.2-0.1-0.2-0.1c-0.1-0.2-0.1-0.2-0.1-0.2c0-0.4-0.1-0.6-0.2-0.7V26c0-0.1,0-0.2,0.1-0.2
				c0.2-0.1,0.1-0.3,0.2-0.4h-0.3c0-0.2,0.1-0.2,0.2-0.1c0.2,0.1,0.3,0,0.2-0.2c-0.1-0.2,0.2-0.3,0.1-0.5
				C94.2,24.6,94.3,24.6,94.3,24.4z M88.4,43.3l-0.3-0.2h-0.6l-0.2,0.2c0.1,0.2,0.1,0.2,0.2,0.2c0.2,0,0.3,0.1,0.5,0.1l0.4-0.1V43.3
				z M89.7,35.5c-0.2-0.2-0.2-0.2-0.2-0.3c0-0.1-0.1-0.1-0.2-0.1c-0.1,0-0.2,0-0.2,0.1c-0.2,0.4-0.1,0.7,0.3,0.7
				C89.8,35.8,89.9,35.7,89.7,35.5z M89.4,34.9c0.1-0.3,0-0.4-0.1-0.6C89.2,34.6,89.3,34.8,89.4,34.9z M89.7,35.9
				c-0.2,0-0.2,0.1-0.1,0.3C89.7,36.1,89.8,36,89.7,35.9z M94.8,37.1l-0.2,0.1c0.2,0.1,0.2,0.2,0.2,0.2c0,0,0.1-0.1,0.1-0.1
				C94.9,37.2,94.8,37.1,94.8,37.1z M99.4,13.2c0.2,0.2-0.1,0.6,0.4,0.5C99.7,13.4,99.8,13.2,99.4,13.2z M100.3,13.3
				c0-0.3,0-0.6,0.1-0.7c0.2-0.1,0.3-0.1,0.3-0.1l-0.1-0.2h-0.4c0.2,0.3-0.3,0.2-0.4,0.6c0.2,0,0.3,0,0.4-0.1
				C100.1,13,100.1,13.2,100.3,13.3z M99.8,20.2C99.8,20.3,99.8,20.3,99.8,20.2c-0.1,0.1-0.1,0.1,0,0.2
				C99.8,20.3,99.9,20.3,99.8,20.2L99.8,20.2z M101,9.1c-0.1,0.1-0.2,0.2-0.1,0.2c0,0.1,0.1,0.1,0.2,0.1c0.1,0,0.1,0,0.1-0.1
				s0-0.1,0.1-0.1C101,9.2,101.1,9.1,101,9.1z M101.1,12C101.1,12.1,101.1,12.1,101.1,12l0.1,0.3c0.1,0,0.1-0.1,0.1-0.1L101.1,12z
				 M101.4,11c0,0.1,0,0.1,0.1,0.1L101.4,11C101.4,11,101.4,11,101.4,11L101.4,11z"/>
		</g>
		<g>
			<path class="st0" d="M119.4,44.9c-0.1-0.3-0.2-0.3-0.3-0.2h-0.3c-0.4-0.2-0.7-0.1-1.1-0.3h-0.1c-0.1,0-0.1,0-0.1-0.1h-0.4
				c-0.4-0.2-0.7-0.2-1.1-0.3c-0.4-0.3-0.8-0.3-1.1-0.4c-0.1,0-0.1,0-0.1-0.1v-0.1c-0.2-0.1-0.3-0.2-0.4-0.1c-0.2,0-0.3,0-0.4-0.1
				c-0.4-0.3-0.7-0.6-1.1-1l-0.1-0.1c-0.1,0-0.1,0-0.1-0.1c-0.3-0.4-0.8-0.6-1-1c0-0.2-0.3-0.1-0.3-0.2c-0.1-0.2-0.1-0.1-0.3-0.2
				c-0.2-0.2-0.3-0.5-0.7-0.7c-0.2-0.2-0.2-0.6-0.7-0.8c-0.2-0.4-0.4-0.7-0.7-1.1c-0.3-0.3-0.6-0.7-0.3-1.2v-0.2
				c0-0.2-0.1-0.1-0.1-0.3s0.1-0.4,0.1-0.4c-0.1-0.4,0-0.8-0.2-1.1c0-0.2-0.1-0.3-0.1-0.4v-0.2c-0.1-0.6,0-1-0.2-1.5
				c0-0.2-0.1-0.5-0.1-0.8v-0.1c0.2-0.2,0.1-0.2,0.1-0.4c-0.1-0.1-0.1-0.1,0-0.2c0-0.3-0.1-0.5-0.2-0.6v-0.3c-0.1-0.1-0.1-0.2,0-0.4
				c0.3-0.3,0.3-0.6-0.2-1c-0.2-0.2-0.3-0.3-0.3-0.4c0.2-0.2,0-0.2,0-0.4c-0.1-0.2-0.1-0.5-0.1-0.9v-1.9c0-0.4,0.2-0.7,0-1.1v-0.7
				c0-0.4-0.1-0.6,0.2-0.7c0-0.1,0.1-0.1,0.1-0.2V23c0-0.2-0.1-0.4-0.2-0.6c0-0.4,0.1-0.7,0.1-0.8c0.1-0.4,0.1-0.8,0-1.1v-1
				c0-0.3-0.2-0.6,0-0.8c0-0.2,0.1-0.4,0.1-0.6c0-0.3,0.1-0.5,0.1-0.9c-0.2-0.2-0.1-0.4-0.2-0.6c-0.3-0.3-0.4-0.7-0.2-1.1
				c0.1-0.1,0.2-0.3,0.3-0.4c0.3-0.2,0.4-0.4,0.2-0.7c-0.2-0.4-0.2-0.8-0.2-1.2c0.2-0.6,0.3-1.4,0.6-2.1c0.2-0.2,0.2-0.5,0.4-0.5
				c0.6-0.2,0.7-0.7,0.8-1.2c0.2-0.4,0.4-1,1-1.3c0.2-0.2,0.3-0.4,0.5-0.6c0.1-0.4,0.3-0.6,0.7-0.7l0.1-0.1c0.1,0,0.1-0.1,0.2-0.1
				c0.3-0.5,0.8-0.6,1.4-0.7c0.3-0.1,0.4-0.2,0.6-0.4c0.3-0.3,0.6-0.4,1-0.4c0.2,0,0.4-0.1,0.6-0.3c0.4-0.2,0.7-0.3,1-0.3
				c0.4,0,0.7-0.1,1.1-0.2c0.5-0.2,1-0.5,1.5-0.5c0.4,0,0.9-0.2,1.3-0.3h0.4l0.9,0.5c0.3,0.3,0.8,0.5,1.3,0.5h0.2l2.1,1.3
				c0,0.1,0.1,0.1,0.3,0.2l0.9,0.6c0.4,0.4,0.7,0.7,1.3,0.8c0.3,0.3,0.4,0.4,0.7,0.8c0.1,0.2,0.2,0.3,0.4,0.3c0.4,0,0.6,0.2,0.6,0.6
				c0,0.2,0.1,0.2,0.2,0.2c0.4,0,0.6,0.2,0.6,0.6c0,0.2,0.1,0.2,0.1,0.3c0.4,0.4,0.5,0.8,0.3,1.2c-0.2,0.6,0,1,0.2,1.3
				c0.2,0.2,0.3,0.4,0.3,0.7c0,0.4-0.1,0.6-0.2,1c-0.2,0.2,0,0.3,0.1,0.4c0.1,0,0.2,0.1,0.3,0.3c0.3,0.2,0.3,0.3,0.1,0.6
				c0,0.2-0.1,0.4-0.3,0.3c-0.1,0-0.1,0.1-0.1,0.1v0.1c0.2,0.2,0.4,0.3,0.7,0.6c0.2,0.1,0.2,0.2,0.2,0.3l-0.3,0.6
				c0,0.2-0.1,0.1-0.1,0.2c-0.2,0.4,0.1,0.8,0.3,1c0.4,0.4,0.6,0.8,0.6,1.4c0,0.1,0.1,0.2,0.2,0.3c0.1,0.2,0.1,0.3,0,0.4
				c0,0.2-0.2,0.3-0.2,0.4c0,0.6,0.2,1,0.2,1.6l-0.1,0.1c0,0.3-0.1,0.6-0.3,0.7v0.6c0,0.2,0.1,0.3,0.1,0.6l-0.3,1
				c0,0.3-0.2,0.6,0,0.8c0.2,0.2,0.2,0.4,0,0.6c-0.2,0.2-0.2,0.4-0.2,0.6c0.4,0.4,0.3,0.7,0.2,1.1c-0.2,0.2-0.3,0.4-0.3,0.8
				c-0.2,0.6-0.1,1.3-0.1,2.1c0,0.2-0.2,0.2,0,0.4c0.2,0.7,0,1.3,0,1.9c0,0.4-0.1,0.8-0.2,1.2c-0.2,0.5-0.3,1-0.3,1.4
				c0,0.6,0,1.2-0.2,1.8c0,0.1,0,0.2-0.1,0.2c0,0.2-0.1,0.2-0.2,0.3c0.2,0,0.2,0.1,0.3,0.1h0.3c1.1-0.2,1.9-0.4,2.8-0.4
				c0.2-0.1,0.4-0.1,0.7-0.1v0.1c-0.1,0-0.1,0-0.1,0.1c-0.4,0.2-0.6,0.1-1,0.2c-0.8,0.1-1.6,0.4-2.4,0.6c-0.7,0-1.3,0.2-1.7,0.6
				c-0.4,0.4-0.9,0.7-1.3,1.1c-0.3,0.2-0.6,0.4-1,0.7c-0.1,0.2-0.2,0.3-0.4,0.3c-0.4,0.4-0.8,0.4-1.2,0.8c-0.1,0.1-0.2,0.2-0.3,0.2
				c-0.3,0.2-0.6,0.3-0.8,0.5c-0.3,0.1-0.6,0.2-0.8,0.2c-0.2-0.1-0.3,0-0.3,0.1c-0.1,0.1-0.1,0.2-0.3,0.2h-0.2
				c-0.3,0.3-0.7,0.2-1.1,0.4c-0.2,0-0.3,0.2-0.4,0.3H119.4z M111.2,24.5c0-0.2-0.4,0.1-0.2-0.3c-0.4,0.4-0.6,0.5-1,0.7
				c0.6,0.2,1.1,0,1.5,0v-0.1L111.2,24.5z M114,30.6c-0.4-0.2-0.8-0.2-1.3-0.3c0.2,0.3,0.4,0.5,0.7,0.7
				C113.6,30.8,113.8,30.9,114,30.6z M115.5,22.6c-0.1,0.1-0.1,0.3-0.1,0.4c0,0.6,0.1,1,0.1,1.4v0.2c0,0.4,0.2,0.6,0.2,0.8
				c0,0.4,0.1,0.7,0.1,1.1c0,0.4,0.1,0.6,0.1,0.9c0.2,0.3,0.1,0.6,0.2,0.8c0.2,0.6,0.2,1,0.1,1.6c0,0.6,0.3,1.3,0.5,2
				c0.2,0.4,0.1,0.8,0.1,1.2c0,0.2,0.1,0.4,0.1,0.6c0.2,0.5,0.2,1,0.4,1.4c0,0.1,0.1,0.1,0.2,0.1c0.1,0.1,0.2,0.2,0.5,0.4
				c0.2,0,0.1-0.1,0.3-0.1h0.3c0.1,0,0.1,0.1,0.1,0.3v0.3c-0.2,0.1-0.5,0.1-0.9,0.1c-0.1,0-0.1,0.1-0.2,0.1l-0.1,0.1
				c0,0.1,0.1,0.2,0.1,0.2c0.4,0.3,0.9,0.3,1.3,0.3h1h0.1c0,0,0.1-0.1,0.1-0.1c0.3-0.1,0.6-0.2,0.8-0.3c0.4-0.2,0.6-0.4,0.8-0.7
				l0.7-1.3c0.2-0.3,0.6-0.6,0.6-0.9c0.2-0.2,0.2-0.6,0.3-0.7c0-0.6,0-1.1,0.3-1.6c0.1-0.2,0.1-0.3,0.1-0.5c0-0.4,0.1-0.8,0.2-1.4
				c0-0.3,0.1-0.6,0.2-0.7c0.4-0.6,0.2-1.1,0.2-1.5v-1.5c0-0.3,0-0.7-0.1-1c0-0.4-0.1-1-0.1-1.5v-0.2c-0.2-0.2-0.2-0.5-0.1-0.8
				c0-0.2,0-0.4-0.1-0.8c-0.2-0.4-0.1-0.7-0.2-1.2c-0.2-0.4-0.2-0.8-0.4-1.2c-0.3-0.5-0.2-1-0.4-1.6c-0.2-0.4-0.4-0.8-0.6-1.2
				c-0.2-0.2-0.1-0.5-0.1-0.7c-0.4-0.8-1.1-1.1-1.9-1.3h-0.1c-0.3,0-0.5-0.2-0.9,0.1c-0.2,0.2-0.4,0.3-0.6,0.6c0,0.1,0,0.1-0.1,0.1
				h-0.1c-0.4,0.6-1,1-1.5,1.4c-0.2,0.3-0.3,0.6-0.7,0.7c-0.1,0-0.2,0.1-0.2,0.4c0.2,0.3,0.2,0.6,0,0.9c-0.1,0.1-0.1,0.2,0,0.3
				c0.2,0.3,0.2,0.6-0.1,0.8c-0.2,0.2-0.4,0.4-0.2,0.8v0.7c-0.2,0.2-0.1,0.2-0.2,0.3c-0.1,0.1-0.1,0.2,0,0.4
				c0.1,0.3-0.1,0.4-0.4,0.4C115.8,22.1,115.5,22.3,115.5,22.6z M120.8,40.6c0.1,0,0.2-0.1,0.2-0.3l-0.1-0.1l-0.1,0.1V40.6z
				 M124,40.7h0.1v-0.1h-0.5v0.2c0.2,0-0.1,0.5,0.4,0.3V40.7z M129.1,36.7c0.3,0,0.2,0.4,0.6,0.3c0.1,0,0.1,0.1,0.3,0.1V37l-0.1-0.1
				c0-0.2,0.1-0.1,0.1-0.3c0,0.1,0.1,0.1,0.3,0.2l0.2-0.3c0.2-0.3-0.2-0.2-0.2-0.3c-0.2,0-0.4-0.2-0.6,0.1c-0.2,0.1-0.4,0.1-0.7,0
				c-0.2,0-0.3,0.2-0.1,0.4c-0.1-0.1-0.1-0.1-0.3-0.2c-0.3,0.2-0.4,0.6-0.8,0.3c0.2,0.4,0.3,0.3,0.4,0.3c0.2-0.2,0.2-0.1,0.2-0.2
				c0.2-0.2,0.4-0.2,0.6,0L129.1,36.7z M128.2,38.1l0.4-0.3l-0.1-0.1c-0.2,0.2-0.3,0.1-0.6,0.2C128.1,38,128.2,38.1,128.2,38.1z
				 M129,36.8c-0.2,0-0.2,0.2-0.2,0.3l0.1,0.1h0.1c0,0,0-0.1,0.1-0.1V36.8z M130,38c0.1,0.1,0.2,0.1,0.4,0.1c0,0,0.1,0,0.1-0.1
				c-0.2,0-0.3-0.1-0.5-0.1V38z"/>
		</g>
		<g>
			<path class="st0" d="M157.3,21.7c0,0.2-0.3,0.5-0.4,0.7c0,0-0.1,0.1-0.2,0.2c-0.2,0.1-0.3,0-0.4-0.2c-0.2-0.2-0.4,0-0.2,0.2
				c0.1,0,0.2,0.1,0.2,0.1c0,0.1,0.1,0.3-0.2,0.3c0-0.2-0.1-0.3-0.1-0.4h-0.3c-0.1-0.1-0.2,0-0.2-0.2c0-0.1,0.1-0.1,0.2-0.2
				c-0.3-0.1-0.4-0.1-0.4,0.2c0-0.1-0.1-0.2-0.1-0.3c0-0.1,0-0.1-0.1-0.1v0.1c0,0.2-0.2,0.1-0.2,0.3c-0.1-0.1-0.1-0.1-0.2-0.1h-0.1
				c0.1,0.1,0.1,0.2,0.1,0.3c-0.2,0-0.3,0-0.3,0.1c0.1,0.2,0.2,0.3,0.4,0.4c-0.1,0-0.2,0-0.2,0.1c0.2,0,0.2,0.1,0.3,0.1h0.1
				c0,0,0.1-0.1,0.1-0.1c-0.1,0-0.1-0.1-0.2-0.1c-0.1-0.1-0.1-0.1-0.1-0.1V23c0-0.3,0.1-0.4,0.4-0.4h0.4c0.2,0.2,0.2,0.4,0.2,0.6
				h0.1c0.1-0.1,0.1-0.1,0.1-0.1v0.1h0.1c-0.2,0.1-0.2,0.2-0.4,0.2c0-0.1,0-0.1-0.1-0.1c0-0.2-0.1-0.3-0.1-0.3
				c-0.2,0.1-0.3,0.2-0.4,0.2v0.2c0.2,0.2,0.2,0.1-0.2,0.5h-0.3c0.2,0.2,0.2,0.3-0.1,0.5l-0.6,0.6c-0.3,0.2-0.2,0.4-0.1,0.6l0.5,0.8
				c0,0.2-0.2,0.1-0.2,0.3c0.2,0,0.2,0.1,0.3,0.1c0.1,0.2,0,0.2,0.2,0.4h-0.2c0.1,0.1,0.3,0.2,0.3,0.3h-0.3c-0.1,0.1-0.1,0.2,0,0.2
				c0.2,0.1,0.3,0.3,0.2,0.4c-0.2,0,0,0.2,0.1,0.2l0.2,0.2c0,0.2,0.2,0.3,0.3,0.4h-0.2c-0.1-0.1-0.1-0.1-0.1-0.1h-0.1
				c0,0.1,0,0.2,0.1,0.2c0,0.1,0.2,0.3,0.2,0.3c0.2,0.2,0.1,0.4,0.2,0.5c0.2,0.2,0.4,0.1,0.6,0.3l0.3-0.3c0,0.3,0.3,0.5,0.1,0.8
				l-0.4-0.3v0.1c0.2,0.2,0.1,0.3,0.3,0.5c0.2-0.1,0.3-0.1,0.3-0.2c0,0.2,0.1,0.3,0.3,0.3v0.4c0.4,0,0.3,0.2,0.4,0.4
				c0,0.1,0.1,0.2,0.1,0.2c0.2,0.3,0.2,0.6,0.2,0.8c0,0.1,0,0.1,0.1,0.1c0.1,0.1,0.1,0.1,0.1,0.1c0,0.1,0.1,0,0.1,0.2
				c0.2,0,0.3,0.2,0.3,0.4c0,0.1-0.1,0.2,0.1,0.3v-0.3h0.1c0.1,0.1,0.1,0.2,0.1,0.3c0.2,0.1,0.2,0.2,0.2,0.3c0,0.1-0.1,0.1-0.2,0.1
				v0.1c0.2,0,0.3-0.1,0.3-0.1c0.1,0.2,0,0.3,0.2,0.5c0,0.1,0.1,0.2,0.2,0.3c0.2,0.2,0.2,0.3,0,0.4c0.1,0.1,0.2,0,0.2,0.2
				c0.2,0.2,0.3,0.3,0.3,0.5c0,0.2,0.1,0.2,0.2,0.4c0.2,0.3,0.4,0.6,0.6,1c0,0.2,0.1,0.3,0.1,0.4c0.3,0,0.2,0.3,0.4,0.5
				c-0.2,0.4-0.3-0.2-0.5,0c0,0.3,0.2,0.4,0.5,0.2c0.1,0,0.2,0.1,0.2,0.3c0,0.1,0.3,0.2,0.2,0.4h-0.2c0.1-0.4,0-0.6-0.3-0.6
				l-0.1,0.1c-0.1,0.1-0.1,0.1-0.1,0.1h0.1l0.4,1c0.1,0.1,0.2,0.2,0.3,0.3c-0.2,0.1-0.4,0.1-0.3,0.3h0.1c0.1,0.1,0.1,0.1,0.1,0.1
				c0-0.1,0.1-0.2,0.1-0.2h0.1c-0.4,0.4,0,0.5,0.2,0.7l0.2,0.2c-0.1,0.1-0.2,0-0.2,0.2c-0.1,0-0.1,0-0.1-0.1v-0.1h-0.4
				c-0.1,0.2,0.2,0.3,0.2,0.3c0.1,0.1,0.2,0.2,0.1,0.3v0.4c0.2-0.2,0.3-0.4,0.6-0.6c0.1,0.1,0.1,0.3-0.1,0.5
				c0.1,0.1,0.2,0.1,0.3,0.1h0.3c0,0.1,0.1,0.2,0.2,0.3c-0.1-0.1-0.2-0.1-0.3-0.1c-0.2,0.2-0.2,0.3,0,0.3c0.1-0.1,0.1-0.1,0.1-0.2
				c0.1,0,0.1,0,0.2-0.1l0.2,0.5c0.2,0,0.1,0.1,0.2,0.1c-0.1,0.2-0.1,0.3-0.2,0.1h-0.2c-0.2,0.1-0.3-0.1-0.4,0.1
				c-0.2,0-0.1-0.1-0.2-0.1c-0.2-0.1-0.3-0.1-0.4,0.1h-0.6h-0.5c-0.4,0-0.6-0.2-1,0c-0.3,0-0.6,0-0.8-0.1h-2.2c-0.6,0-1.3-0.1-2-0.1
				c-0.2,0-0.3-0.1-0.4-0.2l-0.6-1.3c-0.1-0.4-0.2-0.6-0.3-1c-0.2-0.4-0.4-0.7-0.7-1.2c-0.1-0.4-0.2-0.7-0.4-1l-0.5-1
				c-0.2-0.2-0.2-0.4-0.3-0.5c-0.2-0.5-0.5-0.9-0.7-1.3c-0.1-0.2-0.2-0.4-0.3-0.7c-0.2-0.2-0.2-0.3-0.2-0.4l-0.5-1
				c0-0.1-0.1-0.2-0.2-0.2c-0.2-0.6-0.3-1.2-0.7-1.7c-0.2-0.5-0.4-1-0.7-1.3c-0.2-0.2-0.1-0.3-0.3-0.5l-1.1-1.8
				c-0.2-0.3-0.3-0.6-0.6-1c0-0.2-0.2-0.2-0.3-0.3c-0.2-0.4-0.4-0.7-0.8-0.8c-0.1-0.2-0.4-0.2-0.4-0.1c-0.2,0.2-0.3,0.3-0.3,0.4
				c-0.2,0.7-0.2,1.3-0.3,2c0,0.2-0.1,0.2-0.1,0.4h-0.2v0.3c-0.1-0.1-0.2-0.1-0.4-0.1v0.3c0.1,0.1,0.4,0,0.6-0.2
				c0,0.3-0.1,0.6,0.1,0.8c-0.1,0-0.2,0.1-0.3,0.2h0.1v0.6v0.1l-0.1-0.1h-0.2l0.2-0.2c-0.2-0.2-0.2-0.3-0.2-0.3
				c-0.1,0-0.2,0.1-0.2,0.2c0.1,0.1,0,0.2,0.2,0.3c0,0.1,0,0.1,0.1,0.1c0,0.1,0,0.1,0.1,0.1c0.3,0,0.1,0.2,0.3,0.5
				c-0.1,0-0.1-0.1-0.1-0.1v-0.1c-0.1,0.1-0.1,0.1-0.1,0.2v0.2c0,0.1,0,0.1,0.1,0.1c-0.2,0.2-0.3,0.1-0.4-0.1
				c-0.2,0.2-0.2,0.3-0.2,0.4h0.2c0.1,0,0.1,0.1,0.1,0.2h0.1v-0.3h0.4c-0.2,0.6-0.1,1.2-0.2,1.8c-0.2,0.2-0.3,0.1-0.5,0.2
				c0,0.4,0.2,0.1,0.4,0.2c0,0.2-0.1,0.1-0.1,0.2h-0.3c0.1,0.1,0.2,0.2,0.3,0.3h-0.1c-0.1,0-0.2-0.1-0.2-0.1c0,0.1,0.1,0.2,0.1,0.2
				c-0.1,0,0,0.1-0.2,0.1v0.4l-0.3-0.2l-0.1,0.1c0.2,0.3,0.2,0.4,0.4,0.7v-0.3c0.1,0.1,0.1,0.1,0.1,0.1h0.1h0.1
				c0-0.1-0.1-0.1-0.1-0.1c-0.1,0-0.1,0-0.1-0.1c-0.1-0.2-0.1-0.2-0.2-0.2l0.1-0.1c0-0.2,0-0.3,0.1-0.4c0.1,0,0.2,0,0.3-0.1
				c0,0.5-0.1,1-0.2,1.3c0,0.2,0,0.4-0.2,0.6l0.1,0.1c0,0.3-0.1,0.6-0.1,0.8c0,0.2,0.1,0.3,0.1,0.3c0,0.2-0.1,0.2-0.1,0.3
				c0.1,0.2,0.1,0.4-0.1,0.6V39c-0.1,0.2-0.1,0.3,0.1,0.3c0,0.4,0,0.8-0.2,1.2c0,0.2,0.4,0.3,0,0.4v0.3v1.1c-0.2-0.1-0.5-0.4-0.6,0
				c-0.2,0-0.2-0.1-0.4-0.1v0.2c-0.1,0.1-0.3,0.2-0.4,0.2c-0.4,0-0.8,0.1-1.2,0.1c-0.3,0.1-0.4,0-0.6,0.2c-0.2,0-0.4,0-0.6,0.1
				c-0.6,0.2-1.2,0.1-1.8,0.3c-0.7,0.1-1.2,0-1.9,0.2c-0.3,0-0.4-0.1-0.4-0.3c0.2-0.4,0-0.6,0-1c0-0.2,0.1-0.1,0.1-0.3v-1.8v-1
				c0.1-0.5,0-1,0.2-1.6c0-0.4,0.1-0.7,0.1-1.1c0.1-0.1,0.1-0.1,0.1-0.2c-0.2-0.3,0-0.6,0-0.9c0.1-0.2,0-0.3,0.1-0.4
				c0-0.6-0.1-1.1,0.1-1.6c0-0.5,0.1-0.8,0.1-1.2c0-0.4-0.1-0.8,0.1-1.1c0.1-0.4,0.1-0.7,0.1-1.2c0-0.4,0.2-0.7,0.2-1.1
				c0-0.2-0.1-0.4-0.1-0.6c0.1-0.5,0.1-1.1,0.1-1.7v-1.3c0-0.4,0.1-0.7,0.1-0.9c0.1-0.4,0.1-0.8,0.1-1.3c0.2-0.5,0.1-1,0.1-1.5v-1
				v-1.7c0-0.8-0.1-1.5-0.1-2.3c0-0.5,0.1-1.2,0.1-1.7v-0.8c0-0.6-0.1-1.2-0.1-1.9c0-0.2,0.1-0.4,0.2-0.6v-0.3
				c-0.1-0.4,0-0.8-0.2-1.3V9.5c0.2-0.5,0-1,0-1.5V6.8c0-0.4-0.1-0.7,0.1-1c0-0.1,0.1-0.2,0.1-0.3c0.1-0.1,0.1-0.2,0.1-0.3
				c0-0.1,0.1-0.2,0.3-0.3c0.3,0,0.6-0.1,0.8-0.2h0.2c0.4,0.2,0.7,0.3,1.1,0.1h0.2c0.2,0,0.5,0.1,0.7,0.1c0.2,0.1,0.3,0.1,0.5-0.2
				l0.2-0.2l-0.1,0.1v0.1c-0.1,0.1,0,0.2,0.2,0.3c0.5,0,1.1,0.1,1.5,0.1c0.3,0,0.6,0.1,0.7,0.1c0.3,0.1,0.6,0,1,0
				c0.3,0,0.5-0.1,0.7-0.1s0.3,0,0.5,0c0.2,0.2,0.4,0.2,0.6,0.3h0.2c0.4,0,1-0.1,1.4-0.1c0.3-0.2,0.7-0.1,0.9-0.1
				c0.1,0,0.2,0,0.2-0.1c0.2-0.2,0.4-0.4,0.5-0.4c0.1,0,0.1-0.1,0.2-0.2c0.2,0.2,0.2,0.3,0.1,0.3c0.2-0.1,0.2-0.2,0.4-0.2
				c0.2-0.1,0.2-0.1,0.2,0.1c0,0.1,0.1,0.2,0.3,0.2c0.1-0.1,0.2-0.1,0.4-0.1l-0.1,0.1v0.1c0,0.1,0,0.1,0.1,0.1
				c0.1,0.1,0.1,0.1,0.2,0.1c0.1-0.1,0.2-0.2,0.2-0.2c0.2-0.2,0.1-0.1,0.2-0.3v0.2c-0.1,0.2,0,0.3,0.2,0.3h0.7
				c0.3,0,0.6,0.1,0.7,0.2c0.4,0.1,0.7,0.2,1.1,0.3c0.1,0,0.2-0.1,0.4-0.1c0.1,0.1,0.1,0.2,0.2,0.3c0.2-0.1,0.1-0.2,0.3-0.2
				c0.1,0,0.2,0.1,0.3,0.2c0.2,0,0.2,0.2,0.2-0.1l0.1,0.1V6c0.2,0,0.2-0.1,0.4-0.1c0.2,0.1,0.2,0.2,0.3,0.2c0.4-0.2,0.5,0,0.7,0.1
				c0.3,0,0.6,0,0.8,0.2c0.3,0.1,0.5,0,0.7,0.2c0.4,0.3,0.8,0.3,1.2,0.4c0.4,0.2,0.6,0,0.8-0.2c0-0.1,0.1-0.2,0.2-0.2
				c0.1,0.2,0.1,0.3,0,0.4c-0.2,0.2-0.2,0.3-0.3,0.5c0,0.1,0,0.1,0.1,0.1l0.1,0.1c-0.2,0.3-0.1,0.6,0.2,1l0.2,1.1
				c0.2,0.1,0.1,0.2,0.2,0.3c0.2,0.4,0,0.8,0.2,1.2c0,0.1-0.1,0.2-0.1,0.4c0.2,0.4,0.1,1,0.1,1.5c0,0.2,0.1,0.4-0.1,0.7
				c0,0.5-0.1,1.1-0.1,1.5c-0.1,0.5-0.2,0.9-0.3,1.3c-0.2,0.5-0.4,1-0.6,1.5c-0.1,0.3-0.2,0.6-0.4,0.8V19c0,0.4-0.3,0.6-0.3,1
				c0,0.1-0.3,0.2-0.4,0.3c0,0.1-0.1,0.1-0.2,0v-0.1c0.1-0.2,0.2-0.3,0.2-0.6v-0.2c-0.1,0.2-0.3,0.2-0.3,0.4c0,0.2-0.1,0.3-0.1,0.4
				c-0.1,0.1-0.2,0.2-0.2,0.3c-0.2,0.1-0.3,0.3-0.4,0.3v0.2h0.2c0-0.2,0-0.2,0.1-0.2c0.1-0.1,0.2-0.2,0.2-0.3
				c0.2,0.1,0.2,0.3,0.1,0.6c-0.1,0.1-0.2,0.2-0.4,0.2C157.5,21.6,157.4,21.7,157.3,21.7v-0.2h-0.1c-0.1,0-0.2,0.1-0.2,0.1
				c-0.2,0.2-0.2,0.3-0.3,0.3c-0.1,0.1-0.1,0.1,0,0.1c0,0.1,0.1,0.2,0.1,0.2l0.1,0.1L157.3,21.7z M141.1,34.6v0.3h0.1l0.1-0.1
				c0.1-0.1,0.1-0.1,0.1-0.1C141.3,34.7,141.2,34.7,141.1,34.6L141.1,34.6z M141.8,35.4v0.3c0.2-0.2,0.3-0.1,0.4-0.2
				c0-0.1,0-0.2-0.1-0.2c-0.2-0.1-0.2-0.3-0.2-0.4C141.9,35.1,141.8,35.2,141.8,35.4z M142.2,34.8c0.1-0.1,0.1-0.2,0.1-0.3
				c0.1,0.2,0.1,0.3,0,0.4c-0.1,0.1-0.1,0.1-0.1,0.1l-0.1,0.1c0.2,0.2,0.1,0.3,0.2,0.4c0.2-0.2,0.1-0.3,0.2-0.5
				c0-0.2,0.1-0.3,0.2-0.5c-0.2,0-0.5-0.3-0.8-0.2C142,34.4,142.2,34.5,142.2,34.8z M142.2,34.1c0-0.2,0.1-0.1,0.1-0.2h0.2V34h0.1
				l-0.1,0.1c0,0.1,0,0.1,0.1,0.1c0,0.1,0,0.1,0.1,0.1h0.1c0.1-0.1,0.2-0.2,0.3-0.2c0-0.1,0-0.2-0.1-0.2h-0.4c0-0.1-0.1-0.1-0.2-0.2
				c-0.1,0.1-0.1,0.1-0.2,0.1V34.1z M142.2,32.4l0.3,0.2c0.2-0.3,0.2-0.5-0.1-0.6c0,0.1,0,0.2-0.1,0.2c0.1,0,0.2,0.1,0.2,0.1
				C142.5,32.3,142.3,32.3,142.2,32.4z M142.7,33.4c0.1-0.1,0.1-0.1,0.1-0.1c-0.2-0.1-0.3-0.1-0.5,0.1H142.7z M142.4,41.3
				c0,0.1,0,0.1,0.1,0.1c0.1,0.1,0.1,0.1,0.1,0.1h0.1c0-0.2-0.1-0.4-0.1-0.6C142.4,40.9,142.3,41,142.4,41.3z M143,30.8
				c-0.2-0.2-0.2-0.1-0.4-0.2c0,0.1-0.1,0.2-0.2,0.3C142.6,31,142.5,31,143,30.8z M143.4,32.6L143.4,32.6c-0.2,0-0.1,0.2-0.2,0.2
				c-0.1,0-0.2-0.1-0.3-0.2v0.5c-0.1-0.1-0.2-0.2-0.3-0.3c-0.1,0.2,0,0.3,0.2,0.3c0.1,0,0.2-0.1,0.3-0.2V33c0.1,0.1,0.3,0.2,0.4,0.2
				C143.5,32.9,143.5,32.8,143.4,32.6z M142.7,39.3c0-0.2,0-0.4,0.1-0.5c-0.4,0.2,0,0.3-0.2,0.5H142.7z M143.1,32.1
				c0.1,0.1,0.1,0.1,0.2,0.3h0.2c0.1,0,0.1,0,0.1-0.1v-0.1C143.4,32.1,143.2,32.1,143.1,32.1c-0.1-0.2-0.2-0.2-0.4,0
				c0.2,0,0.2,0.1,0.2,0.1c0,0.1-0.1,0-0.1,0.2h0.1c0.1,0,0.1,0,0.1-0.1v-0.1C143.1,32.3,143.1,32.3,143.1,32.1L143.1,32.1z
				 M143.5,31.2c0-0.4,0-0.4-0.3-0.4c0.1,0.2,0.3,0.3-0.1,0.4H143.5z M143.1,33.7c0.3-0.1,0.4-0.2,0.2-0.4
				C143.2,33.4,143.2,33.6,143.1,33.7z M143.6,14.4v0.3c0.1-0.1,0.1,0,0.3-0.2C143.7,14.4,143.7,14.4,143.6,14.4z M145.2,18.6
				c0.3,0.2,0.6,0.2,0.9,0c0.9,0,1.6-0.2,2.5-0.2c0.4,0,0.7-0.1,1-0.3c0.4-0.4,0.7-0.6,1.2-0.8c0.2-0.3,0.6-0.4,0.9-0.8
				c0.2-0.4,0.4-0.8,0.4-1.2c-0.2-0.2,0.1-0.3-0.1-0.5c0-0.3-0.1-0.6-0.2-0.9c0-0.2-0.1-0.3-0.2-0.4c-0.4-0.3-0.8-0.6-1.3-0.9
				c-0.4-0.4-0.8-0.3-1.5-0.5h-1.3c-0.2,0-0.2-0.1-0.4-0.1c-0.3,0.1-0.5,0.1-0.7-0.2c-0.3-0.2-0.6-0.2-1-0.1c-0.2,0-0.3,0.3-0.2,0.5
				v0.2v1.1l-0.2,1.6c0,0.3-0.2,0.5-0.2,0.7c-0.1,0.4,0,0.7-0.2,1.1c-0.1,0.3,0,0.6-0.2,0.8C144.5,18.3,144.8,18.6,145.2,18.6z
				 M148.6,5.1c0.2,0,0.3-0.1,0.4-0.2C148.7,4.8,148.6,4.9,148.6,5.1z M151.3,23.6c0.1,0,0.1-0.1,0.2-0.1v-0.1l-0.2-0.2V23.6z
				 M152,22.5c0.1,0,0.2-0.1,0.2-0.3c0-0.1-0.1,0-0.1-0.2c-0.1,0.1-0.1,0.2-0.2,0.2v0.2c-0.1,0-0.3,0.1-0.4,0.1
				c0.2,0.2,0.4,0.2,0.6,0.2c-0.1,0-0.2-0.1-0.3-0.1C151.9,22.6,151.8,22.5,152,22.5z M153.4,22L153.4,22c0,0.1,0.1,0.1,0.1,0.2
				c0.4,0,0.2-0.3,0.3-0.4C153.5,21.9,153.4,21.8,153.4,22z M154.1,22.4c-0.2,0.2-0.3,0.1-0.3,0.2c0,0.2,0.1,0.2,0.1,0.4h0.3h0.1
				c0,0,0.1-0.1,0.1-0.1c-0.1,0,0-0.1-0.2-0.1c-0.1-0.1-0.1-0.1-0.1-0.2V22.4z M154.3,23.7h0.4H154.3z M155.5,20.1l-0.1-0.1
				c-0.1,0-0.2,0-0.2,0.1v0.3c0.2,0.1,0.1,0.2,0.2,0.3v0.2c0.2-0.2,0.3-0.3,0.3-0.4C155.5,20.4,155.5,20.3,155.5,20.1z M156.2,21.8
				c0-0.1,0.1-0.3,0.2-0.4c-0.3,0.2-0.1,0.3-0.3,0.3L156.2,21.8z M156.7,31h-0.3c0,0.1,0.1,0.2,0.1,0.2c0,0.2,0.1,0.1,0.1,0.3v0.2
				c-0.2,0.2-0.3,0.1-0.5,0.3c0.2,0.1,0.3,0.2,0.5,0.2h0.1h0.6v-0.4H157c-0.2-0.2,0.1-0.5-0.3-0.3C156.7,31.2,156.9,31.1,156.7,31z
				 M156.7,21.2c-0.1-0.3-0.2-0.4-0.4-0.4L156.7,21.2z M156.4,21.7h-0.1v0.5h0.1l0.2-0.2c-0.1,0-0.2,0-0.2-0.1V21.7z M157.2,32.3
				H157v0.2c0-0.1,0.1-0.1,0.2-0.1V32.3z M158.4,7.6c0-0.2-0.1-0.1-0.1-0.3l-0.1-0.1c0.2-0.2,0-0.1-0.2-0.3
				c-0.1,0.2-0.2,0.1-0.2,0.2c-0.1,0-0.1,0.1-0.2,0.1C158.1,7.4,158.2,7.4,158.4,7.6L158.4,7.6z M158.9,42.6v-0.2v-0.2v-0.3
				c-0.2-0.1-0.3,0.1-0.3,0.2c-0.1,0-0.1,0.1-0.1,0.1c0,0.1,0,0.1,0.1,0.1c0.2,0.1,0.2,0.2,0.1,0.3H158.9z M159.4,41.4
				c0,0.1,0.1,0.2,0.2,0.2C159.7,41.4,159.7,41.3,159.4,41.4z M160.2,40.9c0.1-0.1,0.2-0.1,0.4,0h0.2v-0.1c-0.1-0.2-0.4-0.2-0.6-0.1
				c-0.1-0.1-0.1-0.1-0.1-0.1v-0.1h-0.3c-0.1,0,0-0.1-0.2-0.1v0.2c0,0.2,0.1,0.3,0.3,0.3H160.2z M160.7,40.3L160.7,40.3h0.2
				c0.1-0.2,0.1-0.3,0-0.4c-0.2-0.2-0.3,0-0.5,0.1L160.7,40.3z M161.5,42.9c0,0.2,0.1,0.3,0.1,0.3h0.1c0.1,0,0.1,0.1,0.1,0.1
				C161.7,43.1,161.7,43.1,161.5,42.9z M161.8,42.8c0.2,0.2,0.1,0.3,0.2,0.4C162.2,43,162.1,42.8,161.8,42.8z"/>
		</g>
		<g>
			<path class="st0" d="M164.5,6.8h0.2c0.2,0,0.3,0,0.3,0.1l0.1-0.5c0.2-0.4,0.2-0.5,0.6-0.5c0.4,0,0.8,0,1.2,0.1
				c0.3,0.1,0.5,0,0.7-0.2c0.4-0.4,1-0.3,1.5-0.1c0.3,0.2,0.6,0.3,1,0.2c0.3-0.2,0.7-0.2,1.2,0c0.7,0.2,1.5,0.2,2.3,0.1
				c0.3-0.1,0.5-0.2,0.9-0.1c0.1,0.1,0.2,0.1,0.3,0c0.4-0.2,1-0.1,1.5-0.2h2.5c0.4,0,0.8-0.1,1.2-0.1c0.7-0.2,1.4-0.2,2.1-0.2
				c0.6,0.1,1-0.2,1.6-0.1c0.1,0,0.2-0.1,0.2-0.1c0.4-0.1,0.6-0.1,1-0.1c0.2-0.1,0.3,0.1,0.4,0.3c0.2,1.2,0.1,2.4,0.1,3.5
				c0,0.4,0.1,0.8,0.1,1.2c0,0.2,0.2,0.6,0,0.8c-0.1,0.4-0.1,0.8-0.1,1.3c0,0.2-0.1,0.3-0.2,0.4c-0.4,0.2-0.7,0.3-1.1,0.2
				c-0.2,0-0.5,0.1-0.7,0.1c-0.2,0-0.3,0.1-0.3,0c-0.3-0.2-0.6-0.1-0.8-0.1l-1.9,0.2c-0.5,0-1,0-1.4,0.1c-0.7,0.1-1.5,0.2-2.2,0.1
				c-0.1,0-0.2,0-0.2,0.1c-0.6,0.1-1.1,0.1-1.7,0.2c-0.6,0.1-1.1,0.4-1.2,1c-0.2,0.2-0.2,0.3-0.3,0.5s-0.1,0.3-0.1,0.4
				c0,1.1-0.1,2.3,0.3,3.4v0.3c-0.1,0.4-0.1,0.7-0.1,0.8c0,0.4,0.2,0.7,0.5,0.8c0.4,0.2,1,0.2,1.4,0.2c0.8-0.2,1.6-0.2,2.5-0.2
				c0.8-0.1,1.6-0.1,2.4-0.1c0.6,0,1.2-0.1,1.8,0.1c0.1,0.1,0.2,0,0.4-0.1c0.1,0,0.1-0.1,0.3-0.1l1.8-0.2c0.4,0,0.6,0.2,0.5,0.6
				c0,0.2-0.1,0.2,0,0.3c0,0.2,0.1,0.4,0.1,0.7c0,0.7,0,1.4-0.1,2.1c0,0.6-0.1,1.1-0.1,1.6c0,0.4-0.1,0.8-0.1,1.2
				c0.1,0.4,0,0.4-0.4,0.4c-0.5,0-1,0-1.6,0.1c-0.6,0-1.1,0.1-1.7,0.1h-1.3l-2.5,0.2c-1.1,0-2,0.1-3,0.1c-0.5,0-1,0.3-1.5,0.8
				c-0.1,0.1-0.1,0.1-0.1,0.2c0.2,0.8,0,1.6,0,2.4v0.9v1.1v0.7v2c0,0.4,0.2,0.7,0.6,0.9c0.4,0.2,0.7,0.3,1.1,0.3
				c1.2,0.2,2.3,0,3.5-0.2l1.3-0.2l1.6-0.1c1-0.1,1.8-0.2,2.7-0.3c0.4-0.1,0.7-0.1,1.1-0.1c0.4,0.1,0.6,0.2,0.6,0.6
				c0.1,0.4,0.1,0.8,0.1,1.2l0.2,3.1c0.1,0.1,0.1,0.2,0.1,0.3c-0.1,0.1-0.2,0.2-0.2,0.3c-0.3,0.2-0.6,0.2-0.9,0.3
				c-0.1,0.5,0.1,0.8-0.3,1.2c0.2,0.3,0.5,0.4,0.8,0.6c-0.6,0.3-1.1,0.4-1.7,0.2c-0.2-0.1-0.6-0.1-1-0.1c-0.7,0.1-1.5,0.1-2.2,0.1
				H180c-0.3,0.2-0.6,0.1-1,0.1c-0.6-0.2-1.1-0.2-1.7,0c-0.2,0.1-0.4,0-0.7,0c-0.4,0-0.7-0.1-1.1-0.1c-0.7,0-1.5,0.1-2.2-0.1
				c-0.3-0.1-0.6-0.1-0.8,0.1c-0.3,0.2-0.6,0.2-0.8,0.2l-0.7-0.1l-1.2-0.2c-0.2,0-0.4-0.1-0.7-0.1c-0.2,0-0.3,0.1-0.4,0
				c-0.4-0.1-0.8,0.1-1.2,0.2c-0.3,0.1-0.6,0.1-0.8,0.1c-0.4-0.2-0.8-0.2-1.2-0.3c-0.4-0.1-0.6-0.3-0.6-0.6c-0.1-0.6-0.1-1.1,0-1.7
				c0.1-0.4,0-0.8-0.1-1.3c-0.1-0.1-0.1-0.3-0.1-0.6l0.1-1.1c0-0.6,0-1.1-0.1-1.7c0-0.4-0.1-0.9-0.2-1.3c-0.2-0.3-0.2-0.6-0.2-1.1
				c0.2-0.3,0.2-0.7,0.2-1.2c0.1-0.1,0-0.2-0.1-0.4c-0.4-0.6-0.3-1.1,0.1-1.7c0.1-0.2,0.1-0.4,0-0.5l-0.2-0.3
				c-0.3-0.3-0.3-0.7-0.1-1c0.3-0.3,0.4-0.7,0.3-1.1c0-0.1,0.1-0.1,0.1-0.2c0-0.5,0.1-1,0.1-1.6c0-0.4,0-0.7,0.1-1.1
				c0.2-0.7,0.2-1.3,0.1-2V23c0-0.2,0.1-0.2,0-0.3c0-0.6-0.1-1.1-0.1-1.7c-0.1-0.4-0.1-0.8-0.1-1.2c0-0.2,0.1-0.4,0.2-0.7l0.2-0.7
				c0.1-0.4-0.1-0.7-0.3-1.1c-0.2-0.4-0.2-0.7-0.1-1c0.1-0.2,0.1-0.4-0.1-0.7c-0.2-0.6-0.4-1.2-0.3-1.8c0-0.2-0.1-0.4-0.1-0.7
				c-0.1-0.1-0.1-0.2-0.1-0.3c0.1-0.8,0.2-1.5,0.4-2.3c0.2-0.4,0.4-1,0.3-1.5C165,8.2,165,7.7,165,7.1c-0.3,0.1-0.4,0.3-0.6,0.5
				L164.5,6.8z M184.2,43.3c-0.4-0.2-0.3,0.3-0.7,0.2v0.1c0.1,0.2,0.1,0.1,0.3,0.3L184.2,43.3z"/>
		</g>
		<g>
			<path class="st0" d="M190.2,18.4v-0.1v-0.1c0.4-0.2,0.1-0.3,0.1-0.6c-0.1,0.1-0.1,0.1-0.1,0.1c-0.1,0-0.1,0-0.1,0.1h-0.1
				c-0.1-0.7-0.1-1.3,0.1-1.9c0-0.2-0.1-0.1-0.1-0.3s-0.1-0.1-0.1-0.3l0.2-2.5l0.1-1.3c0-0.2,0-0.3-0.1-0.4
				c-0.2-0.3-0.2-0.4-0.2-0.8c-0.2-1.3-0.1-2.7,0.1-4c0-0.4,0.1-0.4,0.4-0.4c0.8-0.1,1.6-0.1,2.3-0.1c0.8-0.1,1.7-0.1,2.6-0.1
				l1.6-0.1l1.8-0.1c1-0.1,1.9-0.3,3-0.2c0.4,0,0.6,0.1,1,0.1l2.4,0.2c0.6,0.2,1,0.4,1.5,0.7c0.4,0.2,0.6,0.4,1,0.6l0.4,0.3l0.9,0.4
				c0.3,0.2,0.5,0.3,0.7,0.4c0.3,0.2,0.5,0.4,0.8,0.8c0.2,0.3,0.4,0.6,0,1c0.2,0.1,0.4,0.2,0.7,0.4c0.4,0.4,0.4,1.1,0.8,1.6v0.1
				c-0.1,0.1-0.1,0.2,0.1,0.4c0.1,0.1,0.2,0.2,0.2,0.3l0.7,2.3V15c0,0.4,0.1,0.6,0.1,0.8c0.1,0.6,0.1,1.1,0.1,1.7
				c0.1,0.7,0,1.3,0,2.1c0,0.5-0.1,1.1-0.1,1.5v1.3l-0.2,1.7c-0.1,0.2-0.1,0.4-0.1,0.7c-0.1,0.4-0.1,0.7-0.1,1.1
				c-0.1,1-0.2,1.9-0.2,2.7c0,0.8-0.2,1.6-0.4,2.5l-0.7,3.7c-0.2,0.7-0.4,1.3-0.6,2l-1.2,2.5c-0.3,0.7-0.7,1.1-1.3,1.6
				c-0.6,0.6-1.3,1-1.9,1.6c-0.7,0.5-1.3,0.8-2.2,1c-0.2,0-0.5,0.1-0.9,0.1c-0.4,0.2-1,0.3-1.5,0.2h-0.2c-0.4,0.1-0.8,0.1-1.1,0.2
				c-1,0.2-2.1,0.3-3.3,0.2c-0.2-0.1-0.2,0-0.4,0c-0.9-0.1-1.8,0-2.6-0.1c-0.8-0.1-1.6,0-2.5,0.1c-0.2,0-0.4,0.1-0.6,0.1
				c-0.1-0.1-0.3-0.1-0.4,0c-0.2,0.1-0.4,0.1-0.7,0c-0.6-0.2-1.3-0.4-2-0.8V43v-0.9l0.2-1.3c0.1-0.6,0.1-1.1,0.1-1.7
				c0.1-0.5,0.1-0.9,0.1-1.4c0-0.5,0.2-0.9,0.2-1.4c0-0.4,0.1-0.8,0.1-1.2c0.2-1.1,0.1-1.9,0.2-3c0.1-0.5,0.1-1,0.3-1.6
				c0.2-0.2,0.2-0.5,0.1-0.7v-0.1c0-0.1,0-0.1,0.1-0.1c0-0.2,0.1-0.1,0.1-0.3c0.1-1,0.2-1.8,0.3-2.7c0.1-0.8,0.1-1.6,0.1-2.5v-0.2
				v-0.7c0-0.2,0-0.3,0.1-0.4c0.2-0.2-0.1-0.2-0.1-0.4v-0.2c0-0.4,0.1-0.9,0.1-1.3c0.1-0.2,0-0.3,0-0.4c0.1-0.1,0.1-0.1,0.1-0.1
				c0.3-0.2,0.3-0.2,0.1-0.6c0,0,0-0.1,0-0.2C190.5,19.1,190.5,18.8,190.2,18.4C190.2,18.4,190.2,18.4,190.2,18.4z M193.1,13.4
				c0.2,0.2,0.3,0.1,0.4,0.3C193.5,13.4,193.4,13.4,193.1,13.4z M193.4,14.1v0.7c0.4-0.2,0.2-0.4,0.3-0.7H193.4z M194.3,14.3
				c0,0.1-0.1,0.1-0.1,0.1l0.1,0.1c0.1,0,0.1,0,0.1-0.1L194.3,14.3z M194.9,32.6c0,0-0.1-0.1-0.3-0.1c0.2,0.3,0.2,0.4,0.4,0.6
				c-0.2-0.2-0.3-0.2-0.3,0.2c0.1,0,0.2,0.1,0.4,0.1c0-0.2-0.1-0.2-0.1-0.3L194.9,32.6z M197.2,13.7c-0.1-0.1-0.2-0.2-0.4-0.3
				C196.8,13.6,197,13.7,197.2,13.7z M197.2,17.7c0,0.1,0,0.1,0.1,0.2c0,0.2,0.1,0.2,0.1,0.4l0.1,0.7v0.3c-0.2,0.2,0,0.4,0.1,0.7
				c0,0.1,0,0.1,0.1,0.1l0.1,0.1c-0.2,0.6,0.2,1.1,0.2,1.5c0,0.3,0.1,0.4,0.1,0.7c0,0.1,0,0.1-0.1,0.1c-0.3,0.2-0.2,0.4-0.2,0.7
				c0.2,1.2,0.2,2.4,0.3,3.6c0.1,1.5,0.1,2.9-0.1,4.4c-0.1,0.5-0.2,1-0.1,1.6c0,0.9,0.1,1.8,0.3,2.7c0.2,0.7,0.5,0.7,1.1,0.7
				l0.8-0.1c0.3-0.1,0.4-0.2,0.6-0.3l1.6-1.1c0.7-0.4,1.3-0.8,1.7-1.3c0.1-0.1,0.2-0.3,0.3-0.4c0.2-0.4,0.2-0.9,0.3-1.3
				c0-0.2,0.1-0.3,0.2-0.4c0.2-0.2,0.2-0.4,0.3-0.7l0.2-1.3c0.1-0.4,0.3-0.8,0.1-1.2c-0.1-0.1-0.1-0.2,0-0.3c0.2-0.8,0-1.7,0.2-2.6
				c0.1-0.7,0.1-1.4,0.1-2.1c-0.1-0.6-0.1-1.1-0.1-1.6c0.1-0.4,0.1-0.6,0.1-1c0.1-0.4,0-0.6,0.1-1c0.1-0.6-0.2-1.2,0-1.7
				c0-0.1,0-0.2-0.1-0.2c-0.2-0.2-0.2-0.6,0.1-0.8c0.1,0,0.1-0.1,0-0.2l-0.4-1.6c-0.1-0.1-0.1-0.1-0.2-0.1c-0.6,0.2-1-0.2-1.6-0.4
				c-0.4-0.3-0.9-0.6-1.3-0.8l-1.9-1.1l-0.7-0.4c-0.6,0.1-0.3,0.5-0.4,0.9c-0.3,0-0.5,0.1-0.7,0c-0.3,0-0.4,0.1-0.6,0.2l-0.4,0.5
				c-0.1,0-0.1-0.1-0.1-0.1c0.2,0.3,0.3,0.4,0.4,0.8c0.1,0.2,0.1,0.3,0.1,0.3c0,0.2-0.1,0.5-0.1,0.7c-0.1,0.3-0.1,0.4-0.1,0.5
				c0,0.4-0.1,0.7-0.2,0.8c0.2,0.3-0.2,0.6,0.1,0.8C197.4,17.7,197.3,17.7,197.2,17.7z M198.9,7.8c-0.2,0.2-0.3,0.2-0.5,0.4
				c0.3,0.2,0.5,0.2,0.8,0.2C199.2,8.2,199.2,7.9,198.9,7.8z M198.8,9.1C198.8,9.1,198.8,9.1,198.8,9.1c0.1-0.1,0-0.1,0-0.3
				c-0.1,0.1-0.1,0.1-0.1,0.1C198.7,9,198.8,9.1,198.8,9.1z M199.3,7.7c0.2,0.4,0.2,0.4,0.4,0.2L199.3,7.7z M203.5,10.5
				c-0.4,0.2-0.3,0.3-0.1,0.5L203.5,10.5z M206.2,28.9h-0.2c0,0.1,0.1,0.2,0.1,0.2h0.1V28.9z M206.5,28.7c0.1,0,0.1-0.1,0.3-0.1
				l-0.1-0.1h-0.2V28.7z M206.9,32.2c-0.2,0.2-0.2,0.1-0.1,0.4L206.9,32.2z M206.8,29.6C206.8,29.7,206.8,29.7,206.8,29.6
				c0.1,0,0.2-0.1,0.2-0.2h0.3c0-0.2,0-0.3-0.1-0.4c-0.2,0.1-0.1,0.1-0.3,0.2c0,0.2,0.1,0.2,0.1,0.2
				C206.8,29.5,206.7,29.6,206.8,29.6z M207,30.4C207,30.5,207,30.5,207,30.4c-0.1,0.2-0.1,0.3,0.2,0.3
				C207.1,30.6,207.1,30.6,207,30.4z M207.4,24.5v-0.1c-0.1-0.2-0.3-0.1-0.4,0.1C207.1,24.5,207.2,24.5,207.4,24.5z M207,25.9
				c0.1,0,0,0.1-0.1,0.4l0.3-0.3c0.2,0.2-0.1,0.4,0.3,0.4c0-0.2-0.1-0.3-0.3-0.4C207.2,25.9,207.2,25.8,207,25.9z M207.7,28.6
				l-0.1-0.4c-0.2,0.2-0.3,0.1-0.5,0.3C207.3,28.7,207.5,28.8,207.7,28.6z M207.2,29.6c0.2,0.2,0.3,0,0.5-0.1
				C207.5,29.3,207.4,29.5,207.2,29.6z M207.5,27.2c0,0,0.1,0,0.1,0.1c0,0,0-0.1,0.1-0.1c0.1,0,0-0.1-0.1-0.1
				C207.5,27,207.5,27.1,207.5,27.2z M207.7,25c0.1,0,0.1,0,0.1-0.1c0,0-0.1,0-0.1-0.1l-0.1,0.1H207.7z M208.8,10.4
				c0-0.1-0.1-0.1-0.1-0.2c0,0-0.1,0-0.1,0L208.8,10.4L208.8,10.4z M211.6,19.2c-0.1-0.2-0.2-0.1-0.4-0.3
				C211.2,19.2,211.4,19.1,211.6,19.2z"/>
		</g>
		<g>
			<path class="st1" d="M242.7,24.4c-0.1,0.2-0.2,0.2-0.2,0.2c-0.2-0.2-0.2-0.4,0-0.7c0.2-0.2,0.2-0.4,0.2-0.6
				c-0.2-0.2-0.4-0.2-0.4-0.2c0.1-0.2,0.1-0.3,0.1-0.4c-0.4-0.2-0.2-0.5-0.4-0.8c-0.1,0-0.2,0-0.2-0.1c-0.3-0.1-0.4,0-0.4,0.2
				c-0.1,0.1-0.1,0.3-0.1,0.6c0,0.1,0,0.1,0.1,0.2c0.4,0.4,0.1,0.6,0.1,0.9c0,0.1-0.1,0.2-0.1,0.2c-0.2,0.1-0.3,0.3-0.4,0.7
				c-0.2,0.7,0.1,1.3-0.3,2c-0.2,0.8-0.2,1.6-0.4,2.4l-0.5,2.6l-0.4,1.4c0,0.3,0.1,0.6-0.1,1c-0.2,0.8-0.4,1.7-0.6,2.6
				c-0.1,0.3-0.2,0.7-0.2,1.1l-0.2,0.3c-0.2,0.1-0.2,0.2-0.2,0.5v1c-0.1,0.4-0.2,0.9-0.2,1.3c0,0.1,0,0.1-0.1,0.1
				c-0.1,0.2-0.2,0.4-0.1,0.6c0,0.2-0.1,0.2-0.1,0.2c-0.1,0.5-0.1,1.1-0.1,1.7v0.2c-0.2,0.1-0.3,0.2-0.6,0.3
				c-0.1,0.1-0.3,0.2-0.6,0.2c-0.2,0-0.3-0.1-0.4-0.1c-0.5,0.1-1.1,0.1-1.5,0.1c-1,0.1-1.8,0.1-2.7,0.1c-0.6,0.1-1.1,0.1-1.7,0.1
				c-0.3,0-0.4-0.1-0.5-0.3c-0.2-0.4-0.2-0.8-0.2-1.2c0-0.3-0.1-0.6-0.2-0.7c-0.1-0.1-0.1-0.2-0.1-0.3c-0.2-0.5-0.2-1.1-0.3-1.6
				c-0.2-0.7-0.2-1.2-0.3-1.8c-0.2-0.6-0.1-1.1-0.3-1.7c-0.2-0.7-0.2-1.4-0.4-2.1c-0.2-0.4-0.1-1-0.2-1.3c-0.2-0.7-0.3-1.5-0.7-2.2
				c-0.4-0.6-0.6-1.3-1-2c-0.4-0.5-0.4-1.1-0.7-1.7c-0.4-0.7-0.6-1.2-1-1.8c-0.3-0.4-0.6-0.5-0.9-0.2c-0.2,0.2-0.3,0.5-0.3,0.9
				c0,0.5,0,1-0.1,1.6l-0.2,2.2c-0.1,0.9-0.2,1.8-0.2,2.8c0,1-0.2,2-0.3,2.9c-0.1,0.3-0.2,0.6-0.2,1c0,0.6,0,1.2,0.1,1.8
				c0,0.8,0.1,1.6,0.1,2.4c0,0.8,0.1,1.5,0.2,2.4c0,0.2,0.1,0.4,0.3,0.5l0.5,0.3c0.3,0.3,0.3,0.6-0.1,0.9c-0.3,0.1-0.5,0.2-0.8,0.1
				c-0.4,0-0.7,0-1-0.4c-0.2-0.2-0.3-0.3-0.6-0.2c-0.3,0-0.5,0.1-0.8,0.3c-0.4,0.2-0.7,0.2-1.1,0c-0.4-0.2-1-0.3-1.5-0.4
				c-0.5-0.1-1-0.1-1.5-0.1c-0.4-0.1-0.4,0-0.4-0.4c-0.2-1.1,0-2,0-2.9v-1.8c0-0.3,0.1-0.6,0.1-0.8c-0.1-0.5-0.1-1.1,0.1-1.8v-0.4
				c-0.1-0.4-0.1-0.7-0.1-1c0-0.4,0.1-1,0.1-1.5c0-0.9-0.1-1.8,0.2-2.7c0.1-0.1,0.1-0.1,0.1-0.2c0.1-0.6,0.1-1.1,0.1-1.7l0.2-1.8
				c0.2-1.1,0.3-2.1,0.2-3.1c-0.1-0.4,0.1-0.8,0.1-1.3c0-0.4,0-0.7,0.1-1V21c0-0.6,0.2-1.2,0-1.7c-0.1-1.1-0.1-2,0.1-2.9v-0.3
				c0-0.3-0.1-0.4-0.1-0.7v-2.2c0-0.4-0.1-0.8,0-1.2c0.2-0.6,0.1-1-0.1-1.5c-0.1-0.4-0.1-0.9-0.1-1.4c0.1-0.2,0.1-0.4,0.1-0.7
				c0-0.5,0-1,0.2-1.5c0.1-0.4,0.2-0.7,0.2-0.8c0.1-0.4,0.2-0.6,0.6-0.6c0.1-0.1,0.3-0.1,0.4-0.1c0.5-0.1,1,0,1.4-0.2
				c0.6-0.2,1.1-0.2,1.7-0.3c0.2,0,0.2,0.1,0.3,0c0.7-0.2,1.4,0.1,2.1,0.3c0.3,0.2,0.7,0.3,1.1,0.4c0.2,0,0.3,0.1,0.4,0.3
				c0.1,0.7,0.5,1.3,0.7,2c0.1,0.3,0.2,0.5,0.2,0.7c0.1,0.4,0.1,0.7,0.3,1.1c0.4,1.1,0.7,1.9,1,3c0.4,1.1,0.8,2,1.2,2.9
				c0.2,0.2,0.2,0.4,0.2,0.6c0.2,0.6,0.4,1.1,0.7,1.7c0.2,0.2,0.2,0.4,0.2,0.6c0.4,0.7,0.6,1.5,0.9,2.2c0.3,0.8,0.4,1.6,0.7,2.4
				c0.3,0.8,0.4,1.6,0.7,2.4c0.1,0.1,0.1,0.1,0.1,0.3l0.1,0.4c0.2,0.6,0.4,1.2,0.6,1.8l0.1,0.1l1.1,1.8c0.1,0.1,0.2,0.2,0.3,0.2
				c0.2,0,0.2-0.1,0.2-0.2l0.4-1.3c0.1-0.2,0.1-0.4,0.1-0.4c0.2-0.7,0.4-1.3,0.6-2.1c0-0.4,0.1-0.7,0.2-1.1c0-0.1,0-0.1,0.1-0.1
				c0.1-0.3,0.2-0.4,0.2-0.7c0.1-0.1,0.1-0.2,0.1-0.4c0.2-0.6,0.4-1.1,0.6-1.8c0.2-0.7,0.3-1.3,0.6-2.1c0.1-0.4,0.2-0.7,0.2-1
				c0.1-0.6,0.1-1.1,0.3-1.7c0.2-1,0.6-1.8,0.8-2.8c0.2-0.6,0.2-1.2,0.3-1.7l0.5-2c0-0.2,0.2-0.5,0-0.7c-0.3-0.4-0.2-0.7,0.3-0.9
				h0.1c0.2-0.4,0.2-0.9,0.3-1.3c0-0.2-0.1-0.3-0.2-0.4c-0.2-0.3-0.1-0.5,0.2-0.7l0.5-0.5c0.3-0.3,0.6-0.3,1-0.2
				c0.3,0.2,0.3,0.1,0.4-0.3c0.1-0.3,0.2-0.5,0.4-0.5c0.3,0,0.6,0.1,0.7,0.3c0.1,0.2,0.1,0.4,0.2,0.6c0.2,0,0.4,0,0.5-0.1h0.8
				c0.3,0,0.6,0,1-0.1c0.2-0.1,0.4,0,0.6,0c0.4,0.1,0.9,0.1,1.3,0.1c1-0.1,1.9,0.1,3,0.1c0.1,0,0.1,0,0.1,0.1v1.4
				c0,0.4-0.1,0.8-0.3,1.2c0.1,0.1,0.2,0.2,0.2,0.2c0,0.4-0.1,0.8-0.3,1.1c0.4,0.2,0.4,0.4,0,0.4c0.2,0.3,0.3,0.7,0,0.9
				c-0.2-0.1-0.1-0.1-0.3-0.1c-0.2,0.4,0.3,0.2,0.3,0.4c0,0.3-0.1,0.5-0.2,0.7l0.2,0.2c-0.1,0.1-0.1,0.1-0.2,0.1
				c0.1,0.4,0.2,0.6,0.2,1c-0.1,0.4,0.1,1,0,1.6c-0.1,0.4,0,0.9,0,1.3h-0.2c0,0.1,0,0.1,0.1,0.2c0.1,0.1,0.1,0.1,0.1,0.1
				c-0.2,0.2,0,0.4,0,0.6c0.1,0.2,0,0.2,0,0.4s0.2,0.3,0,0.5v0.1c0.1,0.2,0.1,0.5,0.1,0.9c-0.1,0.2-0.1,0.4,0.1,0.7
				c0.1,0.1,0,0.2-0.1,0.3c-0.2,0.4-0.1,0.7-0.1,1.1c0.1,0.3,0,0.6-0.1,0.8c-0.1,0.1-0.1,0.2-0.1,0.3c0.1,0.2,0,0.2,0,0.3
				c-0.1,0.5,0.1,1,0.1,1.5c0.1,0.2,0,0.3,0,0.6c-0.1,0.2-0.1,0.3-0.1,0.6c0.2,0.3,0.2,0.7,0.1,1.1v0.2c0.2,0,0,0.2,0.1,0.3
				c0.2,0.2,0.1,0.2,0.2,0.4c0.2,0.2,0.1,0.4,0.1,0.7c-0.1,0.2-0.1,0.4,0,0.7c0.1,0.4,0.2,0.9-0.1,1.3v0.2c0.2-0.1,0.1-0.1,0.2-0.2
				c0,0.6-0.1,1.1,0,1.5c0,0.2-0.1,0.3-0.2,0.4c0.2,0.3,0.2,0.6,0.1,0.8v0.2c0,0.3,0,0.5-0.1,0.7c0,0.3,0.2,0.5,0.1,0.7
				c0.3,0.2,0.1,0.3-0.1,0.5c0.2,0.2,0.3,0.2,0.3,0.4v1.6c0.1,0.6-0.1,1-0.2,1.6c0,0.9-0.2,1.8-0.4,2.7c0,0.6-0.2,1.1-0.3,1.7
				c0,0.2-0.1,0.4,0.1,0.6c0.3,0.4,0.2,0.6,0.2,1c0,0.2-0.3,0.4-0.6,0.4c-0.3-0.2-0.6-0.2-1-0.2c-0.2-0.1-0.3-0.2-0.3-0.4
				c0-0.2-0.1-0.3-0.1-0.4c-0.1-0.2-0.2-0.3-0.3-0.3c-0.2,0-0.2,0.1-0.2,0.3l-0.2,0.5c-0.4,0-0.7-0.3-1.1-0.4
				c-0.2,0.1-0.4,0.2-0.7,0.4c-0.1,0.1-0.3,0.2-0.5,0.2h-1.7c-0.2,0-0.3-0.1-0.3-0.3c-0.2-0.8-0.2-1.5-0.3-2.2c-0.2-1.1-0.2-2-0.3-3
				c-0.1-0.4,0-0.6,0-1c0-0.3-0.1-0.7,0.1-1.1c0.1,0,0.1,0,0-0.1c-0.1-0.3-0.2-0.5-0.2-0.8l-0.1-1.2c-0.2-0.3-0.2-0.5-0.1-0.7
				c0.1-0.4,0.2-0.6,0.3-0.9c-0.2-0.4-0.1-0.7-0.2-1.1c0.3,0.3,0.3,0.3,0.6,0.2c0-0.4-0.3-0.3-0.5-0.5v-0.6l0.3-0.1
				c-0.2-0.5-0.6-0.8-0.4-1.5c0.2-0.5,0.1-1.1,0.3-1.6c-0.3,0.1-0.4-0.1-0.6-0.2c0.2-0.3,0.2-0.3,0.2-0.7c0-0.1,0.1-0.1,0.1-0.1
				c0.1,0,0.2,0.1,0.2,0.1c0-0.2-0.2-0.1-0.2-0.1c-0.1-0.2-0.1-0.2-0.1-0.2c0-0.4-0.1-0.6-0.2-0.7V26c0-0.1,0-0.2,0.1-0.2
				c0.2-0.1,0.1-0.3,0.2-0.4h-0.3c0-0.2,0.1-0.2,0.2-0.1c0.2,0.1,0.3,0,0.2-0.2c-0.1-0.2,0.2-0.3,0.1-0.5
				C242.6,24.6,242.7,24.6,242.7,24.4z M236.8,43.3l-0.3-0.2h-0.6l-0.2,0.2c0.1,0.2,0.1,0.2,0.2,0.2c0.2,0,0.3,0.1,0.5,0.1l0.4-0.1
				V43.3z M238.1,35.5c-0.2-0.2-0.2-0.2-0.2-0.3c0-0.1-0.1-0.1-0.2-0.1c-0.1,0-0.2,0-0.2,0.1c-0.2,0.4-0.1,0.7,0.3,0.7
				C238.2,35.8,238.3,35.7,238.1,35.5z M237.8,34.9c0.1-0.3,0-0.4-0.1-0.6C237.6,34.6,237.7,34.8,237.8,34.9z M238.1,35.9
				c-0.2,0-0.2,0.1-0.1,0.3C238.1,36.1,238.2,36,238.1,35.9z M243.2,37.1l-0.2,0.1c0.2,0.1,0.2,0.2,0.2,0.2c0,0,0.1-0.1,0.1-0.1
				C243.3,37.2,243.2,37.1,243.2,37.1z M247.8,13.2c0.2,0.2-0.1,0.6,0.4,0.5C248.1,13.4,248.2,13.2,247.8,13.2z M248.7,13.3
				c0-0.3,0-0.6,0.1-0.7c0.2-0.1,0.3-0.1,0.3-0.1l-0.1-0.2h-0.4c0.2,0.3-0.3,0.2-0.4,0.6c0.2,0,0.3,0,0.4-0.1
				C248.5,13,248.5,13.2,248.7,13.3z M248.2,20.2C248.2,20.3,248.2,20.3,248.2,20.2c-0.1,0.1-0.1,0.1,0,0.2
				C248.2,20.3,248.2,20.3,248.2,20.2L248.2,20.2z M249.4,9.1c-0.1,0.1-0.2,0.2-0.1,0.2c0,0.1,0.1,0.1,0.2,0.1c0.1,0,0.1,0,0.1-0.1
				s0-0.1,0.1-0.1C249.4,9.2,249.5,9.1,249.4,9.1z M249.5,12C249.5,12.1,249.5,12.1,249.5,12l0.1,0.3c0.1,0,0.1-0.1,0.1-0.1
				L249.5,12z M249.8,11c0,0.1,0,0.1,0.1,0.1L249.8,11C249.8,11,249.8,11,249.8,11L249.8,11z"/>
		</g>
		<g>
			<path class="st1" d="M261.8,17c0,0.1,0.1,0.1,0.1,0.1h0.1c0.2-0.3,0.2-0.4,0.3-0.7c0.1,0,0.2-0.1,0.1-0.1
				c-0.2-0.2,0.1-0.4,0.1-0.6c0.2-0.2,0.6-0.4,0.2-0.8c0.2-0.1,0.2-0.1,0.3-0.1v-0.7l0.3-0.3c0.1-0.2,0.1-0.3,0.1-0.3
				s0.1-0.2,0.2-0.4c-0.3-0.2-0.3-0.4,0-0.7c-0.2-0.4,0.2-0.6,0.2-1c0-0.2,0.1-0.3,0.3-0.2c0,0,0-0.1,0.1-0.1l-0.2-0.3
				c0.2-0.4,0.3-0.8,0.3-1.1c0-0.2,0.3-0.3,0.3-0.6c-0.1-0.3,0.1-0.6,0.4-0.7c-0.3-0.2-0.2-0.4-0.1-0.7l1.1-2.5
				c0.2-0.5,0.8-1,1.4-0.9l1.5,0.2c0.2,0,0.5,0.1,0.8,0.2h0.3c0.5-0.2,1-0.3,1.6-0.2h0.4c1.1,0.1,2,0.1,2.8,0.1
				c0.7,0.4,0.4,0.9,0.8,1.3c0.2,0.4,0.2,1,0.4,1.4c0.2,0.5,0.4,1,0.2,1.4c-0.1,0.4,0.2,1,0.1,1.3c0.1,0.2,0.2,0.3,0.3,0.6
				c0.4,1.2,0.7,2.4,1.1,3.6c0.2,0.7,0.2,1.4,0.4,2.1c0.1,0.8,0.1,1.7,0.4,2.4c0.1,0.2,0,0.3,0.1,0.4c0,0.4,0.1,0.7,0.1,1.1
				c0.1,0.9,0.6,1.7,0.4,2.7c0,0.1,0,0.1,0.1,0.1c0.2,0.8,0.2,1.6,0.2,2.4c0,0.5,0.1,0.9,0.3,1.2c0.1,0.2,0.1,0.3,0.1,0.4
				c0.2,0.8,0.2,1.6,0.4,2.5c0.2,0.6,0.2,1.2,0.4,1.8c0.3,0.7,0.3,1.5,0.4,2.2c0.1,0.3,0.1,0.6,0.2,0.8c0.2,0.4,0.6,0.9,0.4,1.5
				c0,0,0,0.1,0,0.2c0.2,0.6,0.3,1.4,0.8,2c0.2,0.1,0.2,0.2,0.2,0.3c-0.1,0.4,0.2,0.7,0.4,1.1c0.1,0.2,0.1,0.2,0.1,0.3
				c-0.2,0.2-0.5,0.2-0.4,0.6c0.2,0,0.3,0.1,0.5,0.2l-1,0.4c0.6,0.2,1,0,1.4,0.4c-0.2,0.2-0.4,0.1-0.4,0.3c-0.2,0.1-0.2,0.3-0.2,0.5
				c-0.2-0.2-0.1-0.4-0.5-0.3c0,0.1,0,0.2-0.1,0.2v0.7c0,0.3-0.2,0.4-0.4,0.4c-0.3-0.1-0.7-0.1-1-0.1c-0.2-0.1-0.4-0.2-0.5,0
				c-0.2,0.2-0.4,0.2-0.8,0.2c0-0.2-0.1-0.2-0.1-0.3c0-0.1,0.2-0.1,0.2-0.1c0-0.1-0.1-0.1-0.1-0.1c-0.2,0-0.3,0-0.4-0.1
				c0.2,0.6,0.1,0.7-0.6,0.5c0.1-0.1-0.1-0.3-0.1-0.4l-0.2,0.4c-0.6,0-1.1,0.1-1.6,0.1s-1.1,0.2-1.6,0.1c-0.5-0.1-0.9,0.2-1.5,0.1
				c0-0.1-0.1-0.2-0.1-0.2l-0.2-1.7l-0.2-1.2c0-0.3-0.1-0.5-0.1-0.7c0-0.7,0.1-1.4-0.3-2.1c-0.1-0.2-0.2-0.4-0.2-0.7
				c0-1.1-0.4-2.1-0.6-3.2c-0.2-0.8-0.4-1.6-0.7-2.3c-0.2-0.4-0.3-0.7-0.7-1c-0.2-0.1-0.4-0.2-0.6-0.1c-0.4,0.2-0.7,0.2-1.1,0.3
				c-0.8,0.1-1.6,0.4-2.4,0.6c-0.7,0.3-1.2,0.8-1.3,1.6c-0.2,0.5-0.2,1-0.4,1.5l-1.1,3.1l-0.7,2.4c-0.1,0.2-0.1,0.3-0.1,0.3
				c-0.4,0.6-0.6,1.3-0.8,2c-0.1,0.6-0.2,1.1-0.4,1.5c-0.1,0.4-0.3,0.6-0.6,0.4c-0.4-0.1-0.7,0-1.1,0.1c-0.9,0.3-1.8,0.1-2.7,0.2
				c-0.2,0-0.3-0.2-0.4-0.2c-0.4,0.2-0.6,0-0.9-0.2c-0.3-0.1-0.6-0.1-0.7,0.2c-0.1,0.2-0.2,0.2-0.4,0.2c-0.4-0.2-0.8-0.3-1.3-0.3
				c-0.2,0.1-0.3,0-0.2-0.3l0.2-1.1c0.1-0.4,0.2-0.8,0.4-1.2c0.1-0.3,0.1-0.6,0.3-1l-0.2-0.5l0.3-0.2c0.2-0.3,0.1-0.6,0.2-0.8
				l0.4-1.2c0.1-0.2,0.2-0.4,0.3-0.6c0.1-0.1,0.2-0.2,0.2-0.3c0.2-0.6,0.4-1.2,0.8-1.7c0.1-0.1,0.1-0.2,0.1-0.2
				c0.1-0.4,0.2-0.7,0.2-1l0.2-0.9l0.2-0.7c0-0.3,0.1-0.5,0.1-0.8c0-0.3,0.1-0.6,0.2-0.7c0.2-0.3,0.4-0.4,0.2-0.8
				c0-0.2,0-0.2,0.1-0.2c0.2-0.4,0.3-0.6,0.3-1c0.4-0.4,0.3-0.9,0.4-1.4c0-0.4,0.2-0.9,0.2-1.3c0.1-0.7,0.3-1.3,0.5-2
				c0.1-0.2,0.2-0.3,0.4-0.4l-0.3-0.3l0.4-0.4c-0.2-0.3-0.2-0.4-0.2-0.4c0.2-0.4-0.1-0.5-0.3-0.7c0.1-0.2,0.2-0.4,0.2-0.7
				c0.2,0.1,0.3,0.3,0.6,0.5c0.1-0.2,0.2-0.2,0.2-0.2c0.1-0.6,0.3-1.1,0.5-1.6c0-0.2-0.1-0.3,0.1-0.3c0.2-0.2,0.3-0.4,0.5-0.7
				c0.2-0.2,0.2-0.4,0.2-0.6c-0.1-0.3-0.1-0.5,0.1-0.7L261.8,17z M261.8,17.5c0,0.1,0,0.2,0,0.2c0,0.1,0,0.2,0.1,0.3
				C262,17.7,262,17.5,261.8,17.5z M263,18.2c-0.2-0.2-0.3-0.2-0.5,0.1C262.6,18.2,262.8,18.2,263,18.2z M262.8,17.5
				c0,0.1,0.1,0.1,0.1,0.1s0.1,0,0.1,0.1c0.2-0.2,0.4-0.3,0.2-0.7C263,17.2,263,17.4,262.8,17.5z M263.7,13L263.7,13
				c0.1,0,0.2-0.1,0.2-0.2s0-0.1-0.1-0.1C263.8,12.9,263.7,13,263.7,13z M263.8,15.1h-0.1v0.2c0,0,0,0,0.1,0.1
				C263.8,15.2,263.8,15.1,263.8,15.1z M271.7,14.1c0.1-0.4,0.7-0.3,0.4-0.7l-2.2,0.2c-0.4,0.1-0.8,0.2-1.3-0.1
				c-0.1,0.2-0.1,0.3-0.1,0.6v0.8c0.1,0.5,0,0.9-0.3,1.2c-0.2,0.2-0.3,0.4-0.1,0.6c0.1,0.2,0.1,0.3,0,0.5c-0.4,0.4-0.3,1.1-0.7,1.6
				c-0.2,0.2,0,0.3,0,0.5c-0.1,0-0.1,0.1-0.1,0.1h-0.1c-0.4,0.2-0.4,0.2-0.4,0.7c0.2,0.4-0.2,1.4-0.5,1.6c-0.2,0.2-0.3,0.2-0.2,0.4
				c0.1,0.2,0.3,0.3,0.6,0.3c0.1,0,0.2,0,0.3-0.1c0.4,0.7,1,0.7,1.7,0.6c0.8-0.1,1.6,0,2.5-0.1c0.6-0.1,1.1-0.1,1.6-0.2
				c0.5-0.1,0.8-0.6,0.8-1.1l-0.2-1.6c0-0.2,0-0.3-0.1-0.3c-0.3-1.1-0.2-2.1-0.3-3.1c0-0.5,0.1-1.1,0.1-1.6c0-0.3-0.1-0.4-0.4-0.5
				L271.7,14.1z M269.4,7.8c0.1,0,0.1,0.1,0.2,0.1l0.1-0.1c0,0-0.1-0.1-0.1-0.2c-0.1,0.1-0.1,0.1-0.1,0.1
				C269.4,7.7,269.4,7.7,269.4,7.8z M270,7.3l-0.2,0.3l0.1,0.1l0.2-0.1V7.3z M270.3,6.8c-0.2,0.1-0.1,0.1-0.2,0.2
				c0.1,0,0.1,0,0.1,0.1C270.2,7,270.2,6.9,270.3,6.8L270.3,6.8z M271.1,26.5c0.2,0.2,0.3,0.2,0.4,0.2c0.2-0.1,0.2-0.2,0.1-0.4
				L271.1,26.5z M272.4,26.9c-0.2,0.1-0.2,0.2-0.1,0.3L272.4,26.9z M273.2,30.5C273.1,30.5,273.1,30.5,273.2,30.5
				c-0.1,0.1-0.1,0.1-0.1,0.2c-0.1,0.1,0,0.1,0.1,0.2c0.1-0.1,0.1,0,0.2-0.2C273.3,30.6,273.2,30.5,273.2,30.5z M273.7,26l0.2-0.2
				c0-0.1,0-0.1-0.1-0.1C273.8,25.8,273.7,25.9,273.7,26L273.7,26z M274.2,28.9c-0.2,0.1-0.1,0.2-0.2,0.2l0.1,0.1
				c0.1-0.2,0.2-0.1,0.2-0.2L274.2,28.9z M276.9,42.4c0.5-0.1,0.5-0.1,0.4-0.3C277.1,42.3,277,42.3,276.9,42.4z M278,42.9
				c-0.3,0-0.4,0-0.6-0.1v0.4c0.3-0.1,0.5-0.2,0.6-0.2V42.9z M278.2,42.3c0.2,0,0.3-0.1,0.4-0.1c0.1-0.1,0.1-0.1,0.1-0.3v-0.1
				c0-0.1-0.1-0.1-0.1-0.1c-0.1,0-0.1,0-0.2,0.1c-0.1,0.1-0.2,0.2-0.4,0.2c-0.3,0.1-0.2,0.3,0.1,0.7
				C278.1,42.5,278.1,42.3,278.2,42.3z M278.3,42.7c0,0.1-0.1,0.1-0.1,0.2c0.1,0,0.1,0.1,0.2,0.2c0.1,0,0.1-0.1,0.1-0.1L278.3,42.7z
				 M279.3,41.3c-0.2,0-0.2,0-0.3,0.1v0.1c0.1-0.1,0.2-0.1,0.3-0.1V41.3z M279.4,42.6c0.1,0,0.1-0.1,0.2-0.1l-0.1-0.2V42
				c-0.2,0.1-0.2,0.2,0,0.3C279.4,42.4,279.4,42.5,279.4,42.6z M280.5,41.2c0-0.3,0-0.2-0.5-0.4C280.2,41,280.3,41,280.5,41.2z
				 M280,41.5L280,41.5l-0.1,0.2c0.2-0.1,0.2-0.1,0.2-0.1c0-0.1-0.1-0.1-0.1-0.2C280.1,41.4,280,41.5,280,41.5z M280.6,40.2
				c0.2,0.1,0.3,0.2,0.4,0.2c0.1-0.1,0.1-0.1,0.2-0.3c-0.2,0-0.4-0.1-0.6-0.1V40.2z M281.1,41.4c-0.1,0-0.2,0-0.3-0.1v0.2h0.3V41.4z
				"/>
		</g>
		<g>
			<path class="st1" d="M306.9,21.7c0,0.2-0.3,0.5-0.4,0.7c0,0-0.1,0.1-0.2,0.2c-0.2,0.1-0.3,0-0.4-0.2c-0.2-0.2-0.4,0-0.2,0.2
				c0.1,0,0.2,0.1,0.2,0.1c0,0.1,0.1,0.3-0.2,0.3c0-0.2-0.1-0.3-0.1-0.4h-0.3c-0.1-0.1-0.2,0-0.2-0.2c0-0.1,0.1-0.1,0.2-0.2
				c-0.3-0.1-0.4-0.1-0.4,0.2c0-0.1-0.1-0.2-0.1-0.3c0-0.1,0-0.1-0.1-0.1v0.1c0,0.2-0.2,0.1-0.2,0.3c-0.1-0.1-0.1-0.1-0.2-0.1h-0.1
				c0.1,0.1,0.1,0.2,0.1,0.3c-0.2,0-0.3,0-0.3,0.1c0.1,0.2,0.2,0.3,0.4,0.4c-0.1,0-0.2,0-0.2,0.1c0.2,0,0.2,0.1,0.3,0.1h0.1
				c0,0,0.1-0.1,0.1-0.1c-0.1,0-0.1-0.1-0.2-0.1c-0.1-0.1-0.1-0.1-0.1-0.1V23c0-0.3,0.1-0.4,0.4-0.4h0.4c0.2,0.2,0.2,0.4,0.2,0.6
				h0.1c0.1-0.1,0.1-0.1,0.1-0.1v0.1h0.1c-0.2,0.1-0.2,0.2-0.4,0.2c0-0.1,0-0.1-0.1-0.1c0-0.2-0.1-0.3-0.1-0.3
				c-0.2,0.1-0.3,0.2-0.4,0.2v0.2c0.2,0.2,0.2,0.1-0.2,0.5h-0.3c0.2,0.2,0.2,0.3-0.1,0.5l-0.6,0.6c-0.3,0.2-0.2,0.4-0.1,0.6l0.5,0.8
				c0,0.2-0.2,0.1-0.2,0.3c0.2,0,0.2,0.1,0.3,0.1c0.1,0.2,0,0.2,0.2,0.4h-0.2c0.1,0.1,0.3,0.2,0.3,0.3h-0.3c-0.1,0.1-0.1,0.2,0,0.2
				c0.2,0.1,0.3,0.3,0.2,0.4c-0.2,0,0,0.2,0.1,0.2l0.2,0.2c0,0.2,0.2,0.3,0.3,0.4H305c-0.1-0.1-0.1-0.1-0.1-0.1h-0.1
				c0,0.1,0,0.2,0.1,0.2c0,0.1,0.2,0.3,0.2,0.3c0.2,0.2,0.1,0.4,0.2,0.5c0.2,0.2,0.4,0.1,0.6,0.3l0.3-0.3c0,0.3,0.3,0.5,0.1,0.8
				l-0.4-0.3v0.1c0.2,0.2,0.1,0.3,0.3,0.5c0.2-0.1,0.3-0.1,0.3-0.2c0,0.2,0.1,0.3,0.3,0.3v0.4c0.4,0,0.3,0.2,0.4,0.4
				c0,0.1,0.1,0.2,0.1,0.2c0.2,0.3,0.2,0.6,0.2,0.8c0,0.1,0,0.1,0.1,0.1s0.1,0.1,0.1,0.1c0,0.1,0.1,0,0.1,0.2c0.2,0,0.3,0.2,0.3,0.4
				c0,0.1-0.1,0.2,0.1,0.3v-0.3h0.1c0.1,0.1,0.1,0.2,0.1,0.3c0.2,0.1,0.2,0.2,0.2,0.3c0,0.1-0.1,0.1-0.2,0.1v0.1
				c0.2,0,0.3-0.1,0.3-0.1c0.1,0.2,0,0.3,0.2,0.5c0,0.1,0.1,0.2,0.2,0.3c0.2,0.2,0.2,0.3,0,0.4c0.1,0.1,0.2,0,0.2,0.2
				c0.2,0.2,0.3,0.3,0.3,0.5c0,0.2,0.1,0.2,0.2,0.4c0.2,0.3,0.4,0.6,0.6,1c0,0.2,0.1,0.3,0.1,0.4c0.3,0,0.2,0.3,0.4,0.5
				c-0.2,0.4-0.3-0.2-0.5,0c0,0.3,0.2,0.4,0.5,0.2c0.1,0,0.2,0.1,0.2,0.3c0,0.1,0.3,0.2,0.2,0.4h-0.2c0.1-0.4,0-0.6-0.3-0.6
				l-0.1,0.1c-0.1,0.1-0.1,0.1-0.1,0.1h0.1l0.4,1c0.1,0.1,0.2,0.2,0.3,0.3c-0.2,0.1-0.4,0.1-0.3,0.3h0.1c0.1,0.1,0.1,0.1,0.1,0.1
				c0-0.1,0.1-0.2,0.1-0.2h0.1c-0.4,0.4,0,0.5,0.2,0.7l0.2,0.2c-0.1,0.1-0.2,0-0.2,0.2c-0.1,0-0.1,0-0.1-0.1v-0.1h-0.4
				c-0.1,0.2,0.2,0.3,0.2,0.3c0.1,0.1,0.2,0.2,0.1,0.3v0.4c0.2-0.2,0.3-0.4,0.6-0.6c0.1,0.1,0.1,0.3-0.1,0.5
				c0.1,0.1,0.2,0.1,0.3,0.1h0.3c0,0.1,0.1,0.2,0.2,0.3c-0.1-0.1-0.2-0.1-0.3-0.1c-0.2,0.2-0.2,0.3,0,0.3c0.1-0.1,0.1-0.1,0.1-0.2
				c0.1,0,0.1,0,0.2-0.1l0.2,0.5c0.2,0,0.1,0.1,0.2,0.1c-0.1,0.2-0.1,0.3-0.2,0.1h-0.2c-0.2,0.1-0.3-0.1-0.4,0.1
				c-0.2,0-0.1-0.1-0.2-0.1c-0.2-0.1-0.3-0.1-0.4,0.1h-0.6h-0.5c-0.4,0-0.6-0.2-1,0c-0.3,0-0.6,0-0.8-0.1h-2.2c-0.6,0-1.3-0.1-2-0.1
				c-0.2,0-0.3-0.1-0.4-0.2l-0.6-1.3c-0.1-0.4-0.2-0.6-0.3-1c-0.2-0.4-0.4-0.7-0.7-1.2c-0.1-0.4-0.2-0.7-0.4-1l-0.5-1
				c-0.2-0.2-0.2-0.4-0.3-0.5c-0.2-0.5-0.5-0.9-0.7-1.3c-0.1-0.2-0.2-0.4-0.3-0.7c-0.2-0.2-0.2-0.3-0.2-0.4l-0.5-1
				c0-0.1-0.1-0.2-0.2-0.2c-0.2-0.6-0.3-1.2-0.7-1.7c-0.2-0.5-0.4-1-0.7-1.3c-0.2-0.2-0.1-0.3-0.3-0.5l-1.1-1.8
				c-0.2-0.3-0.3-0.6-0.6-1c0-0.2-0.2-0.2-0.3-0.3c-0.2-0.4-0.4-0.7-0.8-0.8c-0.1-0.2-0.4-0.2-0.4-0.1c-0.2,0.2-0.3,0.3-0.3,0.4
				c-0.2,0.7-0.2,1.3-0.3,2c0,0.2-0.1,0.2-0.1,0.4h-0.2v0.3c-0.1-0.1-0.2-0.1-0.4-0.1v0.3c0.1,0.1,0.4,0,0.6-0.2
				c0,0.3-0.1,0.6,0.1,0.8c-0.1,0-0.2,0.1-0.3,0.2h0.1v0.6v0.1l-0.1-0.1H293l0.2-0.2c-0.2-0.2-0.2-0.3-0.2-0.3
				c-0.1,0-0.2,0.1-0.2,0.2c0.1,0.1,0,0.2,0.2,0.3c0,0.1,0,0.1,0.1,0.1c0,0.1,0,0.1,0.1,0.1c0.3,0,0.1,0.2,0.3,0.5
				c-0.1,0-0.1-0.1-0.1-0.1v-0.1c-0.1,0.1-0.1,0.1-0.1,0.2v0.2c0,0.1,0,0.1,0.1,0.1c-0.2,0.2-0.3,0.1-0.4-0.1
				c-0.2,0.2-0.2,0.3-0.2,0.4h0.2c0.1,0,0.1,0.1,0.1,0.2h0.1v-0.3h0.4c-0.2,0.6-0.1,1.2-0.2,1.8c-0.2,0.2-0.3,0.1-0.5,0.2
				c0,0.4,0.2,0.1,0.4,0.2c0,0.2-0.1,0.1-0.1,0.2h-0.3c0.1,0.1,0.2,0.2,0.3,0.3h-0.1c-0.1,0-0.2-0.1-0.2-0.1c0,0.1,0.1,0.2,0.1,0.2
				c-0.1,0,0,0.1-0.2,0.1v0.4l-0.3-0.2l-0.1,0.1c0.2,0.3,0.2,0.4,0.4,0.7v-0.3c0.1,0.1,0.1,0.1,0.1,0.1h0.1h0.1
				c0-0.1-0.1-0.1-0.1-0.1c-0.1,0-0.1,0-0.1-0.1c-0.1-0.2-0.1-0.2-0.2-0.2l0.1-0.1c0-0.2,0-0.3,0.1-0.4c0.1,0,0.2,0,0.3-0.1
				c0,0.5-0.1,1-0.2,1.3c0,0.2,0,0.4-0.2,0.6l0.1,0.1c0,0.3-0.1,0.6-0.1,0.8c0,0.2,0.1,0.3,0.1,0.3c0,0.2-0.1,0.2-0.1,0.3
				c0.1,0.2,0.1,0.4-0.1,0.6V39c-0.1,0.2-0.1,0.3,0.1,0.3c0,0.4,0,0.8-0.2,1.2c0,0.2,0.4,0.3,0,0.4v0.3v1.1c-0.2-0.1-0.5-0.4-0.6,0
				c-0.2,0-0.2-0.1-0.4-0.1v0.2c-0.1,0.1-0.3,0.2-0.4,0.2c-0.4,0-0.8,0.1-1.2,0.1c-0.3,0.1-0.4,0-0.6,0.2c-0.2,0-0.4,0-0.6,0.1
				c-0.6,0.2-1.2,0.1-1.8,0.3c-0.7,0.1-1.2,0-1.9,0.2c-0.3,0-0.4-0.1-0.4-0.3c0.2-0.4,0-0.6,0-1c0-0.2,0.1-0.1,0.1-0.3v-1.8v-1
				c0.1-0.5,0-1,0.2-1.6c0-0.4,0.1-0.7,0.1-1.1c0.1-0.1,0.1-0.1,0.1-0.2c-0.2-0.3,0-0.6,0-0.9c0.1-0.2,0-0.3,0.1-0.4
				c0-0.6-0.1-1.1,0.1-1.6c0-0.5,0.1-0.8,0.1-1.2c0-0.4-0.1-0.8,0.1-1.1c0.1-0.4,0.1-0.7,0.1-1.2c0-0.4,0.2-0.7,0.2-1.1
				c0-0.2-0.1-0.4-0.1-0.6c0.1-0.5,0.1-1.1,0.1-1.7v-1.3c0-0.4,0.1-0.7,0.1-0.9c0.1-0.4,0.1-0.8,0.1-1.3c0.2-0.5,0.1-1,0.1-1.5v-1
				v-1.7c0-0.8-0.1-1.5-0.1-2.3c0-0.5,0.1-1.2,0.1-1.7v-0.8c0-0.6-0.1-1.2-0.1-1.9c0-0.2,0.1-0.4,0.2-0.6v-0.3
				c-0.1-0.4,0-0.8-0.2-1.3V9.5c0.2-0.5,0-1,0-1.5V6.8c0-0.4-0.1-0.7,0.1-1c0-0.1,0.1-0.2,0.1-0.3c0.1-0.1,0.1-0.2,0.1-0.3
				c0-0.1,0.1-0.2,0.3-0.3c0.3,0,0.6-0.1,0.8-0.2h0.2c0.4,0.2,0.7,0.3,1.1,0.1h0.2c0.2,0,0.5,0.1,0.7,0.1c0.2,0.1,0.3,0.1,0.5-0.2
				l0.2-0.2l-0.1,0.1v0.1c-0.1,0.1,0,0.2,0.2,0.3c0.5,0,1.1,0.1,1.5,0.1c0.3,0,0.6,0.1,0.7,0.1c0.3,0.1,0.6,0,1,0
				c0.3,0,0.5-0.1,0.7-0.1s0.3,0,0.5,0c0.2,0.2,0.4,0.2,0.6,0.3h0.2c0.4,0,1-0.1,1.4-0.1c0.3-0.2,0.7-0.1,0.9-0.1
				c0.1,0,0.2,0,0.2-0.1c0.2-0.2,0.4-0.4,0.5-0.4c0.1,0,0.1-0.1,0.2-0.2c0.2,0.2,0.2,0.3,0.1,0.3c0.2-0.1,0.2-0.2,0.4-0.2
				c0.2-0.1,0.2-0.1,0.2,0.1c0,0.1,0.1,0.2,0.3,0.2c0.1-0.1,0.2-0.1,0.4-0.1l-0.1,0.1v0.1c0,0.1,0,0.1,0.1,0.1
				c0.1,0.1,0.1,0.1,0.2,0.1c0.1-0.1,0.2-0.2,0.2-0.2c0.2-0.2,0.1-0.1,0.2-0.3v0.2c-0.1,0.2,0,0.3,0.2,0.3h0.7
				c0.3,0,0.6,0.1,0.7,0.2c0.4,0.1,0.7,0.2,1.1,0.3c0.1,0,0.2-0.1,0.4-0.1c0.1,0.1,0.1,0.2,0.2,0.3c0.2-0.1,0.1-0.2,0.3-0.2
				c0.1,0,0.2,0.1,0.3,0.2c0.2,0,0.2,0.2,0.2-0.1l0.1,0.1V6c0.2,0,0.2-0.1,0.4-0.1c0.2,0.1,0.2,0.2,0.3,0.2c0.4-0.2,0.5,0,0.7,0.1
				c0.3,0,0.6,0,0.8,0.2c0.3,0.1,0.5,0,0.7,0.2c0.4,0.3,0.8,0.3,1.2,0.4c0.4,0.2,0.6,0,0.8-0.2c0-0.1,0.1-0.2,0.2-0.2
				c0.1,0.2,0.1,0.3,0,0.4c-0.2,0.2-0.2,0.3-0.3,0.5c0,0.1,0,0.1,0.1,0.1l0.1,0.1c-0.2,0.3-0.1,0.6,0.2,1l0.2,1.1
				c0.2,0.1,0.1,0.2,0.2,0.3c0.2,0.4,0,0.8,0.2,1.2c0,0.1-0.1,0.2-0.1,0.4c0.2,0.4,0.1,1,0.1,1.5c0,0.2,0.1,0.4-0.1,0.7
				c0,0.5-0.1,1.1-0.1,1.5c-0.1,0.5-0.2,0.9-0.3,1.3c-0.2,0.5-0.4,1-0.6,1.5c-0.1,0.3-0.2,0.6-0.4,0.8V19c0,0.4-0.3,0.6-0.3,1
				c0,0.1-0.3,0.2-0.4,0.3c0,0.1-0.1,0.1-0.2,0v-0.1c0.1-0.2,0.2-0.3,0.2-0.6v-0.2c-0.1,0.2-0.3,0.2-0.3,0.4c0,0.2-0.1,0.3-0.1,0.4
				c-0.1,0.1-0.2,0.2-0.2,0.3c-0.2,0.1-0.3,0.3-0.4,0.3v0.2h0.2c0-0.2,0-0.2,0.1-0.2c0.1-0.1,0.2-0.2,0.2-0.3
				c0.2,0.1,0.2,0.3,0.1,0.6c-0.1,0.1-0.2,0.2-0.4,0.2C307.1,21.6,307,21.7,306.9,21.7v-0.2h-0.1c-0.1,0-0.2,0.1-0.2,0.1
				c-0.2,0.2-0.2,0.3-0.3,0.3c-0.1,0.1-0.1,0.1,0,0.1c0,0.1,0.1,0.2,0.1,0.2l0.1,0.1L306.9,21.7z M290.7,34.6v0.3h0.1l0.1-0.1
				c0.1-0.1,0.1-0.1,0.1-0.1C290.9,34.7,290.9,34.7,290.7,34.6L290.7,34.6z M291.5,35.4v0.3c0.2-0.2,0.3-0.1,0.4-0.2
				c0-0.1,0-0.2-0.1-0.2c-0.2-0.1-0.2-0.3-0.2-0.4C291.5,35.1,291.5,35.2,291.5,35.4z M291.9,34.8c0.1-0.1,0.1-0.2,0.1-0.3
				c0.1,0.2,0.1,0.3,0,0.4c-0.1,0.1-0.1,0.1-0.1,0.1l-0.1,0.1c0.2,0.2,0.1,0.3,0.2,0.4c0.2-0.2,0.1-0.3,0.2-0.5
				c0-0.2,0.1-0.3,0.2-0.5c-0.2,0-0.5-0.3-0.8-0.2C291.6,34.4,291.8,34.5,291.9,34.8z M291.8,34.1c0-0.2,0.1-0.1,0.1-0.2h0.2V34h0.1
				l-0.1,0.1c0,0.1,0,0.1,0.1,0.1c0,0.1,0,0.1,0.1,0.1h0.1c0.1-0.1,0.2-0.2,0.3-0.2c0-0.1,0-0.2-0.1-0.2h-0.4c0-0.1-0.1-0.1-0.2-0.2
				c-0.1,0.1-0.1,0.1-0.2,0.1V34.1z M291.9,32.4l0.3,0.2c0.2-0.3,0.2-0.5-0.1-0.6c0,0.1,0,0.2-0.1,0.2c0.1,0,0.2,0.1,0.2,0.1
				C292.1,32.3,292,32.3,291.9,32.4z M292.3,33.4c0.1-0.1,0.1-0.1,0.1-0.1c-0.2-0.1-0.3-0.1-0.5,0.1H292.3z M292,41.3
				c0,0.1,0,0.1,0.1,0.1c0.1,0.1,0.1,0.1,0.1,0.1h0.1c0-0.2-0.1-0.4-0.1-0.6C292,40.9,292,41,292,41.3z M292.6,30.8
				c-0.2-0.2-0.2-0.1-0.4-0.2c0,0.1-0.1,0.2-0.2,0.3C292.2,31,292.1,31,292.6,30.8z M293,32.6L293,32.6c-0.2,0-0.1,0.2-0.2,0.2
				c-0.1,0-0.2-0.1-0.3-0.2v0.5c-0.1-0.1-0.2-0.2-0.3-0.3c-0.1,0.2,0,0.3,0.2,0.3c0.1,0,0.2-0.1,0.3-0.2V33c0.1,0.1,0.3,0.2,0.4,0.2
				C293.1,32.9,293.1,32.8,293,32.6z M292.3,39.3c0-0.2,0-0.4,0.1-0.5c-0.4,0.2,0,0.3-0.2,0.5H292.3z M292.8,32.1
				c0.1,0.1,0.1,0.1,0.2,0.3h0.2c0.1,0,0.1,0,0.1-0.1v-0.1C293,32.1,292.9,32.1,292.8,32.1c-0.1-0.2-0.2-0.2-0.4,0
				c0.2,0,0.2,0.1,0.2,0.1c0,0.1-0.1,0-0.1,0.2h0.1c0.1,0,0.1,0,0.1-0.1v-0.1C292.8,32.3,292.8,32.3,292.8,32.1L292.8,32.1z
				 M293.1,31.2c0-0.4,0-0.4-0.3-0.4c0.1,0.2,0.3,0.3-0.1,0.4H293.1z M292.8,33.7c0.3-0.1,0.4-0.2,0.2-0.4
				C292.9,33.4,292.8,33.6,292.8,33.7z M293.3,14.4v0.3c0.1-0.1,0.1,0,0.3-0.2C293.4,14.4,293.3,14.4,293.3,14.4z M294.8,18.6
				c0.3,0.2,0.6,0.2,0.9,0c0.9,0,1.6-0.2,2.5-0.2c0.4,0,0.7-0.1,1-0.3c0.4-0.4,0.7-0.6,1.2-0.8c0.2-0.3,0.6-0.4,0.9-0.8
				c0.2-0.4,0.4-0.8,0.4-1.2c-0.2-0.2,0.1-0.3-0.1-0.5c0-0.3-0.1-0.6-0.2-0.9c0-0.2-0.1-0.3-0.2-0.4c-0.4-0.3-0.8-0.6-1.3-0.9
				c-0.4-0.4-0.8-0.3-1.5-0.5H297c-0.2,0-0.2-0.1-0.4-0.1c-0.3,0.1-0.5,0.1-0.7-0.2c-0.3-0.2-0.6-0.2-1-0.1c-0.2,0-0.3,0.3-0.2,0.5
				v0.2v1.1l-0.2,1.6c0,0.3-0.2,0.5-0.2,0.7c-0.1,0.4,0,0.7-0.2,1.1c-0.1,0.3,0,0.6-0.2,0.8C294.2,18.3,294.4,18.6,294.8,18.6z
				 M298.2,5.1c0.2,0,0.3-0.1,0.4-0.2C298.4,4.8,298.2,4.9,298.2,5.1z M300.9,23.6c0.1,0,0.1-0.1,0.2-0.1v-0.1l-0.2-0.2V23.6z
				 M301.6,22.5c0.1,0,0.2-0.1,0.2-0.3c0-0.1-0.1,0-0.1-0.2c-0.1,0.1-0.1,0.2-0.2,0.2v0.2c-0.1,0-0.3,0.1-0.4,0.1
				c0.2,0.2,0.4,0.2,0.6,0.2c-0.1,0-0.2-0.1-0.3-0.1C301.5,22.6,301.4,22.5,301.6,22.5z M303,22L303,22c0,0.1,0.1,0.1,0.1,0.2
				c0.4,0,0.2-0.3,0.3-0.4C303.2,21.9,303,21.8,303,22z M303.7,22.4c-0.2,0.2-0.3,0.1-0.3,0.2c0,0.2,0.1,0.2,0.1,0.4h0.3h0.1
				c0,0,0.1-0.1,0.1-0.1c-0.1,0,0-0.1-0.2-0.1c-0.1-0.1-0.1-0.1-0.1-0.2V22.4z M303.9,23.7h0.4H303.9z M305.1,20.1L305,20
				c-0.1,0-0.2,0-0.2,0.1v0.3c0.2,0.1,0.1,0.2,0.2,0.3v0.2c0.2-0.2,0.3-0.3,0.3-0.4C305.1,20.4,305.1,20.3,305.1,20.1z M305.9,21.8
				c0-0.1,0.1-0.3,0.2-0.4c-0.3,0.2-0.1,0.3-0.3,0.3L305.9,21.8z M306.3,31H306c0,0.1,0.1,0.2,0.1,0.2c0,0.2,0.1,0.1,0.1,0.3v0.2
				c-0.2,0.2-0.3,0.1-0.5,0.3c0.2,0.1,0.3,0.2,0.5,0.2h0.1h0.6v-0.4h-0.3c-0.2-0.2,0.1-0.5-0.3-0.3C306.3,31.2,306.5,31.1,306.3,31z
				 M306.3,21.2c-0.1-0.3-0.2-0.4-0.4-0.4L306.3,21.2z M306,21.7h-0.1v0.5h0.1l0.2-0.2c-0.1,0-0.2,0-0.2-0.1V21.7z M306.8,32.3h-0.2
				v0.2c0-0.1,0.1-0.1,0.2-0.1V32.3z M308,7.6c0-0.2-0.1-0.1-0.1-0.3l-0.1-0.1c0.2-0.2,0-0.1-0.2-0.3c-0.1,0.2-0.2,0.1-0.2,0.2
				c-0.1,0-0.1,0.1-0.2,0.1C307.7,7.4,307.8,7.4,308,7.6L308,7.6z M308.5,42.6v-0.2v-0.2v-0.3c-0.2-0.1-0.3,0.1-0.3,0.2
				c-0.1,0-0.1,0.1-0.1,0.1c0,0.1,0,0.1,0.1,0.1c0.2,0.1,0.2,0.2,0.1,0.3H308.5z M309.1,41.4c0,0.1,0.1,0.2,0.2,0.2
				C309.3,41.4,309.3,41.3,309.1,41.4z M309.8,40.9c0.1-0.1,0.2-0.1,0.4,0h0.2v-0.1c-0.1-0.2-0.4-0.2-0.6-0.1
				c-0.1-0.1-0.1-0.1-0.1-0.1v-0.1h-0.3c-0.1,0,0-0.1-0.2-0.1v0.2c0,0.2,0.1,0.3,0.3,0.3H309.8z M310.3,40.3L310.3,40.3h0.2
				c0.1-0.2,0.1-0.3,0-0.4c-0.2-0.2-0.3,0-0.5,0.1L310.3,40.3z M311.1,42.9c0,0.2,0.1,0.3,0.1,0.3h0.1c0.1,0,0.1,0.1,0.1,0.1
				C311.3,43.1,311.3,43.1,311.1,42.9z M311.4,42.8c0.2,0.2,0.1,0.3,0.2,0.4C311.8,43,311.7,42.8,311.4,42.8z"/>
		</g>
		<g>
			<path class="st1" d="M313,5.7c0.4-0.1,0.5-0.4,0.9-0.2l0.1-0.1c0.7-0.2,1.3-0.2,2.2,0h1c0.5,0,1-0.1,1.6,0c0.9,0,1.8,0.1,2.6,0.1
				c0.7,0.1,1.4-0.1,2.1-0.1h1.2c0.4,0.1,0.7,0.2,1.2,0c0.2,0,0.2,0.1,0.2,0.1c0.4-0.1,0.5-0.1,0.9-0.1c0.4-0.1,0.7-0.1,1-0.1
				c0.2,0,0.4,0.1,0.7,0.1c0.8,0,1.6,0.1,2.4,0.1c0.3,0.1,0.5,0.1,0.7,0h0.2c0.5,0.2,1.1,0.1,1.6,0c0.8-0.2,1.6-0.3,2.5-0.1
				c0.5,0,1,0.1,1.6,0l1.1-0.2c0.4,0,0.7-0.1,1.1-0.1c0.2,0,0.2-0.1,0.4-0.1c0.2,0,0.4-0.1,0.6-0.2c0.2,0.1,0.2,0.1,0.3,0.2
				c0.1,0.1,0.2,0.2,0.2,0.4c-0.2,0.8-0.4,1.6-0.2,2.5c0,0.7,0.1,1.3-0.1,2c-0.1,0.3-0.1,0.7,0,1c0,0.4,0.2,0.8,0.3,1.1
				c0.5,0.6,0.4,1.2,0,1.8c0-0.1-0.1,0-0.1,0.2c-0.4,0.2-0.7,0.4-1.2,0.4H339c-0.4,0-0.7-0.1-0.8-0.3c-0.1-0.2-0.3-0.3-0.6-0.3h-2
				c-0.8,0.1-1.6,0.4-2.4,0.8c-0.3,0.2-0.6,0.3-0.6,0.7c-0.1,0.5-0.2,1-0.2,1.6c0.1,1.1,0,2.2,0.2,3.3c0.2,0.6-0.1,1.1,0.1,1.6
				c0.1,0.5,0,1,0,1.4c0,0.2,0.1,0.3,0.3,0.5c0.5,0.4,0.5,0.8,0.7,1.5v0.1c0,0.4-0.2,0.7-0.1,1.1c0.2,0.5,0.1,1-0.1,1.5
				c-0.1,0.4-0.3,0.7-0.7,1c-0.1,0.1-0.2,0.2-0.2,0.2c-0.2,0.6-0.2,1.2-0.2,1.8c-0.1,0.8,0.1,1.6,0.3,2.3v0.7
				c-0.1,0.4-0.1,0.7-0.1,1.2c0,0.5-0.1,1.1-0.1,1.7c-0.2,0.2-0.2,0.4-0.2,0.7c0.2,0.4,0.2,0.3,0,0.8c0,0.2-0.1,0.3,0,0.4
				c0.2,0.4,0.1,0.6-0.1,1c0.4,0.3,0.3,0.6-0.2,0.8c0.2,0.1,0.3,0.1,0.3,0.1v1.1c0,0.4-0.3,0.6,0,1c-0.4,0.4-0.2,0.8-0.2,1.3
				c-0.2,0-0.4,0.1-0.7,0.1h-1c-0.4,0-0.7,0.2-1.1-0.2c-0.1,0-0.1-0.1-0.2-0.1h-0.2c-0.4,0.2-0.8,0.1-1.1,0.1
				c-0.7-0.1-1.1-0.1-1.7-0.1c-0.4,0-1.1,0-1.5-0.2v-0.2c-0.3-0.1-0.5,0.1-0.5-0.2c0.2-0.2,0.3-0.1,0.5-0.2c0.4-0.2,0.7-0.4,1.2-0.6
				c0.3-0.1,0.6-0.3,0.8-0.6c-0.6-0.2-1.2,0.1-1.6,0.4c-0.4,0.2-0.7,0.4-1.1,0.6c-0.2-0.6-0.1-1.2-0.1-1.8v-0.9v-1.2v-0.3
				c0-0.7-0.1-1.2,0-1.8c0-0.6,0.1-1.1,0.3-1.6c0.1-0.4,0.1-0.7,0.1-1c0.1-0.3,0.2-0.4,0.3-0.4c-0.2-0.2-0.3-0.5-0.4-0.8
				c-0.2-0.6-0.3-1.1-0.3-1.7c0,0,0-0.1,0-0.1c0-0.2-0.1-0.4-0.1-0.6c0-0.4,0.1-0.7,0.1-1.1c0-0.4,0-1,0.1-1.5l0.1-1.8
				c0.2-0.2-0.1-0.3-0.1-0.4c0.1-0.6,0.2-1.3,0.2-1.9c0-0.4,0.1-0.8,0.1-1.2v-1v-0.4c0.1-0.2,0.1-0.4,0.1-0.6v-1
				c0-0.2,0.1-0.2,0-0.4c-0.2-0.5,0.1-1.1-0.1-1.5v-0.3v-1.1c-0.1-0.2-0.1-0.4-0.2-0.6c-0.2-0.3-0.2-0.4-0.2-0.8
				c0-0.5,0.2-0.8,0.6-1.1c0.2-0.2,0.2-0.2,0.3-0.2c-0.2-0.1-0.4-0.2-0.8-0.3c0.2-0.2,0.2-0.2,0.3-0.2c-0.4-0.3-0.9-0.3-1.3-0.4
				c-0.2,0-0.3-0.1-0.5-0.1c-0.5,0.1-1.1-0.1-1.6,0.2h-0.2c-1.2,0.2-2.4,0.2-3.6,0.2c-1.3,0.2-2.5,0.2-3.8,0.3c-0.3,0-0.5,0-0.7-0.1
				c-0.1-0.7-0.1-1.2,0.1-1.8c0.4-0.1,0.7-0.1,1-0.1c-0.2-0.4-0.4-0.1-0.6-0.3V11c0.2-0.4,0.3-0.7,0.2-0.9c0-0.5,0.2-0.7,0.5-0.7
				c-0.1-0.2-0.2-0.2-0.3-0.3L313.2,9c-0.1-0.5-0.1-1.1-0.1-1.7c0.2-0.2,0.3-0.4,0.3-0.4c0.4-0.3,0.8,0.1,1.1-0.3
				c-0.3-0.2-0.6-0.3-0.8-0.5c0.1-0.1,0.1-0.1,0.1-0.2C313.8,6,313.7,6,313.5,6l0.2,0.5c-0.2,0-0.5-0.1-0.8-0.1
				C313,6.2,313,6,313,5.7z M325.7,29.6L325.7,29.6c-0.1-0.1-0.2-0.3-0.4-0.1C325.5,29.5,325.6,29.5,325.7,29.6z M325.3,35.2
				c0.1,0.4,0.2,0.3,0.4,0.2C325.6,35.3,325.5,35.3,325.3,35.2z M325.5,37.5C325.5,37.5,325.5,37.5,325.5,37.5c0.1,0,0.2,0,0.3,0
				c-0.1-0.1-0.1-0.1-0.1-0.2C325.6,37.5,325.5,37.5,325.5,37.5z M325.7,26.5l0.1-0.1c-0.2-0.2-0.2-0.1-0.2-0.2
				c-0.1,0-0.1,0-0.1,0.1C325.7,26.4,325.6,26.4,325.7,26.5z M325.5,28.6c0.2,0.1,0.2,0.1,0.2,0.1c0,0,0,0,0.1-0.1l-0.1-0.1
				L325.5,28.6z M326.4,37.1V37c-0.2-0.1-0.3,0.1-0.3,0.3C326.2,37.2,326.4,37.1,326.4,37.1z M326.4,14.4L326.4,14.4
				c0.1-0.1,0.2-0.2,0.2-0.3h-0.2V14.4z M327.9,40.5L327.9,40.5c-0.1,0-0.2,0-0.3,0c-0.2,0-0.2-0.1-0.4,0.2c0.4,0.2,0.4,0.4,0.8,0.6
				c0-0.1,0-0.1,0.1-0.1c-0.1-0.2-0.2-0.3-0.2-0.5C327.8,40.7,327.9,40.7,327.9,40.5z M328.9,37c-0.4,0.2-0.4,0.1,0.1,0.5
				C328.9,37.3,328.9,37.2,328.9,37z M330.2,38c0.1,0.1,0.1,0.1,0.1,0.1c0-0.1,0.1,0,0.1,0.1L330.2,38z M332,41
				c-0.4,0.1-0.3,0.1-0.2,0.3C331.8,41.2,332,41.2,332,41z M332.1,39.3c-0.2-0.2-0.3-0.2-0.3-0.3C331.6,39.2,331.7,39.3,332.1,39.3z
				"/>
		</g>
	</g>
	<g>
		<path d="M7.2,51.4v-1.3h6v1.3H11v6.1H9.5v-6.1H7.2z M14.3,57.5v-7.4h1.6v3H19v-3h1.6v7.4H19v-3h-3.2v3H14.3z M21.8,57.5v-7.4h5
			v1.3h-3.4v1.8h3.2v1.3h-3.2v1.8h3.4v1.3H21.8z M32,57.5l-2.1-7.4h1.7l1.2,5.1h0.1l1.3-5.1h1.5l1.3,5.1h0.1l1.2-5.1H40l-2.1,7.4
			h-1.5L35,52.7h-0.1l-1.4,4.8H32z M47.2,53.8c0,0.8-0.2,1.5-0.5,2c-0.3,0.6-0.7,1-1.2,1.3c-0.5,0.3-1.1,0.4-1.8,0.4
			c-0.7,0-1.2-0.1-1.8-0.4c-0.5-0.3-0.9-0.7-1.2-1.3c-0.3-0.6-0.5-1.2-0.5-2c0-0.8,0.2-1.5,0.5-2c0.3-0.6,0.7-1,1.2-1.3
			c0.5-0.3,1.1-0.4,1.8-0.4c0.6,0,1.2,0.1,1.8,0.4c0.5,0.3,0.9,0.7,1.2,1.3C47.1,52.4,47.2,53,47.2,53.8z M45.6,53.8
			c0-0.5-0.1-1-0.2-1.3c-0.2-0.4-0.4-0.6-0.7-0.8c-0.3-0.2-0.6-0.3-1-0.3c-0.4,0-0.7,0.1-1,0.3c-0.3,0.2-0.5,0.5-0.7,0.8
			c-0.2,0.4-0.2,0.8-0.2,1.3s0.1,1,0.2,1.3c0.2,0.4,0.4,0.6,0.7,0.8c0.3,0.2,0.6,0.3,1,0.3c0.4,0,0.7-0.1,1-0.3
			c0.3-0.2,0.5-0.5,0.7-0.8C45.6,54.8,45.6,54.4,45.6,53.8z M48.4,57.5v-7.4h2.9c0.6,0,1,0.1,1.4,0.3c0.4,0.2,0.7,0.5,0.9,0.8
			c0.2,0.4,0.3,0.8,0.3,1.3c0,0.5-0.1,0.9-0.3,1.3c-0.2,0.4-0.5,0.6-0.9,0.8c-0.4,0.2-0.9,0.3-1.4,0.3h-1.9v-1.3H51
			c0.3,0,0.5,0,0.7-0.1c0.2-0.1,0.3-0.2,0.4-0.4c0.1-0.2,0.1-0.4,0.1-0.6c0-0.2,0-0.5-0.1-0.6c-0.1-0.2-0.2-0.3-0.4-0.4
			c-0.2-0.1-0.4-0.1-0.7-0.1h-1.1v6.1H48.4z M52.3,54.2l1.8,3.4h-1.7l-1.8-3.4H52.3z M55,57.5v-7.4h1.6v6.1h3.2v1.3H55z M63.4,57.5
			h-2.6v-7.4h2.6c0.7,0,1.4,0.1,1.9,0.4c0.5,0.3,0.9,0.7,1.2,1.3c0.3,0.5,0.4,1.2,0.4,2c0,0.8-0.1,1.4-0.4,2c-0.3,0.6-0.7,1-1.2,1.3
			C64.8,57.4,64.1,57.5,63.4,57.5z M62.3,56.2h1c0.5,0,0.8-0.1,1.2-0.2c0.3-0.2,0.6-0.4,0.7-0.8c0.2-0.3,0.2-0.8,0.2-1.3
			c0-0.5-0.1-1-0.2-1.3c-0.2-0.3-0.4-0.6-0.7-0.8c-0.3-0.2-0.7-0.2-1.2-0.2h-1V56.2z M69.1,50.2V53H68v-2.8H69.1z M74.2,52.3
			c0-0.3-0.2-0.5-0.4-0.7c-0.2-0.2-0.5-0.2-0.9-0.2c-0.3,0-0.5,0-0.6,0.1c-0.2,0.1-0.3,0.2-0.4,0.3c-0.1,0.1-0.1,0.3-0.1,0.4
			c0,0.1,0,0.2,0.1,0.3c0.1,0.1,0.1,0.2,0.3,0.3c0.1,0.1,0.2,0.1,0.4,0.2c0.1,0.1,0.3,0.1,0.5,0.1l0.7,0.2c0.3,0.1,0.6,0.2,0.9,0.3
			c0.3,0.1,0.5,0.3,0.7,0.4c0.2,0.2,0.3,0.4,0.5,0.6c0.1,0.2,0.2,0.5,0.2,0.8c0,0.5-0.1,0.8-0.3,1.2c-0.2,0.3-0.6,0.6-1,0.8
			c-0.4,0.2-0.9,0.3-1.5,0.3c-0.6,0-1.1-0.1-1.6-0.3c-0.4-0.2-0.8-0.5-1-0.8c-0.2-0.4-0.4-0.8-0.4-1.3h1.5c0,0.2,0.1,0.5,0.2,0.6
			c0.1,0.2,0.3,0.3,0.5,0.4c0.2,0.1,0.5,0.1,0.7,0.1c0.3,0,0.5,0,0.7-0.1c0.2-0.1,0.3-0.2,0.5-0.3c0.1-0.1,0.2-0.3,0.2-0.5
			c0-0.2,0-0.3-0.1-0.4c-0.1-0.1-0.2-0.2-0.4-0.3c-0.2-0.1-0.4-0.2-0.7-0.2l-0.8-0.2c-0.6-0.2-1.1-0.4-1.5-0.7s-0.5-0.8-0.5-1.3
			c0-0.4,0.1-0.8,0.4-1.2c0.2-0.3,0.6-0.6,1-0.8c0.4-0.2,0.9-0.3,1.4-0.3c0.5,0,1,0.1,1.4,0.3c0.4,0.2,0.7,0.4,1,0.8
			c0.2,0.3,0.3,0.7,0.4,1.2H74.2z M79.2,57.5v-7.4h4.9v1.3h-3.3v1.8h3v1.3h-3v3H79.2z M86.7,50.2v7.4h-1.6v-7.4H86.7z M88,57.5v-7.4
			h2.9c0.6,0,1,0.1,1.4,0.3c0.4,0.2,0.7,0.5,0.9,0.8c0.2,0.4,0.3,0.8,0.3,1.3c0,0.5-0.1,0.9-0.3,1.3c-0.2,0.4-0.5,0.6-0.9,0.8
			c-0.4,0.2-0.9,0.3-1.4,0.3h-1.9v-1.3h1.7c0.3,0,0.5,0,0.7-0.1c0.2-0.1,0.3-0.2,0.4-0.4c0.1-0.2,0.1-0.4,0.1-0.6
			c0-0.2,0-0.5-0.1-0.6c-0.1-0.2-0.2-0.3-0.4-0.4c-0.2-0.1-0.4-0.1-0.7-0.1h-1.1v6.1H88z M92,54.2l1.8,3.4h-1.7l-1.8-3.4H92z
			 M98.6,52.3c0-0.3-0.2-0.5-0.4-0.7c-0.2-0.2-0.5-0.2-0.9-0.2c-0.3,0-0.5,0-0.6,0.1c-0.2,0.1-0.3,0.2-0.4,0.3
			c-0.1,0.1-0.1,0.3-0.1,0.4c0,0.1,0,0.2,0.1,0.3c0.1,0.1,0.1,0.2,0.3,0.3c0.1,0.1,0.2,0.1,0.4,0.2c0.1,0.1,0.3,0.1,0.5,0.1l0.7,0.2
			c0.3,0.1,0.6,0.2,0.9,0.3c0.3,0.1,0.5,0.3,0.7,0.4c0.2,0.2,0.3,0.4,0.5,0.6c0.1,0.2,0.2,0.5,0.2,0.8c0,0.5-0.1,0.8-0.3,1.2
			c-0.2,0.3-0.6,0.6-1,0.8c-0.4,0.2-0.9,0.3-1.5,0.3c-0.6,0-1.1-0.1-1.6-0.3c-0.4-0.2-0.8-0.5-1-0.8c-0.2-0.4-0.4-0.8-0.4-1.3h1.5
			c0,0.2,0.1,0.5,0.2,0.6c0.1,0.2,0.3,0.3,0.5,0.4c0.2,0.1,0.5,0.1,0.7,0.1c0.3,0,0.5,0,0.7-0.1c0.2-0.1,0.3-0.2,0.5-0.3
			c0.1-0.1,0.2-0.3,0.2-0.5c0-0.2,0-0.3-0.1-0.4c-0.1-0.1-0.2-0.2-0.4-0.3c-0.2-0.1-0.4-0.2-0.7-0.2l-0.8-0.2
			c-0.6-0.2-1.1-0.4-1.5-0.7c-0.4-0.3-0.5-0.8-0.5-1.3c0-0.4,0.1-0.8,0.4-1.2c0.2-0.3,0.6-0.6,1-0.8c0.4-0.2,0.9-0.3,1.4-0.3
			c0.5,0,1,0.1,1.4,0.3c0.4,0.2,0.7,0.4,1,0.8c0.2,0.3,0.3,0.7,0.4,1.2H98.6z M101,51.4v-1.3h6v1.3h-2.3v6.1h-1.5v-6.1H101z
			 M116.9,52.7h-1.6c0-0.2-0.1-0.4-0.2-0.5c-0.1-0.2-0.2-0.3-0.3-0.4c-0.1-0.1-0.3-0.2-0.5-0.3c-0.2-0.1-0.4-0.1-0.6-0.1
			c-0.4,0-0.7,0.1-1,0.3c-0.3,0.2-0.5,0.5-0.7,0.8c-0.2,0.4-0.2,0.8-0.2,1.3c0,0.5,0.1,1,0.2,1.3c0.2,0.4,0.4,0.6,0.7,0.8
			c0.3,0.2,0.6,0.3,1,0.3c0.2,0,0.4,0,0.6-0.1c0.2-0.1,0.3-0.1,0.5-0.2c0.1-0.1,0.3-0.2,0.3-0.4c0.1-0.2,0.2-0.3,0.2-0.5l1.6,0
			c0,0.3-0.1,0.7-0.3,1c-0.2,0.3-0.4,0.6-0.7,0.8c-0.3,0.2-0.6,0.4-1,0.6c-0.4,0.1-0.8,0.2-1.3,0.2c-0.7,0-1.2-0.1-1.8-0.4
			c-0.5-0.3-0.9-0.7-1.2-1.3c-0.3-0.6-0.4-1.2-0.4-2c0-0.8,0.2-1.5,0.5-2c0.3-0.6,0.7-1,1.2-1.3c0.5-0.3,1.1-0.4,1.7-0.4
			c0.4,0,0.8,0.1,1.2,0.2c0.4,0.1,0.7,0.3,1,0.5c0.3,0.2,0.5,0.5,0.7,0.8C116.7,51.9,116.8,52.3,116.9,52.7z M124.8,53.8
			c0,0.8-0.2,1.5-0.5,2c-0.3,0.6-0.7,1-1.2,1.3c-0.5,0.3-1.1,0.4-1.8,0.4c-0.7,0-1.2-0.1-1.8-0.4c-0.5-0.3-0.9-0.7-1.2-1.3
			c-0.3-0.6-0.5-1.2-0.5-2c0-0.8,0.2-1.5,0.5-2c0.3-0.6,0.7-1,1.2-1.3c0.5-0.3,1.1-0.4,1.8-0.4c0.6,0,1.2,0.1,1.8,0.4
			c0.5,0.3,0.9,0.7,1.2,1.3C124.6,52.4,124.8,53,124.8,53.8z M123.2,53.8c0-0.5-0.1-1-0.2-1.3c-0.2-0.4-0.4-0.6-0.7-0.8
			c-0.3-0.2-0.6-0.3-1-0.3s-0.7,0.1-1,0.3c-0.3,0.2-0.5,0.5-0.7,0.8c-0.2,0.4-0.2,0.8-0.2,1.3s0.1,1,0.2,1.3
			c0.2,0.4,0.4,0.6,0.7,0.8c0.3,0.2,0.6,0.3,1,0.3s0.7-0.1,1-0.3c0.3-0.2,0.5-0.5,0.7-0.8C123.1,54.8,123.2,54.4,123.2,53.8z
			 M125.9,50.2h1.9l2,4.9h0.1l2-4.9h1.9v7.4h-1.5v-4.8h-0.1l-1.9,4.8h-1l-1.9-4.8h-0.1v4.8h-1.5V50.2z M135.2,57.5v-7.4h2.9
			c0.6,0,1,0.1,1.4,0.3c0.4,0.2,0.7,0.5,0.9,0.9c0.2,0.4,0.3,0.8,0.3,1.3c0,0.5-0.1,0.9-0.3,1.3c-0.2,0.4-0.5,0.7-0.9,0.9
			c-0.4,0.2-0.9,0.3-1.4,0.3h-1.9v-1.2h1.6c0.3,0,0.5-0.1,0.7-0.2c0.2-0.1,0.3-0.3,0.4-0.4c0.1-0.2,0.1-0.4,0.1-0.6
			c0-0.2,0-0.5-0.1-0.6c-0.1-0.2-0.2-0.3-0.4-0.4c-0.2-0.1-0.4-0.2-0.7-0.2h-1.1v6.1H135.2z M141.7,57.5v-7.4h1.6v6.1h3.2v1.3H141.7
			z M149,50.2v7.4h-1.6v-7.4H149z M151.6,57.5h-1.7l2.5-7.4h2l2.5,7.4h-1.7l-1.8-5.7h-0.1L151.6,57.5z M151.5,54.6h3.9v1.2h-3.9
			V54.6z M164,50.2v7.4h-1.3l-3.2-4.6h-0.1v4.6h-1.6v-7.4h1.4l3.2,4.6h0.1v-4.6H164z M171.8,52.7h-1.6c0-0.2-0.1-0.4-0.2-0.5
			c-0.1-0.2-0.2-0.3-0.3-0.4c-0.1-0.1-0.3-0.2-0.5-0.3c-0.2-0.1-0.4-0.1-0.6-0.1c-0.4,0-0.7,0.1-1,0.3c-0.3,0.2-0.5,0.5-0.7,0.8
			c-0.2,0.4-0.2,0.8-0.2,1.3c0,0.5,0.1,1,0.2,1.3c0.2,0.4,0.4,0.6,0.7,0.8c0.3,0.2,0.6,0.3,1,0.3c0.2,0,0.4,0,0.6-0.1
			c0.2-0.1,0.3-0.1,0.5-0.2c0.1-0.1,0.3-0.2,0.3-0.4c0.1-0.2,0.2-0.3,0.2-0.5l1.6,0c0,0.3-0.1,0.7-0.3,1c-0.2,0.3-0.4,0.6-0.7,0.8
			c-0.3,0.2-0.6,0.4-1,0.6c-0.4,0.1-0.8,0.2-1.3,0.2c-0.7,0-1.2-0.1-1.8-0.4c-0.5-0.3-0.9-0.7-1.2-1.3c-0.3-0.6-0.4-1.2-0.4-2
			c0-0.8,0.2-1.5,0.5-2c0.3-0.6,0.7-1,1.2-1.3c0.5-0.3,1.1-0.4,1.7-0.4c0.4,0,0.8,0.1,1.2,0.2c0.4,0.1,0.7,0.3,1,0.5
			c0.3,0.2,0.5,0.5,0.7,0.8C171.7,51.9,171.8,52.3,171.8,52.7z M173,57.5v-7.4h5v1.3h-3.4v1.8h3.2v1.3h-3.2v1.8h3.4v1.3H173z
			 M183.1,50.2v7.4h-1.6v-7.4H183.1z M190.5,50.2v7.4h-1.3l-3.2-4.6h-0.1v4.6h-1.6v-7.4h1.4l3.2,4.6h0.1v-4.6H190.5z M191.5,51.4
			v-1.3h6v1.3h-2.3v6.1h-1.5v-6.1H191.5z M198.5,57.5v-7.4h5v1.3h-3.4v1.8h3.2v1.3h-3.2v1.8h3.4v1.3H198.5z M209.6,52.5
			c-0.1-0.2-0.1-0.3-0.2-0.5c-0.1-0.1-0.2-0.3-0.3-0.3c-0.1-0.1-0.3-0.2-0.4-0.2c-0.2-0.1-0.3-0.1-0.6-0.1c-0.4,0-0.7,0.1-1,0.3
			c-0.3,0.2-0.5,0.5-0.7,0.8c-0.2,0.4-0.2,0.8-0.2,1.3c0,0.5,0.1,0.9,0.2,1.3c0.2,0.4,0.4,0.6,0.7,0.8c0.3,0.2,0.6,0.3,1,0.3
			c0.4,0,0.7-0.1,0.9-0.2c0.3-0.1,0.4-0.3,0.6-0.5c0.1-0.2,0.2-0.5,0.2-0.8l0.3,0h-1.9v-1.2h3.1v0.9c0,0.6-0.1,1.2-0.4,1.7
			c-0.3,0.5-0.7,0.8-1.1,1.1c-0.5,0.2-1,0.4-1.6,0.4c-0.7,0-1.3-0.2-1.8-0.5c-0.5-0.3-0.9-0.7-1.2-1.3c-0.3-0.6-0.4-1.2-0.4-2
			c0-0.6,0.1-1.1,0.3-1.6c0.2-0.5,0.4-0.9,0.7-1.2c0.3-0.3,0.7-0.6,1.1-0.7c0.4-0.2,0.9-0.3,1.4-0.3c0.4,0,0.8,0.1,1.2,0.2
			c0.4,0.1,0.7,0.3,1,0.5c0.3,0.2,0.5,0.5,0.7,0.8c0.2,0.3,0.3,0.6,0.3,1H209.6z M212.5,57.5v-7.4h2.9c0.6,0,1,0.1,1.4,0.3
			c0.4,0.2,0.7,0.5,0.9,0.8c0.2,0.4,0.3,0.8,0.3,1.3c0,0.5-0.1,0.9-0.3,1.3c-0.2,0.4-0.5,0.6-0.9,0.8c-0.4,0.2-0.9,0.3-1.4,0.3h-1.9
			v-1.3h1.7c0.3,0,0.5,0,0.7-0.1c0.2-0.1,0.3-0.2,0.4-0.4c0.1-0.2,0.1-0.4,0.1-0.6c0-0.2,0-0.5-0.1-0.6c-0.1-0.2-0.2-0.3-0.4-0.4
			c-0.2-0.1-0.4-0.1-0.7-0.1H214v6.1H212.5z M216.4,54.2l1.8,3.4h-1.7l-1.8-3.4H216.4z M220.4,57.5h-1.7l2.5-7.4h2l2.5,7.4h-1.7
			l-1.8-5.7h-0.1L220.4,57.5z M220.3,54.6h3.9v1.2h-3.9V54.6z M225.5,51.4v-1.3h6v1.3h-2.3v6.1h-1.5v-6.1H225.5z M232.5,57.5v-7.4h5
			v1.3h-3.4v1.8h3.2v1.3h-3.2v1.8h3.4v1.3H232.5z M241.3,57.5h-2.6v-7.4h2.6c0.7,0,1.4,0.1,1.9,0.4c0.5,0.3,0.9,0.7,1.2,1.3
			c0.3,0.5,0.4,1.2,0.4,2c0,0.8-0.1,1.4-0.4,2c-0.3,0.6-0.7,1-1.2,1.3C242.7,57.4,242.1,57.5,241.3,57.5z M240.3,56.2h1
			c0.5,0,0.8-0.1,1.2-0.2c0.3-0.2,0.6-0.4,0.7-0.8c0.2-0.3,0.2-0.8,0.2-1.3c0-0.5-0.1-1-0.2-1.3c-0.2-0.3-0.4-0.6-0.7-0.8
			c-0.3-0.2-0.7-0.2-1.2-0.2h-1V56.2z M251.1,57.5h-2.6v-7.4h2.6c0.7,0,1.4,0.1,1.9,0.4c0.5,0.3,0.9,0.7,1.2,1.3
			c0.3,0.5,0.4,1.2,0.4,2c0,0.8-0.1,1.4-0.4,2c-0.3,0.6-0.7,1-1.2,1.3C252.4,57.4,251.8,57.5,251.1,57.5z M250,56.2h1
			c0.5,0,0.8-0.1,1.2-0.2c0.3-0.2,0.6-0.4,0.7-0.8c0.2-0.3,0.2-0.8,0.2-1.3c0-0.5-0.1-1-0.2-1.3c-0.2-0.3-0.4-0.6-0.7-0.8
			c-0.3-0.2-0.7-0.2-1.2-0.2h-1V56.2z M255.8,57.5v-7.4h5v1.3h-3.4v1.8h3.2v1.3h-3.2v1.8h3.4v1.3H255.8z M262,57.5v-7.4h4.9v1.3
			h-3.3v1.8h3v1.3h-3v3H262z M267.9,57.5v-7.4h5v1.3h-3.4v1.8h3.2v1.3h-3.2v1.8h3.4v1.3H267.9z M280.3,50.2v7.4H279l-3.2-4.6h-0.1
			v4.6h-1.6v-7.4h1.4l3.2,4.6h0.1v-4.6H280.3z M288.1,52.7h-1.6c0-0.2-0.1-0.4-0.2-0.5c-0.1-0.2-0.2-0.3-0.3-0.4
			c-0.1-0.1-0.3-0.2-0.5-0.3c-0.2-0.1-0.4-0.1-0.6-0.1c-0.4,0-0.7,0.1-1,0.3c-0.3,0.2-0.5,0.5-0.7,0.8c-0.2,0.4-0.2,0.8-0.2,1.3
			c0,0.5,0.1,1,0.2,1.3c0.2,0.4,0.4,0.6,0.7,0.8c0.3,0.2,0.6,0.3,1,0.3c0.2,0,0.4,0,0.6-0.1c0.2-0.1,0.3-0.1,0.5-0.2
			c0.1-0.1,0.3-0.2,0.3-0.4c0.1-0.2,0.2-0.3,0.2-0.5l1.6,0c0,0.3-0.1,0.7-0.3,1c-0.2,0.3-0.4,0.6-0.7,0.8c-0.3,0.2-0.6,0.4-1,0.6
			c-0.4,0.1-0.8,0.2-1.3,0.2c-0.7,0-1.2-0.1-1.8-0.4c-0.5-0.3-0.9-0.7-1.2-1.3c-0.3-0.6-0.4-1.2-0.4-2c0-0.8,0.2-1.5,0.5-2
			c0.3-0.6,0.7-1,1.2-1.3c0.5-0.3,1.1-0.4,1.7-0.4c0.4,0,0.8,0.1,1.2,0.2c0.4,0.1,0.7,0.3,1,0.5c0.3,0.2,0.5,0.5,0.7,0.8
			C287.9,51.9,288,52.3,288.1,52.7z M289.2,57.5v-7.4h5v1.3h-3.4v1.8h3.2v1.3h-3.2v1.8h3.4v1.3H289.2z M297.7,57.5v-7.4h5v1.3h-3.4
			v1.8h3.2v1.3h-3.2v1.8h3.4v1.3H297.7z M307.4,53.2v1.2H304v-1.2H307.4z M312.7,52.3c0-0.3-0.2-0.5-0.4-0.7
			c-0.2-0.2-0.5-0.2-0.9-0.2c-0.3,0-0.5,0-0.6,0.1c-0.2,0.1-0.3,0.2-0.4,0.3c-0.1,0.1-0.1,0.3-0.1,0.4c0,0.1,0,0.2,0.1,0.3
			c0.1,0.1,0.1,0.2,0.3,0.3c0.1,0.1,0.2,0.1,0.4,0.2c0.1,0.1,0.3,0.1,0.5,0.1l0.7,0.2c0.3,0.1,0.6,0.2,0.9,0.3
			c0.3,0.1,0.5,0.3,0.7,0.4c0.2,0.2,0.3,0.4,0.5,0.6c0.1,0.2,0.2,0.5,0.2,0.8c0,0.5-0.1,0.8-0.3,1.2c-0.2,0.3-0.6,0.6-1,0.8
			c-0.4,0.2-0.9,0.3-1.5,0.3c-0.6,0-1.1-0.1-1.6-0.3c-0.4-0.2-0.8-0.5-1-0.8c-0.2-0.4-0.4-0.8-0.4-1.3h1.5c0,0.2,0.1,0.5,0.2,0.6
			c0.1,0.2,0.3,0.3,0.5,0.4c0.2,0.1,0.5,0.1,0.7,0.1c0.3,0,0.5,0,0.7-0.1c0.2-0.1,0.3-0.2,0.5-0.3c0.1-0.1,0.2-0.3,0.2-0.5
			c0-0.2,0-0.3-0.1-0.4c-0.1-0.1-0.2-0.2-0.4-0.3c-0.2-0.1-0.4-0.2-0.7-0.2l-0.8-0.2c-0.6-0.2-1.1-0.4-1.5-0.7s-0.5-0.8-0.5-1.3
			c0-0.4,0.1-0.8,0.4-1.2c0.2-0.3,0.6-0.6,1-0.8c0.4-0.2,0.9-0.3,1.4-0.3c0.5,0,1,0.1,1.4,0.3c0.4,0.2,0.7,0.4,1,0.8
			c0.2,0.3,0.3,0.7,0.4,1.2H312.7z M315.1,51.4v-1.3h6v1.3h-2.3v6.1h-1.5v-6.1H315.1z M328.5,53.8c0,0.8-0.2,1.5-0.5,2
			c-0.3,0.6-0.7,1-1.2,1.3c-0.5,0.3-1.1,0.4-1.8,0.4c-0.7,0-1.2-0.1-1.8-0.4c-0.5-0.3-0.9-0.7-1.2-1.3c-0.3-0.6-0.5-1.2-0.5-2
			c0-0.8,0.2-1.5,0.5-2c0.3-0.6,0.7-1,1.2-1.3c0.5-0.3,1.1-0.4,1.8-0.4c0.7,0,1.2,0.1,1.8,0.4c0.5,0.3,0.9,0.7,1.2,1.3
			C328.4,52.4,328.5,53,328.5,53.8z M326.9,53.8c0-0.5-0.1-1-0.2-1.3c-0.2-0.4-0.4-0.6-0.7-0.8c-0.3-0.2-0.6-0.3-1-0.3
			s-0.7,0.1-1,0.3c-0.3,0.2-0.5,0.5-0.7,0.8c-0.2,0.4-0.2,0.8-0.2,1.3s0.1,1,0.2,1.3c0.2,0.4,0.4,0.6,0.7,0.8c0.3,0.2,0.6,0.3,1,0.3
			s0.7-0.1,1-0.3c0.3-0.2,0.5-0.5,0.7-0.8C326.9,54.8,326.9,54.4,326.9,53.8z M329.7,57.5v-7.4h2.9c0.6,0,1,0.1,1.4,0.3
			c0.4,0.2,0.7,0.5,0.9,0.8c0.2,0.4,0.3,0.8,0.3,1.3c0,0.5-0.1,0.9-0.3,1.3c-0.2,0.4-0.5,0.6-0.9,0.8c-0.4,0.2-0.9,0.3-1.4,0.3h-1.9
			v-1.3h1.7c0.3,0,0.5,0,0.7-0.1c0.2-0.1,0.3-0.2,0.4-0.4c0.1-0.2,0.1-0.4,0.1-0.6c0-0.2,0-0.5-0.1-0.6c-0.1-0.2-0.2-0.3-0.4-0.4
			c-0.2-0.1-0.4-0.1-0.7-0.1h-1.1v6.1H329.7z M333.7,54.2l1.8,3.4h-1.7l-1.8-3.4H333.7z M336.3,57.5v-7.4h5v1.3h-3.4v1.8h3.2v1.3
			h-3.2v1.8h3.4v1.3H336.3z"/>
	</g>
</g>
</svg>
