<svg width="30" height="30" viewBox="0 0 30 30" fill="none" xmlns="http://www.w3.org/2000/svg">
<g clip-path="url(#clip0_360_9791)">
<path d="M0 18.81C0.109575 18.2697 0.180016 17.7137 0.328724 17.1812C1.02531 14.6988 2.55935 12.8194 4.67258 11.4177C5.36916 10.9557 6.13619 10.6111 6.87973 10.2274C7.01278 10.157 7.09888 10.11 7.09105 9.93769C7.06757 6.77402 8.49204 4.3308 10.9418 2.45139C12.8829 0.963528 15.1213 0.203935 17.5476 0.0394876C20.6783 -0.171945 23.5507 0.579816 26.0866 2.45139C27.9885 3.85311 29.3112 5.6777 29.7965 8.02696C30.3287 10.6033 29.6948 12.9212 28.1294 15.0043C28.0668 15.0904 27.9963 15.1765 27.9337 15.2548C27.8633 15.341 27.7929 15.4193 27.7146 15.5211C27.7694 15.5916 27.8163 15.662 27.8711 15.7247C28.4738 16.4295 29.0764 17.1342 29.6869 17.839C29.9609 18.1523 30.0861 18.489 29.9061 18.8884C29.7261 19.2799 29.3895 19.413 28.9747 19.4052C27.6598 19.3974 26.3371 19.4052 25.0222 19.4052C24.9126 19.4052 24.8109 19.4052 24.6935 19.4052C24.6543 19.8672 24.6387 20.3136 24.5761 20.7521C24.2395 23.1797 23.0577 25.1609 21.2497 26.774C19.3399 28.4733 17.0858 29.4522 14.5656 29.8437C14.1978 29.8985 13.8377 29.9612 13.4699 30.016C9.19645 30.016 4.91521 30.016 0.641795 30.016C0.352205 29.875 0.133055 29.6636 0 29.3739C0 29.2172 0 29.0606 0 28.904C0.164362 28.6847 0.313071 28.4577 0.48526 28.2541C1.15053 27.4788 1.83146 26.7114 2.51239 25.9283C2.44195 25.8421 2.37151 25.756 2.30107 25.6777C1.35403 24.5344 0.657448 23.258 0.297417 21.8171C0.172189 21.3081 0.101748 20.7912 0 20.2744C0 19.7889 0 19.2956 0 18.81ZM2.81764 28.2462C2.99765 28.2462 3.0994 28.2462 3.20897 28.2462C6.21445 28.2462 9.21993 28.2619 12.2332 28.2384C13.0864 28.2306 13.9551 28.1601 14.7926 28.0035C17.258 27.5336 19.4104 26.4295 21.0305 24.4718C22.8698 22.2556 23.4412 19.7497 22.4315 17.0011C21.6488 14.8633 20.107 13.3754 18.1346 12.3183C15.7396 11.034 13.1803 10.6503 10.5035 11.0418C8.13984 11.3786 6.01878 12.3026 4.28124 13.9706C2.76285 15.4271 1.83929 17.1812 1.77668 19.319C1.70624 21.5822 2.58283 23.4772 4.15601 25.0747C4.75085 25.6777 4.7665 26.0458 4.20297 26.6801C3.74902 27.1812 3.3029 27.6824 2.81764 28.2462ZM8.85207 9.54614C9.21993 9.47567 9.56431 9.40519 9.90869 9.35037C13.2664 8.80221 16.444 9.29556 19.3947 11.0105C21.6332 12.3183 23.2925 14.1429 24.1691 16.6174C24.2865 16.9463 24.3726 17.283 24.4665 17.6041C25.3666 17.6041 26.2588 17.6041 27.1824 17.6041C26.7441 17.0951 26.3371 16.6252 25.9379 16.1476C25.5387 15.6699 25.5544 15.2392 25.9849 14.8006C26.1336 14.644 26.2901 14.4952 26.4232 14.3308C27.9416 12.5532 28.5912 10.5328 28.059 8.2149C27.6207 6.34333 26.5484 4.85546 24.983 3.7983C21.1244 1.20628 17.0937 1.04967 13.0003 3.19532C11.2158 4.13502 9.92434 5.5759 9.22776 7.50229C8.99296 8.16008 8.86773 8.83354 8.85207 9.54614Z" fill="#3D4A26"/>
<path d="M8.84435 19.3899C8.84435 20.353 8.06168 21.1518 7.09899 21.1518C6.13629 21.1596 5.33796 20.3765 5.33014 19.4133C5.32231 18.4345 6.11281 17.6357 7.08333 17.6357C8.05385 17.6357 8.84435 18.4267 8.84435 19.3899Z" fill="#3D4A26"/>
<path d="M12.3508 21.1519C11.3881 21.144 10.6055 20.3531 10.6055 19.3899C10.6055 18.4111 11.4116 17.628 12.3821 17.6358C13.3448 17.6436 14.1197 18.4424 14.1119 19.4134C14.1119 20.3688 13.3135 21.1597 12.3508 21.1519Z" fill="#3D4A26"/>
<path d="M19.3873 19.3899C19.3873 20.353 18.6046 21.144 17.642 21.1518C16.6636 21.1596 15.8653 20.3609 15.8731 19.382C15.8809 18.4188 16.6636 17.6357 17.6341 17.6357C18.5968 17.6357 19.3873 18.4267 19.3873 19.3899Z" fill="#3D4A26"/>
</g>
<defs>
<clipPath id="clip0_360_9791">
<rect width="30" height="30" fill="white"/>
</clipPath>
</defs>
</svg>
