<svg width="216" height="250" viewBox="0 0 216 250" fill="none" xmlns="http://www.w3.org/2000/svg">
<g opacity="0.5" clip-path="url(#clip0_360_10908)">
<path d="M51.5662 12.7457C50.5821 52.5763 47.3709 189.98 48.904 238.663C49.0698 243.819 53.2029 247.961 58.3615 248.126C83.8854 248.965 157.308 251.077 199.064 249.327C207.755 248.965 214.675 241.924 214.851 233.227C215.721 191.419 217.637 73.8221 213.079 19.9519C212.53 13.5015 207.465 8.35575 201.022 7.71382C173.229 4.93903 99.3924 -1.85298 63.3337 0.486948C56.8285 0.901095 51.732 6.23324 51.5662 12.7457Z" fill="#3D4A26"/>
<path d="M61.9369 25.1182C60.5385 57.7426 56.1464 166.27 57.5448 206.401C57.752 212.271 62.372 217.013 68.235 217.355C92.3708 218.763 154.275 221.88 189.681 219.043C196.051 218.535 201.055 213.379 201.407 207.001C203.199 173.714 208.347 72.6623 207.011 32.987C206.793 26.6609 201.894 21.484 195.575 20.9249C169.46 18.585 102.398 13.0044 72.3163 14.6506C66.6708 14.9405 62.1752 19.4754 61.9369 25.1182Z" fill="#3BAF7F"/>
<path opacity="0.5" d="M114.641 7.4443C114.641 8.66603 115.594 9.67034 116.816 9.74282C122.845 10.0534 139.823 10.9542 147.416 11.3891C148.907 11.4719 150.088 10.1363 149.798 8.65568L149.746 8.40719C149.55 7.40289 148.721 6.64707 147.706 6.55388C142.578 6.08797 127.092 4.7834 116.837 5.14578C115.614 5.1872 114.641 6.21221 114.641 7.4443Z" fill="white"/>
<path d="M182.17 142.757L79.546 140.79C76.2001 140.728 73.6829 144.621 73.9626 149.445C74.232 154.219 77.7229 155.658 81.0066 155.606L181.393 156.413C183.454 156.382 185.288 153.359 185.505 149.642C185.744 145.884 184.252 142.788 182.17 142.757Z" fill="white"/>
<path d="M182.447 174.211L79.8233 172.244C76.4775 172.182 73.9603 176.075 74.24 180.9C74.5093 185.673 78.0002 187.112 81.2839 187.06L181.67 187.868C183.732 187.837 185.565 184.813 185.783 181.096C186.021 177.348 184.529 174.253 182.447 174.211Z" fill="white"/>
<path d="M138.393 147.054L82.7048 146.474C80.892 146.453 79.5246 147.499 79.68 148.793C79.8354 150.077 81.7207 150.46 83.5024 150.45L137.979 150.719C139.098 150.709 140.092 149.901 140.206 148.907C140.33 147.903 139.522 147.064 138.393 147.054Z" fill="url(#paint0_linear_360_10908)"/>
<path d="M46.4896 112.938C46.4896 112.938 43.4752 114.409 42.9158 116.086C42.4704 117.442 39.1349 117.608 38.8034 120.269C38.6377 121.646 37.6122 122.743 36.2448 122.95C32.8368 123.468 27.5849 125.239 26.7459 131.151C26.1036 135.665 28.4033 137.373 30.8169 137.963C32.5882 138.398 33.7691 140.127 33.4065 141.908C33.0647 143.627 33.5723 145.604 36.5556 147.178C43.2266 150.698 49.8873 138.843 49.8873 138.843L51.2546 118.157L46.4896 112.938Z" fill="url(#paint1_linear_360_10908)"/>
<path d="M82.7783 108.03C82.7783 108.03 69.4674 129.079 53.6289 133.148C53.6289 133.148 56.7158 141.928 59.0983 142.933C59.0983 142.933 78.5727 126.688 83.576 111.022L82.7783 108.03Z" fill="url(#paint2_linear_360_10908)"/>
<path d="M19.0835 242.649L18.6484 246.19C18.5655 246.863 18.0372 247.391 17.3639 247.474C16.2245 247.609 14.4013 247.733 12.6196 247.547C11.8324 247.464 11.3248 246.667 11.563 245.921C11.9981 244.554 12.7957 242.494 13.9456 241.293H17.8819C18.607 241.293 19.1767 241.925 19.0835 242.649Z" fill="url(#paint3_linear_360_10908)"/>
<path d="M49.8998 201.121L50.5628 205.024C50.5628 205.024 48.3356 227.544 47.942 236.551C47.8798 237.959 48.2424 239.357 48.9882 240.558L52.852 246.833L43.0216 241.035L42.8248 239.833L44.4304 237.618L42.3276 212.396C42.2033 210.916 42.514 209.425 43.2081 208.12L45.2384 204.3L49.8998 201.121Z" fill="url(#paint4_linear_360_10908)"/>
<path d="M53.5055 247.743H50.3668C49.7764 247.743 49.2274 247.474 48.8648 247.008C47.8911 245.734 45.8608 243.26 44.8974 243.198C43.5922 243.115 43.758 247.743 43.758 247.743H43.0225L42.1006 241.986C41.8727 240.537 42.5874 239.098 43.8926 238.425C43.8926 238.425 44.193 240.63 45.809 241.603C47.4249 242.577 52.3868 246.066 52.3868 246.066C52.3868 246.066 52.9979 245.983 53.6609 246.097C54.6553 246.283 54.5103 247.743 53.5055 247.743Z" fill="url(#paint5_linear_360_10908)"/>
<path d="M36.4435 202.974C36.4435 202.974 23.4122 227.677 21.3405 233.32C19.2687 238.963 18.5436 243.664 18.5125 244.109C18.4711 244.802 17.601 245.475 15.2185 245.475C13.9858 245.475 13.385 244.978 13.0846 244.502C12.836 244.098 12.8152 243.581 13.0328 243.156C13.789 241.634 16.1818 236.758 17.0623 234.552C18.1189 231.912 20.3978 219.954 21.6409 215.802C22.8839 211.64 24.3031 207.136 29.731 202.984C29.7414 202.974 33.4705 199.319 36.4435 202.974Z" fill="url(#paint6_linear_360_10908)"/>
<path d="M44.6665 162.491C48.0227 148.255 39.5078 140.21 39.5078 140.21C44.884 135.054 54.673 132.714 54.673 132.714C54.673 132.714 64.0165 139.537 62.9082 144.879C62.2556 148.006 56.3407 163.63 56.3407 163.63C56.3407 163.63 50.8713 166.218 44.6665 162.491Z" fill="url(#paint7_linear_360_10908)"/>
<path d="M37.2201 169.542C38.5875 165.421 44.668 162.491 44.668 162.491C50.8729 166.219 56.3423 163.63 56.3423 163.63C56.3423 163.63 57.5646 168.32 56.7256 172.669C55.8762 177.028 50.5621 205.014 50.5621 205.014C42.1923 206.712 29.3164 203.305 29.3164 203.305C34.6511 193.853 35.8528 173.663 37.2201 169.542Z" fill="url(#paint8_linear_360_10908)"/>
<path d="M48.5734 123.303L45.8387 135.572C45.5798 136.649 46.5638 136.473 47.6515 136.266C49.4436 135.924 51.7536 135.23 52.5201 133.843C52.603 133.698 52.634 133.543 52.6548 133.377L53.8253 124.866C53.9185 124.193 53.556 123.541 52.9345 123.261L50.6659 122.257C49.8061 121.874 48.8013 122.371 48.5734 123.303Z" fill="url(#paint9_linear_360_10908)"/>
<path d="M53.8077 112.121C53.8077 112.121 56.7185 114.088 57.9719 119.099C59.2253 124.11 57.195 125.912 55.1129 125.798C53.0308 125.684 50.0164 125.042 47.3956 121.449C44.7749 117.857 49.9957 109.719 53.8077 112.121Z" fill="url(#paint10_linear_360_10908)"/>
<path d="M50.0252 119.43C50.0252 119.43 48.9583 112.245 54.9249 113.342L56.1265 114.595C56.1265 114.595 59.0477 111.313 55.8158 108.828C52.5838 106.343 48.0985 106.975 45.6228 111.499C43.1367 116.024 42.2458 119.202 44.3176 122.008C46.3997 124.814 47.9638 122.412 47.9638 122.412C47.9638 122.412 47.0108 119.979 47.7981 118.933C48.5854 117.887 49.6109 119.544 49.6109 119.544L50.0252 119.43Z" fill="url(#paint11_linear_360_10908)"/>
<path d="M49.2075 120.041C49.2075 120.041 48.6792 116.345 46.7939 117.401C44.9086 118.457 47.4776 120.848 48.5031 121.666L49.2075 120.041Z" fill="url(#paint12_linear_360_10908)"/>
<path d="M82.6862 112.359C82.7276 112.793 81.1117 113.094 80.5938 111.24C80.7388 110.433 80.9874 106.923 81.5985 106.374C84.8823 103.465 90.7349 100.183 90.7349 100.183C91.3875 101.187 90.5278 101.839 90.5278 101.839L87.6066 103.806C87.907 104.811 88.3524 105.711 88.4042 106.861C88.4457 107.73 88.1245 108.59 87.5444 109.252C86.9644 109.915 86.1771 110.774 85.4727 111.427C84.1468 112.669 82.6862 112.359 82.6862 112.359Z" fill="url(#paint13_linear_360_10908)"/>
<path d="M84.2706 110.93L83.8252 110.744C83.8874 110.599 85.2858 107.192 85.9695 106.488C86.2284 106.219 86.3527 105.991 86.3424 105.805C86.332 105.701 86.2906 105.608 86.187 105.505L83.8252 106.768L82.779 108.404L82.375 108.145L83.4834 106.405L86.2492 104.925L86.3735 105.028C86.6531 105.256 86.7982 105.505 86.8189 105.774C86.8396 106.105 86.6739 106.447 86.3113 106.82C85.8037 107.348 84.6643 109.967 84.2706 110.93Z" fill="url(#paint14_linear_360_10908)"/>
<path d="M39.5201 140.21C39.5201 140.21 24.3963 171.25 18.9166 173.973C18.9166 173.973 13.3539 174.553 9.94591 175.588C9.08614 175.847 9.11721 177.059 9.97699 177.297C12.3491 177.939 16.2751 178.487 19.8799 176.53C19.8799 176.53 17.9428 179.429 19.0719 180.558C19.0719 180.558 21.6513 177.504 22.6146 176.53C23.464 175.681 38.9607 158.795 45.466 148.617C45.9942 147.799 45.6317 145.345 45.2588 144.444C44.4301 142.353 42.5655 139.029 39.5201 140.21Z" fill="url(#paint15_linear_360_10908)"/>
<path d="M132.25 122.091C157.308 122.091 177.621 101.787 177.621 76.7417C177.621 51.6961 157.308 31.3926 132.25 31.3926C107.192 31.3926 86.8789 51.6961 86.8789 76.7417C86.8789 101.787 107.192 122.091 132.25 122.091Z" fill="white"/>
<path d="M146.968 60.4136C146.968 68.1478 140.691 76.5033 132.953 76.5033C125.215 76.5033 118.938 68.1478 118.938 60.4136C118.938 52.6794 125.215 47.1816 132.953 47.1816C140.691 47.192 146.968 52.6794 146.968 60.4136Z" fill="url(#paint16_linear_360_10908)"/>
<path d="M115.552 106.301H149.766C153.371 106.301 156.562 103.972 157.66 100.545L159.504 94.788C160.85 90.574 158.665 86.0184 154.5 84.4964C140.578 79.4024 126.18 80.065 111.418 84.9623C107.285 86.3394 104.996 90.75 106.135 94.9536L107.555 100.182C108.539 103.796 111.812 106.301 115.552 106.301Z" fill="url(#paint17_linear_360_10908)"/>
<path d="M89.6654 179.543C89.6032 181.562 87.9148 183.177 85.9052 183.157C83.8956 183.136 82.3107 181.479 82.3729 179.46C82.435 177.441 84.1235 175.826 86.1331 175.847C88.153 175.878 89.7275 177.524 89.6654 179.543Z" fill="url(#paint18_linear_360_10908)"/>
<path d="M103.299 179.698C103.236 181.707 101.569 183.312 99.5694 183.291C97.5702 183.27 96.006 181.624 96.0682 179.616C96.1303 177.607 97.8085 175.992 99.8077 176.023C101.807 176.044 103.361 177.69 103.299 179.698Z" fill="url(#paint19_linear_360_10908)"/>
<path d="M117.911 179.937C117.849 181.956 116.161 183.571 114.151 183.55C112.142 183.529 110.557 181.873 110.619 179.854C110.681 177.835 112.37 176.22 114.379 176.24C116.399 176.271 117.974 177.928 117.911 179.937Z" fill="url(#paint20_linear_360_10908)"/>
<path d="M146.826 180.289C146.764 182.298 145.096 183.903 143.097 183.882C141.098 183.861 139.533 182.215 139.596 180.206C139.658 178.198 141.336 176.583 143.335 176.614C145.324 176.634 146.888 178.281 146.826 180.289Z" fill="url(#paint21_linear_360_10908)"/>
<path d="M161.439 180.528C161.377 182.546 159.688 184.162 157.679 184.141C155.669 184.12 154.084 182.464 154.146 180.445C154.208 178.426 155.897 176.811 157.907 176.831C159.926 176.862 161.501 178.509 161.439 180.528Z" fill="url(#paint22_linear_360_10908)"/>
<path d="M131.545 180.103C131.483 182.111 129.815 183.716 127.816 183.695C125.816 183.675 124.252 182.029 124.314 180.02C124.376 178.011 126.055 176.396 128.054 176.427C130.053 176.448 131.617 178.094 131.545 180.103Z" fill="url(#paint23_linear_360_10908)"/>
<path d="M4.11422 78.7922C3.97956 78.8025 3.8449 78.7301 3.78274 78.5955C3.56521 78.1813 3.35804 77.7465 3.16122 77.322C3.07835 77.1459 3.16122 76.9389 3.33732 76.856C3.77238 76.6593 3.8449 77.1459 4.42498 78.2849C4.51821 78.4609 4.4457 78.6679 4.2696 78.7508C4.20745 78.7818 4.15566 78.7922 4.11422 78.7922Z" fill="#3BAF7F"/>
<path d="M1.55392 73.2012C1.28459 72.3419 1.04634 71.4514 0.849525 70.5714C0.80809 70.385 0.932395 70.1986 1.11885 70.1572C1.64715 70.0433 1.43997 70.4575 2.23759 72.9941C2.29975 73.1805 2.1858 73.3772 1.99934 73.429C1.81289 73.4911 1.61607 73.3876 1.55392 73.2012ZM0.155491 66.2228C0.0622623 65.3221 0.0104687 64.4006 0.000109939 63.5102C-0.0102488 63.0339 0.714862 63.0442 0.714862 63.4998C0.72522 64.3799 0.777014 65.2703 0.859884 66.1607C0.880601 66.3574 0.735579 66.5231 0.538763 66.5438C0.341948 66.5541 0.165849 66.4092 0.155491 66.2228ZM0.217643 59.1099C0.32123 58.2091 0.455894 57.3083 0.631992 56.4282C0.72522 55.9727 1.42961 56.1073 1.33638 56.5628C1.17065 57.4326 1.02562 58.3126 0.932395 59.1927C0.870242 59.6482 0.165849 59.5654 0.217643 59.1099ZM1.98898 52.587C1.80253 52.5249 1.69894 52.3282 1.76109 52.1418C2.05114 51.2825 2.37226 50.4231 2.73481 49.5948C2.92127 49.1703 3.58423 49.4395 3.39777 49.864C3.04557 50.682 2.72445 51.5206 2.44477 52.3593C2.38262 52.556 2.1858 52.6492 1.98898 52.587ZM4.86871 46.1263C4.69261 46.0332 4.64082 45.8157 4.73404 45.6501C5.20019 44.8632 5.69741 44.097 6.21534 43.3515C6.48467 42.9685 7.07511 43.3619 6.80579 43.745C6.29821 44.4697 5.81135 45.2359 5.35557 46.0021C5.26234 46.1677 5.04481 46.2195 4.86871 46.1263ZM9.28152 40.4525C9.18829 40.4525 9.10542 40.4318 9.03291 40.3697C8.88789 40.2454 8.86717 40.0177 9.00184 39.8727C9.613 39.1997 10.2656 38.5371 10.9286 37.9159C11.0736 37.7813 11.3015 37.7813 11.4361 37.9262C11.5708 38.0608 11.5708 38.2886 11.4258 38.4232C10.7732 39.0341 10.1413 39.6863 9.54049 40.349C9.46798 40.4111 9.37475 40.4422 9.28152 40.4525ZM14.5955 35.6795C14.4816 35.6795 14.3677 35.6381 14.2951 35.5345C14.1812 35.3792 14.2123 35.1618 14.3677 35.0479C15.1031 34.5095 15.88 33.9918 16.6569 33.5052C16.8227 33.4017 17.0506 33.4534 17.1542 33.6191C17.2577 33.7847 17.2059 34.0022 17.0402 34.1057C16.2737 34.582 15.5175 35.0893 14.7924 35.6173C14.7302 35.6588 14.6681 35.6795 14.5955 35.6795ZM20.4482 31.8693C20.3654 31.6933 20.4482 31.4862 20.6243 31.4034C21.4634 31.0203 22.3231 30.6683 23.1933 30.3577C23.6387 30.192 23.8873 30.8547 23.4419 31.01C22.5925 31.3206 21.7431 31.6622 20.9247 32.035C20.7486 32.1178 20.5311 32.0453 20.4482 31.8693ZM44.5322 29.9642C41.9218 29.2912 41.4868 29.5087 41.5904 28.9806C41.6214 28.7943 41.8079 28.6597 42.0047 28.7011C42.9163 28.8564 43.8279 29.0635 44.7187 29.2912C45.1745 29.4051 44.988 30.0885 44.5322 29.9642ZM27.2435 29.4983C27.2021 29.312 27.3161 29.1256 27.5129 29.0738C28.4141 28.8667 29.3256 28.6907 30.2372 28.5561C30.7034 28.4837 30.8173 29.1774 30.3408 29.2498C29.4499 29.3844 28.5487 29.5501 27.6682 29.7572C27.4818 29.7986 27.285 29.6847 27.2435 29.4983ZM37.478 28.8978C34.7847 28.7632 34.4014 29.0635 34.3911 28.5251C34.3807 28.1834 34.7847 28.142 34.7433 28.1627C35.6652 28.142 36.6078 28.1523 37.5194 28.1938C37.7162 28.2041 37.8716 28.3698 37.8612 28.5665C37.8509 28.7529 37.6851 28.9082 37.478 28.8978Z" fill="#3BAF7F"/>
<path d="M50.0439 31.8898C48.9458 31.4032 48.3554 31.3307 48.5419 30.8855C48.6144 30.7095 48.8215 30.6163 49.008 30.6888C50.1682 31.1444 50.7068 31.2997 50.5204 31.7138C50.4686 31.838 50.2303 31.9623 50.0439 31.8898Z" fill="#3BAF7F"/>
<path d="M68.8429 51.7483C68.6875 51.7587 68.5425 51.6655 68.4907 51.5102C68.3353 51.0754 68.1696 50.6405 67.9935 50.216C67.921 50.04 68.0142 49.8329 68.1903 49.7604C68.3768 49.688 68.5839 49.7708 68.6564 49.9572C68.8325 50.392 69.0086 50.8372 69.164 51.2824C69.2262 51.4688 69.1329 51.6655 68.9465 51.7276C68.9154 51.738 68.8843 51.7483 68.8429 51.7483Z" fill="url(#paint24_linear_360_10908)"/>
<path d="M35.9363 97.7188C34.9419 97.7291 33.9371 97.698 32.9427 97.6359C32.7459 97.6256 32.6008 97.4496 32.6112 97.2632C32.6526 96.7145 33.0152 97.0561 35.926 97.0251C36.1228 97.0251 36.2885 97.1804 36.2885 97.3667C36.2989 97.7084 35.8949 97.7395 35.9363 97.7188ZM40.3699 97.0458C40.287 96.5074 40.7324 96.7559 43.55 96.1139C43.7468 96.0725 43.9333 96.1864 43.9851 96.3728C44.0265 96.5591 43.9126 96.7455 43.7157 96.7973C42.7524 97.0147 41.7579 97.2011 40.7739 97.346C40.5874 97.3667 40.401 97.2425 40.3699 97.0458ZM28.1362 96.9733C27.1625 96.7766 26.1888 96.5281 25.2358 96.2485C25.0493 96.1968 24.9354 96 24.9975 95.8137C25.1633 95.296 25.443 95.6998 28.2813 96.2899C28.4781 96.3314 28.6024 96.5177 28.5609 96.7041C28.5195 96.8905 28.333 97.0147 28.1362 96.9733ZM48.2529 95.4202C48.1078 95.4306 47.9628 95.3374 47.9007 95.1925C47.8282 95.0164 47.9214 94.8094 48.1078 94.7369C49.0194 94.3952 49.9206 94.0121 50.8011 93.598C50.9772 93.5152 51.1947 93.5876 51.2776 93.7636C51.3605 93.9397 51.288 94.1467 51.1119 94.2296C50.221 94.6541 49.2991 95.0475 48.3668 95.3995C48.3254 95.4099 48.2839 95.4202 48.2529 95.4202ZM55.1414 91.931C55.0171 91.931 54.9032 91.8793 54.8307 91.7757C54.7167 91.6101 54.7685 91.3927 54.9342 91.2891C55.7422 90.7611 56.5398 90.1916 57.3064 89.6015C57.4618 89.4772 57.6897 89.5083 57.814 89.6532C57.9383 89.8085 57.9072 90.026 57.7518 90.1502C56.9749 90.7611 56.1566 91.3409 55.3382 91.8793C55.2657 91.9103 55.2036 91.931 55.1414 91.931ZM61.0873 87.0441C60.9941 87.0441 60.9009 87.013 60.8284 86.9509C60.6833 86.8163 60.6833 86.5989 60.818 86.4539C61.4913 85.7706 62.1439 85.0355 62.7551 84.3004C62.8794 84.1451 63.1073 84.1244 63.2626 84.2486C63.418 84.3729 63.4387 84.5903 63.3144 84.7456C62.6929 85.5014 62.03 86.2365 61.3359 86.9406C61.2634 87.0027 61.1702 87.0441 61.0873 87.0441ZM65.8005 81.0183C65.728 81.0183 65.6659 81.0079 65.6037 80.9665C65.438 80.863 65.3758 80.6559 65.4794 80.4902C65.987 79.6723 66.4531 78.8336 66.8882 77.9743C66.9711 77.7983 67.1886 77.7258 67.3647 77.819C67.5408 77.9018 67.6133 78.1192 67.5304 78.2849C67.085 79.1546 66.6085 80.014 66.0906 80.8526C66.0284 80.9561 65.9145 81.0079 65.8005 81.0183ZM68.9289 74.1124C68.4006 73.9363 68.8253 73.6775 69.509 70.9131C69.6229 70.4575 70.3169 70.6232 70.203 71.0787C69.9647 72.0209 69.6954 72.9735 69.3743 73.8949C69.3225 74.0709 69.1153 74.1745 68.9289 74.1124ZM70.6381 66.7095C70.0787 66.6577 70.4412 66.316 70.4827 63.4688C70.493 63.0029 71.2078 63.0132 71.1974 63.4791C71.1767 64.4524 71.1249 65.436 71.0213 66.3989C71.011 66.5852 70.8349 66.7302 70.6381 66.7095ZM70.607 59.1306C70.4205 59.1409 70.2548 59.0063 70.2341 58.82C70.1201 57.8674 69.9647 56.9252 69.7679 55.9934C69.7265 55.8071 69.8508 55.6207 70.0476 55.5793C70.2444 55.5379 70.4309 55.6621 70.4723 55.8485C70.6691 56.7907 70.8349 57.7639 70.9488 58.7371C70.9695 58.9339 70.8349 59.0995 70.6381 59.1306C70.6277 59.1306 70.6173 59.1306 70.607 59.1306Z" fill="url(#paint25_linear_360_10908)"/>
<path d="M20.6766 94.5504C19.5371 94.043 19.0088 93.867 19.216 93.4632C19.4335 93.0387 19.8168 93.3907 20.977 93.9188C21.1531 94.0016 21.2359 94.2087 21.1531 94.3847C21.0702 94.5504 20.8527 94.6332 20.6766 94.5504Z" fill="url(#paint26_linear_360_10908)"/>
<path d="M20.8109 84.8385L25.2444 82.2811C27.3783 83.3579 29.709 84.1034 32.1537 84.4658C34.2462 88.8971 34.0804 89.3631 34.6294 89.3113L40.7825 88.8247C40.9586 88.8143 41.114 88.6901 41.1554 88.5141L42.4399 83.6478C44.8017 82.9127 46.977 81.8049 48.9141 80.4071L53.7102 82.2397C53.8759 82.3018 54.0727 82.2604 54.1867 82.1258L58.1955 77.5288C58.3095 77.3942 58.3302 77.1975 58.237 77.0525L55.6266 72.7247C56.7246 70.6333 57.5015 68.3554 57.8744 65.9741L62.5876 63.9551C62.7534 63.8827 62.8569 63.717 62.8362 63.541L62.3494 57.5255C62.339 57.3495 62.2043 57.2045 62.0386 57.1631L57.0664 55.9103C56.3102 53.6118 55.1915 51.4789 53.762 49.5946C55.5023 44.9768 55.9477 44.7905 55.523 44.4488C50.8512 40.7008 50.8201 40.2141 50.3332 40.504L45.8997 43.0614C43.7658 41.9846 41.4351 41.2391 38.9905 40.8768C36.898 36.4454 37.0637 35.9795 36.5147 36.0209C30.4031 36.6111 30.1234 36.2901 29.9784 36.8181L28.6939 41.6844C26.3321 42.4195 24.1568 43.5273 22.2197 44.9251C17.5583 43.2478 17.3097 42.7922 16.9471 43.2063C13.0626 47.8241 12.6172 47.8137 12.8968 48.2797L15.5072 52.6075C14.4092 54.6989 13.6323 56.9767 13.2594 59.3581C8.79479 61.3771 8.24578 61.2321 8.28721 61.7912C8.87766 67.7342 8.54618 68.0345 9.08483 68.1691L14.0674 69.4219C14.8236 71.7204 15.9423 73.8532 17.3718 75.7376C15.6315 80.3347 15.1861 80.5417 15.6108 80.8834C20.3033 84.6418 20.324 85.1181 20.8109 84.8385Z" fill="url(#paint27_linear_360_10908)"/>
<path d="M29.8736 64.5658C28.8067 61.4907 30.5055 58.1465 33.6442 57.1008C36.7933 56.055 40.2116 57.7013 41.2786 60.7763C42.3455 63.8514 40.6467 67.1956 37.508 68.2413C34.359 69.2767 30.9302 67.6304 29.8736 64.5658ZM33.986 58.0947C31.4378 58.9437 29.9979 61.6667 30.8888 64.2241C31.7589 66.7504 34.5765 68.0964 37.1558 67.237C39.7351 66.3777 41.1336 63.6339 40.2531 61.1076C39.3829 58.5813 36.5654 57.2353 33.986 58.0947Z" fill="url(#paint28_linear_360_10908)"/>
<path d="M36.2366 77.632C35.3457 77.663 34.4549 77.632 33.5848 77.5181C33.3258 77.487 33.129 77.2696 33.1186 77.0211C33.1186 76.99 33.1186 76.959 33.1186 76.9279C33.1601 76.638 33.4294 76.4413 33.7194 76.4723C34.7242 76.6069 35.7601 76.6276 36.7752 76.5448C44.4718 75.934 50.2934 69.4733 49.993 61.9979C49.9826 61.8115 49.9723 61.6148 49.9619 61.4284C49.33 53.6735 42.3897 47.948 34.5067 48.5692C26.6341 49.1904 20.6985 55.9513 21.32 63.6855C21.693 68.2929 24.0133 70.5086 24.034 70.9952C24.0547 71.5129 23.3711 71.7407 23.0603 71.3266C21.3718 69.0177 20.336 66.1911 20.2117 63.1575C19.6937 50.0705 35.47 42.5847 45.663 51.0644C48.8017 53.6735 50.7077 57.3284 51.0288 61.3353C51.0496 61.5423 51.0599 61.7494 51.0703 61.9565C51.2153 65.7563 49.9205 69.4111 47.3826 72.3205C44.71 75.3852 40.9705 77.2592 36.8581 77.5802C36.6613 77.6112 36.4541 77.6216 36.2366 77.632Z" fill="url(#paint29_linear_360_10908)"/>
<path d="M65.7755 37.5126C67.0081 38.0303 68.3341 38.3512 69.7014 38.4444L71.048 40.9604C71.1931 41.2399 71.3795 41.0121 74.684 40.5359C74.9844 40.4841 74.8393 40.2563 75.3676 37.5333C76.6417 37.0156 77.7916 36.2909 78.8067 35.4108L81.5414 36.2391C81.8418 36.3323 81.8107 36.032 83.81 33.3711C83.8721 33.2883 83.8721 33.1848 83.81 33.1019L82.1629 30.762C82.6809 29.5299 83.002 28.2046 83.0952 26.838C85.4777 25.5023 85.7885 25.5541 85.7367 25.2435C85.1359 21.8992 85.3016 21.7129 85.0012 21.6611L82.1837 21.1641C81.6657 19.8906 80.9406 18.731 80.0601 17.7267L80.8888 14.9933C80.9821 14.6931 80.6817 14.7241 78.0195 12.7259C77.7708 12.5499 77.7294 12.8087 75.4091 14.3721C74.1764 13.8544 72.8505 13.5335 71.4831 13.4403L70.1365 10.9243C69.9914 10.6448 69.805 10.8726 66.5006 11.3488C66.2002 11.4006 66.3555 11.6077 65.8169 14.3514C64.5428 14.8691 63.3826 15.5939 62.3778 16.4739L59.6431 15.6456C59.5499 15.6146 59.4463 15.656 59.3841 15.7285L57.3849 18.5032C57.3227 18.5861 57.3227 18.6896 57.3849 18.7724L59.0319 21.1124C58.514 22.3445 58.1929 23.6697 58.0996 25.0364C55.7171 26.372 55.4064 26.3203 55.4582 26.6309C56.059 29.9751 55.8932 30.1615 56.1936 30.2133L59.0112 30.7102C59.5291 31.9837 60.2543 33.133 61.1347 34.1476C60.3993 36.7775 60.1403 36.9639 60.3889 37.1399L63.1754 39.1485C63.4137 39.3348 63.4655 39.0656 65.7755 37.5126Z" fill="url(#paint30_linear_360_10908)"/>
<path d="M67.3191 27.3555C66.5318 25.5332 67.3709 23.4314 69.194 22.6549C71.0068 21.868 73.12 22.7066 73.8969 24.5289C74.6738 26.3408 73.8347 28.4529 72.0219 29.2295C70.2092 30.006 68.096 29.1673 67.3191 27.3555ZM68.2928 26.931C68.8418 28.2045 70.3231 28.7946 71.5972 28.2459C73.6379 27.3658 73.6068 24.4254 71.5351 23.6074C69.4737 22.7791 67.4123 24.8809 68.2928 26.931Z" fill="url(#paint31_linear_360_10908)"/>
<path d="M57.0246 38.8681C56.6931 38.5161 56.372 38.1537 56.0612 37.781C55.9369 37.6257 55.9576 37.4082 56.113 37.284C56.4963 36.9734 56.6827 37.4807 57.5322 38.3815C57.6668 38.5264 57.6668 38.7439 57.5218 38.8888C57.3768 39.0131 57.1592 39.0131 57.0246 38.8681Z" fill="#3BAF7F"/>
<path d="M53.5529 33.7432C53.1593 32.8839 52.8175 31.9624 52.5481 30.9892C52.4238 30.5336 53.1075 30.3472 53.2318 30.7924C53.9362 33.298 54.5681 33.6604 54.0294 33.9089C53.843 34.0021 53.6358 33.9193 53.5529 33.7432ZM52.2063 26.6303C52.0095 26.6303 51.8437 26.475 51.8437 26.2782C51.823 25.305 51.8852 24.3214 52.0198 23.3481C52.082 22.8822 52.7864 22.9754 52.7242 23.4517C52.5896 24.3835 52.5378 25.3257 52.5585 26.2679C52.5689 26.6199 52.1752 26.651 52.2063 26.6303ZM53.6151 19.2688C53.5633 19.2688 53.5115 19.2584 53.4701 19.2377C53.2836 19.1653 53.2007 18.9582 53.2733 18.7718C53.6462 17.871 54.0916 16.991 54.5992 16.1627C54.7028 15.997 54.9203 15.9453 55.086 16.0488C55.2518 16.1523 55.3036 16.3698 55.2 16.5354C54.7131 17.3327 54.278 18.1817 53.9258 19.0514C53.8741 19.1756 53.7498 19.2584 53.6151 19.2688ZM57.8311 13.0566C57.7379 13.0566 57.6343 13.0255 57.5618 12.9531C57.4271 12.8081 57.4271 12.5907 57.5721 12.4457C58.2765 11.7727 59.0327 11.1412 59.8303 10.5821C59.9961 10.4682 60.2136 10.5096 60.3275 10.6649C60.4415 10.8305 60.4 11.048 60.2447 11.1619C59.4781 11.7003 58.7427 12.3008 58.0693 12.9531C57.9968 13.0255 57.914 13.0566 57.8311 13.0566ZM63.8288 8.83229C63.7563 8.64592 63.8495 8.43885 64.036 8.37672C64.9475 8.03505 65.9005 7.7555 66.8535 7.56914C67.3093 7.47595 67.4543 8.16965 66.9986 8.26283C66.087 8.4492 65.1651 8.7184 64.2846 9.03936C64.0981 9.11184 63.9013 9.0083 63.8288 8.83229Z" fill="#3BAF7F"/>
<path d="M72.9767 8.04558C71.6818 7.86957 71.226 8.02487 71.2468 7.53825C71.2571 7.34153 71.4229 7.18623 71.6197 7.20693C72.0962 7.23799 72.583 7.27941 73.0595 7.34153C73.2564 7.37259 73.391 7.54861 73.3703 7.74533C73.3496 7.93169 73.1735 8.07664 72.9767 8.04558Z" fill="#3BAF7F"/>
<path d="M85.5179 15.7694C84.7824 14.6822 84.3681 14.4441 84.741 14.1438C84.8964 14.0196 85.1139 14.0507 85.2382 14.1956C85.5386 14.5683 85.8287 14.9618 86.098 15.3656C86.2119 15.5312 86.1705 15.7487 86.0048 15.8626C85.8494 15.9661 85.6215 15.9247 85.5179 15.7694Z" fill="url(#paint32_linear_360_10908)"/>
<path d="M73.0164 44.1799C72.9232 43.6001 73.5654 43.9211 76.0204 43.1446C76.4659 42.9996 76.6834 43.6829 76.238 43.8279C75.3161 44.1178 74.3734 44.3352 73.4308 44.4802C73.234 44.5112 73.0475 44.3766 73.0164 44.1799ZM79.9982 41.7675C79.8946 41.6019 79.9464 41.3844 80.1121 41.2809C82.3185 39.9246 82.4636 39.2309 82.8572 39.6864C82.9815 39.8314 82.9711 40.0592 82.8158 40.1834C82.0907 40.8046 81.3034 41.3741 80.4851 41.8814C80.3193 41.9849 80.1018 41.9332 79.9982 41.7675ZM85.4572 36.8081C84.9704 36.4664 85.6437 36.2386 86.7832 33.9298C86.9903 33.5053 87.6326 33.8262 87.4254 34.2404C87.0007 35.0997 86.5035 35.9384 85.9545 36.7149C85.8405 36.8806 85.623 36.922 85.4572 36.8081ZM88.5338 30.0989C87.9537 29.9747 88.482 29.4984 88.627 26.9307C88.6581 26.4648 89.3625 26.4958 89.3418 26.9721C89.29 27.9246 89.1553 28.8875 88.9585 29.8297C88.917 30.0161 88.7306 30.1403 88.5338 30.0989ZM88.3162 22.4372C87.8087 19.9005 87.2182 19.5175 87.7776 19.3104C87.9641 19.2379 88.1712 19.3414 88.2334 19.5278C88.5649 20.4286 88.8238 21.3604 89.0103 22.3026C89.0517 22.4993 88.9274 22.6857 88.7306 22.7167C88.5441 22.7582 88.3577 22.6339 88.3162 22.4372Z" fill="url(#paint33_linear_360_10908)"/>
<path d="M68.7268 44.5937C68.2503 44.542 67.7635 44.4798 67.287 44.3867C67.0902 44.3556 66.9659 44.1692 66.9969 43.9725C67.0798 43.4859 67.5563 43.7551 68.789 43.8793C68.9858 43.9 69.1308 44.076 69.1101 44.2728C69.0998 44.4798 68.9133 44.6144 68.7268 44.5937Z" fill="url(#paint34_linear_360_10908)"/>
<path d="M70.1878 34.675C69.846 34.6543 69.6492 34.3954 69.6595 34.1159C69.6802 33.826 69.9288 33.5982 70.2189 33.6085C70.7679 33.6396 71.3169 33.6085 71.8659 33.5257C71.9799 33.4843 74.8803 33.2151 76.921 30.4196C80.9505 24.8493 76.2062 17.1358 69.4109 18.2333C65.5057 18.8649 62.7399 22.323 62.8953 26.185C63.0506 30.0676 65.5264 30.8752 64.6355 31.6206C64.4076 31.807 64.0762 31.7863 63.8793 31.5585C62.8538 30.3471 62.1805 28.8666 61.9319 27.2928C61.1654 22.499 64.4284 17.9641 69.2452 17.198C74.4142 16.3697 79.2413 20.2316 79.4589 25.5741C79.6246 29.8812 76.5791 33.8777 72.042 34.6025C71.4309 34.675 70.799 34.7164 70.1878 34.675Z" fill="url(#paint35_linear_360_10908)"/>
</g>
<defs>
<linearGradient id="paint0_linear_360_10908" x1="111.548" y1="-7.17852" x2="110.61" y2="83.8087" gradientUnits="userSpaceOnUse">
<stop stop-color="#D35400"/>
<stop offset="1" stop-color="#FF6F00"/>
</linearGradient>
<linearGradient id="paint1_linear_360_10908" x1="14.6452" y1="155.556" x2="49.1707" y2="124.813" gradientUnits="userSpaceOnUse">
<stop stop-color="#009CDE"/>
<stop offset="1" stop-color="#009CDE"/>
</linearGradient>
<linearGradient id="paint2_linear_360_10908" x1="57.0398" y1="139.147" x2="91.2174" y2="94.7362" gradientUnits="userSpaceOnUse">
<stop stop-color="#FEBBBA"/>
<stop offset="1" stop-color="#FF928E"/>
</linearGradient>
<linearGradient id="paint3_linear_360_10908" x1="19.0942" y1="244.47" x2="11.5082" y2="244.47" gradientUnits="userSpaceOnUse">
<stop stop-color="#D35400"/>
<stop offset="1" stop-color="#FF6F00"/>
</linearGradient>
<linearGradient id="paint4_linear_360_10908" x1="51.148" y1="274.371" x2="40.2418" y2="146.842" gradientUnits="userSpaceOnUse">
<stop stop-color="#FEBBBA"/>
<stop offset="1" stop-color="#FF928E"/>
</linearGradient>
<linearGradient id="paint5_linear_360_10908" x1="54.3381" y1="243.085" x2="42.0634" y2="243.085" gradientUnits="userSpaceOnUse">
<stop stop-color="#FF6F00"/>
<stop offset="1" stop-color="#D35400"/>
</linearGradient>
<linearGradient id="paint6_linear_360_10908" x1="29.1878" y1="276.268" x2="18.2787" y2="148.705" gradientUnits="userSpaceOnUse">
<stop stop-color="#FEBBBA"/>
<stop offset="1" stop-color="#FF928E"/>
</linearGradient>
<linearGradient id="paint7_linear_360_10908" x1="13.8112" y1="229.344" x2="48.5062" y2="150.539" gradientUnits="userSpaceOnUse">
<stop stop-color="#D35400"/>
<stop offset="1" stop-color="#FF6F00"/>
</linearGradient>
<linearGradient id="paint8_linear_360_10908" x1="20.8089" y1="148.251" x2="48.0833" y2="191.912" gradientUnits="userSpaceOnUse">
<stop stop-color="#009CDE"/>
<stop offset="1" stop-color="#00A3C4"/>
</linearGradient>
<linearGradient id="paint9_linear_360_10908" x1="52.1442" y1="107.667" x2="48.6026" y2="142.266" gradientUnits="userSpaceOnUse">
<stop stop-color="#FEBBBA"/>
<stop offset="1" stop-color="#FF928E"/>
</linearGradient>
<linearGradient id="paint10_linear_360_10908" x1="55.9994" y1="130.608" x2="44.6452" y2="95.9095" gradientUnits="userSpaceOnUse">
<stop stop-color="#FEBBBA"/>
<stop offset="1" stop-color="#FF928E"/>
</linearGradient>
<linearGradient id="paint11_linear_360_10908" x1="9.51799" y1="149.793" x2="44.0436" y2="119.051" gradientUnits="userSpaceOnUse">
<stop stop-color="#009CDE"/>
<stop offset="1" stop-color="#00A3C4"/>
</linearGradient>
<linearGradient id="paint12_linear_360_10908" x1="51.8465" y1="131.966" x2="40.4925" y2="97.2681" gradientUnits="userSpaceOnUse">
<stop stop-color="#FEBBBA"/>
<stop offset="1" stop-color="#FF928E"/>
</linearGradient>
<linearGradient id="paint13_linear_360_10908" x1="59.1765" y1="140.791" x2="93.3543" y2="96.3802" gradientUnits="userSpaceOnUse">
<stop stop-color="#FEBBBA"/>
<stop offset="1" stop-color="#FF928E"/>
</linearGradient>
<linearGradient id="paint14_linear_360_10908" x1="85.1039" y1="103.582" x2="88.2289" y2="82.5302" gradientUnits="userSpaceOnUse">
<stop stop-color="#FEBBBA"/>
<stop offset="1" stop-color="#FF928E"/>
</linearGradient>
<linearGradient id="paint15_linear_360_10908" x1="9.31889" y1="160.254" x2="45.7376" y2="160.254" gradientUnits="userSpaceOnUse">
<stop stop-color="#FEB5B3"/>
<stop offset="1" stop-color="#FF9D9A"/>
</linearGradient>
<linearGradient id="paint16_linear_360_10908" x1="206.986" y1="-61.0538" x2="15.7316" y2="254.107" gradientUnits="userSpaceOnUse">
<stop stop-color="#D35400"/>
<stop offset="1" stop-color="#FF6F00"/>
</linearGradient>
<linearGradient id="paint17_linear_360_10908" x1="221.598" y1="-52.1875" x2="30.3436" y2="262.973" gradientUnits="userSpaceOnUse">
<stop stop-color="#D35400"/>
<stop offset="1" stop-color="#FF6F00"/>
</linearGradient>
<linearGradient id="paint18_linear_360_10908" x1="103.86" y1="48.914" x2="90.9828" y2="143.276" gradientUnits="userSpaceOnUse">
<stop stop-color="#D35400"/>
<stop offset="1" stop-color="#FF6F00"/>
</linearGradient>
<linearGradient id="paint19_linear_360_10908" x1="117.296" y1="50.7464" x2="104.418" y2="145.109" gradientUnits="userSpaceOnUse">
<stop stop-color="#D35400"/>
<stop offset="1" stop-color="#FF6F00"/>
</linearGradient>
<linearGradient id="paint20_linear_360_10908" x1="131.645" y1="52.7051" x2="118.767" y2="147.067" gradientUnits="userSpaceOnUse">
<stop stop-color="#D35400"/>
<stop offset="1" stop-color="#FF6F00"/>
</linearGradient>
<linearGradient id="paint21_linear_360_10908" x1="160.103" y1="56.5893" x2="147.226" y2="150.951" gradientUnits="userSpaceOnUse">
<stop stop-color="#D35400"/>
<stop offset="1" stop-color="#FF6F00"/>
</linearGradient>
<linearGradient id="paint22_linear_360_10908" x1="174.452" y1="58.5479" x2="161.575" y2="152.91" gradientUnits="userSpaceOnUse">
<stop stop-color="#D35400"/>
<stop offset="1" stop-color="#FF6F00"/>
</linearGradient>
<linearGradient id="paint23_linear_360_10908" x1="145.08" y1="54.5389" x2="132.203" y2="148.901" gradientUnits="userSpaceOnUse">
<stop stop-color="#D35400"/>
<stop offset="1" stop-color="#FF6F00"/>
</linearGradient>
<linearGradient id="paint24_linear_360_10908" x1="67.9707" y1="50.7404" x2="69.193" y2="50.7404" gradientUnits="userSpaceOnUse">
<stop stop-color="#DAE3FE"/>
<stop offset="1" stop-color="#E9EFFD"/>
</linearGradient>
<linearGradient id="paint25_linear_360_10908" x1="24.9834" y1="76.6489" x2="71.2044" y2="76.6489" gradientUnits="userSpaceOnUse">
<stop stop-color="#DAE3FE"/>
<stop offset="1" stop-color="#E9EFFD"/>
</linearGradient>
<linearGradient id="paint26_linear_360_10908" x1="19.1705" y1="93.9247" x2="21.1834" y2="93.9247" gradientUnits="userSpaceOnUse">
<stop stop-color="#DAE3FE"/>
<stop offset="1" stop-color="#E9EFFD"/>
</linearGradient>
<linearGradient id="paint27_linear_360_10908" x1="8.29904" y1="62.6668" x2="62.85" y2="62.6668" gradientUnits="userSpaceOnUse">
<stop stop-color="#FF6F00"/>
<stop offset="1" stop-color="#FFBC00"/>
</linearGradient>
<linearGradient id="paint28_linear_360_10908" x1="29.5518" y1="62.6669" x2="41.5959" y2="62.6669" gradientUnits="userSpaceOnUse">
<stop stop-color="#DAE3FE"/>
<stop offset="1" stop-color="#E9EFFD"/>
</linearGradient>
<linearGradient id="paint29_linear_360_10908" x1="20.2126" y1="62.557" x2="51.0937" y2="62.557" gradientUnits="userSpaceOnUse">
<stop stop-color="#DAE3FE"/>
<stop offset="1" stop-color="#E9EFFD"/>
</linearGradient>
<linearGradient id="paint30_linear_360_10908" x1="55.4472" y1="25.9403" x2="85.765" y2="25.9403" gradientUnits="userSpaceOnUse">
<stop stop-color="#F7981D"/>
<stop offset="1" stop-color="#FF6F00"/>
</linearGradient>
<linearGradient id="paint31_linear_360_10908" x1="67.0228" y1="25.9395" x2="74.188" y2="25.9395" gradientUnits="userSpaceOnUse">
<stop stop-color="#DAE3FE"/>
<stop offset="1" stop-color="#E9EFFD"/>
</linearGradient>
<linearGradient id="paint32_linear_360_10908" x1="84.5981" y1="14.9924" x2="86.164" y2="14.9924" gradientUnits="userSpaceOnUse">
<stop stop-color="#DAE3FE"/>
<stop offset="1" stop-color="#E9EFFD"/>
</linearGradient>
<linearGradient id="paint33_linear_360_10908" x1="73.0086" y1="31.8878" x2="89.3422" y2="31.8878" gradientUnits="userSpaceOnUse">
<stop stop-color="#DAE3FE"/>
<stop offset="1" stop-color="#E9EFFD"/>
</linearGradient>
<linearGradient id="paint34_linear_360_10908" x1="66.9974" y1="44.1478" x2="69.1181" y2="44.1478" gradientUnits="userSpaceOnUse">
<stop stop-color="#DAE3FE"/>
<stop offset="1" stop-color="#E9EFFD"/>
</linearGradient>
<linearGradient id="paint35_linear_360_10908" x1="61.8252" y1="25.8772" x2="79.4622" y2="25.8772" gradientUnits="userSpaceOnUse">
<stop stop-color="#DAE3FE"/>
<stop offset="1" stop-color="#E9EFFD"/>
</linearGradient>
<clipPath id="clip0_360_10908">
<rect width="216" height="250" fill="white"/>
</clipPath>
</defs>
</svg>
