<svg width="12" height="15" viewBox="0 0 12 15" fill="none" xmlns="http://www.w3.org/2000/svg">
<g clip-path="url(#clip0_360_7974)">
<path d="M0.664062 8.60962C0.664062 7.35535 0.664062 6.09682 0.664062 4.84255C0.664062 4.44579 0.876932 4.17276 1.22337 4.10876C1.60737 4.0405 1.9705 4.32634 1.99554 4.72736C1.99971 4.78709 1.99971 4.84255 1.99971 4.90228C1.99971 7.35535 1.99971 9.80842 1.99971 12.2658C1.99971 13.0806 2.54232 13.6352 3.34371 13.6352C5.11345 13.6352 6.88319 13.6352 8.65293 13.6352C9.45432 13.6352 9.99693 13.0806 9.99693 12.2658C9.99693 9.79136 9.99693 7.31695 9.99693 4.83829C9.99693 4.45433 10.1973 4.18129 10.527 4.11303C10.9027 4.03197 11.2533 4.27941 11.3201 4.66764C11.3326 4.74016 11.3326 4.81695 11.3368 4.88948C11.3368 7.35535 11.3368 9.81695 11.3368 12.2828C11.3368 13.6352 10.4519 14.7188 9.1538 14.962C8.99937 14.9919 8.84493 15.0004 8.68632 15.0004C6.89571 15.0047 5.10511 15.0047 3.3145 15.0004C1.82441 15.0004 0.668236 13.8187 0.668236 12.2999C0.664063 11.067 0.664062 9.83829 0.664062 8.60962Z" fill="#6E6E6E"/>
<path d="M8.66509 2.04769C8.84039 2.04769 8.99065 2.04769 9.14091 2.04769C9.85882 2.04769 10.5767 2.04343 11.2947 2.04769C11.783 2.05196 12.1044 2.47431 11.9708 2.92653C11.8915 3.1953 11.662 3.38728 11.3907 3.40861C11.3531 3.41288 11.3197 3.41288 11.2821 3.41288C7.76352 3.41288 4.24491 3.41288 0.726304 3.41288C0.296391 3.41288 -0.00413097 3.12278 4.29392e-05 2.72175C0.00421685 2.33353 0.300565 2.04769 0.717956 2.04769C1.51935 2.04343 2.32074 2.04769 3.12213 2.04769C3.18474 2.04769 3.24735 2.04769 3.335 2.04769C3.335 1.97943 3.335 1.92397 3.335 1.86851C3.335 1.48455 3.33083 1.10059 3.335 0.7209C3.33917 0.290012 3.61048 0.00417622 4.03204 0.00417622C5.34265 -8.99903e-05 6.65326 -8.99903e-05 7.96804 0.00417622C8.38961 0.00417622 8.66091 0.290012 8.66509 0.716634C8.66509 1.15179 8.66509 1.58694 8.66509 2.04769ZM4.67483 2.03063C5.56387 2.03063 6.44456 2.03063 7.32526 2.03063C7.32526 1.80025 7.32526 1.58694 7.32526 1.37363C6.43622 1.37363 5.55969 1.37363 4.67483 1.37363C4.67483 1.59974 4.67483 1.81305 4.67483 2.03063Z" fill="#6E6E6E"/>
<path d="M3.99831 8.50656C3.99831 7.71304 3.99414 6.91953 3.99831 6.13028C3.99831 5.79752 4.22788 5.52874 4.5451 5.46902C4.8331 5.41356 5.14614 5.57141 5.26301 5.85724C5.30475 5.9639 5.32979 6.08335 5.32979 6.19854C5.33397 7.75144 5.33397 9.30434 5.32979 10.8572C5.32979 11.2924 5.04179 11.5953 4.65362 11.591C4.26962 11.5868 3.99414 11.2796 3.99414 10.853C3.99831 10.068 3.99831 9.28728 3.99831 8.50656Z" fill="#6E6E6E"/>
<path d="M7.99685 8.52777C7.99685 9.32129 7.99685 10.1148 7.99685 10.9041C7.99685 11.224 7.80068 11.48 7.50433 11.561C7.2205 11.6421 6.90746 11.5227 6.76555 11.2581C6.70294 11.143 6.66537 10.9979 6.66537 10.8657C6.65703 9.29996 6.6612 7.73852 6.6612 6.17282C6.6612 5.75047 6.95337 5.45183 7.34155 5.4561C7.7172 5.46037 7.99685 5.76327 7.99685 6.18136C8.00103 6.96207 7.99685 7.74279 7.99685 8.52777Z" fill="#6E6E6E"/>
</g>
<defs>
<clipPath id="clip0_360_7974">
<rect width="12" height="15" fill="white"/>
</clipPath>
</defs>
</svg>
