<svg width="30" height="21" viewBox="0 0 30 21" fill="none" xmlns="http://www.w3.org/2000/svg">
<g clip-path="url(#clip0_360_9784)">
<path d="M2.85357e-05 2.27448C0.0469891 2.11869 0.0782962 1.95512 0.133084 1.79933C0.485288 0.732196 1.48711 0.00778932 2.64548 0.00778932C4.47694 0 6.31623 0 8.14769 0C14.503 0 20.8584 0 27.2137 0C28.5521 0 29.5774 0.747774 29.8983 1.95512C29.9609 2.20438 29.9922 2.46921 29.9922 2.73405C30 7.91395 30 13.0938 29.9922 18.2737C29.9922 19.8783 28.8573 21 27.2372 21C19.0973 21 10.9497 21 2.80984 21C1.34623 21 0.38354 20.2522 0.0313356 18.8346C0.0235088 18.7956 2.85357e-05 18.7645 -0.015625 18.7255C2.85357e-05 13.2418 2.85357e-05 7.75816 2.85357e-05 2.27448ZM3.07595 1.76818C3.16204 1.86165 3.21683 1.92396 3.27162 1.97849C6.91889 5.6161 10.5662 9.2615 14.2134 12.8991C14.7144 13.3976 15.2935 13.3976 15.8023 12.8913C19.4495 9.25371 23.0968 5.60831 26.7441 1.9707C26.7989 1.91617 26.8537 1.84607 26.9163 1.76818C18.9565 1.76818 11.0358 1.76818 3.07595 1.76818ZM3.05247 19.224C11.0436 19.224 18.9643 19.224 26.9476 19.224C24.4117 16.7237 21.915 14.2545 19.4104 11.7852C19.3556 11.8398 19.2774 11.9099 19.1991 11.9878C18.4712 12.72 17.7433 13.4522 17.0076 14.1766C15.8571 15.3138 14.1508 15.3138 13.0003 14.1766C12.5542 13.7404 12.1159 13.2964 11.6776 12.8524C11.3097 12.4863 10.9497 12.128 10.5975 11.7852C8.08508 14.2545 5.58834 16.7159 3.05247 19.224ZM1.7767 3.07678C1.7767 8.00742 1.7767 12.9926 1.7767 17.9154C4.26562 15.4618 6.78584 12.977 9.29823 10.5C6.77801 8.01521 4.26562 5.5382 1.7767 3.07678ZM28.2234 17.931C28.2234 12.9848 28.2234 7.99963 28.2234 3.10794C25.7501 5.54599 23.2299 8.023 20.7097 10.5156C23.2142 13.0004 25.7266 15.4696 28.2234 17.931Z" fill="#3D4A26"/>
</g>
<defs>
<clipPath id="clip0_360_9784">
<rect width="30" height="21" fill="white"/>
</clipPath>
</defs>
</svg>
