<svg width="31" height="40" viewBox="0 0 31 40" fill="none" xmlns="http://www.w3.org/2000/svg">
<g clip-path="url(#clip0_360_6025)">
<path d="M0 15.592C0 13.2526 0 10.9017 0 8.56235C0 7.40994 0.483497 6.92593 1.60791 6.89136C5.57708 6.77612 9.20892 5.62372 12.2898 2.98471C13.0319 2.35088 13.6616 1.55572 14.2575 0.760563C15.0109 -0.24203 16.0229 -0.276602 16.7312 0.772087C18.2942 3.11147 20.5092 4.57503 23.0392 5.60067C25.1193 6.45345 27.2782 6.86831 29.5158 6.90289C30.4603 6.91441 30.9888 7.46756 30.9888 8.44711C30.9888 12.7456 30.9325 17.0441 31 21.3425C31.0675 25.3529 29.8531 28.8908 27.4469 32.0023C24.4897 35.8167 20.7341 38.4788 16.169 39.9078C15.6181 40.0806 15.1233 40.023 14.6061 39.8386C8.93906 37.8911 4.4864 34.4108 1.64164 28.9484C0.528473 26.7934 0 24.4655 0 22.0224C0 19.879 0 17.7355 0 15.592ZM15.5169 10.3486C10.3108 10.3486 6.07182 14.6586 6.06057 19.9827C6.04933 25.3068 10.2659 29.6744 15.4494 29.6744C20.7004 29.6859 24.9282 25.3529 24.9169 19.9827C24.9169 14.6931 20.6892 10.3486 15.5169 10.3486Z" fill="#D35400"/>
<path d="M11.8843 21.9303C12.0079 21.7344 12.0754 21.5846 12.1766 21.4694C14.2793 19.3029 16.3931 17.1363 18.507 14.9813C19.3166 14.1516 20.5647 14.4512 20.8346 15.5345C20.9695 16.0877 20.7896 16.5486 20.396 16.9404C19.2042 18.1505 18.0123 19.372 16.8204 20.5936C15.3924 22.0571 13.9644 23.5207 12.5364 24.9842C11.6819 25.86 10.6924 25.6987 10.1527 24.6039C9.74788 23.7857 9.34309 22.9675 8.94955 22.1378C8.56725 21.3426 8.78088 20.5475 9.47802 20.1787C10.1864 19.7984 10.951 20.098 11.367 20.9047C11.5132 21.1928 11.6594 21.4924 11.8843 21.9303Z" fill="#D35400"/>
</g>
<defs>
<clipPath id="clip0_360_6025">
<rect width="31" height="40" fill="white"/>
</clipPath>
</defs>
</svg>
