<svg width="34" height="34" viewBox="0 0 34 34" fill="none" xmlns="http://www.w3.org/2000/svg">
<g clip-path="url(#clip0_364_11321)">
<path d="M0 18.0024C0 17.3369 0 16.6714 0 16.0059C0.01663 15.8894 0.041575 15.7729 0.0582049 15.6565C0.141355 15.0409 0.18293 14.4253 0.29934 13.818C0.939594 10.4321 2.48618 7.50379 4.90584 5.05799C7.45023 2.49572 10.5018 0.873501 14.069 0.257891C14.7092 0.149743 15.3578 0.0831906 16.0064 0C16.6716 0 17.3368 0 18.002 0C18.1017 0.0166381 18.1932 0.0415953 18.293 0.0582334C19.2076 0.199657 20.1472 0.282848 21.0619 0.499144C29.7843 2.58723 35.4052 11.3555 33.7007 20.182C32.9939 23.8507 31.281 26.9787 28.5204 29.4911C24.5874 33.0766 19.931 34.5075 14.6593 33.8336C11.3001 33.4093 8.34825 32.0284 5.81218 29.7906C2.8271 27.1534 0.956224 23.8674 0.26608 19.9325C0.14967 19.2919 0.0831499 18.643 0 18.0024ZM12.9631 18.668C9.08828 15.8728 9.08829 10.9146 11.5662 8.09445C14.1937 5.09958 18.6588 4.73355 21.6023 7.27086C23.0492 8.51872 23.9222 10.0827 24.0968 11.9878C24.3546 14.7663 23.2653 16.9709 21.0369 18.6597C24.8036 20.1904 27.2233 22.8857 28.3292 26.7791C33.1934 21.3384 33.6508 11.9046 27.0653 5.90653C20.5297 -0.0499142 10.4852 0.865182 5.07214 7.92806C-0.0249449 14.575 1.92908 22.8275 5.67082 26.7458C6.7684 22.8691 9.20469 20.1904 12.9631 18.668ZM17.2702 32.0201C17.6278 31.9868 18.268 31.9618 18.9 31.8786C21.4444 31.5625 23.7476 30.6391 25.8097 29.125C26.6828 28.4845 26.6745 28.4678 26.4084 27.403C25.1944 22.4032 20.4133 19.2503 15.3578 20.1072C11.2336 20.806 7.97408 24.1669 7.40866 28.3264C7.39203 28.4262 7.46686 28.576 7.5417 28.6425C10.3023 30.8554 13.4537 31.9701 17.2702 32.0201ZM16.9792 17.8943C19.8063 17.9109 22.1179 15.6232 22.1595 12.7698C22.201 9.95791 19.8811 7.60362 17.0457 7.57034C14.2103 7.53707 11.8738 9.83313 11.8322 12.7032C11.7907 15.5317 14.1189 17.8777 16.9792 17.8943Z" fill="#6E6E6E"/>
</g>
<defs>
<clipPath id="clip0_364_11321">
<rect width="34" height="34" fill="white"/>
</clipPath>
</defs>
</svg>
