<svg width="17" height="21" viewBox="0 0 17 21" fill="none" xmlns="http://www.w3.org/2000/svg">
<g clip-path="url(#clip0_360_1499)">
<path d="M8.5 21C6.88642 21 5.26737 21 3.6538 21C1.74485 21 0.300837 19.7252 0.0273488 17.8019C0 17.6342 0 17.4665 0 17.3043C0 12.77 0 8.24121 0 3.70687C0 1.58786 1.54794 0.00559105 3.62645 0.00559105C5.67761 0.00559105 7.72877 0.0111821 9.77992 0C10.0808 0 10.316 0.100639 10.5238 0.31869C12.575 2.42093 14.6316 4.52316 16.6882 6.61981C16.9015 6.83786 17 7.07268 17 7.38019C16.9945 10.6733 17 13.972 16.9945 17.2652C16.9945 19.4121 15.4466 20.9888 13.3462 20.9888C11.7326 21 10.1136 21 8.5 21ZM9.2056 1.45367C9.11808 1.45367 9.05245 1.45367 8.98681 1.45367C7.19273 1.45367 5.40412 1.45367 3.61004 1.45367C2.33559 1.45367 1.42214 2.39297 1.41667 3.71246C1.41667 8.23562 1.41667 12.7588 1.41667 17.2819C1.41667 18.6238 2.33012 19.5519 3.64833 19.5519C6.87548 19.5519 10.1081 19.5519 13.3353 19.5519C14.6754 19.5519 15.5779 18.6238 15.5779 17.2484C15.5779 14.2404 15.5779 11.2324 15.5779 8.22444C15.5779 8.14617 15.5779 8.0623 15.5779 7.96725C15.4739 7.96725 15.3919 7.96725 15.3098 7.96725C14.4675 7.96725 13.6306 7.97284 12.7883 7.96166C12.5476 7.96166 12.3015 7.94489 12.0663 7.89457C10.3707 7.53674 9.21107 6.08307 9.2056 4.31629C9.2056 3.37141 9.2056 2.43211 9.2056 1.45367ZM14.4402 6.48003C13.1931 5.20527 11.9022 3.88578 10.6277 2.58307C10.6277 3.20367 10.6004 3.86901 10.6332 4.52875C10.6879 5.50719 11.4263 6.36262 12.3726 6.46885C13.0782 6.54153 13.8002 6.48003 14.4402 6.48003Z" fill="#6E6E6E"/>
<path d="M8.5228 11.2268C9.91759 11.2268 11.3124 11.2268 12.7017 11.2268C13.2323 11.2268 13.5823 11.7077 13.4128 12.1885C13.3088 12.4792 13.101 12.6358 12.8002 12.6693C12.7181 12.6805 12.6361 12.6749 12.5595 12.6749C9.84101 12.6749 7.11708 12.6749 4.39861 12.6749C4.30562 12.6749 4.20717 12.6805 4.11418 12.6581C3.75865 12.5855 3.51251 12.2388 3.5508 11.8754C3.58908 11.5064 3.89539 11.2268 4.27827 11.2268C5.36128 11.2212 6.4443 11.2268 7.52731 11.2268C7.86096 11.2268 8.19462 11.2268 8.5228 11.2268Z" fill="#6E6E6E"/>
<path d="M8.50957 14.8442C9.90983 14.8442 11.3101 14.8442 12.7103 14.8442C13.044 14.8442 13.3066 15.0288 13.4105 15.3307C13.5089 15.6158 13.4378 15.9513 13.1862 16.119C13.0276 16.2196 12.8197 16.2867 12.6338 16.2867C10.424 16.2979 8.20874 16.2923 5.99896 16.2923C5.46292 16.2923 4.92141 16.2923 4.38538 16.2923C3.87669 16.2923 3.54851 16.0128 3.54304 15.5711C3.53757 15.1294 3.86575 14.8442 4.37444 14.8442C5.75282 14.8442 7.1312 14.8442 8.50957 14.8442Z" fill="#6E6E6E"/>
</g>
<defs>
<clipPath id="clip0_360_1499">
<rect width="17" height="21" fill="white"/>
</clipPath>
</defs>
</svg>
