<svg width="33" height="24" viewBox="0 0 33 24" fill="none" xmlns="http://www.w3.org/2000/svg">
<g clip-path="url(#clip0_364_11316)">
<path d="M16.5 0C20.5492 0 24.5893 0 28.6386 0C31.2095 0 33.0092 1.77609 33.0092 4.32638C33.0092 9.43605 33.0092 14.5548 33.0092 19.6645C33.0092 22.2148 31.2095 23.9909 28.6386 23.9909C20.5492 23.9909 12.4599 23.9909 4.37062 23.9909C1.79967 24 0 22.2148 0 19.6736C0 14.5639 0 9.44516 0 4.33548C0 1.7852 1.79967 0 4.37062 0C8.41068 0 12.4599 0 16.5 0ZM16.5092 21.8231C20.5401 21.8231 24.5801 21.8231 28.611 21.8231C29.9975 21.8231 30.8055 21.0216 30.8055 19.6372C30.8055 14.5457 30.8055 9.45427 30.8055 4.36281C30.8055 2.97837 30.0067 2.17685 28.611 2.17685C20.5401 2.17685 12.4783 2.17685 4.40735 2.17685C2.99332 2.18596 2.20367 2.96926 2.20367 4.38102C2.20367 9.46338 2.20367 14.5366 2.20367 19.619C2.20367 21.0216 3.0025 21.8231 4.40735 21.8231C8.43823 21.8231 12.4783 21.8231 16.5092 21.8231Z" fill="#6E6E6E"/>
<path d="M16.5364 5.45605C20.1541 5.45605 23.7809 5.45605 27.3986 5.45605C28.2526 5.45605 28.8035 6.16649 28.5372 6.90425C28.3811 7.34144 28.0506 7.57826 27.5915 7.6329C27.4905 7.64201 27.3895 7.64201 27.2793 7.64201C20.099 7.64201 12.9095 7.64201 5.72919 7.64201C5.53637 7.64201 5.33437 7.6329 5.15073 7.57826C4.64572 7.42342 4.34271 6.92247 4.40699 6.41241C4.48044 5.90235 4.90281 5.5016 5.43537 5.47427C5.59146 5.46516 5.75674 5.47427 5.91283 5.47427C9.45707 5.45605 12.9921 5.45605 16.5364 5.45605Z" fill="#6E6E6E"/>
<path d="M7.7027 17.4603C8.40971 17.4603 9.12591 17.4603 9.83292 17.4603C10.5032 17.4603 10.999 17.9248 10.999 18.5442C10.999 19.1635 10.5124 19.6371 9.85128 19.6371C8.4189 19.6462 6.98651 19.6462 5.55412 19.6371C4.89302 19.6371 4.39719 19.1544 4.40638 18.535C4.41556 17.9157 4.9022 17.4603 5.57249 17.4512C6.2795 17.4512 6.98651 17.4603 7.7027 17.4603Z" fill="#6E6E6E"/>
</g>
<defs>
<clipPath id="clip0_364_11316">
<rect width="33" height="24" fill="white"/>
</clipPath>
</defs>
</svg>
