<svg width="250" height="234" viewBox="0 0 250 234" fill="none" xmlns="http://www.w3.org/2000/svg">
<g opacity="0.5" clip-path="url(#clip0_360_8857)">
<path d="M237.797 218.668H212.484V218.85H237.797V218.668Z" fill="#E6E6E6"/>
<path d="M144.6 218.335H115.725V218.517H144.6V218.335Z" fill="#E6E6E6"/>
<path d="M114.997 215.707H102.088V215.889H114.997V215.707Z" fill="#E6E6E6"/>
<path d="M79.8535 59.0937C79.8535 56.6782 80.8123 54.3638 82.518 52.6659C84.2237 50.9578 86.535 50.0078 88.9371 50.0078H90.9859C93.3981 50.0078 95.6993 50.9679 97.405 52.676C99.1107 54.384 100.059 56.6883 100.07 59.1038C100.07 60.2964 99.8374 61.4789 99.3832 62.5805C98.929 63.6822 98.2528 64.6827 97.4151 65.5317C96.5673 66.3806 95.5681 67.0477 94.468 67.5025C93.3678 67.9573 92.187 68.1897 90.996 68.1897H88.9472C87.7562 68.1897 86.5754 67.9573 85.4651 67.5025C84.365 67.0477 83.3658 66.3806 82.518 65.5317C81.6702 64.6827 81.0041 63.6822 80.5499 62.5805C80.0957 61.4688 79.8535 60.2863 79.8535 59.0937Z" fill="#F5F5F5"/>
<path d="M27.7946 46.4301C21.6481 46.4301 15.7538 43.9843 11.4038 39.6283C7.0538 35.2723 4.61133 29.37 4.61133 23.215C4.61133 17.0601 7.0538 11.1578 11.4038 6.8018C15.7538 2.44582 21.6481 0 27.7946 0H31.9831V46.4301H27.7946Z" fill="#00A3C4"/>
<path d="M31.9834 46.43C44.7711 46.43 55.1465 36.0404 55.1465 23.2352C55.1465 10.43 44.7711 0.0302734 31.9834 0.0302734C19.1857 0.0302734 8.82031 10.4199 8.82031 23.2251C8.82031 36.0303 19.1857 46.43 31.9834 46.43Z" fill="#00579F"/>
<path d="M31.9844 40.7198C41.6332 40.7198 49.4551 32.8871 49.4551 23.2251C49.4551 13.5631 41.6332 5.73047 31.9844 5.73047C22.3356 5.73047 14.5137 13.5631 14.5137 23.2251C14.5137 32.8871 22.3356 40.7198 31.9844 40.7198Z" fill="#00A3C4"/>
<path d="M39.1805 29.7747L30.6016 23.7713L33.3266 10.5215L35.759 11.0268L33.367 22.6798L40.6036 27.7332L39.1805 29.7747Z" fill="#C6D7FF"/>
<path d="M219.166 128.031H187.596V213.473H219.166V128.031Z" fill="#E0E0E0"/>
<path d="M210.737 213.474H219.175V199.324H201.906L210.737 213.474Z" fill="#FAFAFA"/>
<path d="M77.3104 138.957H67.7827C67.7827 138.957 69.438 144.688 69.438 148.053C69.438 151.419 62.1913 164.618 72.5466 164.618C82.9018 164.618 75.6552 151.419 75.6552 148.053C75.6552 144.688 77.3104 138.957 77.3104 138.957Z" fill="#FAFAFA"/>
<path d="M39.8047 148.912V154.117C39.8047 159.898 45.386 164.618 52.1987 164.618H58.3352C65.1478 164.618 70.7292 159.898 70.7292 154.117V148.912H39.8047Z" fill="#F0F0F0"/>
<path d="M117.047 200.9H131.722V176.422H117.047V200.9Z" fill="white"/>
<path d="M129.43 201.285H130.429V176.807H129.43V201.285Z" fill="#E6E6E6"/>
<path d="M130.509 201.467H133.073C133.265 201.467 133.426 201.305 133.426 201.113V176.968C133.426 176.776 133.265 176.614 133.073 176.614H130.509C130.318 176.614 130.156 176.776 130.156 176.968V201.113C130.156 201.315 130.308 201.467 130.509 201.467Z" fill="#EBEBEB"/>
<path d="M130.156 188.105H133.426V182.294H130.156V188.105Z" fill="white"/>
<path d="M130.156 193.472H133.426V189.895H130.156V193.472Z" fill="white"/>
<path d="M116.299 201.467H129.52C129.712 201.467 129.873 201.305 129.873 201.113V176.968C129.873 176.776 129.712 176.614 129.52 176.614H116.299C116.107 176.614 115.945 176.776 115.945 176.968V201.113C115.945 201.315 116.107 201.467 116.299 201.467Z" fill="#EBEBEB"/>
<path d="M109.891 200.84H126.08V173.835H109.891V200.84Z" fill="white"/>
<path d="M123.566 201.265H124.667V174.26H123.566V201.265Z" fill="#E6E6E6"/>
<path d="M124.747 201.466H127.573C127.785 201.466 127.967 201.294 127.967 201.072V174.441C127.967 174.229 127.795 174.047 127.573 174.047H124.747C124.535 174.047 124.354 174.219 124.354 174.441V201.072C124.354 201.294 124.535 201.466 124.747 201.466Z" fill="#F0F0F0"/>
<path d="M124.354 183.719H127.957V182.779H124.354V183.719Z" fill="white"/>
<path d="M124.354 186.438H127.957V185.498H124.354V186.438Z" fill="white"/>
<path d="M124.354 189.136H127.957V188.196H124.354V189.136Z" fill="white"/>
<path d="M109.073 201.466H123.657C123.869 201.466 124.051 201.294 124.051 201.072V174.441C124.051 174.229 123.88 174.047 123.657 174.047H109.073C108.861 174.047 108.68 174.219 108.68 174.441V201.072C108.68 201.294 108.861 201.466 109.073 201.466Z" fill="#F0F0F0"/>
<path d="M89.9474 192.068C89.9474 192.886 89.7052 193.695 89.251 194.382C88.7968 195.069 88.1509 195.605 87.3939 195.918C86.637 196.232 85.7993 196.312 84.9918 196.161C84.1844 195.999 83.4476 195.605 82.8622 195.029C82.2769 194.443 81.8832 193.705 81.7217 192.896C81.5603 192.088 81.641 191.249 81.9539 190.491C82.2668 189.733 82.8017 189.086 83.4779 188.621C84.1642 188.166 84.9616 187.924 85.7892 187.924C86.8893 187.924 87.9389 188.358 88.7161 189.137C89.5134 189.915 89.9474 190.966 89.9474 192.068Z" fill="#FAFAFA"/>
<path d="M82.8823 194.048C82.8823 194.695 82.6905 195.322 82.3373 195.857C81.984 196.393 81.4693 196.807 80.8839 197.05C80.2884 197.293 79.6425 197.363 79.0066 197.232C78.3809 197.111 77.7955 196.797 77.3413 196.343C76.8871 195.888 76.5742 195.312 76.4531 194.675C76.332 194.048 76.3926 193.391 76.6348 192.795C76.877 192.199 77.3009 191.693 77.8258 191.34C78.3607 190.986 78.9864 190.794 79.6324 190.794C80.4903 190.794 81.3179 191.138 81.9235 191.744C82.5391 192.36 82.8823 193.189 82.8823 194.048Z" fill="#FAFAFA"/>
<path d="M97.0529 194.048C97.0529 194.867 96.8107 195.676 96.3565 196.353C95.9023 197.03 95.2564 197.565 94.4994 197.889C93.7424 198.202 92.9047 198.283 92.0973 198.121C91.2899 197.96 90.5531 197.565 89.9677 196.979C89.3823 196.393 88.9887 195.655 88.8272 194.857C88.6657 194.048 88.7465 193.21 89.0594 192.452C89.3722 191.694 89.9072 191.047 90.5834 190.592C91.2697 190.137 92.067 189.895 92.8845 189.895C93.9847 189.895 95.0343 190.339 95.8115 191.117C96.6088 191.896 97.0529 192.947 97.0529 194.048Z" fill="#FAFAFA"/>
<path d="M103.855 192.836C103.855 193.654 103.613 194.463 103.159 195.15C102.705 195.838 102.059 196.363 101.302 196.676C100.545 196.99 99.7071 197.071 98.8997 196.909C98.0923 196.747 97.3555 196.353 96.7802 195.767C96.2049 195.181 95.8012 194.443 95.6397 193.634C95.4782 192.826 95.559 191.997 95.8719 191.229C96.1847 190.471 96.7197 189.824 97.3959 189.369C98.0721 188.914 98.8795 188.672 99.697 188.672C100.797 188.672 101.857 189.106 102.634 189.885C103.411 190.673 103.855 191.734 103.855 192.836Z" fill="#FAFAFA"/>
<path d="M68.2168 193.371C68.2168 193.371 68.782 201.477 90.6128 201.477C112.444 201.477 113.009 193.371 113.009 193.371H68.2168Z" fill="#F5F5F5"/>
<path d="M129.43 156.512C129.43 156.512 130.338 164.617 164.926 164.617C199.525 164.617 200.423 156.512 200.423 156.512H129.43Z" fill="white"/>
<path d="M68.025 125.323C83.5882 109.738 83.5882 84.4614 68.025 68.8769C52.4618 53.2924 27.2297 53.2924 11.6665 68.8769C-3.89665 84.4614 -3.89665 109.738 11.6665 125.323C27.2297 140.907 52.4618 140.907 68.025 125.323Z" fill="#D35400"/>
<path opacity="0.4" d="M68.025 125.323C83.5882 109.738 83.5882 84.4614 68.025 68.8769C52.4618 53.2924 27.2297 53.2924 11.6665 68.8769C-3.89665 84.4614 -3.89665 109.738 11.6665 125.323C27.2297 140.907 52.4618 140.907 68.025 125.323Z" fill="#FF6F00"/>
<path opacity="0.2" d="M72.8399 102.734C75.9485 84.4917 63.6957 67.1689 45.4781 64.056C27.2605 60.9533 9.97148 73.2228 6.86288 91.4653C3.75428 109.708 16.007 127.031 34.2246 130.144C52.4422 133.256 69.7313 120.987 72.8399 102.734Z" fill="white"/>
<path d="M74.4342 100.309C75.6756 82.5415 62.3026 67.1288 44.5593 65.8857C26.8161 64.6425 11.4346 78.0339 10.1932 95.8115C8.95175 113.579 22.3248 128.992 40.068 130.235C57.8113 131.478 73.1928 118.077 74.4342 100.309Z" fill="#FF6F00"/>
<path opacity="0.4" d="M74.4342 100.309C75.6756 82.5415 62.3026 67.1288 44.5593 65.8857C26.8161 64.6425 11.4346 78.0339 10.1932 95.8115C8.95175 113.579 22.3248 128.992 40.068 130.235C57.8113 131.478 73.1928 118.077 74.4342 100.309Z" fill="#FF6F00"/>
<path d="M53.0778 94.0324L55.1771 103.128C55.2679 103.472 55.278 103.836 55.2276 104.19C55.167 104.543 55.0358 104.877 54.844 105.18C54.6523 105.483 54.3999 105.756 54.1072 105.958C53.8146 106.171 53.4815 106.312 53.1282 106.393L45.1347 108.242L46.6083 114.65C46.6991 114.994 46.7092 115.358 46.6486 115.711C46.5881 116.065 46.4569 116.399 46.255 116.692C46.0632 116.995 45.8109 117.258 45.5182 117.45C45.2255 117.652 44.8925 117.783 44.5392 117.854C44.186 117.945 43.8226 117.955 43.4694 117.904C43.1161 117.854 42.773 117.722 42.4601 117.53C42.1573 117.349 41.8848 117.106 41.6829 116.813C41.471 116.52 41.3297 116.196 41.259 115.843L39.7855 109.364L31.8626 111.194C31.5194 111.274 31.1662 111.295 30.823 111.234C30.4799 111.173 30.1468 111.052 29.8541 110.86C29.5513 110.678 29.2788 110.436 29.0669 110.153C28.8549 109.859 28.7136 109.536 28.6329 109.182C28.5521 108.839 28.532 108.485 28.5925 108.131C28.6531 107.778 28.7742 107.444 28.9659 107.151C29.1476 106.848 29.3898 106.585 29.6825 106.373C29.9752 106.16 30.2982 106.019 30.6515 105.948L49.192 101.663L48.324 97.8831L29.8339 102.148C29.4908 102.239 29.1375 102.249 28.7843 102.199C28.431 102.148 28.098 102.017 27.8053 101.835C27.5025 101.653 27.23 101.4 27.0281 101.107C26.8263 100.814 26.6749 100.48 26.6042 100.127L24.515 91.0611C24.3535 90.3637 24.4746 89.636 24.8582 89.0296C25.2316 88.4232 25.8372 87.9886 26.5336 87.8269L34.4161 86.0077L32.9425 79.6001C32.8618 79.2666 32.8416 78.9128 32.8921 78.5591C32.9425 78.2155 33.0636 77.8819 33.2453 77.5787C33.4371 77.2553 33.6995 76.9824 34.0124 76.7702C34.3253 76.558 34.6684 76.4165 35.0418 76.3457C35.385 76.2649 35.7383 76.2548 36.0814 76.3053C36.4246 76.3659 36.7576 76.4872 37.0503 76.6792C37.3531 76.8612 37.6155 77.1138 37.8174 77.3968C38.0192 77.6899 38.1706 78.0133 38.2413 78.3671L39.7148 84.7747L47.8093 82.9151C48.1626 82.8342 48.5259 82.814 48.8791 82.8746C49.2324 82.9353 49.5756 83.0667 49.8783 83.2587C50.1811 83.4406 50.4536 83.6731 50.6656 83.9561C50.8775 84.239 51.0289 84.5625 51.0996 84.9162C51.251 85.6338 51.1299 86.3716 50.7362 86.9881C50.3527 87.6046 49.737 88.0493 49.0305 88.2211L30.49 92.5063L31.2974 96.266L49.7774 92.001C50.1307 91.9201 50.494 91.8999 50.8473 91.9606C51.2005 92.0212 51.5437 92.1526 51.8464 92.3446C52.1593 92.5164 52.4318 92.759 52.6438 93.042C52.8557 93.3553 53.0071 93.6787 53.0778 94.0324Z" fill="#407BFF"/>
<g opacity="0.7">
<path d="M53.0778 94.0324L55.1771 103.128C55.2679 103.472 55.278 103.836 55.2276 104.19C55.167 104.543 55.0358 104.877 54.844 105.18C54.6523 105.483 54.3999 105.756 54.1072 105.958C53.8146 106.171 53.4815 106.312 53.1282 106.393L45.1347 108.242L46.6083 114.65C46.6991 114.994 46.7092 115.358 46.6486 115.711C46.5881 116.065 46.4569 116.399 46.255 116.692C46.0632 116.995 45.8109 117.258 45.5182 117.45C45.2255 117.652 44.8925 117.783 44.5392 117.854C44.186 117.945 43.8226 117.955 43.4694 117.904C43.1161 117.854 42.773 117.722 42.4601 117.53C42.1573 117.349 41.8848 117.106 41.6829 116.813C41.471 116.52 41.3297 116.196 41.259 115.843L39.7855 109.364L31.8626 111.194C31.5194 111.274 31.1662 111.295 30.823 111.234C30.4799 111.173 30.1468 111.052 29.8541 110.86C29.5513 110.678 29.2788 110.436 29.0669 110.153C28.8549 109.859 28.7136 109.536 28.6329 109.182C28.5521 108.839 28.532 108.485 28.5925 108.131C28.6531 107.778 28.7742 107.444 28.9659 107.151C29.1476 106.848 29.3898 106.585 29.6825 106.373C29.9752 106.16 30.2982 106.019 30.6515 105.948L49.192 101.663L48.324 97.8831L29.8339 102.148C29.4908 102.239 29.1375 102.249 28.7843 102.199C28.431 102.148 28.098 102.017 27.8053 101.835C27.5025 101.653 27.23 101.4 27.0281 101.107C26.8263 100.814 26.6749 100.48 26.6042 100.127L24.515 91.0611C24.3535 90.3637 24.4746 89.636 24.8582 89.0296C25.2316 88.4232 25.8372 87.9886 26.5336 87.8269L34.4161 86.0077L32.9425 79.6001C32.8618 79.2666 32.8416 78.9128 32.8921 78.5591C32.9425 78.2155 33.0636 77.8819 33.2453 77.5787C33.4371 77.2553 33.6995 76.9824 34.0124 76.7702C34.3253 76.558 34.6684 76.4165 35.0418 76.3457C35.385 76.2649 35.7383 76.2548 36.0814 76.3053C36.4246 76.3659 36.7576 76.4872 37.0503 76.6792C37.3531 76.8612 37.6155 77.1138 37.8174 77.3968C38.0192 77.6899 38.1706 78.0133 38.2413 78.3671L39.7148 84.7747L47.8093 82.9151C48.1626 82.8342 48.5259 82.814 48.8791 82.8746C49.2324 82.9353 49.5756 83.0667 49.8783 83.2587C50.1811 83.4406 50.4536 83.6731 50.6656 83.9561C50.8775 84.239 51.0289 84.5625 51.0996 84.9162C51.251 85.6338 51.1299 86.3716 50.7362 86.9881C50.3527 87.6046 49.737 88.0493 49.0305 88.2211L30.49 92.5063L31.2974 96.266L49.7774 92.001C50.1307 91.9201 50.494 91.8999 50.8473 91.9606C51.2005 92.0212 51.5437 92.1526 51.8464 92.3446C52.1593 92.5164 52.4318 92.759 52.6438 93.042C52.8557 93.3553 53.0071 93.6787 53.0778 94.0324Z" fill="white"/>
</g>
<path d="M124.889 65.36C134.8 53.6059 133.326 36.0304 121.598 26.1056C109.87 16.1708 92.319 17.6463 82.4078 29.4004C72.4966 41.1545 73.9601 58.73 85.688 68.6548C97.426 78.5896 114.967 77.1141 124.889 65.36Z" fill="#D35400"/>
<path opacity="0.4" d="M124.889 65.36C134.8 53.6059 133.326 36.0304 121.598 26.1056C109.87 16.1708 92.319 17.6463 82.4078 29.4004C72.4966 41.1545 73.9601 58.73 85.688 68.6548C97.426 78.5896 114.967 77.1141 124.889 65.36Z" fill="#D35400"/>
<path opacity="0.2" d="M121.639 62.2571C129.854 52.302 128.462 37.5563 118.52 29.3295C108.579 21.1027 93.8632 22.4974 85.6476 32.4525C77.422 42.4075 78.8249 57.1532 88.7663 65.3901C98.7078 73.617 113.423 72.2222 121.639 62.2571Z" fill="white"/>
<path d="M122.344 62.5094C129.863 52.6554 127.986 38.5667 118.146 31.0372C108.305 23.5077 94.2356 25.3875 86.7164 35.2416C79.1972 45.0956 81.0745 59.1843 90.915 66.7138C100.756 74.2432 114.825 72.3634 122.344 62.5094Z" fill="#D35400"/>
<path opacity="0.4" d="M122.344 62.5094C129.863 52.6554 127.986 38.5667 118.146 31.0372C108.305 23.5077 94.2356 25.3875 86.7164 35.2416C79.1972 45.0956 81.0745 59.1843 90.915 66.7138C100.756 74.2432 114.825 72.3634 122.344 62.5094Z" fill="#FF6F00"/>
<path d="M112.837 49.6638L111.252 55.9906C111.192 56.2332 111.091 56.4555 110.939 56.6576C110.788 56.8497 110.596 57.0215 110.384 57.1327C110.162 57.264 109.92 57.355 109.668 57.3853C109.415 57.4257 109.153 57.4055 108.911 57.3449L103.4 55.9502L102.28 60.3769C102.219 60.6195 102.118 60.8418 101.967 61.0439C101.815 61.2461 101.624 61.4078 101.412 61.5291C101.2 61.6604 100.968 61.7413 100.725 61.7817C100.483 61.8222 100.231 61.8019 99.9988 61.7413C99.7566 61.6807 99.5244 61.5796 99.3226 61.428C99.1207 61.2764 98.9491 61.0945 98.8179 60.8822C98.6867 60.67 98.5959 60.4375 98.5555 60.195C98.5151 59.9524 98.5252 59.6997 98.5959 59.4572L99.7263 54.9597L94.2055 53.6155C93.9633 53.5549 93.7412 53.4538 93.5394 53.3022C93.3476 53.1506 93.176 52.9687 93.0549 52.7565C92.9237 52.5442 92.8329 52.3118 92.7925 52.0692C92.7521 51.8266 92.7723 51.574 92.8329 51.3314C92.8934 51.0889 92.9943 50.8564 93.1356 50.6644C93.2769 50.4622 93.4687 50.3005 93.6807 50.1691C93.8926 50.0378 94.1247 49.9569 94.3771 49.9165C94.6193 49.8761 94.8716 49.8963 95.1138 49.9569L107.992 53.191L108.658 50.5633L95.8203 47.3393C95.5781 47.2887 95.3561 47.1776 95.1542 47.0361C94.9524 46.8946 94.7909 46.7026 94.6597 46.4903C94.5285 46.2781 94.4376 46.0456 94.4073 45.793C94.3771 45.5504 94.3872 45.2977 94.4578 45.0552L96.0323 38.7587C96.0928 38.5161 96.1938 38.2938 96.3452 38.0917C96.4966 37.8895 96.6782 37.7278 96.8902 37.5964C97.1021 37.4651 97.3343 37.3842 97.5765 37.3539C97.8187 37.3236 98.071 37.3337 98.3133 37.3943L103.774 38.7688L104.894 34.3421C104.944 34.0894 105.055 33.857 105.197 33.6548C105.348 33.4527 105.54 33.2708 105.762 33.1495C105.984 33.0282 106.226 32.9373 106.478 32.9069C106.731 32.8766 106.993 32.8968 107.235 32.9777C107.478 33.0282 107.7 33.1394 107.891 33.2809C108.083 33.4224 108.245 33.6144 108.366 33.8266C108.497 34.0389 108.578 34.2713 108.618 34.5139C108.658 34.7565 108.638 35.0091 108.578 35.2517L107.457 39.6784L113.049 41.0832C113.291 41.1439 113.523 41.245 113.725 41.3966C113.927 41.5482 114.099 41.7402 114.23 41.9524C114.361 42.1546 114.452 42.387 114.492 42.6397C114.532 42.8822 114.522 43.1349 114.462 43.3674C114.401 43.6099 114.29 43.8424 114.139 44.0445C113.987 44.2466 113.796 44.4184 113.574 44.5498C113.352 44.6812 113.109 44.7722 112.857 44.8126C112.605 44.853 112.342 44.8328 112.1 44.7722L99.2115 41.538L98.5656 44.1456L111.394 47.3696C111.636 47.4302 111.868 47.5313 112.07 47.6829C112.272 47.8345 112.443 48.0265 112.564 48.2388C112.706 48.451 112.797 48.6835 112.847 48.926C112.908 49.1686 112.897 49.4213 112.837 49.6638Z" fill="#407BFF"/>
<g opacity="0.7">
<path d="M112.837 49.6638L111.252 55.9906C111.192 56.2332 111.091 56.4555 110.939 56.6576C110.788 56.8497 110.596 57.0215 110.384 57.1327C110.162 57.264 109.92 57.355 109.668 57.3853C109.415 57.4257 109.153 57.4055 108.911 57.3449L103.4 55.9502L102.28 60.3769C102.219 60.6195 102.118 60.8418 101.967 61.0439C101.815 61.2461 101.624 61.4078 101.412 61.5291C101.2 61.6604 100.968 61.7413 100.725 61.7817C100.483 61.8222 100.231 61.8019 99.9988 61.7413C99.7566 61.6807 99.5244 61.5796 99.3226 61.428C99.1207 61.2764 98.9491 61.0945 98.8179 60.8822C98.6867 60.67 98.5959 60.4375 98.5555 60.195C98.5151 59.9524 98.5252 59.6997 98.5959 59.4572L99.7263 54.9597L94.2055 53.6155C93.9633 53.5549 93.7412 53.4538 93.5394 53.3022C93.3476 53.1506 93.176 52.9687 93.0549 52.7565C92.9237 52.5442 92.8329 52.3118 92.7925 52.0692C92.7521 51.8266 92.7723 51.574 92.8329 51.3314C92.8934 51.0889 92.9943 50.8564 93.1356 50.6644C93.2769 50.4622 93.4687 50.3005 93.6807 50.1691C93.8926 50.0378 94.1247 49.9569 94.3771 49.9165C94.6193 49.8761 94.8716 49.8963 95.1138 49.9569L107.992 53.191L108.658 50.5633L95.8203 47.3393C95.5781 47.2887 95.3561 47.1776 95.1542 47.0361C94.9524 46.8946 94.7909 46.7026 94.6597 46.4903C94.5285 46.2781 94.4376 46.0456 94.4073 45.793C94.3771 45.5504 94.3872 45.2977 94.4578 45.0552L96.0323 38.7587C96.0928 38.5161 96.1938 38.2938 96.3452 38.0917C96.4966 37.8895 96.6782 37.7278 96.8902 37.5964C97.1021 37.4651 97.3343 37.3842 97.5765 37.3539C97.8187 37.3236 98.071 37.3337 98.3133 37.3943L103.774 38.7688L104.894 34.3421C104.944 34.0894 105.055 33.857 105.197 33.6548C105.348 33.4527 105.54 33.2708 105.762 33.1495C105.984 33.0282 106.226 32.9373 106.478 32.9069C106.731 32.8766 106.993 32.8968 107.235 32.9777C107.478 33.0282 107.7 33.1394 107.891 33.2809C108.083 33.4224 108.245 33.6144 108.366 33.8266C108.497 34.0389 108.578 34.2713 108.618 34.5139C108.658 34.7565 108.638 35.0091 108.578 35.2517L107.457 39.6784L113.049 41.0832C113.291 41.1439 113.523 41.245 113.725 41.3966C113.927 41.5482 114.099 41.7402 114.23 41.9524C114.361 42.1546 114.452 42.387 114.492 42.6397C114.532 42.8822 114.522 43.1349 114.462 43.3674C114.401 43.6099 114.29 43.8424 114.139 44.0445C113.987 44.2466 113.796 44.4184 113.574 44.5498C113.352 44.6812 113.109 44.7722 112.857 44.8126C112.605 44.853 112.342 44.8328 112.1 44.7722L99.2115 41.538L98.5656 44.1456L111.394 47.3696C111.636 47.4302 111.868 47.5313 112.07 47.6829C112.272 47.8345 112.443 48.0265 112.564 48.2388C112.706 48.451 112.797 48.6835 112.847 48.926C112.908 49.1686 112.897 49.4213 112.837 49.6638Z" fill="white"/>
</g>
<path d="M238.927 100.35H48.818C42.7017 100.35 37.7461 105.312 37.7461 111.437V222.903C37.7461 229.028 42.7017 233.99 48.818 233.99H238.937C245.053 233.99 250.009 229.028 250.009 222.903V111.447C249.999 105.322 245.043 100.35 238.927 100.35Z" fill="#3D4A26"/>
<path opacity="0.2" d="M238.927 100.35H48.818C42.7017 100.35 37.7461 105.312 37.7461 111.437V222.903C37.7461 229.028 42.7017 233.99 48.818 233.99H238.937C245.053 233.99 250.009 229.028 250.009 222.903V111.447C249.999 105.322 245.043 100.35 238.927 100.35Z" fill="#009900"/>
<path d="M215.643 146.891C219.287 146.891 222.779 145.446 225.353 142.858C227.926 140.281 229.38 136.774 229.38 133.126C229.38 129.477 227.936 125.98 225.353 123.393C222.779 120.816 219.287 119.36 215.643 119.36H197.91C194.267 119.36 190.775 120.806 188.201 123.393C185.627 125.97 184.174 129.477 184.174 133.126C184.174 136.774 185.617 140.271 188.201 142.858C190.775 145.436 194.267 146.891 197.91 146.891H215.643Z" fill="#C2B280"/>
<path d="M95.8501 146.881H63.1291C60.4948 146.881 58.3652 149.023 58.3652 151.661V173.087C58.3652 175.725 60.5049 177.868 63.1291 177.868H95.8501C98.4843 177.868 100.614 175.725 100.614 173.087V151.661C100.614 149.023 98.4843 146.881 95.8501 146.881Z" fill="#C2B280"/>
<path opacity="0.3" d="M95.8501 146.881H63.1291C60.4948 146.881 58.3652 149.023 58.3652 151.661V173.087C58.3652 175.725 60.5049 177.868 63.1291 177.868H95.8501C98.4843 177.868 100.614 175.725 100.614 173.087V151.661C100.614 149.023 98.4843 146.881 95.8501 146.881Z" fill="#C2B280"/>
<path d="M118.489 115.994H61.7366C59.8694 115.994 58.3555 117.51 58.3555 119.37C58.3555 121.24 59.8694 122.745 61.7366 122.745H118.489C120.356 122.745 121.87 121.229 121.87 119.37C121.87 117.5 120.356 115.994 118.489 115.994Z" fill="#C2B280"/>
<path opacity="0.3" d="M118.489 115.994H61.7366C59.8694 115.994 58.3555 117.51 58.3555 119.37C58.3555 121.24 59.8694 122.745 61.7366 122.745H118.489C120.356 122.745 121.87 121.229 121.87 119.37C121.87 117.5 120.356 115.994 118.489 115.994Z" fill="#C2B280"/>
<path d="M88.8359 193.229H63.3111C60.5759 193.229 58.3555 195.453 58.3555 198.192V202.831C58.3555 205.57 60.5759 207.793 63.3111 207.793H88.8359C91.5711 207.793 93.7915 205.57 93.7915 202.831V198.192C93.7915 195.453 91.5711 193.229 88.8359 193.229Z" fill="#C2B280"/>
<path opacity="0.3" d="M88.8359 193.229H63.3111C60.5759 193.229 58.3555 195.453 58.3555 198.192V202.831C58.3555 205.57 60.5759 207.793 63.3111 207.793H88.8359C91.5711 207.793 93.7915 205.57 93.7915 202.831V198.192C93.7915 195.453 91.5711 193.229 88.8359 193.229Z" fill="#C2B280"/>
<path d="M134.033 193.229H108.508C105.773 193.229 103.553 195.453 103.553 198.192V202.831C103.553 205.57 105.773 207.793 108.508 207.793H134.033C136.768 207.793 138.989 205.57 138.989 202.831V198.192C138.979 195.453 136.768 193.229 134.033 193.229Z" fill="#C2B280"/>
<path opacity="0.3" d="M134.033 193.229H108.508C105.773 193.229 103.553 195.453 103.553 198.192V202.831C103.553 205.57 105.773 207.793 108.508 207.793H134.033C136.768 207.793 138.989 205.57 138.989 202.831V198.192C138.979 195.453 136.768 193.229 134.033 193.229Z" fill="#C2B280"/>
<path d="M179.228 193.229H153.704C150.968 193.229 148.748 195.453 148.748 198.192V202.831C148.748 205.57 150.968 207.793 153.704 207.793H179.228C181.964 207.793 184.184 205.57 184.184 202.831V198.192C184.184 195.453 181.964 193.229 179.228 193.229Z" fill="#C2B280"/>
<path opacity="0.3" d="M179.228 193.229H153.704C150.968 193.229 148.748 195.453 148.748 198.192V202.831C148.748 205.57 150.968 207.793 153.704 207.793H179.228C181.964 207.793 184.184 205.57 184.184 202.831V198.192C184.184 195.453 181.964 193.229 179.228 193.229Z" fill="#C2B280"/>
<path d="M224.424 193.229H198.899C196.164 193.229 193.943 195.453 193.943 198.192V202.831C193.943 205.57 196.164 207.793 198.899 207.793H224.424C227.159 207.793 229.379 205.57 229.379 202.831V198.192C229.369 195.453 227.159 193.229 224.424 193.229Z" fill="#C2B280"/>
<path opacity="0.3" d="M224.424 193.229H198.899C196.164 193.229 193.943 195.453 193.943 198.192V202.831C193.943 205.57 196.164 207.793 198.899 207.793H224.424C227.159 207.793 229.379 205.57 229.379 202.831V198.192C229.369 195.453 227.159 193.229 224.424 193.229Z" fill="#C2B280"/>
</g>
<defs>
<clipPath id="clip0_360_8857">
<rect width="250" height="234" fill="white"/>
</clipPath>
</defs>
</svg>
