<svg width="25" height="15" viewBox="0 0 25 15" fill="none" xmlns="http://www.w3.org/2000/svg">
<path d="M16.6673 1.36389H8.33398V13.6366H16.6673V1.36389Z" fill="#FF5F00"/>
<path d="M9.54922 7.5C9.54706 5.19874 10.6352 3.02437 12.5 1.60359C9.33245 -0.813369 4.78346 -0.46159 2.05006 2.41169C-0.683353 5.28498 -0.683353 9.71499 2.05006 12.5882C4.78346 15.4616 9.33245 15.8133 12.5 13.3964C10.6352 11.9756 9.54706 9.80123 9.54922 7.5Z" fill="#EB001B"/>
<path d="M25 7.5C25.0001 10.3714 23.3114 12.9907 20.6509 14.2457C17.9905 15.5007 14.8255 15.1709 12.5 13.3964C14.3631 11.9743 15.4509 9.80075 15.4509 7.5C15.4509 5.19921 14.3631 3.0257 12.5 1.60355C14.8255 -0.170902 17.9905 -0.50067 20.6509 0.754293C23.3114 2.00926 25.0001 4.62863 25 7.5Z" fill="#F79E1B"/>
</svg>
