<svg width="50" height="20" viewBox="0 0 50 20" fill="none" xmlns="http://www.w3.org/2000/svg">
<g clip-path="url(#clip0_260_1303)">
<path d="M46.1277 20H3.87232C1.73604 20 0 18.2567 0 16.1065V3.88847C0 1.74328 1.73604 0 3.87232 0H46.1277C48.269 0 50 1.74328 50 3.88847V16.1065C50 18.2567 48.264 20 46.1277 20Z" fill="url(#paint0_linear_260_1303)"/>
<path d="M43.2695 6.34546L40.5979 16.5992L40.5879 16.6193H42.6741L45.3558 6.34546H43.2695Z" fill="#292929"/>
<path d="M10.1809 12.178C9.90571 12.3237 9.53048 12.4091 9.17527 12.4091C8.42482 12.4091 7.99956 12.2885 7.95454 11.6806V11.6404C7.95454 11.6153 7.94953 11.5902 7.94953 11.5651V9.79666L7.95454 9.58566V8.33472H7.94953V7.80219L7.95454 7.59119V6.38546L6.09342 6.63163C7.35418 6.38546 8.07461 5.38571 8.07461 4.39099V3.77808H5.98335V6.6467L5.86328 6.68187V11.9971C5.93332 13.4892 6.91391 14.3784 8.51988 14.3784C9.09022 14.3784 9.71559 14.2478 10.1959 14.0318L10.2059 14.0268V12.1629L10.1809 12.178Z" fill="#292929"/>
<path d="M10.5111 5.95789L4.64258 6.8672V8.35929L10.5111 7.44997V5.95789Z" fill="#292929"/>
<path d="M10.5111 8.14417L4.64258 9.05348V10.4803L10.5111 9.57094V8.14417Z" fill="#292929"/>
<path d="M17.0907 8.83127C17.0056 7.1734 15.975 6.18872 14.294 6.18872C13.3284 6.18872 12.5279 6.56551 11.9876 7.27388C11.4473 7.98224 11.1621 9.02218 11.1621 10.2832C11.1621 11.5442 11.4473 12.5891 11.9876 13.2925C12.5279 14.0008 13.3284 14.3776 14.294 14.3776C15.975 14.3776 17.0106 13.3879 17.0907 11.72V14.2219H19.1819V6.35953L17.0907 6.68106M17.2007 10.2832C17.2007 11.7552 16.4303 12.7047 15.2446 12.7047C14.0188 12.7047 13.2884 11.8004 13.2884 10.2832C13.2884 8.76094 14.0188 7.8466 15.2446 7.8466C15.8399 7.8466 16.3402 8.07769 16.6854 8.51979C17.0206 8.95687 17.2007 9.56476 17.2007 10.2832Z" fill="#292929"/>
<path d="M25.2805 6.18927C23.5945 6.18927 22.5639 7.17394 22.4838 8.83684V4.07422L20.3926 4.39575V14.2224H22.4838V11.7205C22.5639 13.3885 23.5995 14.3782 25.2805 14.3782C27.2517 14.3782 28.4274 12.8459 28.4274 10.2837C28.4274 7.72154 27.2517 6.18927 25.2805 6.18927ZM24.3299 12.7052C23.1392 12.7052 22.3738 11.7557 22.3738 10.2837C22.3738 9.5653 22.5539 8.95741 22.8891 8.52536C23.2343 8.08326 23.7346 7.85216 24.3299 7.85216C25.5557 7.85216 26.2861 8.76148 26.2861 10.2887C26.2861 11.8009 25.5557 12.7052 24.3299 12.7052Z" fill="#292929"/>
<path d="M34.1164 6.18927C32.4304 6.18927 31.3998 7.17394 31.3198 8.83684V4.07422L29.2285 4.39575V14.2224H31.3198V11.7205C31.3998 13.3885 32.4354 14.3782 34.1164 14.3782C36.0876 14.3782 37.2633 12.8459 37.2633 10.2837C37.2633 7.72154 36.0876 6.18927 34.1164 6.18927ZM33.1709 12.7052C31.9802 12.7052 31.2147 11.7557 31.2147 10.2837C31.2147 9.5653 31.3948 8.95741 31.73 8.52536C32.0752 8.08326 32.5755 7.85216 33.1709 7.85216C34.3966 7.85216 35.1271 8.76148 35.1271 10.2887C35.1271 11.8009 34.3966 12.7052 33.1709 12.7052Z" fill="#292929"/>
<path d="M37.2676 6.34546H39.4989L41.315 14.2128H39.3138L37.2676 6.34546Z" fill="#292929"/>
</g>
<defs>
<linearGradient id="paint0_linear_260_1303" x1="0" y1="9.99922" x2="50.0005" y2="9.99922" gradientUnits="userSpaceOnUse">
<stop stop-color="#3BFF9D"/>
<stop offset="1" stop-color="#3BFFC8"/>
</linearGradient>
<clipPath id="clip0_260_1303">
<rect width="50" height="20" fill="white"/>
</clipPath>
</defs>
</svg>
