<svg width="31" height="20" viewBox="0 0 31 20" fill="none" xmlns="http://www.w3.org/2000/svg">
<g clip-path="url(#clip0_260_1346)">
<path d="M28.2294 0H2.19325C2.00725 0 1.798 0.0195351 1.612 0.0586052C1.426 0.0976753 1.23612 0.152374 1.05012 0.246142C0.879625 0.320375 0.713 0.453214 0.58125 0.586052C0.4495 0.71889 0.31775 0.886892 0.244125 1.0588C0.151125 1.23071 0.093 1.41825 0.058125 1.62532C0.019375 1.81285 0.019375 2.02383 0 2.21137V17.7925C0 17.9801 0.019375 18.1911 0.058125 18.3786C0.096875 18.5661 0.151125 18.7576 0.244125 18.9451C0.337125 19.117 0.4495 19.285 0.58125 19.4179C0.713 19.5507 0.879625 19.6835 1.05012 19.7578C1.22062 19.8515 1.40662 19.9101 1.612 19.9453C1.798 19.9844 2.00725 19.9844 2.19325 20.0039H28.8106C28.9966 20.0039 29.2059 19.9844 29.3919 19.9453C29.5779 19.9062 29.7677 19.8515 29.9537 19.7578C30.1242 19.664 30.2909 19.5507 30.4226 19.4179C30.5544 19.285 30.6861 19.117 30.7597 18.9451C30.8527 18.7732 30.9109 18.5857 30.9457 18.3786C30.9845 18.1911 30.9845 17.9801 31.0039 17.7925V17.5269V2.79742V2.47705V2.21137C31.0039 2.02383 30.9845 1.81285 30.9457 1.62532C30.907 1.43778 30.8527 1.24634 30.7597 1.0588C30.6667 0.886892 30.5544 0.71889 30.4226 0.586052C30.2909 0.453214 30.1242 0.320375 29.9537 0.246142C29.7832 0.152374 29.5972 0.0937683 29.3919 0.0586052C29.2059 0.0195351 28.9966 0.0195351 28.8106 0L28.2294 0Z" fill="black"/>
<path d="M28.2288 0.660279H28.81C28.9612 0.660279 29.1278 0.679814 29.2983 0.699349C29.4494 0.718884 29.5618 0.757954 29.6742 0.812653C29.7865 0.867351 29.8795 0.945491 29.9725 1.03926C30.0655 1.13303 30.143 1.2268 30.1973 1.3401C30.2554 1.4534 30.2903 1.56671 30.3097 1.71908C30.3484 1.89099 30.3484 2.05899 30.3484 2.21136V17.7925C30.3484 17.9449 30.329 18.1129 30.3097 18.2848C30.2903 18.4177 30.2515 18.5505 30.1973 18.6638C30.1392 18.7771 30.0655 18.8709 29.9725 18.9646C29.8795 19.0584 29.7865 19.1365 29.6742 19.1912C29.5618 19.2498 29.4494 19.285 29.2983 19.3045C29.1278 19.3436 28.9612 19.3436 28.81 19.3436H2.19267C2.06092 19.3436 1.87492 19.3241 1.70442 19.3045C1.57267 19.285 1.44092 19.2459 1.32855 19.1717C1.21617 19.1131 1.12317 19.0389 1.03017 18.9451C0.937172 18.8513 0.859672 18.7576 0.805422 18.6443C0.747297 18.531 0.712422 18.4177 0.693047 18.2653C0.654297 18.0934 0.654297 17.9254 0.654297 17.773V2.47313V2.20746C0.654297 2.05508 0.673672 1.88708 0.693047 1.71517C0.712422 1.58233 0.751172 1.4495 0.805422 1.33619C0.863547 1.22289 0.937172 1.12912 1.03017 1.03535C1.12317 0.941584 1.21617 0.863444 1.32855 0.808746C1.44092 0.75014 1.5533 0.714977 1.70442 0.695442C1.87492 0.656372 2.04155 0.656372 2.19267 0.656372L28.2288 0.660279Z" fill="white"/>
<path d="M8.46685 6.724C8.73035 6.38409 8.91635 5.93087 8.86209 5.47766C8.46685 5.4972 8.00185 5.74334 7.71897 6.06371C7.47485 6.34893 7.2501 6.81777 7.30822 7.25535C7.75385 7.31005 8.18397 7.06391 8.46685 6.724ZM8.85822 7.36475C8.22272 7.32568 7.67634 7.72419 7.37797 7.72419C7.0796 7.72419 6.61072 7.38428 6.1031 7.38428C5.44822 7.40382 4.8476 7.76326 4.51047 8.36494C3.83622 9.55658 4.32447 11.3108 4.99872 12.2759C5.31647 12.7486 5.71172 13.2761 6.21547 13.2565C6.70372 13.237 6.88972 12.9362 7.47097 12.9362C8.05222 12.9362 8.21884 13.2565 8.74584 13.237C9.27284 13.2175 9.6061 12.7642 9.92772 12.272C10.3036 11.725 10.4508 11.1936 10.4508 11.178C10.4315 11.1585 9.4201 10.7795 9.4201 9.61128C9.40072 8.63062 10.2067 8.15787 10.2455 8.13834C9.81534 7.45852 9.10235 7.38428 8.85822 7.36475Z" fill="black"/>
<path d="M14.3692 6.02466C15.7564 6.02466 16.7097 6.98969 16.7097 8.36496C16.7097 9.76367 15.737 10.7248 14.3304 10.7248H12.8114V13.1628H11.707V6.02466H14.3692ZM12.8114 9.80274H14.0669C15.024 9.80274 15.5665 9.27529 15.5665 8.38449C15.5665 7.47807 15.024 6.96625 14.0669 6.96625H12.792V9.79883H12.8114V9.80274ZM16.9887 11.7094C16.9887 10.8029 17.6823 10.2364 18.9184 10.1622L20.3405 10.088V9.68944C20.3405 9.10338 19.9453 8.76347 19.3098 8.76347C18.6898 8.76347 18.3178 9.06431 18.2248 9.51753H17.2134C17.2715 8.57203 18.0737 7.87268 19.3485 7.87268C20.604 7.87268 21.41 8.53296 21.41 9.59176V13.1784H20.3987V12.3267H20.3793C20.0809 12.9127 19.4222 13.2722 18.7479 13.2722C17.7017 13.2761 16.9887 12.6353 16.9887 11.7094ZM20.3444 11.2366V10.8225L19.0695 10.8967C18.434 10.9358 18.0775 11.2171 18.0775 11.6703C18.0775 12.1235 18.4534 12.4243 19.0153 12.4243C19.7632 12.4283 20.3444 11.9164 20.3444 11.2366ZM22.3478 15.1085V14.2411C22.4214 14.2606 22.6113 14.2606 22.6849 14.2606C23.1732 14.2606 23.4328 14.0536 23.6033 13.5222C23.6033 13.5027 23.6963 13.2018 23.6963 13.2018L21.8247 7.98989H22.9678L24.2775 12.2407H24.2969L25.6067 7.98989H26.7304L24.8007 13.4831C24.3512 14.749 23.8435 15.1436 22.7779 15.1436C22.7043 15.128 22.4408 15.128 22.3478 15.1085Z" fill="black"/>
</g>
<defs>
<clipPath id="clip0_260_1346">
<rect width="31" height="20" fill="white"/>
</clipPath>
</defs>
</svg>
