<svg width="32" height="20" viewBox="0 0 32 20" fill="none" xmlns="http://www.w3.org/2000/svg">
<g clip-path="url(#clip0_260_1352)">
<path d="M29.744 0H2.256C1.012 0 0 0.98328 0 2.19745V17.8065C0 19.0167 1.012 20.004 2.256 20.004H29.744C30.988 20.004 32 19.0207 32 17.8065V2.19745C32 0.98328 30.988 0 29.744 0Z" fill="white"/>
<path d="M6.96817 6.72776C6.62417 6.49289 6.18017 6.37744 5.62817 6.37744H3.49217C3.32417 6.37744 3.22817 6.46104 3.21217 6.62824L2.34417 12.0423C2.33617 12.094 2.34817 12.1458 2.38417 12.1895C2.42017 12.2333 2.46417 12.2572 2.51617 12.2572H3.52817C3.70417 12.2572 3.80417 12.1736 3.82017 12.0064L4.06017 10.5454C4.06817 10.4738 4.10017 10.418 4.15217 10.3743C4.20417 10.3305 4.27217 10.3026 4.35217 10.2867C4.43217 10.2747 4.50817 10.2668 4.58017 10.2668C4.65217 10.2668 4.73617 10.2708 4.83217 10.2787C4.92817 10.2867 4.99217 10.2907 5.02017 10.2907C5.78417 10.2907 6.38417 10.0757 6.82017 9.64575C7.26017 9.2198 7.48017 8.62266 7.48017 7.86231C7.48017 7.34082 7.30817 6.96263 6.96817 6.72776ZM5.86817 8.35594C5.82417 8.66645 5.70817 8.86948 5.52017 8.96502C5.33217 9.06056 5.06817 9.11231 4.72017 9.11231L4.28017 9.12426L4.50817 7.70308C4.52417 7.60754 4.58417 7.55579 4.68017 7.55579H4.93217C5.28817 7.55579 5.54417 7.60754 5.70417 7.70706C5.86817 7.81454 5.92017 8.02553 5.86817 8.35594Z" fill="#003087"/>
<path d="M29.4834 6.37744H28.4954C28.3954 6.37744 28.3394 6.42521 28.3234 6.52473L27.4554 12.0462L27.4434 12.0741C27.4434 12.1179 27.4594 12.1617 27.4954 12.2015C27.5314 12.2413 27.5754 12.2612 27.6274 12.2612H28.5074C28.6754 12.2612 28.7714 12.1776 28.7874 12.0104L29.6554 6.58047V6.56852C29.6554 6.43715 29.5994 6.37744 29.4834 6.37744Z" fill="#009CDE"/>
<path d="M17.5603 8.51523C17.5603 8.47144 17.5443 8.42765 17.5083 8.38784C17.4723 8.34803 17.4323 8.32812 17.3883 8.32812H16.3603C16.2643 8.32812 16.1843 8.37191 16.1203 8.45949L14.7083 10.5296L14.1203 8.53911C14.0763 8.3958 13.9763 8.32812 13.8283 8.32812H12.8283C12.7843 8.32812 12.7443 8.34803 12.7083 8.38784C12.6723 8.42765 12.6562 8.47144 12.6562 8.51523C12.6562 8.53115 12.7442 8.79389 12.9162 9.29946C13.0883 9.80504 13.2763 10.3464 13.4762 10.9316C13.6762 11.5168 13.7803 11.8273 13.7883 11.8592C13.0603 12.8504 12.6962 13.3799 12.6962 13.4515C12.6962 13.567 12.7523 13.6227 12.8683 13.6227H13.8963C13.9922 13.6227 14.0723 13.5789 14.1363 13.4913L17.5363 8.60679C17.5522 8.59086 17.5603 8.55902 17.5603 8.51523Z" fill="#003087"/>
<path d="M27.1245 8.32813H26.1125C25.9885 8.32813 25.9125 8.47543 25.8845 8.76603C25.6525 8.41173 25.2325 8.23657 24.6165 8.23657C23.9765 8.23657 23.4325 8.47543 22.9845 8.95313C22.5365 9.43084 22.3125 9.99215 22.3125 10.637C22.3125 11.1585 22.4645 11.5765 22.7725 11.8831C23.0805 12.1936 23.4885 12.3488 24.0045 12.3488C24.2605 12.3488 24.5245 12.2971 24.7925 12.1896C25.0605 12.0821 25.2685 11.9428 25.4205 11.7636C25.4205 11.7716 25.4125 11.8114 25.3925 11.8831C25.3765 11.9547 25.3645 12.0065 25.3645 12.0423C25.3645 12.1856 25.4205 12.2533 25.5365 12.2533H26.4565C26.6245 12.2533 26.7245 12.1697 26.7485 12.0025L27.2965 8.53912C27.3045 8.48737 27.2925 8.43562 27.2565 8.39183C27.2205 8.35202 27.1765 8.32813 27.1245 8.32813ZM25.3845 10.9436C25.1565 11.1665 24.8845 11.274 24.5645 11.274C24.3085 11.274 24.0965 11.2023 23.9365 11.063C23.7765 10.9197 23.6965 10.7286 23.6965 10.4778C23.6965 10.1514 23.8085 9.87272 24.0285 9.64979C24.2525 9.42288 24.5245 9.31141 24.8565 9.31141C25.1045 9.31141 25.3125 9.38307 25.4765 9.53036C25.6405 9.67765 25.7245 9.8767 25.7245 10.1355C25.7245 10.4499 25.6085 10.7206 25.3845 10.9436Z" fill="#009CDE"/>
<path d="M11.9722 8.32813H10.9602C10.8362 8.32813 10.7602 8.47543 10.7322 8.76603C10.4922 8.41173 10.0682 8.23657 9.46416 8.23657C8.82416 8.23657 8.28016 8.47543 7.83216 8.95313C7.38416 9.43084 7.16016 9.99215 7.16016 10.637C7.16016 11.1585 7.31216 11.5765 7.62016 11.8831C7.92816 12.1936 8.33616 12.3488 8.85216 12.3488C9.10016 12.3488 9.36016 12.2971 9.62416 12.1896C9.89216 12.0821 10.1042 11.9428 10.2642 11.7636C10.2282 11.8711 10.2122 11.9627 10.2122 12.0423C10.2122 12.1856 10.2682 12.2533 10.3842 12.2533H11.3042C11.4722 12.2533 11.5722 12.1697 11.5962 12.0025L12.1442 8.53912C12.1522 8.48737 12.1402 8.43562 12.1042 8.39183C12.0722 8.35202 12.0282 8.32813 11.9722 8.32813ZM10.2322 10.9476C10.0042 11.1665 9.72816 11.274 9.40016 11.274C9.14416 11.274 8.93616 11.2023 8.78016 11.063C8.62416 10.9197 8.54816 10.7286 8.54816 10.4778C8.54816 10.1514 8.66016 9.87272 8.88016 9.64979C9.10416 9.42288 9.37616 9.31141 9.70816 9.31141C9.95616 9.31141 10.1642 9.38307 10.3282 9.53036C10.4922 9.67765 10.5762 9.8767 10.5762 10.1355C10.5722 10.4619 10.4602 10.7326 10.2322 10.9476Z" fill="#003087"/>
<path d="M22.1165 6.72776C21.7725 6.49289 21.3285 6.37744 20.7765 6.37744H18.6565C18.4805 6.37744 18.3805 6.46104 18.3645 6.62824L17.4965 12.0423C17.4885 12.094 17.5005 12.1458 17.5365 12.1895C17.5725 12.2333 17.6165 12.2572 17.6685 12.2572H18.7605C18.8685 12.2572 18.9365 12.2015 18.9725 12.086L19.2125 10.5454C19.2205 10.4738 19.2525 10.418 19.3045 10.3743C19.3565 10.3305 19.4245 10.3026 19.5045 10.2867C19.5845 10.2747 19.6605 10.2668 19.7325 10.2668C19.8045 10.2668 19.8885 10.2708 19.9845 10.2787C20.0805 10.2867 20.1445 10.2907 20.1725 10.2907C20.9365 10.2907 21.5365 10.0757 21.9725 9.64575C22.4085 9.21582 22.6245 8.62266 22.6245 7.86231C22.6285 7.34082 22.4565 6.96263 22.1165 6.72776ZM20.7485 8.91327C20.5525 9.04464 20.2605 9.11231 19.8685 9.11231L19.4405 9.12426L19.6685 7.70308C19.6845 7.60754 19.7445 7.55579 19.8405 7.55579H20.0805C20.2765 7.55579 20.4325 7.56375 20.5485 7.58365C20.6645 7.59958 20.7765 7.65531 20.8805 7.75085C20.9885 7.84241 21.0405 7.97776 21.0405 8.1569C21.0445 8.52712 20.9445 8.77792 20.7485 8.91327Z" fill="#009CDE"/>
</g>
<defs>
<clipPath id="clip0_260_1352">
<rect width="32" height="20" fill="white"/>
</clipPath>
</defs>
</svg>
