<svg width="46" height="15" viewBox="0 0 46 15" fill="none" xmlns="http://www.w3.org/2000/svg">
<g clip-path="url(#clip0_260_1376)">
<path d="M19.9334 14.7836H16.207L18.5377 0.263184H22.2639L19.9334 14.7836Z" fill="#00579F"/>
<path d="M33.4416 0.618191C32.7066 0.324391 31.5409 0 30.0994 0C26.4195 0 23.8282 1.97714 23.8123 4.80386C23.7818 6.88941 25.6676 8.04777 27.0781 8.74316C28.5198 9.45374 29.0099 9.91754 29.0099 10.5509C28.9952 11.5237 27.8449 11.9721 26.7721 11.9721C25.2843 11.9721 24.4872 11.7409 23.2758 11.1997L22.7851 10.9677L22.2637 14.2272C23.1376 14.6284 24.7478 14.9844 26.4195 15C30.3295 15 32.8749 13.0535 32.9051 10.0411C32.92 8.38818 31.9242 7.12161 29.7772 6.08664C28.4739 5.42226 27.6758 4.97427 27.6758 4.29449C27.6911 3.6765 28.3509 3.04353 29.8221 3.04353C31.0335 3.01252 31.9235 3.30591 32.5978 3.59951L32.9348 3.7537L33.4416 0.618191Z" fill="#00579F"/>
<path d="M38.3941 9.63952C38.701 8.80534 39.8819 5.57683 39.8819 5.57683C39.8664 5.60783 40.1881 4.72726 40.3721 4.18667L40.6325 5.43784C40.6325 5.43784 41.3382 8.91354 41.4914 9.63952C40.9091 9.63952 39.1302 9.63952 38.3941 9.63952ZM42.9938 0.263184H40.1115C39.2227 0.263184 38.5474 0.525571 38.1639 1.46795L32.6289 14.7834H36.5388C36.5388 14.7834 37.1825 12.9912 37.3209 12.6052C37.7498 12.6052 41.5534 12.6052 42.1052 12.6052C42.2122 13.115 42.5498 14.7834 42.5498 14.7834H46L42.9938 0.263184Z" fill="#00579F"/>
<path d="M13.0945 0.263184L9.4452 10.1647L9.04642 8.15656C8.37174 5.83942 6.25581 3.3219 3.89453 2.07012L7.23716 14.7682H11.1776L17.0348 0.263184H13.0945Z" fill="#00579F"/>
<path d="M6.05662 0.263184H0.0613342L0 0.556572C4.6767 1.76154 7.77399 4.66607 9.04652 8.15718L7.74322 1.48376C7.52865 0.556367 6.86925 0.293775 6.05662 0.263184Z" fill="#FAA61A"/>
</g>
<defs>
<clipPath id="clip0_260_1376">
<rect width="46" height="15" fill="white"/>
</clipPath>
</defs>
</svg>
