<svg width="15" height="15" viewBox="0 0 15 15" fill="none" xmlns="http://www.w3.org/2000/svg">
<g clip-path="url(#clip0_360_7860)">
<path d="M0.0283232 13.1825C0.0283232 12.7268 -0.000522984 12.271 0.0340924 11.821C0.097554 11.0537 0.449477 10.4133 0.997554 9.87099C2.63025 8.24407 4.26294 6.61137 5.89563 4.97868C7.33217 3.54214 8.76294 2.10561 10.1995 0.674836C11.0937 -0.219394 12.2245 -0.219394 13.1245 0.680606C13.5745 1.13061 14.036 1.56907 14.4687 2.04214C15.1956 2.8383 15.1668 3.94022 14.4168 4.7133C13.7533 5.39407 13.0783 6.05753 12.4091 6.73253C9.99756 9.1383 7.58602 11.5441 5.18025 13.9614C4.48217 14.6595 3.65717 15.0171 2.66486 15.0056C2.04755 14.9941 1.43025 14.9825 0.812939 15.0114C0.299477 15.0345 -0.0351384 14.746 0.00524625 14.1921C0.0283232 13.8633 0.0110155 13.5287 0.0110155 13.1998C0.0167847 13.1825 0.0225539 13.1825 0.0283232 13.1825ZM1.26294 13.7421C1.73025 13.7421 2.18025 13.7306 2.62448 13.7479C3.30525 13.7768 3.85909 13.5114 4.33217 13.0383C6.41486 10.9556 8.49755 8.87291 10.5802 6.79022C10.6322 6.7383 10.7014 6.70945 10.7418 6.6806C9.92255 5.86137 9.14371 5.08253 8.35909 4.29791C8.32448 4.33253 8.27832 4.37291 8.23217 4.41907C6.78986 5.86137 5.34178 7.30368 3.89948 8.74599C3.22448 9.42099 2.54948 10.1018 1.86871 10.771C1.52255 11.1114 1.29178 11.521 1.26871 12.0056C1.23986 12.5768 1.26294 13.1479 1.26294 13.7421ZM11.636 5.71714C12.2533 5.09984 12.8764 4.4883 13.4879 3.87099C13.8341 3.52484 13.8341 3.14407 13.4822 2.79791C13.0552 2.37099 12.6283 1.94407 12.2014 1.51714C11.8437 1.15945 11.4802 1.16522 11.1168 1.52868C10.5456 2.09984 9.98025 2.67099 9.40909 3.24214C9.36294 3.2883 9.32255 3.33445 9.28794 3.37484C10.0726 4.15368 10.8514 4.93253 11.636 5.71714Z" fill="#6E6E6E"/>
<path d="M10.6444 13.7422C11.6541 13.7422 12.6579 13.7422 13.6675 13.7422C14.0829 13.7422 14.3656 13.996 14.3714 14.3595C14.3714 14.7287 14.0887 14.9883 13.6791 14.9883C11.6425 14.9883 9.61174 14.9883 7.57521 14.9883C7.16559 14.9883 6.87713 14.7287 6.8829 14.3595C6.88867 13.996 7.17136 13.7422 7.58674 13.7422C8.60213 13.7422 9.62328 13.7422 10.6444 13.7422Z" fill="#6E6E6E"/>
</g>
<defs>
<clipPath id="clip0_360_7860">
<rect width="15" height="15" fill="white"/>
</clipPath>
</defs>
</svg>
