<svg width="33" height="38" viewBox="0 0 33 38" fill="none" xmlns="http://www.w3.org/2000/svg">
<g clip-path="url(#clip0_364_11348)">
<path d="M6.96096 18.9839C6.96096 13.7515 11.2138 9.51367 16.4781 9.51367C21.7968 9.51367 26.0714 13.7623 26.0496 19.0596C26.0279 24.2812 21.7424 28.5191 16.489 28.4975C11.192 28.465 6.95008 24.238 6.96096 18.9839ZM8.69036 19.0164C8.67948 23.2758 12.1927 26.7677 16.5216 26.7785C20.7744 26.7893 24.3093 23.3083 24.3202 19.0704C24.342 14.7893 20.8614 11.2542 16.6086 11.2326C12.2144 11.211 8.70124 14.6596 8.69036 19.0164Z" fill="#6E6E6E"/>
<path d="M16.4344 33.5561C16.032 33.1669 15.6187 32.7886 15.2162 32.3886C15.0748 32.248 14.9443 32.0751 14.8791 31.8913C14.7485 31.5345 14.9117 31.1345 15.2162 30.9291C15.5208 30.7237 15.945 30.7453 16.2386 30.9832C16.4127 31.1345 16.5758 31.2967 16.739 31.4588C17.4895 32.2156 18.2508 32.9724 19.0013 33.7291C19.4255 34.1615 19.4364 34.6264 19.0231 35.048C18.1421 35.9345 17.2611 36.7994 16.3692 37.6751C15.9559 38.0751 15.4555 38.0859 15.0966 37.7291C14.7377 37.3724 14.7485 36.8534 15.1618 36.4426C15.4773 36.1183 15.8145 35.8048 16.206 35.4156C15.5969 35.3615 15.064 35.3183 14.5419 35.2642C7.76567 34.5183 2.00101 29.5129 0.48914 22.8859C-0.979218 16.421 0.858949 10.9291 5.81874 6.49668C5.89487 6.421 5.98189 6.35614 6.0689 6.29127C6.55836 5.91289 7.06956 5.92371 7.39586 6.33452C7.71129 6.73452 7.62427 7.21019 7.17833 7.61019C6.52572 8.2156 5.85137 8.81019 5.26402 9.48046C-0.14171 15.6426 0.771935 25.3291 7.21096 30.4102C9.76699 32.4318 12.6711 33.5237 15.9232 33.6534C16.0646 33.6642 16.206 33.6534 16.3474 33.6534C16.3909 33.621 16.4127 33.5886 16.4344 33.5561Z" fill="#6E6E6E"/>
<path d="M16.5533 4.47568C17.0101 4.8973 17.4778 5.2973 17.9129 5.74055C18.2065 6.03244 18.2501 6.45406 18.0543 6.77838C17.8476 7.11352 17.5322 7.26487 17.1515 7.17838C16.9666 7.13514 16.7708 7.02703 16.6403 6.88649C15.7484 6.01082 14.8783 5.13514 13.9973 4.24865C13.5731 3.81622 13.5731 3.35136 13.9864 2.92973C14.8674 2.04325 15.7484 1.17838 16.6403 0.302707C17.0427 -0.0972925 17.5539 -0.0972925 17.9129 0.259464C18.2609 0.60541 18.2501 1.12433 17.8694 1.52433C17.5431 1.85946 17.2059 2.18379 16.8034 2.57298C17.4125 2.62703 17.9455 2.65946 18.4785 2.72433C25.2547 3.4919 31.0085 8.48649 32.5094 15.1351C33.9996 21.6973 32.0853 27.2432 26.9732 31.6757C26.3423 32.227 25.5701 32.0324 25.4178 31.3081C25.3308 30.8973 25.5375 30.6162 25.842 30.3676C27.3865 29.1135 28.6156 27.6108 29.551 25.8595C34.1083 17.3081 29.1485 6.6919 19.6205 4.68109C18.6416 4.47568 17.641 4.40001 16.6512 4.25946C16.6294 4.32433 16.5859 4.40001 16.5533 4.47568Z" fill="#6E6E6E"/>
<path d="M17.3581 14.4756C18.0216 14.8108 18.5872 15.0594 19.1202 15.3837C19.5879 15.6648 19.664 16.2162 19.3812 16.6162C19.0984 17.0162 18.609 17.1027 18.163 16.8C17.5322 16.3891 16.8796 16.1081 16.0964 16.3027C16.0094 16.3243 15.9115 16.3567 15.8245 16.3891C15.5309 16.5297 15.1719 16.7135 15.2263 17.0702C15.2698 17.3081 15.5309 17.5675 15.7701 17.6973C16.2596 17.9567 16.7926 18.1297 17.2929 18.3459C17.6736 18.5189 18.0651 18.681 18.4132 18.9081C19.7945 19.8054 19.9142 21.4918 18.6851 22.5837C18.4676 22.7783 18.2174 22.9946 17.9455 23.0594C17.4125 23.2 17.3255 23.5135 17.3473 24C17.3799 24.6162 17.021 25.0054 16.4989 25.0162C15.9659 25.027 15.5852 24.627 15.6287 23.9783C15.6614 23.4918 15.52 23.2756 15.0305 23.1459C14.6063 23.0378 14.2148 22.7783 13.8558 22.5297C13.4208 22.2378 13.3338 21.7189 13.6166 21.3189C13.8993 20.9189 14.3997 20.8216 14.8347 21.1135C15.3895 21.481 15.9768 21.7729 16.662 21.6432C16.9883 21.5783 17.3255 21.4162 17.5974 21.2216C17.9129 20.9837 17.8694 20.6378 17.5539 20.4C17.3473 20.2486 17.108 20.1405 16.8796 20.0324C16.2378 19.7513 15.5635 19.5135 14.9435 19.2C14.0081 18.7351 13.399 18 13.486 16.8864C13.573 15.8162 14.2474 15.1567 15.1937 14.7675C15.5526 14.627 15.6831 14.454 15.6287 14.0973C15.607 13.9675 15.6179 13.827 15.6396 13.6973C15.7049 13.2432 16.0529 12.9297 16.4989 12.9297C16.9448 12.9297 17.3038 13.2324 17.3581 13.6864C17.3908 14.0108 17.3581 14.2918 17.3581 14.4756Z" fill="#6E6E6E"/>
</g>
<defs>
<clipPath id="clip0_364_11348">
<rect width="33" height="38" fill="white"/>
</clipPath>
</defs>
</svg>
