<svg width="250" height="230" viewBox="0 0 250 230" fill="none" xmlns="http://www.w3.org/2000/svg">
<g opacity="0.5" clip-path="url(#clip0_360_4768)">
<path d="M55.3594 70.4658L134.831 56.471L130.447 12.1875H68.0866L55.3594 70.4658Z" fill="#3D4A26"/>
<path opacity="0.4" d="M83.4978 40.6122C95.762 31.5379 112.184 34.7835 117.702 23.9018C119.487 20.3818 119.639 16.3414 118.807 12.1875H130.438L134.822 56.471L69.2871 68.015C71.6965 53.2917 77.2995 45.2015 83.4978 40.6122Z" fill="url(#paint0_linear_360_4768)"/>
<path d="M95.959 13.5594H97.2251V6.7749H95.959V13.5594Z" fill="#3D4A26"/>
<path d="M91.2441 13.5594H92.5102V6.7749H91.2441V13.5594Z" fill="#3D4A26"/>
<path d="M86.5293 13.5594H87.7954V6.7749H86.5293V13.5594Z" fill="#3D4A26"/>
<path d="M81.8145 13.5594H83.0806V6.7749H81.8145V13.5594Z" fill="#3D4A26"/>
<path d="M72.3848 13.5594H73.6509V6.7749H72.3848V13.5594Z" fill="#3D4A26"/>
<path d="M77.0996 13.5594H78.3657V6.7749H77.0996V13.5594Z" fill="#3D4A26"/>
<path d="M67.6699 13.5594H68.936V6.7749H67.6699V13.5594Z" fill="#3D4A26"/>
<path d="M62.9551 13.5594H64.2212V6.7749H62.9551V13.5594Z" fill="#3D4A26"/>
<path d="M62.9551 7.19157H134.944V5.73438H62.9551V7.19157Z" fill="#3D4A26"/>
<path d="M133.678 13.5594H134.944V6.7749H133.678V13.5594Z" fill="url(#paint1_linear_360_4768)"/>
<path d="M128.963 13.5594H130.229V6.7749H128.963V13.5594Z" fill="url(#paint2_linear_360_4768)"/>
<path d="M124.248 13.5594H125.514V6.7749H124.248V13.5594Z" fill="url(#paint3_linear_360_4768)"/>
<path d="M119.533 13.5594H120.799V6.7749H119.533V13.5594Z" fill="url(#paint4_linear_360_4768)"/>
<path d="M114.818 13.5594H116.084V6.7749H114.818V13.5594Z" fill="url(#paint5_linear_360_4768)"/>
<path d="M110.104 13.5594H111.37V6.7749H110.104V13.5594Z" fill="url(#paint6_linear_360_4768)"/>
<path d="M105.389 13.5594H106.655V6.7749H105.389V13.5594Z" fill="url(#paint7_linear_360_4768)"/>
<path d="M100.674 13.5594H101.94V6.7749H100.674V13.5594Z" fill="url(#paint8_linear_360_4768)"/>
<path d="M62.9551 16.7863H134.944V10.333H62.9551V16.7863Z" fill="#2E7D32"/>
<path d="M89.4023 63.161H154.418V31.4907H89.4023V63.161Z" fill="#C2B280"/>
<path opacity="0.3" d="M92.0957 60.7667H151.716V33.3828H92.0957V60.7667Z" fill="#C2B280"/>
<path opacity="0.6" d="M145.158 60.7667H147.908V33.3828H145.158V60.7667Z" fill="#C2B280"/>
<path d="M145.045 60.7667H146.878V33.3828H145.045V60.7667Z" fill="#C2B280"/>
<path opacity="0.6" d="M138.139 60.7667H140.888V33.3828H138.139V60.7667Z" fill="#C2B280"/>
<path d="M138.025 60.7667H139.858V33.3828H138.025V60.7667Z" fill="#C2B280"/>
<path opacity="0.6" d="M131.117 60.7667H133.867V33.3828H131.117V60.7667Z" fill="#C2B280"/>
<path d="M131.004 60.7667H132.837V33.3828H131.004V60.7667Z" fill="#C2B280"/>
<path opacity="0.6" d="M124.098 60.7667H126.847V33.3828H124.098V60.7667Z" fill="#C2B280"/>
<path d="M123.994 60.7667H125.827V33.3828H123.994V60.7667Z" fill="#2E3138"/>
<path opacity="0.6" d="M117.078 60.7667H119.828V33.3828H117.078V60.7667Z" fill="#C2B280"/>
<path d="M116.965 60.7667H118.798V33.3828H116.965V60.7667Z" fill="#2E3138"/>
<path opacity="0.6" d="M110.057 60.7667H112.806V33.3828H110.057V60.7667Z" fill="#C2B280"/>
<path d="M109.953 60.7667H111.786V33.3828H109.953V60.7667Z" fill="#2E3138"/>
<path opacity="0.6" d="M103.037 60.7667H105.796V33.3828H103.037V60.7667Z" fill="#C2B280"/>
<path d="M102.934 60.7667H104.767V33.3828H102.934V60.7667Z" fill="#2E3138"/>
<path opacity="0.6" d="M96.0156 60.7667H98.7652V33.3828H96.0156V60.7667Z" fill="#C2B280"/>
<path d="M95.9121 60.7667H97.7451V33.3828H95.9121V60.7667Z" fill="#2E3138"/>
<path d="M154.418 63.161H186.949V31.4907H154.418V63.161Z" fill="#C2B280"/>
<path d="M185.948 62.1576V32.4839H155.41V62.1576H185.948Z" fill="#C2B280"/>
<path d="M155.846 61.5616H170.463V33.0801H155.846V61.5616Z" fill="#C2B280"/>
<path d="M170.896 61.5616H185.513V33.0801H170.896V61.5616Z" fill="#C2B280"/>
<path opacity="0.3" d="M170.896 43.6873H185.513V41.1987H170.896V43.6873Z" fill="#C2B280"/>
<path opacity="0.3" d="M170.896 53.4432H185.513V50.9546H170.896V53.4432Z" fill="#C2B280"/>
<path opacity="0.3" d="M155.846 43.6873H170.463V41.1987H155.846V43.6873Z" fill="#C2B280"/>
<path opacity="0.3" d="M155.846 53.4432H170.463V50.9546H155.846V53.4432Z" fill="#C2B280"/>
<path d="M178.229 62.0063H178.994V32.3325H178.229V62.0063Z" fill="#C2B280"/>
<path d="M178.995 62.0063V32.3325H178.607L178.995 62.0063Z" fill="#3D4A26"/>
<path d="M177.936 33.2317H179.287V31.6704H177.936V33.2317Z" fill="#C2B280"/>
<path d="M177.936 62.7917H179.287V61.2305H177.936V62.7917Z" fill="#C2B280"/>
<path d="M167.656 62.0063H168.422V32.3325H167.656V62.0063Z" fill="#C2B280"/>
<path d="M168.421 62.0063V32.3325H168.033L168.421 62.0063Z" fill="#3D4A26"/>
<path d="M167.363 33.2317H168.714V31.6704H167.363V33.2317Z" fill="#C2B280"/>
<path d="M167.363 62.7917H168.714V61.2305H167.363V62.7917Z" fill="#C2B280"/>
<path d="M162.365 62.0063H163.131V32.3325H162.365V62.0063Z" fill="#C2B280"/>
<path d="M163.139 62.0063V32.3325H162.752L163.139 62.0063Z" fill="#3D4A26"/>
<path d="M162.072 33.2317H163.423V31.6704H162.072V33.2317Z" fill="#C2B280"/>
<path d="M162.072 62.7917H163.423V61.2305H162.072V62.7917Z" fill="#C2B280"/>
<path d="M172.938 62.0063H173.703V32.3325H172.938V62.0063Z" fill="#C2B280"/>
<path d="M173.702 62.0063V32.3325H173.314L173.702 62.0063Z" fill="#3D4A26"/>
<path d="M172.645 33.2317H173.996V31.6704H172.645V33.2317Z" fill="#C2B280"/>
<path d="M172.645 62.7917H173.996V61.2305H172.645V62.7917Z" fill="#C2B280"/>
<path d="M100.184 31.6703H165.199V0H100.184V31.6703Z" fill="#F0EBE3"/>
<path opacity="0.3" d="M102.877 29.2765H162.498V1.89258H102.877V29.2765Z" fill="#C2B280"/>
<path opacity="0.6" d="M155.939 29.2765H158.698V1.89258H155.939V29.2765Z" fill="#C2B280"/>
<path d="M155.826 29.2765H157.659V1.89258H155.826V29.2765Z" fill="#0A0B0D"/>
<path opacity="0.6" d="M148.92 29.2765H151.669V1.89258H148.92V29.2765Z" fill="#C2B280"/>
<path d="M148.807 29.2765H150.64V1.89258H148.807V29.2765Z" fill="#0A0B0D"/>
<path opacity="0.6" d="M141.898 29.2765H144.648V1.89258H141.898V29.2765Z" fill="#C2B280"/>
<path d="M141.795 29.2765H143.628V1.89258H141.795V29.2765Z" fill="#0A0B0D"/>
<path opacity="0.6" d="M134.879 29.2765H137.638V1.89258H134.879V29.2765Z" fill="#C2B280"/>
<path d="M134.775 29.2765H136.608V1.89258H134.775V29.2765Z" fill="#0A0B0D"/>
<path opacity="0.6" d="M127.857 29.2765H130.616V1.89258H127.857V29.2765Z" fill="#C2B280"/>
<path d="M127.754 29.2765H129.587V1.89258H127.754V29.2765Z" fill="#0A0B0D"/>
<path opacity="0.6" d="M120.838 29.2765H123.587V1.89258H120.838V29.2765Z" fill="#C2B280"/>
<path d="M120.734 29.2765H122.567V1.89258H120.734V29.2765Z" fill="#0A0B0D"/>
<path opacity="0.6" d="M113.818 29.2765H116.577V1.89258H113.818V29.2765Z" fill="#C2B280"/>
<path d="M113.713 29.2765H115.546V1.89258H113.713V29.2765Z" fill="#0A0B0D"/>
<path opacity="0.6" d="M106.797 29.2765H109.556V1.89258H106.797V29.2765Z" fill="#C2B280"/>
<path d="M106.693 29.2765H108.526V1.89258H106.693V29.2765Z" fill="#0A0B0D"/>
<path d="M165.199 31.6703H197.731V0H165.199V31.6703Z" fill="white"/>
<path opacity="0.3" d="M196.729 30.6769V0.993652H166.191V30.6674H196.729V30.6769Z" fill="#C2B280"/>
<path d="M166.625 30.0714H181.242V1.58984H166.625V30.0714Z" fill="white"/>
<path d="M181.688 30.0714H196.304V1.58984H181.688V30.0714Z" fill="white"/>
<path opacity="0.3" d="M181.688 12.1971H196.304V9.7085H181.688V12.1971Z" fill="#C2B280"/>
<path opacity="0.3" d="M181.688 21.9622H196.304V19.4736H181.688V21.9622Z" fill="#C2B280"/>
<path opacity="0.3" d="M166.625 12.1971H181.242V9.7085H166.625V12.1971Z" fill="#C2B280"/>
<path opacity="0.3" d="M166.625 21.9622H181.242V19.4736H166.625V21.9622Z" fill="#C2B280"/>
<path d="M189.01 30.5253H189.775V0.851562H189.01V30.5253Z" fill="#C2B280"/>
<path d="M189.774 30.5253V0.851562H189.387L189.774 30.5253Z" fill="#3D4A26"/>
<path d="M188.717 1.74097H190.068V0.179688H188.717V1.74097Z" fill="#C2B280"/>
<path d="M188.717 31.3015H190.068V29.7402H188.717V31.3015Z" fill="#C2B280"/>
<path d="M178.436 30.5253H179.201V0.851562H178.436V30.5253Z" fill="#C2B280"/>
<path d="M179.202 30.5253V0.851562H178.814L179.202 30.5253Z" fill="#3D4A26"/>
<path d="M178.145 1.74097H179.496V0.179688H178.145V1.74097Z" fill="#C2B280"/>
<path d="M178.145 31.3015H179.496V29.7402H178.145V31.3015Z" fill="#C2B280"/>
<path d="M173.145 30.5253H173.91V0.851562H173.145V30.5253Z" fill="#C2B280"/>
<path d="M173.921 30.5253V0.851562H173.533L173.921 30.5253Z" fill="#3D4A26"/>
<path d="M172.852 1.74097H174.203V0.179688H172.852V1.74097Z" fill="#C2B280"/>
<path d="M172.852 31.3015H174.203V29.7402H172.852V31.3015Z" fill="#C2B280"/>
<path d="M183.719 30.5253H184.484V0.851562H183.719V30.5253Z" fill="#C2B280"/>
<path d="M184.493 30.5253V0.851562H184.105L184.493 30.5253Z" fill="#3D4A26"/>
<path d="M183.426 1.74097H184.777V0.179688H183.426V1.74097Z" fill="#C2B280"/>
<path d="M183.426 31.3015H184.777V29.7402H183.426V31.3015Z" fill="#C2B280"/>
<path d="M231.717 24.2708L237.207 38.5021C237.868 40.2242 237.519 42.1735 236.3 43.555C229.554 51.1627 207.954 76.4743 206.376 90.734H61.8224C61.8224 90.734 60.3579 85.5108 57.0225 82.5869C53.6872 79.6631 51.1833 72.2636 54.1029 67.5514L102.914 56.3764L109.887 42.8358C110.861 40.9339 112.779 39.7038 114.914 39.6092L121.027 39.3159C123.257 39.2118 125.27 37.9533 126.356 36.0041L133.424 23.2867C134.293 21.7255 135.928 20.7603 137.704 20.7603H226.587C228.864 20.7508 230.895 22.1513 231.717 24.2708Z" fill="#2E7D32"/>
<path d="M224.726 33.7046C229.686 34.367 234.297 37.4233 237.538 40.1484C237.566 41.3785 237.141 42.5991 236.3 43.5454C229.554 51.1531 207.869 88.3304 206.377 106.29H190.475C190.512 97.7454 190.881 68.8475 192.61 61.6941C196.153 47.0937 224.726 33.7046 224.726 33.7046Z" fill="#3D4A26"/>
<path d="M54.1112 67.542L102.923 56.367L119.694 54.8152C124.116 54.4083 128.103 51.986 130.503 48.2389L135.086 41.1043C138.062 36.4678 143.155 33.6386 148.654 33.5629C168.855 33.279 217.335 32.7113 224.734 33.6954C224.734 33.6954 196.161 47.0845 192.609 61.6848C190.87 68.8383 190.511 100.707 190.473 109.261H61.8212C61.8212 109.261 60.3567 85.5014 57.0214 82.5776C53.686 79.6537 51.1821 72.2637 54.1112 67.542Z" fill="#CCCCCC"/>
<path d="M164.869 66.9175L161.118 59.395H154.447L158.831 66.9175H164.869Z" fill="url(#paint9_linear_360_4768)"/>
<path d="M201.643 66.9175L205.394 59.395H212.064L207.68 66.9175H201.643Z" fill="#C2B280"/>
<path opacity="0.3" d="M118.797 78.3477C128.538 66.7185 129.181 53.3388 143.58 46.3746C158.292 39.2589 168.241 48.0683 184.455 42.6464C189.141 41.0757 194.452 38.2843 199.885 33.1558C211.856 33.1652 221.701 33.3072 224.715 33.714C224.715 33.714 196.143 47.1032 192.59 61.7035C190.852 68.857 190.493 100.357 190.455 108.901H102.205C109.792 105.391 115.046 82.8328 118.797 78.3477Z" fill="#009900"/>
<path d="M120.139 151.794V159.052C120.139 159.723 120.649 160.291 121.32 160.357L195.548 167.397L205.535 174.021L219.33 155.645L120.139 151.794Z" fill="url(#paint10_linear_360_4768)"/>
<path d="M177.029 161.777V168.277C177.029 168.826 177.426 169.29 177.965 169.375L195.785 172.242L195.265 161.767L178.21 160.679C177.568 160.622 177.029 161.133 177.029 161.777Z" fill="url(#paint11_linear_360_4768)"/>
<path d="M127.661 155.144C127.604 155.144 127.538 155.153 127.481 155.153L126.536 155.144L126.546 155.56C125.629 156.279 124.996 157.84 124.996 159.657C124.996 161.54 125.686 163.158 126.65 163.83V164.161H127.651C129.125 164.161 130.316 162.146 130.316 159.657C130.316 157.168 129.125 155.144 127.661 155.144Z" fill="url(#paint12_linear_360_4768)"/>
<path d="M126.536 164.161C128.01 164.161 129.2 162.146 129.2 159.657C129.2 157.169 128.01 155.153 126.536 155.153C125.062 155.153 123.871 157.169 123.871 159.657C123.871 162.146 125.062 164.161 126.536 164.161Z" fill="url(#paint13_linear_360_4768)"/>
<path d="M126.157 162.184C126.988 162.184 127.65 161.048 127.65 159.648C127.65 158.247 126.979 157.112 126.157 157.112C125.335 157.112 124.664 158.247 124.664 159.648C124.664 161.048 125.335 162.184 126.157 162.184Z" fill="#C2B280"/>
<path d="M126.383 162.004C127.082 162.004 127.649 160.954 127.649 159.657C127.649 158.361 127.082 157.311 126.383 157.311C125.684 157.311 125.117 158.361 125.117 159.657C125.117 160.954 125.684 162.004 126.383 162.004Z" fill="url(#paint14_linear_360_4768)"/>
<path d="M133.953 155.655C133.887 155.655 133.821 155.664 133.755 155.664L132.725 155.655L132.734 156.109C131.733 156.894 131.043 158.607 131.043 160.594C131.043 162.657 131.789 164.426 132.857 165.164L132.867 165.533H133.963C135.578 165.533 136.882 163.319 136.882 160.594C136.863 157.859 135.559 155.655 133.953 155.655Z" fill="url(#paint15_linear_360_4768)"/>
<path d="M132.724 165.533C134.331 165.533 135.644 163.319 135.644 160.594C135.644 157.869 134.34 155.655 132.724 155.655C131.109 155.655 129.805 157.869 129.805 160.594C129.805 163.319 131.109 165.533 132.724 165.533Z" fill="url(#paint16_linear_360_4768)"/>
<path d="M133.952 160.594C133.952 162.127 133.215 163.367 132.318 163.367C131.411 163.367 130.674 162.127 130.674 160.594C130.674 159.061 131.411 157.822 132.318 157.822C133.215 157.812 133.952 159.061 133.952 160.594Z" fill="#C2B280"/>
<path d="M133.952 160.594C133.952 162.014 133.328 163.168 132.563 163.168C131.797 163.168 131.174 162.014 131.174 160.594C131.174 159.175 131.797 158.021 132.563 158.021C133.328 158.021 133.952 159.165 133.952 160.594Z" fill="url(#paint17_linear_360_4768)"/>
<path d="M140.671 155.655C140.595 155.655 140.529 155.664 140.453 155.664L139.329 155.655L139.338 156.156C138.242 157.008 137.486 158.881 137.486 161.048C137.486 163.3 138.308 165.24 139.471 166.044L139.48 166.442H140.68C142.437 166.442 143.864 164.029 143.864 161.048C143.855 158.068 142.428 155.655 140.671 155.655Z" fill="url(#paint18_linear_360_4768)"/>
<path d="M139.319 166.442C141.076 166.442 142.503 164.029 142.503 161.048C142.503 158.068 141.076 155.655 139.319 155.655C137.561 155.655 136.135 158.068 136.135 161.048C136.135 164.019 137.561 166.442 139.319 166.442Z" fill="url(#paint19_linear_360_4768)"/>
<path d="M140.671 161.048C140.671 162.723 139.868 164.076 138.885 164.076C137.893 164.076 137.09 162.723 137.09 161.048C137.09 159.374 137.893 158.021 138.885 158.021C139.868 158.011 140.671 159.374 140.671 161.048Z" fill="#C2B280"/>
<path d="M140.671 161.048C140.671 162.6 139.991 163.858 139.15 163.858C138.309 163.858 137.629 162.6 137.629 161.048C137.629 159.496 138.309 158.238 139.15 158.238C139.991 158.238 140.671 159.496 140.671 161.048Z" fill="url(#paint20_linear_360_4768)"/>
<path d="M171.633 158.465C171.539 158.465 171.454 158.474 171.359 158.484L169.923 158.465L169.932 159.099C168.534 160.187 167.57 162.581 167.57 165.353C167.57 168.23 168.619 170.7 170.103 171.731L170.112 172.242H171.643C173.891 172.242 175.706 169.157 175.706 165.353C175.706 161.55 173.882 158.465 171.633 158.465Z" fill="url(#paint21_linear_360_4768)"/>
<path d="M169.924 172.233C172.173 172.233 173.987 169.148 173.987 165.344C173.987 161.54 172.164 158.456 169.924 158.456C167.685 158.456 165.861 161.54 165.861 165.344C165.861 169.148 167.675 172.233 169.924 172.233Z" fill="#2E3138"/>
<path d="M169.347 169.214C170.604 169.214 171.634 167.483 171.634 165.344C171.634 163.206 170.613 161.474 169.347 161.474C168.081 161.474 167.061 163.206 167.061 165.344C167.07 167.483 168.09 169.214 169.347 169.214Z" fill="#C2B280"/>
<path d="M169.697 168.94C170.764 168.94 171.634 167.331 171.634 165.354C171.634 163.367 170.764 161.768 169.697 161.768C168.629 161.768 167.76 163.376 167.76 165.354C167.76 167.331 168.629 168.94 169.697 168.94Z" fill="url(#paint22_linear_360_4768)"/>
<path d="M198.695 159.553C198.581 159.553 198.459 159.563 198.345 159.572L196.503 159.553L196.512 160.367C194.726 161.758 193.498 164.814 193.498 168.353C193.498 172.034 194.83 175.185 196.729 176.491L196.739 177.144H198.695C201.567 177.144 203.891 173.207 203.891 168.353C203.891 163.49 201.567 159.553 198.695 159.553Z" fill="url(#paint23_linear_360_4768)"/>
<path d="M196.511 177.144C199.384 177.144 201.708 173.207 201.708 168.353C201.708 163.499 199.384 159.553 196.511 159.553C193.639 159.553 191.314 163.49 191.314 168.353C191.314 173.207 193.639 177.144 196.511 177.144Z" fill="#2E3138"/>
<path d="M195.785 173.293C197.401 173.293 198.704 171.079 198.704 168.353C198.704 165.628 197.401 163.414 195.785 163.414C194.169 163.414 192.865 165.628 192.865 168.353C192.865 171.079 194.169 173.293 195.785 173.293Z" fill="#C2B280"/>
<path d="M196.218 172.933C197.588 172.933 198.693 170.88 198.693 168.344C198.693 165.808 197.588 163.754 196.218 163.754C194.848 163.754 193.742 165.808 193.742 168.344C193.742 170.88 194.857 172.933 196.218 172.933Z" fill="url(#paint24_linear_360_4768)"/>
<path d="M115.727 113.15C114.754 113.311 114.045 114.153 114.045 115.137V151.936C114.045 153.005 114.876 153.895 115.944 153.951L185.013 157.812V101.606L115.727 113.15Z" fill="#00A3C4"/>
<path d="M223.959 102.931L185.012 101.616V157.822H226.056V105.098C226.056 103.925 225.13 102.969 223.959 102.931Z" fill="#0599B7"/>
<path opacity="0.3" d="M170.415 143.694C161.543 139.607 153.219 145.852 145.102 139.815C137.997 134.525 140.284 126.7 134.614 117.437C133.311 115.317 131.572 113.093 129.2 110.917L115.727 113.16C114.754 113.32 114.045 114.163 114.045 115.147V151.946C114.045 153.015 114.876 153.904 115.944 153.961L181.451 157.623C178.437 149.381 174.355 145.511 170.415 143.694Z" fill="url(#paint25_linear_360_4768)"/>
<path d="M246.806 140.033L243.924 132.784L243.839 126.785L246.749 126.208C247.033 126.151 247.212 125.867 247.137 125.593C246.693 123.824 245.086 117.985 242.583 116.055C240.816 114.693 207.349 114.286 207.349 114.286L191.239 115.336C189.973 115.421 188.99 116.471 188.99 117.739V153.488C188.99 154.425 189.708 155.21 190.634 155.286L201.689 156.251L203.881 158.465C203.881 158.465 235.222 160.982 247.723 158.692C248.375 158.569 248.847 158.011 248.847 157.349V141.632C248.856 139.351 246.806 140.033 246.806 140.033Z" fill="#D35400"/>
<path opacity="0.8" d="M212.829 142.209C212.829 142.209 212.489 126.681 212.829 120.285C212.999 117.181 211.44 115.374 209.806 114.333C208.275 114.304 207.359 114.295 207.359 114.295L191.249 115.345C189.983 115.43 189 116.481 189 117.749V153.497C189 154.434 189.718 155.219 190.644 155.295L201.699 156.26L203.891 158.474C203.891 158.474 209.05 158.891 216.013 159.231V145.984L212.829 142.209Z" fill="#FF6F00"/>
<path d="M248.498 161.484L247.26 161.048V158.531C247.26 157.85 246.712 157.301 246.032 157.301H207.226C206.291 157.301 205.535 158.058 205.535 158.995V174.021C205.535 174.844 206.225 175.507 207.047 175.478L248.602 173.879C249.386 173.851 250 173.207 250 172.422V163.584C250 162.638 249.395 161.796 248.498 161.484Z" fill="#3D4A26"/>
<path d="M243.773 148.567H220.766C219.991 148.567 219.377 149.23 219.433 149.996L220.699 168.088C220.766 168.996 221.531 169.687 222.438 169.659L242.204 168.987C243.064 168.959 243.773 168.277 243.83 167.416L245.096 149.996C245.162 149.23 244.548 148.567 243.773 148.567Z" fill="url(#paint26_linear_360_4768)"/>
<g opacity="0.3">
<path d="M248.497 161.483L247.259 161.048V158.531C247.259 157.992 246.919 157.538 246.437 157.377L244.075 168.495C243.792 169.82 242.649 170.785 241.297 170.832L223.156 171.542C221.852 171.589 220.671 170.785 220.246 169.555L216.004 157.311H207.207C206.272 157.311 205.516 158.068 205.516 159.004V174.04C205.516 174.863 206.205 175.525 207.027 175.497L248.582 173.898C249.366 173.87 249.981 173.226 249.981 172.441V163.603C250 162.638 249.395 161.796 248.497 161.483Z" fill="#3D4A26"/>
</g>
<path d="M217.96 170.52L213.642 170.738C210.958 170.87 208.662 168.855 208.436 166.177L208.266 164.076H216.902C217.487 164.076 217.95 164.549 217.95 165.126V170.52H217.96Z" fill="#FF6F00"/>
<path d="M245.795 164.966L245.105 169.669C245.105 169.669 249.65 169.508 249.537 163.764L246.712 164.076C246.239 164.124 245.861 164.493 245.795 164.966Z" fill="#D35400"/>
<path d="M213.811 142.285C213.14 142.285 212.469 142.067 211.931 141.67L210.155 140.364C209.503 139.881 209.115 139.115 209.115 138.301V127.949C209.115 127.486 209.323 127.041 209.673 126.738C210.032 126.435 210.495 126.312 210.958 126.388L212.696 126.691H243.914L246.9 140.033V140.052L246.569 141.698H246.494L213.868 142.275C213.849 142.285 213.83 142.285 213.811 142.285ZM210.693 126.568C210.372 126.568 210.051 126.681 209.796 126.899C209.484 127.164 209.304 127.552 209.304 127.959V138.31C209.304 139.058 209.663 139.777 210.268 140.222L212.044 141.528C212.555 141.906 213.188 142.105 213.821 142.105C213.84 142.105 213.858 142.105 213.877 142.105L246.418 141.528L246.711 140.052L243.763 126.899H212.677L210.92 126.596C210.844 126.568 210.769 126.568 210.693 126.568Z" fill="#808080"/>
<path d="M243.84 126.795H212.679L210.94 126.492C210.033 126.331 209.211 127.031 209.211 127.949V138.301C209.211 139.086 209.579 139.824 210.212 140.288L211.989 141.594C212.537 141.991 213.198 142.199 213.869 142.19L246.486 141.613L246.797 140.042L243.84 126.795Z" fill="url(#paint27_linear_360_4768)"/>
<path d="M224.47 123.189H221.815C221.409 123.189 221.088 123.511 221.088 123.918V125.035C221.088 125.441 221.409 125.763 221.815 125.763H224.47C224.877 125.763 225.198 125.441 225.198 125.035V123.918C225.198 123.521 224.877 123.189 224.47 123.189Z" fill="#3D4A26"/>
<path d="M240.031 123.189H237.376C236.97 123.189 236.648 123.511 236.648 123.918V125.035C236.648 125.441 236.97 125.763 237.376 125.763H240.031C240.437 125.763 240.759 125.441 240.759 125.035V123.918C240.759 123.521 240.437 123.189 240.031 123.189Z" fill="#3D4A26"/>
<path opacity="0.3" d="M234.089 134.156C226.049 131.072 218.49 134.913 215.022 130.731C214.087 129.595 213.709 128.195 213.624 126.795H212.688L210.95 126.492C210.043 126.331 209.221 127.031 209.221 127.958V138.31C209.221 139.096 209.589 139.834 210.222 140.297L211.999 141.603C212.547 142.001 213.208 142.209 213.879 142.199L243.425 141.669C240.08 137.146 236.688 135.15 234.089 134.156Z" fill="white"/>
<path d="M233.587 211.321L2.31445 209.344V215.182C2.31445 216.772 3.32545 218.115 4.68605 218.352L70.0797 229.858C70.8545 229.99 71.6387 230.028 72.4229 229.962L231.065 216.847C232.482 216.734 233.578 215.381 233.578 213.753V211.321H233.587Z" fill="#3D4A26"/>
<path d="M149.656 201.954L4.70539 212.646C2.10703 212.835 0 210.811 0 208.104V100.007C0 97.3103 2.10703 95.1245 4.70539 95.1245H149.656C151.791 95.1245 153.521 97.1021 153.521 99.5434V197.261C153.521 199.692 151.791 201.793 149.656 201.954Z" fill="#3D4A26"/>
<path d="M151.97 201.954L7.01008 212.646C4.41172 212.835 2.30469 210.811 2.30469 208.104V100.007C2.30469 97.3103 4.41172 95.1245 7.01008 95.1245H151.961C154.096 95.1245 155.825 97.1021 155.825 99.5434V197.261C155.835 199.692 154.106 201.793 151.97 201.954Z" fill="url(#paint28_linear_360_4768)"/>
<path d="M147.455 195.065L12.4439 204.348C10.3368 204.49 8.61719 202.825 8.61719 200.62V105.978C8.61719 103.773 10.3368 101.985 12.4439 101.975L147.455 101.389C149.222 101.379 150.648 102.997 150.648 105.003V191.205C150.639 193.22 149.212 194.942 147.455 195.065Z" fill="white"/>
<path d="M157.744 201.367L2.31445 212.618L70.0891 224.54C70.8639 224.682 71.6481 224.711 72.4324 224.654L233.587 211.331L160.219 201.452C159.397 201.329 158.566 201.301 157.744 201.367Z" fill="url(#paint29_linear_360_4768)"/>
<path d="M24.9922 212.703L154.4 203.203L194.452 208.549L66.1597 218.711L24.9922 212.703Z" fill="#C2B280"/>
<path d="M66.915 200.449L11.8393 204.158C10.2236 204.262 8.85352 202.985 8.85352 201.358V104.757C8.85352 103.215 10.1007 101.956 11.6408 101.956L66.915 101.729V200.449Z" fill="#3D4A26"/>
<path d="M60.3291 131.611L27.0039 132.746V128.356L60.3291 127.306V131.611Z" fill="white"/>
<path d="M60.3291 138.651L27.0039 139.938V135.547L60.3291 134.355V138.651Z" fill="white"/>
<path d="M60.3291 145.7L27.0039 147.138V142.748L60.3291 141.404V145.7Z" fill="white"/>
<path d="M60.3291 152.74L27.0039 154.33V149.939L60.3291 148.444V152.74Z" fill="white"/>
<path d="M125.675 190.391L39.5136 196.191C35.035 196.494 31.265 193.23 31.2555 189.057L31.2461 178.469C31.2461 174.598 34.4964 171.343 38.6538 171.088L124.815 165.647C129.285 165.363 133.036 168.618 133.036 172.782L133.045 183.01C133.055 186.871 129.814 190.117 125.675 190.391Z" fill="#D35400"/>
<path d="M40.9305 184.675L40.9589 187.902L39.3432 188.006L39.2676 179.944L42.0549 179.765C42.9714 179.708 43.6895 179.869 44.2092 180.257C44.7289 180.644 44.9934 181.212 45.0029 181.96C45.0029 182.376 44.8989 182.736 44.6816 183.057C44.4643 183.37 44.1525 183.635 43.7273 183.852C44.1997 183.956 44.5493 184.174 44.7572 184.486C44.9651 184.798 45.0785 185.205 45.0785 185.688L45.0879 186.284C45.0879 186.511 45.1257 186.738 45.1824 186.984C45.2485 187.23 45.3525 187.401 45.5036 187.514V187.628L43.8407 187.741C43.6895 187.628 43.595 187.438 43.5478 187.173C43.5005 186.909 43.4816 186.644 43.4722 186.388L43.4627 185.82C43.4627 185.413 43.3494 185.111 43.1226 184.903C42.9053 184.694 42.5935 184.6 42.1872 184.628L40.9305 184.675ZM40.9116 183.426L42.0549 183.351C42.5084 183.322 42.8486 183.199 43.0659 183.001C43.2832 182.802 43.3966 182.499 43.3872 182.13C43.3872 181.761 43.2738 181.477 43.047 181.269C42.8202 181.07 42.4895 180.976 42.0644 181.004L40.8927 181.08L40.9116 183.426Z" fill="white"/>
<path d="M51.1272 183.692L48.1415 183.89L48.1604 186.199L51.7036 185.962L51.713 187.202L46.5541 187.543L46.4785 179.481L51.628 179.14L51.6374 180.389L48.1037 180.616L48.1226 182.641L51.1083 182.442L51.1272 183.692Z" fill="white"/>
<path d="M59.3285 183.389C59.3285 183.795 59.2813 184.183 59.1679 184.543C59.0545 184.912 58.9033 185.243 58.6955 185.546L59.9049 186.672L58.8561 187.609L57.6656 186.521C57.4199 186.672 57.1554 186.786 56.8719 186.871C56.5884 186.956 56.2955 187.013 55.9837 187.032C54.9916 187.098 54.1791 186.823 53.5554 186.218C52.9318 185.612 52.6106 184.817 52.6011 183.824L52.5822 182.376C52.5728 181.392 52.8752 180.55 53.4799 179.869C54.094 179.178 54.8877 178.799 55.8798 178.743C56.8814 178.676 57.6939 178.951 58.327 179.556C58.96 180.162 59.2813 180.957 59.2907 181.95L59.3285 183.389ZM57.7128 182.035C57.7034 181.411 57.5428 180.9 57.2309 180.521C56.9097 180.143 56.4751 179.963 55.927 180.001C55.379 180.039 54.9633 180.266 54.6609 180.692C54.3586 181.118 54.2168 181.638 54.2168 182.263L54.2357 183.729C54.2452 184.373 54.3964 184.884 54.7082 185.262C55.02 185.641 55.4452 185.82 55.9932 185.783C56.5412 185.745 56.9758 185.518 57.2782 185.092C57.5805 184.666 57.7317 184.136 57.7317 183.502L57.7128 182.035Z" fill="white"/>
<path d="M67.1132 178.118L67.1699 183.398C67.1794 184.306 66.8864 185.035 66.2912 185.593C65.6959 186.142 64.9211 186.454 63.9574 186.521C63.0031 186.587 62.2283 186.379 61.6236 185.906C61.0189 185.433 60.7165 184.742 60.7071 183.833L60.6504 178.553L62.2661 178.449L62.3228 183.729C62.3322 184.269 62.474 184.666 62.7669 184.94C63.0598 185.205 63.4472 185.319 63.9385 185.291C64.4393 185.262 64.8267 185.092 65.1196 184.789C65.4125 184.486 65.5448 184.06 65.5448 183.521L65.4881 178.241L67.1132 178.118Z" fill="white"/>
<path d="M73.1507 182.253L70.1649 182.452L70.1838 184.751L73.727 184.524L73.7365 185.764L68.5775 186.104L68.502 178.043L73.6514 177.711L73.6609 178.96L70.1271 179.188L70.146 181.212L73.1318 181.014L73.1507 182.253Z" fill="white"/>
<path d="M79.0566 183.303C79.0566 182.991 78.9433 182.755 78.7259 182.575C78.5086 182.404 78.1307 182.244 77.5827 182.121C76.6473 181.903 75.9481 181.619 75.4567 181.269C74.9749 180.919 74.7292 180.417 74.7197 179.764C74.7103 179.102 74.9749 178.544 75.5134 178.09C76.052 177.635 76.7417 177.38 77.5827 177.323C78.4708 177.266 79.1984 177.446 79.7464 177.863C80.2944 178.279 80.559 178.847 80.5495 179.585L80.5401 179.623L78.9716 179.727C78.9716 179.32 78.8393 179.026 78.5937 178.818C78.348 178.62 78.0079 178.534 77.5638 178.563C77.1669 178.591 76.8551 178.705 76.6473 178.913C76.4299 179.121 76.326 179.367 76.326 179.67C76.326 179.944 76.4488 180.162 76.685 180.323C76.9213 180.484 77.3275 180.644 77.9134 180.796C78.8015 180.985 79.4818 181.269 79.9448 181.647C80.4172 182.026 80.6535 182.537 80.6535 183.199C80.6629 183.89 80.3983 184.448 79.8598 184.884C79.3307 185.319 78.6126 185.565 77.7338 185.622C76.8646 185.678 76.1181 185.508 75.4945 185.12C74.8709 184.732 74.5591 184.108 74.5686 183.247L74.578 183.209L76.1465 183.105C76.1465 183.578 76.2977 183.918 76.5811 184.127C76.8646 184.335 77.2425 184.42 77.7244 184.392C78.159 184.363 78.4803 184.25 78.707 184.051C78.9527 183.852 79.0661 183.606 79.0566 183.303Z" fill="white"/>
<path d="M87.4271 178.042L85.1311 178.194L85.1972 185.007L83.5815 185.111L83.5154 178.298L81.2477 178.449L81.2383 177.2L87.4177 176.793L87.4271 178.042Z" fill="white"/>
<path d="M97.6703 180.891C97.6703 181.297 97.6231 181.685 97.5097 182.045C97.3963 182.414 97.2451 182.745 97.0373 183.048L98.2467 184.174L97.1979 185.111L96.0074 184.023C95.7617 184.174 95.4972 184.287 95.2137 184.373C94.9302 184.458 94.6373 184.515 94.3255 184.533C93.3334 184.6 92.5209 184.325 91.8972 183.72C91.2736 183.114 90.9524 182.319 90.9429 181.326L90.924 179.878C90.9146 178.894 91.2169 178.052 91.8217 177.371C92.4358 176.68 93.2295 176.301 94.2216 176.245C95.2231 176.178 96.0357 176.453 96.6688 177.058C97.3018 177.664 97.6231 178.459 97.6325 179.452L97.6703 180.891ZM96.0452 179.528C96.0357 178.903 95.8751 178.392 95.5633 178.014C95.242 177.635 94.8074 177.456 94.2594 177.494C93.7114 177.531 93.2956 177.758 92.9933 178.184C92.6909 178.61 92.5492 179.131 92.5492 179.755L92.5681 181.222C92.5775 181.865 92.7287 182.367 93.0405 182.755C93.3523 183.133 93.7775 183.313 94.3255 183.275C94.883 183.237 95.3082 183.01 95.6105 182.584C95.9129 182.158 96.0641 181.629 96.0641 180.995L96.0452 179.528Z" fill="white"/>
<path d="M105.455 175.62L105.512 180.9C105.521 181.808 105.228 182.537 104.633 183.095C104.038 183.644 103.263 183.956 102.299 184.023C101.345 184.089 100.57 183.881 99.9654 183.408C99.3607 182.934 99.0583 182.244 99.0489 181.335L98.9922 176.055L100.608 175.951L100.655 181.231C100.665 181.771 100.806 182.177 101.099 182.442C101.392 182.707 101.78 182.821 102.271 182.793C102.772 182.764 103.159 182.594 103.452 182.291C103.745 181.988 103.887 181.572 103.877 181.033L103.82 175.753L105.455 175.62Z" fill="white"/>
<path d="M113.411 179.859C113.421 180.853 113.118 181.695 112.504 182.376C111.89 183.058 111.077 183.436 110.085 183.502C109.093 183.568 108.281 183.294 107.657 182.688C107.033 182.083 106.712 181.288 106.703 180.295L106.684 178.847C106.674 177.863 106.977 177.021 107.581 176.339C108.196 175.649 108.989 175.27 109.981 175.213C110.983 175.147 111.795 175.421 112.429 176.027C113.062 176.633 113.383 177.427 113.392 178.421L113.411 179.859ZM111.786 178.497C111.777 177.872 111.616 177.361 111.304 176.983C110.992 176.604 110.548 176.424 110 176.462C109.452 176.5 109.027 176.727 108.734 177.153C108.432 177.579 108.29 178.099 108.29 178.733L108.309 180.2C108.318 180.834 108.47 181.345 108.781 181.733C109.093 182.111 109.518 182.291 110.066 182.253C110.614 182.215 111.049 181.988 111.351 181.562C111.654 181.137 111.805 180.607 111.805 179.973L111.786 178.497Z" fill="white"/>
<path d="M120.111 175.904L117.815 176.056L117.881 182.869L116.265 182.973L116.199 176.16L113.931 176.311L113.922 175.062L120.101 174.655L120.111 175.904Z" fill="white"/>
<path d="M125.628 178.818L122.642 179.017L122.661 181.317L126.213 181.089L126.223 182.329L121.064 182.67L120.988 174.608L126.138 174.267L126.147 175.516L122.613 175.743L122.632 177.768L125.618 177.569L125.628 178.818Z" fill="white"/>
<path d="M88.429 153.469C88.429 153.469 96.5642 151.378 100.136 145.833C103.707 140.288 103.972 136.711 106.353 136.711C108.734 136.711 107.884 138.5 111.38 139.096C114.866 139.692 116.746 139.096 117.257 136.796C117.767 134.497 117.257 126.814 116.321 125.621C115.386 124.429 113.42 120.417 113.165 119.14C112.91 117.862 112.353 113.264 112.353 113.264L114.356 113.68C114.356 113.68 116.057 120.162 117.077 121.609C118.098 123.057 118.353 131.592 123.634 131.762C128.916 131.933 126.96 125.366 133.262 123.152C139.565 120.938 140.245 120.938 140.245 120.938V124.439C140.245 124.439 132.752 125.801 130.881 129.217C129.011 132.624 125.855 136.465 124.749 138.424C123.644 140.383 120.743 142.777 119.638 143.373C118.532 143.969 120.063 150.536 114.526 153.185C108.989 155.825 106.778 148.832 105.332 149.088C103.887 149.343 100.816 153.952 99.3704 155.484C97.9248 157.017 96.7343 158.891 93.1533 159.496C89.5722 160.093 79.4434 160.178 79.4434 160.178V153.952L88.429 153.469Z" fill="#E7E9E5"/>
<path d="M84.2999 146.684C84.2999 146.684 91.7076 141.821 92.2178 140.628C92.7281 139.436 94.939 128.517 95.7138 127.069C96.4886 125.621 104.142 119.565 104.737 118.543C105.332 117.521 105.077 111.977 105.077 111.977H79.4434V147.28L84.2999 146.684Z" fill="#3D4A26"/>
<path d="M92.3126 139.824C92.1992 139.824 92.0858 139.768 92.0102 139.673C91.8874 139.503 91.9252 139.276 92.0858 139.153C92.0858 139.153 92.2275 139.049 92.4826 138.859C92.6433 138.736 92.8795 138.765 93.0023 138.935C93.1251 139.096 93.0968 139.332 92.9267 139.455C92.6716 139.645 92.5299 139.758 92.5299 139.758C92.4732 139.806 92.3882 139.824 92.3126 139.824Z" fill="url(#paint30_linear_360_4768)"/>
<path d="M127.122 141.414C127.055 141.414 126.989 141.414 126.914 141.404C126.706 141.385 126.555 141.206 126.574 141.007C126.592 140.799 126.763 140.647 126.98 140.666C127.037 140.666 127.093 140.666 127.14 140.676C127.235 140.676 127.311 140.666 127.367 140.657C127.518 140.628 127.66 140.581 127.802 140.534C128 140.468 128.208 140.581 128.274 140.77C128.34 140.969 128.237 141.177 128.038 141.244C127.868 141.3 127.698 141.348 127.528 141.385C127.396 141.404 127.263 141.414 127.122 141.414ZM125.969 141.215C125.94 141.215 125.903 141.215 125.874 141.206C125.581 141.13 125.26 141.016 124.901 140.893C124.703 140.827 124.608 140.61 124.674 140.411C124.741 140.212 124.958 140.118 125.156 140.184C125.487 140.307 125.799 140.401 126.073 140.477C126.271 140.534 126.385 140.742 126.337 140.941C126.281 141.111 126.129 141.215 125.969 141.215ZM128.803 140.846C128.671 140.846 128.548 140.78 128.482 140.657C128.378 140.477 128.435 140.25 128.614 140.146C128.87 139.995 129.125 139.815 129.351 139.607C129.503 139.474 129.739 139.484 129.881 139.644C130.013 139.805 130.003 140.032 129.843 140.174C129.569 140.411 129.285 140.619 128.983 140.799C128.936 140.837 128.87 140.846 128.803 140.846ZM124.098 140.553C124.051 140.553 124.004 140.543 123.956 140.524C123.663 140.401 123.352 140.269 123.04 140.127C122.851 140.042 122.766 139.824 122.851 139.635C122.936 139.446 123.153 139.361 123.342 139.446C123.654 139.588 123.956 139.711 124.24 139.834C124.429 139.909 124.523 140.127 124.448 140.326C124.391 140.468 124.249 140.553 124.098 140.553ZM122.293 139.749C122.237 139.749 122.189 139.739 122.133 139.711C121.84 139.569 121.537 139.427 121.235 139.275C121.056 139.181 120.971 138.963 121.065 138.774C121.16 138.585 121.377 138.509 121.566 138.604C121.868 138.755 122.161 138.897 122.454 139.029C122.643 139.115 122.719 139.342 122.634 139.531C122.567 139.673 122.435 139.749 122.293 139.749ZM130.287 139.559C130.202 139.559 130.117 139.531 130.051 139.474C129.89 139.342 129.871 139.105 129.994 138.944C130.183 138.708 130.362 138.452 130.533 138.178C130.636 137.998 130.863 137.941 131.043 138.055C131.222 138.159 131.279 138.395 131.166 138.566C130.986 138.869 130.778 139.162 130.57 139.417C130.504 139.512 130.4 139.559 130.287 139.559ZM93.4941 138.925C93.3807 138.925 93.2673 138.878 93.2012 138.774C93.0783 138.613 93.1067 138.376 93.2673 138.253C93.5035 138.074 93.7681 137.866 94.0515 137.648C94.2122 137.525 94.4484 137.553 94.5712 137.714C94.694 137.875 94.6657 138.112 94.5051 138.235C94.2216 138.452 93.9571 138.66 93.7208 138.84C93.6547 138.906 93.5791 138.925 93.4941 138.925ZM120.517 138.878C120.46 138.878 120.404 138.869 120.347 138.84C120.054 138.689 119.761 138.537 119.468 138.386C119.289 138.291 119.213 138.064 119.308 137.884C119.402 137.705 119.629 137.629 119.808 137.724C120.101 137.875 120.394 138.026 120.687 138.178C120.867 138.272 120.942 138.499 120.848 138.679C120.782 138.802 120.649 138.878 120.517 138.878ZM118.76 137.951C118.703 137.951 118.637 137.941 118.58 137.903C118.287 137.743 117.994 137.591 117.711 137.43C117.531 137.336 117.465 137.109 117.56 136.919C117.664 136.739 117.881 136.673 118.07 136.768C118.363 136.929 118.646 137.08 118.939 137.241C119.119 137.336 119.185 137.563 119.09 137.742C119.024 137.884 118.892 137.951 118.76 137.951ZM95.0625 137.714C94.9492 137.714 94.8452 137.667 94.7696 137.572C94.6374 137.411 94.6657 137.175 94.8263 137.052C95.072 136.853 95.3365 136.645 95.6011 136.437C95.7617 136.304 95.998 136.333 96.1302 136.493C96.2625 136.654 96.2342 136.891 96.0735 137.023C95.809 137.241 95.5444 137.449 95.2988 137.648C95.2232 137.686 95.1381 137.714 95.0625 137.714ZM117.021 137.004C116.955 137.004 116.898 136.986 116.842 136.957C116.549 136.796 116.256 136.635 115.972 136.465C115.793 136.361 115.727 136.134 115.831 135.954C115.934 135.774 116.161 135.708 116.341 135.812C116.624 135.973 116.908 136.134 117.201 136.295C117.38 136.399 117.446 136.626 117.342 136.806C117.286 136.929 117.153 137.004 117.021 137.004ZM96.6027 136.465C96.4987 136.465 96.3853 136.418 96.3097 136.333C96.1775 136.172 96.2058 135.935 96.357 135.803C96.6121 135.595 96.8578 135.386 97.1129 135.178C97.2735 135.046 97.5097 135.065 97.642 135.226C97.7743 135.386 97.7554 135.623 97.5948 135.755C97.3396 135.973 97.0845 136.181 96.8294 136.389C96.7633 136.437 96.6877 136.465 96.6027 136.465ZM115.301 136.02C115.235 136.02 115.179 136.001 115.112 135.973C114.82 135.803 114.536 135.632 114.253 135.472C114.073 135.367 114.016 135.14 114.12 134.961C114.224 134.781 114.451 134.724 114.631 134.828C114.905 134.989 115.197 135.159 115.481 135.33C115.66 135.434 115.717 135.661 115.613 135.841C115.557 135.954 115.434 136.02 115.301 136.02ZM98.1144 135.197C98.0105 135.197 97.9066 135.15 97.831 135.065C97.6987 134.904 97.7176 134.667 97.8688 134.535C98.1239 134.317 98.3695 134.109 98.6152 133.891C98.7664 133.759 99.0026 133.768 99.1443 133.92C99.2766 134.071 99.2672 134.308 99.1065 134.45C98.8609 134.667 98.6058 134.885 98.3601 135.103C98.294 135.169 98.1995 135.197 98.1144 135.197ZM113.591 135.017C113.525 135.017 113.459 134.998 113.402 134.961C113.109 134.781 112.816 134.61 112.552 134.45C112.372 134.346 112.316 134.109 112.429 133.939C112.542 133.768 112.769 133.702 112.939 133.816C113.204 133.977 113.487 134.147 113.79 134.327C113.969 134.431 114.026 134.658 113.922 134.838C113.846 134.951 113.723 135.017 113.591 135.017ZM111.9 133.995C111.834 133.995 111.768 133.977 111.701 133.939C111.39 133.74 111.106 133.57 110.861 133.409C110.69 133.295 110.634 133.068 110.747 132.888C110.861 132.718 111.087 132.661 111.257 132.775C111.503 132.926 111.777 133.106 112.089 133.295C112.268 133.399 112.316 133.636 112.212 133.806C112.146 133.929 112.023 133.995 111.9 133.995ZM99.5979 133.882C99.4939 133.882 99.3994 133.844 99.3238 133.759C99.1821 133.607 99.1916 133.371 99.3522 133.229C99.5979 133.002 99.8435 132.775 100.07 132.557C100.221 132.415 100.458 132.415 100.599 132.567C100.741 132.718 100.741 132.955 100.59 133.097C100.354 133.324 100.108 133.551 99.8624 133.778C99.7774 133.854 99.6923 133.882 99.5979 133.882ZM110.228 132.926C110.152 132.926 110.086 132.907 110.02 132.86C109.812 132.718 109.594 132.576 109.377 132.425L109.198 132.302C109.028 132.188 108.98 131.952 109.103 131.781C109.217 131.611 109.453 131.564 109.623 131.687L109.802 131.81C110.02 131.961 110.228 132.103 110.435 132.245C110.605 132.358 110.653 132.595 110.539 132.765C110.464 132.869 110.35 132.926 110.228 132.926ZM101.025 132.51C100.93 132.51 100.836 132.472 100.76 132.406C100.609 132.264 100.609 132.027 100.751 131.876C100.996 131.62 101.214 131.384 101.412 131.166C101.544 131.015 101.78 130.996 101.941 131.128C102.102 131.261 102.111 131.497 101.979 131.658C101.78 131.885 101.544 132.141 101.289 132.396C101.223 132.472 101.119 132.51 101.025 132.51ZM108.593 131.81C108.527 131.81 108.451 131.791 108.385 131.743C108.111 131.564 107.837 131.384 107.563 131.223C107.383 131.119 107.327 130.882 107.431 130.712C107.535 130.532 107.761 130.475 107.941 130.58C108.224 130.75 108.508 130.93 108.791 131.119C108.961 131.232 109.009 131.46 108.895 131.639C108.829 131.753 108.716 131.81 108.593 131.81ZM102.338 131.024C102.243 131.024 102.149 130.986 102.083 130.92C101.932 130.778 101.932 130.542 102.073 130.39C102.338 130.116 102.631 129.889 102.943 129.718C103.122 129.624 103.349 129.69 103.453 129.87C103.547 130.05 103.481 130.277 103.302 130.381C103.056 130.513 102.829 130.693 102.612 130.911C102.527 130.986 102.432 131.024 102.338 131.024ZM106.892 130.807C106.835 130.807 106.779 130.797 106.722 130.769C106.42 130.617 106.127 130.485 105.853 130.39C105.664 130.324 105.56 130.106 105.626 129.908C105.692 129.709 105.91 129.614 106.108 129.681C106.41 129.794 106.722 129.927 107.053 130.097C107.242 130.192 107.308 130.419 107.223 130.598C107.157 130.731 107.024 130.807 106.892 130.807ZM105.031 130.154C105.012 130.154 104.993 130.154 104.974 130.154C104.662 130.106 104.369 130.097 104.095 130.135C103.888 130.163 103.708 130.012 103.68 129.813C103.651 129.605 103.793 129.416 104.001 129.397C104.341 129.349 104.71 129.359 105.097 129.425C105.305 129.454 105.437 129.652 105.409 129.851C105.371 130.021 105.21 130.154 105.031 130.154Z" fill="url(#paint31_linear_360_4768)"/>
<path d="M131.297 137.904C131.25 137.904 131.193 137.894 131.146 137.875C130.957 137.79 130.872 137.572 130.957 137.383C131.07 137.128 131.117 136.957 131.117 136.957C131.174 136.759 131.391 136.645 131.58 136.711C131.779 136.768 131.883 136.976 131.826 137.175C131.826 137.184 131.76 137.383 131.637 137.676C131.571 137.818 131.439 137.904 131.297 137.904Z" fill="url(#paint32_linear_360_4768)"/>
<path d="M102.404 119.007C102.404 123.322 96.3659 131.195 93.6352 134.544C92.9549 135.377 91.6888 135.377 91.0085 134.544C88.2779 131.204 82.2402 123.322 82.2402 119.007C82.2402 113.424 86.7567 108.901 92.3219 108.901C97.8871 108.901 102.404 113.424 102.404 119.007Z" fill="#FF6F00"/>
<path d="M94.4772 124.212C97.3496 123.019 98.7102 119.727 97.5197 116.85C96.3292 113.973 93.0411 112.611 90.1687 113.803C87.2963 114.995 85.9357 118.288 87.1262 121.165C88.3168 124.032 91.6049 125.404 94.4772 124.212Z" fill="white"/>
<g opacity="0.3">
<path d="M92.2649 130.39C92.9074 126.17 95.6853 124.817 95.2128 120.833C94.6648 116.235 90.6019 115.014 90.498 110.926C90.4791 110.264 90.5736 109.63 90.7436 109.024C85.9154 109.781 82.2305 113.964 82.2305 119.007C82.2305 123.322 88.2681 131.195 90.9988 134.544C91.3956 135.036 92.0003 135.235 92.5767 135.15C92.0853 133.295 92.0664 131.715 92.2649 130.39Z" fill="#FC903D"/>
</g>
<path d="M92.3117 141.518C93.4456 141.518 94.3715 140.591 94.3715 139.455C94.3715 138.31 93.4456 137.393 92.3117 137.393C91.1779 137.393 90.252 138.32 90.252 139.455C90.252 140.591 91.1779 141.518 92.3117 141.518Z" fill="url(#paint33_linear_360_4768)"/>
<path d="M136.758 126.019C136.758 128.28 133.593 132.415 132.157 134.166C131.798 134.601 131.136 134.601 130.777 134.166C129.341 132.415 126.176 128.28 126.176 126.019C126.176 123.095 128.547 120.72 131.467 120.72C134.396 120.72 136.758 123.095 136.758 126.019Z" fill="#D35400"/>
<path d="M134.387 126.492C134.652 124.883 133.556 123.36 131.949 123.105C130.343 122.849 128.822 123.937 128.567 125.546C128.302 127.154 129.398 128.678 131.004 128.933C132.611 129.198 134.132 128.11 134.387 126.492Z" fill="white"/>
<g opacity="0.3">
<path d="M131.448 131.989C131.788 129.775 133.243 129.066 132.998 126.974C132.705 124.562 130.579 123.918 130.522 121.78C130.513 121.43 130.56 121.098 130.645 120.786C128.113 121.184 126.176 123.369 126.176 126.019C126.176 128.28 129.341 132.415 130.777 134.166C130.985 134.421 131.306 134.525 131.599 134.478C131.354 133.513 131.344 132.69 131.448 131.989Z" fill="#FF6F00"/>
</g>
<path d="M131.468 137.828C132.063 137.828 132.554 137.345 132.554 136.749C132.554 136.153 132.072 135.67 131.468 135.67C130.873 135.67 130.391 136.153 130.391 136.749C130.391 137.345 130.873 137.828 131.468 137.828Z" fill="url(#paint34_linear_360_4768)"/>
<path d="M18.4914 39.6473C13.049 38.4834 6.32164 42.2778 3.15637 46.9711C-2.60727 55.5061 1.19106 70.2483 10.9703 73.9102C17.282 76.2663 25.4739 73.7872 29.0549 68.8763C32.3147 64.4101 29.9431 60.4359 34.006 56.3861C37.4169 52.9986 40.2798 54.276 43.1333 50.5762C45.2309 47.8605 46.7616 43.1105 44.6356 39.7987C42.8404 37.0073 38.9854 36.061 36.1414 36.3355C30.9635 36.818 29.8203 41.218 24.6613 41.341C21.8268 41.3978 21.3827 40.2623 18.4914 39.6473Z" fill="#2E3138"/>
<path d="M41.1016 49.2133C42.6889 48.0116 47.6778 51.0584 50.8242 54.796C54.528 59.1771 53.9233 62.4132 57.013 67.7215C58.5531 70.3615 61.2743 73.9761 66.3671 77.3825C65.9041 78.3004 65.4411 79.2182 64.9687 80.1266C62.3609 80.0509 57.287 79.4926 52.8178 75.9537C49.7187 73.4935 48.2825 70.4845 45.533 64.5611C42.7929 58.6188 39.1268 50.7178 41.1016 49.2133Z" fill="#803068"/>
<path d="M74.3408 130.797L72.5928 127.088C72.3472 126.558 71.9598 126.113 71.4779 125.782L70.6181 125.205C70.6181 125.205 68.5488 125.148 68.2276 126.454C68.1614 128.11 71.3645 131.791 73.3865 133.257C73.7266 133.503 74.1991 133.825 74.492 133.655C74.9928 133.371 74.6432 131.857 74.3408 130.797Z" fill="url(#paint35_linear_360_4768)"/>
<path d="M71.0631 123.189C70.7891 124.779 71.1387 125.612 71.5072 126.075C71.7718 126.407 73.9071 129.936 73.0284 130.504C72.6316 130.759 69.9104 127.381 69.6458 126.861C69.4096 126.397 69.249 126.501 69.2395 125.224C69.2301 124.382 69.06 123.71 68.9277 123.284C69.6458 123.256 70.3545 123.218 71.0631 123.189Z" fill="url(#paint36_linear_360_4768)"/>
<path d="M74.1516 110.567C74.1516 110.567 76.0792 112.876 75.7674 115.402C75.4555 117.929 72.073 114.239 71.6005 112.98C71.1281 111.731 70.5801 109.952 70.5801 109.952C70.5801 109.952 72.9517 108.476 74.1516 110.567Z" fill="url(#paint37_linear_360_4768)"/>
<path d="M73.4252 106.962C73.4252 106.962 72.9056 109.649 73.8977 111.069C74.3984 111.778 75.0693 112.374 74.8709 112.952C74.7386 113.339 74.2378 113.614 73.8126 113.567C73.0001 113.481 72.5465 112.232 72.2253 111.352C71.7528 110.047 71.4883 107.265 71.4883 107.265L73.4252 106.962Z" fill="url(#paint38_linear_360_4768)"/>
<path d="M71.8849 109.223C72.4802 109.006 73.0754 108.788 73.6707 108.571C74.5967 106.451 75.7305 102.969 75.3526 98.7392C74.3793 87.8576 64.3355 82.095 63.2206 81.48C60.4805 82.852 57.712 84.7918 57.6081 87.2425C57.4853 90.3178 61.6616 91.9358 65.5827 96.4304C67.9354 99.1272 70.4487 103.139 71.8849 109.223Z" fill="#803068"/>
<path d="M71.2415 124.429C73.2068 116.755 72.706 110.491 72.1391 106.877C71.2793 101.426 69.5407 90.3272 62.1425 86.1922C60.5268 85.2932 58.2213 84.4795 55.4057 81.972C53.053 79.8713 51.5601 77.6666 50.6625 76.1148C40.7698 73.2099 31.6519 74.3832 27.6174 79.701C27.1544 80.3161 25.9922 81.6503 25.7655 83.6089C25.2552 88.0373 29.6016 93.374 34.4771 94.4811C40.6753 95.9005 44.2752 89.5229 49.7649 91.6424C51.305 92.2386 52.5994 93.7052 55.2072 96.648C58.5237 100.386 60.3851 103.839 61.0843 105.221C63.1818 109.337 64.7787 112.365 65.0054 116.301C65.0621 117.219 65.0905 119.074 66.1676 121.07C66.9896 122.603 68.1046 123.625 68.936 124.259C69.7014 124.316 70.4761 124.373 71.2415 124.429Z" fill="#803068"/>
<path opacity="0.3" d="M25.7655 83.6086C25.9922 81.6404 27.1544 80.3157 27.6174 79.7007C31.6425 74.3923 40.7698 73.2095 50.6625 76.1145C51.5601 77.6663 53.053 79.871 55.4057 81.9716C58.2213 84.4791 60.5268 85.2929 62.1425 86.1918C66.6589 88.7182 69.0683 93.8373 70.4478 98.682C68.3975 95.4932 66.6306 94.6416 65.27 94.6322C63.3236 94.6132 62.4543 96.2786 60.1205 96.0515C57.6355 95.8055 57.0686 93.7522 55.0466 93.5156C54.4419 93.4494 53.7049 93.5345 52.8073 94.0171C51.6168 92.7681 50.7286 92.03 49.746 91.6515C44.2563 89.532 40.6564 95.9001 34.4582 94.4902C29.6016 93.3737 25.2552 88.0369 25.7655 83.6086Z" fill="#2E3138"/>
<path d="M66.1113 89.6268C64.9963 89.57 63.2673 89.5322 61.1886 89.7403C51.3148 90.715 48.5936 95.607 40.4395 96.7992C38.512 97.0831 29.9232 98.3416 26.2005 93.3644C23.5265 89.7971 23.9328 83.6372 26.8524 81.2243C28.0902 80.2024 29.3091 80.2307 37.2364 80.297C40.2222 80.3254 43.1985 80.3348 46.1842 80.3727C58.8075 80.5335 61.2264 79.6535 63.5224 81.7447C64.5995 82.7288 66.1585 84.82 66.1113 89.6268Z" fill="#803068"/>
<path d="M39.4675 49.0618C39.4675 49.0618 29.4993 46.1474 25.1151 51.1246C24.312 52.0425 23.6695 53.2347 23.2065 55.5624C20.8444 67.3808 29.7827 74.4776 26.2584 80.7132C24.86 83.1923 22.3939 83.9304 20.6459 88.3871C20.353 89.1441 19.2759 91.8693 20.2586 92.7209C21.1278 93.4778 22.5451 91.8787 25.0773 92.191C27.7607 92.5127 28.3843 94.5755 30.1796 94.2821C31.3512 94.0834 31.8614 93.0804 33.5905 90.5729C36.0944 86.9489 37.351 85.1321 38.2486 84.4981C41.7919 81.9906 44.532 85.2646 48.5759 82.776C50.0405 81.8771 55.464 74.8844 53.8672 76.8053C50.0688 72.0647 49.1901 68.1473 49.0956 65.4316C48.9917 62.451 49.8515 61.0884 49.0956 57.5684C49.0956 57.5684 48.2452 53.6321 45.1934 50.2541C44.7587 49.762 44.2391 49.2511 39.4675 49.0618Z" fill="#00A3C4"/>
<path d="M36.2634 42.5898C36.3957 43.2238 37.0854 46.6113 35.6965 47.4818C35.3941 47.6711 34.8178 47.7752 33.6651 47.9928C32.9092 48.1347 32.2761 48.2199 31.832 48.2767C33.854 51.0113 36.991 52.4212 39.9106 51.8629C41.9609 51.4655 43.3121 50.207 43.9073 49.5636C43.3121 49.0999 42.4333 48.5322 41.2712 48.1064C40.5153 47.832 39.8161 47.69 39.2492 47.6049C39.1452 46.952 39.0413 46.2991 38.9468 45.6367C38.0492 44.6242 37.1516 43.6118 36.2634 42.5898Z" fill="url(#paint39_linear_360_4768)"/>
<path d="M36.1979 44.2837C36.1979 44.2837 36.4435 46.7628 38.8624 47.2075C41.0166 47.5955 42.6418 42.3723 41.5363 41.0287C41.1678 40.5745 40.2608 40.1487 39.4671 40.1676C38.9096 40.1865 37.0388 40.8962 36.7742 42.7792C36.4057 42.3818 35.9333 42.2682 35.7065 42.4386C35.4136 42.6467 35.5743 43.2523 35.6026 43.3942C35.7349 43.8579 36.0467 44.1512 36.1979 44.2837Z" fill="url(#paint40_linear_360_4768)"/>
<path opacity="0.3" d="M53.8766 76.7958C53.4231 76.2281 53.0073 75.6698 52.6294 75.121C50.5318 74.4208 48.7271 74.1559 47.2626 74.0896C43.965 73.9288 42.1604 74.7047 39.921 73.3516C37.3699 71.8187 37.8235 69.6897 35.3668 68.4974C32.7779 67.2484 30.9543 68.6583 28.4599 68.2041C26.9576 67.9297 25.1246 66.9172 23.2632 63.9839C24.6899 71.0522 28.8568 76.1145 26.2584 80.7038C24.86 83.1829 22.3939 83.9209 20.6459 88.3777C20.353 89.1347 19.2759 91.8598 20.2586 92.7114C21.1278 93.4684 22.5451 91.8693 25.0773 92.1815C27.7607 92.5032 28.3843 94.566 30.1796 94.2727C31.3512 94.074 31.8614 93.071 33.5905 90.5635C36.0944 86.9394 37.351 85.1227 38.2486 84.4887C41.7919 81.9812 44.532 85.2551 48.5759 82.7665C50.0499 81.8676 55.464 74.8844 53.8766 76.7958Z" fill="#00A3C4"/>
<path d="M56.8718 78.0166L34.3275 79.1142C34.0157 79.1331 33.7322 79.294 33.5716 79.559L32.948 80.562C32.6362 81.0635 33.0141 81.7069 33.6 81.6785L57.486 80.7701L56.8718 78.0166Z" fill="url(#paint41_linear_360_4768)"/>
<path d="M80.3311 65.4413L57.0403 65.8955C56.3506 65.905 55.7175 66.2835 55.3774 66.889L47.2988 81.0919L71.9029 80.1079C72.5738 80.0795 73.1974 79.7104 73.5375 79.1332L81.0114 66.6241C81.3326 66.1037 80.9452 65.4224 80.3311 65.4413Z" fill="#0A0B0D"/>
<path opacity="0.3" d="M55.3679 66.8795C55.7081 66.2833 56.3411 65.9048 57.0309 65.8859L57.5411 65.8765C57.6167 66.6334 57.8434 67.3147 58.3064 67.873C59.7426 69.6141 62.1331 68.5354 63.9094 70.3805C65.8653 72.396 64.0606 74.7994 65.8086 76.6824C67.6511 78.66 70.6179 77.0514 74.0383 78.3194L73.547 79.1426C73.1974 79.7198 72.5832 80.0888 71.9124 80.1172L47.2988 81.0918L55.3679 66.8795Z" fill="url(#paint42_linear_360_4768)"/>
<path d="M36.1594 77.2598C36.4523 76.4839 36.7452 75.708 37.0382 74.9321C33.7973 74.0427 29.3092 72.7274 24.7078 71.081C23.9897 70.8255 23.1298 70.5038 22.8464 69.7468C22.0622 67.6178 27.0604 65.413 29.0069 60.7576C30.8021 56.4522 30.9155 50.0179 28.8273 49.3082C24.481 47.8416 7.98376 67.5137 13.4923 75.6039C16.6009 80.1742 26.1912 80.9028 36.1594 77.2598Z" fill="#803068"/>
<path d="M37.0478 74.932C39.0887 73.8533 41.5265 74.9603 41.6776 75.036C42.1217 75.2442 42.7737 75.6227 43.4351 76.2945C43.5107 76.3986 44.3894 77.6192 44.0681 78.0167C43.813 78.3289 42.8115 78.0734 41.6115 77.3259C41.1107 77.2597 40.3548 77.1934 39.4572 77.2691C37.8132 77.4205 37.0573 77.941 36.4526 77.4962C36.0179 77.1651 35.8668 76.4743 36.0274 75.9539C36.1975 75.3861 36.6982 75.1117 37.0478 74.932Z" fill="url(#paint43_linear_360_4768)"/>
</g>
<defs>
<linearGradient id="paint0_linear_360_4768" x1="134.829" y1="40.1012" x2="55.3598" y2="40.1012" gradientUnits="userSpaceOnUse">
<stop stop-color="#FFC444"/>
<stop offset="0.3138" stop-color="#FBA94A"/>
<stop offset="0.9964" stop-color="#F36F56"/>
</linearGradient>
<linearGradient id="paint1_linear_360_4768" x1="134.309" y1="70.0527" x2="134.309" y2="-0.209397" gradientUnits="userSpaceOnUse">
<stop stop-color="#AA80F9"/>
<stop offset="0.9964" stop-color="#6165D7"/>
</linearGradient>
<linearGradient id="paint2_linear_360_4768" x1="129.595" y1="70.0527" x2="129.595" y2="-0.209397" gradientUnits="userSpaceOnUse">
<stop stop-color="#AA80F9"/>
<stop offset="0.9964" stop-color="#6165D7"/>
</linearGradient>
<linearGradient id="paint3_linear_360_4768" x1="124.881" y1="70.0527" x2="124.881" y2="-0.209397" gradientUnits="userSpaceOnUse">
<stop stop-color="#AA80F9"/>
<stop offset="0.9964" stop-color="#6165D7"/>
</linearGradient>
<linearGradient id="paint4_linear_360_4768" x1="120.166" y1="70.0527" x2="120.166" y2="-0.209397" gradientUnits="userSpaceOnUse">
<stop stop-color="#AA80F9"/>
<stop offset="0.9964" stop-color="#6165D7"/>
</linearGradient>
<linearGradient id="paint5_linear_360_4768" x1="115.452" y1="70.0527" x2="115.452" y2="-0.209397" gradientUnits="userSpaceOnUse">
<stop stop-color="#AA80F9"/>
<stop offset="0.9964" stop-color="#6165D7"/>
</linearGradient>
<linearGradient id="paint6_linear_360_4768" x1="110.738" y1="70.0527" x2="110.738" y2="-0.209397" gradientUnits="userSpaceOnUse">
<stop stop-color="#AA80F9"/>
<stop offset="0.9964" stop-color="#6165D7"/>
</linearGradient>
<linearGradient id="paint7_linear_360_4768" x1="106.023" y1="70.0527" x2="106.023" y2="-0.209397" gradientUnits="userSpaceOnUse">
<stop stop-color="#AA80F9"/>
<stop offset="0.9964" stop-color="#6165D7"/>
</linearGradient>
<linearGradient id="paint8_linear_360_4768" x1="101.309" y1="70.0527" x2="101.309" y2="-0.209397" gradientUnits="userSpaceOnUse">
<stop stop-color="#AA80F9"/>
<stop offset="0.9964" stop-color="#6165D7"/>
</linearGradient>
<linearGradient id="paint9_linear_360_4768" x1="164.865" y1="63.1566" x2="154.436" y2="63.1566" gradientUnits="userSpaceOnUse">
<stop stop-color="#311944"/>
<stop offset="1" stop-color="#6B3976"/>
</linearGradient>
<linearGradient id="paint10_linear_360_4768" x1="120.137" y1="162.913" x2="219.327" y2="162.913" gradientUnits="userSpaceOnUse">
<stop stop-color="#444B8C"/>
<stop offset="0.9964" stop-color="#26264F"/>
</linearGradient>
<linearGradient id="paint11_linear_360_4768" x1="177.029" y1="166.449" x2="195.78" y2="166.449" gradientUnits="userSpaceOnUse">
<stop stop-color="#444B8C"/>
<stop offset="0.9964" stop-color="#26264F"/>
</linearGradient>
<linearGradient id="paint12_linear_360_4768" x1="124.993" y1="159.652" x2="130.319" y2="159.652" gradientUnits="userSpaceOnUse">
<stop stop-color="#311944"/>
<stop offset="1" stop-color="#6B3976"/>
</linearGradient>
<linearGradient id="paint13_linear_360_4768" x1="123.871" y1="159.653" x2="129.197" y2="159.653" gradientUnits="userSpaceOnUse">
<stop stop-color="#311944"/>
<stop offset="1" stop-color="#6B3976"/>
</linearGradient>
<linearGradient id="paint14_linear_360_4768" x1="129.058" y1="160.013" x2="124.899" y2="159.454" gradientUnits="userSpaceOnUse">
<stop offset="0.0054" stop-color="#D8DEE8"/>
<stop offset="1" stop-color="#F4F7FA"/>
</linearGradient>
<linearGradient id="paint15_linear_360_4768" x1="131.032" y1="160.592" x2="136.866" y2="160.592" gradientUnits="userSpaceOnUse">
<stop stop-color="#311944"/>
<stop offset="1" stop-color="#6B3976"/>
</linearGradient>
<linearGradient id="paint16_linear_360_4768" x1="129.802" y1="160.592" x2="135.637" y2="160.592" gradientUnits="userSpaceOnUse">
<stop stop-color="#311944"/>
<stop offset="1" stop-color="#6B3976"/>
</linearGradient>
<linearGradient id="paint17_linear_360_4768" x1="135.485" y1="160.987" x2="130.928" y2="160.374" gradientUnits="userSpaceOnUse">
<stop offset="0.0054" stop-color="#D8DEE8"/>
<stop offset="1" stop-color="#F4F7FA"/>
</linearGradient>
<linearGradient id="paint18_linear_360_4768" x1="137.48" y1="161.045" x2="143.851" y2="161.045" gradientUnits="userSpaceOnUse">
<stop stop-color="#311944"/>
<stop offset="1" stop-color="#6B3976"/>
</linearGradient>
<linearGradient id="paint19_linear_360_4768" x1="136.138" y1="161.045" x2="142.509" y2="161.045" gradientUnits="userSpaceOnUse">
<stop stop-color="#311944"/>
<stop offset="1" stop-color="#6B3976"/>
</linearGradient>
<linearGradient id="paint20_linear_360_4768" x1="142.345" y1="161.476" x2="137.37" y2="160.807" gradientUnits="userSpaceOnUse">
<stop offset="0.0054" stop-color="#D8DEE8"/>
<stop offset="1" stop-color="#F4F7FA"/>
</linearGradient>
<linearGradient id="paint21_linear_360_4768" x1="167.569" y1="165.349" x2="175.703" y2="165.349" gradientUnits="userSpaceOnUse">
<stop stop-color="#311944"/>
<stop offset="1" stop-color="#6B3976"/>
</linearGradient>
<linearGradient id="paint22_linear_360_4768" x1="173.779" y1="165.9" x2="167.428" y2="165.046" gradientUnits="userSpaceOnUse">
<stop offset="0.0054" stop-color="#D8DEE8"/>
<stop offset="1" stop-color="#F4F7FA"/>
</linearGradient>
<linearGradient id="paint23_linear_360_4768" x1="193.504" y1="168.348" x2="203.894" y2="168.348" gradientUnits="userSpaceOnUse">
<stop stop-color="#311944"/>
<stop offset="1" stop-color="#6B3976"/>
</linearGradient>
<linearGradient id="paint24_linear_360_4768" x1="201.435" y1="169.051" x2="193.32" y2="167.961" gradientUnits="userSpaceOnUse">
<stop offset="0.0054" stop-color="#D8DEE8"/>
<stop offset="1" stop-color="#F4F7FA"/>
</linearGradient>
<linearGradient id="paint25_linear_360_4768" x1="114.037" y1="134.262" x2="181.446" y2="134.262" gradientUnits="userSpaceOnUse">
<stop stop-color="#FFC444"/>
<stop offset="0.9964" stop-color="#F36F56"/>
</linearGradient>
<linearGradient id="paint26_linear_360_4768" x1="219.423" y1="159.114" x2="245.106" y2="159.114" gradientUnits="userSpaceOnUse">
<stop stop-color="#444B8C"/>
<stop offset="0.9964" stop-color="#26264F"/>
</linearGradient>
<linearGradient id="paint27_linear_360_4768" x1="209.209" y1="134.328" x2="246.804" y2="134.328" gradientUnits="userSpaceOnUse">
<stop stop-color="#444B8C"/>
<stop offset="0.9964" stop-color="#26264F"/>
</linearGradient>
<linearGradient id="paint28_linear_360_4768" x1="2.31055" y1="153.886" x2="155.831" y2="153.886" gradientUnits="userSpaceOnUse">
<stop stop-color="#444B8C"/>
<stop offset="0.9964" stop-color="#26264F"/>
</linearGradient>
<linearGradient id="paint29_linear_360_4768" x1="2.31086" y1="213.001" x2="233.584" y2="213.001" gradientUnits="userSpaceOnUse">
<stop offset="0.494" stop-color="#EBEFF2"/>
<stop offset="1" stop-color="white"/>
</linearGradient>
<linearGradient id="paint30_linear_360_4768" x1="91.9403" y1="139.303" x2="131.846" y2="139.303" gradientUnits="userSpaceOnUse">
<stop stop-color="#AA80F9"/>
<stop offset="0.9964" stop-color="#6165D7"/>
</linearGradient>
<linearGradient id="paint31_linear_360_4768" x1="91.9477" y1="135.384" x2="131.621" y2="135.384" gradientUnits="userSpaceOnUse">
<stop stop-color="#AA80F9"/>
<stop offset="0.9964" stop-color="#6165D7"/>
</linearGradient>
<linearGradient id="paint32_linear_360_4768" x1="91.9241" y1="137.296" x2="131.846" y2="137.296" gradientUnits="userSpaceOnUse">
<stop stop-color="#AA80F9"/>
<stop offset="0.9964" stop-color="#6165D7"/>
</linearGradient>
<linearGradient id="paint33_linear_360_4768" x1="94.9566" y1="135.434" x2="88.3466" y2="145.452" gradientUnits="userSpaceOnUse">
<stop stop-color="#AA80F9"/>
<stop offset="0.9964" stop-color="#6165D7"/>
</linearGradient>
<linearGradient id="paint34_linear_360_4768" x1="132.86" y1="134.639" x2="129.392" y2="139.894" gradientUnits="userSpaceOnUse">
<stop stop-color="#FF9085"/>
<stop offset="1" stop-color="#FB6FBB"/>
</linearGradient>
<linearGradient id="paint35_linear_360_4768" x1="74.6201" y1="101.332" x2="71.7795" y2="127.05" gradientUnits="userSpaceOnUse">
<stop stop-color="#444B8C"/>
<stop offset="0.9964" stop-color="#26264F"/>
</linearGradient>
<linearGradient id="paint36_linear_360_4768" x1="82.2338" y1="107.885" x2="69.6492" y2="129.144" gradientUnits="userSpaceOnUse">
<stop stop-color="#311944"/>
<stop offset="1" stop-color="#A03976"/>
</linearGradient>
<linearGradient id="paint37_linear_360_4768" x1="74.4303" y1="101.311" x2="71.5897" y2="127.03" gradientUnits="userSpaceOnUse">
<stop stop-color="#444B8C"/>
<stop offset="0.9964" stop-color="#26264F"/>
</linearGradient>
<linearGradient id="paint38_linear_360_4768" x1="73.3255" y1="110.476" x2="77.3958" y2="121.063" gradientUnits="userSpaceOnUse">
<stop stop-color="#311944"/>
<stop offset="1" stop-color="#A03976"/>
</linearGradient>
<linearGradient id="paint39_linear_360_4768" x1="35.8291" y1="38.0741" x2="39.0582" y2="55.1774" gradientUnits="userSpaceOnUse">
<stop stop-color="#311944"/>
<stop offset="1" stop-color="#A03976"/>
</linearGradient>
<linearGradient id="paint40_linear_360_4768" x1="29.7917" y1="28.036" x2="41.633" y2="47.4276" gradientUnits="userSpaceOnUse">
<stop stop-color="#311944"/>
<stop offset="1" stop-color="#A03976"/>
</linearGradient>
<linearGradient id="paint41_linear_360_4768" x1="57.4789" y1="79.8476" x2="32.8327" y2="79.8476" gradientUnits="userSpaceOnUse">
<stop stop-color="#40447E"/>
<stop offset="0.9964" stop-color="#3C3B6B"/>
</linearGradient>
<linearGradient id="paint42_linear_360_4768" x1="73.2385" y1="64.2781" x2="57.0566" y2="80.3073" gradientUnits="userSpaceOnUse">
<stop stop-color="#40447E"/>
<stop offset="0.9964" stop-color="#3C3B6B"/>
</linearGradient>
<linearGradient id="paint43_linear_360_4768" x1="42.0435" y1="74.9806" x2="33.8395" y2="82.7007" gradientUnits="userSpaceOnUse">
<stop stop-color="#311944"/>
<stop offset="1" stop-color="#A03976"/>
</linearGradient>
<clipPath id="clip0_360_4768">
<rect width="250" height="230" fill="white"/>
</clipPath>
</defs>
</svg>
