<svg width="250" height="204" viewBox="0 0 250 204" fill="none" xmlns="http://www.w3.org/2000/svg">
<g opacity="0.5" clip-path="url(#clip0_360_5250)">
<g opacity="0.5">
<path d="M45.6152 36.7978L45.6251 36.019C69.7756 36.3542 90.6271 58.3955 90.8345 58.6222L90.2616 59.1545C90.0542 58.9278 69.4299 37.1231 45.6152 36.7978Z" fill="#BEB8F2"/>
<path d="M16.318 64.7044C13.9869 62.5653 9.47287 58.4054 4.16864 54.561C4.14889 54.8666 4.12913 55.1722 4.10938 55.4778C9.1963 59.2138 13.5325 63.1962 15.7945 65.2761C16.7921 66.1928 17.207 66.5773 17.3946 66.6857L17.7897 66.0154C17.6613 65.9365 17.039 65.3648 16.318 64.7044Z" fill="#BEB8F2"/>
</g>
<g opacity="0.5">
<path d="M193.758 40.2086L193.787 40.7508C215.666 38.661 246.751 60.3671 247.057 60.584L247.343 60.1207C247.037 59.9137 215.814 38.0991 193.758 40.2086Z" fill="#FCFDFE"/>
<path d="M132.231 40.317L132.201 40.869C147.175 41.3126 167.177 18.5123 167.385 18.2856L167.019 17.9209C166.812 18.1378 146.968 40.7508 132.231 40.317Z" fill="#FCFDFE"/>
<path d="M123.775 39.272L123.656 39.8043C133.178 41.9433 144.972 50.3518 156.845 63.4819C157.447 64.1423 157.447 64.1423 157.536 64.162L157.665 63.6297L157.605 63.8959L157.753 63.6692C157.714 63.6297 157.487 63.3833 157.22 63.0876C145.278 49.8983 133.395 41.4308 123.775 39.272Z" fill="#FCFDFE"/>
<path d="M96.2363 34.0968L96.266 34.639C107.032 33.6532 116.327 19.4388 116.416 19.2909L116.001 18.9854C115.912 19.1332 106.756 33.1407 96.2363 34.0968Z" fill="#FCFDFE"/>
<path d="M90.5176 33.6137C97.6985 38.6706 103.694 46.1425 108.87 56.4534L109.324 56.1873C104.109 45.7876 98.0541 38.2566 90.804 33.1504L90.5176 33.6137Z" fill="#FCFDFE"/>
<path d="M224.072 34.3433L224.28 34.8361C234.75 29.5722 242.928 6.41709 243.264 5.43134L242.79 5.25391C242.701 5.49049 234.335 29.1779 224.072 34.3433Z" fill="#FCFDFE"/>
</g>
<g opacity="0.5">
<path d="M175.592 12.9331C160.292 20.4938 144.182 26.2702 127.686 30.0062C126.58 30.5878 125.464 31.1497 124.338 31.7017C142.641 27.8869 160.509 21.5879 177.37 13.1007C176.778 13.0218 176.185 12.9725 175.592 12.9331Z" fill="#FCFDFE"/>
<path d="M123.41 32.145C122.965 32.3619 122.521 32.5689 122.066 32.7858C146.533 38.7397 161.28 64.7535 161.438 65.0196L162.219 64.5268C162.07 64.2606 147.59 38.7101 123.41 32.145Z" fill="#FCFDFE"/>
<path d="M187.959 8.88153C188.216 9.15754 188.492 9.47298 188.789 9.80814C207.842 9.55184 228.99 24.7225 229.227 24.89L229.741 24.1014C229.504 23.9339 207.536 8.18166 187.959 8.88153Z" fill="#FCFDFE"/>
</g>
<path d="M239.55 165.428L15.5277 185.606C12.1793 185.882 7.38867 181.466 7.38867 178.114V8.85199C7.38867 5.71732 9.90744 3.16424 13.0485 3.12481L238.997 1.384e-06C242.197 -0.0394284 248.252 2.30665 248.252 5.51032L244.815 159.72C244.824 162.697 242.533 165.181 239.55 165.428Z" fill="url(#paint0_linear_360_5250)"/>
<path d="M244.103 166.985L18.1446 185.389C14.7961 185.665 11.9316 183.023 11.9316 179.682V10.4095C11.9316 7.27481 14.4504 4.72173 17.5915 4.6823L243.55 1.56734C246.75 1.52791 249.367 4.10071 249.367 7.29452V161.278C249.367 164.265 247.076 166.749 244.103 166.985Z" fill="#3D4A26"/>
<path d="M38.107 178.528L229.494 163.318C232.546 163.072 234.907 160.529 234.907 157.473V11.3756C234.907 8.10295 232.22 5.46116 228.941 5.51044L37.5539 8.43811C34.3437 8.48739 31.7656 11.0996 31.7656 14.3033V172.673C31.7656 176.094 34.6894 178.795 38.107 178.528Z" fill="url(#paint1_linear_360_5250)"/>
<path d="M242.898 89.2987C241.791 89.2987 240.893 88.4017 240.893 87.2977V72.4918C240.893 71.3878 241.791 70.4907 242.898 70.4907C244.004 70.4907 244.903 71.3878 244.903 72.4918V87.2977C244.903 88.4116 244.004 89.2987 242.898 89.2987Z" fill="white"/>
<path opacity="0.9" d="M201.126 130.759C183.692 115.589 169.725 121.523 151.284 106.106C128.397 86.9724 139.796 69.3275 119.646 52.4713C94.4385 31.4059 63.996 48.4987 45.0904 27.3841C40.1418 21.8639 37.3859 15.2791 35.9438 8.69434C33.5238 9.42379 31.7656 11.6614 31.7656 14.3032V172.673C31.7656 176.094 34.6894 178.795 38.107 178.519L221.374 163.949C218.026 152.613 212.06 140.281 201.126 130.759Z" fill="white"/>
<g opacity="0.3">
<path d="M208.238 82.7432L59.3448 88.3422C56.8161 88.4408 54.7715 86.6172 54.7715 84.2711V74.3249C54.7715 71.9986 56.8161 70.0468 59.325 69.9778L207.646 65.7095C209.809 65.6504 211.626 67.336 211.706 69.4948L212.031 78.6819C212.11 80.8407 210.412 82.6643 208.238 82.7432Z" fill="#97A6B7"/>
<path d="M65.3496 91.8615L78.8522 141.119C79.7115 144.254 82.7439 146.304 86.2011 146.078L186.478 139.463C189.599 139.256 192.246 136.959 192.908 133.904L203.161 86.4399L65.3496 91.8615ZM103.595 136.871C103.615 138.852 101.956 140.567 99.8814 140.705L96.2959 140.932C94.2117 141.06 92.5029 139.552 92.4832 137.561L92.1572 99.0673C92.1374 97.1057 93.8067 95.4497 95.8711 95.3708L99.427 95.2229C101.482 95.1342 103.161 96.6424 103.181 98.5942L103.595 136.871ZM123.37 135.648C123.4 137.61 121.78 139.305 119.745 139.443L116.229 139.67C114.184 139.798 112.505 138.31 112.475 136.329L111.991 98.2097C111.962 96.2678 113.591 94.6315 115.616 94.5428L119.103 94.3949C121.118 94.3062 122.778 95.8045 122.797 97.7366L123.37 135.648ZM142.77 134.446C142.809 136.388 141.219 138.073 139.224 138.201L135.766 138.418C133.761 138.546 132.102 137.068 132.072 135.106L131.43 97.362C131.401 95.4398 132.981 93.8232 134.976 93.7345L138.394 93.5965C140.369 93.5176 141.999 94.9962 142.039 96.9086L142.77 134.446ZM161.804 133.263C161.853 135.185 160.302 136.851 158.346 136.979L154.958 137.196C152.993 137.324 151.353 135.855 151.314 133.913L150.514 96.534C150.474 94.6315 152.025 93.0247 153.971 92.9459L157.329 92.8079C159.265 92.729 160.875 94.1978 160.924 96.0805L161.804 133.263ZM180.472 132.1C180.521 134.002 179.01 135.648 177.094 135.776L173.765 135.984C171.829 136.112 170.229 134.653 170.18 132.74L169.231 95.7257C169.182 93.8429 170.703 92.2558 172.61 92.177L175.899 92.039C177.805 91.9601 179.386 93.4092 179.435 95.2821L180.472 132.1Z" fill="#97A6B7"/>
<path d="M126.038 21.3119C125.287 20.5134 123.766 20.6317 122.64 21.578L75.7512 60.8501C74.5462 61.8556 74.2104 63.3342 74.9907 64.1523C75.771 64.9705 77.381 64.8128 78.5861 63.7975L125.356 24.4564C126.482 23.5199 126.788 22.1103 126.038 21.3119Z" fill="#97A6B7"/>
<path d="M144.528 21.1245C145.239 20.326 146.75 20.4345 147.896 21.3709L193.412 58.3265C194.528 59.2334 194.884 60.6135 194.202 61.4218C193.521 62.2301 192.069 62.1512 190.952 61.2443L145.308 24.2592C144.163 23.3326 143.807 21.923 144.528 21.1245Z" fill="#97A6B7"/>
</g>
<path d="M176.205 86.2035C174.19 107.939 154.9 125.101 133.05 124.549C111.132 123.987 94.943 105.81 96.9679 83.9461C98.9928 62.0823 118.452 44.9106 140.37 45.6105C162.209 46.3005 178.22 64.4678 176.205 86.2035Z" fill="#C2B280"/>
<path d="M137.1 110.048C123.301 110.048 112.07 98.8405 112.07 85.0696C112.07 71.2987 123.301 60.0908 137.1 60.0908C150.899 60.0908 162.13 71.2987 162.13 85.0696C162.13 98.8503 150.899 110.048 137.1 110.048ZM137.1 69.2878C128.378 69.2878 121.276 76.3753 121.276 85.0795C121.276 93.7836 128.378 100.871 137.1 100.871C145.822 100.871 152.924 93.7836 152.924 85.0795C152.924 76.3655 145.822 69.2878 137.1 69.2878Z" fill="white"/>
<path d="M125.524 102.33C124.348 102.33 123.173 101.886 122.274 100.999C120.467 99.2052 120.467 96.2972 122.254 94.5032L147.245 69.416C149.042 67.612 151.956 67.612 153.754 69.3962C155.561 71.1804 155.561 74.0982 153.774 75.8923L128.783 100.98C127.894 101.877 126.709 102.33 125.524 102.33Z" fill="white"/>
<g opacity="0.2">
<path d="M133.317 114.081C130.453 109.014 136.251 104.844 136.488 94.7304C136.853 79.3823 123.815 73.8129 125.554 60.87C126.038 57.272 127.835 51.8899 134.562 45.8374C115.113 48.0159 98.8151 64.0244 96.968 83.9365C94.9431 105.8 111.122 123.987 133.051 124.539C140.528 124.727 147.699 122.844 153.981 119.413C145.802 119.975 136.35 119.443 133.317 114.081Z" fill="url(#paint2_linear_360_5250)"/>
</g>
<mask id="mask0_360_5250" style="mask-type:luminance" maskUnits="userSpaceOnUse" x="211" y="111" width="47" height="67">
<path d="M217.64 177.917C215.645 178.321 210.736 171.786 212.119 166.394C213.63 160.47 221.394 161.209 223.834 154.742C225.829 149.469 221.433 147.113 222.856 139.907C223.824 135.018 227.192 129.961 231.825 127.378C237.879 124.007 241.929 127.181 245.86 123.642C250.493 119.482 248.192 112.099 249.989 111.764C252.587 111.271 261.101 126.146 256.212 133.312C252.103 139.335 242.087 134.682 237.03 141.395C232.773 147.044 238.275 152.426 233.543 159.09C229.651 164.57 223.804 163.171 220.376 169.568C218.036 173.945 219.073 177.631 217.64 177.917Z" fill="white"/>
</mask>
<g mask="url(#mask0_360_5250)">
<path opacity="0.5" d="M227.37 158.262L227.34 158.232C227.192 158.084 212.632 143.663 211.971 143.209L212.069 143.071C212.731 143.525 226.501 157.167 227.429 158.084L249.979 155.295L249.999 155.462L227.37 158.262Z" fill="white"/>
</g>
<mask id="mask1_360_5250" style="mask-type:luminance" maskUnits="userSpaceOnUse" x="203" y="153" width="15" height="30">
<path d="M217.69 182.57C216.445 182.126 214.668 181.357 212.791 179.987C210.815 178.548 208.929 177.178 208.208 174.871C207.378 172.21 209.037 171.372 208.198 168.937C207.25 166.167 204.731 166.443 203.753 163.565C203.081 161.613 203.654 159.76 204.158 158.113C204.76 156.142 206.143 153.323 207.042 153.5C208.109 153.717 206.677 157.798 209.106 160.607C210.944 162.737 213.077 161.918 214.895 164.403C215.142 164.738 216.515 166.611 216.218 168.858C215.853 171.608 213.66 172.338 213.137 174.605C212.761 176.231 213.374 178.735 217.69 182.57Z" fill="white"/>
</mask>
<g mask="url(#mask1_360_5250)">
<path opacity="0.3" d="M207.309 163.988C206.568 163.752 205.768 163.348 205.017 162.687C202.321 160.272 202.933 156.536 202.963 156.369L203.131 156.398C203.101 156.556 202.499 160.203 205.126 162.559C206.489 163.772 208.06 164.077 209.008 164.146C208.593 163.712 207.625 162.5 207.832 160.834C208 159.454 208.879 158.587 209.245 158.271L209.354 158.399C208.998 158.695 208.158 159.523 208 160.844C207.773 162.737 209.126 164.028 209.284 164.166L209.462 164.324L209.225 164.314C208.761 164.304 208.069 164.235 207.309 163.988Z" fill="white"/>
</g>
<mask id="mask2_360_5250" style="mask-type:luminance" maskUnits="userSpaceOnUse" x="203" y="153" width="15" height="30">
<path d="M217.69 182.57C216.445 182.126 214.668 181.357 212.791 179.987C210.815 178.548 208.929 177.178 208.208 174.871C207.378 172.21 209.037 171.372 208.198 168.937C207.25 166.167 204.731 166.443 203.753 163.565C203.081 161.613 203.654 159.76 204.158 158.113C204.76 156.142 206.143 153.323 207.042 153.5C208.109 153.717 206.677 157.798 209.106 160.607C210.944 162.737 213.077 161.918 214.895 164.403C215.142 164.738 216.515 166.611 216.218 168.858C215.853 171.608 213.66 172.338 213.137 174.605C212.761 176.231 213.374 178.735 217.69 182.57Z" fill="white"/>
</mask>
<g mask="url(#mask2_360_5250)">
<path opacity="0.3" d="M211.488 175.926L211.438 175.798C211.043 174.703 210.391 173.698 209.562 172.88C208.386 171.727 207.082 171.194 206.193 170.948L206.243 170.78C207.142 171.027 208.475 171.579 209.68 172.752C210.5 173.55 211.142 174.536 211.557 175.601L216.673 170.366L216.792 170.484L211.488 175.926Z" fill="white"/>
</g>
<mask id="mask3_360_5250" style="mask-type:luminance" maskUnits="userSpaceOnUse" x="206" y="116" width="18" height="67">
<path d="M214.46 116.071C213.186 116.663 215.399 120.083 214.441 125.682C212.929 134.584 205.511 136.802 206.144 143.741C206.479 147.477 208.109 150.06 208.109 150.06C208.643 150.908 209.048 151.302 210.905 153.816C211.082 154.052 212.742 156.3 213.147 156.921C215.903 161.14 210.292 167.32 212.001 173.353C213.176 177.523 216.268 180.362 218.797 182.146C214.046 174.694 214.095 169.903 215.142 166.857C216.594 162.628 219.893 161.938 221.651 156.615C222.876 152.899 221.73 151.834 221.76 145.003C221.809 134.436 224.565 133.292 223.163 127.496C221.533 120.675 216.061 115.332 214.46 116.071Z" fill="white"/>
</mask>
<g mask="url(#mask3_360_5250)">
<path opacity="0.5" d="M218.618 133.342V133.204C218.648 132.119 218.49 129.349 216.327 126.974C214.371 124.825 211.902 124.283 210.934 124.155L210.953 123.987C211.941 124.125 214.46 124.667 216.445 126.865C218.559 129.192 218.796 131.883 218.786 133.076C220.149 132.405 221.315 131.429 222.174 130.237C224.16 127.467 223.913 124.401 223.715 123.218L223.883 123.188C224.09 124.401 224.337 127.506 222.312 130.335C221.414 131.587 220.179 132.602 218.737 133.283L218.618 133.342Z" fill="white"/>
</g>
<mask id="mask4_360_5250" style="mask-type:luminance" maskUnits="userSpaceOnUse" x="206" y="116" width="18" height="67">
<path d="M214.46 116.071C213.186 116.663 215.399 120.083 214.441 125.682C212.929 134.584 205.511 136.802 206.144 143.741C206.479 147.477 208.109 150.06 208.109 150.06C208.643 150.908 209.048 151.302 210.905 153.816C211.082 154.052 212.742 156.3 213.147 156.921C215.903 161.14 210.292 167.32 212.001 173.353C213.176 177.523 216.268 180.362 218.797 182.146C214.046 174.694 214.095 169.903 215.142 166.857C216.594 162.628 219.893 161.938 221.651 156.615C222.876 152.899 221.73 151.834 221.76 145.003C221.809 134.436 224.565 133.292 223.163 127.496C221.533 120.675 216.061 115.332 214.46 116.071Z" fill="white"/>
</mask>
<g mask="url(#mask4_360_5250)">
<path opacity="0.5" d="M216.346 149.616L216.257 149.577C214.914 148.976 213.877 148.128 213.176 147.073C212.356 145.841 212.237 144.698 212.129 143.485C212.059 142.746 211.98 141.987 211.743 141.169C211.131 139.069 209.59 137.176 207.16 135.53L207.259 135.392C209.718 137.058 211.279 138.99 211.901 141.119C212.148 141.957 212.227 142.726 212.296 143.475C212.415 144.658 212.524 145.782 213.324 146.984C213.995 147.99 214.983 148.798 216.247 149.38C216.731 147.881 217.344 146.432 218.085 145.052C219.448 142.499 221.226 140.183 223.359 138.172L223.478 138.3C221.354 140.301 219.586 142.598 218.233 145.131C217.482 146.531 216.86 148.01 216.376 149.528L216.346 149.616Z" fill="white"/>
</g>
<path opacity="0.5" d="M217.395 159.07L217.365 158.922C217.227 158.232 216.585 155.876 214.313 154.417C211.35 152.514 208.149 153.727 207.794 153.875L207.725 153.717C208.09 153.569 211.369 152.317 214.402 154.269C216.585 155.679 217.296 157.887 217.493 158.735C218.659 157.67 219.657 156.457 220.476 155.127C221.81 152.958 222.669 150.454 222.936 147.872L223.104 147.891C222.827 150.504 221.968 153.037 220.615 155.215C219.755 156.605 218.708 157.857 217.484 158.961L217.395 159.07Z" fill="white"/>
<path d="M71.6811 177.513L127.341 163.624L130.126 177.119L79.1781 200.589L38.8284 190.643L14.4902 166.798L71.6811 177.513Z" fill="url(#paint3_linear_360_5250)"/>
<path d="M71.6811 177.513L127.341 163.624L130.126 177.119L79.1781 200.589L38.8284 190.643L14.4902 166.798L71.6811 177.513Z" fill="#3D4A26"/>
<path d="M69.9336 196.193C80.9964 190.278 89.1651 184.246 94.7064 179.691C105.621 170.721 110.619 163.959 121.672 161.288C123.648 160.814 134.898 158.094 138.523 163.072C142.543 168.592 134.73 180.135 133.782 181.535C119.667 202.383 83.7325 201.407 72.4622 200.727C71.6226 199.219 70.7732 197.711 69.9336 196.193Z" fill="url(#paint4_linear_360_5250)"/>
<path opacity="0.3" d="M138.522 163.082C137.465 161.623 135.746 160.834 133.8 160.45C134.442 162.677 134.501 164.777 133.701 166.601C131.499 171.598 124.97 170.061 120.377 175.926C115.872 181.693 118.994 187.242 115.013 189.618C110.45 192.339 104.79 185.981 99.9005 189.026C96.5718 191.097 97.6089 195.02 93.7369 197.159C91.0601 198.637 88.4327 197.938 85.3904 197.553C81.8938 197.119 77.1032 197.021 71.0977 198.273C71.552 199.091 72.0064 199.909 72.4608 200.737C83.731 201.417 119.665 202.383 133.78 181.545C134.729 180.135 142.542 168.602 138.522 163.082Z" fill="#2E7D32"/>
<path d="M78.2998 199.308C78.2998 199.308 80.3246 197.859 83.2681 198.845C86.2116 199.83 90.8837 200.629 90.8738 202.068C90.864 203.507 86.1919 204.404 82.9619 203.813C79.8703 203.251 77.4404 200.57 78.2998 199.308Z" fill="url(#paint5_linear_360_5250)"/>
<path d="M75.3266 196.863L80.7395 198.598C80.7395 198.598 81.6185 200.057 80.4332 200.984C79.2479 201.91 75.1191 199.949 75.1191 199.949L75.3266 196.863Z" fill="url(#paint6_linear_360_5250)"/>
<path d="M0.0885825 171.963C-1.51158 181.249 18.5694 191.294 23.1723 193.6C32.5461 198.283 50.1775 204.907 76.343 202.373C76.6887 200.294 77.0345 198.204 77.39 196.124C73.9329 194.941 68.8065 193.019 62.8701 190.101C52.7259 185.123 48.8736 181.564 34.7982 173.067C19.2213 163.673 14.6876 162.461 10.0451 163.624C6.06448 164.619 0.829396 167.646 0.0885825 171.963Z" fill="#2E7D32"/>
<path d="M21.0201 154.299C17.6222 142.046 23.2326 125.515 35.0363 117.54C44.6767 111.035 55.9667 111.458 59.493 111.587C63.3551 111.734 62.9501 112.227 75.0995 114.475C91.9604 117.59 93.5112 116.831 98.4203 119.177C107.646 123.593 112.12 131.597 112.95 133.155C117.237 141.139 120.724 155.965 112.585 163.22C107.962 167.34 101.472 167.33 97.8178 166.946C97.5708 165.31 97.3239 163.673 97.077 162.037C97.8178 161.465 102.203 157.956 102.747 151.766C103.369 144.648 98.3907 140.065 97.8277 139.562C96.0596 142.963 93.8865 148.138 92.9086 154.743C91.6443 163.279 92.958 170.288 94.0643 174.418C89.6096 176.863 82.231 180.175 72.6301 181.239C65.3998 182.038 56.4409 180.51 50.7119 176.044C42.6321 169.746 41.9505 155.847 49.9316 138.764C47.0078 140.715 42.7802 144.254 41.022 149.843C40.7554 150.691 40.3109 152.347 40.1232 158.774C39.7775 170.307 24.5365 166.995 21.0201 154.299Z" fill="#D35400"/>
<path opacity="0.3" d="M75.74 162.786C71.6705 163.279 70.5642 167.498 66.791 167.251C58.5828 166.709 51.9945 152.524 55.4615 144.776C57.7234 139.72 63.6203 138.842 63.2153 135.55C62.8894 132.918 58.8001 130.887 55.4615 130.789C50.256 130.631 46.8285 135.156 45.6235 136.743C42.8084 140.449 42.196 144.52 42.1367 147.142C44.2011 143.091 47.5002 140.38 49.9103 138.763C41.9293 155.846 42.6108 169.43 50.6906 175.729C56.4196 180.194 65.3785 182.038 72.6089 181.239C80.4022 180.382 86.7238 178.035 91.2181 175.877C86.8621 168.779 81.3011 162.106 75.74 162.786Z" fill="#D35400"/>
<path d="M89.9141 174.339L42.3242 173.629L54.9773 179.721L90.0326 177.434L89.9141 174.339Z" fill="url(#paint7_linear_360_5250)"/>
<path d="M23.3211 146.137C26.9955 142.667 36.0038 144.855 39.3622 149.833C41.8315 153.5 39.7869 156.517 41.5945 161.14C43.8169 166.798 52.1733 171.924 57.3195 173.629C56.5194 175.354 56.7466 175.808 55.9465 177.533C52.6771 177.129 29.0402 173.511 23.2519 159.504C22.9556 158.774 19.3799 149.853 23.3211 146.137Z" fill="#D35400"/>
<path d="M76.9763 109.565C76.9763 109.565 73.1241 113.715 69.9336 114.149C66.7432 114.583 62.1205 113.735 61.3303 114.149C60.5302 114.563 65.3406 116.268 69.1533 117.313C72.966 118.358 79.8902 120.438 81.8064 119.985C83.7227 119.531 79.7124 117.077 78.132 116.426C76.5417 115.776 78.8135 112.444 78.8135 112.444L76.9763 109.565Z" fill="white"/>
<path d="M82.6853 111.941C84.078 111.557 85.3523 109.999 85.3325 108.383C85.3226 106.993 84.3447 106.046 83.7521 105.475C82.0532 103.828 79.1097 102.793 76.9662 103.878C75.7019 104.518 75.1191 107.426 74.9907 107.939C74.8426 108.511 75.0698 108.915 75.129 109.477C75.2179 110.255 75.3364 111.488 75.5241 113.528C75.8797 113.242 76.344 112.907 76.9169 112.592C77.1342 112.473 78.0034 112.01 78.9417 111.793C80.8481 111.369 81.3716 112.306 82.6853 111.941Z" fill="url(#paint8_linear_360_5250)"/>
<path d="M74.7329 111.32C74.7329 111.32 74.407 114.268 76.9653 115.983C79.2569 117.521 83.3461 112.878 82.7535 110.778C82.5559 110.078 81.7361 109.221 80.8175 108.846C80.2742 108.629 79.9779 108.698 79.0988 108.324C78.2889 107.979 78.1506 107.752 77.8147 107.772C77.39 107.791 76.7973 108.176 76.1257 109.93C76.0368 109.191 75.6614 108.649 75.1774 108.541C75.0984 108.521 74.8712 108.511 74.6638 108.6C73.9329 108.915 73.8934 110.019 74.7329 111.32Z" fill="white"/>
<path d="M77.9432 107.397C77.9926 107.555 77.3604 107.703 76.9159 108.235C76.0368 109.28 76.1356 111.409 77.1629 112.375C77.7753 112.947 78.2593 112.691 79.4347 113.41C80.1656 113.854 80.6595 114.376 80.9558 114.721C80.3829 116.16 79.1581 117.097 77.9432 117.028C76.6394 116.959 75.8294 115.766 75.4837 115.273C75.2565 114.938 74.5256 113.874 74.7034 112.592C74.891 111.251 75.8393 111.094 75.7208 110C75.6615 109.448 75.3652 108.994 75.4442 108.087C75.4639 107.841 75.5133 107.634 75.543 107.506C76.5603 107.338 77.8839 107.17 77.9432 107.397Z" fill="url(#paint9_linear_360_5250)"/>
<path d="M79.8206 114.554C79.8206 114.554 79.1588 114.435 78.3785 113.765C78.339 113.735 78.2896 113.706 78.2698 113.726C78.1908 113.785 78.4476 114.534 79.0304 114.771C79.4452 114.938 79.9589 114.82 79.9786 114.702C79.9885 114.652 79.9095 114.593 79.8206 114.554Z" fill="url(#paint10_linear_360_5250)"/>
<path d="M58.5838 149.764L55.2254 180.243C55.1069 181.298 56.5885 182.865 57.6454 182.816L106.855 179.8C107.665 179.76 108.337 179.169 108.475 178.37L114.649 148.936C114.836 147.862 112.9 146.758 111.814 146.787L60.2531 148.236C59.3839 148.256 58.6727 148.916 58.5838 149.764Z" fill="url(#paint11_linear_360_5250)"/>
<path d="M59.7092 150.652L56.3508 181.131C56.2323 182.186 57.0916 183.092 58.1485 183.033L107.981 180.677C108.791 180.638 109.462 180.046 109.6 179.248L114.687 149.676C114.875 148.601 114.026 147.635 112.939 147.665L61.3785 149.114C60.5092 149.143 59.7981 149.804 59.7092 150.652Z" fill="url(#paint12_linear_360_5250)"/>
<path opacity="0.3" d="M88.9664 173.55C84.6203 171.707 86.1513 168.198 81.015 163.831C74.239 158.064 67.3247 160.568 64.9146 156.093C64.1639 154.703 63.7984 152.534 65.1122 149.025L61.3785 149.133C60.5191 149.153 59.8079 149.813 59.7092 150.661L56.3508 181.14C56.2323 182.195 57.0916 183.102 58.1485 183.043L107.981 180.687C108.791 180.648 109.462 180.056 109.6 179.258L110.302 175.177C108.791 174.339 106.983 173.57 104.879 173.146C97.5598 171.667 93.9743 175.67 88.9664 173.55Z" fill="url(#paint13_linear_360_5250)"/>
<path d="M54.4551 176.478C56.5392 178.42 57.932 178.252 58.3962 178.144C59.1765 177.966 59.2852 177.523 61.2706 175.975C63.0485 174.585 63.6017 174.438 63.5819 173.955C63.5424 173.048 61.478 172.259 59.7889 172.17C57.4282 172.052 55.6404 173.324 54.9391 173.876L54.4551 176.478Z" fill="white"/>
</g>
<defs>
<linearGradient id="paint0_linear_360_5250" x1="41.9443" y1="-54.1229" x2="97.0374" y2="40.051" gradientUnits="userSpaceOnUse">
<stop stop-color="#444B8C"/>
<stop offset="0.9964" stop-color="#26264F"/>
</linearGradient>
<linearGradient id="paint1_linear_360_5250" x1="31.7636" y1="92.025" x2="234.909" y2="92.025" gradientUnits="userSpaceOnUse">
<stop offset="0.494" stop-color="#EBEFF2"/>
<stop offset="1" stop-color="white"/>
</linearGradient>
<linearGradient id="paint2_linear_360_5250" x1="97.1651" y1="81.8579" x2="156.951" y2="87.3991" gradientUnits="userSpaceOnUse">
<stop stop-color="#FF9085"/>
<stop offset="1" stop-color="#FB6FBB"/>
</linearGradient>
<linearGradient id="paint3_linear_360_5250" x1="72.942" y1="159.47" x2="71.7538" y2="182.983" gradientUnits="userSpaceOnUse">
<stop stop-color="#FF9085"/>
<stop offset="1" stop-color="#FB6FBB"/>
</linearGradient>
<linearGradient id="paint4_linear_360_5250" x1="69.9362" y1="180.563" x2="139.666" y2="180.563" gradientUnits="userSpaceOnUse">
<stop offset="0.9964" stop-color="#2E7D32"/>
<stop offset="1"/>
</linearGradient>
<linearGradient id="paint5_linear_360_5250" x1="89.6819" y1="207.64" x2="76.2942" y2="190.946" gradientUnits="userSpaceOnUse">
<stop stop-color="#311944"/>
<stop offset="1" stop-color="#6B3976"/>
</linearGradient>
<linearGradient id="paint6_linear_360_5250" x1="81.4423" y1="203.683" x2="62.997" y2="180.43" gradientUnits="userSpaceOnUse">
<stop stop-color="#FFC444"/>
<stop offset="0.9964" stop-color="#F36F56"/>
</linearGradient>
<linearGradient id="paint7_linear_360_5250" x1="42.3295" y1="176.679" x2="90.0374" y2="176.679" gradientUnits="userSpaceOnUse">
<stop stop-color="#AA80F9"/>
<stop offset="0.9964" stop-color="#6165D7"/>
</linearGradient>
<linearGradient id="paint8_linear_360_5250" x1="66.7557" y1="115.854" x2="83.0015" y2="106.027" gradientUnits="userSpaceOnUse">
<stop stop-color="#311944"/>
<stop offset="1" stop-color="#6B3976"/>
</linearGradient>
<linearGradient id="paint9_linear_360_5250" x1="67.9291" y1="117.813" x2="84.1926" y2="107.977" gradientUnits="userSpaceOnUse">
<stop stop-color="#311944"/>
<stop offset="1" stop-color="#6B3976"/>
</linearGradient>
<linearGradient id="paint10_linear_360_5250" x1="78.2544" y1="114.285" x2="79.9799" y2="114.285" gradientUnits="userSpaceOnUse">
<stop offset="0.0036" stop-color="#F36F56"/>
<stop offset="1" stop-color="#FFC444"/>
</linearGradient>
<linearGradient id="paint11_linear_360_5250" x1="55.2218" y1="164.801" x2="114.661" y2="164.801" gradientUnits="userSpaceOnUse">
<stop stop-color="#444B8C"/>
<stop offset="0.9964" stop-color="#26264F"/>
</linearGradient>
<linearGradient id="paint12_linear_360_5250" x1="56.3416" y1="165.36" x2="114.712" y2="165.36" gradientUnits="userSpaceOnUse">
<stop stop-color="#444B8C"/>
<stop offset="0.9964" stop-color="#26264F"/>
</linearGradient>
<linearGradient id="paint13_linear_360_5250" x1="56.3417" y1="166.031" x2="110.299" y2="166.031" gradientUnits="userSpaceOnUse">
<stop stop-color="#444B8C"/>
<stop offset="0.9964" stop-color="#26264F"/>
</linearGradient>
<clipPath id="clip0_360_5250">
<rect width="250" height="204" fill="white"/>
</clipPath>
</defs>
</svg>
