<svg width="250" height="189" viewBox="0 0 250 189" fill="none" xmlns="http://www.w3.org/2000/svg">
<g opacity="0.5" clip-path="url(#clip0_360_6598)">
<path d="M250.001 188.189H0.6875V189H249.991V188.189H250.001Z" fill="#C2B280"/>
<path d="M222.145 188.638L106.571 188.475C103.243 188.475 100.535 185.759 100.535 182.441L100.735 19.2087C100.735 15.8912 103.453 13.1743 106.772 13.1743L222.345 13.3364C225.673 13.3364 228.391 16.0533 228.391 19.3707L228.191 182.603C228.181 185.968 225.473 188.676 222.145 188.638Z" fill="#2E3138"/>
<path d="M218.055 188.638L102.481 188.475C99.1535 188.475 96.4453 185.759 96.4453 182.441L96.6456 19.2087C96.6456 15.8912 99.3633 13.1743 102.691 13.1743L218.265 13.3364C221.593 13.3364 224.301 16.0533 224.301 19.3707L224.101 182.603C224.092 185.968 221.374 188.676 218.055 188.638Z" fill="#3D4A26"/>
<path d="M219.429 188.8C218.695 188.8 218.009 188.8 217.608 188.8V187.99C218.829 187.99 222.471 187.99 222.509 187.99C224.007 187.99 225.389 187.38 226.438 186.331C227.497 185.235 228.059 183.824 228.059 182.279L228.259 19.7334C228.259 16.5684 225.79 14.0231 222.71 14.0231L106.449 13.8611V13.0508L222.71 13.2128C226.2 13.2128 229.07 16.1299 229.07 19.7334L228.87 182.279C228.87 184.024 228.221 185.645 227.001 186.903C225.78 188.123 224.207 188.81 222.5 188.81C222.509 188.8 220.888 188.8 219.429 188.8Z" fill="#0A0B0D"/>
<path d="M218.418 188.8L102.157 188.638C98.6672 188.638 95.7969 185.721 95.7969 182.117L95.9971 19.5713C95.9971 17.8268 96.6456 16.2062 97.8662 14.9574C99.0867 13.7372 100.66 13.0508 102.367 13.0508L218.627 13.2128C222.118 13.2128 224.997 16.1299 224.997 19.7334L224.959 48.132H224.149L224.187 19.7334C224.187 16.5684 221.717 14.0231 218.637 14.0231L102.377 13.8611C100.879 13.8611 99.4968 14.4712 98.4478 15.5198C97.3894 16.6161 96.8267 18.0365 96.8267 19.5713L96.6265 182.117C96.6265 185.282 99.0963 187.828 102.176 187.828L218.437 187.99V188.8H218.418Z" fill="#2E7D32"/>
<path d="M224.865 58.0557H224.055V114.739H224.865V58.0557Z" fill="#5B322C"/>
<g opacity="0.36">
<path d="M217.664 27.8649L109.585 27.7314L109.395 180.516L217.473 180.649L217.664 27.8649Z" fill="#009900"/>
</g>
<path d="M214.498 24.6237L106.429 24.4902L106.238 177.275L214.307 177.408L214.498 24.6237Z" fill="white"/>
<path d="M146.058 63.2798H126.434V82.889H146.058V63.2798Z" fill="#F7EFE2"/>
<path d="M146.058 93.7944H126.434V113.404H146.058V93.7944Z" fill="#F7EFE2"/>
<path d="M146.058 124.262H126.434V143.871H146.058V124.262Z" fill="#F7EFE2"/>
<path d="M146.421 83.2608H140.461V82.5745H145.734V63.2798H146.421V83.2608Z" fill="#5A322E"/>
<path d="M146.424 113.766H135.477V113.08H145.737V93.7944H146.424V113.766Z" fill="#5A322E"/>
<path d="M146.421 144.233H126.434V143.547H145.725V124.262H146.411V144.233H146.421Z" fill="#5A322E"/>
<path d="M172.892 69.3237H150.273V70.0101H172.892V69.3237Z" fill="#5A322E"/>
<path d="M184.118 76.2061H150.266V76.8924H184.118V76.2061Z" fill="#5A322E"/>
<path d="M178.08 99.8291H150.273V100.515H178.08V99.8291Z" fill="#5A322E"/>
<path d="M199.163 106.673H150.273V107.36H199.163V106.673Z" fill="#5A322E"/>
<path d="M178.08 130.296H150.273V130.983H178.08V130.296Z" fill="#5A322E"/>
<path d="M199.163 137.188H150.273V137.875H199.163V137.188Z" fill="#5A322E"/>
<path d="M170.422 10.3716V10.2953C170.422 4.1752 164.786 -0.686598 158.302 0.57175C153.639 1.50598 150.311 5.63374 150.311 10.3335V10.3716H137.133C135.473 10.3716 134.129 11.6681 134.129 13.2887V26.3297C134.129 27.9503 135.464 29.285 137.133 29.285L183.591 29.3231C185.25 29.3231 186.595 28.0266 186.595 26.406V13.365C186.595 11.7444 185.26 10.4097 183.591 10.4097L170.422 10.3716ZM161.058 11.4202C158.951 11.8683 157.129 10.0856 157.568 8.01697C157.806 6.95882 158.665 6.11039 159.713 5.91019C161.821 5.46215 163.642 7.24481 163.204 9.35158C162.956 10.3716 162.107 11.22 161.058 11.4202Z" fill="#3D4A26"/>
<path d="M145.164 29.6568H137.097C136.2 29.6568 135.352 29.2945 134.703 28.6844C134.055 28.0362 133.73 27.2259 133.73 26.3298V13.2887H134.541V26.3298C134.541 27.0162 134.827 27.6263 135.313 28.1124C135.8 28.5986 136.448 28.8369 137.135 28.8369H145.202L145.164 29.6568ZM160.412 11.9065C159.525 11.9065 158.667 11.5823 158.056 10.9341C157.284 10.1619 156.96 9.02751 157.208 7.94075C157.494 6.72054 158.466 5.79584 159.677 5.50985C160.812 5.262 161.985 5.58612 162.796 6.39642C163.568 7.20672 163.892 8.303 163.644 9.39929C163.358 10.61 162.386 11.5442 161.174 11.8302C160.898 11.9065 160.65 11.9065 160.412 11.9065ZM160.364 6.23436C160.164 6.23436 160.002 6.27249 159.801 6.32015C158.905 6.52034 158.142 7.25438 157.932 8.14094C157.732 8.98937 157.97 9.79967 158.581 10.4098C159.191 11.0199 160.078 11.2582 160.936 11.0962C161.832 10.896 162.595 10.1619 162.805 9.27536C163.005 8.42693 162.767 7.61663 162.157 7.00652C161.708 6.48221 161.06 6.23436 160.364 6.23436ZM183.641 10.772H170.062V10.2859C170.062 7.45457 168.803 4.81395 166.619 2.99316C164.35 1.13423 161.394 0.400198 158.428 0.962642C154.013 1.81107 150.771 5.78631 150.771 10.324V10.7339L150.361 10.772H137.182V9.96173H149.951C150.151 5.18573 153.555 1.08657 158.257 0.200007C161.461 -0.410101 164.665 0.362067 167.096 2.38305C169.404 4.28964 170.748 7.04466 170.825 9.99987H183.593L183.641 10.772Z" fill="#009900"/>
<path d="M171.882 28.8848H151.285V29.6951H171.882V28.8848Z" fill="#453028"/>
<path d="M204.8 38.2842H115.945V55.7104H204.8V38.2842Z" fill="#C2B280"/>
<g opacity="0.32">
<path d="M116.745 113.242C116.745 113.28 116.707 113.366 116.707 113.404C110.747 137.799 97.5308 165.425 74.4256 182.851C71.9081 184.758 69.2762 186.502 66.5204 188.123H59.3876C2.10609 154.481 4.66168 62.5171 4.66168 62.5171C14.7124 61.5066 25.9456 57.2073 37.6555 51.5733C46.1233 47.5218 55.2491 45.4913 64.3653 45.6152C72.9952 45.701 81.6346 47.6839 89.7019 51.5352C101.498 57.2073 112.807 61.4971 122.906 62.5171C122.867 62.5171 123.478 85.8061 116.745 113.242Z" fill="#D1B397"/>
</g>
<path d="M113.83 110.725C113.83 110.763 113.792 110.849 113.792 110.887C107.756 135.272 95.8358 162.908 72.4445 180.335C68.6301 183.175 64.5393 185.721 60.0765 187.989C59.5521 187.703 59.018 187.465 58.4936 187.179C-2.39249 154.843 0.287068 60.0002 0.287068 60.0002C10.4618 58.9898 21.857 54.6904 33.691 49.0564C42.2446 45.0049 51.5229 42.984 60.725 43.0983C69.4788 43.1841 78.2327 45.167 86.3858 49.0088C98.3437 54.6809 109.815 58.9707 119.99 59.9907C120.038 60.0002 120.638 83.2987 113.83 110.725Z" fill="#D35400"/>
<path d="M113.828 110.725C113.828 110.763 113.79 110.849 113.79 110.887C107.592 135.196 95.5864 162.584 72.4431 180.334C68.6287 183.175 64.5379 185.721 60.0751 187.989C59.5507 187.703 59.0167 187.465 58.4922 187.179C65.2626 173.366 106.085 84.6714 60.7617 43.1841C69.5156 43.2699 78.2694 45.2527 86.4225 49.104C98.3804 54.7761 109.852 59.066 120.027 60.086C120.036 60.0002 120.637 83.2987 113.828 110.725Z" fill="#FF6F00"/>
<path d="M60.077 175.587L59.667 175.387C47.9094 169.477 37.9826 160.239 30.1919 147.961C23.9936 138.161 19.1208 126.407 15.7165 113.042C9.91875 90.3151 10.4051 70.458 10.4432 70.2578L10.4814 69.4475L11.2919 69.3713C18.5105 68.6372 27.0641 65.8441 38.2496 60.5342C52.1528 53.9279 68.0871 53.9279 81.9903 60.4961C93.2235 65.8059 101.853 68.6372 109.11 69.3713L109.921 69.4475L109.959 70.2578C109.959 70.458 110.407 90.3151 104.609 113.042C101.205 126.416 96.3035 138.161 90.0957 147.961C82.3145 160.239 72.3782 169.477 60.6206 175.387L60.077 175.587ZM12.2455 71.0586C12.2073 74.948 12.4076 92.6507 17.5188 112.584C22.7444 133.166 34.3781 160.354 60.0866 173.519C85.7856 160.354 97.4669 133.128 102.731 112.584C107.842 92.6507 108.08 74.948 108.042 71.0586C100.747 70.2102 92.1555 67.3312 81.1226 62.1072C67.7057 55.7487 52.3435 55.7868 38.9267 62.1453C28.0177 67.3789 19.5022 70.2102 12.2455 71.0586Z" fill="white"/>
<path d="M59.9134 188.275C59.3031 187.989 58.7787 187.713 58.2923 187.427C36.3218 175.759 20.1491 154.815 10.1747 125.11C2.19323 101.325 0.36236 78.2748 0 66.6446L0.734256 66.6064C1.42083 87.9602 7.58096 159.715 58.6642 186.779C59.1506 187.027 59.675 187.303 60.2472 187.589L59.9134 188.275Z" fill="#5B322C"/>
<path d="M72.6435 180.621L72.1953 180.049C91.7723 165.463 105.637 142.165 113.419 110.811C113.457 110.735 113.457 110.687 113.457 110.649C117.958 92.422 119.169 75.93 119.493 67.7031L120.227 67.7413C119.903 76.0063 118.682 92.5364 114.143 110.811C114.143 110.887 114.105 110.935 114.105 111.011C110.663 124.948 105.876 137.551 99.9159 148.409C92.5924 161.736 83.4285 172.594 72.6435 180.621Z" fill="#5B322C"/>
<path d="M115.05 59.6381C107.02 58.0938 97.8565 54.8526 86.2705 49.3425C78.2414 45.5293 69.6496 43.5465 60.7718 43.4702C51.5697 43.3844 42.2437 45.415 33.8999 49.3807C22.5904 54.7668 13.6268 57.9698 5.72162 59.5523L5.59766 58.8278C13.417 57.2835 22.3425 54.0899 33.6138 48.7419C42.0816 44.7286 51.4935 42.6599 60.8099 42.7457C69.8022 42.822 78.4798 44.8525 86.5852 48.6943C98.1426 54.1662 107.221 57.4074 115.202 58.9041L115.05 59.6381Z" fill="#5B322C"/>
<path d="M60.487 134.224L35.6367 102.784L43.5038 96.5877L60.4107 117.894L86.1478 84.5571L94.0912 90.6773L60.487 134.224Z" fill="white"/>
<path d="M186.025 168.666C191.709 168.666 196.324 164.062 196.324 158.371C196.324 152.679 191.718 148.084 186.025 148.084C180.342 148.084 175.727 152.689 175.727 158.371C175.727 164.052 180.342 168.666 186.025 168.666Z" fill="#F7EFE2"/>
<path d="M185.424 164.043L179.75 156.912L181.533 155.492L185.386 160.316L191.269 152.737L193.052 154.11L185.424 164.043Z" fill="#C2B280"/>
<path d="M186.026 172.146C178.445 172.146 172.285 165.988 172.285 158.409C172.285 150.83 178.445 144.672 186.026 144.672C187.771 144.672 189.469 144.996 191.09 145.644L190.804 146.416C189.259 145.806 187.685 145.53 186.017 145.53C178.884 145.53 173.086 151.326 173.086 158.456C173.086 165.587 178.884 171.383 186.017 171.383C192.749 171.383 198.299 166.321 198.909 159.629L199.72 159.705C199.081 166.76 193.207 172.146 186.026 172.146Z" fill="#5A322E"/>
<path d="M198.105 153.795C197.58 152.375 196.77 151.078 195.797 149.906L196.407 149.381C197.466 150.602 198.314 151.974 198.877 153.509L198.105 153.795Z" fill="#5A322E"/>
<path d="M124.202 51.0603L121.484 41.8992H122.943L124.202 46.5608C124.526 47.6952 124.812 48.8296 125.013 49.7162H125.051C125.213 48.782 125.575 47.7333 125.938 46.5131L127.358 41.8896H128.817L130.114 46.5513C130.4 47.6475 130.725 48.7343 130.849 49.7067H130.887C131.125 48.6962 131.411 47.6761 131.735 46.5513L133.156 41.9373H134.577L131.535 51.0889H130.076L128.741 46.3129C128.417 45.1404 128.169 44.2443 128.055 43.3101H128.016C127.816 44.2443 127.568 45.1308 127.206 46.3129L125.661 51.0889H124.202V51.0603Z" fill="#292929"/>
<path d="M136.77 48.1426L135.636 51.0215H134.215L137.867 41.8604H139.526L143.217 51.0215H141.72L140.585 48.1426H136.77ZM140.299 47.256L139.24 44.6249C138.992 44.0148 138.83 43.4905 138.678 42.9662H138.639C138.477 43.4905 138.315 44.0625 138.115 44.6249L137.066 47.2941H140.308V47.256H140.299Z" fill="#292929"/>
<path d="M144.801 41.9849C145.487 41.8609 146.498 41.7847 147.48 41.7847C148.977 41.7847 149.912 42.023 150.599 42.5092C151.123 42.9191 151.447 43.5673 151.447 44.2537C151.447 45.4739 150.56 46.2842 149.416 46.6083V46.6465C150.227 46.8848 150.751 47.5426 150.999 48.5054C151.361 49.8019 151.609 50.6503 151.81 51.0221H150.389C150.227 50.7742 149.979 49.9639 149.655 48.8295C149.33 47.5712 148.768 47.085 147.509 47.0468H146.212V51.0221H144.839V41.9849H144.801ZM146.222 46.1603H147.642C149.14 46.1603 150.074 45.4739 150.074 44.4158C150.074 43.2432 149.063 42.7094 147.604 42.7094C146.918 42.7094 146.47 42.7475 146.222 42.8333V46.1603Z" fill="#292929"/>
<path d="M153.395 41.9849C154.081 41.8609 155.092 41.7847 156.074 41.7847C157.571 41.7847 158.506 42.023 159.192 42.5092C159.717 42.9191 160.041 43.5673 160.041 44.2537C160.041 45.4739 159.154 46.2842 158.01 46.6083V46.6465C158.82 46.8848 159.345 47.5426 159.593 48.5054C159.955 49.8019 160.203 50.6503 160.403 51.0221H158.983C158.82 50.7742 158.572 49.9639 158.248 48.8295C157.924 47.5712 157.361 47.085 156.103 47.0468H154.806V51.0221H153.433V41.9849H153.395ZM154.777 46.1603H156.198C157.695 46.1603 158.63 45.4739 158.63 44.4158C158.63 43.2432 157.619 42.7094 156.16 42.7094C155.473 42.7094 155.025 42.7475 154.777 42.8333V46.1603Z" fill="#292929"/>
<path d="M163.817 48.1426L162.683 51.0215H161.262L164.914 41.8604H166.573L170.264 51.0215H168.766L167.632 48.1426H163.817ZM167.298 47.256L166.239 44.6249C165.991 44.0148 165.829 43.4905 165.677 42.9662H165.639C165.477 43.4905 165.314 44.0625 165.114 44.6249L164.056 47.2941H167.298V47.256Z" fill="#292929"/>
<path d="M171.797 51.7735V42.6123H173.294L176.736 47.2739C177.547 48.3702 178.157 49.3044 178.682 50.2673H178.72C178.596 49.047 178.558 47.9221 178.558 46.5017V42.6504H179.855V51.8021H178.472L175.068 47.1404C174.333 46.13 173.609 45.0718 173.037 44.0613H172.998C173.075 45.2339 173.122 46.3302 173.122 47.8268V51.7544H171.797V51.7735Z" fill="#292929"/>
<path d="M184.366 43.594H181.086V42.5835H189.029V43.594H185.749V51.7828H184.328V43.594H184.366Z" fill="#292929"/>
<path d="M193.08 51.7735V47.884L189.676 42.6123H191.259L192.756 45.1671C193.166 45.8535 193.49 46.4255 193.814 47.0737H193.852C194.139 46.4636 194.539 45.8535 194.949 45.1671L196.494 42.6123H198.077L194.472 47.884V51.7735H193.08Z" fill="#292929"/>
</g>
<defs>
<clipPath id="clip0_360_6598">
<rect width="250" height="189" fill="white"/>
</clipPath>
</defs>
</svg>
