<svg width="15" height="15" viewBox="0 0 15 15" fill="none" xmlns="http://www.w3.org/2000/svg">
<path d="M7.06337 0C7.35706 0 7.65076 0 7.94446 0C8.1941 0.0330599 8.44741 0.0550998 8.69705 0.0955062C10.261 0.359985 11.6193 1.03588 12.739 2.15256C14.4241 3.83494 15.1804 5.87731 14.9638 8.25394C14.8316 9.7196 14.2919 11.042 13.3521 12.177C11.6413 14.2415 9.43863 15.1892 6.76233 14.9688C5.52514 14.8659 4.3834 14.4435 3.35547 13.7419C1.59697 12.537 0.502953 10.8877 0.113807 8.77923C0.0660814 8.51108 0.0367119 8.22823 0 7.94906C0 7.65519 0 7.36133 0 7.06746C0.0110136 6.96461 0.0256983 6.86543 0.0367119 6.76258C0.168875 5.52467 0.565363 4.38227 1.26656 3.35374C2.47071 1.59422 4.11908 0.499571 6.22634 0.1102C6.50168 0.0661197 6.78436 0.0367332 7.06337 0ZM8.385 8.84167C8.385 8.72046 8.385 8.59556 8.385 8.47434C8.385 7.86825 8.38867 7.26215 8.385 6.65605C8.37766 6.01322 7.79761 5.59814 7.20655 5.80384C6.84677 5.92873 6.63017 6.25933 6.63017 6.68544C6.63017 7.63315 6.63017 8.58087 6.63017 9.52858C6.63017 10.0171 6.6265 10.5057 6.63017 10.9942C6.63384 11.3946 6.85778 11.7252 7.20655 11.8464C7.80128 12.0558 8.38133 11.6407 8.385 10.9942C8.38867 10.2816 8.385 9.56164 8.385 8.84167ZM8.38133 3.98188C8.37766 3.50067 7.97382 3.10395 7.49657 3.1113C7.01564 3.11497 6.61916 3.51904 6.6265 3.99657C6.63017 4.47777 7.034 4.87449 7.51126 4.86715C7.98851 4.86347 8.385 4.45941 8.38133 3.98188Z" fill="#3D4A26"/>
</svg>
