<svg width="222" height="244" viewBox="0 0 222 244" fill="none" xmlns="http://www.w3.org/2000/svg">
<path opacity="0.7" d="M221.534 235.345C221.534 235.336 221.525 235.327 221.525 235.309C220.642 231.209 218.136 221.321 214.177 219.302C214.061 219.24 213.963 219.133 213.936 219.008L212.875 214.8C212.821 214.604 212.91 214.398 213.089 214.3C213.169 214.256 213.249 214.202 213.329 214.157C213.508 214.05 213.588 213.827 213.517 213.63C211.537 207.851 184.659 129.487 177.088 118.054C177.025 117.955 176.999 117.848 177.016 117.732C178.318 110.22 184.061 84.7089 187.593 76.5358C188.181 75.178 188.583 73.7489 188.797 72.275C188.922 71.4264 189.038 70.5779 189.118 70.1312C189.145 69.9794 189.243 69.8543 189.385 69.8007C206.597 62.3243 235.062 44.1469 211.055 9.89114C211.064 9.85541 211.073 9.82861 211.073 9.82861C211.073 9.82861 211.822 0.833685 207.328 0.0833634C202.842 -0.666958 201.344 3.83497 200.595 6.077C199.899 8.15825 206.258 12.16 208.398 12.7495C208.55 12.7942 208.666 12.9103 208.71 13.0621C209.602 16.2331 216.362 43.3162 187.513 47.0946C187.477 47.1035 187.441 47.1035 187.397 47.0946C184.374 46.7284 179.442 46.2371 173.485 45.9959C173.262 45.987 173.084 45.8262 173.048 45.6029L170.935 31.311C170.89 31.0252 171.113 30.7751 171.398 30.784C172.424 30.8287 174.172 30.6679 176.357 29.4978C179.023 28.0686 177.997 26.9967 177.302 26.5501C177.106 26.425 177.106 26.1392 177.284 25.9873C181.092 22.8699 181.805 19.0736 180.066 17.6087C179.326 16.9835 178.729 16.8941 178.274 17.0103C177.81 17.1264 177.329 16.8405 177.284 16.3582C176.865 12.3118 172.772 9.909 166.708 8.79245C162.258 7.97067 160.599 6.37177 159.975 5.38028C159.814 5.12124 159.431 5.18376 159.35 5.4696C159.261 5.7733 158.851 5.80903 158.708 5.53213C158.494 5.12124 157.977 4.96939 157.585 5.21056C155.275 6.62188 153.875 10.4271 155.685 13.4105C156.211 14.2769 157.255 15.0541 158.53 15.7419C158.735 15.849 158.833 16.0992 158.744 16.3135C157.638 19.1183 155.864 24.0401 155.694 27.0771C155.444 31.5165 154.49 34.4016 159.618 35.2949C159.654 35.3038 159.689 35.3038 159.734 35.3127C159.966 35.3485 160.135 35.5629 160.117 35.804L159.252 45.6297C159.234 45.853 159.047 46.0316 158.824 46.0406C152.502 46.3621 145.894 47.1392 139.669 48.6488C139.598 48.6667 139.526 48.6667 139.455 48.6488C115.074 43.0482 121.263 18.3055 122.119 15.2952C122.163 15.1434 122.279 15.0273 122.431 14.9915C124.571 14.402 130.921 10.4003 130.234 8.31904C129.485 6.06807 127.987 1.57507 123.501 2.3254C119.015 3.07572 119.756 12.0706 119.756 12.0706C119.756 12.0706 119.765 12.0974 119.773 12.1332C97.3899 44.0754 119.452 61.3864 136.797 69.7918C136.949 69.8633 137.047 70.0151 137.056 70.1848L137.127 71.882C137.172 73.0075 137.341 74.133 137.627 75.2227C139.419 82.056 146.384 108.398 150.406 121.153C150.406 121.153 150.442 121.162 150.504 121.171C152.288 132.363 165.227 213.514 165.771 218.74C165.789 218.909 165.896 219.052 166.057 219.115C166.235 219.186 166.493 219.276 166.823 219.374C166.984 219.427 167.109 219.561 167.136 219.731L167.733 223.063C167.778 223.286 167.644 223.509 167.421 223.581C163.542 224.76 154.686 227.806 151.378 231.87C151.155 232.147 150.95 232.424 150.78 232.701C150.611 232.987 150.629 233.317 150.78 233.576L127.817 239.418L138.331 240.454L166.69 234.3C169.249 234.255 172.023 234.166 174.956 233.996C175.59 233.96 176.098 233.46 176.134 232.826C176.143 232.71 176.142 232.585 176.142 232.451C176.169 230.593 175.821 227.225 173.53 223.626C173.476 223.545 173.449 223.456 173.458 223.358L173.628 219.954C173.637 219.758 173.779 219.588 173.967 219.535C174.163 219.481 174.359 219.418 174.564 219.356C174.751 219.293 174.876 219.115 174.867 218.909C174.742 214.595 173.414 169.433 170.489 148.79C170.417 148.29 171.086 148.066 171.336 148.504C176.651 157.937 197.839 196.016 205.393 216.569C205.464 216.774 205.678 216.891 205.892 216.864C205.963 216.855 206.044 216.837 206.124 216.828C206.347 216.792 206.561 216.917 206.632 217.123L207.792 220.419C207.836 220.544 207.818 220.669 207.765 220.785C207.328 221.625 207.051 222.768 207.328 224.287C207.836 227.065 208.781 231.441 210.511 235.131L210.11 234.943L165.45 240.999L172.023 243.009L214.569 239.347C214.81 239.4 215.06 239.436 215.318 239.445C216.638 239.507 218.35 239.373 219.911 238.605C221.168 237.98 221.819 236.64 221.534 235.345Z" fill="url(#paint0_linear_360_5604)"/>
<path d="M6.22461 55.2589C6.22461 47.845 12.2262 41.8335 19.628 41.8335H133.579C139.866 41.8335 145.047 46.7642 145.368 53.0526L153.778 218.525C154.027 223.447 150.157 227.601 145.243 227.69L14.643 230.066C10.0236 230.146 6.23353 226.422 6.23353 221.795L6.22461 55.2589Z" fill="url(#paint1_linear_360_5604)"/>
<path d="M15.5607 44.388C15.5428 42.0209 17.6296 40.1808 19.9749 40.5024C35.5364 42.6194 89.0429 49.149 133.284 45.7547C135.299 45.6028 137.056 47.1302 137.163 49.1579L145.983 215.372C146.107 217.65 144.369 219.597 142.095 219.731C123.492 220.83 46.8619 225.099 19.5291 222.232C17.8614 222.053 16.604 220.651 16.5951 218.981L15.5607 44.388Z" fill="#3BAF7F"/>
<path opacity="0.6" d="M17.3986 48.5506C17.3807 46.2729 19.3872 44.5042 21.6434 44.8079C36.6163 46.8445 88.1073 53.1329 130.69 49.8637C132.634 49.7118 134.319 51.1857 134.417 53.1329L142.907 213.085C143.023 215.283 141.355 217.159 139.161 217.284C121.255 218.347 47.5138 222.447 21.2064 219.686C19.6012 219.517 18.3884 218.168 18.3795 216.56L17.3986 48.5506Z" fill="white"/>
<path opacity="0.49" d="M75.3275 79.4655L77.3162 104.342C77.3786 105.173 78.529 105.825 79.9559 105.852C87.8837 105.986 112.586 106.334 126.542 105.905C128.121 105.861 129.369 105.119 129.423 104.199C129.69 99.5366 130.27 85.9505 128.442 80.2784C128.147 79.3584 126.792 78.6884 125.187 78.6527L78.3239 77.6969C76.6295 77.6701 75.2473 78.483 75.3275 79.4655Z" fill="white"/>
<g opacity="0.6">
<path d="M28.7045 76.3301C28.0535 76.3033 27.6522 76.8035 27.8127 77.4377L28.2586 79.1528C28.4191 79.787 29.0879 80.314 29.7479 80.3229L70.1185 80.7695C70.7695 80.7785 71.3045 80.2515 71.2956 79.5905L71.2867 78.9831C71.2778 78.331 70.7427 77.7772 70.0828 77.7504L28.7045 76.3301Z" fill="white"/>
</g>
<g opacity="0.6">
<path d="M28.3217 85.066C27.6707 85.0392 27.2694 85.5394 27.4299 86.1736L27.8758 87.8886C28.0363 88.5228 28.7051 89.0498 29.365 89.0588L69.7357 89.5054C70.3867 89.5143 70.9217 88.9873 70.9128 88.3263L70.9039 87.7189C70.895 87.0668 70.3599 86.513 69.7 86.4862L28.3217 85.066Z" fill="white"/>
</g>
<g opacity="0.6">
<path d="M28.6959 131.568C28.0449 131.559 27.6793 132.05 27.8933 132.676L28.357 134.033C28.571 134.65 29.2755 135.159 29.9265 135.159H76.1472C76.7982 135.159 77.3243 134.623 77.3065 133.971L77.2976 133.649C77.2798 132.997 76.7269 132.452 76.0759 132.434L28.6959 131.568Z" fill="white"/>
</g>
<g opacity="0.6">
<path d="M29.5433 141.144C28.8923 141.126 28.491 141.635 28.6694 142.269L29.1331 143.966C29.3026 144.6 29.9803 145.118 30.6313 145.118H71.0019C71.6529 145.118 72.1791 144.582 72.1612 143.93L72.1434 143.332C72.1256 142.68 71.5816 142.126 70.9306 142.117L29.5433 141.144Z" fill="white"/>
</g>
<g opacity="0.6">
<path d="M126.837 114.865C127.488 114.865 128.005 114.329 127.969 113.677L127.925 112.676C127.898 112.024 127.336 111.479 126.685 111.47L28.4742 110.354C27.8232 110.345 27.5468 110.809 27.8589 111.381L29.2055 113.819C29.5176 114.391 30.3113 114.865 30.9712 114.865H126.837Z" fill="white"/>
</g>
<g opacity="0.6">
<path d="M28.4645 119.733C27.8135 119.724 27.537 120.188 27.8492 120.76L29.1957 123.198C29.5078 123.77 30.3015 124.243 30.9614 124.243H126.836C127.487 124.243 128.004 123.707 127.969 123.055L127.924 122.055C127.897 121.403 127.335 120.858 126.684 120.849L28.4645 119.733Z" fill="white"/>
</g>
<g opacity="0.6">
<path d="M28.4201 155.802C28.7233 156.695 29.7846 157.312 30.9884 157.312L128.977 156.668C130.082 156.659 130.974 155.963 130.947 155.105C130.921 154.274 130.047 153.614 128.968 153.614L30.9706 153.265C29.2406 153.265 27.9743 154.516 28.4201 155.802Z" fill="white"/>
</g>
<g opacity="0.6">
<path d="M28.4201 173.247C28.7233 174.14 29.7846 174.756 30.9884 174.756L128.977 174.113C130.082 174.104 130.974 173.408 130.947 172.55C130.921 171.719 130.047 171.058 128.968 171.058L30.9706 170.71C29.2406 170.71 27.9743 171.96 28.4201 173.247Z" fill="white"/>
</g>
<g opacity="0.6">
<path d="M28.4201 190.692C28.7233 191.585 29.7846 192.202 30.9884 192.202L128.977 191.559C130.082 191.55 130.974 190.853 130.947 189.995C130.921 189.165 130.047 188.504 128.968 188.504L30.9706 188.155C29.2406 188.155 27.9743 189.406 28.4201 190.692Z" fill="white"/>
</g>
<g opacity="0.6">
<path d="M28.4201 208.137C28.7233 209.03 29.7846 209.647 30.9884 209.647L128.977 209.003C130.082 208.994 130.974 208.298 130.947 207.44C130.921 206.61 130.047 205.949 128.968 205.949L30.9706 205.6C29.2406 205.591 27.9743 206.851 28.4201 208.137Z" fill="white"/>
</g>
<path opacity="0.49" d="M130.02 148.406H82.6842C82.1758 148.406 81.7656 147.995 81.7656 147.486V131.024C81.7656 130.514 82.1758 130.104 82.6842 130.104H130.02C130.528 130.104 130.938 130.514 130.938 131.024V147.486C130.938 147.995 130.528 148.406 130.02 148.406Z" fill="white"/>
<path opacity="0.49" d="M26.7344 57.7241V68.2554C26.7344 69.3898 27.6351 70.3098 28.7676 70.3366L125.855 72.5161C127.023 72.5429 127.978 71.605 127.978 70.4349V63.3425C127.978 62.2439 127.121 61.3327 126.025 61.2702L28.9371 55.6517C27.7421 55.5803 26.7344 56.5271 26.7344 57.7241Z" fill="white"/>
<path d="M83.6671 19.2792C79.5471 16.4119 75.9711 16.4655 73.4563 17.2158C71.1555 17.8946 69.6663 20.1188 69.8892 22.5038L70.9772 34.3838L83.9079 35.5361C83.899 35.5272 91.7377 24.9066 83.6671 19.2792ZM77.9865 28.8636C76.203 28.8636 74.7583 27.4166 74.7583 25.6301C74.7583 23.8436 76.203 22.3966 77.9865 22.3966C79.7701 22.3966 81.2147 23.8436 81.2147 25.6301C81.2147 27.4166 79.7611 28.8636 77.9865 28.8636Z" fill="#3D4A26"/>
<path d="M72.2614 29.3817C72.1008 29.3817 71.9671 29.2566 71.9492 29.0958L71.7798 27.2022C71.762 27.0325 71.8868 26.8806 72.0652 26.8627C72.2435 26.8449 72.3862 26.9699 72.404 27.1486L72.5735 29.0423C72.5913 29.212 72.4665 29.3638 72.2881 29.3817C72.2792 29.3817 72.2703 29.3817 72.2614 29.3817ZM71.9225 25.6747C71.762 25.6747 71.6282 25.5497 71.6104 25.3889L71.4766 23.9508C71.2715 21.673 72.6983 19.556 74.8743 18.9129C76.417 18.4574 78.0044 18.3948 79.6007 18.7164C79.7701 18.7521 79.8771 18.9129 79.8414 19.0826C79.8058 19.2523 79.6452 19.3595 79.4758 19.3238C77.9865 19.0201 76.4973 19.0826 75.0526 19.5025C73.1621 20.0652 71.9136 21.9053 72.1008 23.8883L72.2346 25.3264C72.2524 25.4961 72.1276 25.6479 71.9492 25.6658C71.9403 25.6747 71.9314 25.6747 71.9225 25.6747Z" fill="white"/>
<path d="M53.3281 42.057V36.0812C53.3281 34.0178 55.0314 32.3653 57.0914 32.4368L98.2022 33.8481C100.03 33.9107 101.502 35.3488 101.618 37.1799L101.965 42.9145L53.3281 42.057Z" fill="#3D4A26"/>
<path d="M68.6482 34.6966H66.8824C66.713 34.6966 66.5703 34.5536 66.5703 34.3839C66.5703 34.2142 66.713 34.0713 66.8824 34.0713H68.6482C68.8176 34.0713 68.9603 34.2142 68.9603 34.3839C68.9603 34.5536 68.8265 34.6966 68.6482 34.6966Z" fill="white"/>
<path d="M55.5484 40.181C55.379 40.181 55.2363 40.0381 55.2363 39.8684V37.4567C55.2363 35.5898 56.7523 34.0713 58.6162 34.0713H65.1172C65.2866 34.0713 65.4293 34.2142 65.4293 34.3839C65.4293 34.5536 65.2866 34.6966 65.1172 34.6966H58.6162C57.1001 34.6966 55.8606 35.9382 55.8606 37.4567V39.8684C55.8606 40.0471 55.7179 40.181 55.5484 40.181Z" fill="white"/>
<path d="M36.571 43.5662C36.6691 41.4939 38.3724 39.8682 40.4413 39.8682H112.327C114.913 39.8682 117.125 41.735 117.562 44.2808L117.624 44.6291C118.106 47.425 115.957 49.9796 113.13 49.9796H39.3801C37.6857 49.9796 36.3392 48.5594 36.4194 46.8622L36.571 43.5662Z" fill="#009900"/>
<path d="M63.7091 224.76H1.30273V239.329H63.7091V224.76Z" fill="url(#paint2_linear_360_5604)"/>
<path d="M64.3513 238.4H0.696433C0.31297 238.4 0.00976562 238.087 0.00976562 237.712V232.808H64.815V237.944C64.815 238.194 64.601 238.4 64.3513 238.4Z" fill="url(#paint3_linear_360_5604)"/>
<path d="M64.1275 232.049H0.856101C0.383461 232.049 0 231.665 0 231.191V226.448H64.8052V231.361C64.8142 231.745 64.502 232.049 64.1275 232.049Z" fill="url(#paint4_linear_360_5604)"/>
<path d="M64.8142 226.457H0V224.983C0 224.644 0.27645 224.358 0.624242 224.358H64.1899C64.5288 224.358 64.8142 224.635 64.8142 224.983V226.457Z" fill="url(#paint5_linear_360_5604)"/>
<path d="M121.772 231.29C123.867 232.317 124.616 235.122 123.421 237.569C122.235 240.017 119.569 241.169 117.473 240.142C115.378 239.115 114.629 236.31 115.824 233.862C117.01 231.415 119.676 230.272 121.772 231.29Z" fill="url(#paint6_linear_360_5604)"/>
<path d="M118.277 232.567L116.315 236.604C116.181 236.872 115.86 236.979 115.593 236.854L113.292 235.738C113.024 235.604 112.917 235.282 113.042 235.014L115.004 230.977C115.138 230.709 115.459 230.602 115.726 230.727L118.027 231.843C118.295 231.977 118.411 232.299 118.277 232.567Z" fill="#2B3582"/>
<path d="M115.619 230.227C115.236 232.21 114.353 233.978 113.015 235.56C112.293 236.408 111.134 236.792 109.983 236.56C98.9697 234.345 75.8817 220.053 53.4536 207.565C51.9643 206.735 50.9388 205.797 51.6433 204.359L53.186 201.17C53.8816 199.741 55.5492 200.545 57.1099 201.188C80.8311 210.951 105.988 219.454 114.62 227.333C115.45 228.083 115.824 229.182 115.619 230.227Z" fill="url(#paint7_linear_360_5604)"/>
<path d="M56.6815 198.123L51.6341 208.53C51.5092 208.798 51.1882 208.905 50.9207 208.78L48.5575 207.628C48.2899 207.502 48.1829 207.181 48.3078 206.913L53.3552 196.507C53.4801 196.239 53.8011 196.132 54.0686 196.257L56.4318 197.409C56.6994 197.534 56.8153 197.855 56.6815 198.123Z" fill="#3D4A26"/>
<path d="M33.3436 187.324L28.2962 197.73C28.1713 197.998 27.8503 198.106 27.5828 197.981L25.2196 196.828C24.952 196.703 24.845 196.382 24.9699 196.114L30.0173 185.707C30.1422 185.439 30.4632 185.332 30.7307 185.457L33.0939 186.61C33.3704 186.735 33.4774 187.056 33.3436 187.324Z" fill="#3D4A26"/>
<path d="M59.0905 187.351L42.5035 221.526L19.3887 210.263L35.9757 176.096L59.0905 187.351Z" fill="url(#paint8_linear_360_5604)"/>
<path d="M43.3773 219.722L41.2906 224.019L18.1758 212.764L20.2625 208.467L43.3773 219.722Z" fill="url(#paint9_linear_360_5604)"/>
<path d="M42.2262 222.081L41.1918 224.215C40.8707 224.867 40.1306 225.198 39.435 224.992C32.2294 222.849 25.2558 219.508 18.5496 214.81C17.961 214.399 17.7649 213.622 18.077 212.969L19.1203 210.826L42.2262 222.081Z" fill="url(#paint10_linear_360_5604)"/>
<path d="M44.5359 218.918L43.7333 220.58C43.6441 220.776 43.4034 220.856 43.2161 220.758L19.1382 209.03C18.942 208.941 18.8617 208.708 18.9598 208.512L19.7624 206.85C19.8516 206.654 20.0924 206.574 20.2797 206.672L44.3576 218.4C44.5448 218.489 44.6251 218.722 44.5359 218.918Z" fill="url(#paint11_linear_360_5604)"/>
<path d="M44.4288 219.142L43.8403 220.365C43.7689 220.508 43.5995 220.562 43.4568 220.499L19.2005 208.682C19.0579 208.61 19.0043 208.441 19.0668 208.298L19.6553 207.074C19.7267 206.931 19.8961 206.877 20.0388 206.94L44.2951 218.757C44.4378 218.829 44.4913 218.999 44.4288 219.142Z" fill="url(#paint12_linear_360_5604)"/>
<path d="M59.2242 187.074L61.3109 182.778L38.1961 171.523L36.1094 175.819L59.2242 187.074Z" fill="url(#paint13_linear_360_5604)"/>
<path d="M60.3648 184.716L61.3992 182.581C61.7203 181.929 61.5152 181.143 60.9266 180.723C54.7912 176.373 47.871 172.943 40.0323 170.558C39.3457 170.353 38.6055 170.674 38.2934 171.318L37.25 173.461L60.3648 184.716Z" fill="url(#paint14_linear_360_5604)"/>
<path d="M59.3036 188.486L60.1062 186.824C60.2043 186.628 60.1241 186.396 59.9279 186.306L35.85 174.578C35.6538 174.48 35.4219 174.56 35.3327 174.757L34.5301 176.418C34.441 176.615 34.5123 176.847 34.7085 176.936L58.7864 188.664C58.9826 188.763 59.2145 188.682 59.3036 188.486Z" fill="#D35400"/>
<path d="M59.4106 188.271L59.9991 187.047C60.0705 186.904 60.008 186.735 59.8654 186.663L35.6091 174.846C35.4664 174.774 35.297 174.837 35.2256 174.98L34.6371 176.203C34.5657 176.346 34.6281 176.516 34.7708 176.587L59.0271 188.405C59.1787 188.468 59.3481 188.405 59.4106 188.271Z" fill="url(#paint15_linear_360_5604)"/>
<path d="M140.312 159.366L129.209 159.5L133.097 155.838C134.06 154.927 135.541 154.784 136.655 155.507C137.306 155.927 138.02 156.508 138.626 157.267C138.626 157.267 145.555 154.73 148.908 149.058C149.952 150.612 151.173 152.729 152.235 155.364C149.229 157.142 145.323 158.535 140.312 159.366Z" fill="url(#paint16_linear_360_5604)"/>
<path d="M125.875 238.668C128.827 238.927 133.964 239.338 138.003 239.517C140.438 239.624 141.838 239.383 142.641 239.061C142.641 239.15 142.641 239.24 142.632 239.32C142.614 239.749 142.266 240.088 141.838 240.115C134.196 240.544 128.123 240.267 125.956 240.133C125.51 240.106 125.242 239.615 125.474 239.24C125.59 239.043 125.724 238.856 125.875 238.668Z" fill="url(#paint17_linear_360_5604)"/>
<path d="M138.003 239.516C133.963 239.338 128.827 238.927 125.875 238.668C128.782 235.095 138.003 232.692 138.003 232.692H140.607C142.4 235.282 142.658 237.739 142.64 239.07C141.838 239.391 140.438 239.623 138.003 239.516Z" fill="#3D4A26"/>
<path d="M141.053 228.431L140.812 233.264C140.786 233.791 140.393 234.228 139.876 234.3C139.359 234.371 138.654 234.38 137.923 234.139C137.468 233.987 137.129 233.603 137.049 233.139L136.211 228.431H141.053Z" fill="url(#paint18_linear_360_5604)"/>
<path d="M171.285 242.822C172.569 242.616 173.149 241.839 173.39 241.008C173.39 241.017 173.39 241.026 173.399 241.035C173.586 241.91 173.149 242.822 172.275 243.25C171.223 243.768 170.063 243.858 169.163 243.822C168.2 243.777 167.317 243.313 166.835 242.571L166.826 242.563C167.789 243.107 169.145 243.17 171.285 242.822Z" fill="url(#paint19_linear_360_5604)"/>
<path d="M165.238 229.923H167.387C170.66 229.843 172.711 237.891 173.389 241.008C173.148 241.839 172.568 242.616 171.284 242.821C169.144 243.17 167.789 243.107 166.825 242.544C165.06 239.829 164.177 235.854 163.758 233.541C163.276 230.906 165.238 229.923 165.238 229.923Z" fill="#3D4A26"/>
<path d="M167.111 225.439L168.306 230.191C168.448 230.772 168.172 231.379 167.637 231.656C166.968 231.995 166.032 232.362 165.167 232.254C164.757 232.201 164.427 231.915 164.293 231.54L162.545 226.538L167.111 225.439Z" fill="url(#paint20_linear_360_5604)"/>
<path d="M125.152 162.849C125.152 162.849 135.809 229.592 135.64 229.958C135.64 229.958 138.582 231.298 141.793 230.128C141.793 230.128 140.83 194.452 138.574 180.768C138.574 180.768 156.766 212.656 162.544 228.547C162.544 228.547 165.559 228.19 168.056 226.546C168.056 226.546 148.463 169.147 143.238 161.5L125.152 162.849Z" fill="url(#paint21_linear_360_5604)"/>
<path d="M138.137 180.625C138.226 180.625 138.324 180.598 138.414 180.545C138.654 180.393 138.726 180.071 138.574 179.83L134.588 173.452C134.517 173.336 134.392 173.247 134.249 173.22L131.315 172.631C131.039 172.568 130.762 172.756 130.709 173.033C130.655 173.31 130.834 173.586 131.11 173.64L133.821 174.185L137.691 180.366C137.798 180.536 137.968 180.625 138.137 180.625Z" fill="url(#paint22_linear_360_5604)"/>
<path d="M124.056 119.715C125.849 115.946 141.33 115.553 152.673 119.304C155.063 120.09 156.989 121.859 157.988 124.154C161.056 131.202 166.023 147.263 152.236 155.373C151.175 152.738 149.953 150.621 148.91 149.067C151.13 145.315 151.79 140.188 147.849 133.516C144.977 141.287 143.631 152.622 143.345 157.642C143.256 159.295 143.541 160.947 144.192 162.466L144.264 162.635C144.406 162.966 144.21 163.341 143.862 163.412C136.104 165.163 128.025 164.681 125.617 164.484C125.189 164.448 124.832 164.136 124.734 163.725C120.944 147.799 121.363 125.387 124.056 119.715Z" fill="#00A3C4"/>
<path d="M141.007 106.959C141.007 106.959 141.792 115.276 142.488 117.732C142.595 118.107 142.434 118.5 142.095 118.697C140.918 119.367 138.109 120.465 134.257 118.572C133.632 118.268 133.258 117.616 133.285 116.928L133.623 108.889L141.007 106.959Z" fill="url(#paint23_linear_360_5604)"/>
<path d="M133.446 96.3208C133.446 96.3208 130.932 102.1 130.762 105.137C130.593 108.174 129.942 110.139 133.446 110.747C136.951 111.354 139.894 109.612 141.499 106.593C141.499 106.593 144.005 101.939 143.443 100.028C142.881 98.1162 133.446 96.3208 133.446 96.3208Z" fill="url(#paint24_linear_360_5604)"/>
<path d="M140.304 104.414L140.107 104.324C139.858 104.208 139.742 103.914 139.875 103.663C140.366 102.708 141.329 100.519 140.09 100.01C138.484 99.3491 132.135 98.0539 130.77 95.8029C129.451 93.6324 130.619 90.8365 132.376 90.0415C132.492 89.9879 132.634 90.0326 132.688 90.1487L132.83 90.4256C132.929 90.6132 133.214 90.5864 133.267 90.381C133.321 90.1845 133.588 90.1487 133.696 90.3184C134.115 90.9973 135.256 92.0871 138.297 92.6498C142.613 93.4448 145.476 95.1955 145.547 98.1879C145.556 98.3755 145.752 98.4827 145.913 98.3844C146.234 98.1879 146.742 98.0986 147.42 98.6702C148.606 99.6707 148.124 102.261 145.52 104.396C145.396 104.494 145.396 104.691 145.529 104.78C146.002 105.084 146.706 105.816 144.878 106.79C142.997 107.799 141.588 107.719 141.044 107.629C140.91 107.612 140.821 107.478 140.848 107.344L141.427 104.717C141.463 104.566 141.347 104.432 141.195 104.432L140.304 104.414Z" fill="#3D4A26"/>
<path d="M140.188 104.968C140.188 104.968 141.142 101.279 142.8 102.315C144.45 103.351 141.944 106.451 140.616 106.594L140.188 104.968Z" fill="url(#paint25_linear_360_5604)"/>
<path d="M143.185 160.483H114.452C114.247 160.483 114.068 160.313 114.068 160.098V128.79C114.068 128.585 114.238 128.406 114.452 128.406H143.185C143.39 128.406 143.568 128.576 143.568 128.79V160.107C143.568 160.313 143.399 160.483 143.185 160.483Z" fill="url(#paint26_linear_360_5604)"/>
<path d="M139.519 160.5H110.786C110.581 160.5 110.402 160.33 110.402 160.116V128.799C110.402 128.594 110.572 128.415 110.786 128.415H139.519C139.724 128.415 139.902 128.585 139.902 128.799V160.116C139.893 160.33 139.724 160.5 139.519 160.5Z" fill="url(#paint27_linear_360_5604)"/>
<path d="M144.968 154.891C144.968 154.891 144.023 153.31 141.82 153.31C140.678 153.31 139.457 154.408 138.538 155.462C137.736 156.382 137.994 157.82 139.064 158.401C140.072 158.946 141.205 159.634 141.811 160.25C143.077 161.51 144.968 157.41 144.968 154.891Z" fill="url(#paint28_linear_360_5604)"/>
<defs>
<linearGradient id="paint0_linear_360_5604" x1="195.486" y1="19.5002" x2="133.788" y2="259.665" gradientUnits="userSpaceOnUse">
<stop stop-color="#00579F"/>
<stop offset="1" stop-color="#FF6F00"/>
</linearGradient>
<linearGradient id="paint1_linear_360_5604" x1="296.217" y1="-127.661" x2="35.6256" y2="189.414" gradientUnits="userSpaceOnUse">
<stop stop-color="#2E7D32"/>
<stop offset="1" stop-color="#3D4A26"/>
</linearGradient>
<linearGradient id="paint2_linear_360_5604" x1="39.3076" y1="222.682" x2="-0.704068" y2="277.608" gradientUnits="userSpaceOnUse">
<stop stop-color="#233894"/>
<stop offset="0.9964" stop-color="#DD397A"/>
</linearGradient>
<linearGradient id="paint3_linear_360_5604" x1="68.3662" y1="186.127" x2="12.813" y2="262.073" gradientUnits="userSpaceOnUse">
<stop stop-color="#3D4A26"/>
<stop offset="0.9964" stop-color="#FF6F00"/>
</linearGradient>
<linearGradient id="paint4_linear_360_5604" x1="64.4349" y1="185.091" x2="8.87463" y2="261.047" gradientUnits="userSpaceOnUse">
<stop stop-color="#3D4A26"/>
<stop offset="0.9964" stop-color="#FF6F00"/>
</linearGradient>
<linearGradient id="paint5_linear_360_5604" x1="37.8231" y1="156.194" x2="31.9731" y2="231.025" gradientUnits="userSpaceOnUse">
<stop stop-color="#3D4A26"/>
<stop offset="0.9964" stop-color="#D35400"/>
</linearGradient>
<linearGradient id="paint6_linear_360_5604" x1="63.3543" y1="250.028" x2="147.71" y2="228.641" gradientUnits="userSpaceOnUse">
<stop stop-color="#3D4A26"/>
<stop offset="0.9964" stop-color="#D35400"/>
</linearGradient>
<linearGradient id="paint7_linear_360_5604" x1="142.572" y1="244.157" x2="48.4382" y2="203.724" gradientUnits="userSpaceOnUse">
<stop stop-color="#3D4A26"/>
<stop offset="0.9964" stop-color="#D35400"/>
</linearGradient>
<linearGradient id="paint8_linear_360_5604" x1="72.9573" y1="288.477" x2="21.7875" y2="152.85" gradientUnits="userSpaceOnUse">
<stop stop-color="#3D4A26"/>
<stop offset="0.9964" stop-color="#D35400"/>
</linearGradient>
<linearGradient id="paint9_linear_360_5604" x1="22.9016" y1="210.753" x2="81.566" y2="251.509" gradientUnits="userSpaceOnUse">
<stop stop-color="#3D4A26"/>
<stop offset="0.9964" stop-color="#D35400"/>
</linearGradient>
<linearGradient id="paint10_linear_360_5604" x1="31.7023" y1="187.99" x2="30.0315" y2="218.606" gradientUnits="userSpaceOnUse">
<stop stop-color="#D35400"/>
<stop offset="1" stop-color="#FF6F00"/>
</linearGradient>
<linearGradient id="paint11_linear_360_5604" x1="60.5901" y1="204.572" x2="14.71" y2="219.065" gradientUnits="userSpaceOnUse">
<stop stop-color="#3D4A26"/>
<stop offset="0.9964" stop-color="#FF6F00"/>
</linearGradient>
<linearGradient id="paint12_linear_360_5604" x1="33.1577" y1="187.738" x2="31.4654" y2="218.748" gradientUnits="userSpaceOnUse">
<stop stop-color="#D35400"/>
<stop offset="1" stop-color="#FF6F00"/>
</linearGradient>
<linearGradient id="paint13_linear_360_5604" x1="39.8887" y1="176.593" x2="108.171" y2="197.475" gradientUnits="userSpaceOnUse">
<stop stop-color="#3D4A26"/>
<stop offset="0.9964" stop-color="#FF6F00"/>
</linearGradient>
<linearGradient id="paint14_linear_360_5604" x1="35.2112" y1="159.248" x2="53.9416" y2="183.183" gradientUnits="userSpaceOnUse">
<stop stop-color="#D35400"/>
<stop offset="1" stop-color="#FF6F00"/>
</linearGradient>
<linearGradient id="paint15_linear_360_5604" x1="31.7906" y1="161.709" x2="50.6478" y2="185.806" gradientUnits="userSpaceOnUse">
<stop stop-color="#D35400"/>
<stop offset="1" stop-color="#FF6F00"/>
</linearGradient>
<linearGradient id="paint16_linear_360_5604" x1="126.283" y1="135.088" x2="136.356" y2="150.172" gradientUnits="userSpaceOnUse">
<stop stop-color="#F9B776"/>
<stop offset="1" stop-color="#F47960"/>
</linearGradient>
<linearGradient id="paint17_linear_360_5604" x1="142.642" y1="239.507" x2="125.389" y2="239.507" gradientUnits="userSpaceOnUse">
<stop stop-color="#53D8FF"/>
<stop offset="1" stop-color="#3840F7"/>
</linearGradient>
<linearGradient id="paint18_linear_360_5604" x1="141.05" y1="231.391" x2="136.19" y2="231.391" gradientUnits="userSpaceOnUse">
<stop stop-color="#F9B776"/>
<stop offset="1" stop-color="#F47960"/>
</linearGradient>
<linearGradient id="paint19_linear_360_5604" x1="173.437" y1="242.417" x2="166.826" y2="242.417" gradientUnits="userSpaceOnUse">
<stop stop-color="#53D8FF"/>
<stop offset="1" stop-color="#3840F7"/>
</linearGradient>
<linearGradient id="paint20_linear_360_5604" x1="168.344" y1="228.853" x2="162.536" y2="228.853" gradientUnits="userSpaceOnUse">
<stop stop-color="#F9B776"/>
<stop offset="1" stop-color="#F47960"/>
</linearGradient>
<linearGradient id="paint21_linear_360_5604" x1="121.366" y1="166.075" x2="171.071" y2="247.363" gradientUnits="userSpaceOnUse">
<stop stop-color="#D35400"/>
<stop offset="1" stop-color="#3D4A26"/>
</linearGradient>
<linearGradient id="paint22_linear_360_5604" x1="155.907" y1="135.665" x2="125.704" y2="193.756" gradientUnits="userSpaceOnUse">
<stop stop-color="#CB236D"/>
<stop offset="1" stop-color="#4C246D"/>
</linearGradient>
<linearGradient id="paint23_linear_360_5604" x1="139.73" y1="125.687" x2="137.205" y2="112.455" gradientUnits="userSpaceOnUse">
<stop stop-color="#F9B776"/>
<stop offset="1" stop-color="#F47960"/>
</linearGradient>
<linearGradient id="paint24_linear_360_5604" x1="132.922" y1="101.408" x2="147.298" y2="112.389" gradientUnits="userSpaceOnUse">
<stop stop-color="#F9B776"/>
<stop offset="1" stop-color="#F47960"/>
</linearGradient>
<linearGradient id="paint25_linear_360_5604" x1="134.702" y1="99.0767" x2="149.078" y2="110.058" gradientUnits="userSpaceOnUse">
<stop stop-color="#F9B776"/>
<stop offset="1" stop-color="#F47960"/>
</linearGradient>
<linearGradient id="paint26_linear_360_5604" x1="153.261" y1="174.57" x2="72.5115" y2="75.3695" gradientUnits="userSpaceOnUse">
<stop stop-color="#FDF53F"/>
<stop offset="0.1329" stop-color="#F8DC44"/>
<stop offset="1" stop-color="#D93C65"/>
</linearGradient>
<linearGradient id="paint27_linear_360_5604" x1="133.786" y1="134.782" x2="87.1798" y2="186.824" gradientUnits="userSpaceOnUse">
<stop stop-color="#FDF53F"/>
<stop offset="0.1329" stop-color="#F8DC44"/>
<stop offset="1" stop-color="#D93C65"/>
</linearGradient>
<linearGradient id="paint28_linear_360_5604" x1="138.623" y1="151.75" x2="145.262" y2="161.693" gradientUnits="userSpaceOnUse">
<stop stop-color="#F9B776"/>
<stop offset="1" stop-color="#F47960"/>
</linearGradient>
</defs>
</svg>
