<svg width="30" height="30" viewBox="0 0 30 30" fill="none" xmlns="http://www.w3.org/2000/svg">
<g clip-path="url(#clip0_360_9798)">
<path d="M0 29.9996C0.231387 29.1578 0.448607 28.3583 0.665827 27.5588C1.11916 25.9034 1.58193 24.2479 2.02109 22.5878C2.06359 22.4279 2.0447 22.2116 1.96443 22.0658C-2.0872 14.7104 0.755549 5.45504 8.25437 1.64096C16.5418 -2.57287 26.6142 1.66447 29.3436 10.5154C31.7519 18.327 27.3225 26.6935 19.4695 29.0873C15.569 30.2771 11.7866 29.9056 8.14104 28.0808C7.99937 28.0103 7.79632 27.9915 7.64521 28.0291C5.20856 28.6546 2.77192 29.2942 0.335275 29.9244C0.240831 29.9526 0.141665 29.9714 0 29.9996ZM3.57941 26.4818C5.07634 26.0915 6.51188 25.72 7.9427 25.3343C8.18826 25.2685 8.37242 25.3014 8.58492 25.4284C11.3474 27.0791 14.3271 27.6247 17.4815 26.9992C24.1823 25.6776 28.5172 19.2299 27.2564 12.5424C26.005 5.89711 19.4554 1.45755 12.7735 2.72263C4.41524 4.30282 0.0613885 13.5817 4.26413 20.9418C4.69857 21.7037 4.78829 22.3292 4.51912 23.1334C4.15552 24.2103 3.90052 25.3296 3.57941 26.4818Z" fill="#3D4A26"/>
<path d="M10.2195 8.0318C10.8665 7.8719 11.1781 8.25284 11.3954 8.8219C11.7354 9.69664 12.1037 10.5573 12.4767 11.4179C12.6042 11.7189 12.5948 11.9823 12.4012 12.2362C12.1084 12.6266 11.8251 13.0263 11.5087 13.4073C11.2962 13.6612 11.2773 13.887 11.4473 14.1738C12.6656 16.2149 14.3656 17.6869 16.585 18.5664C16.892 18.6886 17.1328 18.6322 17.3359 18.3783C17.6995 17.9221 18.0772 17.4753 18.4361 17.0144C18.7006 16.6758 18.8564 16.5958 19.2389 16.7699C20.2919 17.2495 21.3403 17.7481 22.3744 18.2701C22.5019 18.3359 22.6153 18.5711 22.6153 18.7216C22.5916 20.3065 22.1241 21.0636 20.4289 21.7738C19.4656 22.1782 18.4692 22.0842 17.4775 21.8067C13.8792 20.8097 11.2254 18.557 9.1051 15.5847C8.444 14.6629 7.85372 13.7129 7.59873 12.5936C7.23512 10.9852 7.63178 9.58847 8.82177 8.42215C9.20899 8.04121 9.67648 7.95656 10.2195 8.0318Z" fill="#3D4A26"/>
</g>
<defs>
<clipPath id="clip0_360_9798">
<rect width="30" height="30" fill="white"/>
</clipPath>
</defs>
</svg>
