<svg width="250" height="241" viewBox="0 0 250 241" fill="none" xmlns="http://www.w3.org/2000/svg">
<g opacity="0.5" clip-path="url(#clip0_360_3995)">
<path d="M93.2665 54.6513C93.2489 53.7788 92.5169 53.0737 91.6261 53.0737H37.3151C36.4066 53.0737 35.4453 53.7964 35.4453 54.6866V178.602C35.4453 179.263 35.8334 179.897 36.3096 180.364C36.7859 180.831 37.5003 181.096 38.1706 181.096L93.0725 180.946C93.7604 180.946 94.4219 180.673 94.8981 180.197C95.3744 179.721 95.6478 179.069 95.6302 178.408L93.2665 54.6513Z" fill="#C2B280"/>
<path d="M62.081 61.8519L44.3184 61.7902L44.3272 59.6133L62.0722 59.6662L62.081 61.8519Z" fill="white"/>
<path d="M62.1252 69.8544L44.2832 69.7751L44.292 67.5806L62.1076 67.6511L62.1252 69.8544Z" fill="white"/>
<path d="M62.1782 77.9273L44.2656 77.8215L44.2744 75.6182L62.1694 75.7151L62.1782 77.9273Z" fill="white"/>
<path d="M62.2214 86.0621L44.2383 85.9388L44.2471 83.709L62.2126 83.8236L62.2214 86.0621Z" fill="white"/>
<path d="M62.2754 94.2673L44.2129 94.1263L44.2217 91.8789L62.2666 92.0111L62.2754 94.2673Z" fill="white"/>
<path d="M62.3726 110.889L44.1602 110.704L44.169 108.421L62.3638 108.598L62.3726 110.889Z" fill="white"/>
<path d="M62.5316 136.342L44.0898 136.095L44.0987 133.751L62.5228 133.989L62.5316 136.342Z" fill="white"/>
<path d="M62.3284 102.543L44.1953 102.384L44.2041 100.119L62.3196 100.278L62.3284 102.543Z" fill="white"/>
<path d="M62.4246 119.306L44.1328 119.103L44.1416 116.803L62.407 116.997L62.4246 119.306Z" fill="white"/>
<path d="M62.4786 127.784L44.1074 127.555L44.1162 125.237L62.461 125.458L62.4786 127.784Z" fill="white"/>
<path d="M62.5836 144.979L44.0625 144.706L44.0713 142.344L62.5748 142.608L62.5836 144.979Z" fill="white"/>
<path d="M62.6376 153.678L44.0371 153.387L44.0459 151.007L62.6288 151.298L62.6376 153.678Z" fill="white"/>
<path d="M62.6896 162.465L44.0098 162.147L44.0186 159.741L62.6808 160.05L62.6896 162.465Z" fill="white"/>
<path d="M62.7427 171.313L43.9746 170.97L43.9834 168.546L62.7251 168.881L62.7427 171.313Z" fill="white"/>
<path d="M85.3735 61.931L67.4962 61.8693L67.4785 59.6924L85.3382 59.7453L85.3735 61.931Z" fill="white"/>
<path d="M85.5143 69.9599L67.5665 69.8806L67.5488 67.686L85.479 67.7565L85.5143 69.9599Z" fill="white"/>
<path d="M85.664 78.0596L67.6368 77.9626L67.6191 75.7505L85.6199 75.8474L85.664 78.0596Z" fill="white"/>
<path d="M85.8049 86.2209L67.7071 86.0975L67.6895 83.8589L85.7696 83.9735L85.8049 86.2209Z" fill="white"/>
<path d="M85.9565 94.4524L67.7794 94.3114L67.7617 92.0552L85.9212 92.1874L85.9565 94.4524Z" fill="white"/>
<path d="M86.2549 111.127L67.9278 110.942L67.9102 108.65L86.2196 108.827L86.2549 111.127Z" fill="white"/>
<path d="M86.7235 136.668L68.1583 136.421L68.1406 134.068L86.6882 134.315L86.7235 136.668Z" fill="white"/>
<path d="M86.1062 102.754L67.8497 102.596L67.832 100.322L86.0621 100.48L86.1062 102.754Z" fill="white"/>
<path d="M86.4143 119.57L68.0079 119.368L67.9902 117.059L86.3791 117.261L86.4143 119.57Z" fill="white"/>
<path d="M86.564 128.084L68.0782 127.855L68.0605 125.528L86.5288 125.748L86.564 128.084Z" fill="white"/>
<path d="M86.8732 145.331L68.2286 145.058L68.2109 142.688L86.8379 142.952L86.8732 145.331Z" fill="white"/>
<path d="M87.0326 154.065L68.3087 153.775L68.291 151.386L86.9974 151.677L87.0326 154.065Z" fill="white"/>
<path d="M87.1901 162.879L68.3868 162.561L68.3691 160.146L87.1549 160.455L87.1901 162.879Z" fill="white"/>
<path d="M87.3486 171.763L68.4571 171.419L68.4395 168.986L87.3046 169.321L87.3486 171.763Z" fill="white"/>
<path d="M246.878 50.1299C246.842 48.2791 245.343 46.7544 243.5 46.7544H173.922C172.052 46.7544 170.227 48.3584 170.227 50.2357V218.015C170.227 218.922 170.747 219.786 171.382 220.421C172.017 221.055 172.961 221.417 173.86 221.417L246.613 221.214C247.521 221.214 248.403 220.844 249.038 220.192C249.673 219.539 250.026 218.64 250.009 217.733L246.878 50.1299Z" fill="#C2B280"/>
<path d="M195.636 66.5228L175.809 66.4964L175.65 56.2729H195.494L195.636 66.5228Z" fill="white"/>
<path d="M217.852 66.5228L198.052 66.4964L197.92 56.2817H217.746L217.852 66.5228Z" fill="white"/>
<path d="M240.051 66.514L220.269 66.4876L220.154 56.2729H239.954L240.051 66.514Z" fill="white"/>
<path d="M195.883 84.8722L176.092 84.881L175.934 74.7281L195.742 74.7192L195.883 84.8722Z" fill="white"/>
<path d="M218.065 84.8634L198.3 84.8722L198.168 74.7193L217.959 74.7104L218.065 84.8634Z" fill="white"/>
<path d="M240.219 84.8458L220.472 84.8546L220.357 74.7105L240.122 74.7017L240.219 84.8458Z" fill="white"/>
<path d="M196.129 103.098L176.374 103.116L176.215 92.9981L195.988 92.9805L196.129 103.098Z" fill="white"/>
<path d="M218.277 103.081L198.539 103.098L198.406 92.9805L218.162 92.9629L218.277 103.081Z" fill="white"/>
<path d="M240.395 103.054L220.683 103.072L220.568 92.9629L240.298 92.9453L240.395 103.054Z" fill="white"/>
<path d="M196.377 121.262L176.657 121.289L176.498 111.206L196.236 111.18L196.377 121.262Z" fill="white"/>
<path d="M218.478 121.227L198.775 121.253L198.643 111.171L218.363 111.145L218.478 121.227Z" fill="white"/>
<path d="M240.563 121.201L220.886 121.227L220.771 111.153L240.474 111.127L240.563 121.201Z" fill="white"/>
<path d="M196.623 139.356L176.938 139.392L176.779 129.336L196.482 129.3L196.623 139.356Z" fill="white"/>
<path d="M218.691 139.321L199.023 139.356L198.891 129.309L218.576 129.273L218.691 139.321Z" fill="white"/>
<path d="M240.731 139.277L221.081 139.312L220.967 129.274L240.634 129.238L240.731 139.277Z" fill="white"/>
<path d="M196.871 157.397L177.221 157.441L177.062 147.42L196.73 147.376L196.871 157.397Z" fill="white"/>
<path d="M218.894 157.344L199.261 157.388L199.129 147.376L218.779 147.341L218.894 157.344Z" fill="white"/>
<path d="M240.897 157.291L221.283 157.335L221.168 147.332L240.8 147.288L240.897 157.291Z" fill="white"/>
<path d="M197.108 175.367L177.494 175.42L177.344 165.435L196.976 165.382L197.108 175.367Z" fill="white"/>
<path d="M219.097 175.315L199.499 175.367L199.367 165.391L218.982 165.338L219.097 175.315Z" fill="white"/>
<path d="M241.065 175.253L221.486 175.305L221.371 165.338L240.968 165.285L241.065 175.253Z" fill="white"/>
<path d="M197.356 193.285L177.777 193.346L177.627 183.396L197.224 183.343L197.356 193.285Z" fill="white"/>
<path d="M219.307 193.214L199.746 193.276L199.613 183.335L219.193 183.282L219.307 193.214Z" fill="white"/>
<path d="M241.233 193.144L221.689 193.205L221.574 183.264L241.136 183.211L241.233 193.144Z" fill="white"/>
<path d="M197.594 211.132L178.041 211.202L177.891 201.287L197.461 201.226L197.594 211.132Z" fill="white"/>
<path d="M219.51 211.052L199.984 211.123L199.852 201.216L219.405 201.155L219.51 211.052Z" fill="white"/>
<path d="M241.401 210.982L221.892 211.052L221.777 201.146L241.304 201.084L241.401 210.982Z" fill="white"/>
<path d="M69.5954 95.0603C69.5601 93.6414 68.2019 92.478 66.5261 92.478H3.36026C1.6669 92.478 0 93.7031 0 95.1396V223.391C0 224.078 0.467438 224.739 1.04953 225.233C1.6228 225.718 2.4783 225.991 3.29853 225.991L69.3484 225.841C70.1686 225.841 70.9712 225.559 71.5533 225.057C72.1266 224.563 72.4529 223.876 72.4353 223.179L69.5954 95.0603Z" fill="#C2B280"/>
<path d="M23.0716 107.593L5.0708 107.575L4.92969 99.7578H22.9481L23.0716 107.593Z" fill="white"/>
<path d="M43.2433 107.593L25.2602 107.575L25.1367 99.7666H43.1287L43.2433 107.593Z" fill="white"/>
<path d="M63.3945 107.584L45.4379 107.566L45.332 99.7578H63.3063L63.3945 107.584Z" fill="white"/>
<path d="M23.3019 121.624L5.33643 121.633L5.19531 113.868L23.1784 113.859L23.3019 121.624Z" fill="white"/>
<path d="M43.4366 121.615L25.4887 121.624L25.3652 113.868L43.3307 113.859L43.4366 121.615Z" fill="white"/>
<path d="M63.5536 121.597L45.6234 121.606L45.5176 113.85L63.4654 113.841L63.5536 121.597Z" fill="white"/>
<path d="M23.5225 135.557L5.59229 135.575L5.45117 127.837L23.399 127.828L23.5225 135.557Z" fill="white"/>
<path d="M43.622 135.54L25.7094 135.557L25.5859 127.828L43.5162 127.819L43.622 135.54Z" fill="white"/>
<path d="M63.7039 135.513L45.809 135.531L45.7031 127.802L63.6157 127.793L63.7039 135.513Z" fill="white"/>
<path d="M23.7421 149.439L5.83838 149.465L5.69727 141.753L23.6187 141.736L23.7421 149.439Z" fill="white"/>
<path d="M43.8162 149.412L25.9301 149.439L25.8066 141.736L43.7104 141.718L43.8162 149.412Z" fill="white"/>
<path d="M63.863 149.385L45.9945 149.412L45.8887 141.709L63.7748 141.691L63.863 149.385Z" fill="white"/>
<path d="M23.9725 163.267L6.104 163.293L5.96289 155.608L23.849 155.582L23.9725 163.267Z" fill="white"/>
<path d="M44.0017 163.24L26.1508 163.267L26.0273 155.59L43.8958 155.564L44.0017 163.24Z" fill="white"/>
<path d="M64.0133 163.205L46.18 163.231L46.0742 155.555L63.9251 155.528L64.0133 163.205Z" fill="white"/>
<path d="M24.1921 177.06L6.3501 177.095L6.20898 169.436L24.0686 169.41L24.1921 177.06Z" fill="white"/>
<path d="M44.1861 177.015L26.3618 177.05L26.2383 169.4L44.0803 169.374L44.1861 177.015Z" fill="white"/>
<path d="M64.1626 176.98L46.3558 177.015L46.25 169.365L64.0744 169.33L64.1626 176.98Z" fill="white"/>
<path d="M24.4127 190.799L6.60596 190.843L6.46484 183.211L24.2892 183.176L24.4127 190.799Z" fill="white"/>
<path d="M44.3716 190.747L26.5825 190.791L26.459 183.167L44.2657 183.132L44.3716 190.747Z" fill="white"/>
<path d="M64.3207 190.703L46.5492 190.747L46.4434 183.123L64.2325 183.088L64.3207 190.703Z" fill="white"/>
<path d="M24.6323 204.486L6.85205 204.53L6.71094 196.924L24.5089 196.88L24.6323 204.486Z" fill="white"/>
<path d="M44.556 204.434L26.7934 204.478L26.6699 196.88L44.4502 196.836L44.556 204.434Z" fill="white"/>
<path d="M64.4709 204.381L46.7259 204.425L46.6289 196.828L64.3916 196.784L64.4709 204.381Z" fill="white"/>
<path d="M24.8529 218.129L7.10791 218.182L6.9668 210.603L24.7294 210.55L24.8529 218.129Z" fill="white"/>
<path d="M44.7415 218.076L27.0141 218.129L26.8906 210.559L44.6356 210.506L44.7415 218.076Z" fill="white"/>
<path d="M64.6212 218.015L46.9115 218.068L46.8145 210.497L64.5418 210.444L64.6212 218.015Z" fill="white"/>
<path d="M68.4658 11.5364C67.6985 47.5917 65.2202 171.948 66.402 216.014C66.5255 220.685 69.727 224.431 73.7223 224.581C93.4782 225.339 165.878 227.251 198.193 225.665C204.922 225.339 210.276 218.967 210.417 211.087C211.087 173.243 212.569 66.8135 209.05 18.0583C208.627 12.2151 204.702 7.56164 199.719 6.97996C178.199 4.46817 105.473 -1.68352 77.5676 0.431673C72.5317 0.819459 68.5893 5.64034 68.4658 11.5364Z" fill="#3D4A26"/>
<path d="M77.2773 22.5971C76.2101 51.6987 72.8587 148.504 73.9259 184.295C74.0846 189.53 77.6124 193.76 82.084 194.06C100.49 195.32 163.295 198.097 190.291 195.567C195.151 195.109 198.97 190.517 199.235 184.824C200.602 155.141 204.535 64.998 203.512 29.6037C203.353 23.9544 199.605 19.345 194.798 18.8427C174.884 16.7539 108.146 11.7832 85.2061 13.2462C80.8845 13.5194 77.4625 17.5559 77.2773 22.5971Z" fill="#C2B280"/>
<path opacity="0.5" d="M117.273 6.73317C117.273 7.84365 118.014 8.75142 118.958 8.81311C123.624 9.09514 136.765 9.90596 142.639 10.3026C143.794 10.3819 144.702 9.16565 144.482 7.83484L144.447 7.60569C144.297 6.69792 143.653 6.01048 142.868 5.93116C138.899 5.50812 126.922 4.32714 118.984 4.66205C118.023 4.6973 117.273 5.6227 117.273 6.73317Z" fill="white"/>
<path d="M160.164 56.1848H110.157C109.134 56.1848 108.305 55.3564 108.305 54.334V24.0515C108.305 23.0291 109.134 22.2007 110.157 22.2007H160.164C161.187 22.2007 162.016 23.0291 162.016 24.0515V54.3428C162.016 55.3564 161.187 56.1848 160.164 56.1848Z" fill="#D35400"/>
<path d="M149.74 29.6393C149.572 29.4278 149.308 29.3485 149.025 29.3485L123.457 29.8861L122.814 27.8326C122.725 27.5506 122.452 27.3655 122.152 27.3743L118.642 27.4625C118.263 27.4713 117.963 27.7357 117.963 28.1058C117.963 28.4848 118.263 28.7316 118.642 28.7228L121.641 28.6523L127.065 45.988C127.153 46.2789 127.426 46.4816 127.744 46.4816L145.692 46.7195C146.115 46.7284 146.459 46.464 146.459 46.0674C146.459 45.6708 146.115 45.3975 145.692 45.3887L128.264 45.2037L126.862 40.7001L146.009 40.7265C146.406 40.7265 146.75 40.4709 146.856 40.1184L149.881 30.3532C149.96 30.1065 149.907 29.8421 149.74 29.6393Z" fill="white"/>
<path d="M130.372 47.5566C128.899 47.5302 127.699 48.6847 127.699 50.1125C127.699 51.5402 128.899 52.7476 130.372 52.7829C131.853 52.8181 133.07 51.6724 133.07 50.227C133.07 48.7817 131.853 47.583 130.372 47.5566ZM130.372 51.3904C129.684 51.3728 129.119 50.8175 129.119 50.1477C129.119 49.4779 129.675 48.9403 130.372 48.9491C131.059 48.9579 131.633 49.522 131.633 50.2006C131.624 50.8704 131.059 51.408 130.372 51.3904Z" fill="white"/>
<path d="M142.33 47.7416C140.778 47.7152 139.525 48.8962 139.525 50.3592C139.525 51.8222 140.778 53.0561 142.33 53.1001C143.891 53.1442 145.161 51.9632 145.161 50.4826C145.17 48.9931 143.891 47.7681 142.33 47.7416ZM142.33 51.6724C141.607 51.6548 141.016 51.0819 141.016 50.3945C141.016 49.707 141.607 49.1606 142.33 49.1694C143.053 49.187 143.653 49.7599 143.653 50.4473C143.653 51.1436 143.062 51.69 142.33 51.6724Z" fill="white"/>
<path opacity="0.43" d="M133.661 117.817H80.4526C79.9146 117.817 79.4824 117.385 79.4824 116.847V63.0066C79.4824 62.469 79.9146 62.0371 80.4526 62.0371H133.661C134.19 62.0371 134.631 62.469 134.631 63.0066V116.847C134.631 117.385 134.199 117.817 133.661 117.817Z" fill="white"/>
<path d="M118.615 69.5548H94.9516C94.7223 69.5548 94.5371 69.3698 94.5371 69.1406V66.1882C94.5371 65.959 94.7223 65.7739 94.9516 65.7739H118.615C118.844 65.7739 119.029 65.959 119.029 66.1882V69.1406C119.029 69.3698 118.844 69.5548 118.615 69.5548Z" fill="white"/>
<path opacity="0.59" d="M126.156 113.083H87.2177C86.7679 113.083 86.4062 112.722 86.4062 112.273V74.3401C86.4062 73.8906 86.7679 73.5293 87.2177 73.5293H126.156C126.606 73.5293 126.968 73.8906 126.968 74.3401V112.281C126.959 112.722 126.597 113.083 126.156 113.083Z" fill="white"/>
<path opacity="0.43" d="M133.237 186.499H80.0287C79.4908 186.499 79.0586 186.067 79.0586 185.538V131.697C79.0586 131.16 79.4908 130.728 80.0287 130.728H133.237C133.775 130.728 134.207 131.16 134.207 131.697V185.538C134.207 186.067 133.775 186.499 133.237 186.499Z" fill="white"/>
<path d="M119.003 138.237H95.3403C95.111 138.237 94.9258 138.052 94.9258 137.823V134.87C94.9258 134.641 95.111 134.456 95.3403 134.456H119.003C119.233 134.456 119.418 134.641 119.418 134.87V137.823C119.418 138.052 119.233 138.237 119.003 138.237Z" fill="white"/>
<path opacity="0.59" d="M126.447 181.466H87.5087C87.0589 181.466 86.6973 181.105 86.6973 180.655V142.714C86.6973 142.265 87.0589 141.903 87.5087 141.903H126.447C126.897 141.903 127.259 142.265 127.259 142.714V180.655C127.259 181.105 126.897 181.466 126.447 181.466Z" fill="white"/>
<path opacity="0.43" d="M193.899 186.499H140.691C140.153 186.499 139.721 186.067 139.721 185.538V131.697C139.721 131.16 140.153 130.728 140.691 130.728H193.899C194.437 130.728 194.861 131.16 194.861 131.697V185.538C194.861 186.067 194.437 186.499 193.899 186.499Z" fill="white"/>
<path d="M179.734 138.633H156.071C155.841 138.633 155.656 138.448 155.656 138.219V135.267C155.656 135.038 155.841 134.853 156.071 134.853H179.734C179.963 134.853 180.148 135.038 180.148 135.267V138.219C180.148 138.448 179.963 138.633 179.734 138.633Z" fill="white"/>
<path opacity="0.59" d="M187.178 181.863H148.239C147.789 181.863 147.428 181.501 147.428 181.052V143.111C147.428 142.661 147.789 142.3 148.239 142.3H187.178C187.627 142.3 187.989 142.661 187.989 143.111V181.052C187.98 181.501 187.619 181.863 187.178 181.863Z" fill="white"/>
<path opacity="0.43" d="M194.321 117.817H141.113C140.584 117.817 140.143 117.385 140.143 116.847V63.0066C140.143 62.469 140.575 62.0371 141.113 62.0371H194.321C194.859 62.0371 195.283 62.469 195.283 63.0066V116.847C195.291 117.385 194.859 117.817 194.321 117.817Z" fill="white"/>
<path d="M180.423 69.6515H156.76C156.531 69.6515 156.346 69.4664 156.346 69.2373V66.2848C156.346 66.0557 156.531 65.8706 156.76 65.8706H180.423C180.652 65.8706 180.838 66.0557 180.838 66.2848V69.2373C180.838 69.4664 180.652 69.6515 180.423 69.6515Z" fill="white"/>
<path opacity="0.59" d="M186.984 112.687H148.046C147.596 112.687 147.234 112.326 147.234 111.876V73.9436C147.234 73.4942 147.596 73.1328 148.046 73.1328H186.984C187.434 73.1328 187.796 73.4942 187.796 73.9436V111.885C187.787 112.326 187.425 112.687 186.984 112.687Z" fill="white"/>
<path d="M76.5447 237.677C93.1873 237.677 106.681 224.193 106.681 207.562C106.681 190.932 93.1873 177.447 76.5447 177.447C59.9022 177.447 46.4082 190.932 46.4082 207.562C46.4082 224.193 59.9022 237.677 76.5447 237.677Z" fill="#D35400"/>
<path d="M76.5446 233.244C90.9823 233.244 102.695 221.549 102.695 207.113C102.695 192.686 90.9911 180.981 76.5446 180.981C62.1069 180.981 50.3945 192.677 50.3945 207.113C50.3945 221.549 62.1069 233.244 76.5446 233.244Z" fill="#FF6F00"/>
<path d="M77.4263 197.4C75.5213 197.347 74.1807 196.845 73.3781 195.893C72.5844 194.941 72.1875 193.778 72.1875 192.403C72.1875 191.028 72.6197 189.891 73.484 188.992C74.3483 188.094 75.6801 187.644 77.4793 187.644C79.2961 187.644 80.6896 188.058 81.6421 188.887C82.6034 189.724 83.0885 190.914 83.0885 192.456C83.0885 193.998 82.6211 195.223 81.695 196.122C80.7866 197.03 79.3578 197.444 77.4263 197.4Z" fill="white"/>
<path d="M82.596 200.847H72.6387V225.55H82.5872V200.847H82.596Z" fill="white"/>
<path d="M83.9454 225.55H68.7846C68.7228 225.55 68.6699 225.497 68.6699 225.427V224.563C68.6699 224.475 68.7405 224.396 68.8375 224.396H83.9366C84.0072 224.396 84.0601 224.448 84.0601 224.519V225.444C84.0513 225.506 84.0072 225.55 83.9454 225.55Z" fill="white"/>
<path d="M82.5953 201.992H67.3638C67.2756 201.992 67.2051 201.922 67.2051 201.834V200.97C67.2051 200.9 67.258 200.847 67.3286 200.847H82.463C82.5335 200.847 82.5953 200.908 82.5953 200.979V201.992Z" fill="white"/>
<path d="M199.138 86.2998C201.854 85.5418 213.699 93.5972 212.782 105.354C211.865 117.102 217.474 120.619 219.617 126.55C221.76 132.49 230.059 149.958 218.479 152.981C206.899 156.004 205.259 147.958 201.211 149.782C197.154 151.606 188.819 149.465 189.551 143.384C190.283 137.302 190.23 88.8028 199.138 86.2998Z" fill="url(#paint0_linear_360_3995)"/>
<path d="M164.424 88.4771C164.424 88.4771 179.408 111.215 196.8 115.34C196.8 115.34 193.608 125.008 191.024 126.154C191.024 126.154 169.398 108.792 163.604 91.7644L164.424 88.4771Z" fill="url(#paint1_linear_360_3995)"/>
<path d="M222.757 235.104L222.925 239.008C222.96 239.749 223.489 240.374 224.212 240.515C225.438 240.753 227.423 241.053 229.381 241C230.245 240.974 230.862 240.154 230.668 239.317C230.307 237.792 229.619 235.483 228.472 234.064L224.186 233.729C223.392 233.668 222.722 234.311 222.757 235.104Z" fill="#3D4A26"/>
<path d="M192.682 187.212L191.624 191.416C191.624 191.416 192.135 216.155 191.8 226C191.747 227.542 191.227 229.032 190.318 230.283L185.564 236.796L196.774 231.314L197.092 230.027L195.531 227.472L199.976 200.15C200.24 198.546 200.029 196.898 199.376 195.409L197.48 191.073L192.682 187.212Z" fill="url(#paint2_linear_360_3995)"/>
<path d="M184.788 237.73L188.21 237.995C188.854 238.048 189.48 237.801 189.903 237.325C191.076 236.021 193.502 233.491 194.56 233.509C195.989 233.526 195.416 238.559 195.416 238.559L196.209 238.62L197.709 232.425C198.088 230.865 197.418 229.243 196.06 228.388C196.06 228.388 195.548 230.768 193.705 231.693C191.861 232.619 186.155 236.003 186.155 236.003C186.155 236.003 185.502 235.853 184.762 235.932C183.659 236.038 183.694 237.651 184.788 237.73Z" fill="#3D4A26"/>
<path d="M207.207 190.376C207.207 190.376 219.316 218.411 221.089 224.739C222.871 231.067 223.259 236.258 223.25 236.743C223.241 237.501 224.123 238.303 226.734 238.515C228.074 238.62 228.78 238.136 229.141 237.633C229.45 237.21 229.512 236.655 229.309 236.17C228.612 234.443 226.425 228.935 225.649 226.449C224.723 223.488 223.259 210.259 222.253 205.615C221.248 200.979 220.092 195.938 214.518 190.949C214.51 190.949 210.753 186.648 207.207 190.376Z" fill="url(#paint3_linear_360_3995)"/>
<path d="M201.669 145.552C199.217 129.749 209.184 121.694 209.184 121.694C203.76 115.622 193.291 112.229 193.291 112.229C193.291 112.229 182.522 118.874 183.28 124.796C183.721 128.26 188.846 145.798 188.846 145.798C188.846 145.798 194.587 149.086 201.669 145.552Z" fill="#00A3C4"/>
<path d="M209.201 153.863C208.063 149.253 201.678 145.552 201.678 145.552C194.595 149.086 188.854 145.799 188.854 145.799C188.854 145.799 187.116 150.804 187.672 155.625C188.228 160.446 191.632 191.416 191.632 191.416C200.619 193.972 214.942 191.363 214.942 191.363C209.924 180.593 210.338 158.472 209.201 153.863Z" fill="#00A3C4"/>
<path d="M200.751 102.499L202.682 116.107C202.876 117.305 201.818 117.032 200.645 116.715C198.722 116.195 196.271 115.243 195.539 113.657C195.468 113.498 195.433 113.322 195.424 113.145L194.868 103.768C194.824 103.028 195.274 102.34 195.979 102.093L198.537 101.195C199.525 100.833 200.583 101.468 200.751 102.499Z" fill="url(#paint4_linear_360_3995)"/>
<path d="M195.486 91.1034C195.486 91.1034 192.081 92.8748 190.088 98.1628C188.104 103.451 190.088 105.654 192.364 105.795C194.639 105.936 197.999 105.61 201.298 102.032C204.588 98.4713 199.931 88.9705 195.486 91.1034Z" fill="url(#paint5_linear_360_3995)"/>
<path d="M198.688 99.52C198.688 99.52 200.743 91.8524 194.128 92.3019L192.664 93.5181C192.664 93.5181 189.903 89.5786 193.722 87.2871C197.541 84.9957 202.021 86.2648 205.893 90.3718C210.091 94.8137 211.899 100.534 209.289 103.327C206.678 106.121 200.963 103.759 200.963 103.759C200.963 103.759 200.319 102.182 201.175 99.282C201.58 97.9072 199.129 99.7139 199.129 99.7139L198.688 99.52Z" fill="url(#paint6_linear_360_3995)"/>
<path d="M199.49 100.286C199.49 100.286 200.522 96.3381 202.445 97.7218C204.367 99.1055 201.272 101.388 200.055 102.146L199.49 100.286Z" fill="url(#paint7_linear_360_3995)"/>
<path d="M164.59 93.5975C164.502 94.0646 166.222 94.5758 166.989 92.6192C166.927 91.7291 167.042 87.8777 166.434 87.2078C163.188 83.6737 157.182 79.4609 157.182 79.4609C156.362 80.4745 157.217 81.2853 157.217 81.2853L160.18 83.753C159.731 84.8194 159.149 85.736 158.963 86.9875C158.822 87.9305 159.078 88.9 159.634 89.6844C160.189 90.4688 160.948 91.4911 161.645 92.2755C162.967 93.7561 164.59 93.5975 164.59 93.5975Z" fill="url(#paint8_linear_360_3995)"/>
<path d="M163.225 92.0638C163.119 92.0462 163.031 91.9669 163.004 91.8611C162.687 90.7771 161.743 87.807 161.249 87.1724C160.896 86.7141 160.755 86.3175 160.817 85.9562C160.87 85.6477 161.055 85.3921 161.399 85.163C161.496 85.1013 161.628 85.1013 161.725 85.163L164.371 86.9433C164.415 86.9697 164.45 87.0138 164.468 87.0578L165.456 89.0144C165.526 89.1554 165.474 89.3317 165.324 89.411C165.182 89.4815 164.997 89.4286 164.927 89.2788L163.974 87.3927L161.566 85.7711C161.469 85.8592 161.408 85.9562 161.399 86.0531C161.372 86.247 161.478 86.5114 161.716 86.8199C162.369 87.6571 163.454 91.2882 163.577 91.7024C163.621 91.8611 163.533 92.0197 163.374 92.0638C163.313 92.0726 163.269 92.0814 163.225 92.0638Z" fill="url(#paint9_linear_360_3995)"/>
<path d="M204.306 127.846C204.809 128.507 212.385 137.523 214.563 147.588C216.733 157.644 216.001 164.368 216.001 164.368C216.001 164.368 213.796 166.016 214.59 167.18C215.383 168.343 215.172 169.136 216.186 169.366C217.2 169.595 218.461 169.912 218.303 167.911C218.153 165.911 220.543 165.505 220.146 164.298C219.749 163.09 222.457 130.622 209.377 121.818C209.316 121.774 209.254 121.738 209.192 121.694C203.653 123.695 203.503 126.78 204.306 127.846Z" fill="url(#paint10_linear_360_3995)"/>
</g>
<defs>
<linearGradient id="paint0_linear_360_3995" x1="219.675" y1="102.923" x2="245.905" y2="59.3743" gradientUnits="userSpaceOnUse">
<stop stop-color="#E1473D"/>
<stop offset="1" stop-color="#E9605A"/>
</linearGradient>
<linearGradient id="paint1_linear_360_3995" x1="163.603" y1="107.315" x2="196.801" y2="107.315" gradientUnits="userSpaceOnUse">
<stop stop-color="#FEBBBA"/>
<stop offset="1" stop-color="#FF928E"/>
</linearGradient>
<linearGradient id="paint2_linear_360_3995" x1="185.097" y1="266.958" x2="207.811" y2="128.859" gradientUnits="userSpaceOnUse">
<stop stop-color="#FEBBBA"/>
<stop offset="1" stop-color="#FF928E"/>
</linearGradient>
<linearGradient id="paint3_linear_360_3995" x1="208.879" y1="270.893" x2="231.6" y2="132.755" gradientUnits="userSpaceOnUse">
<stop stop-color="#FEBBBA"/>
<stop offset="1" stop-color="#FF928E"/>
</linearGradient>
<linearGradient id="paint4_linear_360_3995" x1="198.462" y1="122.009" x2="199.338" y2="89.9736" gradientUnits="userSpaceOnUse">
<stop stop-color="#FEBBBA"/>
<stop offset="1" stop-color="#FF928E"/>
</linearGradient>
<linearGradient id="paint5_linear_360_3995" x1="190.795" y1="110.917" x2="207.469" y2="74.6423" gradientUnits="userSpaceOnUse">
<stop stop-color="#FEBBBA"/>
<stop offset="1" stop-color="#FF928E"/>
</linearGradient>
<linearGradient id="paint6_linear_360_3995" x1="202.767" y1="92.7394" x2="228.997" y2="49.1909" gradientUnits="userSpaceOnUse">
<stop stop-color="#E1473D"/>
<stop offset="1" stop-color="#E9605A"/>
</linearGradient>
<linearGradient id="paint7_linear_360_3995" x1="195.136" y1="112.911" x2="211.811" y2="76.6372" gradientUnits="userSpaceOnUse">
<stop stop-color="#FEBBBA"/>
<stop offset="1" stop-color="#FF928E"/>
</linearGradient>
<linearGradient id="paint8_linear_360_3995" x1="171.303" y1="102.735" x2="193.749" y2="141.622" gradientUnits="userSpaceOnUse">
<stop stop-color="#FEBBBA"/>
<stop offset="1" stop-color="#FF928E"/>
</linearGradient>
<linearGradient id="paint9_linear_360_3995" x1="170.294" y1="100.302" x2="161.903" y2="86.4507" gradientUnits="userSpaceOnUse">
<stop stop-color="#FEBBBA"/>
<stop offset="1" stop-color="#FF928E"/>
</linearGradient>
<linearGradient id="paint10_linear_360_3995" x1="212.208" y1="150.554" x2="211.346" y2="105.555" gradientUnits="userSpaceOnUse">
<stop stop-color="#FEBBBA"/>
<stop offset="1" stop-color="#FF928E"/>
</linearGradient>
<clipPath id="clip0_360_3995">
<rect width="250" height="241" fill="white"/>
</clipPath>
</defs>
</svg>
