<svg width="13" height="13" viewBox="0 0 13 13" fill="none" xmlns="http://www.w3.org/2000/svg">
<path d="M5.85875 12.9998C4.62105 12.9998 3.37927 13.0038 2.14156 12.9998C1.05449 12.9957 0.207642 12.2794 0.0244284 11.2089C0.00407141 11.0949 0.00407141 10.9769 0.00407141 10.8589C0 8.38424 0 5.9096 0 3.43496C0 2.38079 0.692139 1.54235 1.7222 1.33477C1.85249 1.31035 1.98277 1.29407 2.11713 1.29407C3.44848 1.29 4.77983 1.29 6.11118 1.29407C6.59975 1.29407 6.92139 1.71736 6.77075 2.15287C6.68118 2.42556 6.43689 2.59244 6.12747 2.59244C5.24804 2.59244 4.36862 2.59244 3.4892 2.59244C3.04134 2.59244 2.59349 2.59244 2.1497 2.59244C1.65299 2.59244 1.29878 2.93433 1.29878 3.43089C1.29471 5.90553 1.29471 8.3761 1.29878 10.8507C1.29878 11.3514 1.64485 11.6933 2.14563 11.6933C4.6129 11.6973 7.08425 11.6973 9.55152 11.6933C10.0604 11.6933 10.4024 11.3432 10.4024 10.8385C10.4024 9.30816 10.4024 7.78186 10.4024 6.25149C10.4024 5.759 10.8666 5.43746 11.3063 5.62876C11.5913 5.75493 11.7053 5.98693 11.7053 6.28812C11.7053 7.14285 11.7053 7.9935 11.7053 8.84823C11.7053 9.51166 11.7094 10.1792 11.7053 10.8426C11.7012 11.9334 10.9724 12.7881 9.89759 12.9672C9.76323 12.9916 9.6248 12.9876 9.48638 12.9876C8.27717 12.9998 7.06796 12.9998 5.85875 12.9998Z" fill="#737373"/>
<path d="M11.6486 2.22636C11.612 2.2752 11.5875 2.33219 11.5427 2.37696C9.81646 4.10676 8.08611 5.8325 6.35984 7.5623C6.17255 7.74953 5.96084 7.85535 5.68805 7.79023C5.2117 7.6722 5.03256 7.11459 5.34606 6.74014C5.38677 6.69537 5.43156 6.65059 5.47227 6.60989C7.1904 4.88823 8.90854 3.1747 10.6267 1.45711C10.6674 1.41641 10.7285 1.38791 10.7773 1.35535C10.7651 1.335 10.7529 1.31465 10.7447 1.29837C10.6918 1.29837 10.6389 1.29837 10.586 1.29837C9.86939 1.29837 9.15282 1.30244 8.43625 1.2943C8.1594 1.2943 7.9599 1.15185 7.85404 0.899499C7.75226 0.655291 7.7889 0.419224 7.96397 0.215717C8.1024 0.061052 8.27747 0 8.48104 0C9.09582 0.00407013 9.7106 0 10.3254 0C10.9809 0 11.6364 0 12.2919 0C12.7438 0 13.0003 0.256418 13.0003 0.708203C13.0003 1.98215 13.0003 3.2561 13.0003 4.53413C13.0003 4.85567 12.8089 5.09987 12.5199 5.17721C12.243 5.25047 11.9336 5.13651 11.8033 4.88009C11.7422 4.76205 11.7137 4.6196 11.7137 4.48935C11.7056 3.80557 11.7097 3.11772 11.7097 2.43394C11.7097 2.38103 11.7097 2.32404 11.7097 2.27113C11.6852 2.25485 11.669 2.23857 11.6486 2.22636Z" fill="#737373"/>
</svg>
