<svg width="15" height="13" viewBox="0 0 15 13" fill="none" xmlns="http://www.w3.org/2000/svg">
<g clip-path="url(#clip0_360_4480)">
<path d="M14.9811 8.63601C14.8829 7.6416 14.4147 6.76192 13.648 6.13468C14.1088 5.27796 14.2598 4.33327 14.0823 3.38475C13.9086 2.43242 13.4139 1.57569 12.6964 0.971397C11.9826 0.363277 11.1631 0.0381818 10.2568 0.0037599C9.03701 -0.0459606 7.96828 0.397699 7.07326 1.31944C7.03927 1.28502 7.00529 1.2506 6.9713 1.21618C6.02719 0.28296 4.91692 -0.114804 3.67447 0.0305325C2.83233 0.126149 2.11103 0.412998 1.52946 0.88343C0.955438 1.35004 0.513595 1.99641 0.219033 2.80723C0.139728 3.02906 0.0981873 3.25472 0.060423 3.47655C0.0415408 3.57599 0.026435 3.66778 0.00755287 3.75957L0 3.78634V4.47478L0.00755287 4.50538C0.0113293 4.52068 0.0151057 4.53215 0.0188822 4.54745C0.0226586 4.55892 0.026435 4.57805 0.026435 4.58187C0.132175 5.54186 0.536254 6.38328 1.23112 7.0832C2.37538 8.24207 3.52341 9.40476 4.66767 10.5636L6.7787 12.7016C6.80514 12.7284 6.83535 12.7552 6.86178 12.7819C6.87689 12.7934 6.89199 12.8087 6.9071 12.824L7.09592 12.9999L8.59894 11.4739C9.24471 12.2121 10.1473 12.6557 11.1254 12.7131C12.2243 12.7743 13.2742 12.3497 14.0143 11.5542C14.7319 10.7663 15.0869 9.70308 14.9811 8.63601ZM11.3482 11.3247H11.3444C10.0869 11.3209 9.06722 10.2844 9.06722 9.01082C9.06722 8.39505 9.30513 7.81753 9.73565 7.38152C10.1662 6.94551 10.7364 6.70838 11.3482 6.70838C11.3482 6.70838 11.3482 6.70838 11.352 6.70838C12.6095 6.70838 13.6292 7.74486 13.6292 9.01847C13.6292 9.63424 13.3912 10.2118 12.9569 10.6516C12.5227 11.0876 11.9524 11.3247 11.3482 11.3247ZM7.77946 8.1847C7.6284 8.86548 7.66239 9.5501 7.88142 10.2156C7.63217 10.4757 7.38293 10.7281 7.12236 10.9958L7.07704 11.0417C6.66163 10.621 6.24622 10.2003 5.83082 9.77958C4.63746 8.57099 3.40634 7.32415 2.19411 6.09643C1.16692 5.04465 1.09139 3.48037 2.01284 2.3674C2.49245 1.78605 3.17221 1.44183 3.92372 1.39593C3.98036 1.39211 4.03323 1.39211 4.0861 1.39211C4.77341 1.39211 5.41918 1.65219 5.92523 2.13027C6.12915 2.32533 6.3293 2.53186 6.52568 2.73074C6.62009 2.82635 6.7145 2.9258 6.81269 3.02141C6.83157 3.04054 6.84668 3.05583 6.87311 3.07878C6.88444 3.09026 6.89577 3.10173 6.91088 3.1132L7.0997 3.28914L7.28097 3.10555C7.38293 3.00229 7.48112 2.89902 7.5793 2.79576C7.79456 2.57393 7.99471 2.35975 8.20997 2.15322C8.85574 1.52215 9.73187 1.2659 10.6118 1.44565C11.4879 1.62541 12.1941 2.20294 12.5491 3.03289C12.9003 3.85136 12.8588 4.67366 12.4282 5.47684C12.4056 5.47302 12.3829 5.46537 12.3603 5.46154C12.1828 5.41947 11.9977 5.3774 11.8089 5.35063C10.9214 5.22441 10.0151 5.45007 9.25982 5.98552C8.50075 6.51332 7.97583 7.29738 7.77946 8.1847Z" fill="#6E6E6E"/>
<path d="M12.9268 8.33398H9.77344V9.70704H12.9268V8.33398Z" fill="#6E6E6E"/>
</g>
<defs>
<clipPath id="clip0_360_4480">
<rect width="15" height="13" fill="white"/>
</clipPath>
</defs>
</svg>
