<svg width="26" height="26" viewBox="0 0 26 26" fill="none" xmlns="http://www.w3.org/2000/svg">
<g clip-path="url(#clip0_199_244)">
<path d="M12.9957 25.9723C10.8458 25.9723 8.69588 25.9819 6.53635 25.9723C3.33561 25.953 0.732603 23.8224 0.115594 20.6891C0.0384676 20.2939 0.0095453 19.8793 0.0095453 19.484C-9.54805e-05 15.165 -0.00973626 10.8363 0.0095453 6.5172C0.0191861 3.3261 2.1498 0.752012 5.28305 0.125361C5.70724 0.0385943 6.15072 0.00967199 6.58455 0.00967199C10.8554 3.12126e-05 15.1263 3.12126e-05 19.4068 0.00967199C22.6461 0.0193128 25.2587 2.14992 25.8757 5.3121C25.9625 5.73629 25.9818 6.17977 25.9818 6.6136C25.9914 10.8748 25.9914 15.136 25.9818 19.3973C25.9722 22.5112 23.9862 25.0853 21.0168 25.7987C20.4673 25.9337 19.8888 25.9723 19.3297 25.9819C17.2183 25.9916 15.107 25.9723 12.9957 25.9723ZM6.49779 12.7933C6.35318 16.3315 9.17792 19.3298 12.8125 19.484C16.3314 19.6383 19.3297 16.8039 19.4936 13.1886C19.6478 9.66009 16.8134 6.64253 13.1788 6.49791C9.65032 6.3533 6.65204 9.17805 6.49779 12.7933ZM21.2385 6.01588C21.2482 5.29282 20.6697 4.71437 19.9563 4.70473C19.2333 4.70473 18.6548 5.27354 18.6548 5.98695C18.6548 6.71001 19.214 7.28846 19.937 7.2981C20.6408 7.30774 21.2289 6.72929 21.2385 6.01588Z" fill="white"/>
<path d="M16.8906 12.9955C16.8906 15.1358 15.136 16.8904 12.9957 16.8904C10.8362 16.8904 9.09119 15.1358 9.09119 12.9762C9.10083 10.836 10.8554 9.09098 13.0053 9.10063C15.1456 9.10063 16.8906 10.8456 16.8906 12.9955Z" fill="white"/>
</g>
<defs>
<clipPath id="clip0_199_244">
<rect width="25.9819" height="25.9819" fill="white"/>
</clipPath>
</defs>
</svg>
