<svg width="26" height="26" viewBox="0 0 14 26" fill="none" xmlns="http://www.w3.org/2000/svg">
<path d="M11.2337 0C11.673 0.0418388 12.1123 0.0627582 12.5307 0.104597C12.8236 0.125516 13.1374 0.167355 13.4303 0.188275C13.4303 1.56895 13.4303 2.92872 13.4303 4.3094C13.3257 4.3094 13.242 4.3094 13.1583 4.3094C12.2588 4.33032 11.3802 4.3094 10.4806 4.35123C9.39281 4.41399 8.78615 4.99974 8.74431 6.08754C8.70247 7.19627 8.72339 8.305 8.72339 9.41373C8.72339 9.43465 8.74431 9.45557 8.74431 9.51833C10.2296 9.51833 11.7358 9.51833 13.2629 9.51833C13.0537 11.0664 12.8654 12.5935 12.6772 14.1415C11.3592 14.1415 10.0622 14.1415 8.74431 14.1415C8.74431 14.2461 8.72339 14.3089 8.72339 14.3925C8.72339 18.1999 8.72339 22.0072 8.72339 25.8145C8.72339 25.8773 8.72339 25.9401 8.74431 25.9819C7.15443 25.9819 5.56456 25.9819 3.99561 25.9819C3.99561 25.8773 3.97469 25.7727 3.97469 25.6472C3.97469 21.9235 3.97469 18.2208 3.97469 14.4971C3.97469 14.3925 3.97469 14.2879 3.97469 14.1415C2.63584 14.1415 1.33884 14.1415 0 14.1415C0 12.5935 0 11.0664 0 9.51833C1.31792 9.51833 2.61492 9.51833 3.97469 9.51833C3.97469 9.39281 3.97469 9.28821 3.97469 9.18362C3.97469 7.97029 3.95377 6.75697 3.99561 5.56456C4.05836 4.1002 4.47675 2.78228 5.5018 1.69447C6.27582 0.857695 7.25903 0.397469 8.34684 0.167355C8.63971 0.104597 8.93258 0.0627582 9.24637 0C9.91579 0 10.5852 0 11.2337 0Z" fill="white"/>
</svg>
