<svg width="21" height="26" viewBox="0 0 21 26" fill="none" xmlns="http://www.w3.org/2000/svg">
<g clip-path="url(#clip0_199_250)">
<path d="M11.4392 0C11.9629 0.0694052 12.4866 0.107263 13.004 0.201906C14.6887 0.511075 16.2282 1.15465 17.5848 2.22097C19.1558 3.45764 20.2032 5.02872 20.7017 6.96576C21.0172 8.18351 21.0108 9.40756 20.8405 10.6379C20.6197 12.2216 20.1023 13.6981 19.2063 15.0294C17.9886 16.8402 16.3481 18.058 14.2091 18.5501C13.086 18.8088 11.9503 18.8593 10.8272 18.487C9.97542 18.2031 9.22458 17.774 8.68196 16.9664C8.49898 17.6352 8.32863 18.2599 8.15196 18.8845C7.84279 19.9887 7.59672 21.1118 7.09195 22.1592C6.50516 23.3832 5.79849 24.5316 5.02872 25.6421C4.98456 25.7052 4.87098 25.7809 4.8142 25.7683C4.7511 25.7556 4.68801 25.6421 4.67539 25.56C4.39777 23.8375 4.19586 22.1087 4.4861 20.3736C4.66908 19.2757 4.98456 18.2031 5.24956 17.1178C5.64075 15.5278 6.03825 13.9441 6.42314 12.3604C6.45469 12.2342 6.43576 12.0828 6.39159 11.9566C5.88051 10.5433 5.79218 9.13625 6.46099 7.74815C6.88374 6.87112 7.54624 6.22123 8.54946 6.06349C9.91233 5.84897 10.9029 6.58719 11.0102 7.9816C11.067 8.69458 10.884 9.38232 10.6884 10.0574C10.3792 11.1048 10.0574 12.1459 9.73566 13.1807C9.13625 15.0925 10.6884 16.3733 12.3226 16.2408C14.0829 16.102 15.2818 15.1303 16.1399 13.6665C16.8528 12.4488 17.1494 11.1048 17.2251 9.70411C17.2819 8.68827 17.1936 7.69767 16.8213 6.73862C16.2282 5.19277 15.1682 4.06967 13.6665 3.41978C11.3257 2.40394 8.95958 2.46073 6.68183 3.59645C4.6186 4.62491 3.40086 6.34742 3.06645 8.6441C2.833 10.2594 3.19895 11.7421 4.19586 13.0545C4.32836 13.2312 4.35991 13.4141 4.30943 13.6223C4.17062 14.146 4.03812 14.676 3.893 15.206C3.78574 15.6099 3.63431 15.673 3.24943 15.4837C2.42287 15.0862 1.79192 14.4678 1.29977 13.7107C0.16405 11.9629 -0.252382 10.0448 0.113573 7.98791C0.820244 4.13276 3.17371 1.74144 6.83957 0.561551C7.786 0.258692 8.76399 0.100953 9.75459 0.0441669C9.8303 0.0378574 9.89971 0.0189287 9.97542 0C10.4613 0 10.9471 0 11.4392 0Z" fill="white"/>
</g>
<defs>
<clipPath id="clip0_199_250">
<rect width="20.9541" height="25.7746" fill="white"/>
</clipPath>
</defs>
</svg>
