<svg width="26" height="26" viewBox="0 0 26 26" fill="none" xmlns="http://www.w3.org/2000/svg">
<path d="M24.2299 0C22.8639 1.60845 21.4978 3.21971 20.1289 4.82816C18.445 6.80844 16.7583 8.7859 15.0744 10.7634C15.027 10.8197 14.9796 10.8789 14.9155 10.9577C18.2833 15.9155 21.6539 20.8704 25.044 25.8535C24.952 25.8619 24.8907 25.8704 24.8321 25.8704C22.4903 25.8704 20.1484 25.8704 17.8065 25.876C17.6421 25.876 17.5556 25.8169 17.4664 25.6873C15.2946 22.4873 13.12 19.2901 10.9454 16.0929C10.8897 16.0112 10.8311 15.9324 10.7614 15.831C10.1258 16.5774 9.50407 17.3042 8.88515 18.031C6.70498 20.5943 4.52761 23.1549 2.34187 25.7098C2.26659 25.7971 2.12441 25.8647 2.01289 25.8676C1.3633 25.8816 0.713711 25.876 0 25.876C3.27861 22.0253 6.52377 18.2141 9.77729 14.3943C9.72989 14.3183 9.68807 14.2507 9.64068 14.1831C6.49589 9.5521 3.34831 4.92675 0.203519 0.298591C0.139397 0.202817 0.0836381 0.0985914 0.0223035 0C2.50635 0 4.9904 0 7.47724 0C7.49676 0.0366196 7.51348 0.0760562 7.53579 0.109859C9.63232 3.19718 11.7316 6.28168 13.8309 9.369C13.8616 9.41407 13.8867 9.46759 13.9174 9.52674C16.6495 6.3183 19.3399 3.16056 22.0303 0C22.7635 0 23.4967 0 24.2299 0ZM22.0107 24.2507C21.9327 24.1323 21.8825 24.0563 21.8295 23.9802C20.4802 22.0281 19.128 20.076 17.7787 18.1239C14.0484 12.7324 10.3154 7.34083 6.59068 1.94366C6.44849 1.73802 6.30631 1.6676 6.06376 1.67042C5.13816 1.6845 4.21536 1.67605 3.28976 1.67605C3.2117 1.67605 3.13364 1.6845 3.0277 1.69014C3.08624 1.78028 3.12249 1.84507 3.16431 1.90422C8.28017 9.29857 13.3932 16.6901 18.5063 24.0845C18.5983 24.2169 18.6931 24.2676 18.852 24.2676C19.8194 24.2591 20.7841 24.2647 21.7515 24.2619C21.824 24.2647 21.8964 24.2563 22.0107 24.2507Z" fill="white"/>
</svg>
