<svg width="26" height="26" viewBox="0 0 26 26" fill="none" xmlns="http://www.w3.org/2000/svg">
<path d="M15.0688 25.9819C13.6656 25.9819 12.2625 25.9819 10.8593 25.9819C10.7576 25.9683 10.6627 25.948 10.561 25.9412C8.5749 25.8057 6.582 25.6904 4.59588 25.521C2.58264 25.3448 0.799872 23.7316 0.521951 21.7321C0.298258 20.1461 0.230472 18.5397 0.101679 16.9401C0.0542286 16.303 0.0338929 15.6591 0 15.022C0 13.6664 0 12.3176 0 10.962C0.0135572 10.8536 0.0338929 10.7451 0.0406715 10.6367C0.183022 8.61686 0.291479 6.59027 0.460943 4.57045C0.630408 2.4964 2.43351 0.666364 4.50098 0.469804C6.28374 0.300356 8.07329 0.151242 9.86283 0.069907C13.7131 -0.099541 17.5565 0.0427953 21.3864 0.456248C23.481 0.67992 25.3044 2.4354 25.5078 4.51622C25.684 6.29204 25.8264 8.06785 25.9077 9.85044C26.084 13.7003 25.9416 17.5434 25.5281 21.3729C25.3112 23.4063 23.7318 25.1753 21.7118 25.4668C20.1527 25.6904 18.5665 25.7582 16.9939 25.8802C16.3499 25.9277 15.706 25.948 15.0688 25.9819ZM12.8929 18.9939C14.7027 18.8786 16.4245 18.7837 18.1395 18.6617C18.9394 18.6007 19.6647 18.3228 20.2069 17.7128C20.4374 17.4553 20.6611 17.1164 20.7289 16.7843C21.217 14.351 21.2102 11.9042 20.7967 9.45055C20.6814 8.78631 20.3629 8.27119 19.8138 7.92552C19.4613 7.70862 19.0681 7.49851 18.6682 7.42395C17.8955 7.28161 17.1091 7.22061 16.3296 7.16639C13.4962 6.96983 10.6695 7.03083 7.84282 7.3155C7.19207 7.38328 6.58878 7.58662 6.06683 7.98652C5.65334 8.2983 5.32796 8.68464 5.22628 9.21332C4.75856 11.6466 4.75856 14.0799 5.17206 16.5199C5.27374 17.1232 5.55166 17.5976 6.02616 17.9636C6.48032 18.3228 6.99549 18.5736 7.57167 18.6143C9.368 18.7634 11.1711 18.8719 12.8929 18.9939Z" fill="white"/>
<path d="M11.0626 9.88428C12.7573 10.9281 14.418 11.9448 16.1127 12.9886C14.418 14.0256 12.7573 15.0491 11.0626 16.0861C11.0626 14.0053 11.0626 11.9719 11.0626 9.88428Z" fill="white"/>
</svg>
