<svg width="25" height="25" viewBox="0 0 25 25" fill="none" xmlns="http://www.w3.org/2000/svg">
<g clip-path="url(#clip0_199_3401)">
<path d="M0 13.2371C0 12.7477 0 12.2584 0 11.769C0.0122279 11.6834 0.0305698 11.5977 0.0427978 11.5121C0.103937 11.0595 0.134507 10.6068 0.220103 10.1603C0.690878 7.67066 1.82808 5.51749 3.60724 3.71911C5.47811 1.83509 7.72194 0.64228 10.3448 0.189626C10.8156 0.110105 11.2925 0.0611696 11.7694 0C12.2585 0 12.7476 0 13.2367 0C13.3101 0.0122339 13.3774 0.0305848 13.4507 0.0428187C14.1233 0.146807 14.8141 0.207977 15.4867 0.367017C21.9002 1.90237 26.0333 8.34965 24.7799 14.8397C24.2602 17.5373 23.0007 19.8373 20.9709 21.6846C18.079 24.321 14.6552 25.3731 10.7789 24.8777C8.30888 24.5657 6.13842 23.5503 4.27366 21.9048C2.07875 19.9657 0.703106 17.5495 0.195647 14.6562C0.110051 14.1852 0.0611397 13.7081 0 13.2371ZM9.53167 13.7264C6.68256 11.6712 6.68256 8.02545 8.50453 5.9518C10.4365 3.74969 13.7197 3.48055 15.8841 5.34622C16.9479 6.26376 17.5899 7.41375 17.7183 8.81453C17.9078 10.8576 17.1069 12.4786 15.4683 13.7203C18.238 14.8459 20.0171 16.8277 20.8303 19.6905C24.4069 15.69 24.7432 8.75336 19.901 4.34304C15.0954 -0.0367016 7.70971 0.636164 3.72952 5.82946C-0.0183418 10.7169 1.41844 16.7849 4.16972 19.666C4.97677 16.8155 6.76816 14.8459 9.53167 13.7264ZM12.6987 23.5442C12.9616 23.5197 13.4324 23.5013 13.897 23.4402C15.7679 23.2077 17.4615 22.5287 18.9777 21.4155C19.6197 20.9445 19.6136 20.9322 19.418 20.1493C18.5253 16.473 15.0098 14.1546 11.2925 14.7847C8.25997 15.2985 5.86329 17.7698 5.44754 20.8282C5.43531 20.9016 5.49034 21.0117 5.54537 21.0607C7.5752 22.6878 9.8924 23.5075 12.6987 23.5442ZM12.4847 13.1576C14.5635 13.1698 16.2631 11.4876 16.2937 9.38953C16.3243 7.322 14.6185 5.5909 12.5336 5.56643C10.4488 5.54196 8.73074 7.23024 8.70017 9.34059C8.6696 11.4204 10.3815 13.1453 12.4847 13.1576Z" fill="#6E6E6E"/>
</g>
<defs>
<clipPath id="clip0_199_3401">
<rect width="25" height="25" fill="white"/>
</clipPath>
</defs>
</svg>
