<svg width="28" height="25" viewBox="0 0 28 25" fill="none" xmlns="http://www.w3.org/2000/svg">
<g clip-path="url(#clip0_1028_13)">
<path d="M28 4.38896C27.7977 5.06674 27.5898 5.74452 27.3984 6.4223C26.507 9.57785 25.6211 12.7279 24.7352 15.8834C24.5656 16.4779 24.3195 16.6667 23.7125 16.6667C18.8945 16.6667 14.0711 16.6667 9.25312 16.6667C8.59141 16.6667 8.21406 16.9667 8.20859 17.4945C8.20313 18.0223 8.59141 18.3334 9.24219 18.3334C14.0328 18.3334 18.8289 18.3334 23.6195 18.3334C23.7125 18.3334 23.8 18.3334 23.893 18.3334C24.3633 18.3556 24.7133 18.7056 24.7188 19.1556C24.7242 19.6223 24.3688 19.9834 23.882 19.9945C23.4719 20.0056 23.0617 19.9945 22.6461 20.0112C23.3188 20.1612 23.8766 20.4945 24.2703 21.0723C24.6586 21.6445 24.7844 22.2834 24.6695 22.9723C24.4781 24.1167 23.357 25.039 22.2031 24.9945C20.8906 24.939 19.9063 23.9612 19.8078 22.6112C19.7148 21.4001 20.6008 20.2945 21.9461 20.0112C18.2656 20.0112 14.6672 20.0112 11.118 20.0112C11.3695 20.1223 11.6922 20.2112 11.9547 20.389C12.2281 20.5723 12.4906 20.8167 12.6766 21.089C12.857 21.3556 12.9938 21.6779 13.0594 21.9945C13.125 22.3223 13.1195 22.6834 13.0648 23.0112C12.8625 24.1667 11.7359 25.0501 10.5984 24.989C9.30234 24.9223 8.33437 23.9834 8.225 22.6445C8.14297 21.589 8.76094 20.3556 10.2812 19.9556C9.75625 19.9556 9.22578 20.0001 8.70625 19.9445C7.66719 19.839 6.80859 19.0001 6.62266 17.9945C6.42031 16.8834 6.90156 15.8279 7.86406 15.2945C7.91875 15.2612 7.97344 15.2334 8.05 15.189C7.06016 10.6945 6.07031 6.18896 5.08594 1.66674C4.15625 1.66674 3.24297 1.66674 2.33516 1.66674C1.925 1.66674 1.51484 1.64452 1.10469 1.6723C0.590625 1.70563 0.21875 1.53896 0 1.05563C0 0.905632 0 0.761187 0 0.611187C0.175 0.277854 0.39375 0.00563151 0.803906 0.00563151C2.44453 7.59549e-05 4.08516 7.59549e-05 5.72578 0.00563151C6.14141 0.00563151 6.42578 0.250076 6.54062 0.655632C6.59531 0.850076 6.62812 1.05008 6.67188 1.25008C6.825 1.93896 6.97812 2.63341 7.13125 3.33341C7.26797 3.33341 7.37734 3.33341 7.48125 3.33341C13.9508 3.33341 20.4258 3.33896 26.8953 3.32785C27.4039 3.32785 27.7812 3.46674 28 3.94452C28 4.09452 28 4.24452 28 4.38896ZM26.0859 5.01674C19.8734 5.01674 13.6938 5.01674 7.49766 5.01674C8.23047 8.35563 8.95234 11.6723 9.67969 14.989C14.2297 14.989 18.7523 14.989 23.2859 14.989C24.2156 11.6667 25.1508 8.35563 26.0859 5.01674ZM11.4844 22.5056C11.4844 22.0501 11.1125 21.6723 10.6695 21.6723C10.2211 21.6723 9.84922 22.0501 9.84922 22.5001C9.84922 22.9556 10.2211 23.3334 10.6641 23.3334C11.107 23.3334 11.4844 22.9556 11.4844 22.5056ZM23.0781 22.5112C23.0836 22.0556 22.7117 21.6779 22.2688 21.6723C21.8203 21.6667 21.4484 22.0445 21.443 22.4945C21.4375 22.9501 21.8094 23.3279 22.2523 23.3334C22.6953 23.339 23.0727 22.9612 23.0781 22.5112Z" fill="#D35400"/>
</g>
<defs>
<clipPath id="clip0_1028_13">
<rect width="28" height="25" fill="white"/>
</clipPath>
</defs>
</svg>
