<svg width="25" height="25" viewBox="0 0 25 25" fill="none" xmlns="http://www.w3.org/2000/svg">
<g clip-path="url(#clip0_199_3393)">
<path d="M5.29172 10.5361C4.20624 10.5361 3.11228 10.5361 2.0268 10.5361C0.805631 10.5361 0 9.73872 0 8.50865C0 6.35392 0 4.1907 0 2.03597C0 0.814388 0.814111 0 2.0268 0C4.19776 0 6.36024 0 8.53121 0C9.71845 0 10.5326 0.805904 10.5326 1.98507C10.541 4.17374 10.5326 6.3624 10.5326 8.55107C10.5326 9.72175 9.72693 10.5277 8.56513 10.5277C7.47117 10.5446 6.38569 10.5361 5.29172 10.5361ZM8.61601 8.61893C8.61601 6.37089 8.61601 4.15677 8.61601 1.93417C6.3772 1.93417 4.15536 1.93417 1.92503 1.93417C1.92503 4.17374 1.92503 6.38785 1.92503 8.61893C4.15536 8.61893 6.3772 8.61893 8.61601 8.61893Z" fill="#6E6E6E"/>
<path d="M14.3232 5.23414C14.3232 4.17374 14.3232 3.12183 14.3232 2.06143C14.3317 0.788945 15.1118 0.00849058 16.3839 0.00849058C18.5209 0.00849058 20.658 0.00849058 22.795 0.00849058C24.0501 7.38073e-06 24.8473 0.788945 24.8473 2.06143C24.8557 4.20768 24.8557 6.35393 24.8473 8.50018C24.8473 9.75569 24.0501 10.5361 22.795 10.5361C20.6495 10.5361 18.504 10.5361 16.3585 10.5361C15.1034 10.5361 14.3232 9.75569 14.3147 8.50018C14.3147 7.41433 14.3232 6.31999 14.3232 5.23414ZM16.2482 1.92569C16.2482 4.16526 16.2482 6.38786 16.2482 8.61046C18.487 8.61046 20.7004 8.61046 22.9222 8.61046C22.9222 6.37089 22.9222 4.15678 22.9222 1.92569C20.6919 1.92569 18.4785 1.92569 16.2482 1.92569Z" fill="#6E6E6E"/>
<path d="M5.26628 14.3197C6.3348 14.3197 7.40332 14.3197 8.47185 14.3197C9.76934 14.3282 10.541 15.1002 10.541 16.3981C10.541 18.5359 10.541 20.6736 10.541 22.8114C10.541 24.0584 9.75238 24.8558 8.50577 24.8558C6.35176 24.8643 4.18928 24.8643 2.03528 24.8558C0.805631 24.8558 0 24.0499 0 22.8284C0 20.6736 0 18.5104 0 16.3557C0 15.1256 0.78867 14.3367 2.0268 14.3282C3.1038 14.3197 4.1808 14.3197 5.26628 14.3197ZM8.62449 16.2454C6.3772 16.2454 4.16384 16.2454 1.92503 16.2454C1.92503 18.4765 1.92503 20.6991 1.92503 22.9302C4.16384 22.9302 6.38569 22.9302 8.62449 22.9302C8.62449 20.6991 8.62449 18.485 8.62449 16.2454Z" fill="#6E6E6E"/>
<path d="M23.4056 22.0903C23.8381 22.5144 24.2791 22.9386 24.7116 23.3712C24.983 23.6512 25.0763 23.9905 24.9406 24.3638C24.8134 24.7116 24.559 24.9152 24.2028 24.9831C23.8466 25.0424 23.5583 24.9152 23.3208 24.6607C22.9053 24.2365 22.4898 23.8209 22.0827 23.4052C19.5047 25.017 16.6977 24.1178 15.2985 22.2345C13.8568 20.2918 14.0264 17.5857 15.714 15.8297C17.4016 14.0821 20.0814 13.8192 22.0912 15.185C23.8975 16.415 25.1441 19.2654 23.4056 22.0903ZM16.2313 19.2908C16.2313 20.979 17.5881 22.3448 19.2672 22.3448C20.9548 22.3533 22.3371 20.9705 22.3371 19.2823C22.3371 17.6027 20.9803 16.2454 19.2927 16.2284C17.5881 16.2199 16.2313 17.5857 16.2313 19.2908Z" fill="#6E6E6E"/>
</g>
<defs>
<clipPath id="clip0_199_3393">
<rect width="25" height="25" fill="white"/>
</clipPath>
</defs>
</svg>
