<svg width="25" height="25" viewBox="0 0 25 25" fill="none" xmlns="http://www.w3.org/2000/svg">
<path d="M24.9895 13.0132C24.8471 13.4404 24.6508 13.8431 24.3121 14.1524C23.8752 14.5551 23.3598 14.7663 22.7609 14.7761C22.6382 14.7761 22.5155 14.7761 22.3535 14.7761C22.3535 14.8792 22.3535 14.9725 22.3535 15.0658C22.3535 17.4622 22.3584 19.8586 22.3535 22.255C22.3486 23.5661 21.519 24.6268 20.2673 24.9214C20.0464 24.9754 19.8157 24.9902 19.5899 24.9951C18.3185 25 17.0472 25 15.7758 25C15.2212 25 14.9266 24.7103 14.9266 24.1554C14.9266 22.2795 14.907 20.4037 14.9365 18.5278C14.9512 17.7077 14.3916 17.0939 13.5178 17.1283C12.8355 17.1528 12.1483 17.1332 11.466 17.1332C10.6119 17.1381 10.1161 17.6341 10.1161 18.4885C10.1161 20.3545 10.1161 22.2206 10.1161 24.0915C10.1161 24.7299 9.84614 25 9.208 25C7.97101 25 6.72911 25 5.49212 25C3.84771 25 2.68925 23.8411 2.68925 22.2009C2.68434 19.8389 2.68925 17.472 2.68925 15.11C2.68925 15.0118 2.68925 14.9185 2.68925 14.8055C2.40946 14.781 2.13948 14.781 1.88423 14.7319C1.01048 14.56 0.416525 14.0444 0.13182 13.2096C-0.147976 12.3797 0.0238289 11.6185 0.588329 10.9507C0.66196 10.8623 0.745408 10.7837 0.823947 10.7052C4.00478 7.51326 7.19053 4.32626 10.3763 1.13435C10.8377 0.672756 11.2844 0.201336 11.9323 0C12.325 0 12.7128 0 13.1055 0C13.724 0.196425 14.1658 0.638382 14.6076 1.08525C17.7393 4.22805 20.8809 7.36594 24.0225 10.4989C24.4446 10.9163 24.8226 11.3534 24.9895 11.9377C24.9895 12.2962 24.9895 12.6547 24.9895 13.0132ZM16.3894 23.5317C16.5023 23.5317 16.5858 23.5317 16.6741 23.5317C17.6117 23.5317 18.5493 23.5317 19.4868 23.5317C20.4047 23.5317 20.8858 23.0505 20.8858 22.1273C20.8858 19.4706 20.8858 16.814 20.8858 14.1524C20.8858 13.6024 21.1803 13.3127 21.735 13.3078C22.0786 13.3078 22.4222 13.3127 22.7609 13.3029C23.134 13.2931 23.4285 13.0574 23.5365 12.7038C23.6592 12.2913 23.458 12.0065 23.1831 11.7315C19.8697 8.42664 16.5612 5.11687 13.2528 1.80711C12.7226 1.27676 12.3103 1.28167 11.7703 1.81693C8.82513 4.76331 5.87991 7.70968 2.93469 10.6561C2.52727 11.0636 2.11003 11.4712 1.70751 11.8837C1.44735 12.1489 1.38354 12.4681 1.5308 12.8069C1.67315 13.1359 1.93822 13.3029 2.30147 13.3078C2.6009 13.3127 2.90523 13.3078 3.20467 13.3078C3.87716 13.3078 4.14223 13.5681 4.14223 14.2359C4.14223 16.8926 4.14223 19.5492 4.14223 22.2108C4.14223 23.0161 4.65273 23.5268 5.45285 23.5317C6.42968 23.5317 7.41142 23.5317 8.38825 23.5317C8.46679 23.5317 8.54533 23.5219 8.6386 23.517C8.6386 23.3991 8.6386 23.3009 8.6386 23.2076C8.6386 21.5527 8.62387 19.8979 8.64841 18.243C8.66805 16.9417 9.7136 15.7975 11.0144 15.7091C12.0109 15.6403 13.0172 15.6944 14.0185 15.6993C14.0922 15.6993 14.1658 15.714 14.2345 15.7287C15.5157 16.0086 16.3698 17.0644 16.3796 18.4001C16.3894 20.0059 16.3845 21.6117 16.3845 23.2174C16.3894 23.3107 16.3894 23.409 16.3894 23.5317Z" fill="#6E6E6E"/>
</svg>
