<svg width="337" height="8" viewBox="0 0 337 8" fill="none" xmlns="http://www.w3.org/2000/svg">
<path d="M2.7641e-06 1.39453V0.101418H6.09247V1.39453H3.82138V7.5196H2.2711V1.39453H2.7641e-06ZM7.09581 7.5196V0.101418H8.66421V3.16214H11.8481V0.101418H13.4129V7.5196H11.8481V4.45525H8.66421V7.5196H7.09581ZM14.706 7.5196V0.101418H19.7045V1.39453H16.2744V3.16214H19.4474V4.45525H16.2744V6.22649H19.719V7.5196H14.706ZM24.982 7.5196L22.8594 0.101418H24.5727L25.8006 5.25575H25.8622L27.2169 0.101418H28.6839L30.0349 5.26662H30.1001L31.3281 0.101418H33.0413L30.9188 7.5196H29.3902L27.9776 2.66953H27.9196L26.5106 7.5196H24.982ZM40.2793 3.81051C40.2793 4.61946 40.126 5.30767 39.8193 5.87514C39.515 6.44261 39.0997 6.87606 38.5733 7.17549C38.0493 7.47251 37.4601 7.62102 36.8057 7.62102C36.1464 7.62102 35.5548 7.4713 35.0308 7.17187C34.5068 6.87244 34.0927 6.43899 33.7884 5.87152C33.4841 5.30405 33.332 4.61704 33.332 3.81051C33.332 3.00156 33.4841 2.31335 33.7884 1.74588C34.0927 1.17841 34.5068 0.746162 35.0308 0.449146C35.5548 0.149714 36.1464 -2.49391e-06 36.8057 -2.49391e-06C37.4601 -2.49391e-06 38.0493 0.149714 38.5733 0.449146C39.0997 0.746162 39.515 1.17841 39.8193 1.74588C40.126 2.31335 40.2793 3.00156 40.2793 3.81051ZM38.6892 3.81051C38.6892 3.2865 38.6107 2.8446 38.4537 2.4848C38.2992 2.125 38.0807 1.85213 37.7981 1.66619C37.5156 1.48025 37.1848 1.38728 36.8057 1.38728C36.4265 1.38728 36.0957 1.48025 35.8132 1.66619C35.5307 1.85213 35.3109 2.125 35.154 2.4848C34.9994 2.8446 34.9221 3.2865 34.9221 3.81051C34.9221 4.33451 34.9994 4.77642 35.154 5.13622C35.3109 5.49602 35.5307 5.76889 35.8132 5.95483C36.0957 6.14076 36.4265 6.23373 36.8057 6.23373C37.1848 6.23373 37.5156 6.14076 37.7981 5.95483C38.0807 5.76889 38.2992 5.49602 38.4537 5.13622C38.6107 4.77642 38.6892 4.33451 38.6892 3.81051ZM41.4411 7.5196V0.101418H44.3678C44.9281 0.101418 45.4062 0.201631 45.8022 0.402057C46.2006 0.600069 46.5037 0.88139 46.7114 1.24602C46.9215 1.60824 47.0265 2.03444 47.0265 2.52464C47.0265 3.01726 46.9202 3.44105 46.7077 3.79602C46.4952 4.14858 46.1874 4.41903 45.7841 4.60738C45.3832 4.79574 44.8979 4.88991 44.328 4.88991H42.3684V3.6294H44.0744C44.3739 3.6294 44.6226 3.58835 44.8206 3.50625C45.0186 3.42415 45.1659 3.30099 45.2625 3.13679C45.3615 2.97258 45.411 2.76853 45.411 2.52464C45.411 2.27834 45.3615 2.07067 45.2625 1.90163C45.1659 1.7326 45.0174 1.60461 44.817 1.51768C44.619 1.42834 44.369 1.38366 44.0672 1.38366H43.0095V7.5196H41.4411ZM45.4472 4.14375L47.2909 7.5196H45.5595L43.7557 4.14375H45.4472ZM48.1349 7.5196V0.101418H49.7033V6.22649H52.8835V7.5196H48.1349ZM56.5519 7.5196H53.9222V0.101418H56.5736C57.3198 0.101418 57.9621 0.249927 58.5006 0.546944C59.0391 0.841546 59.4532 1.26534 59.743 1.81832C60.0352 2.3713 60.1813 3.03295 60.1813 3.80326C60.1813 4.57599 60.0352 5.24005 59.743 5.79545C59.4532 6.35085 59.0367 6.77706 58.4933 7.07407C57.9524 7.37109 57.3053 7.5196 56.5519 7.5196ZM55.4906 6.17578H56.4867C56.9503 6.17578 57.3403 6.09368 57.6566 5.92947C57.9754 5.76285 58.2144 5.50568 58.3738 5.15795C58.5356 4.80781 58.6165 4.35625 58.6165 3.80326C58.6165 3.25511 58.5356 2.80717 58.3738 2.45944C58.2144 2.11172 57.9766 1.85575 57.6602 1.69155C57.3439 1.52734 56.9539 1.44524 56.4903 1.44524H55.4906V6.17578ZM62.3066 0.101418V2.91946H61.2054V0.101418H62.3066ZM67.4989 2.23487C67.47 1.94268 67.3456 1.71569 67.1259 1.5539C66.9061 1.39211 66.6079 1.31122 66.2312 1.31122C65.9752 1.31122 65.7591 1.34744 65.5828 1.41988C65.4065 1.48991 65.2713 1.58771 65.1771 1.71328C65.0854 1.83885 65.0395 1.98132 65.0395 2.14069C65.0347 2.27351 65.0624 2.38942 65.1228 2.48842C65.1856 2.58743 65.2713 2.67315 65.38 2.74559C65.4886 2.81562 65.6142 2.8772 65.7567 2.93032C65.8991 2.98103 66.0513 3.0245 66.2131 3.06072L66.8795 3.2201C67.2031 3.29254 67.5001 3.38913 67.7706 3.50987C68.0411 3.63061 68.2753 3.77912 68.4733 3.9554C68.6713 4.13167 68.8246 4.33934 68.9333 4.57841C69.0444 4.81747 69.1011 5.09155 69.1036 5.40064C69.1011 5.85461 68.9852 6.24822 68.7558 6.58146C68.5288 6.91228 68.2004 7.16946 67.7706 7.35298C67.3432 7.53409 66.8276 7.62464 66.2239 7.62464C65.6251 7.62464 65.1035 7.53288 64.6592 7.34936C64.2173 7.16584 63.8719 6.89417 63.6232 6.53437C63.3769 6.17216 63.2477 5.72422 63.2357 5.19055H64.7533C64.7702 5.43927 64.8415 5.64694 64.967 5.81356C65.095 5.97777 65.2653 6.10213 65.4778 6.18665C65.6927 6.26875 65.9354 6.3098 66.2058 6.3098C66.4714 6.3098 66.7021 6.27116 66.8977 6.19389C67.0957 6.11662 67.249 6.00916 67.3577 5.87152C67.4663 5.73388 67.5207 5.57571 67.5207 5.39701C67.5207 5.2304 67.4712 5.09034 67.3722 4.97684C67.2756 4.86335 67.1331 4.76676 66.9447 4.68707C66.7588 4.60738 66.5306 4.53494 66.2602 4.46974L65.4524 4.2669C64.827 4.11477 64.3332 3.87692 63.971 3.55334C63.6087 3.22976 63.4288 2.79389 63.4312 2.24574C63.4288 1.79659 63.5484 1.40419 63.7898 1.06853C64.0337 0.732881 64.3682 0.470878 64.7932 0.282526C65.2182 0.0941737 65.7011 -2.49391e-06 66.242 -2.49391e-06C66.7926 -2.49391e-06 67.2732 0.0941737 67.6837 0.282526C68.0966 0.470878 68.4178 0.732881 68.6472 1.06853C68.8766 1.40419 68.9949 1.79297 69.0021 2.23487H67.4989ZM72.5192 7.5196V0.101418H77.4309V1.39453H74.0876V3.16214H77.1049V4.45525H74.0876V7.5196H72.5192ZM80.0542 0.101418V7.5196H78.4858V0.101418H80.0542ZM81.3446 7.5196V0.101418H84.2713C84.8316 0.101418 85.3097 0.201631 85.7057 0.402057C86.1042 0.600069 86.4072 0.88139 86.6149 1.24602C86.825 1.60824 86.93 2.03444 86.93 2.52464C86.93 3.01726 86.8238 3.44105 86.6113 3.79602C86.3988 4.14858 86.0909 4.41903 85.6876 4.60738C85.2868 4.79574 84.8014 4.88991 84.2315 4.88991H82.2719V3.6294H83.978C84.2774 3.6294 84.5261 3.58835 84.7241 3.50625C84.9221 3.42415 85.0694 3.30099 85.166 3.13679C85.265 2.97258 85.3145 2.76853 85.3145 2.52464C85.3145 2.27834 85.265 2.07067 85.166 1.90163C85.0694 1.7326 84.9209 1.60461 84.7205 1.51768C84.5225 1.42834 84.2726 1.38366 83.9707 1.38366H82.913V7.5196H81.3446ZM85.3508 4.14375L87.1944 7.5196H85.463L83.6592 4.14375H85.3508ZM92.0626 2.23487C92.0336 1.94268 91.9093 1.71569 91.6895 1.5539C91.4698 1.39211 91.1716 1.31122 90.7949 1.31122C90.5389 1.31122 90.3228 1.34744 90.1465 1.41988C89.9702 1.48991 89.835 1.58771 89.7408 1.71328C89.649 1.83885 89.6032 1.98132 89.6032 2.14069C89.5983 2.27351 89.6261 2.38942 89.6865 2.48842C89.7493 2.58743 89.835 2.67315 89.9436 2.74559C90.0523 2.81562 90.1779 2.8772 90.3204 2.93032C90.4628 2.98103 90.615 3.0245 90.7767 3.06072L91.4432 3.2201C91.7668 3.29254 92.0638 3.38913 92.3343 3.50987C92.6047 3.63061 92.839 3.77912 93.037 3.9554C93.235 4.13167 93.3883 4.33934 93.497 4.57841C93.6081 4.81747 93.6648 5.09155 93.6672 5.40064C93.6648 5.85461 93.5489 6.24822 93.3195 6.58146C93.0925 6.91228 92.7641 7.16946 92.3343 7.35298C91.9069 7.53409 91.3913 7.62464 90.7876 7.62464C90.1887 7.62464 89.6672 7.53288 89.2228 7.34936C88.7809 7.16584 88.4356 6.89417 88.1869 6.53437C87.9406 6.17216 87.8114 5.72422 87.7993 5.19055H89.317C89.3339 5.43927 89.4052 5.64694 89.5307 5.81356C89.6587 5.97777 89.8289 6.10213 90.0414 6.18665C90.2564 6.26875 90.499 6.3098 90.7695 6.3098C91.0351 6.3098 91.2657 6.27116 91.4613 6.19389C91.6593 6.11662 91.8127 6.00916 91.9213 5.87152C92.03 5.73388 92.0843 5.57571 92.0843 5.39701C92.0843 5.2304 92.0348 5.09034 91.9358 4.97684C91.8392 4.86335 91.6968 4.76676 91.5084 4.68707C91.3225 4.60738 91.0943 4.53494 90.8238 4.46974L90.0161 4.2669C89.3907 4.11477 88.8968 3.87692 88.5346 3.55334C88.1724 3.22976 87.9925 2.79389 87.9949 2.24574C87.9925 1.79659 88.112 1.40419 88.3535 1.06853C88.5974 0.732881 88.9319 0.470878 89.3569 0.282526C89.7819 0.0941737 90.2648 -2.49391e-06 90.8057 -2.49391e-06C91.3563 -2.49391e-06 91.8368 0.0941737 92.2473 0.282526C92.6603 0.470878 92.9814 0.732881 93.2108 1.06853C93.4402 1.40419 93.5586 1.79297 93.5658 2.23487H92.0626ZM94.4396 1.39453V0.101418H100.532V1.39453H98.261V7.5196H96.7107V1.39453H94.4396ZM110.441 2.69851H108.855C108.826 2.49325 108.767 2.31093 108.677 2.15156C108.588 1.98977 108.473 1.85213 108.333 1.73863C108.193 1.62514 108.031 1.53821 107.848 1.47784C107.667 1.41747 107.47 1.38728 107.258 1.38728C106.874 1.38728 106.539 1.48267 106.254 1.67343C105.969 1.86179 105.748 2.13707 105.591 2.49929C105.434 2.85909 105.356 3.29616 105.356 3.81051C105.356 4.33934 105.434 4.78366 105.591 5.14346C105.751 5.50326 105.973 5.77493 106.258 5.95845C106.543 6.14197 106.872 6.23373 107.247 6.23373C107.457 6.23373 107.651 6.20596 107.83 6.15042C108.011 6.09488 108.172 6.01399 108.312 5.90774C108.452 5.79907 108.568 5.66747 108.659 5.51292C108.754 5.35838 108.819 5.1821 108.855 4.98409L110.441 4.99133C110.4 5.33182 110.298 5.66022 110.134 5.97656C109.972 6.29048 109.753 6.5718 109.478 6.82052C109.205 7.06683 108.879 7.26243 108.5 7.40731C108.123 7.54978 107.697 7.62102 107.221 7.62102C106.56 7.62102 105.968 7.4713 105.446 7.17187C104.927 6.87244 104.517 6.43899 104.215 5.87152C103.916 5.30405 103.766 4.61704 103.766 3.81051C103.766 3.00156 103.918 2.31335 104.222 1.74588C104.526 1.17841 104.939 0.746162 105.461 0.449146C105.983 0.149714 106.569 -2.49391e-06 107.221 -2.49391e-06C107.651 -2.49391e-06 108.05 0.0603668 108.417 0.181106C108.786 0.301844 109.113 0.478122 109.398 0.70994C109.683 0.939344 109.915 1.22067 110.094 1.5539C110.275 1.88714 110.391 2.26868 110.441 2.69851ZM118.383 3.81051C118.383 4.61946 118.23 5.30767 117.923 5.87514C117.619 6.44261 117.203 6.87606 116.677 7.17549C116.153 7.47251 115.564 7.62102 114.909 7.62102C114.25 7.62102 113.659 7.4713 113.135 7.17187C112.611 6.87244 112.196 6.43899 111.892 5.87152C111.588 5.30405 111.436 4.61704 111.436 3.81051C111.436 3.00156 111.588 2.31335 111.892 1.74588C112.196 1.17841 112.611 0.746162 113.135 0.449146C113.659 0.149714 114.25 -2.49391e-06 114.909 -2.49391e-06C115.564 -2.49391e-06 116.153 0.149714 116.677 0.449146C117.203 0.746162 117.619 1.17841 117.923 1.74588C118.23 2.31335 118.383 3.00156 118.383 3.81051ZM116.793 3.81051C116.793 3.2865 116.714 2.8446 116.557 2.4848C116.403 2.125 116.184 1.85213 115.902 1.66619C115.619 1.48025 115.288 1.38728 114.909 1.38728C114.53 1.38728 114.199 1.48025 113.917 1.66619C113.634 1.85213 113.415 2.125 113.258 2.4848C113.103 2.8446 113.026 3.2865 113.026 3.81051C113.026 4.33451 113.103 4.77642 113.258 5.13622C113.415 5.49602 113.634 5.76889 113.917 5.95483C114.199 6.14076 114.53 6.23373 114.909 6.23373C115.288 6.23373 115.619 6.14076 115.902 5.95483C116.184 5.76889 116.403 5.49602 116.557 5.13622C116.714 4.77642 116.793 4.33451 116.793 3.81051ZM119.545 0.101418H121.479L123.522 5.08551H123.609L125.652 0.101418H127.586V7.5196H126.065V2.69126H126.003L124.083 7.48338H123.047L121.128 2.67315H121.066V7.5196H119.545V0.101418ZM128.878 7.5196V0.101418H131.805C132.368 0.101418 132.847 0.208875 133.243 0.42379C133.639 0.63629 133.941 0.9321 134.148 1.31122C134.359 1.68792 134.464 2.12258 134.464 2.6152C134.464 3.10781 134.357 3.54247 134.145 3.91917C133.932 4.29588 133.624 4.58927 133.221 4.79936C132.82 5.00944 132.335 5.11449 131.765 5.11449H129.9V3.8576H131.512C131.813 3.8576 132.062 3.80568 132.258 3.70184C132.456 3.59559 132.603 3.4495 132.7 3.26356C132.799 3.07521 132.848 2.85909 132.848 2.6152C132.848 2.36889 132.799 2.15397 132.7 1.97045C132.603 1.78451 132.456 1.64084 132.258 1.53942C132.06 1.43558 131.809 1.38366 131.504 1.38366H130.447V7.5196H128.878ZM135.482 7.5196V0.101418H137.051V6.22649H140.231V7.5196H135.482ZM142.838 0.101418V7.5196H141.27V0.101418H142.838ZM145.407 7.5196H143.726L146.287 0.101418H148.308L150.866 7.5196H149.185L147.327 1.79659H147.269L145.407 7.5196ZM145.302 4.60376H149.272V5.82805H145.302V4.60376ZM157.963 0.101418V7.5196H156.609L153.381 2.85064H153.327V7.5196H151.758V0.101418H153.135L156.337 4.76676H156.402V0.101418H157.963ZM165.804 2.69851H164.218C164.189 2.49325 164.13 2.31093 164.04 2.15156C163.951 1.98977 163.836 1.85213 163.696 1.73863C163.556 1.62514 163.394 1.53821 163.211 1.47784C163.03 1.41747 162.833 1.38728 162.62 1.38728C162.237 1.38728 161.902 1.48267 161.617 1.67343C161.332 1.86179 161.111 2.13707 160.954 2.49929C160.797 2.85909 160.719 3.29616 160.719 3.81051C160.719 4.33934 160.797 4.78366 160.954 5.14346C161.114 5.50326 161.336 5.77493 161.621 5.95845C161.906 6.14197 162.235 6.23373 162.61 6.23373C162.82 6.23373 163.014 6.20596 163.193 6.15042C163.374 6.09488 163.534 6.01399 163.675 5.90774C163.815 5.79907 163.93 5.66747 164.022 5.51292C164.116 5.35838 164.182 5.1821 164.218 4.98409L165.804 4.99133C165.763 5.33182 165.661 5.66022 165.496 5.97656C165.335 6.29048 165.116 6.5718 164.841 6.82052C164.568 7.06683 164.242 7.26243 163.863 7.40731C163.486 7.54978 163.06 7.62102 162.584 7.62102C161.923 7.62102 161.331 7.4713 160.809 7.17187C160.29 6.87244 159.88 6.43899 159.578 5.87152C159.278 5.30405 159.129 4.61704 159.129 3.81051C159.129 3.00156 159.281 2.31335 159.585 1.74588C159.889 1.17841 160.302 0.746162 160.824 0.449146C161.345 0.149714 161.932 -2.49391e-06 162.584 -2.49391e-06C163.014 -2.49391e-06 163.413 0.0603668 163.78 0.181106C164.149 0.301844 164.476 0.478122 164.761 0.70994C165.046 0.939344 165.278 1.22067 165.457 1.5539C165.638 1.88714 165.754 2.26868 165.804 2.69851ZM166.929 7.5196V0.101418H171.928V1.39453H168.497V3.16214H171.67V4.45525H168.497V6.22649H171.942V7.5196H166.929ZM177.104 0.101418V7.5196H175.535V0.101418H177.104ZM184.599 0.101418V7.5196H183.244L180.017 2.85064H179.962V7.5196H178.394V0.101418H179.77L182.972 4.76676H183.038V0.101418H184.599ZM185.612 1.39453V0.101418H191.705V1.39453H189.433V7.5196H187.883V1.39453H185.612ZM192.708 7.5196V0.101418H197.706V1.39453H194.276V3.16214H197.449V4.45525H194.276V6.22649H197.721V7.5196H192.708ZM203.872 2.49929C203.822 2.32301 203.75 2.16726 203.659 2.03203C203.567 1.89439 203.455 1.77848 203.322 1.6843C203.191 1.58771 203.042 1.51406 202.873 1.46335C202.706 1.41264 202.521 1.38728 202.318 1.38728C201.939 1.38728 201.606 1.48146 201.319 1.66981C201.034 1.85817 200.812 2.13224 200.652 2.49204C200.493 2.84943 200.413 3.2865 200.413 3.80326C200.413 4.32003 200.492 4.75951 200.649 5.12173C200.806 5.48395 201.028 5.76044 201.315 5.95121C201.602 6.13956 201.942 6.23373 202.333 6.23373C202.688 6.23373 202.991 6.17095 203.242 6.04538C203.496 5.9174 203.689 5.7375 203.822 5.50568C203.957 5.27386 204.024 4.99978 204.024 4.68345L204.343 4.73054H202.431V3.54971H205.535V4.48423C205.535 5.13622 205.397 5.69645 205.122 6.16491C204.847 6.63096 204.468 6.99076 203.985 7.24432C203.502 7.49545 202.949 7.62102 202.326 7.62102C201.63 7.62102 201.019 7.46768 200.493 7.16101C199.966 6.85192 199.556 6.41363 199.261 5.84616C198.969 5.27628 198.823 4.60014 198.823 3.81775C198.823 3.21647 198.91 2.6804 199.084 2.20951C199.26 1.73622 199.506 1.33537 199.823 1.00696C200.139 0.678549 200.507 0.42862 200.928 0.257171C201.348 0.0857219 201.803 -2.49391e-06 202.293 -2.49391e-06C202.713 -2.49391e-06 203.104 0.0615743 203.467 0.184728C203.829 0.305466 204.15 0.476915 204.43 0.699074C204.713 0.921233 204.943 1.18565 205.122 1.49233C205.301 1.79659 205.415 2.13224 205.466 2.49929H203.872ZM206.713 7.5196V0.101418H209.64C210.2 0.101418 210.678 0.201631 211.074 0.402057C211.473 0.600069 211.776 0.88139 211.983 1.24602C212.193 1.60824 212.298 2.03444 212.298 2.52464C212.298 3.01726 212.192 3.44105 211.98 3.79602C211.767 4.14858 211.459 4.41903 211.056 4.60738C210.655 4.79574 210.17 4.88991 209.6 4.88991H207.64V3.6294H209.346C209.646 3.6294 209.894 3.58835 210.092 3.50625C210.29 3.42415 210.438 3.30099 210.534 3.13679C210.633 2.97258 210.683 2.76853 210.683 2.52464C210.683 2.27834 210.633 2.07067 210.534 1.90163C210.438 1.7326 210.289 1.60461 210.089 1.51768C209.891 1.42834 209.641 1.38366 209.339 1.38366H208.281V7.5196H206.713ZM210.719 4.14375L212.563 7.5196H210.831L209.028 4.14375H210.719ZM214.685 7.5196H213.005L215.566 0.101418H217.587L220.144 7.5196H218.463L216.605 1.79659H216.547L214.685 7.5196ZM214.58 4.60376H218.55V5.82805H214.58V4.60376ZM219.848 1.39453V0.101418H225.94V1.39453H223.669V7.5196H222.119V1.39453H219.848ZM226.944 7.5196V0.101418H231.942V1.39453H228.512V3.16214H231.685V4.45525H228.512V6.22649H231.957V7.5196H226.944ZM235.819 7.5196H233.189V0.101418H235.841C236.587 0.101418 237.229 0.249927 237.768 0.546944C238.306 0.841546 238.72 1.26534 239.01 1.81832C239.302 2.3713 239.448 3.03295 239.448 3.80326C239.448 4.57599 239.302 5.24005 239.01 5.79545C238.72 6.35085 238.304 6.77706 237.76 7.07407C237.219 7.37109 236.572 7.5196 235.819 7.5196ZM234.758 6.17578H235.754C236.217 6.17578 236.607 6.09368 236.924 5.92947C237.242 5.76285 237.481 5.50568 237.641 5.15795C237.803 4.80781 237.883 4.35625 237.883 3.80326C237.883 3.25511 237.803 2.80717 237.641 2.45944C237.481 2.11172 237.244 1.85575 236.927 1.69155C236.611 1.52734 236.221 1.44524 235.757 1.44524H234.758V6.17578ZM245.6 7.5196H242.971V0.101418H245.622C246.368 0.101418 247.011 0.249927 247.549 0.546944C248.088 0.841546 248.502 1.26534 248.792 1.81832C249.084 2.3713 249.23 3.03295 249.23 3.80326C249.23 4.57599 249.084 5.24005 248.792 5.79545C248.502 6.35085 248.085 6.77706 247.542 7.07407C247.001 7.37109 246.354 7.5196 245.6 7.5196ZM244.539 6.17578H245.535C245.999 6.17578 246.389 6.09368 246.705 5.92947C247.024 5.76285 247.263 5.50568 247.422 5.15795C247.584 4.80781 247.665 4.35625 247.665 3.80326C247.665 3.25511 247.584 2.80717 247.422 2.45944C247.263 2.11172 247.025 1.85575 246.709 1.69155C246.393 1.52734 246.003 1.44524 245.539 1.44524H244.539V6.17578ZM250.392 7.5196V0.101418H255.39V1.39453H251.96V3.16214H255.133V4.45525H251.96V6.22649H255.405V7.5196H250.392ZM256.637 7.5196V0.101418H261.549V1.39453H258.206V3.16214H261.223V4.45525H258.206V7.5196H256.637ZM262.604 7.5196V0.101418H267.602V1.39453H264.172V3.16214H267.345V4.45525H264.172V6.22649H267.617V7.5196H262.604ZM275.054 0.101418V7.5196H273.699L270.472 2.85064H270.418V7.5196H268.849V0.101418H270.226L273.428 4.76676H273.493V0.101418H275.054ZM282.895 2.69851H281.309C281.28 2.49325 281.221 2.31093 281.131 2.15156C281.042 1.98977 280.927 1.85213 280.787 1.73863C280.647 1.62514 280.485 1.53821 280.302 1.47784C280.121 1.41747 279.924 1.38728 279.711 1.38728C279.327 1.38728 278.993 1.48267 278.708 1.67343C278.423 1.86179 278.202 2.13707 278.045 2.49929C277.888 2.85909 277.81 3.29616 277.81 3.81051C277.81 4.33934 277.888 4.78366 278.045 5.14346C278.204 5.50326 278.427 5.77493 278.712 5.95845C278.997 6.14197 279.326 6.23373 279.7 6.23373C279.91 6.23373 280.105 6.20596 280.284 6.15042C280.465 6.09488 280.625 6.01399 280.765 5.90774C280.905 5.79907 281.021 5.66747 281.113 5.51292C281.207 5.35838 281.272 5.1821 281.309 4.98409L282.895 4.99133C282.854 5.33182 282.751 5.66022 282.587 5.97656C282.425 6.29048 282.207 6.5718 281.932 6.82052C281.659 7.06683 281.333 7.26243 280.954 7.40731C280.577 7.54978 280.151 7.62102 279.675 7.62102C279.013 7.62102 278.422 7.4713 277.9 7.17187C277.381 6.87244 276.971 6.43899 276.669 5.87152C276.369 5.30405 276.22 4.61704 276.22 3.81051C276.22 3.00156 276.372 2.31335 276.676 1.74588C276.98 1.17841 277.393 0.746162 277.915 0.449146C278.436 0.149714 279.023 -2.49391e-06 279.675 -2.49391e-06C280.105 -2.49391e-06 280.503 0.0603668 280.87 0.181106C281.24 0.301844 281.567 0.478122 281.852 0.70994C282.137 0.939344 282.369 1.22067 282.547 1.5539C282.729 1.88714 282.844 2.26868 282.895 2.69851ZM284.02 7.5196V0.101418H289.018V1.39453H285.588V3.16214H288.761V4.45525H285.588V6.22649H289.033V7.5196H284.02ZM292.626 7.5196V0.101418H297.625V1.39453H294.194V3.16214H297.367V4.45525H294.194V6.22649H297.639V7.5196H292.626ZM302.309 3.19836V4.42265H298.926V3.19836H302.309ZM307.677 2.23487C307.648 1.94268 307.524 1.71569 307.304 1.5539C307.084 1.39211 306.786 1.31122 306.409 1.31122C306.153 1.31122 305.937 1.34744 305.761 1.41988C305.585 1.48991 305.449 1.58771 305.355 1.71328C305.263 1.83885 305.218 1.98132 305.218 2.14069C305.213 2.27351 305.241 2.38942 305.301 2.48842C305.364 2.58743 305.449 2.67315 305.558 2.74559C305.667 2.81562 305.792 2.8772 305.935 2.93032C306.077 2.98103 306.229 3.0245 306.391 3.06072L307.058 3.2201C307.381 3.29254 307.678 3.38913 307.949 3.50987C308.219 3.63061 308.453 3.77912 308.651 3.9554C308.849 4.13167 309.003 4.33934 309.111 4.57841C309.223 4.81747 309.279 5.09155 309.282 5.40064C309.279 5.85461 309.163 6.24822 308.934 6.58146C308.707 6.91228 308.379 7.16946 307.949 7.35298C307.521 7.53409 307.006 7.62464 306.402 7.62464C305.803 7.62464 305.282 7.53288 304.837 7.34936C304.395 7.16584 304.05 6.89417 303.801 6.53437C303.555 6.17216 303.426 5.72422 303.414 5.19055H304.931C304.948 5.43927 305.02 5.64694 305.145 5.81356C305.273 5.97777 305.443 6.10213 305.656 6.18665C305.871 6.26875 306.113 6.3098 306.384 6.3098C306.65 6.3098 306.88 6.27116 307.076 6.19389C307.274 6.11662 307.427 6.00916 307.536 5.87152C307.644 5.73388 307.699 5.57571 307.699 5.39701C307.699 5.2304 307.649 5.09034 307.55 4.97684C307.454 4.86335 307.311 4.76676 307.123 4.68707C306.937 4.60738 306.709 4.53494 306.438 4.46974L305.631 4.2669C305.005 4.11477 304.511 3.87692 304.149 3.55334C303.787 3.22976 303.607 2.79389 303.609 2.24574C303.607 1.79659 303.726 1.40419 303.968 1.06853C304.212 0.732881 304.546 0.470878 304.971 0.282526C305.396 0.0941737 305.879 -2.49391e-06 306.42 -2.49391e-06C306.971 -2.49391e-06 307.451 0.0941737 307.862 0.282526C308.275 0.470878 308.596 0.732881 308.825 1.06853C309.055 1.40419 309.173 1.79297 309.18 2.23487H307.677ZM310.054 1.39453V0.101418H316.147V1.39453H313.875V7.5196H312.325V1.39453H310.054ZM323.628 3.81051C323.628 4.61946 323.475 5.30767 323.168 5.87514C322.864 6.44261 322.449 6.87606 321.922 7.17549C321.398 7.47251 320.809 7.62102 320.155 7.62102C319.495 7.62102 318.904 7.4713 318.38 7.17187C317.856 6.87244 317.442 6.43899 317.137 5.87152C316.833 5.30405 316.681 4.61704 316.681 3.81051C316.681 3.00156 316.833 2.31335 317.137 1.74588C317.442 1.17841 317.856 0.746162 318.38 0.449146C318.904 0.149714 319.495 -2.49391e-06 320.155 -2.49391e-06C320.809 -2.49391e-06 321.398 0.149714 321.922 0.449146C322.449 0.746162 322.864 1.17841 323.168 1.74588C323.475 2.31335 323.628 3.00156 323.628 3.81051ZM322.038 3.81051C322.038 3.2865 321.96 2.8446 321.803 2.4848C321.648 2.125 321.43 1.85213 321.147 1.66619C320.864 1.48025 320.534 1.38728 320.155 1.38728C319.775 1.38728 319.445 1.48025 319.162 1.66619C318.88 1.85213 318.66 2.125 318.503 2.4848C318.348 2.8446 318.271 3.2865 318.271 3.81051C318.271 4.33451 318.348 4.77642 318.503 5.13622C318.66 5.49602 318.88 5.76889 319.162 5.95483C319.445 6.14076 319.775 6.23373 320.155 6.23373C320.534 6.23373 320.864 6.14076 321.147 5.95483C321.43 5.76889 321.648 5.49602 321.803 5.13622C321.96 4.77642 322.038 4.33451 322.038 3.81051ZM324.79 7.5196V0.101418H327.717C328.277 0.101418 328.755 0.201631 329.151 0.402057C329.549 0.600069 329.853 0.88139 330.06 1.24602C330.27 1.60824 330.375 2.03444 330.375 2.52464C330.375 3.01726 330.269 3.44105 330.057 3.79602C329.844 4.14858 329.536 4.41903 329.133 4.60738C328.732 4.79574 328.247 4.88991 327.677 4.88991H325.717V3.6294H327.423C327.723 3.6294 327.971 3.58835 328.169 3.50625C328.367 3.42415 328.515 3.30099 328.611 3.13679C328.71 2.97258 328.76 2.76853 328.76 2.52464C328.76 2.27834 328.71 2.07067 328.611 1.90163C328.515 1.7326 328.366 1.60461 328.166 1.51768C327.968 1.42834 327.718 1.38366 327.416 1.38366H326.358V7.5196H324.79ZM328.796 4.14375L330.64 7.5196H328.908L327.105 4.14375H328.796ZM331.484 7.5196V0.101418H336.482V1.39453H333.052V3.16214H336.225V4.45525H333.052V6.22649H336.497V7.5196H331.484Z" fill="black"/>
</svg>
