<svg width="21" height="18" viewBox="0 0 21 18" fill="none" xmlns="http://www.w3.org/2000/svg">
<path d="M21 3.15968C20.8482 3.64779 20.6924 4.13589 20.5488 4.624C19.8803 6.89649 19.2158 9.16498 18.5514 11.4375C18.4242 11.8656 18.2396 12.0016 17.7844 12.0016C14.1709 12.0016 10.5533 12.0016 6.93984 12.0016C6.44355 12.0016 6.16055 12.2176 6.15645 12.5977C6.15234 12.9778 6.44355 13.2019 6.93164 13.2019C10.5246 13.2019 14.1217 13.2019 17.7146 13.2019C17.7844 13.2019 17.85 13.2019 17.9197 13.2019C18.2725 13.2179 18.535 13.4699 18.5391 13.794C18.5432 14.1301 18.2766 14.3901 17.9115 14.3981C17.6039 14.4061 17.2963 14.3981 16.9846 14.4101C17.4891 14.5181 17.9074 14.7582 18.2027 15.1743C18.4939 15.5864 18.5883 16.0465 18.5021 16.5426C18.3586 17.3668 17.5178 18.0309 16.6523 17.9989C15.668 17.9589 14.9297 17.2547 14.8559 16.2825C14.7861 15.4103 15.4506 14.6142 16.4596 14.4101C13.6992 14.4101 11.0004 14.4101 8.33848 14.4101C8.52715 14.4901 8.76914 14.5541 8.96602 14.6822C9.17109 14.8142 9.36797 14.9902 9.50742 15.1863C9.64277 15.3783 9.74531 15.6104 9.79453 15.8384C9.84375 16.0745 9.83965 16.3345 9.79863 16.5706C9.64687 17.4028 8.80195 18.0389 7.94883 17.9949C6.97676 17.9469 6.25078 17.2707 6.16875 16.3065C6.10723 15.5464 6.5707 14.6582 7.71094 14.3701C7.31719 14.3701 6.91934 14.4021 6.52969 14.3621C5.75039 14.2861 5.10645 13.682 4.96699 12.9578C4.81523 12.1576 5.17617 11.3975 5.89805 11.0134C5.93906 10.9894 5.98008 10.9694 6.0375 10.9374C5.29512 7.70066 4.55273 4.45596 3.81445 1.19926C3.11719 1.19926 2.43223 1.19926 1.75137 1.19926C1.44375 1.19926 1.13613 1.18326 0.828516 1.20326C0.442969 1.22727 0.164062 1.10724 0 0.759164C0 0.651141 0 0.547118 0 0.439095C0.13125 0.199043 0.295312 0.00300065 0.60293 0.00300065C1.8334 -0.00100022 3.06387 -0.00100022 4.29434 0.00300065C4.60605 0.00300065 4.81934 0.179039 4.90547 0.471102C4.94648 0.611132 4.97109 0.755163 5.00391 0.899194C5.11875 1.3953 5.23359 1.89541 5.34844 2.39952C5.45098 2.39952 5.53301 2.39952 5.61094 2.39952C10.4631 2.39952 15.3193 2.40352 20.1715 2.39552C20.5529 2.39552 20.8359 2.49554 21 2.83961C21 2.94764 21 3.05566 21 3.15968ZM19.5645 3.61178C14.9051 3.61178 10.2703 3.61178 5.62324 3.61178C6.17285 6.0163 6.71426 8.40482 7.25977 10.7933C10.6723 10.7933 14.0643 10.7933 17.4645 10.7933C18.1617 8.40082 18.8631 6.0163 19.5645 3.61178ZM8.61328 16.2065C8.61328 15.8784 8.33438 15.6064 8.00215 15.6064C7.66582 15.6064 7.38691 15.8784 7.38691 16.2025C7.38691 16.5306 7.66582 16.8026 7.99805 16.8026C8.33027 16.8026 8.61328 16.5306 8.61328 16.2065ZM17.3086 16.2105C17.3127 15.8824 17.0338 15.6104 16.7016 15.6064C16.3652 15.6024 16.0863 15.8744 16.0822 16.1985C16.0781 16.5266 16.357 16.7986 16.6893 16.8026C17.0215 16.8066 17.3045 16.5346 17.3086 16.2105Z" fill="black"/>
</svg>
