<svg width="21" height="17" viewBox="0 0 21 17" fill="none" xmlns="http://www.w3.org/2000/svg">
<g clip-path="url(#clip0_360_368)">
<path d="M20.8829 4.73661C20.4314 2.52499 19.1572 1.04254 17.0912 0.337466C15.0561 -0.355551 13.1324 0.0120495 11.3695 1.44027C11.0788 1.67529 10.819 1.94044 10.5716 2.19355C10.553 2.21162 10.5345 2.23573 10.5159 2.25381C10.4603 2.19957 10.3984 2.14534 10.3427 2.0911C10.0211 1.78376 9.68706 1.46437 9.31593 1.18716C8.13449 0.301309 6.67469 -0.108475 5.20253 0.0421807C3.72418 0.192836 2.39428 0.885853 1.46026 1.99468C-0.123246 3.88089 -0.420154 6.02623 0.575723 8.37646C1.23758 9.94328 2.35098 11.1847 3.2417 12.0826C4.78809 13.6494 6.65614 15.1017 8.95717 16.5299C9.4582 16.8433 9.98397 17 10.5097 17C11.0479 17 11.5984 16.8313 12.1304 16.4998C13.7634 15.4814 15.1922 14.4328 16.4974 13.2939C18.1427 11.8596 19.2314 10.6062 20.0293 9.23218C20.9077 7.70755 21.186 6.23715 20.8829 4.73661ZM18.3097 8.42467C17.6355 9.54555 16.7201 10.5941 15.3407 11.8114C14.1345 12.8781 12.7551 13.9025 11.1159 14.933C10.7015 15.1982 10.3118 15.1982 9.89737 14.933C7.51593 13.4204 5.74067 12.0043 4.29943 10.4856C3.26026 9.38284 2.62315 8.4548 2.23964 7.4665C2.14067 7.20737 2.05407 6.93016 1.99222 6.63488C1.9551 6.46012 1.94273 6.2733 1.93036 6.12265C1.92418 6.06841 1.92418 6.0202 1.91799 5.97802C1.96748 4.50159 2.44995 3.45303 3.43964 2.6877C4.87469 1.56682 6.90356 1.61503 8.36954 2.80219C8.83964 3.18185 9.25407 3.65189 9.61902 4.23644C9.93449 4.73662 10.3118 4.80893 10.5097 4.80893C10.7077 4.80893 11.0788 4.73662 11.3943 4.23644C12.0932 3.13364 12.9283 2.43459 13.9551 2.0911C15.0128 1.73555 16.1324 1.83197 17.0912 2.36831C18.0623 2.91067 18.7551 3.85076 18.9902 4.94753C19.2376 6.1106 19.0149 7.24955 18.3097 8.42467Z" fill="black"/>
</g>
<defs>
<clipPath id="clip0_360_368">
<rect width="21" height="17" fill="white"/>
</clipPath>
</defs>
</svg>
