<svg width="21" height="21" viewBox="0 0 21 21" fill="none" xmlns="http://www.w3.org/2000/svg">
<g clip-path="url(#clip0_360_384)">
<path d="M17.4953 7.00933C12.1192 7.00933 6.77103 7.00933 1.40187 7.00933C1.40187 7.09327 1.40187 7.17022 1.40187 7.24717C1.40187 10.2622 1.40187 13.2841 1.40187 16.2991C1.40187 16.8797 1.66121 17.1456 2.23598 17.1456C5.06776 17.1456 7.89252 17.1456 10.7243 17.1456C10.8294 17.1456 10.9416 17.1526 11.0467 17.1805C11.3692 17.2715 11.5794 17.5793 11.5444 17.9081C11.5164 18.2438 11.236 18.5167 10.8925 18.5376C10.8294 18.5446 10.7593 18.5376 10.6963 18.5376C7.87851 18.5376 5.05374 18.5376 2.23598 18.5376C0.890187 18.5376 0 17.6492 0 16.3061C0 13.0183 0 9.73051 0 6.4427C0 6.16989 0.0771028 5.95303 0.238318 5.73618C1.51402 4.12725 2.78271 2.50433 4.0514 0.874417C4.51402 0.279813 5.10981 0 5.86682 0C8.25701 0.00699534 10.6472 0.00699534 13.0374 0C13.7874 0 14.3902 0.279813 14.8528 0.874417C16.1285 2.51133 17.4112 4.14823 18.6799 5.79214C18.7921 5.93904 18.8902 6.14191 18.8902 6.32378C18.9042 8.28947 18.8972 10.2622 18.8972 12.2278C18.8972 12.5496 18.715 12.8015 18.4346 12.9064C18.1612 13.0043 17.8528 12.9484 17.6846 12.7105C17.5794 12.5566 17.5023 12.3538 17.5023 12.1719C17.4883 10.542 17.4953 8.90506 17.4953 7.27515C17.4953 7.19121 17.4953 7.10726 17.4953 7.00933ZM8.74065 1.39907C7.78738 1.39907 6.85514 1.40606 5.9229 1.39207C5.56542 1.38508 5.32009 1.51099 5.1028 1.79081C4.22664 2.93105 3.34346 4.05729 2.46028 5.19054C2.36215 5.31645 2.27103 5.44237 2.15888 5.58927C4.37383 5.58927 6.55374 5.58927 8.74766 5.58927C8.74065 4.1972 8.74065 2.81213 8.74065 1.39907ZM16.7383 5.58927C16.7103 5.54031 16.7033 5.51932 16.6893 5.50533C15.7009 4.23917 14.7056 2.97302 13.7173 1.69987C13.5561 1.49001 13.3388 1.39207 13.0724 1.39207C12.1612 1.39907 11.25 1.39207 10.3388 1.39207C10.2757 1.39207 10.2126 1.39907 10.1636 1.40606C10.1636 2.81213 10.1636 4.1972 10.1636 5.58228C12.3575 5.58927 14.5374 5.58927 16.7383 5.58927Z" fill="black"/>
<path d="M14.852 16.1033C15.2165 16.4181 15.5459 16.6979 15.8683 16.9847C16.0716 17.1666 16.1417 17.4114 16.0716 17.6772C16.0015 17.95 15.8193 18.1109 15.5459 18.1739C15.3286 18.2229 15.1254 18.1739 14.9501 18.027C14.13 17.3275 13.3099 16.6279 12.4968 15.9214C12.1604 15.6276 12.1534 15.1659 12.4968 14.8651C13.3099 14.1586 14.13 13.459 14.9501 12.7595C15.2515 12.5007 15.6791 12.5496 15.9314 12.8434C16.1768 13.1302 16.1557 13.543 15.8683 13.8088C15.5529 14.0956 15.2165 14.3754 14.859 14.6832C14.9641 14.6902 15.0342 14.6972 15.0973 14.6972C16.0085 14.6972 16.9197 14.6972 17.831 14.6972C19.6464 14.7042 21.0483 16.1592 20.9922 17.971C20.9431 19.5869 19.5763 20.965 17.9641 20.986C16.2398 21.007 14.5085 20.993 12.7842 20.993C12.3777 20.993 12.0693 20.6782 12.0763 20.2865C12.0763 19.8947 12.3847 19.5939 12.7983 19.5939C14.4665 19.5939 16.1347 19.5939 17.8029 19.5939C18.8193 19.5939 19.5973 18.8245 19.5973 17.8381C19.5973 16.9427 18.9034 16.1522 18.0132 16.1103C16.9758 16.0683 15.9454 16.1033 14.852 16.1033Z" fill="black"/>
</g>
<defs>
<clipPath id="clip0_360_384">
<rect width="21" height="21" fill="white"/>
</clipPath>
</defs>
</svg>
