<svg width="21" height="27" viewBox="0 0 21 27" fill="none" xmlns="http://www.w3.org/2000/svg">
<g clip-path="url(#clip0_360_357)">
<path d="M0.0122386 10.9283C0.0122386 9.48207 0.0583418 8.03585 0.000712853 6.58963C-0.0569161 5.12009 0.819044 3.65054 2.69775 3.38229C5.09511 3.0324 7.23891 2.0527 9.14067 0.559827C9.68238 0.128294 10.2587 -0.128294 10.9387 0.0699783C11.2038 0.139957 11.4689 0.26825 11.6763 0.431533C13.7279 2.0527 16.0446 3.05572 18.6149 3.45227C19.9634 3.6622 20.9661 4.85184 20.9661 6.22808C20.9777 9.35378 21.0238 12.4795 20.9431 15.5935C20.8739 18.2994 19.7213 20.527 17.5776 22.1482C15.4453 23.7577 13.2323 25.2505 11.0655 26.7901C10.6851 27.0583 10.2817 27.0583 9.90137 26.7901C7.74605 25.2622 5.55615 23.7577 3.4354 22.1832C1.42991 20.6903 0.277332 18.6376 0.0813934 16.13C-0.0453903 14.5089 0.0237644 12.8644 0.0122386 11.2199C0.0122386 11.1266 0.0122386 11.0216 0.0122386 10.9283ZM10.4431 2.01771C9.76306 2.46091 9.04846 2.97408 8.28776 3.41728C6.59347 4.39698 4.77239 5.01512 2.83606 5.31836C2.21367 5.41166 1.91399 5.76155 1.91399 6.36803C1.91399 9.36544 1.87942 12.3745 1.92552 15.3719C1.9601 17.5646 2.85911 19.3607 4.61103 20.667C6.48974 22.0549 8.41454 23.3728 10.3048 24.7257C10.4546 24.8307 10.5468 24.819 10.6967 24.714C12.5293 23.4078 14.3734 22.1248 16.206 20.8069C18.1077 19.4307 19.0644 17.5413 19.0759 15.1853C19.0874 12.2695 19.0759 9.36544 19.0759 6.44968C19.0759 5.74989 18.7878 5.42333 18.1077 5.31836C16.5057 5.07343 14.9612 4.61857 13.532 3.86047C12.4831 3.30065 11.4804 2.63585 10.4431 2.01771Z" fill="black"/>
<path d="M9.55604 13.5758C10.9046 12.2112 12.23 10.87 13.5555 9.52874C13.8206 9.26049 14.1087 9.10887 14.4891 9.17885C15.1806 9.30714 15.5033 10.1352 15.0769 10.7067C15.0077 10.8 14.9271 10.87 14.8579 10.9516C13.3595 12.4678 11.8612 13.984 10.3513 15.5119C9.79808 16.0717 9.30247 16.0717 8.76076 15.5236C7.85022 14.6138 6.95121 13.6925 6.05219 12.7827C5.72947 12.4562 5.66032 12.0363 5.84473 11.6514C6.01762 11.2899 6.40949 11.0449 6.78984 11.1266C7.02036 11.1732 7.2624 11.3015 7.42376 11.4648C8.06921 12.083 8.6916 12.7361 9.32552 13.3776C9.38315 13.4242 9.46383 13.4825 9.55604 13.5758Z" fill="black"/>
</g>
<defs>
<clipPath id="clip0_360_357">
<rect width="21" height="27" fill="white"/>
</clipPath>
</defs>
</svg>
