<svg width="21" height="21" viewBox="0 0 21 21" fill="none" xmlns="http://www.w3.org/2000/svg">
<g clip-path="url(#clip0_360_391)">
<path d="M0 11.1192C0 10.7081 0 10.297 0 9.88598C0.0102715 9.81404 0.0256786 9.74211 0.0359501 9.67017C0.0873074 9.28994 0.112986 8.90971 0.184886 8.53462C0.580337 6.44336 1.53558 4.6347 3.03008 3.12405C4.60161 1.54147 6.48643 0.539515 8.68966 0.159286C9.08511 0.0924884 9.48569 0.0513824 9.88628 0C10.2971 0 10.708 0 11.1189 0C11.1805 0.0102765 11.237 0.0256912 11.2986 0.0359677C11.8635 0.123318 12.4439 0.1747 13.0088 0.308295C18.3962 1.59799 21.8679 7.0137 20.8151 12.4654C20.3786 14.7313 19.3206 16.6633 17.6156 18.2151C15.1864 20.4297 12.3103 21.3134 9.05429 20.8972C6.97946 20.6352 5.15627 19.7822 3.58988 18.4C1.74615 16.7712 0.590609 14.7416 0.164343 12.3112C0.0924431 11.9156 0.0513573 11.5148 0 11.1192ZM8.0066 11.5302C5.61335 9.80377 5.61335 6.74137 7.1438 4.99951C8.76669 3.14974 11.5246 2.92366 13.3426 4.49082C14.2362 5.26156 14.7755 6.22755 14.8833 7.40421C15.0426 9.12038 14.3698 10.482 12.9934 11.5251C15.3199 12.4705 16.8144 14.1353 17.4974 16.54C20.5018 13.1796 20.7843 7.35283 16.7168 3.64815C12.6801 -0.0308294 6.47616 0.534377 3.1328 4.89675C-0.0154072 9.0022 1.19149 14.0993 3.50257 16.5195C4.18048 14.125 5.68525 12.4705 8.0066 11.5302ZM10.6669 19.7771C10.8877 19.7565 11.2832 19.7411 11.6735 19.6897C13.245 19.4945 14.6676 18.9241 15.9413 17.989C16.4806 17.5933 16.4754 17.5831 16.3111 16.9254C15.5613 13.8373 12.6082 11.8899 9.48569 12.4191C6.93837 12.8507 4.92516 14.9266 4.57594 17.4957C4.56566 17.5574 4.61189 17.6499 4.65811 17.691C6.36317 19.0577 8.30961 19.7463 10.6669 19.7771ZM10.4872 11.0524C12.2333 11.0626 13.661 9.64962 13.6867 7.8872C13.7124 6.15048 12.2795 4.69635 10.5282 4.6758C8.77696 4.65525 7.33382 6.0734 7.30814 7.8461C7.28246 9.5931 8.72047 11.0421 10.4872 11.0524Z" fill="black"/>
</g>
<defs>
<clipPath id="clip0_360_391">
<rect width="21" height="21" fill="white"/>
</clipPath>
</defs>
</svg>
