<svg width="18" height="25" viewBox="0 0 18 25" fill="none" xmlns="http://www.w3.org/2000/svg">
<g clip-path="url(#clip0_360_328)">
<path d="M9.47784 0C9.72724 0.0305698 9.97057 0.0550257 10.22 0.0978234C13.5475 0.629738 15.9138 2.46393 17.2764 5.53925C18.1463 7.50183 18.195 9.55001 17.611 11.6226C17.1061 13.4202 16.3092 15.0831 15.3846 16.6911C13.7725 19.5158 11.8381 22.102 9.72724 24.5659C9.22843 25.1467 8.74786 25.1467 8.24904 24.5659C5.85837 21.7657 3.67452 18.8127 1.96516 15.5356C1.18044 14.0377 0.493043 12.4908 0.182803 10.8156C-0.425511 7.52018 0.505209 4.70164 2.90805 2.40279C4.3315 1.03937 6.05911 0.299584 7.99963 0.0550257C8.16388 0.0366838 8.33421 0.0183419 8.50453 0C8.82694 0 9.14935 0 9.47784 0ZM8.9851 22.9213C9.03985 22.8601 9.07027 22.8295 9.0946 22.799C10.2321 21.2827 11.4123 19.7909 12.5012 18.238C13.7117 16.5138 14.7458 14.6857 15.5306 12.7232C15.9625 11.641 16.3092 10.5282 16.3579 9.35437C16.4248 7.8381 16.072 6.40743 15.2446 5.13573C13.59 2.59843 11.2298 1.43678 8.23079 1.67523C6.61876 1.80362 5.19531 2.45781 4.02126 3.58278C1.92866 5.58816 1.1926 8.02763 1.85567 10.8645C2.24499 12.5214 2.97496 14.0438 3.80227 15.5234C5.0189 17.706 6.46668 19.7298 7.99963 21.6985C8.30987 22.1081 8.64445 22.4994 8.9851 22.9213Z" fill="black"/>
<path d="M8.96115 13.6097C6.42448 13.5608 4.41705 11.4942 4.46571 8.9814C4.52046 6.46856 6.57047 4.45095 9.02806 4.49986C11.5526 4.54266 13.5539 6.60918 13.5113 9.11591C13.4688 11.6226 11.4127 13.6525 8.96115 13.6097ZM8.98548 6.13229C7.37953 6.13841 6.08382 7.4468 6.08382 9.05477C6.08382 10.6689 7.40386 11.9834 9.0159 11.9711C10.6158 11.9589 11.9176 10.6444 11.9054 9.04254C11.8932 7.43457 10.5793 6.12618 8.98548 6.13229Z" fill="black"/>
</g>
<defs>
<clipPath id="clip0_360_328">
<rect width="18" height="25" fill="white"/>
</clipPath>
</defs>
</svg>
