<svg width="21" height="15" viewBox="0 0 21 15" fill="none" xmlns="http://www.w3.org/2000/svg">
<g clip-path="url(#clip0_360_335)">
<path d="M10.5 0C13.0768 0 15.6477 0 18.2245 0C19.8606 0 21.0058 1.11006 21.0058 2.70398C21.0058 5.89753 21.0058 9.09677 21.0058 12.2903C21.0058 13.8842 19.8606 14.9943 18.2245 14.9943C13.0768 14.9943 7.92905 14.9943 2.7813 14.9943C1.14524 15 0 13.8842 0 12.296C0 9.10247 0 5.90323 0 2.70968C0 1.11575 1.14524 0 2.7813 0C5.35225 0 7.92905 0 10.5 0ZM10.5058 13.6395C13.071 13.6395 15.6419 13.6395 18.207 13.6395C19.0893 13.6395 19.6035 13.1385 19.6035 12.2732C19.6035 9.09108 19.6035 5.90892 19.6035 2.72676C19.6035 1.86148 19.0952 1.36053 18.207 1.36053C13.071 1.36053 7.94073 1.36053 2.80467 1.36053C1.90484 1.36622 1.40234 1.85579 1.40234 2.73814C1.40234 5.91461 1.40234 9.08539 1.40234 12.2619C1.40234 13.1385 1.91068 13.6395 2.80467 13.6395C5.36978 13.6395 7.94073 13.6395 10.5058 13.6395Z" fill="black"/>
<path d="M10.523 3.40988C12.8251 3.40988 15.1332 3.40988 17.4353 3.40988C17.9787 3.40988 18.3293 3.8539 18.1599 4.31501C18.0605 4.58825 17.8502 4.73626 17.558 4.77041C17.4938 4.77611 17.4295 4.77611 17.3594 4.77611C12.7901 4.77611 8.21495 4.77611 3.64567 4.77611C3.52297 4.77611 3.39442 4.77041 3.27756 4.73626C2.95619 4.63948 2.76337 4.32639 2.80427 4.0076C2.85101 3.68882 3.11979 3.43834 3.45869 3.42127C3.55803 3.41557 3.6632 3.42127 3.76253 3.42127C6.01796 3.40988 8.26754 3.40988 10.523 3.40988Z" fill="black"/>
<path d="M4.90243 10.9127C5.35235 10.9127 5.80811 10.9127 6.25802 10.9127C6.68457 10.9127 7.00009 11.203 7.00009 11.5901C7.00009 11.9772 6.69041 12.2732 6.26971 12.2732C5.35819 12.2789 4.44667 12.2789 3.53515 12.2732C3.11445 12.2732 2.79892 11.9715 2.80477 11.5844C2.81061 11.1973 3.12029 10.9127 3.54684 10.907C3.99675 10.907 4.44667 10.9127 4.90243 10.9127Z" fill="black"/>
</g>
<defs>
<clipPath id="clip0_360_335">
<rect width="21" height="15" fill="white"/>
</clipPath>
</defs>
</svg>
