<svg width="21" height="23" viewBox="0 0 21 23" fill="none" xmlns="http://www.w3.org/2000/svg">
<g clip-path="url(#clip0_360_343)">
<path d="M9.13122 23C8.86715 22.9281 8.59414 22.8787 8.33902 22.7799C7.16191 22.3352 6.40552 21.4951 6.07431 20.2778C6.06089 20.2328 6.04746 20.1924 6.02508 20.125C5.94899 20.125 5.87291 20.125 5.79234 20.125C4.41383 20.125 3.03084 20.1295 1.65232 20.1205C0.690043 20.116 -0.0529234 19.3119 0.000784998 18.3506C0.0276392 17.8699 0.233522 17.4791 0.596053 17.1602C2.09094 15.8485 2.84286 14.1908 2.86076 12.2008C2.86971 11.3563 2.86076 10.5072 2.86076 9.66271C2.86524 6.2217 5.25974 3.43205 8.64784 2.93791C9.03723 2.87951 9.43557 2.87951 9.82943 2.884C10.2501 2.88849 10.5366 3.12658 10.5992 3.47248C10.6843 3.95314 10.3218 4.34846 9.816 4.3215C8.87163 4.27209 7.96754 4.44728 7.13953 4.90549C5.3224 5.90724 4.36012 7.45705 4.29746 9.53693C4.27061 10.4174 4.29746 11.3024 4.29298 12.1873C4.27508 14.5862 3.37994 16.5897 1.59861 18.1979C1.49567 18.2877 1.38378 18.3731 1.45091 18.5348C1.51805 18.6875 1.65232 18.6875 1.79107 18.6875C6.9605 18.6875 12.1299 18.6875 17.2994 18.6785C17.4113 18.6785 17.5679 18.6156 17.6306 18.5258C17.7335 18.3865 17.5948 18.2832 17.4963 18.1934C15.9298 16.7918 15.0302 15.0444 14.8377 12.9465C14.784 12.3535 14.8064 11.7516 14.8109 11.1496C14.8154 10.8037 15.0929 10.5297 15.433 10.4983C15.8045 10.4623 16.1267 10.6824 16.2028 11.0373C16.2342 11.1811 16.2342 11.3338 16.2342 11.482C16.2297 12.2682 16.2252 13.0543 16.4266 13.8225C16.7712 15.1342 17.4426 16.2393 18.4631 17.1287C19.0315 17.6229 19.2418 18.3281 18.9957 19.0065C18.754 19.6803 18.1363 20.116 17.3934 20.116C16.0193 20.1205 14.6498 20.1205 13.2757 20.116C13.1191 20.116 13.0564 20.152 13.0027 20.3182C12.5596 21.7961 11.5794 22.6811 10.0622 22.9551C10.0174 22.9641 9.97713 22.982 9.93685 22.9955C9.6683 23 9.39976 23 9.13122 23ZM7.5513 20.134C7.76613 20.9561 8.68812 21.585 9.61907 21.558C10.4918 21.5356 11.3959 20.8662 11.5391 20.134C10.2143 20.134 8.88953 20.134 7.5513 20.134Z" fill="black"/>
<path d="M16.6955 0C16.9685 0.0583984 17.2505 0.10332 17.519 0.179688C19.7256 0.790625 21.1444 2.85703 20.9877 5.21094C20.8445 7.37168 19.09 9.22246 16.8924 9.53242C14.31 9.8918 11.9423 8.13535 11.5082 5.53887C11.0875 3.00527 12.824 0.548047 15.3617 0.0853516C15.4915 0.0628906 15.6213 0.0314453 15.7511 0.00449219C16.0689 0 16.3822 0 16.6955 0ZM19.5689 4.79316C19.5689 2.93789 18.074 1.4375 16.2256 1.4375C14.386 1.4375 12.8867 2.94688 12.8912 4.80215C12.8956 6.64395 14.386 8.13535 16.2256 8.13984C18.0785 8.14434 19.5734 6.64844 19.5689 4.79316Z" fill="black"/>
</g>
<defs>
<clipPath id="clip0_360_343">
<rect width="21" height="23" fill="white"/>
</clipPath>
</defs>
</svg>
