<svg width="21" height="23" viewBox="0 0 21 23" fill="none" xmlns="http://www.w3.org/2000/svg">
<g clip-path="url(#clip0_360_349)">
<path d="M21.0001 10.3196C20.9305 13.0195 20.0444 15.118 18.1837 16.7238C15.8292 18.7519 13.4368 20.7416 11.0571 22.7441C10.6584 23.0768 10.3229 23.0768 9.93051 22.7505C7.53177 20.7352 5.11405 18.7455 2.75329 16.6854C0.82291 15.0028 -0.050508 12.8084 0.000124955 10.2301C0.0254414 9.14884 0.348226 8.12519 0.595062 7.08876C1.10772 4.9519 1.63304 2.81504 2.15202 0.678185C2.29759 0.0576004 2.77228 -0.166322 3.3419 0.127976C4.36089 0.652593 5.43683 0.966084 6.58873 0.991675C7.81658 1.01087 8.98747 0.742162 10.0634 0.134374C10.3419 -0.0255707 10.6077 -0.0383663 10.8925 0.11518C13.0824 1.29237 15.2849 1.27318 17.5001 0.198351C17.5191 0.185556 17.5444 0.179158 17.5634 0.166363C18.2343 -0.17272 18.671 0.0256115 18.8482 0.761356C19.5001 3.44202 20.152 6.11629 20.7849 8.79696C20.9242 9.36636 20.9558 9.96136 21.0001 10.3196ZM3.41152 1.93215C3.41152 1.93215 3.39886 1.96414 3.3862 2.00252C2.82924 4.31212 2.24696 6.61532 1.72164 8.92492C1.11405 11.5736 1.82924 13.832 3.84823 15.617C5.37987 16.9733 6.97481 18.2593 8.5381 19.5772C9.18367 20.121 9.83557 20.6712 10.4875 21.2214C10.5381 21.1767 10.5824 21.1447 10.6267 21.1127C12.7786 19.2957 14.9495 17.5043 17.0824 15.6618C19.1141 13.9024 19.8546 11.6504 19.2849 9.01448C18.8546 7.03117 18.3356 5.06066 17.8546 3.09015C17.7533 2.68069 17.6584 2.27763 17.5571 1.85538C17.4432 1.90016 17.3546 1.93215 17.2659 1.96414C15.0634 2.77665 12.8862 2.69988 10.747 1.74661C10.5634 1.66344 10.4242 1.66984 10.2406 1.74661C8.76595 2.41838 7.2343 2.68709 5.63937 2.43757C4.89886 2.32881 4.17101 2.10489 3.41152 1.93215Z" fill="black"/>
<path d="M7.77878 9.02726C6.71549 7.26788 7.36739 5.4765 8.47498 4.59361C9.65852 3.65313 11.3484 3.65953 12.5319 4.6192C13.6395 5.51489 14.2408 7.29347 13.2092 9.01447C13.2788 9.05925 13.3547 9.10404 13.4243 9.14242C15.3231 10.294 16.3041 11.983 16.3864 14.2159C16.4054 14.6957 16.1079 15.0348 15.6712 15.0604C15.2345 15.086 14.8864 14.7597 14.88 14.267C14.8484 13.0835 14.4433 12.0598 13.6269 11.2025C13.1902 10.7419 12.6649 10.4028 12.0699 10.1789C11.9876 10.1469 11.8674 10.1469 11.7788 10.1853C10.918 10.5499 10.0636 10.5499 9.20283 10.1853C9.12688 10.1533 9.01928 10.1533 8.93701 10.1853C7.38637 10.7291 6.20283 12.3349 6.12688 13.9919C6.12055 14.1135 6.12055 14.2287 6.10789 14.3502C6.05726 14.7789 5.73447 15.0732 5.32941 15.0604C4.91169 15.0412 4.60156 14.7149 4.60156 14.2734C4.60156 13.1282 4.91802 12.0726 5.52561 11.1065C6.0889 10.2173 6.84207 9.53269 7.77878 9.02726ZM10.4876 8.9313C11.437 8.9313 12.2218 8.14437 12.2281 7.18471C12.2345 6.22504 11.456 5.42532 10.5003 5.41892C9.5446 5.41252 8.74713 6.21224 8.74713 7.17831C8.75346 8.14437 9.53827 8.9313 10.4876 8.9313Z" fill="black"/>
</g>
<defs>
<clipPath id="clip0_360_349">
<rect width="21" height="23" fill="white"/>
</clipPath>
</defs>
</svg>
