<svg width="21" height="21" viewBox="0 0 21 21" fill="none" xmlns="http://www.w3.org/2000/svg">
<g clip-path="url(#clip0_360_397)">
<path d="M10.527 7.21878e-06C16.2659 -0.00673869 20.9865 4.71539 21 10.4831C21.0135 16.2779 16.2996 20.9865 10.4798 21C4.73411 21.0068 0.00675101 16.2846 7.26827e-06 10.5304C-0.00673647 4.69516 4.68016 0.00675312 10.527 7.21878e-06ZM10.527 1.61902C5.66475 1.58529 1.65222 5.54514 1.6185 10.4157C1.58479 15.3065 5.53662 19.3608 10.3854 19.381C15.5443 19.408 19.3343 15.3334 19.3883 10.5708C19.4355 5.64633 15.4567 1.64601 10.527 1.61902Z" fill="black"/>
<path d="M10.4803 5.27531C11.5931 5.32927 12.6721 5.83522 13.2453 7.10345C13.7039 8.12208 13.5015 9.08674 12.8002 9.92998C12.4832 10.3078 12.1123 10.645 11.7482 10.9823C11.3098 11.3938 10.9996 11.8391 11.0198 12.4934C11.0401 12.9724 10.6489 13.2962 10.1904 13.2827C9.75202 13.2692 9.44181 12.9252 9.42158 12.4462C9.36763 11.4343 9.79923 10.6383 10.4938 9.95696C10.7771 9.68038 11.0671 9.41055 11.3503 9.13396C11.7212 8.76968 12.0044 8.35819 11.7954 7.81177C11.5796 7.23836 11.1075 6.98202 10.5276 6.91456C9.54297 6.79988 8.99672 7.15741 8.66628 8.10184C8.51118 8.55382 8.07283 8.78318 7.64798 8.64826C7.21638 8.51334 6.99383 8.08835 7.12197 7.62288C7.50636 6.17251 8.71349 5.26856 10.4803 5.27531Z" fill="black"/>
<path d="M10.2633 14.1124C10.7151 14.1327 11.0523 14.4902 11.0321 14.9354C11.0119 15.3941 10.6409 15.7247 10.1756 15.7045C9.73054 15.6842 9.40684 15.3132 9.42033 14.8612C9.4473 14.4092 9.80472 14.0922 10.2633 14.1124Z" fill="black"/>
</g>
<defs>
<clipPath id="clip0_360_397">
<rect width="21" height="21" fill="white"/>
</clipPath>
</defs>
</svg>
