<svg width="18" height="18" viewBox="0 0 18 18" fill="none" xmlns="http://www.w3.org/2000/svg">
<g clip-path="url(#clip0_0_80)">
<path d="M2.20279 16.7461C2.27097 16.7461 2.3444 16.7461 2.41258 16.7461C3.42482 16.7461 4.4423 16.7461 5.45454 16.7461C5.92657 16.7461 6.23076 17.0923 6.13636 17.5118C6.07867 17.7793 5.85839 17.9734 5.58566 17.9944C5.52797 17.9996 5.47028 17.9996 5.40734 17.9996C3.84965 17.9996 2.29195 17.9996 0.739506 17.9996C0.22552 17.9996 -0.00524902 17.7741 -0.00524902 17.2601C-0.00524902 15.6762 -0.00524902 14.0923 -0.00524902 12.5136C-0.00524902 12.0416 0.377618 11.7426 0.802443 11.8685C1.08042 11.9524 1.24825 12.2041 1.24825 12.5555C1.24825 13.5678 1.24825 14.5853 1.24825 15.5975C1.24825 15.6657 1.24825 15.7339 1.24825 15.844C1.33741 15.7653 1.38461 15.7181 1.43706 15.6657C2.94755 14.1552 4.46328 12.6395 5.97377 11.129C6.16783 10.9349 6.38286 10.83 6.66083 10.9139C7.08566 11.0398 7.24825 11.5486 6.97552 11.8947C6.92832 11.9576 6.87062 12.0101 6.81293 12.0678C5.31818 13.5625 3.82342 15.0573 2.32867 16.5468C2.27622 16.5993 2.21328 16.6307 2.15559 16.6727C2.17657 16.6989 2.1923 16.7199 2.20279 16.7461Z" fill="#737373"/>
<path d="M15.7972 1.25874C15.729 1.25874 15.6556 1.25874 15.5874 1.25874C14.5752 1.25874 13.5577 1.25874 12.5454 1.25874C12.0682 1.25874 11.7587 0.896853 11.8689 0.472028C11.9318 0.215035 12.1521 0.0314685 12.4143 0.0104895C12.4668 0 12.5297 0 12.5874 0C14.1451 0 15.7028 0 17.2552 0C17.7692 0 18 0.225524 18 0.739511C18 2.31818 18 3.89161 18 5.47028C18 5.94755 17.6329 6.25175 17.208 6.13636C16.9196 6.05769 16.7465 5.81119 16.7465 5.46503C16.7465 4.4528 16.7465 3.43531 16.7465 2.42308C16.7465 2.34965 16.7465 2.28147 16.7465 2.15559C16.6626 2.23427 16.6101 2.28671 16.5577 2.33392C15.0472 3.84441 13.5315 5.36014 12.021 6.87063C11.8531 7.03846 11.6696 7.13811 11.4283 7.10664C10.951 7.04371 10.7255 6.47727 11.0245 6.09965C11.0664 6.04196 11.1241 5.99476 11.1713 5.94231C12.6713 4.44231 14.1661 2.94755 15.6661 1.44755C15.7133 1.40035 15.7815 1.36364 15.8392 1.32168C15.8234 1.3007 15.8129 1.27972 15.7972 1.25874Z" fill="#737373"/>
</g>
<defs>
<clipPath id="clip0_0_80">
<rect width="18" height="18" fill="white"/>
</clipPath>
</defs>
</svg>
