<svg width="17" height="17" viewBox="0 0 17 17" fill="none" xmlns="http://www.w3.org/2000/svg">
<g clip-path="url(#clip0_0_22)">
<path d="M7.66145 17C6.04291 17 4.41904 17.0053 2.8005 17C1.37895 16.9947 0.271531 16.0579 0.0319449 14.6581C0.00532415 14.5091 0.00532415 14.3547 0.00532415 14.2004C0 10.9643 0 7.72825 0 4.49218C0 3.11366 0.905105 2.01723 2.25211 1.74578C2.42249 1.71385 2.59286 1.69256 2.76856 1.69256C4.50955 1.68724 6.25055 1.68724 7.99154 1.69256C8.63044 1.69256 9.05105 2.2461 8.85406 2.8156C8.73692 3.17221 8.41748 3.39043 8.01284 3.39043C6.86282 3.39043 5.71281 3.39043 4.56279 3.39043C3.97714 3.39043 3.39148 3.39043 2.81115 3.39043C2.1616 3.39043 1.6984 3.83752 1.6984 4.48686C1.69308 7.72293 1.69308 10.9537 1.6984 14.1897C1.6984 14.8444 2.15096 15.2915 2.80583 15.2915C6.03226 15.2968 9.26401 15.2968 12.4904 15.2915C13.156 15.2915 13.6032 14.8338 13.6032 14.1738C13.6032 12.1725 13.6032 10.1766 13.6032 8.17534C13.6032 7.53132 14.2101 7.11084 14.7852 7.361C15.1578 7.526 15.3069 7.82938 15.3069 8.22324C15.3069 9.34096 15.3069 10.4534 15.3069 11.5711C15.3069 12.4386 15.3122 13.3115 15.3069 14.1791C15.3016 15.6055 14.3486 16.7232 12.943 16.9574C12.7673 16.9894 12.5863 16.984 12.4053 16.984C10.824 17 9.24272 17 7.66145 17Z" fill="#737373"/>
<path d="M15.2324 2.9114C15.1845 2.97527 15.1525 3.04978 15.094 3.10833C12.8365 5.37038 10.5738 7.62711 8.31632 9.88917C8.07141 10.134 7.79455 10.2724 7.43783 10.1872C6.81491 10.0329 6.58065 9.3037 6.99061 8.81403C7.04385 8.75548 7.10241 8.69693 7.15565 8.64371C9.40244 6.3923 11.6492 4.15153 13.896 1.90545C13.9493 1.85222 14.0291 1.81497 14.093 1.77239C14.077 1.74577 14.0611 1.71916 14.0504 1.69787C13.9812 1.69787 13.912 1.69787 13.8428 1.69787C12.9057 1.69787 11.9687 1.70319 11.0316 1.69255C10.6696 1.69255 10.4087 1.50626 10.2703 1.17627C10.1372 0.856919 10.1851 0.548215 10.414 0.282091C10.5951 0.0798372 10.824 0 11.0902 0C11.8941 0.00532248 12.6981 0 13.502 0C14.3592 0 15.2164 0 16.0736 0C16.6646 0 17 0.335316 17 0.926112C17 2.59205 17 4.25798 17 5.92924C17 6.34972 16.7498 6.66907 16.3718 6.77019C16.0097 6.866 15.6051 6.71697 15.4347 6.38165C15.3548 6.2273 15.3176 6.04102 15.3176 5.8707C15.3069 4.97652 15.3122 4.07702 15.3122 3.18284C15.3122 3.11365 15.3122 3.03914 15.3122 2.96994C15.2803 2.94865 15.259 2.92736 15.2324 2.9114Z" fill="#737373"/>
</g>
<defs>
<clipPath id="clip0_0_22">
<rect width="17" height="17" fill="white"/>
</clipPath>
</defs>
</svg>
