<svg width="22" height="18" viewBox="0 0 22 18" fill="none" xmlns="http://www.w3.org/2000/svg">
<path d="M11.0244 2.65698C11.3938 2.2904 11.7633 1.85718 12.1999 1.49728C13.9263 0.0776442 15.8811 -0.395567 18.0239 0.350907C20.1936 1.10404 21.4364 2.69697 21.8797 4.91639C22.2156 6.59596 21.826 8.14889 20.9863 9.60851C20.019 11.3081 18.6889 12.7077 17.2313 14.0007C15.7669 15.3004 14.195 16.4601 12.5425 17.5131C11.5551 18.1396 10.5206 18.173 9.53311 17.5465C7.31637 16.1402 5.23397 14.5672 3.40012 12.6877C2.25816 11.508 1.22368 10.2417 0.585521 8.70874C-0.401938 6.32936 -0.166829 4.06994 1.49237 2.0638C3.44714 -0.315587 6.98721 -0.662164 9.46594 1.23068C10.0235 1.65723 10.5071 2.18377 11.0244 2.65698ZM1.2707 6.22272C1.29085 6.40934 1.29757 6.71592 1.36474 7.01585C1.43191 7.34909 1.52596 7.67568 1.64687 7.99559C2.1574 9.32192 3.01051 10.4283 3.96438 11.4614C5.77808 13.4142 7.88735 15.0004 10.1175 16.4467C10.7087 16.8266 11.2931 16.8266 11.8842 16.4467C13.5165 15.3937 15.0817 14.254 16.5192 12.9543C17.7821 11.8146 18.9509 10.5883 19.8175 9.1153C20.5765 7.82897 20.9124 6.47599 20.6034 4.98304C20.0324 2.23708 17.2581 0.617504 14.6115 1.52394C13.2814 1.97715 12.341 2.90358 11.6222 4.06328C11.2528 4.65646 10.749 4.65646 10.3795 4.06328C9.98318 3.43011 9.51296 2.86359 8.93526 2.38371C7.20217 0.957416 4.79062 0.890767 3.07096 2.25041C1.83496 3.23683 1.31772 4.56315 1.2707 6.22272Z" fill="#737373"/>
</svg>
